G04 #@! TF.GenerationSoftware,KiCad,Pcbnew,7.0.2-0*
G04 #@! TF.CreationDate,2023-06-25T21:33:59+02:00*
G04 #@! TF.ProjectId,shmoergh-funk-live-control,73686d6f-6572-4676-982d-66756e6b2d6c,rev?*
G04 #@! TF.SameCoordinates,Original*
G04 #@! TF.FileFunction,Legend,Bot*
G04 #@! TF.FilePolarity,Positive*
%FSLAX46Y46*%
G04 Gerber Fmt 4.6, Leading zero omitted, Abs format (unit mm)*
G04 Created by KiCad (PCBNEW 7.0.2-0) date 2023-06-25 21:33:59*
%MOMM*%
%LPD*%
G01*
G04 APERTURE LIST*
G04 Aperture macros list*
%AMRoundRect*
0 Rectangle with rounded corners*
0 $1 Rounding radius*
0 $2 $3 $4 $5 $6 $7 $8 $9 X,Y pos of 4 corners*
0 Add a 4 corners polygon primitive as box body*
4,1,4,$2,$3,$4,$5,$6,$7,$8,$9,$2,$3,0*
0 Add four circle primitives for the rounded corners*
1,1,$1+$1,$2,$3*
1,1,$1+$1,$4,$5*
1,1,$1+$1,$6,$7*
1,1,$1+$1,$8,$9*
0 Add four rect primitives between the rounded corners*
20,1,$1+$1,$2,$3,$4,$5,0*
20,1,$1+$1,$4,$5,$6,$7,0*
20,1,$1+$1,$6,$7,$8,$9,0*
20,1,$1+$1,$8,$9,$2,$3,0*%
G04 Aperture macros list end*
%ADD10C,0.120000*%
%ADD11O,1.700000X1.700000*%
%ADD12R,1.700000X1.700000*%
%ADD13C,2.000000*%
%ADD14O,1.600000X1.600000*%
%ADD15C,1.600000*%
%ADD16R,1.600000X1.600000*%
%ADD17R,1.560000X1.560000*%
%ADD18C,1.560000*%
%ADD19R,1.500000X1.500000*%
%ADD20C,1.500000*%
%ADD21R,1.800000X1.800000*%
%ADD22C,1.800000*%
%ADD23R,2.400000X1.600000*%
%ADD24O,2.400000X1.600000*%
%ADD25C,1.400000*%
%ADD26O,1.400000X1.400000*%
%ADD27C,6.000000*%
%ADD28R,1.600000X2.400000*%
%ADD29O,1.600000X2.400000*%
%ADD30C,1.440000*%
%ADD31R,2.200000X2.200000*%
%ADD32O,2.200000X2.200000*%
%ADD33R,1.905000X2.000000*%
%ADD34O,1.905000X2.000000*%
%ADD35RoundRect,0.250000X-0.600000X0.600000X-0.600000X-0.600000X0.600000X-0.600000X0.600000X0.600000X0*%
%ADD36C,1.700000*%
G04 APERTURE END LIST*
D10*
X155067000Y-48006000D02*
X154305000Y-48006000D01*
X90601000Y-65151000D02*
X89839000Y-65151000D01*
X58293000Y-88519000D02*
X59055000Y-88519000D01*
X55245000Y-81611000D02*
X55245000Y-82373000D01*
%LPC*%
D11*
X128397000Y-43561000D03*
X128397000Y-46101000D03*
D12*
X128397000Y-48641000D03*
D11*
X128397000Y-51181000D03*
X128397000Y-53721000D03*
X128397000Y-56261000D03*
X128397000Y-58801000D03*
D12*
X128397000Y-61341000D03*
D11*
X128397000Y-63881000D03*
X128397000Y-66421000D03*
X128397000Y-68961000D03*
X128397000Y-71501000D03*
D12*
X128397000Y-74041000D03*
D11*
X128397000Y-76581000D03*
X128397000Y-79121000D03*
X128397000Y-81661000D03*
X128397000Y-84201000D03*
D12*
X128397000Y-86741000D03*
D11*
X128397000Y-89281000D03*
X128397000Y-91821000D03*
X146177000Y-91821000D03*
X146177000Y-89281000D03*
D12*
X146177000Y-86741000D03*
D11*
X146177000Y-84201000D03*
X146177000Y-81661000D03*
X146177000Y-79121000D03*
X146177000Y-76581000D03*
D12*
X146177000Y-74041000D03*
D11*
X146177000Y-71501000D03*
X146177000Y-68961000D03*
X146177000Y-66421000D03*
X146177000Y-63881000D03*
D12*
X146177000Y-61341000D03*
D11*
X146177000Y-58801000D03*
X146177000Y-56261000D03*
X146177000Y-53721000D03*
X146177000Y-51181000D03*
D12*
X146177000Y-48641000D03*
D11*
X146177000Y-46101000D03*
X146177000Y-43561000D03*
X134747000Y-91591000D03*
D12*
X137287000Y-91591000D03*
D11*
X139827000Y-91591000D03*
D13*
X149860000Y-110744000D03*
D14*
X180340000Y-50292000D03*
D15*
X172720000Y-50292000D03*
X64897000Y-96139000D03*
D14*
X57277000Y-96139000D03*
D16*
X172974000Y-44069000D03*
D15*
X172974000Y-46569000D03*
D17*
X99648000Y-60833000D03*
D18*
X102148000Y-65833000D03*
X104648000Y-60833000D03*
D15*
X202951000Y-109982000D03*
D14*
X202951000Y-117602000D03*
D17*
X86026000Y-70271000D03*
D18*
X81026000Y-72771000D03*
X86026000Y-75271000D03*
D15*
X63172750Y-39497000D03*
D14*
X55552750Y-39497000D03*
D15*
X146304000Y-122261000D03*
X146304000Y-117261000D03*
X155194000Y-109982000D03*
D14*
X162814000Y-109982000D03*
D19*
X58092750Y-70210000D03*
D20*
X60632750Y-70210000D03*
X63172750Y-70210000D03*
D15*
X253873000Y-109982000D03*
D14*
X253873000Y-117602000D03*
D21*
X47366000Y-115189000D03*
D22*
X49906000Y-115189000D03*
D17*
X113711000Y-115657000D03*
D18*
X118711000Y-113157000D03*
X113711000Y-110657000D03*
D15*
X170815000Y-113284000D03*
D14*
X178435000Y-113284000D03*
D13*
X95758000Y-124460000D03*
X93218000Y-124460000D03*
D15*
X269207828Y-109982000D03*
D14*
X269207828Y-117602000D03*
D23*
X96789000Y-57013000D03*
D24*
X96789000Y-54473000D03*
X96789000Y-51933000D03*
X96789000Y-49393000D03*
X89169000Y-49393000D03*
X89169000Y-51933000D03*
X89169000Y-54473000D03*
X89169000Y-57013000D03*
D12*
X257683000Y-97155000D03*
D11*
X257683000Y-99695000D03*
X257683000Y-102235000D03*
X257683000Y-104775000D03*
X257683000Y-107315000D03*
X257683000Y-109855000D03*
D25*
X153416000Y-48006000D03*
D26*
X155956000Y-48006000D03*
D15*
X163068000Y-128016000D03*
X165568000Y-128016000D03*
X66601750Y-68199000D03*
D14*
X74221750Y-68199000D03*
D15*
X250444000Y-109982000D03*
D14*
X250444000Y-117602000D03*
D15*
X129667000Y-128778000D03*
D14*
X137287000Y-128778000D03*
D15*
X265778828Y-109982000D03*
D14*
X265778828Y-117602000D03*
D15*
X77851000Y-82423000D03*
D14*
X70231000Y-82423000D03*
D15*
X218353000Y-130175000D03*
D14*
X225973000Y-130175000D03*
D15*
X150241000Y-114808000D03*
D14*
X150241000Y-122428000D03*
D15*
X85725000Y-59075000D03*
X85725000Y-61575000D03*
X63172750Y-46101000D03*
D14*
X55552750Y-46101000D03*
D13*
X96520000Y-64135000D03*
X58674000Y-82931000D03*
X61214000Y-82931000D03*
X63754000Y-82931000D03*
D15*
X253619000Y-122555000D03*
X248619000Y-122555000D03*
D13*
X156651293Y-73279000D03*
X156651293Y-75819000D03*
D15*
X57277000Y-92710000D03*
D14*
X64897000Y-92710000D03*
D13*
X104902000Y-98425000D03*
X102362000Y-98425000D03*
X99822000Y-98425000D03*
X97282000Y-98425000D03*
X94742000Y-98425000D03*
X92202000Y-98425000D03*
D15*
X237744000Y-109982000D03*
D14*
X237744000Y-117602000D03*
D15*
X99949000Y-51435000D03*
X99949000Y-48935000D03*
D13*
X119634000Y-43561000D03*
X119634000Y-46101000D03*
X119634000Y-48641000D03*
X119634000Y-51181000D03*
D27*
X275844000Y-39116000D03*
D15*
X98933000Y-122428000D03*
D14*
X106553000Y-122428000D03*
D15*
X53975000Y-108839000D03*
X51475000Y-108839000D03*
D13*
X47371000Y-122174000D03*
X49911000Y-122174000D03*
X52451000Y-122174000D03*
D19*
X75311000Y-86487000D03*
D20*
X72771000Y-86487000D03*
X70231000Y-86487000D03*
D28*
X236651000Y-122540000D03*
D29*
X234111000Y-122540000D03*
X231571000Y-122540000D03*
X229031000Y-122540000D03*
X229031000Y-130160000D03*
X231571000Y-130160000D03*
X234111000Y-130160000D03*
X236651000Y-130160000D03*
D15*
X218353000Y-133477000D03*
D14*
X225973000Y-133477000D03*
D15*
X75438000Y-107188000D03*
D14*
X67818000Y-107188000D03*
D28*
X109210000Y-111237000D03*
D29*
X106670000Y-111237000D03*
X104130000Y-111237000D03*
X101590000Y-111237000D03*
X101590000Y-118857000D03*
X104130000Y-118857000D03*
X106670000Y-118857000D03*
X109210000Y-118857000D03*
D25*
X88950000Y-65151000D03*
D26*
X91490000Y-65151000D03*
D15*
X98933000Y-125730000D03*
D14*
X106553000Y-125730000D03*
D15*
X159532293Y-51562000D03*
X162032293Y-51562000D03*
D12*
X242316000Y-97155000D03*
D11*
X242316000Y-99695000D03*
X242316000Y-102235000D03*
X242316000Y-104775000D03*
X242316000Y-107315000D03*
X242316000Y-109855000D03*
D12*
X239776000Y-87503000D03*
D11*
X242316000Y-87503000D03*
X239776000Y-90043000D03*
X242316000Y-90043000D03*
X239776000Y-92583000D03*
X242316000Y-92583000D03*
D19*
X75438000Y-114321000D03*
D20*
X72898000Y-114321000D03*
X70358000Y-114321000D03*
D14*
X172720000Y-53340000D03*
D15*
X180340000Y-53340000D03*
X153416000Y-116352000D03*
X153416000Y-118852000D03*
D19*
X83185000Y-86508000D03*
D20*
X80645000Y-86508000D03*
X78105000Y-86508000D03*
D15*
X206634000Y-109982000D03*
D14*
X206634000Y-117602000D03*
D28*
X173228000Y-116713000D03*
D29*
X170688000Y-116713000D03*
X168148000Y-116713000D03*
X165608000Y-116713000D03*
X163068000Y-116713000D03*
X160528000Y-116713000D03*
X157988000Y-116713000D03*
X157988000Y-124333000D03*
X160528000Y-124333000D03*
X163068000Y-124333000D03*
X165608000Y-124333000D03*
X168148000Y-124333000D03*
X170688000Y-124333000D03*
X173228000Y-124333000D03*
D15*
X109728000Y-74803000D03*
D14*
X109728000Y-82423000D03*
D15*
X53975000Y-102489000D03*
D14*
X46355000Y-102489000D03*
D15*
X168148000Y-127762000D03*
D14*
X175768000Y-127762000D03*
D16*
X77724000Y-39243000D03*
D15*
X77724000Y-41743000D03*
D13*
X135128000Y-110998000D03*
X135128000Y-113538000D03*
X135128000Y-116078000D03*
X135128000Y-118618000D03*
X135128000Y-121158000D03*
D15*
X160528000Y-127762000D03*
D14*
X152908000Y-127762000D03*
D15*
X63172750Y-52705000D03*
D14*
X55552750Y-52705000D03*
D17*
X215005000Y-125643000D03*
D18*
X210005000Y-128143000D03*
X215005000Y-130643000D03*
D13*
X156627293Y-56604000D03*
X156627293Y-59144000D03*
X156627293Y-61684000D03*
X156627293Y-64224000D03*
X156627293Y-66764000D03*
X156627293Y-69304000D03*
D15*
X57277000Y-114046000D03*
D14*
X64897000Y-114046000D03*
D15*
X105918000Y-86487000D03*
D14*
X98298000Y-86487000D03*
D15*
X239602000Y-130175000D03*
X242102000Y-130175000D03*
D30*
X79629000Y-102362000D03*
X79629000Y-99822000D03*
X79629000Y-97282000D03*
D23*
X64912000Y-107051000D03*
D24*
X64912000Y-104511000D03*
X64912000Y-101971000D03*
X64912000Y-99431000D03*
X57292000Y-99431000D03*
X57292000Y-101971000D03*
X57292000Y-104511000D03*
X57292000Y-107051000D03*
D25*
X59944000Y-88519000D03*
D26*
X57404000Y-88519000D03*
D15*
X70211000Y-99441000D03*
X67711000Y-99441000D03*
D12*
X208915000Y-87503000D03*
D11*
X211455000Y-87503000D03*
X208915000Y-90043000D03*
X211455000Y-90043000D03*
X208915000Y-92583000D03*
X211455000Y-92583000D03*
D15*
X218821000Y-109982000D03*
D14*
X218821000Y-117602000D03*
D12*
X224282000Y-87503000D03*
D11*
X226822000Y-87503000D03*
X224282000Y-90043000D03*
X226822000Y-90043000D03*
X224282000Y-92583000D03*
X226822000Y-92583000D03*
D15*
X55552750Y-65532000D03*
D14*
X63172750Y-65532000D03*
D15*
X109220000Y-122174000D03*
X111720000Y-122174000D03*
D12*
X196024500Y-97155000D03*
D11*
X196024500Y-99695000D03*
X196024500Y-102235000D03*
X196024500Y-104775000D03*
X196024500Y-107315000D03*
X196024500Y-109855000D03*
D15*
X75311000Y-96266000D03*
D14*
X67691000Y-96266000D03*
D15*
X122936000Y-113538000D03*
D14*
X130556000Y-113538000D03*
D12*
X193484500Y-87503000D03*
D11*
X196024500Y-87503000D03*
X193484500Y-90043000D03*
X196024500Y-90043000D03*
X193484500Y-92583000D03*
X196024500Y-92583000D03*
D15*
X203454000Y-129667000D03*
D14*
X203454000Y-122047000D03*
D13*
X63680750Y-76073000D03*
X61140750Y-76073000D03*
X58600750Y-76073000D03*
D15*
X63172750Y-58928000D03*
D14*
X55552750Y-58928000D03*
D12*
X226786528Y-97155000D03*
D11*
X226786528Y-99695000D03*
X226786528Y-102235000D03*
X226786528Y-104775000D03*
X226786528Y-107315000D03*
X226786528Y-109855000D03*
D25*
X55245000Y-83262000D03*
D26*
X55245000Y-80722000D03*
D15*
X77851000Y-75692000D03*
D14*
X70231000Y-75692000D03*
D15*
X183134000Y-109982000D03*
D14*
X183134000Y-117602000D03*
D13*
X81915000Y-60325000D03*
D15*
X77851000Y-79121000D03*
D14*
X70231000Y-79121000D03*
D15*
X168148000Y-130810000D03*
X170648000Y-130810000D03*
X129667000Y-125476000D03*
D14*
X137287000Y-125476000D03*
D15*
X97155000Y-68834000D03*
D14*
X104775000Y-68834000D03*
D15*
X104120000Y-108077000D03*
X101620000Y-108077000D03*
X81915000Y-48895000D03*
D14*
X81915000Y-56515000D03*
D15*
X166898293Y-51562000D03*
X164398293Y-51562000D03*
X165608000Y-113030000D03*
X168108000Y-113030000D03*
X77396750Y-58293000D03*
X77396750Y-55793000D03*
D27*
X41656000Y-39243000D03*
D15*
X222377000Y-109982000D03*
D14*
X222377000Y-117602000D03*
D23*
X98283000Y-75321000D03*
D24*
X98283000Y-77861000D03*
X98283000Y-80401000D03*
X98283000Y-82941000D03*
X105903000Y-82941000D03*
X105903000Y-80401000D03*
X105903000Y-77861000D03*
X105903000Y-75321000D03*
D15*
X170708000Y-110236000D03*
X173208000Y-110236000D03*
D12*
X211455000Y-97155000D03*
D11*
X211455000Y-99695000D03*
X211455000Y-102235000D03*
X211455000Y-104775000D03*
X211455000Y-107315000D03*
X211455000Y-109855000D03*
D15*
X85344000Y-48895000D03*
D14*
X85344000Y-56515000D03*
D23*
X162088293Y-56604000D03*
D24*
X162088293Y-59144000D03*
X162088293Y-61684000D03*
X162088293Y-64224000D03*
X162088293Y-66764000D03*
X162088293Y-69304000D03*
X162088293Y-71844000D03*
X162088293Y-74384000D03*
X169708293Y-74384000D03*
X169708293Y-71844000D03*
X169708293Y-69304000D03*
X169708293Y-66764000D03*
X169708293Y-64224000D03*
X169708293Y-61684000D03*
X169708293Y-59144000D03*
X169708293Y-56604000D03*
D15*
X170327293Y-53701000D03*
X170327293Y-51201000D03*
X46355000Y-105791000D03*
D14*
X53975000Y-105791000D03*
D13*
X175042293Y-69304000D03*
X175042293Y-66764000D03*
X175042293Y-64224000D03*
X175042293Y-61684000D03*
X175042293Y-59144000D03*
X175042293Y-56604000D03*
D17*
X187873000Y-123871000D03*
D18*
X190373000Y-128871000D03*
X192873000Y-123871000D03*
D31*
X166751000Y-43434000D03*
D32*
X159131000Y-43434000D03*
D15*
X63172750Y-42799000D03*
D14*
X55552750Y-42799000D03*
D13*
X50038000Y-48768000D03*
X50038000Y-51308000D03*
X50038000Y-53848000D03*
D15*
X96647000Y-60579000D03*
D14*
X89027000Y-60579000D03*
D13*
X181483000Y-133223000D03*
X184023000Y-133223000D03*
X186563000Y-133223000D03*
X189103000Y-133223000D03*
X191643000Y-133223000D03*
X194183000Y-133223000D03*
D15*
X66728750Y-43902000D03*
X66728750Y-38902000D03*
X75438000Y-110490000D03*
D14*
X67818000Y-110490000D03*
D15*
X207010000Y-129667000D03*
D14*
X207010000Y-122047000D03*
D33*
X165354000Y-46736000D03*
D34*
X162814000Y-46736000D03*
X160274000Y-46736000D03*
D13*
X78486000Y-107315000D03*
D15*
X55552750Y-62230000D03*
D14*
X63172750Y-62230000D03*
D16*
X94742000Y-74803000D03*
D14*
X94742000Y-82423000D03*
D15*
X245150000Y-122555000D03*
D14*
X245150000Y-130175000D03*
D15*
X162814000Y-113284000D03*
D14*
X155194000Y-113284000D03*
D27*
X42164000Y-133350000D03*
D15*
X49911000Y-126873000D03*
D14*
X57531000Y-126873000D03*
D23*
X66675000Y-48233250D03*
D24*
X66675000Y-50773250D03*
X66675000Y-53313250D03*
X66675000Y-55853250D03*
X66675000Y-58393250D03*
X66675000Y-60933250D03*
X66675000Y-63473250D03*
X74295000Y-63473250D03*
X74295000Y-60933250D03*
X74295000Y-58393250D03*
X74295000Y-55853250D03*
X74295000Y-53313250D03*
X74295000Y-50773250D03*
X74295000Y-48233250D03*
D15*
X186309000Y-109982000D03*
D14*
X186309000Y-117602000D03*
D12*
X273144828Y-97155000D03*
D11*
X273144828Y-99695000D03*
X273144828Y-102235000D03*
X273144828Y-104775000D03*
X273144828Y-107315000D03*
X273144828Y-109855000D03*
D17*
X81534000Y-82724000D03*
D18*
X86534000Y-80224000D03*
X81534000Y-77724000D03*
D12*
X255143000Y-87503000D03*
D11*
X257683000Y-87503000D03*
X255143000Y-90043000D03*
X257683000Y-90043000D03*
X255143000Y-92583000D03*
X257683000Y-92583000D03*
D15*
X234188000Y-109982000D03*
D14*
X234188000Y-117602000D03*
D15*
X152908000Y-131191000D03*
D14*
X160528000Y-131191000D03*
D15*
X75438000Y-103886000D03*
D14*
X67818000Y-103886000D03*
D13*
X89281000Y-124460000D03*
X86741000Y-124460000D03*
X147447000Y-125984000D03*
X147447000Y-128524000D03*
X147447000Y-131064000D03*
D23*
X112014000Y-56896000D03*
D24*
X112014000Y-54356000D03*
X112014000Y-51816000D03*
X112014000Y-49276000D03*
X104394000Y-49276000D03*
X104394000Y-51816000D03*
X104394000Y-54356000D03*
X104394000Y-56896000D03*
D13*
X67818000Y-120142000D03*
D16*
X108839000Y-39330621D03*
D15*
X108839000Y-41830621D03*
D13*
X49964750Y-39497000D03*
X49964750Y-42037000D03*
X49964750Y-44577000D03*
D15*
X153416000Y-122067000D03*
X153416000Y-124567000D03*
D17*
X48935000Y-94441000D03*
D18*
X51435000Y-99441000D03*
X53935000Y-94441000D03*
D19*
X75311000Y-91715000D03*
D20*
X72771000Y-91715000D03*
X70231000Y-91715000D03*
D12*
X270604828Y-87503000D03*
D11*
X273144828Y-87503000D03*
X270604828Y-90043000D03*
X273144828Y-90043000D03*
X270604828Y-92583000D03*
X273144828Y-92583000D03*
D13*
X124079000Y-120396000D03*
X124079000Y-122936000D03*
X124079000Y-125476000D03*
X124079000Y-128016000D03*
X124079000Y-130556000D03*
X124079000Y-133096000D03*
X177927000Y-124333000D03*
D15*
X63754000Y-55833250D03*
X61254000Y-55833250D03*
X113411000Y-74803000D03*
D14*
X113411000Y-82423000D03*
D35*
X98171000Y-39370000D03*
D36*
X98171000Y-41910000D03*
X95631000Y-39370000D03*
X95631000Y-41910000D03*
X93091000Y-39370000D03*
X93091000Y-41910000D03*
X90551000Y-39370000D03*
X90551000Y-41910000D03*
X88011000Y-39370000D03*
X88011000Y-41910000D03*
D15*
X64897000Y-110744000D03*
D14*
X57277000Y-110744000D03*
D15*
X63172750Y-49403000D03*
D14*
X55552750Y-49403000D03*
D19*
X83185000Y-91588000D03*
D20*
X80645000Y-91588000D03*
X78105000Y-91588000D03*
D13*
X83058000Y-66675000D03*
D27*
X161163000Y-82296000D03*
D17*
X195366000Y-123871000D03*
D18*
X197866000Y-128871000D03*
X200366000Y-123871000D03*
D27*
X275844000Y-133477000D03*
D15*
X223600000Y-122555000D03*
X226100000Y-122555000D03*
D13*
X94488000Y-87122000D03*
X91948000Y-87122000D03*
%LPD*%
M02*
