%TF.GenerationSoftware,KiCad,Pcbnew,7.0.2-0*%
%TF.CreationDate,2023-06-25T21:33:46+02:00*%
%TF.ProjectId,shmoergh-funk-live-control,73686d6f-6572-4676-982d-66756e6b2d6c,rev?*%
%TF.SameCoordinates,Original*%
%TF.FileFunction,Drillmap*%
%TF.FilePolarity,Positive*%
%FSLAX45Y45*%
G04 Gerber Fmt 4.5, Leading zero omitted, Abs format (unit mm)*
G04 Created by KiCad (PCBNEW 7.0.2-0) date 2023-06-25 21:33:46*
%MOMM*%
%LPD*%
G01*
G04 APERTURE LIST*
%ADD10C,0.100000*%
%ADD11C,0.200000*%
%ADD12C,0.040000*%
%ADD13C,0.070000*%
%ADD14C,0.080000*%
%ADD15C,0.090000*%
%ADD16C,0.102000*%
%ADD17C,0.110000*%
%ADD18C,0.300000*%
G04 APERTURE END LIST*
D10*
X3750000Y-3500000D02*
X28000000Y-3500000D01*
X28000000Y-13750000D01*
X3750000Y-13750000D01*
X3750000Y-3500000D01*
D11*
D12*
X5110800Y-8831900D02*
X5150800Y-8871900D01*
X5150800Y-8831900D02*
X5110800Y-8871900D01*
X5568000Y-8831900D02*
X5608000Y-8871900D01*
X5608000Y-8831900D02*
X5568000Y-8871900D01*
X5809300Y-10838500D02*
X5849300Y-10878500D01*
X5849300Y-10838500D02*
X5809300Y-10878500D01*
X5987100Y-11778300D02*
X6027100Y-11818300D01*
X6027100Y-11778300D02*
X5987100Y-11818300D01*
X6317300Y-11778300D02*
X6357300Y-11818300D01*
X6357300Y-11778300D02*
X6317300Y-11818300D01*
X6431600Y-8476300D02*
X6471600Y-8516300D01*
X6471600Y-8476300D02*
X6431600Y-8516300D01*
X6761800Y-11575100D02*
X6801800Y-11615100D01*
X6801800Y-11575100D02*
X6761800Y-11615100D01*
X6876100Y-6063300D02*
X6916100Y-6103300D01*
X6916100Y-6063300D02*
X6876100Y-6103300D01*
X6888800Y-4920300D02*
X6928800Y-4960300D01*
X6928800Y-4920300D02*
X6888800Y-4960300D01*
X6977700Y-8819200D02*
X7017700Y-8859200D01*
X7017700Y-8819200D02*
X6977700Y-8859200D01*
X7130100Y-6063300D02*
X7170100Y-6103300D01*
X7170100Y-6063300D02*
X7130100Y-6103300D01*
X7130100Y-8400100D02*
X7170100Y-8440100D01*
X7170100Y-8400100D02*
X7130100Y-8440100D01*
X7142800Y-4920300D02*
X7182800Y-4960300D01*
X7182800Y-4920300D02*
X7142800Y-4960300D01*
X7244400Y-8819200D02*
X7284400Y-8859200D01*
X7284400Y-8819200D02*
X7244400Y-8859200D01*
X7409500Y-10863900D02*
X7449500Y-10903900D01*
X7449500Y-10863900D02*
X7409500Y-10903900D01*
X7420350Y-9860600D02*
X7460350Y-9900600D01*
X7460350Y-9860600D02*
X7420350Y-9900600D01*
X7612700Y-9860600D02*
X7652700Y-9900600D01*
X7652700Y-9860600D02*
X7612700Y-9900600D01*
X7676200Y-10863900D02*
X7716200Y-10903900D01*
X7716200Y-10863900D02*
X7676200Y-10903900D01*
X8108000Y-11562400D02*
X8148000Y-11602400D01*
X8148000Y-11562400D02*
X8108000Y-11602400D01*
X8108000Y-11778300D02*
X8148000Y-11818300D01*
X8148000Y-11778300D02*
X8108000Y-11818300D01*
X8577900Y-7166350D02*
X8617900Y-7206350D01*
X8617900Y-7166350D02*
X8577900Y-7206350D01*
X8577900Y-7347850D02*
X8617900Y-7387850D01*
X8617900Y-7347850D02*
X8577900Y-7387850D01*
X9149400Y-4539300D02*
X9189400Y-4579300D01*
X9189400Y-4539300D02*
X9149400Y-4579300D01*
X9149400Y-4666300D02*
X9189400Y-4706300D01*
X9189400Y-4666300D02*
X9149400Y-4706300D01*
X9416100Y-4539300D02*
X9456100Y-4579300D01*
X9456100Y-4539300D02*
X9416100Y-4579300D01*
X9543100Y-4666300D02*
X9583100Y-4706300D01*
X9583100Y-4666300D02*
X9543100Y-4706300D01*
X9720900Y-11321100D02*
X9760900Y-11361100D01*
X9760900Y-11321100D02*
X9720900Y-11361100D01*
X9720900Y-11613200D02*
X9760900Y-11653200D01*
X9760900Y-11613200D02*
X9720900Y-11653200D01*
X9822500Y-10013000D02*
X9862500Y-10053000D01*
X9862500Y-10013000D02*
X9822500Y-10053000D01*
X9924100Y-10368600D02*
X9964100Y-10408600D01*
X9964100Y-10368600D02*
X9924100Y-10408600D01*
X10736900Y-9924100D02*
X10776900Y-9964100D01*
X10776900Y-9924100D02*
X10736900Y-9964100D01*
X10736900Y-10254300D02*
X10776900Y-10294300D01*
X10776900Y-10254300D02*
X10736900Y-10294300D01*
X11498900Y-13073700D02*
X11538900Y-13113700D01*
X11538900Y-13073700D02*
X11498900Y-13113700D01*
X11498900Y-13315000D02*
X11538900Y-13355000D01*
X11538900Y-13315000D02*
X11498900Y-13355000D01*
X11867200Y-5822000D02*
X11907200Y-5862000D01*
X11907200Y-5822000D02*
X11867200Y-5862000D01*
X11962450Y-5714050D02*
X12002450Y-5754050D01*
X12002450Y-5714050D02*
X11962450Y-5754050D01*
X12159300Y-5720400D02*
X12199300Y-5760400D01*
X12199300Y-5720400D02*
X12159300Y-5760400D01*
X12159300Y-5834700D02*
X12199300Y-5874700D01*
X12199300Y-5834700D02*
X12159300Y-5874700D01*
X13111800Y-3985000D02*
X13151800Y-4025000D01*
X13151800Y-3985000D02*
X13111800Y-4025000D01*
X13111800Y-4247200D02*
X13151800Y-4287200D01*
X13151800Y-4247200D02*
X13111800Y-4287200D01*
X13594400Y-3980500D02*
X13634400Y-4020500D01*
X13634400Y-3980500D02*
X13594400Y-4020500D01*
X13594400Y-4323400D02*
X13634400Y-4363400D01*
X13634400Y-4323400D02*
X13594400Y-4363400D01*
X13699750Y-3980500D02*
X13739750Y-4020500D01*
X13739750Y-3980500D02*
X13699750Y-4020500D01*
X13699750Y-4323400D02*
X13739750Y-4363400D01*
X13739750Y-4323400D02*
X13699750Y-4363400D01*
X14139830Y-4287150D02*
X14179830Y-4327150D01*
X14179830Y-4287150D02*
X14139830Y-4327150D01*
X14164050Y-11029000D02*
X14204050Y-11069000D01*
X14204050Y-11029000D02*
X14164050Y-11069000D01*
X14214912Y-4361052D02*
X14254912Y-4401052D01*
X14254912Y-4361052D02*
X14214912Y-4401052D01*
X14254800Y-10927400D02*
X14294800Y-10967400D01*
X14294800Y-10927400D02*
X14254800Y-10967400D01*
X14419900Y-4007750D02*
X14459900Y-4047750D01*
X14459900Y-4007750D02*
X14419900Y-4047750D01*
X14483400Y-4109350D02*
X14523400Y-4149350D01*
X14523400Y-4109350D02*
X14483400Y-4149350D01*
X14483400Y-10927400D02*
X14523400Y-10967400D01*
X14523400Y-10927400D02*
X14483400Y-10967400D01*
X14483400Y-11032750D02*
X14523400Y-11072750D01*
X14523400Y-11032750D02*
X14483400Y-11072750D01*
X15167919Y-3907623D02*
X15207919Y-3947623D01*
X15207919Y-3907623D02*
X15167919Y-3947623D01*
X15169201Y-4022021D02*
X15209201Y-4062021D01*
X15209201Y-4022021D02*
X15169201Y-4062021D01*
X15169983Y-4127368D02*
X15209983Y-4167368D01*
X15209983Y-4127368D02*
X15169983Y-4167368D01*
X15177400Y-3802700D02*
X15217400Y-3842700D01*
X15217400Y-3802700D02*
X15177400Y-3842700D01*
X15181900Y-3688400D02*
X15221900Y-3728400D01*
X15221900Y-3688400D02*
X15181900Y-3728400D01*
X15245579Y-6380800D02*
X15285579Y-6420800D01*
X15285579Y-6380800D02*
X15245579Y-6420800D01*
X15448593Y-3908050D02*
X15488593Y-3948050D01*
X15488593Y-3908050D02*
X15448593Y-3948050D01*
X15448600Y-3688400D02*
X15488600Y-3728400D01*
X15488600Y-3688400D02*
X15448600Y-3728400D01*
X15448600Y-7547350D02*
X15488600Y-7587350D01*
X15488600Y-7547350D02*
X15448600Y-7587350D01*
X15448600Y-7752400D02*
X15488600Y-7792400D01*
X15488600Y-7752400D02*
X15448600Y-7792400D01*
X15448606Y-4013400D02*
X15488606Y-4053400D01*
X15488606Y-4013400D02*
X15448606Y-4053400D01*
X15448801Y-3802700D02*
X15488801Y-3842700D01*
X15488801Y-3802700D02*
X15448801Y-3842700D01*
X15450629Y-6380800D02*
X15490629Y-6420800D01*
X15490629Y-6380800D02*
X15450629Y-6420800D01*
X15459091Y-4121747D02*
X15499091Y-4161747D01*
X15499091Y-4121747D02*
X15459091Y-4161747D01*
X15778800Y-11206800D02*
X15818800Y-11246800D01*
X15818800Y-11206800D02*
X15778800Y-11246800D01*
X15778800Y-11399150D02*
X15818800Y-11439150D01*
X15818800Y-11399150D02*
X15778800Y-11439150D01*
X15804200Y-13099100D02*
X15844200Y-13139100D01*
X15844200Y-13099100D02*
X15804200Y-13139100D01*
X15804200Y-13340400D02*
X15844200Y-13380400D01*
X15844200Y-13340400D02*
X15804200Y-13380400D01*
X16613939Y-5461900D02*
X16653939Y-5501900D01*
X16653939Y-5461900D02*
X16613939Y-5501900D01*
X16822229Y-5352100D02*
X16862229Y-5392100D01*
X16862229Y-5352100D02*
X16822229Y-5392100D01*
X17594708Y-10395850D02*
X17634708Y-10435850D01*
X17634708Y-10395850D02*
X17594708Y-10435850D01*
X17612799Y-10063800D02*
X17652799Y-10103800D01*
X17652799Y-10063800D02*
X17612799Y-10103800D01*
X17709200Y-11879900D02*
X17749200Y-11919900D01*
X17749200Y-11879900D02*
X17709200Y-11919900D01*
X17718150Y-10063800D02*
X17758150Y-10103800D01*
X17758150Y-10063800D02*
X17718150Y-10103800D01*
X17718167Y-10395850D02*
X17758167Y-10435850D01*
X17758167Y-10395850D02*
X17718167Y-10435850D01*
X17721900Y-11727500D02*
X17761900Y-11767500D01*
X17761900Y-11727500D02*
X17721900Y-11767500D01*
X17763879Y-6152200D02*
X17803879Y-6192200D01*
X17803879Y-6152200D02*
X17763879Y-6192200D01*
X17823500Y-10063800D02*
X17863500Y-10103800D01*
X17863500Y-10063800D02*
X17823500Y-10103800D01*
X17838740Y-10395850D02*
X17878740Y-10435850D01*
X17878740Y-10395850D02*
X17838740Y-10435850D01*
X17843990Y-11859410D02*
X17883990Y-11899410D01*
X17883990Y-11859410D02*
X17843990Y-11899410D01*
X17848900Y-12121200D02*
X17888900Y-12161200D01*
X17888900Y-12121200D02*
X17848900Y-12161200D01*
X17934740Y-11727500D02*
X17974740Y-11767500D01*
X17974740Y-11727500D02*
X17934740Y-11767500D01*
X17963200Y-12243700D02*
X18003200Y-12283700D01*
X18003200Y-12243700D02*
X17963200Y-12283700D01*
X18188050Y-6253800D02*
X18228050Y-6293800D01*
X18228050Y-6253800D02*
X18188050Y-6293800D01*
X18188157Y-6045858D02*
X18228157Y-6085858D01*
X18228157Y-6045858D02*
X18188157Y-6085858D01*
X18293400Y-6050600D02*
X18333400Y-6090600D01*
X18333400Y-6050600D02*
X18293400Y-6090600D01*
X18293400Y-6253800D02*
X18333400Y-6293800D01*
X18333400Y-6253800D02*
X18293400Y-6293800D01*
X18403950Y-6050600D02*
X18443950Y-6090600D01*
X18443950Y-6050600D02*
X18403950Y-6090600D01*
X18403950Y-6253800D02*
X18443950Y-6293800D01*
X18443950Y-6253800D02*
X18403950Y-6293800D01*
X18509300Y-6050600D02*
X18549300Y-6090600D01*
X18549300Y-6050600D02*
X18509300Y-6090600D01*
X18509300Y-6253800D02*
X18549300Y-6293800D01*
X18549300Y-6253800D02*
X18509300Y-6293800D01*
X20287300Y-9583050D02*
X20327300Y-9623050D01*
X20327300Y-9583050D02*
X20287300Y-9623050D01*
X20287800Y-8984300D02*
X20327800Y-9024300D01*
X20327800Y-8984300D02*
X20287800Y-9024300D01*
X20440200Y-8971600D02*
X20480200Y-9011600D01*
X20480200Y-8971600D02*
X20440200Y-9011600D01*
X20440200Y-9583050D02*
X20480200Y-9623050D01*
X20480200Y-9583050D02*
X20440200Y-9623050D01*
X22141500Y-8717600D02*
X22181500Y-8757600D01*
X22181500Y-8717600D02*
X22141500Y-8757600D01*
X22141500Y-9174800D02*
X22181500Y-9214800D01*
X22181500Y-9174800D02*
X22141500Y-9214800D01*
X23640100Y-9187500D02*
X23680100Y-9227500D01*
X23680100Y-9187500D02*
X23640100Y-9227500D01*
X23652800Y-8781100D02*
X23692800Y-8821100D01*
X23692800Y-8781100D02*
X23652800Y-8821100D01*
X24516400Y-10112750D02*
X24556400Y-10152750D01*
X24556400Y-10112750D02*
X24516400Y-10152750D01*
X24516400Y-10395850D02*
X24556400Y-10435850D01*
X24556400Y-10395850D02*
X24516400Y-10435850D01*
X24841900Y-12781600D02*
X24881900Y-12821600D01*
X24881900Y-12781600D02*
X24841900Y-12821600D01*
X24973600Y-8781100D02*
X25013600Y-8821100D01*
X25013600Y-8781100D02*
X24973600Y-8821100D01*
X24973600Y-9162100D02*
X25013600Y-9202100D01*
X25013600Y-9162100D02*
X24973600Y-9202100D01*
X26040400Y-10395850D02*
X26080400Y-10435850D01*
X26080400Y-10395850D02*
X26040400Y-10435850D01*
X26053100Y-10101900D02*
X26093100Y-10141900D01*
X26093100Y-10101900D02*
X26053100Y-10141900D01*
X26761083Y-8806500D02*
X26801083Y-8846500D01*
X26801083Y-8806500D02*
X26761083Y-8846500D01*
X26761083Y-9157600D02*
X26801083Y-9197600D01*
X26801083Y-9157600D02*
X26761083Y-9197600D01*
X27412000Y-8463600D02*
X27452000Y-8503600D01*
X27452000Y-8463600D02*
X27412000Y-8503600D01*
X27831100Y-8463600D02*
X27871100Y-8503600D01*
X27871100Y-8463600D02*
X27831100Y-8503600D01*
D13*
X5559500Y-8072200D02*
G75*
G03*
X5559500Y-8072200I-35000J0D01*
G01*
X5559500Y-8326200D02*
G75*
G03*
X5559500Y-8326200I-35000J0D01*
G01*
X5775400Y-8851900D02*
G75*
G03*
X5775400Y-8851900I-35000J0D01*
G01*
X6029400Y-8851900D02*
G75*
G03*
X6029400Y-8851900I-35000J0D01*
G01*
X8930000Y-6515100D02*
G75*
G03*
X8930000Y-6515100I-35000J0D01*
G01*
X9184000Y-6515100D02*
G75*
G03*
X9184000Y-6515100I-35000J0D01*
G01*
X15376600Y-4800600D02*
G75*
G03*
X15376600Y-4800600I-35000J0D01*
G01*
X15630600Y-4800600D02*
G75*
G03*
X15630600Y-4800600I-35000J0D01*
G01*
D14*
X4635500Y-10208900D02*
X4635500Y-10288900D01*
X4595500Y-10248900D02*
X4675500Y-10248900D01*
X4635500Y-10539100D02*
X4635500Y-10619100D01*
X4595500Y-10579100D02*
X4675500Y-10579100D01*
X4991100Y-12647300D02*
X4991100Y-12727300D01*
X4951100Y-12687300D02*
X5031100Y-12687300D01*
X5147500Y-10843900D02*
X5147500Y-10923900D01*
X5107500Y-10883900D02*
X5187500Y-10883900D01*
X5397500Y-10208900D02*
X5397500Y-10288900D01*
X5357500Y-10248900D02*
X5437500Y-10248900D01*
X5397500Y-10539100D02*
X5397500Y-10619100D01*
X5357500Y-10579100D02*
X5437500Y-10579100D01*
X5397500Y-10843900D02*
X5397500Y-10923900D01*
X5357500Y-10883900D02*
X5437500Y-10883900D01*
X5555275Y-3909700D02*
X5555275Y-3989700D01*
X5515275Y-3949700D02*
X5595275Y-3949700D01*
X5555275Y-4239900D02*
X5555275Y-4319900D01*
X5515275Y-4279900D02*
X5595275Y-4279900D01*
X5555275Y-4570100D02*
X5555275Y-4650100D01*
X5515275Y-4610100D02*
X5595275Y-4610100D01*
X5555275Y-4900300D02*
X5555275Y-4980300D01*
X5515275Y-4940300D02*
X5595275Y-4940300D01*
X5555275Y-5230500D02*
X5555275Y-5310500D01*
X5515275Y-5270500D02*
X5595275Y-5270500D01*
X5555275Y-5852800D02*
X5555275Y-5932800D01*
X5515275Y-5892800D02*
X5595275Y-5892800D01*
X5555275Y-6183000D02*
X5555275Y-6263000D01*
X5515275Y-6223000D02*
X5595275Y-6223000D01*
X5555275Y-6513200D02*
X5555275Y-6593200D01*
X5515275Y-6553200D02*
X5595275Y-6553200D01*
X5727700Y-9231000D02*
X5727700Y-9311000D01*
X5687700Y-9271000D02*
X5767700Y-9271000D01*
X5727700Y-9573900D02*
X5727700Y-9653900D01*
X5687700Y-9613900D02*
X5767700Y-9613900D01*
X5727700Y-11034400D02*
X5727700Y-11114400D01*
X5687700Y-11074400D02*
X5767700Y-11074400D01*
X5727700Y-11364600D02*
X5727700Y-11444600D01*
X5687700Y-11404600D02*
X5767700Y-11404600D01*
X5729200Y-9903100D02*
X5729200Y-9983100D01*
X5689200Y-9943100D02*
X5769200Y-9943100D01*
X5729200Y-10157100D02*
X5729200Y-10237100D01*
X5689200Y-10197100D02*
X5769200Y-10197100D01*
X5729200Y-10411100D02*
X5729200Y-10491100D01*
X5689200Y-10451100D02*
X5769200Y-10451100D01*
X5729200Y-10665100D02*
X5729200Y-10745100D01*
X5689200Y-10705100D02*
X5769200Y-10705100D01*
X5753100Y-12647300D02*
X5753100Y-12727300D01*
X5713100Y-12687300D02*
X5793100Y-12687300D01*
X5809275Y-6981000D02*
X5809275Y-7061000D01*
X5769275Y-7021000D02*
X5849275Y-7021000D01*
X6063275Y-6981000D02*
X6063275Y-7061000D01*
X6023275Y-7021000D02*
X6103275Y-7021000D01*
X6125400Y-5543325D02*
X6125400Y-5623325D01*
X6085400Y-5583325D02*
X6165400Y-5583325D01*
X6317275Y-3909700D02*
X6317275Y-3989700D01*
X6277275Y-3949700D02*
X6357275Y-3949700D01*
X6317275Y-4239900D02*
X6317275Y-4319900D01*
X6277275Y-4279900D02*
X6357275Y-4279900D01*
X6317275Y-4570100D02*
X6317275Y-4650100D01*
X6277275Y-4610100D02*
X6357275Y-4610100D01*
X6317275Y-4900300D02*
X6317275Y-4980300D01*
X6277275Y-4940300D02*
X6357275Y-4940300D01*
X6317275Y-5230500D02*
X6317275Y-5310500D01*
X6277275Y-5270500D02*
X6357275Y-5270500D01*
X6317275Y-5852800D02*
X6317275Y-5932800D01*
X6277275Y-5892800D02*
X6357275Y-5892800D01*
X6317275Y-6183000D02*
X6317275Y-6263000D01*
X6277275Y-6223000D02*
X6357275Y-6223000D01*
X6317275Y-6513200D02*
X6317275Y-6593200D01*
X6277275Y-6553200D02*
X6357275Y-6553200D01*
X6317275Y-6981000D02*
X6317275Y-7061000D01*
X6277275Y-7021000D02*
X6357275Y-7021000D01*
X6375400Y-5543325D02*
X6375400Y-5623325D01*
X6335400Y-5583325D02*
X6415400Y-5583325D01*
X6489700Y-9231000D02*
X6489700Y-9311000D01*
X6449700Y-9271000D02*
X6529700Y-9271000D01*
X6489700Y-9573900D02*
X6489700Y-9653900D01*
X6449700Y-9613900D02*
X6529700Y-9613900D01*
X6489700Y-11034400D02*
X6489700Y-11114400D01*
X6449700Y-11074400D02*
X6529700Y-11074400D01*
X6489700Y-11364600D02*
X6489700Y-11444600D01*
X6449700Y-11404600D02*
X6529700Y-11404600D01*
X6491200Y-9903100D02*
X6491200Y-9983100D01*
X6451200Y-9943100D02*
X6531200Y-9943100D01*
X6491200Y-10157100D02*
X6491200Y-10237100D01*
X6451200Y-10197100D02*
X6531200Y-10197100D01*
X6491200Y-10411100D02*
X6491200Y-10491100D01*
X6451200Y-10451100D02*
X6531200Y-10451100D01*
X6491200Y-10665100D02*
X6491200Y-10745100D01*
X6451200Y-10705100D02*
X6531200Y-10705100D01*
X6660175Y-6779900D02*
X6660175Y-6859900D01*
X6620175Y-6819900D02*
X6700175Y-6819900D01*
X6667500Y-4783325D02*
X6667500Y-4863325D01*
X6627500Y-4823325D02*
X6707500Y-4823325D01*
X6667500Y-5037325D02*
X6667500Y-5117325D01*
X6627500Y-5077325D02*
X6707500Y-5077325D01*
X6667500Y-5291325D02*
X6667500Y-5371325D01*
X6627500Y-5331325D02*
X6707500Y-5331325D01*
X6667500Y-5545325D02*
X6667500Y-5625325D01*
X6627500Y-5585325D02*
X6707500Y-5585325D01*
X6667500Y-5799325D02*
X6667500Y-5879325D01*
X6627500Y-5839325D02*
X6707500Y-5839325D01*
X6667500Y-6053325D02*
X6667500Y-6133325D01*
X6627500Y-6093325D02*
X6707500Y-6093325D01*
X6667500Y-6307325D02*
X6667500Y-6387325D01*
X6627500Y-6347325D02*
X6707500Y-6347325D01*
X6672875Y-3850200D02*
X6672875Y-3930200D01*
X6632875Y-3890200D02*
X6712875Y-3890200D01*
X6672875Y-4350200D02*
X6672875Y-4430200D01*
X6632875Y-4390200D02*
X6712875Y-4390200D01*
X6769100Y-9586600D02*
X6769100Y-9666600D01*
X6729100Y-9626600D02*
X6809100Y-9626600D01*
X6771100Y-9904100D02*
X6771100Y-9984100D01*
X6731100Y-9944100D02*
X6811100Y-9944100D01*
X6781800Y-10348600D02*
X6781800Y-10428600D01*
X6741800Y-10388600D02*
X6821800Y-10388600D01*
X6781800Y-10678800D02*
X6781800Y-10758800D01*
X6741800Y-10718800D02*
X6821800Y-10718800D01*
X6781800Y-11009000D02*
X6781800Y-11089000D01*
X6741800Y-11049000D02*
X6821800Y-11049000D01*
X7021100Y-9904100D02*
X7021100Y-9984100D01*
X6981100Y-9944100D02*
X7061100Y-9944100D01*
X7023100Y-7529200D02*
X7023100Y-7609200D01*
X6983100Y-7569200D02*
X7063100Y-7569200D01*
X7023100Y-7872100D02*
X7023100Y-7952100D01*
X6983100Y-7912100D02*
X7063100Y-7912100D01*
X7023100Y-8202300D02*
X7023100Y-8282300D01*
X6983100Y-8242300D02*
X7063100Y-8242300D01*
X7023100Y-8608700D02*
X7023100Y-8688700D01*
X6983100Y-8648700D02*
X7063100Y-8648700D01*
X7023100Y-9131500D02*
X7023100Y-9211500D01*
X6983100Y-9171500D02*
X7063100Y-9171500D01*
X7035800Y-11392100D02*
X7035800Y-11472100D01*
X6995800Y-11432100D02*
X7075800Y-11432100D01*
X7277100Y-8608700D02*
X7277100Y-8688700D01*
X7237100Y-8648700D02*
X7317100Y-8648700D01*
X7277100Y-9131500D02*
X7277100Y-9211500D01*
X7237100Y-9171500D02*
X7317100Y-9171500D01*
X7289800Y-11392100D02*
X7289800Y-11472100D01*
X7249800Y-11432100D02*
X7329800Y-11432100D01*
X7422175Y-6779900D02*
X7422175Y-6859900D01*
X7382175Y-6819900D02*
X7462175Y-6819900D01*
X7429500Y-4783325D02*
X7429500Y-4863325D01*
X7389500Y-4823325D02*
X7469500Y-4823325D01*
X7429500Y-5037325D02*
X7429500Y-5117325D01*
X7389500Y-5077325D02*
X7469500Y-5077325D01*
X7429500Y-5291325D02*
X7429500Y-5371325D01*
X7389500Y-5331325D02*
X7469500Y-5331325D01*
X7429500Y-5545325D02*
X7429500Y-5625325D01*
X7389500Y-5585325D02*
X7469500Y-5585325D01*
X7429500Y-5799325D02*
X7429500Y-5879325D01*
X7389500Y-5839325D02*
X7469500Y-5839325D01*
X7429500Y-6053325D02*
X7429500Y-6133325D01*
X7389500Y-6093325D02*
X7469500Y-6093325D01*
X7429500Y-6307325D02*
X7429500Y-6387325D01*
X7389500Y-6347325D02*
X7469500Y-6347325D01*
X7531100Y-8608700D02*
X7531100Y-8688700D01*
X7491100Y-8648700D02*
X7571100Y-8648700D01*
X7531100Y-9131500D02*
X7531100Y-9211500D01*
X7491100Y-9171500D02*
X7571100Y-9171500D01*
X7531100Y-9586600D02*
X7531100Y-9666600D01*
X7491100Y-9626600D02*
X7571100Y-9626600D01*
X7543800Y-10348600D02*
X7543800Y-10428600D01*
X7503800Y-10388600D02*
X7583800Y-10388600D01*
X7543800Y-10678800D02*
X7543800Y-10758800D01*
X7503800Y-10718800D02*
X7583800Y-10718800D01*
X7543800Y-11009000D02*
X7543800Y-11089000D01*
X7503800Y-11049000D02*
X7583800Y-11049000D01*
X7543800Y-11392100D02*
X7543800Y-11472100D01*
X7503800Y-11432100D02*
X7583800Y-11432100D01*
X7739675Y-5539300D02*
X7739675Y-5619300D01*
X7699675Y-5579300D02*
X7779675Y-5579300D01*
X7739675Y-5789300D02*
X7739675Y-5869300D01*
X7699675Y-5829300D02*
X7779675Y-5829300D01*
X7772400Y-3884300D02*
X7772400Y-3964300D01*
X7732400Y-3924300D02*
X7812400Y-3924300D01*
X7772400Y-4134300D02*
X7772400Y-4214300D01*
X7732400Y-4174300D02*
X7812400Y-4174300D01*
X7785100Y-7529200D02*
X7785100Y-7609200D01*
X7745100Y-7569200D02*
X7825100Y-7569200D01*
X7785100Y-7872100D02*
X7785100Y-7952100D01*
X7745100Y-7912100D02*
X7825100Y-7912100D01*
X7785100Y-8202300D02*
X7785100Y-8282300D01*
X7745100Y-8242300D02*
X7825100Y-8242300D01*
X7810500Y-8610800D02*
X7810500Y-8690800D01*
X7770500Y-8650800D02*
X7850500Y-8650800D01*
X7810500Y-9118800D02*
X7810500Y-9198800D01*
X7770500Y-9158800D02*
X7850500Y-9158800D01*
X7962900Y-9688200D02*
X7962900Y-9768200D01*
X7922900Y-9728200D02*
X8002900Y-9728200D01*
X7962900Y-9942200D02*
X7962900Y-10022200D01*
X7922900Y-9982200D02*
X8002900Y-9982200D01*
X7962900Y-10196200D02*
X7962900Y-10276200D01*
X7922900Y-10236200D02*
X8002900Y-10236200D01*
X8064500Y-8610800D02*
X8064500Y-8690800D01*
X8024500Y-8650800D02*
X8104500Y-8650800D01*
X8064500Y-9118800D02*
X8064500Y-9198800D01*
X8024500Y-9158800D02*
X8104500Y-9158800D01*
X8191500Y-4849500D02*
X8191500Y-4929500D01*
X8151500Y-4889500D02*
X8231500Y-4889500D01*
X8191500Y-5611500D02*
X8191500Y-5691500D01*
X8151500Y-5651500D02*
X8231500Y-5651500D01*
X8318500Y-8610800D02*
X8318500Y-8690800D01*
X8278500Y-8650800D02*
X8358500Y-8650800D01*
X8318500Y-9118800D02*
X8318500Y-9198800D01*
X8278500Y-9158800D02*
X8358500Y-9158800D01*
X8534400Y-4849500D02*
X8534400Y-4929500D01*
X8494400Y-4889500D02*
X8574400Y-4889500D01*
X8534400Y-5611500D02*
X8534400Y-5691500D01*
X8494400Y-5651500D02*
X8574400Y-5651500D01*
X8572500Y-5867500D02*
X8572500Y-5947500D01*
X8532500Y-5907500D02*
X8612500Y-5907500D01*
X8572500Y-6117500D02*
X8572500Y-6197500D01*
X8532500Y-6157500D02*
X8612500Y-6157500D01*
X8902700Y-6017900D02*
X8902700Y-6097900D01*
X8862700Y-6057900D02*
X8942700Y-6057900D01*
X8916900Y-4899300D02*
X8916900Y-4979300D01*
X8876900Y-4939300D02*
X8956900Y-4939300D01*
X8916900Y-5153300D02*
X8916900Y-5233300D01*
X8876900Y-5193300D02*
X8956900Y-5193300D01*
X8916900Y-5407300D02*
X8916900Y-5487300D01*
X8876900Y-5447300D02*
X8956900Y-5447300D01*
X8916900Y-5661300D02*
X8916900Y-5741300D01*
X8876900Y-5701300D02*
X8956900Y-5701300D01*
X9474200Y-7440300D02*
X9474200Y-7520300D01*
X9434200Y-7480300D02*
X9514200Y-7480300D01*
X9474200Y-8202300D02*
X9474200Y-8282300D01*
X9434200Y-8242300D02*
X9514200Y-8242300D01*
X9664700Y-6017900D02*
X9664700Y-6097900D01*
X9624700Y-6057900D02*
X9704700Y-6057900D01*
X9678900Y-4899300D02*
X9678900Y-4979300D01*
X9638900Y-4939300D02*
X9718900Y-4939300D01*
X9678900Y-5153300D02*
X9678900Y-5233300D01*
X9638900Y-5193300D02*
X9718900Y-5193300D01*
X9678900Y-5407300D02*
X9678900Y-5487300D01*
X9638900Y-5447300D02*
X9718900Y-5447300D01*
X9678900Y-5661300D02*
X9678900Y-5741300D01*
X9638900Y-5701300D02*
X9718900Y-5701300D01*
X9715500Y-6843400D02*
X9715500Y-6923400D01*
X9675500Y-6883400D02*
X9755500Y-6883400D01*
X9828300Y-7492100D02*
X9828300Y-7572100D01*
X9788300Y-7532100D02*
X9868300Y-7532100D01*
X9828300Y-7746100D02*
X9828300Y-7826100D01*
X9788300Y-7786100D02*
X9868300Y-7786100D01*
X9828300Y-8000100D02*
X9828300Y-8080100D01*
X9788300Y-8040100D02*
X9868300Y-8040100D01*
X9828300Y-8254100D02*
X9828300Y-8334100D01*
X9788300Y-8294100D02*
X9868300Y-8294100D01*
X9829800Y-8608700D02*
X9829800Y-8688700D01*
X9789800Y-8648700D02*
X9869800Y-8648700D01*
X9893300Y-12202800D02*
X9893300Y-12282800D01*
X9853300Y-12242800D02*
X9933300Y-12242800D01*
X9893300Y-12533000D02*
X9893300Y-12613000D01*
X9853300Y-12573000D02*
X9933300Y-12573000D01*
X9994900Y-4853500D02*
X9994900Y-4933500D01*
X9954900Y-4893500D02*
X10034900Y-4893500D01*
X9994900Y-5103500D02*
X9994900Y-5183500D01*
X9954900Y-5143500D02*
X10034900Y-5143500D01*
X10159000Y-11083700D02*
X10159000Y-11163700D01*
X10119000Y-11123700D02*
X10199000Y-11123700D01*
X10159000Y-11845700D02*
X10159000Y-11925700D01*
X10119000Y-11885700D02*
X10199000Y-11885700D01*
X10162000Y-10767700D02*
X10162000Y-10847700D01*
X10122000Y-10807700D02*
X10202000Y-10807700D01*
X10412000Y-10767700D02*
X10412000Y-10847700D01*
X10372000Y-10807700D02*
X10452000Y-10807700D01*
X10413000Y-11083700D02*
X10413000Y-11163700D01*
X10373000Y-11123700D02*
X10453000Y-11123700D01*
X10413000Y-11845700D02*
X10413000Y-11925700D01*
X10373000Y-11885700D02*
X10453000Y-11885700D01*
X10439400Y-4887600D02*
X10439400Y-4967600D01*
X10399400Y-4927600D02*
X10479400Y-4927600D01*
X10439400Y-5141600D02*
X10439400Y-5221600D01*
X10399400Y-5181600D02*
X10479400Y-5181600D01*
X10439400Y-5395600D02*
X10439400Y-5475600D01*
X10399400Y-5435600D02*
X10479400Y-5435600D01*
X10439400Y-5649600D02*
X10439400Y-5729600D01*
X10399400Y-5689600D02*
X10479400Y-5689600D01*
X10477500Y-6843400D02*
X10477500Y-6923400D01*
X10437500Y-6883400D02*
X10517500Y-6883400D01*
X10590300Y-7492100D02*
X10590300Y-7572100D01*
X10550300Y-7532100D02*
X10630300Y-7532100D01*
X10590300Y-7746100D02*
X10590300Y-7826100D01*
X10550300Y-7786100D02*
X10630300Y-7786100D01*
X10590300Y-8000100D02*
X10590300Y-8080100D01*
X10550300Y-8040100D02*
X10630300Y-8040100D01*
X10590300Y-8254100D02*
X10590300Y-8334100D01*
X10550300Y-8294100D02*
X10630300Y-8294100D01*
X10591800Y-8608700D02*
X10591800Y-8688700D01*
X10551800Y-8648700D02*
X10631800Y-8648700D01*
X10655300Y-12202800D02*
X10655300Y-12282800D01*
X10615300Y-12242800D02*
X10695300Y-12242800D01*
X10655300Y-12533000D02*
X10655300Y-12613000D01*
X10615300Y-12573000D02*
X10695300Y-12573000D01*
X10667000Y-11083700D02*
X10667000Y-11163700D01*
X10627000Y-11123700D02*
X10707000Y-11123700D01*
X10667000Y-11845700D02*
X10667000Y-11925700D01*
X10627000Y-11885700D02*
X10707000Y-11885700D01*
X10883900Y-3893062D02*
X10883900Y-3973062D01*
X10843900Y-3933062D02*
X10923900Y-3933062D01*
X10883900Y-4143062D02*
X10883900Y-4223062D01*
X10843900Y-4183062D02*
X10923900Y-4183062D01*
X10921000Y-11083700D02*
X10921000Y-11163700D01*
X10881000Y-11123700D02*
X10961000Y-11123700D01*
X10921000Y-11845700D02*
X10921000Y-11925700D01*
X10881000Y-11885700D02*
X10961000Y-11885700D01*
X10922000Y-12177400D02*
X10922000Y-12257400D01*
X10882000Y-12217400D02*
X10962000Y-12217400D01*
X10972800Y-7440300D02*
X10972800Y-7520300D01*
X10932800Y-7480300D02*
X11012800Y-7480300D01*
X10972800Y-8202300D02*
X10972800Y-8282300D01*
X10932800Y-8242300D02*
X11012800Y-8242300D01*
X11172000Y-12177400D02*
X11172000Y-12257400D01*
X11132000Y-12217400D02*
X11212000Y-12217400D01*
X11201400Y-4887600D02*
X11201400Y-4967600D01*
X11161400Y-4927600D02*
X11241400Y-4927600D01*
X11201400Y-5141600D02*
X11201400Y-5221600D01*
X11161400Y-5181600D02*
X11241400Y-5181600D01*
X11201400Y-5395600D02*
X11201400Y-5475600D01*
X11161400Y-5435600D02*
X11241400Y-5435600D01*
X11201400Y-5649600D02*
X11201400Y-5729600D01*
X11161400Y-5689600D02*
X11241400Y-5689600D01*
X11341100Y-7440300D02*
X11341100Y-7520300D01*
X11301100Y-7480300D02*
X11381100Y-7480300D01*
X11341100Y-8202300D02*
X11341100Y-8282300D01*
X11301100Y-8242300D02*
X11381100Y-8242300D01*
X12293600Y-11313800D02*
X12293600Y-11393800D01*
X12253600Y-11353800D02*
X12333600Y-11353800D01*
X12966700Y-12507600D02*
X12966700Y-12587600D01*
X12926700Y-12547600D02*
X13006700Y-12547600D01*
X12966700Y-12837800D02*
X12966700Y-12917800D01*
X12926700Y-12877800D02*
X13006700Y-12877800D01*
X13055600Y-11313800D02*
X13055600Y-11393800D01*
X13015600Y-11353800D02*
X13095600Y-11353800D01*
X13728700Y-12507600D02*
X13728700Y-12587600D01*
X13688700Y-12547600D02*
X13768700Y-12547600D01*
X13728700Y-12837800D02*
X13728700Y-12917800D01*
X13688700Y-12877800D02*
X13768700Y-12877800D01*
X14630400Y-11686100D02*
X14630400Y-11766100D01*
X14590400Y-11726100D02*
X14670400Y-11726100D01*
X14630400Y-12186100D02*
X14630400Y-12266100D01*
X14590400Y-12226100D02*
X14670400Y-12226100D01*
X15024100Y-11440800D02*
X15024100Y-11520800D01*
X14984100Y-11480800D02*
X15064100Y-11480800D01*
X15024100Y-12202800D02*
X15024100Y-12282800D01*
X14984100Y-12242800D02*
X15064100Y-12242800D01*
X15290800Y-12736200D02*
X15290800Y-12816200D01*
X15250800Y-12776200D02*
X15330800Y-12776200D01*
X15290800Y-13079100D02*
X15290800Y-13159100D01*
X15250800Y-13119100D02*
X15330800Y-13119100D01*
X15341600Y-11595200D02*
X15341600Y-11675200D01*
X15301600Y-11635200D02*
X15381600Y-11635200D01*
X15341600Y-11845200D02*
X15341600Y-11925200D01*
X15301600Y-11885200D02*
X15381600Y-11885200D01*
X15341600Y-12166700D02*
X15341600Y-12246700D01*
X15301600Y-12206700D02*
X15381600Y-12206700D01*
X15341600Y-12416700D02*
X15341600Y-12496700D01*
X15301600Y-12456700D02*
X15381600Y-12456700D01*
X15519400Y-10958200D02*
X15519400Y-11038200D01*
X15479400Y-10998200D02*
X15559400Y-10998200D01*
X15519400Y-11288400D02*
X15519400Y-11368400D01*
X15479400Y-11328400D02*
X15559400Y-11328400D01*
X15798800Y-11631300D02*
X15798800Y-11711300D01*
X15758800Y-11671300D02*
X15838800Y-11671300D01*
X15798800Y-12393300D02*
X15798800Y-12473300D01*
X15758800Y-12433300D02*
X15838800Y-12433300D01*
X15953229Y-5116200D02*
X15953229Y-5196200D01*
X15913229Y-5156200D02*
X15993229Y-5156200D01*
X16052800Y-11631300D02*
X16052800Y-11711300D01*
X16012800Y-11671300D02*
X16092800Y-11671300D01*
X16052800Y-12393300D02*
X16052800Y-12473300D01*
X16012800Y-12433300D02*
X16092800Y-12433300D01*
X16052800Y-12736200D02*
X16052800Y-12816200D01*
X16012800Y-12776200D02*
X16092800Y-12776200D01*
X16052800Y-13079100D02*
X16052800Y-13159100D01*
X16012800Y-13119100D02*
X16092800Y-13119100D01*
X16203229Y-5116200D02*
X16203229Y-5196200D01*
X16163229Y-5156200D02*
X16243229Y-5156200D01*
X16208829Y-5620400D02*
X16208829Y-5700400D01*
X16168829Y-5660400D02*
X16248829Y-5660400D01*
X16208829Y-5874400D02*
X16208829Y-5954400D01*
X16168829Y-5914400D02*
X16248829Y-5914400D01*
X16208829Y-6128400D02*
X16208829Y-6208400D01*
X16168829Y-6168400D02*
X16248829Y-6168400D01*
X16208829Y-6382400D02*
X16208829Y-6462400D01*
X16168829Y-6422400D02*
X16248829Y-6422400D01*
X16208829Y-6636400D02*
X16208829Y-6716400D01*
X16168829Y-6676400D02*
X16248829Y-6676400D01*
X16208829Y-6890400D02*
X16208829Y-6970400D01*
X16168829Y-6930400D02*
X16248829Y-6930400D01*
X16208829Y-7144400D02*
X16208829Y-7224400D01*
X16168829Y-7184400D02*
X16248829Y-7184400D01*
X16208829Y-7398400D02*
X16208829Y-7478400D01*
X16168829Y-7438400D02*
X16248829Y-7438400D01*
X16281400Y-10958200D02*
X16281400Y-11038200D01*
X16241400Y-10998200D02*
X16321400Y-10998200D01*
X16281400Y-11288400D02*
X16281400Y-11368400D01*
X16241400Y-11328400D02*
X16321400Y-11328400D01*
X16306800Y-11631300D02*
X16306800Y-11711300D01*
X16266800Y-11671300D02*
X16346800Y-11671300D01*
X16306800Y-12393300D02*
X16306800Y-12473300D01*
X16266800Y-12433300D02*
X16346800Y-12433300D01*
X16306800Y-12761600D02*
X16306800Y-12841600D01*
X16266800Y-12801600D02*
X16346800Y-12801600D01*
X16439829Y-5116200D02*
X16439829Y-5196200D01*
X16399829Y-5156200D02*
X16479829Y-5156200D01*
X16556800Y-12761600D02*
X16556800Y-12841600D01*
X16516800Y-12801600D02*
X16596800Y-12801600D01*
X16560800Y-11263000D02*
X16560800Y-11343000D01*
X16520800Y-11303000D02*
X16600800Y-11303000D01*
X16560800Y-11631300D02*
X16560800Y-11711300D01*
X16520800Y-11671300D02*
X16600800Y-11671300D01*
X16560800Y-12393300D02*
X16560800Y-12473300D01*
X16520800Y-12433300D02*
X16600800Y-12433300D01*
X16689829Y-5116200D02*
X16689829Y-5196200D01*
X16649829Y-5156200D02*
X16729829Y-5156200D01*
X16810800Y-11263000D02*
X16810800Y-11343000D01*
X16770800Y-11303000D02*
X16850800Y-11303000D01*
X16814800Y-11631300D02*
X16814800Y-11711300D01*
X16774800Y-11671300D02*
X16854800Y-11671300D01*
X16814800Y-12393300D02*
X16814800Y-12473300D01*
X16774800Y-12433300D02*
X16854800Y-12433300D01*
X16814800Y-12736200D02*
X16814800Y-12816200D01*
X16774800Y-12776200D02*
X16854800Y-12776200D01*
X16814800Y-13041000D02*
X16814800Y-13121000D01*
X16774800Y-13081000D02*
X16854800Y-13081000D01*
X16970829Y-5620400D02*
X16970829Y-5700400D01*
X16930829Y-5660400D02*
X17010829Y-5660400D01*
X16970829Y-5874400D02*
X16970829Y-5954400D01*
X16930829Y-5914400D02*
X17010829Y-5914400D01*
X16970829Y-6128400D02*
X16970829Y-6208400D01*
X16930829Y-6168400D02*
X17010829Y-6168400D01*
X16970829Y-6382400D02*
X16970829Y-6462400D01*
X16930829Y-6422400D02*
X17010829Y-6422400D01*
X16970829Y-6636400D02*
X16970829Y-6716400D01*
X16930829Y-6676400D02*
X17010829Y-6676400D01*
X16970829Y-6890400D02*
X16970829Y-6970400D01*
X16930829Y-6930400D02*
X17010829Y-6930400D01*
X16970829Y-7144400D02*
X16970829Y-7224400D01*
X16930829Y-7184400D02*
X17010829Y-7184400D01*
X16970829Y-7398400D02*
X16970829Y-7478400D01*
X16930829Y-7438400D02*
X17010829Y-7438400D01*
X17032729Y-5080100D02*
X17032729Y-5160100D01*
X16992729Y-5120100D02*
X17072729Y-5120100D01*
X17032729Y-5330100D02*
X17032729Y-5410100D01*
X16992729Y-5370100D02*
X17072729Y-5370100D01*
X17064800Y-13041000D02*
X17064800Y-13121000D01*
X17024800Y-13081000D02*
X17104800Y-13081000D01*
X17068800Y-11631300D02*
X17068800Y-11711300D01*
X17028800Y-11671300D02*
X17108800Y-11671300D01*
X17068800Y-12393300D02*
X17068800Y-12473300D01*
X17028800Y-12433300D02*
X17108800Y-12433300D01*
X17070800Y-10983600D02*
X17070800Y-11063600D01*
X17030800Y-11023600D02*
X17110800Y-11023600D01*
X17081500Y-11288400D02*
X17081500Y-11368400D01*
X17041500Y-11328400D02*
X17121500Y-11328400D01*
X17272000Y-4989200D02*
X17272000Y-5069200D01*
X17232000Y-5029200D02*
X17312000Y-5029200D01*
X17272000Y-5294000D02*
X17272000Y-5374000D01*
X17232000Y-5334000D02*
X17312000Y-5334000D01*
X17297400Y-4366900D02*
X17297400Y-4446900D01*
X17257400Y-4406900D02*
X17337400Y-4406900D01*
X17297400Y-4616900D02*
X17297400Y-4696900D01*
X17257400Y-4656900D02*
X17337400Y-4656900D01*
X17320800Y-10983600D02*
X17320800Y-11063600D01*
X17280800Y-11023600D02*
X17360800Y-11023600D01*
X17322800Y-11631300D02*
X17322800Y-11711300D01*
X17282800Y-11671300D02*
X17362800Y-11671300D01*
X17322800Y-12393300D02*
X17322800Y-12473300D01*
X17282800Y-12433300D02*
X17362800Y-12433300D01*
X17576800Y-12736200D02*
X17576800Y-12816200D01*
X17536800Y-12776200D02*
X17616800Y-12776200D01*
X17843500Y-11288400D02*
X17843500Y-11368400D01*
X17803500Y-11328400D02*
X17883500Y-11328400D01*
X18034000Y-4989200D02*
X18034000Y-5069200D01*
X17994000Y-5029200D02*
X18074000Y-5029200D01*
X18034000Y-5294000D02*
X18034000Y-5374000D01*
X17994000Y-5334000D02*
X18074000Y-5334000D01*
X18313400Y-10958200D02*
X18313400Y-11038200D01*
X18273400Y-10998200D02*
X18353400Y-10998200D01*
X18313400Y-11720200D02*
X18313400Y-11800200D01*
X18273400Y-11760200D02*
X18353400Y-11760200D01*
X18630900Y-10958200D02*
X18630900Y-11038200D01*
X18590900Y-10998200D02*
X18670900Y-10998200D01*
X18630900Y-11720200D02*
X18630900Y-11800200D01*
X18590900Y-11760200D02*
X18670900Y-11760200D01*
X20295100Y-10958200D02*
X20295100Y-11038200D01*
X20255100Y-10998200D02*
X20335100Y-10998200D01*
X20295100Y-11720200D02*
X20295100Y-11800200D01*
X20255100Y-11760200D02*
X20335100Y-11760200D01*
X20345400Y-12164700D02*
X20345400Y-12244700D01*
X20305400Y-12204700D02*
X20385400Y-12204700D01*
X20345400Y-12926700D02*
X20345400Y-13006700D01*
X20305400Y-12966700D02*
X20385400Y-12966700D01*
X20663400Y-10958200D02*
X20663400Y-11038200D01*
X20623400Y-10998200D02*
X20703400Y-10998200D01*
X20663400Y-11720200D02*
X20663400Y-11800200D01*
X20623400Y-11760200D02*
X20703400Y-11760200D01*
X20701000Y-12164700D02*
X20701000Y-12244700D01*
X20661000Y-12204700D02*
X20741000Y-12204700D01*
X20701000Y-12926700D02*
X20701000Y-13006700D01*
X20661000Y-12966700D02*
X20741000Y-12966700D01*
X21835300Y-12977500D02*
X21835300Y-13057500D01*
X21795300Y-13017500D02*
X21875300Y-13017500D01*
X21835300Y-13307700D02*
X21835300Y-13387700D01*
X21795300Y-13347700D02*
X21875300Y-13347700D01*
X21882100Y-10958200D02*
X21882100Y-11038200D01*
X21842100Y-10998200D02*
X21922100Y-10998200D01*
X21882100Y-11720200D02*
X21882100Y-11800200D01*
X21842100Y-11760200D02*
X21922100Y-11760200D01*
X22237700Y-10958200D02*
X22237700Y-11038200D01*
X22197700Y-10998200D02*
X22277700Y-10998200D01*
X22237700Y-11720200D02*
X22237700Y-11800200D01*
X22197700Y-11760200D02*
X22277700Y-11760200D01*
X22360000Y-12215500D02*
X22360000Y-12295500D01*
X22320000Y-12255500D02*
X22400000Y-12255500D01*
X22597300Y-12977500D02*
X22597300Y-13057500D01*
X22557300Y-13017500D02*
X22637300Y-13017500D01*
X22597300Y-13307700D02*
X22597300Y-13387700D01*
X22557300Y-13347700D02*
X22637300Y-13347700D01*
X22610000Y-12215500D02*
X22610000Y-12295500D01*
X22570000Y-12255500D02*
X22650000Y-12255500D01*
X22903100Y-12214000D02*
X22903100Y-12294000D01*
X22863100Y-12254000D02*
X22943100Y-12254000D01*
X22903100Y-12976000D02*
X22903100Y-13056000D01*
X22863100Y-13016000D02*
X22943100Y-13016000D01*
X23157100Y-12214000D02*
X23157100Y-12294000D01*
X23117100Y-12254000D02*
X23197100Y-12254000D01*
X23157100Y-12976000D02*
X23157100Y-13056000D01*
X23117100Y-13016000D02*
X23197100Y-13016000D01*
X23411100Y-12214000D02*
X23411100Y-12294000D01*
X23371100Y-12254000D02*
X23451100Y-12254000D01*
X23411100Y-12976000D02*
X23411100Y-13056000D01*
X23371100Y-13016000D02*
X23451100Y-13016000D01*
X23418800Y-10958200D02*
X23418800Y-11038200D01*
X23378800Y-10998200D02*
X23458800Y-10998200D01*
X23418800Y-11720200D02*
X23418800Y-11800200D01*
X23378800Y-11760200D02*
X23458800Y-11760200D01*
X23665100Y-12214000D02*
X23665100Y-12294000D01*
X23625100Y-12254000D02*
X23705100Y-12254000D01*
X23665100Y-12976000D02*
X23665100Y-13056000D01*
X23625100Y-13016000D02*
X23705100Y-13016000D01*
X23774400Y-10958200D02*
X23774400Y-11038200D01*
X23734400Y-10998200D02*
X23814400Y-10998200D01*
X23774400Y-11720200D02*
X23774400Y-11800200D01*
X23734400Y-11760200D02*
X23814400Y-11760200D01*
X23960200Y-12977500D02*
X23960200Y-13057500D01*
X23920200Y-13017500D02*
X24000200Y-13017500D01*
X24210200Y-12977500D02*
X24210200Y-13057500D01*
X24170200Y-13017500D02*
X24250200Y-13017500D01*
X24515000Y-12215500D02*
X24515000Y-12295500D01*
X24475000Y-12255500D02*
X24555000Y-12255500D01*
X24515000Y-12977500D02*
X24515000Y-13057500D01*
X24475000Y-13017500D02*
X24555000Y-13017500D01*
X24861900Y-12215500D02*
X24861900Y-12295500D01*
X24821900Y-12255500D02*
X24901900Y-12255500D01*
X25044400Y-10958200D02*
X25044400Y-11038200D01*
X25004400Y-10998200D02*
X25084400Y-10998200D01*
X25044400Y-11720200D02*
X25044400Y-11800200D01*
X25004400Y-11760200D02*
X25084400Y-11760200D01*
X25361900Y-12215500D02*
X25361900Y-12295500D01*
X25321900Y-12255500D02*
X25401900Y-12255500D01*
X25387300Y-10958200D02*
X25387300Y-11038200D01*
X25347300Y-10998200D02*
X25427300Y-10998200D01*
X25387300Y-11720200D02*
X25387300Y-11800200D01*
X25347300Y-11760200D02*
X25427300Y-11760200D01*
X26577883Y-10958200D02*
X26577883Y-11038200D01*
X26537883Y-10998200D02*
X26617883Y-10998200D01*
X26577883Y-11720200D02*
X26577883Y-11800200D01*
X26537883Y-11760200D02*
X26617883Y-11760200D01*
X26920783Y-10958200D02*
X26920783Y-11038200D01*
X26880783Y-10998200D02*
X26960783Y-10998200D01*
X26920783Y-11720200D02*
X26920783Y-11800200D01*
X26880783Y-11760200D02*
X26960783Y-11760200D01*
D15*
X4768420Y-11550720D02*
X4768420Y-11487080D01*
X4704780Y-11487080D01*
X4704780Y-11550720D01*
X4768420Y-11550720D01*
X5022420Y-11550720D02*
X5022420Y-11487080D01*
X4958780Y-11487080D01*
X4958780Y-11550720D01*
X5022420Y-11550720D01*
D10*
X4737100Y-12267400D02*
X4787100Y-12217400D01*
X4737100Y-12167400D01*
X4687100Y-12217400D01*
X4737100Y-12267400D01*
X4893500Y-9494100D02*
X4943500Y-9444100D01*
X4893500Y-9394100D01*
X4843500Y-9444100D01*
X4893500Y-9494100D01*
X4991100Y-12267400D02*
X5041100Y-12217400D01*
X4991100Y-12167400D01*
X4941100Y-12217400D01*
X4991100Y-12267400D01*
X4996475Y-3999700D02*
X5046475Y-3949700D01*
X4996475Y-3899700D01*
X4946475Y-3949700D01*
X4996475Y-3999700D01*
X4996475Y-4253700D02*
X5046475Y-4203700D01*
X4996475Y-4153700D01*
X4946475Y-4203700D01*
X4996475Y-4253700D01*
X4996475Y-4507700D02*
X5046475Y-4457700D01*
X4996475Y-4407700D01*
X4946475Y-4457700D01*
X4996475Y-4507700D01*
X5003800Y-4926800D02*
X5053800Y-4876800D01*
X5003800Y-4826800D01*
X4953800Y-4876800D01*
X5003800Y-4926800D01*
X5003800Y-5180800D02*
X5053800Y-5130800D01*
X5003800Y-5080800D01*
X4953800Y-5130800D01*
X5003800Y-5180800D01*
X5003800Y-5434800D02*
X5053800Y-5384800D01*
X5003800Y-5334800D01*
X4953800Y-5384800D01*
X5003800Y-5434800D01*
X5143500Y-9994100D02*
X5193500Y-9944100D01*
X5143500Y-9894100D01*
X5093500Y-9944100D01*
X5143500Y-9994100D01*
X5245100Y-12267400D02*
X5295100Y-12217400D01*
X5245100Y-12167400D01*
X5195100Y-12217400D01*
X5245100Y-12267400D01*
X5393500Y-9494100D02*
X5443500Y-9444100D01*
X5393500Y-9394100D01*
X5343500Y-9444100D01*
X5393500Y-9494100D01*
X5860075Y-7657300D02*
X5910075Y-7607300D01*
X5860075Y-7557300D01*
X5810075Y-7607300D01*
X5860075Y-7657300D01*
X5867400Y-8343100D02*
X5917400Y-8293100D01*
X5867400Y-8243100D01*
X5817400Y-8293100D01*
X5867400Y-8343100D01*
X6114075Y-7657300D02*
X6164075Y-7607300D01*
X6114075Y-7557300D01*
X6064075Y-7607300D01*
X6114075Y-7657300D01*
X6121400Y-8343100D02*
X6171400Y-8293100D01*
X6121400Y-8243100D01*
X6071400Y-8293100D01*
X6121400Y-8343100D01*
X6368075Y-7657300D02*
X6418075Y-7607300D01*
X6368075Y-7557300D01*
X6318075Y-7607300D01*
X6368075Y-7657300D01*
X6375400Y-8343100D02*
X6425400Y-8293100D01*
X6375400Y-8243100D01*
X6325400Y-8293100D01*
X6375400Y-8343100D01*
X6781800Y-12064200D02*
X6831800Y-12014200D01*
X6781800Y-11964200D01*
X6731800Y-12014200D01*
X6781800Y-12064200D01*
X7848600Y-10781500D02*
X7898600Y-10731500D01*
X7848600Y-10681500D01*
X7798600Y-10731500D01*
X7848600Y-10781500D01*
X8102600Y-7327100D02*
X8152600Y-7277100D01*
X8102600Y-7227100D01*
X8052600Y-7277100D01*
X8102600Y-7327100D01*
X8153400Y-7822400D02*
X8203400Y-7772400D01*
X8153400Y-7722400D01*
X8103400Y-7772400D01*
X8153400Y-7822400D01*
X8153400Y-8322400D02*
X8203400Y-8272400D01*
X8153400Y-8222400D01*
X8103400Y-8272400D01*
X8153400Y-8322400D01*
X8191500Y-6082500D02*
X8241500Y-6032500D01*
X8191500Y-5982500D01*
X8141500Y-6032500D01*
X8191500Y-6082500D01*
X8305800Y-6717500D02*
X8355800Y-6667500D01*
X8305800Y-6617500D01*
X8255800Y-6667500D01*
X8305800Y-6717500D01*
X8602600Y-7077100D02*
X8652600Y-7027100D01*
X8602600Y-6977100D01*
X8552600Y-7027100D01*
X8602600Y-7077100D01*
X8602600Y-7577100D02*
X8652600Y-7527100D01*
X8602600Y-7477100D01*
X8552600Y-7527100D01*
X8602600Y-7577100D01*
X8653400Y-8072400D02*
X8703400Y-8022400D01*
X8653400Y-7972400D01*
X8603400Y-8022400D01*
X8653400Y-8072400D01*
X8674100Y-12496000D02*
X8724100Y-12446000D01*
X8674100Y-12396000D01*
X8624100Y-12446000D01*
X8674100Y-12496000D01*
X8801100Y-3987000D02*
X8851100Y-3937000D01*
X8801100Y-3887000D01*
X8751100Y-3937000D01*
X8801100Y-3987000D01*
X8801100Y-4241000D02*
X8851100Y-4191000D01*
X8801100Y-4141000D01*
X8751100Y-4191000D01*
X8801100Y-4241000D01*
X8928100Y-12496000D02*
X8978100Y-12446000D01*
X8928100Y-12396000D01*
X8878100Y-12446000D01*
X8928100Y-12496000D01*
X9055100Y-3987000D02*
X9105100Y-3937000D01*
X9055100Y-3887000D01*
X9005100Y-3937000D01*
X9055100Y-3987000D01*
X9055100Y-4241000D02*
X9105100Y-4191000D01*
X9055100Y-4141000D01*
X9005100Y-4191000D01*
X9055100Y-4241000D01*
X9194800Y-8762200D02*
X9244800Y-8712200D01*
X9194800Y-8662200D01*
X9144800Y-8712200D01*
X9194800Y-8762200D01*
X9220200Y-9892500D02*
X9270200Y-9842500D01*
X9220200Y-9792500D01*
X9170200Y-9842500D01*
X9220200Y-9892500D01*
X9309100Y-3987000D02*
X9359100Y-3937000D01*
X9309100Y-3887000D01*
X9259100Y-3937000D01*
X9309100Y-3987000D01*
X9309100Y-4241000D02*
X9359100Y-4191000D01*
X9309100Y-4141000D01*
X9259100Y-4191000D01*
X9309100Y-4241000D01*
X9321800Y-12496000D02*
X9371800Y-12446000D01*
X9321800Y-12396000D01*
X9271800Y-12446000D01*
X9321800Y-12496000D01*
X9448800Y-8762200D02*
X9498800Y-8712200D01*
X9448800Y-8662200D01*
X9398800Y-8712200D01*
X9448800Y-8762200D01*
X9474200Y-9892500D02*
X9524200Y-9842500D01*
X9474200Y-9792500D01*
X9424200Y-9842500D01*
X9474200Y-9892500D01*
X9563100Y-3987000D02*
X9613100Y-3937000D01*
X9563100Y-3887000D01*
X9513100Y-3937000D01*
X9563100Y-3987000D01*
X9563100Y-4241000D02*
X9613100Y-4191000D01*
X9563100Y-4141000D01*
X9513100Y-4191000D01*
X9563100Y-4241000D01*
X9575800Y-12496000D02*
X9625800Y-12446000D01*
X9575800Y-12396000D01*
X9525800Y-12446000D01*
X9575800Y-12496000D01*
X9652000Y-6463500D02*
X9702000Y-6413500D01*
X9652000Y-6363500D01*
X9602000Y-6413500D01*
X9652000Y-6463500D01*
X9728200Y-9892500D02*
X9778200Y-9842500D01*
X9728200Y-9792500D01*
X9678200Y-9842500D01*
X9728200Y-9892500D01*
X9817100Y-3987000D02*
X9867100Y-3937000D01*
X9817100Y-3887000D01*
X9767100Y-3937000D01*
X9817100Y-3987000D01*
X9817100Y-4241000D02*
X9867100Y-4191000D01*
X9817100Y-4141000D01*
X9767100Y-4191000D01*
X9817100Y-4241000D01*
X9964800Y-6133300D02*
X10014800Y-6083300D01*
X9964800Y-6033300D01*
X9914800Y-6083300D01*
X9964800Y-6133300D01*
X9982200Y-9892500D02*
X10032200Y-9842500D01*
X9982200Y-9792500D01*
X9932200Y-9842500D01*
X9982200Y-9892500D01*
X10214800Y-6633300D02*
X10264800Y-6583300D01*
X10214800Y-6533300D01*
X10164800Y-6583300D01*
X10214800Y-6633300D01*
X10236200Y-9892500D02*
X10286200Y-9842500D01*
X10236200Y-9792500D01*
X10186200Y-9842500D01*
X10236200Y-9892500D01*
X10464800Y-6133300D02*
X10514800Y-6083300D01*
X10464800Y-6033300D01*
X10414800Y-6083300D01*
X10464800Y-6133300D01*
X10490200Y-9892500D02*
X10540200Y-9842500D01*
X10490200Y-9792500D01*
X10440200Y-9842500D01*
X10490200Y-9892500D01*
X11371100Y-11115700D02*
X11421100Y-11065700D01*
X11371100Y-11015700D01*
X11321100Y-11065700D01*
X11371100Y-11115700D01*
X11371100Y-11615700D02*
X11421100Y-11565700D01*
X11371100Y-11515700D01*
X11321100Y-11565700D01*
X11371100Y-11615700D01*
X11871100Y-11365700D02*
X11921100Y-11315700D01*
X11871100Y-11265700D01*
X11821100Y-11315700D01*
X11871100Y-11365700D01*
X11963400Y-4406100D02*
X12013400Y-4356100D01*
X11963400Y-4306100D01*
X11913400Y-4356100D01*
X11963400Y-4406100D01*
X11963400Y-4660100D02*
X12013400Y-4610100D01*
X11963400Y-4560100D01*
X11913400Y-4610100D01*
X11963400Y-4660100D01*
X11963400Y-4914100D02*
X12013400Y-4864100D01*
X11963400Y-4814100D01*
X11913400Y-4864100D01*
X11963400Y-4914100D01*
X11963400Y-5168100D02*
X12013400Y-5118100D01*
X11963400Y-5068100D01*
X11913400Y-5118100D01*
X11963400Y-5168100D01*
X12407900Y-12089600D02*
X12457900Y-12039600D01*
X12407900Y-11989600D01*
X12357900Y-12039600D01*
X12407900Y-12089600D01*
X12407900Y-12343600D02*
X12457900Y-12293600D01*
X12407900Y-12243600D01*
X12357900Y-12293600D01*
X12407900Y-12343600D01*
X12407900Y-12597600D02*
X12457900Y-12547600D01*
X12407900Y-12497600D01*
X12357900Y-12547600D01*
X12407900Y-12597600D01*
X12407900Y-12851600D02*
X12457900Y-12801600D01*
X12407900Y-12751600D01*
X12357900Y-12801600D01*
X12407900Y-12851600D01*
X12407900Y-13105600D02*
X12457900Y-13055600D01*
X12407900Y-13005600D01*
X12357900Y-13055600D01*
X12407900Y-13105600D01*
X12407900Y-13359600D02*
X12457900Y-13309600D01*
X12407900Y-13259600D01*
X12357900Y-13309600D01*
X12407900Y-13359600D01*
X13512800Y-11149800D02*
X13562800Y-11099800D01*
X13512800Y-11049800D01*
X13462800Y-11099800D01*
X13512800Y-11149800D01*
X13512800Y-11403800D02*
X13562800Y-11353800D01*
X13512800Y-11303800D01*
X13462800Y-11353800D01*
X13512800Y-11403800D01*
X13512800Y-11657800D02*
X13562800Y-11607800D01*
X13512800Y-11557800D01*
X13462800Y-11607800D01*
X13512800Y-11657800D01*
X13512800Y-11911800D02*
X13562800Y-11861800D01*
X13512800Y-11811800D01*
X13462800Y-11861800D01*
X13512800Y-11911800D01*
X13512800Y-12165800D02*
X13562800Y-12115800D01*
X13512800Y-12065800D01*
X13462800Y-12115800D01*
X13512800Y-12165800D01*
X14744700Y-12648400D02*
X14794700Y-12598400D01*
X14744700Y-12548400D01*
X14694700Y-12598400D01*
X14744700Y-12648400D01*
X14744700Y-12902400D02*
X14794700Y-12852400D01*
X14744700Y-12802400D01*
X14694700Y-12852400D01*
X14744700Y-12902400D01*
X14744700Y-13156400D02*
X14794700Y-13106400D01*
X14744700Y-13056400D01*
X14694700Y-13106400D01*
X14744700Y-13156400D01*
X14986000Y-11124400D02*
X15036000Y-11074400D01*
X14986000Y-11024400D01*
X14936000Y-11074400D01*
X14986000Y-11124400D01*
X15662729Y-5710400D02*
X15712729Y-5660400D01*
X15662729Y-5610400D01*
X15612729Y-5660400D01*
X15662729Y-5710400D01*
X15662729Y-5964400D02*
X15712729Y-5914400D01*
X15662729Y-5864400D01*
X15612729Y-5914400D01*
X15662729Y-5964400D01*
X15662729Y-6218400D02*
X15712729Y-6168400D01*
X15662729Y-6118400D01*
X15612729Y-6168400D01*
X15662729Y-6218400D01*
X15662729Y-6472400D02*
X15712729Y-6422400D01*
X15662729Y-6372400D01*
X15612729Y-6422400D01*
X15662729Y-6472400D01*
X15662729Y-6726400D02*
X15712729Y-6676400D01*
X15662729Y-6626400D01*
X15612729Y-6676400D01*
X15662729Y-6726400D01*
X15662729Y-6980400D02*
X15712729Y-6930400D01*
X15662729Y-6880400D01*
X15612729Y-6930400D01*
X15662729Y-6980400D01*
X15665129Y-7377900D02*
X15715129Y-7327900D01*
X15665129Y-7277900D01*
X15615129Y-7327900D01*
X15665129Y-7377900D01*
X15665129Y-7631900D02*
X15715129Y-7581900D01*
X15665129Y-7531900D01*
X15615129Y-7581900D01*
X15665129Y-7631900D01*
X17504229Y-5710400D02*
X17554229Y-5660400D01*
X17504229Y-5610400D01*
X17454229Y-5660400D01*
X17504229Y-5710400D01*
X17504229Y-5964400D02*
X17554229Y-5914400D01*
X17504229Y-5864400D01*
X17454229Y-5914400D01*
X17504229Y-5964400D01*
X17504229Y-6218400D02*
X17554229Y-6168400D01*
X17504229Y-6118400D01*
X17454229Y-6168400D01*
X17504229Y-6218400D01*
X17504229Y-6472400D02*
X17554229Y-6422400D01*
X17504229Y-6372400D01*
X17454229Y-6422400D01*
X17504229Y-6472400D01*
X17504229Y-6726400D02*
X17554229Y-6676400D01*
X17504229Y-6626400D01*
X17454229Y-6676400D01*
X17504229Y-6726400D01*
X17504229Y-6980400D02*
X17554229Y-6930400D01*
X17504229Y-6880400D01*
X17454229Y-6930400D01*
X17504229Y-6980400D01*
X17792700Y-12483300D02*
X17842700Y-12433300D01*
X17792700Y-12383300D01*
X17742700Y-12433300D01*
X17792700Y-12483300D01*
X18148300Y-13372300D02*
X18198300Y-13322300D01*
X18148300Y-13272300D01*
X18098300Y-13322300D01*
X18148300Y-13372300D01*
X18402300Y-13372300D02*
X18452300Y-13322300D01*
X18402300Y-13272300D01*
X18352300Y-13322300D01*
X18402300Y-13372300D01*
X18656300Y-13372300D02*
X18706300Y-13322300D01*
X18656300Y-13272300D01*
X18606300Y-13322300D01*
X18656300Y-13372300D01*
X18787300Y-12437100D02*
X18837300Y-12387100D01*
X18787300Y-12337100D01*
X18737300Y-12387100D01*
X18787300Y-12437100D01*
X18910300Y-13372300D02*
X18960300Y-13322300D01*
X18910300Y-13272300D01*
X18860300Y-13322300D01*
X18910300Y-13372300D01*
X19037300Y-12937100D02*
X19087300Y-12887100D01*
X19037300Y-12837100D01*
X18987300Y-12887100D01*
X19037300Y-12937100D01*
X19164300Y-13372300D02*
X19214300Y-13322300D01*
X19164300Y-13272300D01*
X19114300Y-13322300D01*
X19164300Y-13372300D01*
X19287300Y-12437100D02*
X19337300Y-12387100D01*
X19287300Y-12337100D01*
X19237300Y-12387100D01*
X19287300Y-12437100D01*
X19348450Y-8800300D02*
X19398450Y-8750300D01*
X19348450Y-8700300D01*
X19298450Y-8750300D01*
X19348450Y-8800300D01*
X19348450Y-9054300D02*
X19398450Y-9004300D01*
X19348450Y-8954300D01*
X19298450Y-9004300D01*
X19348450Y-9054300D01*
X19348450Y-9308300D02*
X19398450Y-9258300D01*
X19348450Y-9208300D01*
X19298450Y-9258300D01*
X19348450Y-9308300D01*
X19418300Y-13372300D02*
X19468300Y-13322300D01*
X19418300Y-13272300D01*
X19368300Y-13322300D01*
X19418300Y-13372300D01*
X19536600Y-12437100D02*
X19586600Y-12387100D01*
X19536600Y-12337100D01*
X19486600Y-12387100D01*
X19536600Y-12437100D01*
X19602450Y-8800300D02*
X19652450Y-8750300D01*
X19602450Y-8700300D01*
X19552450Y-8750300D01*
X19602450Y-8800300D01*
X19602450Y-9054300D02*
X19652450Y-9004300D01*
X19602450Y-8954300D01*
X19552450Y-9004300D01*
X19602450Y-9054300D01*
X19602450Y-9308300D02*
X19652450Y-9258300D01*
X19602450Y-9208300D01*
X19552450Y-9258300D01*
X19602450Y-9308300D01*
X19602450Y-9765500D02*
X19652450Y-9715500D01*
X19602450Y-9665500D01*
X19552450Y-9715500D01*
X19602450Y-9765500D01*
X19602450Y-10019500D02*
X19652450Y-9969500D01*
X19602450Y-9919500D01*
X19552450Y-9969500D01*
X19602450Y-10019500D01*
X19602450Y-10273500D02*
X19652450Y-10223500D01*
X19602450Y-10173500D01*
X19552450Y-10223500D01*
X19602450Y-10273500D01*
X19602450Y-10527500D02*
X19652450Y-10477500D01*
X19602450Y-10427500D01*
X19552450Y-10477500D01*
X19602450Y-10527500D01*
X19602450Y-10781500D02*
X19652450Y-10731500D01*
X19602450Y-10681500D01*
X19552450Y-10731500D01*
X19602450Y-10781500D01*
X19602450Y-11035500D02*
X19652450Y-10985500D01*
X19602450Y-10935500D01*
X19552450Y-10985500D01*
X19602450Y-11035500D01*
X19786600Y-12937100D02*
X19836600Y-12887100D01*
X19786600Y-12837100D01*
X19736600Y-12887100D01*
X19786600Y-12937100D01*
X20036600Y-12437100D02*
X20086600Y-12387100D01*
X20036600Y-12337100D01*
X19986600Y-12387100D01*
X20036600Y-12437100D01*
X20891500Y-8800300D02*
X20941500Y-8750300D01*
X20891500Y-8700300D01*
X20841500Y-8750300D01*
X20891500Y-8800300D01*
X20891500Y-9054300D02*
X20941500Y-9004300D01*
X20891500Y-8954300D01*
X20841500Y-9004300D01*
X20891500Y-9054300D01*
X20891500Y-9308300D02*
X20941500Y-9258300D01*
X20891500Y-9208300D01*
X20841500Y-9258300D01*
X20891500Y-9308300D01*
X21000500Y-12864300D02*
X21050500Y-12814300D01*
X21000500Y-12764300D01*
X20950500Y-12814300D01*
X21000500Y-12864300D01*
X21145500Y-8800300D02*
X21195500Y-8750300D01*
X21145500Y-8700300D01*
X21095500Y-8750300D01*
X21145500Y-8800300D01*
X21145500Y-9054300D02*
X21195500Y-9004300D01*
X21145500Y-8954300D01*
X21095500Y-9004300D01*
X21145500Y-9054300D01*
X21145500Y-9308300D02*
X21195500Y-9258300D01*
X21145500Y-9208300D01*
X21095500Y-9258300D01*
X21145500Y-9308300D01*
X21145500Y-9765500D02*
X21195500Y-9715500D01*
X21145500Y-9665500D01*
X21095500Y-9715500D01*
X21145500Y-9765500D01*
X21145500Y-10019500D02*
X21195500Y-9969500D01*
X21145500Y-9919500D01*
X21095500Y-9969500D01*
X21145500Y-10019500D01*
X21145500Y-10273500D02*
X21195500Y-10223500D01*
X21145500Y-10173500D01*
X21095500Y-10223500D01*
X21145500Y-10273500D01*
X21145500Y-10527500D02*
X21195500Y-10477500D01*
X21145500Y-10427500D01*
X21095500Y-10477500D01*
X21145500Y-10527500D01*
X21145500Y-10781500D02*
X21195500Y-10731500D01*
X21145500Y-10681500D01*
X21095500Y-10731500D01*
X21145500Y-10781500D01*
X21145500Y-11035500D02*
X21195500Y-10985500D01*
X21145500Y-10935500D01*
X21095500Y-10985500D01*
X21145500Y-11035500D01*
X21500500Y-12614300D02*
X21550500Y-12564300D01*
X21500500Y-12514300D01*
X21450500Y-12564300D01*
X21500500Y-12614300D01*
X21500500Y-13114300D02*
X21550500Y-13064300D01*
X21500500Y-13014300D01*
X21450500Y-13064300D01*
X21500500Y-13114300D01*
X22428200Y-8800300D02*
X22478200Y-8750300D01*
X22428200Y-8700300D01*
X22378200Y-8750300D01*
X22428200Y-8800300D01*
X22428200Y-9054300D02*
X22478200Y-9004300D01*
X22428200Y-8954300D01*
X22378200Y-9004300D01*
X22428200Y-9054300D01*
X22428200Y-9308300D02*
X22478200Y-9258300D01*
X22428200Y-9208300D01*
X22378200Y-9258300D01*
X22428200Y-9308300D01*
X22678653Y-9765500D02*
X22728653Y-9715500D01*
X22678653Y-9665500D01*
X22628653Y-9715500D01*
X22678653Y-9765500D01*
X22678653Y-10019500D02*
X22728653Y-9969500D01*
X22678653Y-9919500D01*
X22628653Y-9969500D01*
X22678653Y-10019500D01*
X22678653Y-10273500D02*
X22728653Y-10223500D01*
X22678653Y-10173500D01*
X22628653Y-10223500D01*
X22678653Y-10273500D01*
X22678653Y-10527500D02*
X22728653Y-10477500D01*
X22678653Y-10427500D01*
X22628653Y-10477500D01*
X22678653Y-10527500D01*
X22678653Y-10781500D02*
X22728653Y-10731500D01*
X22678653Y-10681500D01*
X22628653Y-10731500D01*
X22678653Y-10781500D01*
X22678653Y-11035500D02*
X22728653Y-10985500D01*
X22678653Y-10935500D01*
X22628653Y-10985500D01*
X22678653Y-11035500D01*
X22682200Y-8800300D02*
X22732200Y-8750300D01*
X22682200Y-8700300D01*
X22632200Y-8750300D01*
X22682200Y-8800300D01*
X22682200Y-9054300D02*
X22732200Y-9004300D01*
X22682200Y-8954300D01*
X22632200Y-9004300D01*
X22682200Y-9054300D01*
X22682200Y-9308300D02*
X22732200Y-9258300D01*
X22682200Y-9208300D01*
X22632200Y-9258300D01*
X22682200Y-9308300D01*
X23977600Y-8800300D02*
X24027600Y-8750300D01*
X23977600Y-8700300D01*
X23927600Y-8750300D01*
X23977600Y-8800300D01*
X23977600Y-9054300D02*
X24027600Y-9004300D01*
X23977600Y-8954300D01*
X23927600Y-9004300D01*
X23977600Y-9054300D01*
X23977600Y-9308300D02*
X24027600Y-9258300D01*
X23977600Y-9208300D01*
X23927600Y-9258300D01*
X23977600Y-9308300D01*
X24231600Y-8800300D02*
X24281600Y-8750300D01*
X24231600Y-8700300D01*
X24181600Y-8750300D01*
X24231600Y-8800300D01*
X24231600Y-9054300D02*
X24281600Y-9004300D01*
X24231600Y-8954300D01*
X24181600Y-9004300D01*
X24231600Y-9054300D01*
X24231600Y-9308300D02*
X24281600Y-9258300D01*
X24231600Y-9208300D01*
X24181600Y-9258300D01*
X24231600Y-9308300D01*
X24231600Y-9765500D02*
X24281600Y-9715500D01*
X24231600Y-9665500D01*
X24181600Y-9715500D01*
X24231600Y-9765500D01*
X24231600Y-10019500D02*
X24281600Y-9969500D01*
X24231600Y-9919500D01*
X24181600Y-9969500D01*
X24231600Y-10019500D01*
X24231600Y-10273500D02*
X24281600Y-10223500D01*
X24231600Y-10173500D01*
X24181600Y-10223500D01*
X24231600Y-10273500D01*
X24231600Y-10527500D02*
X24281600Y-10477500D01*
X24231600Y-10427500D01*
X24181600Y-10477500D01*
X24231600Y-10527500D01*
X24231600Y-10781500D02*
X24281600Y-10731500D01*
X24231600Y-10681500D01*
X24181600Y-10731500D01*
X24231600Y-10781500D01*
X24231600Y-11035500D02*
X24281600Y-10985500D01*
X24231600Y-10935500D01*
X24181600Y-10985500D01*
X24231600Y-11035500D01*
X25514300Y-8800300D02*
X25564300Y-8750300D01*
X25514300Y-8700300D01*
X25464300Y-8750300D01*
X25514300Y-8800300D01*
X25514300Y-9054300D02*
X25564300Y-9004300D01*
X25514300Y-8954300D01*
X25464300Y-9004300D01*
X25514300Y-9054300D01*
X25514300Y-9308300D02*
X25564300Y-9258300D01*
X25514300Y-9208300D01*
X25464300Y-9258300D01*
X25514300Y-9308300D01*
X25768300Y-8800300D02*
X25818300Y-8750300D01*
X25768300Y-8700300D01*
X25718300Y-8750300D01*
X25768300Y-8800300D01*
X25768300Y-9054300D02*
X25818300Y-9004300D01*
X25768300Y-8954300D01*
X25718300Y-9004300D01*
X25768300Y-9054300D01*
X25768300Y-9308300D02*
X25818300Y-9258300D01*
X25768300Y-9208300D01*
X25718300Y-9258300D01*
X25768300Y-9308300D01*
X25768300Y-9765500D02*
X25818300Y-9715500D01*
X25768300Y-9665500D01*
X25718300Y-9715500D01*
X25768300Y-9765500D01*
X25768300Y-10019500D02*
X25818300Y-9969500D01*
X25768300Y-9919500D01*
X25718300Y-9969500D01*
X25768300Y-10019500D01*
X25768300Y-10273500D02*
X25818300Y-10223500D01*
X25768300Y-10173500D01*
X25718300Y-10223500D01*
X25768300Y-10273500D01*
X25768300Y-10527500D02*
X25818300Y-10477500D01*
X25768300Y-10427500D01*
X25718300Y-10477500D01*
X25768300Y-10527500D01*
X25768300Y-10781500D02*
X25818300Y-10731500D01*
X25768300Y-10681500D01*
X25718300Y-10731500D01*
X25768300Y-10781500D01*
X25768300Y-11035500D02*
X25818300Y-10985500D01*
X25768300Y-10935500D01*
X25718300Y-10985500D01*
X25768300Y-11035500D01*
X27060483Y-8800300D02*
X27110483Y-8750300D01*
X27060483Y-8700300D01*
X27010483Y-8750300D01*
X27060483Y-8800300D01*
X27060483Y-9054300D02*
X27110483Y-9004300D01*
X27060483Y-8954300D01*
X27010483Y-9004300D01*
X27060483Y-9054300D01*
X27060483Y-9308300D02*
X27110483Y-9258300D01*
X27060483Y-9208300D01*
X27010483Y-9258300D01*
X27060483Y-9308300D01*
X27314483Y-8800300D02*
X27364483Y-8750300D01*
X27314483Y-8700300D01*
X27264483Y-8750300D01*
X27314483Y-8800300D01*
X27314483Y-9054300D02*
X27364483Y-9004300D01*
X27314483Y-8954300D01*
X27264483Y-9004300D01*
X27314483Y-9054300D01*
X27314483Y-9308300D02*
X27364483Y-9258300D01*
X27314483Y-9208300D01*
X27264483Y-9258300D01*
X27314483Y-9308300D01*
X27314483Y-9765500D02*
X27364483Y-9715500D01*
X27314483Y-9665500D01*
X27264483Y-9715500D01*
X27314483Y-9765500D01*
X27314483Y-10019500D02*
X27364483Y-9969500D01*
X27314483Y-9919500D01*
X27264483Y-9969500D01*
X27314483Y-10019500D01*
X27314483Y-10273500D02*
X27364483Y-10223500D01*
X27314483Y-10173500D01*
X27264483Y-10223500D01*
X27314483Y-10273500D01*
X27314483Y-10527500D02*
X27364483Y-10477500D01*
X27314483Y-10427500D01*
X27264483Y-10477500D01*
X27314483Y-10527500D01*
X27314483Y-10781500D02*
X27364483Y-10731500D01*
X27314483Y-10681500D01*
X27264483Y-10731500D01*
X27314483Y-10781500D01*
X27314483Y-11035500D02*
X27364483Y-10985500D01*
X27314483Y-10935500D01*
X27264483Y-10985500D01*
X27314483Y-11035500D01*
D16*
X12788700Y-4305100D02*
X12890700Y-4407100D01*
X12890700Y-4305100D02*
X12788700Y-4407100D01*
X12890700Y-4356100D02*
G75*
G03*
X12890700Y-4356100I-51000J0D01*
G01*
X12788700Y-4559100D02*
X12890700Y-4661100D01*
X12890700Y-4559100D02*
X12788700Y-4661100D01*
X12890700Y-4610100D02*
G75*
G03*
X12890700Y-4610100I-51000J0D01*
G01*
X12788700Y-4813100D02*
X12890700Y-4915100D01*
X12890700Y-4813100D02*
X12788700Y-4915100D01*
X12890700Y-4864100D02*
G75*
G03*
X12890700Y-4864100I-51000J0D01*
G01*
X12788700Y-5067100D02*
X12890700Y-5169100D01*
X12890700Y-5067100D02*
X12788700Y-5169100D01*
X12890700Y-5118100D02*
G75*
G03*
X12890700Y-5118100I-51000J0D01*
G01*
X12788700Y-5321100D02*
X12890700Y-5423100D01*
X12890700Y-5321100D02*
X12788700Y-5423100D01*
X12890700Y-5372100D02*
G75*
G03*
X12890700Y-5372100I-51000J0D01*
G01*
X12788700Y-5575100D02*
X12890700Y-5677100D01*
X12890700Y-5575100D02*
X12788700Y-5677100D01*
X12890700Y-5626100D02*
G75*
G03*
X12890700Y-5626100I-51000J0D01*
G01*
X12788700Y-5829100D02*
X12890700Y-5931100D01*
X12890700Y-5829100D02*
X12788700Y-5931100D01*
X12890700Y-5880100D02*
G75*
G03*
X12890700Y-5880100I-51000J0D01*
G01*
X12788700Y-6083100D02*
X12890700Y-6185100D01*
X12890700Y-6083100D02*
X12788700Y-6185100D01*
X12890700Y-6134100D02*
G75*
G03*
X12890700Y-6134100I-51000J0D01*
G01*
X12788700Y-6337100D02*
X12890700Y-6439100D01*
X12890700Y-6337100D02*
X12788700Y-6439100D01*
X12890700Y-6388100D02*
G75*
G03*
X12890700Y-6388100I-51000J0D01*
G01*
X12788700Y-6591100D02*
X12890700Y-6693100D01*
X12890700Y-6591100D02*
X12788700Y-6693100D01*
X12890700Y-6642100D02*
G75*
G03*
X12890700Y-6642100I-51000J0D01*
G01*
X12788700Y-6845100D02*
X12890700Y-6947100D01*
X12890700Y-6845100D02*
X12788700Y-6947100D01*
X12890700Y-6896100D02*
G75*
G03*
X12890700Y-6896100I-51000J0D01*
G01*
X12788700Y-7099100D02*
X12890700Y-7201100D01*
X12890700Y-7099100D02*
X12788700Y-7201100D01*
X12890700Y-7150100D02*
G75*
G03*
X12890700Y-7150100I-51000J0D01*
G01*
X12788700Y-7353100D02*
X12890700Y-7455100D01*
X12890700Y-7353100D02*
X12788700Y-7455100D01*
X12890700Y-7404100D02*
G75*
G03*
X12890700Y-7404100I-51000J0D01*
G01*
X12788700Y-7607100D02*
X12890700Y-7709100D01*
X12890700Y-7607100D02*
X12788700Y-7709100D01*
X12890700Y-7658100D02*
G75*
G03*
X12890700Y-7658100I-51000J0D01*
G01*
X12788700Y-7861100D02*
X12890700Y-7963100D01*
X12890700Y-7861100D02*
X12788700Y-7963100D01*
X12890700Y-7912100D02*
G75*
G03*
X12890700Y-7912100I-51000J0D01*
G01*
X12788700Y-8115100D02*
X12890700Y-8217100D01*
X12890700Y-8115100D02*
X12788700Y-8217100D01*
X12890700Y-8166100D02*
G75*
G03*
X12890700Y-8166100I-51000J0D01*
G01*
X12788700Y-8369100D02*
X12890700Y-8471100D01*
X12890700Y-8369100D02*
X12788700Y-8471100D01*
X12890700Y-8420100D02*
G75*
G03*
X12890700Y-8420100I-51000J0D01*
G01*
X12788700Y-8623100D02*
X12890700Y-8725100D01*
X12890700Y-8623100D02*
X12788700Y-8725100D01*
X12890700Y-8674100D02*
G75*
G03*
X12890700Y-8674100I-51000J0D01*
G01*
X12788700Y-8877100D02*
X12890700Y-8979100D01*
X12890700Y-8877100D02*
X12788700Y-8979100D01*
X12890700Y-8928100D02*
G75*
G03*
X12890700Y-8928100I-51000J0D01*
G01*
X12788700Y-9131100D02*
X12890700Y-9233100D01*
X12890700Y-9131100D02*
X12788700Y-9233100D01*
X12890700Y-9182100D02*
G75*
G03*
X12890700Y-9182100I-51000J0D01*
G01*
X13423700Y-9108100D02*
X13525700Y-9210100D01*
X13525700Y-9108100D02*
X13423700Y-9210100D01*
X13525700Y-9159100D02*
G75*
G03*
X13525700Y-9159100I-51000J0D01*
G01*
X13677700Y-9108100D02*
X13779700Y-9210100D01*
X13779700Y-9108100D02*
X13677700Y-9210100D01*
X13779700Y-9159100D02*
G75*
G03*
X13779700Y-9159100I-51000J0D01*
G01*
X13931700Y-9108100D02*
X14033700Y-9210100D01*
X14033700Y-9108100D02*
X13931700Y-9210100D01*
X14033700Y-9159100D02*
G75*
G03*
X14033700Y-9159100I-51000J0D01*
G01*
X14566700Y-4305100D02*
X14668700Y-4407100D01*
X14668700Y-4305100D02*
X14566700Y-4407100D01*
X14668700Y-4356100D02*
G75*
G03*
X14668700Y-4356100I-51000J0D01*
G01*
X14566700Y-4559100D02*
X14668700Y-4661100D01*
X14668700Y-4559100D02*
X14566700Y-4661100D01*
X14668700Y-4610100D02*
G75*
G03*
X14668700Y-4610100I-51000J0D01*
G01*
X14566700Y-4813100D02*
X14668700Y-4915100D01*
X14668700Y-4813100D02*
X14566700Y-4915100D01*
X14668700Y-4864100D02*
G75*
G03*
X14668700Y-4864100I-51000J0D01*
G01*
X14566700Y-5067100D02*
X14668700Y-5169100D01*
X14668700Y-5067100D02*
X14566700Y-5169100D01*
X14668700Y-5118100D02*
G75*
G03*
X14668700Y-5118100I-51000J0D01*
G01*
X14566700Y-5321100D02*
X14668700Y-5423100D01*
X14668700Y-5321100D02*
X14566700Y-5423100D01*
X14668700Y-5372100D02*
G75*
G03*
X14668700Y-5372100I-51000J0D01*
G01*
X14566700Y-5575100D02*
X14668700Y-5677100D01*
X14668700Y-5575100D02*
X14566700Y-5677100D01*
X14668700Y-5626100D02*
G75*
G03*
X14668700Y-5626100I-51000J0D01*
G01*
X14566700Y-5829100D02*
X14668700Y-5931100D01*
X14668700Y-5829100D02*
X14566700Y-5931100D01*
X14668700Y-5880100D02*
G75*
G03*
X14668700Y-5880100I-51000J0D01*
G01*
X14566700Y-6083100D02*
X14668700Y-6185100D01*
X14668700Y-6083100D02*
X14566700Y-6185100D01*
X14668700Y-6134100D02*
G75*
G03*
X14668700Y-6134100I-51000J0D01*
G01*
X14566700Y-6337100D02*
X14668700Y-6439100D01*
X14668700Y-6337100D02*
X14566700Y-6439100D01*
X14668700Y-6388100D02*
G75*
G03*
X14668700Y-6388100I-51000J0D01*
G01*
X14566700Y-6591100D02*
X14668700Y-6693100D01*
X14668700Y-6591100D02*
X14566700Y-6693100D01*
X14668700Y-6642100D02*
G75*
G03*
X14668700Y-6642100I-51000J0D01*
G01*
X14566700Y-6845100D02*
X14668700Y-6947100D01*
X14668700Y-6845100D02*
X14566700Y-6947100D01*
X14668700Y-6896100D02*
G75*
G03*
X14668700Y-6896100I-51000J0D01*
G01*
X14566700Y-7099100D02*
X14668700Y-7201100D01*
X14668700Y-7099100D02*
X14566700Y-7201100D01*
X14668700Y-7150100D02*
G75*
G03*
X14668700Y-7150100I-51000J0D01*
G01*
X14566700Y-7353100D02*
X14668700Y-7455100D01*
X14668700Y-7353100D02*
X14566700Y-7455100D01*
X14668700Y-7404100D02*
G75*
G03*
X14668700Y-7404100I-51000J0D01*
G01*
X14566700Y-7607100D02*
X14668700Y-7709100D01*
X14668700Y-7607100D02*
X14566700Y-7709100D01*
X14668700Y-7658100D02*
G75*
G03*
X14668700Y-7658100I-51000J0D01*
G01*
X14566700Y-7861100D02*
X14668700Y-7963100D01*
X14668700Y-7861100D02*
X14566700Y-7963100D01*
X14668700Y-7912100D02*
G75*
G03*
X14668700Y-7912100I-51000J0D01*
G01*
X14566700Y-8115100D02*
X14668700Y-8217100D01*
X14668700Y-8115100D02*
X14566700Y-8217100D01*
X14668700Y-8166100D02*
G75*
G03*
X14668700Y-8166100I-51000J0D01*
G01*
X14566700Y-8369100D02*
X14668700Y-8471100D01*
X14668700Y-8369100D02*
X14566700Y-8471100D01*
X14668700Y-8420100D02*
G75*
G03*
X14668700Y-8420100I-51000J0D01*
G01*
X14566700Y-8623100D02*
X14668700Y-8725100D01*
X14668700Y-8623100D02*
X14566700Y-8725100D01*
X14668700Y-8674100D02*
G75*
G03*
X14668700Y-8674100I-51000J0D01*
G01*
X14566700Y-8877100D02*
X14668700Y-8979100D01*
X14668700Y-8877100D02*
X14566700Y-8979100D01*
X14668700Y-8928100D02*
G75*
G03*
X14668700Y-8928100I-51000J0D01*
G01*
X14566700Y-9131100D02*
X14668700Y-9233100D01*
X14668700Y-9131100D02*
X14566700Y-9233100D01*
X14668700Y-9182100D02*
G75*
G03*
X14668700Y-9182100I-51000J0D01*
G01*
D17*
X15858100Y-4288400D02*
X15968100Y-4398400D01*
X15968100Y-4288400D02*
X15858100Y-4398400D01*
X15913100Y-4288400D02*
X15913100Y-4398400D01*
X15858100Y-4343400D02*
X15968100Y-4343400D01*
X15972400Y-4618600D02*
X16082400Y-4728600D01*
X16082400Y-4618600D02*
X15972400Y-4728600D01*
X16027400Y-4618600D02*
X16027400Y-4728600D01*
X15972400Y-4673600D02*
X16082400Y-4673600D01*
X16226400Y-4618600D02*
X16336400Y-4728600D01*
X16336400Y-4618600D02*
X16226400Y-4728600D01*
X16281400Y-4618600D02*
X16281400Y-4728600D01*
X16226400Y-4673600D02*
X16336400Y-4673600D01*
X16480400Y-4618600D02*
X16590400Y-4728600D01*
X16590400Y-4618600D02*
X16480400Y-4728600D01*
X16535400Y-4618600D02*
X16535400Y-4728600D01*
X16480400Y-4673600D02*
X16590400Y-4673600D01*
X16620100Y-4288400D02*
X16730100Y-4398400D01*
X16730100Y-4288400D02*
X16620100Y-4398400D01*
X16675100Y-4288400D02*
X16675100Y-4398400D01*
X16620100Y-4343400D02*
X16730100Y-4343400D01*
D18*
X4015600Y-3774300D02*
X4315600Y-4074300D01*
X4315600Y-3774300D02*
X4015600Y-4074300D01*
X4271667Y-4030367D02*
X4271667Y-3818233D01*
X4059533Y-3818233D01*
X4059533Y-4030367D01*
X4271667Y-4030367D01*
X4066400Y-13185000D02*
X4366400Y-13485000D01*
X4366400Y-13185000D02*
X4066400Y-13485000D01*
X4322467Y-13441067D02*
X4322467Y-13228933D01*
X4110333Y-13228933D01*
X4110333Y-13441067D01*
X4322467Y-13441067D01*
X15966300Y-8079600D02*
X16266300Y-8379600D01*
X16266300Y-8079600D02*
X15966300Y-8379600D01*
X16222367Y-8335667D02*
X16222367Y-8123533D01*
X16010233Y-8123533D01*
X16010233Y-8335667D01*
X16222367Y-8335667D01*
X27434400Y-3761600D02*
X27734400Y-4061600D01*
X27734400Y-3761600D02*
X27434400Y-4061600D01*
X27690467Y-4017667D02*
X27690467Y-3805533D01*
X27478333Y-3805533D01*
X27478333Y-4017667D01*
X27690467Y-4017667D01*
X27434400Y-13197700D02*
X27734400Y-13497700D01*
X27734400Y-13197700D02*
X27434400Y-13497700D01*
X27690467Y-13453767D02*
X27690467Y-13241633D01*
X27478333Y-13241633D01*
X27478333Y-13453767D01*
X27690467Y-13453767D01*
D11*
X3992619Y-14067524D02*
X3992619Y-13867524D01*
X3992619Y-13867524D02*
X4040238Y-13867524D01*
X4040238Y-13867524D02*
X4068809Y-13877048D01*
X4068809Y-13877048D02*
X4087857Y-13896095D01*
X4087857Y-13896095D02*
X4097381Y-13915143D01*
X4097381Y-13915143D02*
X4106905Y-13953238D01*
X4106905Y-13953238D02*
X4106905Y-13981809D01*
X4106905Y-13981809D02*
X4097381Y-14019905D01*
X4097381Y-14019905D02*
X4087857Y-14038952D01*
X4087857Y-14038952D02*
X4068809Y-14058000D01*
X4068809Y-14058000D02*
X4040238Y-14067524D01*
X4040238Y-14067524D02*
X3992619Y-14067524D01*
X4192619Y-14067524D02*
X4192619Y-13934190D01*
X4192619Y-13972286D02*
X4202143Y-13953238D01*
X4202143Y-13953238D02*
X4211667Y-13943714D01*
X4211667Y-13943714D02*
X4230714Y-13934190D01*
X4230714Y-13934190D02*
X4249762Y-13934190D01*
X4316429Y-14067524D02*
X4316429Y-13934190D01*
X4316429Y-13867524D02*
X4306905Y-13877048D01*
X4306905Y-13877048D02*
X4316429Y-13886571D01*
X4316429Y-13886571D02*
X4325952Y-13877048D01*
X4325952Y-13877048D02*
X4316429Y-13867524D01*
X4316429Y-13867524D02*
X4316429Y-13886571D01*
X4440238Y-14067524D02*
X4421190Y-14058000D01*
X4421190Y-14058000D02*
X4411667Y-14038952D01*
X4411667Y-14038952D02*
X4411667Y-13867524D01*
X4545000Y-14067524D02*
X4525952Y-14058000D01*
X4525952Y-14058000D02*
X4516429Y-14038952D01*
X4516429Y-14038952D02*
X4516429Y-13867524D01*
X4773571Y-14067524D02*
X4773571Y-13867524D01*
X4773571Y-13867524D02*
X4840238Y-14010381D01*
X4840238Y-14010381D02*
X4906905Y-13867524D01*
X4906905Y-13867524D02*
X4906905Y-14067524D01*
X5087857Y-14067524D02*
X5087857Y-13962762D01*
X5087857Y-13962762D02*
X5078333Y-13943714D01*
X5078333Y-13943714D02*
X5059286Y-13934190D01*
X5059286Y-13934190D02*
X5021190Y-13934190D01*
X5021190Y-13934190D02*
X5002143Y-13943714D01*
X5087857Y-14058000D02*
X5068810Y-14067524D01*
X5068810Y-14067524D02*
X5021190Y-14067524D01*
X5021190Y-14067524D02*
X5002143Y-14058000D01*
X5002143Y-14058000D02*
X4992619Y-14038952D01*
X4992619Y-14038952D02*
X4992619Y-14019905D01*
X4992619Y-14019905D02*
X5002143Y-14000857D01*
X5002143Y-14000857D02*
X5021190Y-13991333D01*
X5021190Y-13991333D02*
X5068810Y-13991333D01*
X5068810Y-13991333D02*
X5087857Y-13981809D01*
X5183095Y-13934190D02*
X5183095Y-14134190D01*
X5183095Y-13943714D02*
X5202143Y-13934190D01*
X5202143Y-13934190D02*
X5240238Y-13934190D01*
X5240238Y-13934190D02*
X5259286Y-13943714D01*
X5259286Y-13943714D02*
X5268810Y-13953238D01*
X5268810Y-13953238D02*
X5278333Y-13972286D01*
X5278333Y-13972286D02*
X5278333Y-14029428D01*
X5278333Y-14029428D02*
X5268810Y-14048476D01*
X5268810Y-14048476D02*
X5259286Y-14058000D01*
X5259286Y-14058000D02*
X5240238Y-14067524D01*
X5240238Y-14067524D02*
X5202143Y-14067524D01*
X5202143Y-14067524D02*
X5183095Y-14058000D01*
X5364048Y-14048476D02*
X5373571Y-14058000D01*
X5373571Y-14058000D02*
X5364048Y-14067524D01*
X5364048Y-14067524D02*
X5354524Y-14058000D01*
X5354524Y-14058000D02*
X5364048Y-14048476D01*
X5364048Y-14048476D02*
X5364048Y-14067524D01*
X5364048Y-13943714D02*
X5373571Y-13953238D01*
X5373571Y-13953238D02*
X5364048Y-13962762D01*
X5364048Y-13962762D02*
X5354524Y-13953238D01*
X5354524Y-13953238D02*
X5364048Y-13943714D01*
X5364048Y-13943714D02*
X5364048Y-13962762D01*
D12*
X3705000Y-14375000D02*
X3745000Y-14415000D01*
X3745000Y-14375000D02*
X3705000Y-14415000D01*
D11*
X4030714Y-14287524D02*
X4049762Y-14287524D01*
X4049762Y-14287524D02*
X4068809Y-14297048D01*
X4068809Y-14297048D02*
X4078333Y-14306571D01*
X4078333Y-14306571D02*
X4087857Y-14325619D01*
X4087857Y-14325619D02*
X4097381Y-14363714D01*
X4097381Y-14363714D02*
X4097381Y-14411333D01*
X4097381Y-14411333D02*
X4087857Y-14449428D01*
X4087857Y-14449428D02*
X4078333Y-14468476D01*
X4078333Y-14468476D02*
X4068809Y-14478000D01*
X4068809Y-14478000D02*
X4049762Y-14487524D01*
X4049762Y-14487524D02*
X4030714Y-14487524D01*
X4030714Y-14487524D02*
X4011667Y-14478000D01*
X4011667Y-14478000D02*
X4002143Y-14468476D01*
X4002143Y-14468476D02*
X3992619Y-14449428D01*
X3992619Y-14449428D02*
X3983095Y-14411333D01*
X3983095Y-14411333D02*
X3983095Y-14363714D01*
X3983095Y-14363714D02*
X3992619Y-14325619D01*
X3992619Y-14325619D02*
X4002143Y-14306571D01*
X4002143Y-14306571D02*
X4011667Y-14297048D01*
X4011667Y-14297048D02*
X4030714Y-14287524D01*
X4183095Y-14468476D02*
X4192619Y-14478000D01*
X4192619Y-14478000D02*
X4183095Y-14487524D01*
X4183095Y-14487524D02*
X4173571Y-14478000D01*
X4173571Y-14478000D02*
X4183095Y-14468476D01*
X4183095Y-14468476D02*
X4183095Y-14487524D01*
X4364048Y-14354190D02*
X4364048Y-14487524D01*
X4316429Y-14278000D02*
X4268810Y-14420857D01*
X4268810Y-14420857D02*
X4392619Y-14420857D01*
X4506905Y-14287524D02*
X4525952Y-14287524D01*
X4525952Y-14287524D02*
X4545000Y-14297048D01*
X4545000Y-14297048D02*
X4554524Y-14306571D01*
X4554524Y-14306571D02*
X4564048Y-14325619D01*
X4564048Y-14325619D02*
X4573571Y-14363714D01*
X4573571Y-14363714D02*
X4573571Y-14411333D01*
X4573571Y-14411333D02*
X4564048Y-14449428D01*
X4564048Y-14449428D02*
X4554524Y-14468476D01*
X4554524Y-14468476D02*
X4545000Y-14478000D01*
X4545000Y-14478000D02*
X4525952Y-14487524D01*
X4525952Y-14487524D02*
X4506905Y-14487524D01*
X4506905Y-14487524D02*
X4487857Y-14478000D01*
X4487857Y-14478000D02*
X4478333Y-14468476D01*
X4478333Y-14468476D02*
X4468810Y-14449428D01*
X4468810Y-14449428D02*
X4459286Y-14411333D01*
X4459286Y-14411333D02*
X4459286Y-14363714D01*
X4459286Y-14363714D02*
X4468810Y-14325619D01*
X4468810Y-14325619D02*
X4478333Y-14306571D01*
X4478333Y-14306571D02*
X4487857Y-14297048D01*
X4487857Y-14297048D02*
X4506905Y-14287524D01*
X4697381Y-14287524D02*
X4716429Y-14287524D01*
X4716429Y-14287524D02*
X4735476Y-14297048D01*
X4735476Y-14297048D02*
X4745000Y-14306571D01*
X4745000Y-14306571D02*
X4754524Y-14325619D01*
X4754524Y-14325619D02*
X4764048Y-14363714D01*
X4764048Y-14363714D02*
X4764048Y-14411333D01*
X4764048Y-14411333D02*
X4754524Y-14449428D01*
X4754524Y-14449428D02*
X4745000Y-14468476D01*
X4745000Y-14468476D02*
X4735476Y-14478000D01*
X4735476Y-14478000D02*
X4716429Y-14487524D01*
X4716429Y-14487524D02*
X4697381Y-14487524D01*
X4697381Y-14487524D02*
X4678333Y-14478000D01*
X4678333Y-14478000D02*
X4668810Y-14468476D01*
X4668810Y-14468476D02*
X4659286Y-14449428D01*
X4659286Y-14449428D02*
X4649762Y-14411333D01*
X4649762Y-14411333D02*
X4649762Y-14363714D01*
X4649762Y-14363714D02*
X4659286Y-14325619D01*
X4659286Y-14325619D02*
X4668810Y-14306571D01*
X4668810Y-14306571D02*
X4678333Y-14297048D01*
X4678333Y-14297048D02*
X4697381Y-14287524D01*
X4849762Y-14487524D02*
X4849762Y-14354190D01*
X4849762Y-14373238D02*
X4859286Y-14363714D01*
X4859286Y-14363714D02*
X4878333Y-14354190D01*
X4878333Y-14354190D02*
X4906905Y-14354190D01*
X4906905Y-14354190D02*
X4925952Y-14363714D01*
X4925952Y-14363714D02*
X4935476Y-14382762D01*
X4935476Y-14382762D02*
X4935476Y-14487524D01*
X4935476Y-14382762D02*
X4945000Y-14363714D01*
X4945000Y-14363714D02*
X4964048Y-14354190D01*
X4964048Y-14354190D02*
X4992619Y-14354190D01*
X4992619Y-14354190D02*
X5011667Y-14363714D01*
X5011667Y-14363714D02*
X5021191Y-14382762D01*
X5021191Y-14382762D02*
X5021191Y-14487524D01*
X5116429Y-14487524D02*
X5116429Y-14354190D01*
X5116429Y-14373238D02*
X5125952Y-14363714D01*
X5125952Y-14363714D02*
X5145000Y-14354190D01*
X5145000Y-14354190D02*
X5173572Y-14354190D01*
X5173572Y-14354190D02*
X5192619Y-14363714D01*
X5192619Y-14363714D02*
X5202143Y-14382762D01*
X5202143Y-14382762D02*
X5202143Y-14487524D01*
X5202143Y-14382762D02*
X5211667Y-14363714D01*
X5211667Y-14363714D02*
X5230714Y-14354190D01*
X5230714Y-14354190D02*
X5259286Y-14354190D01*
X5259286Y-14354190D02*
X5278333Y-14363714D01*
X5278333Y-14363714D02*
X5287857Y-14382762D01*
X5287857Y-14382762D02*
X5287857Y-14487524D01*
X5678333Y-14278000D02*
X5506905Y-14535143D01*
X5935476Y-14287524D02*
X5954524Y-14287524D01*
X5954524Y-14287524D02*
X5973572Y-14297048D01*
X5973572Y-14297048D02*
X5983095Y-14306571D01*
X5983095Y-14306571D02*
X5992619Y-14325619D01*
X5992619Y-14325619D02*
X6002143Y-14363714D01*
X6002143Y-14363714D02*
X6002143Y-14411333D01*
X6002143Y-14411333D02*
X5992619Y-14449428D01*
X5992619Y-14449428D02*
X5983095Y-14468476D01*
X5983095Y-14468476D02*
X5973572Y-14478000D01*
X5973572Y-14478000D02*
X5954524Y-14487524D01*
X5954524Y-14487524D02*
X5935476Y-14487524D01*
X5935476Y-14487524D02*
X5916429Y-14478000D01*
X5916429Y-14478000D02*
X5906905Y-14468476D01*
X5906905Y-14468476D02*
X5897381Y-14449428D01*
X5897381Y-14449428D02*
X5887857Y-14411333D01*
X5887857Y-14411333D02*
X5887857Y-14363714D01*
X5887857Y-14363714D02*
X5897381Y-14325619D01*
X5897381Y-14325619D02*
X5906905Y-14306571D01*
X5906905Y-14306571D02*
X5916429Y-14297048D01*
X5916429Y-14297048D02*
X5935476Y-14287524D01*
X6087857Y-14468476D02*
X6097381Y-14478000D01*
X6097381Y-14478000D02*
X6087857Y-14487524D01*
X6087857Y-14487524D02*
X6078333Y-14478000D01*
X6078333Y-14478000D02*
X6087857Y-14468476D01*
X6087857Y-14468476D02*
X6087857Y-14487524D01*
X6221191Y-14287524D02*
X6240238Y-14287524D01*
X6240238Y-14287524D02*
X6259286Y-14297048D01*
X6259286Y-14297048D02*
X6268810Y-14306571D01*
X6268810Y-14306571D02*
X6278333Y-14325619D01*
X6278333Y-14325619D02*
X6287857Y-14363714D01*
X6287857Y-14363714D02*
X6287857Y-14411333D01*
X6287857Y-14411333D02*
X6278333Y-14449428D01*
X6278333Y-14449428D02*
X6268810Y-14468476D01*
X6268810Y-14468476D02*
X6259286Y-14478000D01*
X6259286Y-14478000D02*
X6240238Y-14487524D01*
X6240238Y-14487524D02*
X6221191Y-14487524D01*
X6221191Y-14487524D02*
X6202143Y-14478000D01*
X6202143Y-14478000D02*
X6192619Y-14468476D01*
X6192619Y-14468476D02*
X6183095Y-14449428D01*
X6183095Y-14449428D02*
X6173572Y-14411333D01*
X6173572Y-14411333D02*
X6173572Y-14363714D01*
X6173572Y-14363714D02*
X6183095Y-14325619D01*
X6183095Y-14325619D02*
X6192619Y-14306571D01*
X6192619Y-14306571D02*
X6202143Y-14297048D01*
X6202143Y-14297048D02*
X6221191Y-14287524D01*
X6478333Y-14487524D02*
X6364048Y-14487524D01*
X6421191Y-14487524D02*
X6421191Y-14287524D01*
X6421191Y-14287524D02*
X6402143Y-14316095D01*
X6402143Y-14316095D02*
X6383095Y-14335143D01*
X6383095Y-14335143D02*
X6364048Y-14344667D01*
X6659286Y-14287524D02*
X6564048Y-14287524D01*
X6564048Y-14287524D02*
X6554524Y-14382762D01*
X6554524Y-14382762D02*
X6564048Y-14373238D01*
X6564048Y-14373238D02*
X6583095Y-14363714D01*
X6583095Y-14363714D02*
X6630714Y-14363714D01*
X6630714Y-14363714D02*
X6649762Y-14373238D01*
X6649762Y-14373238D02*
X6659286Y-14382762D01*
X6659286Y-14382762D02*
X6668810Y-14401809D01*
X6668810Y-14401809D02*
X6668810Y-14449428D01*
X6668810Y-14449428D02*
X6659286Y-14468476D01*
X6659286Y-14468476D02*
X6649762Y-14478000D01*
X6649762Y-14478000D02*
X6630714Y-14487524D01*
X6630714Y-14487524D02*
X6583095Y-14487524D01*
X6583095Y-14487524D02*
X6564048Y-14478000D01*
X6564048Y-14478000D02*
X6554524Y-14468476D01*
X6735476Y-14287524D02*
X6868810Y-14287524D01*
X6868810Y-14287524D02*
X6783095Y-14487524D01*
X6935476Y-14287524D02*
X6935476Y-14325619D01*
X7011667Y-14287524D02*
X7011667Y-14325619D01*
X7306905Y-14563714D02*
X7297381Y-14554190D01*
X7297381Y-14554190D02*
X7278334Y-14525619D01*
X7278334Y-14525619D02*
X7268810Y-14506571D01*
X7268810Y-14506571D02*
X7259286Y-14478000D01*
X7259286Y-14478000D02*
X7249762Y-14430381D01*
X7249762Y-14430381D02*
X7249762Y-14392286D01*
X7249762Y-14392286D02*
X7259286Y-14344667D01*
X7259286Y-14344667D02*
X7268810Y-14316095D01*
X7268810Y-14316095D02*
X7278334Y-14297048D01*
X7278334Y-14297048D02*
X7297381Y-14268476D01*
X7297381Y-14268476D02*
X7306905Y-14258952D01*
X7487857Y-14487524D02*
X7373572Y-14487524D01*
X7430714Y-14487524D02*
X7430714Y-14287524D01*
X7430714Y-14287524D02*
X7411667Y-14316095D01*
X7411667Y-14316095D02*
X7392619Y-14335143D01*
X7392619Y-14335143D02*
X7373572Y-14344667D01*
X7678334Y-14487524D02*
X7564048Y-14487524D01*
X7621191Y-14487524D02*
X7621191Y-14287524D01*
X7621191Y-14287524D02*
X7602143Y-14316095D01*
X7602143Y-14316095D02*
X7583095Y-14335143D01*
X7583095Y-14335143D02*
X7564048Y-14344667D01*
X7754524Y-14306571D02*
X7764048Y-14297048D01*
X7764048Y-14297048D02*
X7783095Y-14287524D01*
X7783095Y-14287524D02*
X7830715Y-14287524D01*
X7830715Y-14287524D02*
X7849762Y-14297048D01*
X7849762Y-14297048D02*
X7859286Y-14306571D01*
X7859286Y-14306571D02*
X7868810Y-14325619D01*
X7868810Y-14325619D02*
X7868810Y-14344667D01*
X7868810Y-14344667D02*
X7859286Y-14373238D01*
X7859286Y-14373238D02*
X7745000Y-14487524D01*
X7745000Y-14487524D02*
X7868810Y-14487524D01*
X8106905Y-14487524D02*
X8106905Y-14287524D01*
X8192619Y-14487524D02*
X8192619Y-14382762D01*
X8192619Y-14382762D02*
X8183096Y-14363714D01*
X8183096Y-14363714D02*
X8164048Y-14354190D01*
X8164048Y-14354190D02*
X8135476Y-14354190D01*
X8135476Y-14354190D02*
X8116429Y-14363714D01*
X8116429Y-14363714D02*
X8106905Y-14373238D01*
X8316429Y-14487524D02*
X8297381Y-14478000D01*
X8297381Y-14478000D02*
X8287857Y-14468476D01*
X8287857Y-14468476D02*
X8278334Y-14449428D01*
X8278334Y-14449428D02*
X8278334Y-14392286D01*
X8278334Y-14392286D02*
X8287857Y-14373238D01*
X8287857Y-14373238D02*
X8297381Y-14363714D01*
X8297381Y-14363714D02*
X8316429Y-14354190D01*
X8316429Y-14354190D02*
X8345000Y-14354190D01*
X8345000Y-14354190D02*
X8364048Y-14363714D01*
X8364048Y-14363714D02*
X8373572Y-14373238D01*
X8373572Y-14373238D02*
X8383096Y-14392286D01*
X8383096Y-14392286D02*
X8383096Y-14449428D01*
X8383096Y-14449428D02*
X8373572Y-14468476D01*
X8373572Y-14468476D02*
X8364048Y-14478000D01*
X8364048Y-14478000D02*
X8345000Y-14487524D01*
X8345000Y-14487524D02*
X8316429Y-14487524D01*
X8497381Y-14487524D02*
X8478334Y-14478000D01*
X8478334Y-14478000D02*
X8468810Y-14458952D01*
X8468810Y-14458952D02*
X8468810Y-14287524D01*
X8649762Y-14478000D02*
X8630715Y-14487524D01*
X8630715Y-14487524D02*
X8592619Y-14487524D01*
X8592619Y-14487524D02*
X8573572Y-14478000D01*
X8573572Y-14478000D02*
X8564048Y-14458952D01*
X8564048Y-14458952D02*
X8564048Y-14382762D01*
X8564048Y-14382762D02*
X8573572Y-14363714D01*
X8573572Y-14363714D02*
X8592619Y-14354190D01*
X8592619Y-14354190D02*
X8630715Y-14354190D01*
X8630715Y-14354190D02*
X8649762Y-14363714D01*
X8649762Y-14363714D02*
X8659286Y-14382762D01*
X8659286Y-14382762D02*
X8659286Y-14401809D01*
X8659286Y-14401809D02*
X8564048Y-14420857D01*
X8735477Y-14478000D02*
X8754524Y-14487524D01*
X8754524Y-14487524D02*
X8792619Y-14487524D01*
X8792619Y-14487524D02*
X8811667Y-14478000D01*
X8811667Y-14478000D02*
X8821191Y-14458952D01*
X8821191Y-14458952D02*
X8821191Y-14449428D01*
X8821191Y-14449428D02*
X8811667Y-14430381D01*
X8811667Y-14430381D02*
X8792619Y-14420857D01*
X8792619Y-14420857D02*
X8764048Y-14420857D01*
X8764048Y-14420857D02*
X8745000Y-14411333D01*
X8745000Y-14411333D02*
X8735477Y-14392286D01*
X8735477Y-14392286D02*
X8735477Y-14382762D01*
X8735477Y-14382762D02*
X8745000Y-14363714D01*
X8745000Y-14363714D02*
X8764048Y-14354190D01*
X8764048Y-14354190D02*
X8792619Y-14354190D01*
X8792619Y-14354190D02*
X8811667Y-14363714D01*
X8887858Y-14563714D02*
X8897381Y-14554190D01*
X8897381Y-14554190D02*
X8916429Y-14525619D01*
X8916429Y-14525619D02*
X8925953Y-14506571D01*
X8925953Y-14506571D02*
X8935477Y-14478000D01*
X8935477Y-14478000D02*
X8945000Y-14430381D01*
X8945000Y-14430381D02*
X8945000Y-14392286D01*
X8945000Y-14392286D02*
X8935477Y-14344667D01*
X8935477Y-14344667D02*
X8925953Y-14316095D01*
X8925953Y-14316095D02*
X8916429Y-14297048D01*
X8916429Y-14297048D02*
X8897381Y-14268476D01*
X8897381Y-14268476D02*
X8887858Y-14258952D01*
D13*
X3745000Y-14659000D02*
G75*
G03*
X3745000Y-14659000I-35000J0D01*
G01*
D11*
X4030714Y-14551524D02*
X4049762Y-14551524D01*
X4049762Y-14551524D02*
X4068809Y-14561048D01*
X4068809Y-14561048D02*
X4078333Y-14570571D01*
X4078333Y-14570571D02*
X4087857Y-14589619D01*
X4087857Y-14589619D02*
X4097381Y-14627714D01*
X4097381Y-14627714D02*
X4097381Y-14675333D01*
X4097381Y-14675333D02*
X4087857Y-14713428D01*
X4087857Y-14713428D02*
X4078333Y-14732476D01*
X4078333Y-14732476D02*
X4068809Y-14742000D01*
X4068809Y-14742000D02*
X4049762Y-14751524D01*
X4049762Y-14751524D02*
X4030714Y-14751524D01*
X4030714Y-14751524D02*
X4011667Y-14742000D01*
X4011667Y-14742000D02*
X4002143Y-14732476D01*
X4002143Y-14732476D02*
X3992619Y-14713428D01*
X3992619Y-14713428D02*
X3983095Y-14675333D01*
X3983095Y-14675333D02*
X3983095Y-14627714D01*
X3983095Y-14627714D02*
X3992619Y-14589619D01*
X3992619Y-14589619D02*
X4002143Y-14570571D01*
X4002143Y-14570571D02*
X4011667Y-14561048D01*
X4011667Y-14561048D02*
X4030714Y-14551524D01*
X4183095Y-14732476D02*
X4192619Y-14742000D01*
X4192619Y-14742000D02*
X4183095Y-14751524D01*
X4183095Y-14751524D02*
X4173571Y-14742000D01*
X4173571Y-14742000D02*
X4183095Y-14732476D01*
X4183095Y-14732476D02*
X4183095Y-14751524D01*
X4259286Y-14551524D02*
X4392619Y-14551524D01*
X4392619Y-14551524D02*
X4306905Y-14751524D01*
X4506905Y-14551524D02*
X4525952Y-14551524D01*
X4525952Y-14551524D02*
X4545000Y-14561048D01*
X4545000Y-14561048D02*
X4554524Y-14570571D01*
X4554524Y-14570571D02*
X4564048Y-14589619D01*
X4564048Y-14589619D02*
X4573571Y-14627714D01*
X4573571Y-14627714D02*
X4573571Y-14675333D01*
X4573571Y-14675333D02*
X4564048Y-14713428D01*
X4564048Y-14713428D02*
X4554524Y-14732476D01*
X4554524Y-14732476D02*
X4545000Y-14742000D01*
X4545000Y-14742000D02*
X4525952Y-14751524D01*
X4525952Y-14751524D02*
X4506905Y-14751524D01*
X4506905Y-14751524D02*
X4487857Y-14742000D01*
X4487857Y-14742000D02*
X4478333Y-14732476D01*
X4478333Y-14732476D02*
X4468810Y-14713428D01*
X4468810Y-14713428D02*
X4459286Y-14675333D01*
X4459286Y-14675333D02*
X4459286Y-14627714D01*
X4459286Y-14627714D02*
X4468810Y-14589619D01*
X4468810Y-14589619D02*
X4478333Y-14570571D01*
X4478333Y-14570571D02*
X4487857Y-14561048D01*
X4487857Y-14561048D02*
X4506905Y-14551524D01*
X4697381Y-14551524D02*
X4716429Y-14551524D01*
X4716429Y-14551524D02*
X4735476Y-14561048D01*
X4735476Y-14561048D02*
X4745000Y-14570571D01*
X4745000Y-14570571D02*
X4754524Y-14589619D01*
X4754524Y-14589619D02*
X4764048Y-14627714D01*
X4764048Y-14627714D02*
X4764048Y-14675333D01*
X4764048Y-14675333D02*
X4754524Y-14713428D01*
X4754524Y-14713428D02*
X4745000Y-14732476D01*
X4745000Y-14732476D02*
X4735476Y-14742000D01*
X4735476Y-14742000D02*
X4716429Y-14751524D01*
X4716429Y-14751524D02*
X4697381Y-14751524D01*
X4697381Y-14751524D02*
X4678333Y-14742000D01*
X4678333Y-14742000D02*
X4668810Y-14732476D01*
X4668810Y-14732476D02*
X4659286Y-14713428D01*
X4659286Y-14713428D02*
X4649762Y-14675333D01*
X4649762Y-14675333D02*
X4649762Y-14627714D01*
X4649762Y-14627714D02*
X4659286Y-14589619D01*
X4659286Y-14589619D02*
X4668810Y-14570571D01*
X4668810Y-14570571D02*
X4678333Y-14561048D01*
X4678333Y-14561048D02*
X4697381Y-14551524D01*
X4849762Y-14751524D02*
X4849762Y-14618190D01*
X4849762Y-14637238D02*
X4859286Y-14627714D01*
X4859286Y-14627714D02*
X4878333Y-14618190D01*
X4878333Y-14618190D02*
X4906905Y-14618190D01*
X4906905Y-14618190D02*
X4925952Y-14627714D01*
X4925952Y-14627714D02*
X4935476Y-14646762D01*
X4935476Y-14646762D02*
X4935476Y-14751524D01*
X4935476Y-14646762D02*
X4945000Y-14627714D01*
X4945000Y-14627714D02*
X4964048Y-14618190D01*
X4964048Y-14618190D02*
X4992619Y-14618190D01*
X4992619Y-14618190D02*
X5011667Y-14627714D01*
X5011667Y-14627714D02*
X5021191Y-14646762D01*
X5021191Y-14646762D02*
X5021191Y-14751524D01*
X5116429Y-14751524D02*
X5116429Y-14618190D01*
X5116429Y-14637238D02*
X5125952Y-14627714D01*
X5125952Y-14627714D02*
X5145000Y-14618190D01*
X5145000Y-14618190D02*
X5173572Y-14618190D01*
X5173572Y-14618190D02*
X5192619Y-14627714D01*
X5192619Y-14627714D02*
X5202143Y-14646762D01*
X5202143Y-14646762D02*
X5202143Y-14751524D01*
X5202143Y-14646762D02*
X5211667Y-14627714D01*
X5211667Y-14627714D02*
X5230714Y-14618190D01*
X5230714Y-14618190D02*
X5259286Y-14618190D01*
X5259286Y-14618190D02*
X5278333Y-14627714D01*
X5278333Y-14627714D02*
X5287857Y-14646762D01*
X5287857Y-14646762D02*
X5287857Y-14751524D01*
X5678333Y-14542000D02*
X5506905Y-14799143D01*
X5935476Y-14551524D02*
X5954524Y-14551524D01*
X5954524Y-14551524D02*
X5973572Y-14561048D01*
X5973572Y-14561048D02*
X5983095Y-14570571D01*
X5983095Y-14570571D02*
X5992619Y-14589619D01*
X5992619Y-14589619D02*
X6002143Y-14627714D01*
X6002143Y-14627714D02*
X6002143Y-14675333D01*
X6002143Y-14675333D02*
X5992619Y-14713428D01*
X5992619Y-14713428D02*
X5983095Y-14732476D01*
X5983095Y-14732476D02*
X5973572Y-14742000D01*
X5973572Y-14742000D02*
X5954524Y-14751524D01*
X5954524Y-14751524D02*
X5935476Y-14751524D01*
X5935476Y-14751524D02*
X5916429Y-14742000D01*
X5916429Y-14742000D02*
X5906905Y-14732476D01*
X5906905Y-14732476D02*
X5897381Y-14713428D01*
X5897381Y-14713428D02*
X5887857Y-14675333D01*
X5887857Y-14675333D02*
X5887857Y-14627714D01*
X5887857Y-14627714D02*
X5897381Y-14589619D01*
X5897381Y-14589619D02*
X5906905Y-14570571D01*
X5906905Y-14570571D02*
X5916429Y-14561048D01*
X5916429Y-14561048D02*
X5935476Y-14551524D01*
X6087857Y-14732476D02*
X6097381Y-14742000D01*
X6097381Y-14742000D02*
X6087857Y-14751524D01*
X6087857Y-14751524D02*
X6078333Y-14742000D01*
X6078333Y-14742000D02*
X6087857Y-14732476D01*
X6087857Y-14732476D02*
X6087857Y-14751524D01*
X6221191Y-14551524D02*
X6240238Y-14551524D01*
X6240238Y-14551524D02*
X6259286Y-14561048D01*
X6259286Y-14561048D02*
X6268810Y-14570571D01*
X6268810Y-14570571D02*
X6278333Y-14589619D01*
X6278333Y-14589619D02*
X6287857Y-14627714D01*
X6287857Y-14627714D02*
X6287857Y-14675333D01*
X6287857Y-14675333D02*
X6278333Y-14713428D01*
X6278333Y-14713428D02*
X6268810Y-14732476D01*
X6268810Y-14732476D02*
X6259286Y-14742000D01*
X6259286Y-14742000D02*
X6240238Y-14751524D01*
X6240238Y-14751524D02*
X6221191Y-14751524D01*
X6221191Y-14751524D02*
X6202143Y-14742000D01*
X6202143Y-14742000D02*
X6192619Y-14732476D01*
X6192619Y-14732476D02*
X6183095Y-14713428D01*
X6183095Y-14713428D02*
X6173572Y-14675333D01*
X6173572Y-14675333D02*
X6173572Y-14627714D01*
X6173572Y-14627714D02*
X6183095Y-14589619D01*
X6183095Y-14589619D02*
X6192619Y-14570571D01*
X6192619Y-14570571D02*
X6202143Y-14561048D01*
X6202143Y-14561048D02*
X6221191Y-14551524D01*
X6364048Y-14570571D02*
X6373572Y-14561048D01*
X6373572Y-14561048D02*
X6392619Y-14551524D01*
X6392619Y-14551524D02*
X6440238Y-14551524D01*
X6440238Y-14551524D02*
X6459286Y-14561048D01*
X6459286Y-14561048D02*
X6468810Y-14570571D01*
X6468810Y-14570571D02*
X6478333Y-14589619D01*
X6478333Y-14589619D02*
X6478333Y-14608667D01*
X6478333Y-14608667D02*
X6468810Y-14637238D01*
X6468810Y-14637238D02*
X6354524Y-14751524D01*
X6354524Y-14751524D02*
X6478333Y-14751524D01*
X6545000Y-14551524D02*
X6678333Y-14551524D01*
X6678333Y-14551524D02*
X6592619Y-14751524D01*
X6840238Y-14551524D02*
X6802143Y-14551524D01*
X6802143Y-14551524D02*
X6783095Y-14561048D01*
X6783095Y-14561048D02*
X6773572Y-14570571D01*
X6773572Y-14570571D02*
X6754524Y-14599143D01*
X6754524Y-14599143D02*
X6745000Y-14637238D01*
X6745000Y-14637238D02*
X6745000Y-14713428D01*
X6745000Y-14713428D02*
X6754524Y-14732476D01*
X6754524Y-14732476D02*
X6764048Y-14742000D01*
X6764048Y-14742000D02*
X6783095Y-14751524D01*
X6783095Y-14751524D02*
X6821191Y-14751524D01*
X6821191Y-14751524D02*
X6840238Y-14742000D01*
X6840238Y-14742000D02*
X6849762Y-14732476D01*
X6849762Y-14732476D02*
X6859286Y-14713428D01*
X6859286Y-14713428D02*
X6859286Y-14665809D01*
X6859286Y-14665809D02*
X6849762Y-14646762D01*
X6849762Y-14646762D02*
X6840238Y-14637238D01*
X6840238Y-14637238D02*
X6821191Y-14627714D01*
X6821191Y-14627714D02*
X6783095Y-14627714D01*
X6783095Y-14627714D02*
X6764048Y-14637238D01*
X6764048Y-14637238D02*
X6754524Y-14646762D01*
X6754524Y-14646762D02*
X6745000Y-14665809D01*
X6935476Y-14551524D02*
X6935476Y-14589619D01*
X7011667Y-14551524D02*
X7011667Y-14589619D01*
X7306905Y-14827714D02*
X7297381Y-14818190D01*
X7297381Y-14818190D02*
X7278334Y-14789619D01*
X7278334Y-14789619D02*
X7268810Y-14770571D01*
X7268810Y-14770571D02*
X7259286Y-14742000D01*
X7259286Y-14742000D02*
X7249762Y-14694381D01*
X7249762Y-14694381D02*
X7249762Y-14656286D01*
X7249762Y-14656286D02*
X7259286Y-14608667D01*
X7259286Y-14608667D02*
X7268810Y-14580095D01*
X7268810Y-14580095D02*
X7278334Y-14561048D01*
X7278334Y-14561048D02*
X7297381Y-14532476D01*
X7297381Y-14532476D02*
X7306905Y-14522952D01*
X7411667Y-14637238D02*
X7392619Y-14627714D01*
X7392619Y-14627714D02*
X7383095Y-14618190D01*
X7383095Y-14618190D02*
X7373572Y-14599143D01*
X7373572Y-14599143D02*
X7373572Y-14589619D01*
X7373572Y-14589619D02*
X7383095Y-14570571D01*
X7383095Y-14570571D02*
X7392619Y-14561048D01*
X7392619Y-14561048D02*
X7411667Y-14551524D01*
X7411667Y-14551524D02*
X7449762Y-14551524D01*
X7449762Y-14551524D02*
X7468810Y-14561048D01*
X7468810Y-14561048D02*
X7478334Y-14570571D01*
X7478334Y-14570571D02*
X7487857Y-14589619D01*
X7487857Y-14589619D02*
X7487857Y-14599143D01*
X7487857Y-14599143D02*
X7478334Y-14618190D01*
X7478334Y-14618190D02*
X7468810Y-14627714D01*
X7468810Y-14627714D02*
X7449762Y-14637238D01*
X7449762Y-14637238D02*
X7411667Y-14637238D01*
X7411667Y-14637238D02*
X7392619Y-14646762D01*
X7392619Y-14646762D02*
X7383095Y-14656286D01*
X7383095Y-14656286D02*
X7373572Y-14675333D01*
X7373572Y-14675333D02*
X7373572Y-14713428D01*
X7373572Y-14713428D02*
X7383095Y-14732476D01*
X7383095Y-14732476D02*
X7392619Y-14742000D01*
X7392619Y-14742000D02*
X7411667Y-14751524D01*
X7411667Y-14751524D02*
X7449762Y-14751524D01*
X7449762Y-14751524D02*
X7468810Y-14742000D01*
X7468810Y-14742000D02*
X7478334Y-14732476D01*
X7478334Y-14732476D02*
X7487857Y-14713428D01*
X7487857Y-14713428D02*
X7487857Y-14675333D01*
X7487857Y-14675333D02*
X7478334Y-14656286D01*
X7478334Y-14656286D02*
X7468810Y-14646762D01*
X7468810Y-14646762D02*
X7449762Y-14637238D01*
X7725953Y-14751524D02*
X7725953Y-14551524D01*
X7811667Y-14751524D02*
X7811667Y-14646762D01*
X7811667Y-14646762D02*
X7802143Y-14627714D01*
X7802143Y-14627714D02*
X7783096Y-14618190D01*
X7783096Y-14618190D02*
X7754524Y-14618190D01*
X7754524Y-14618190D02*
X7735476Y-14627714D01*
X7735476Y-14627714D02*
X7725953Y-14637238D01*
X7935476Y-14751524D02*
X7916429Y-14742000D01*
X7916429Y-14742000D02*
X7906905Y-14732476D01*
X7906905Y-14732476D02*
X7897381Y-14713428D01*
X7897381Y-14713428D02*
X7897381Y-14656286D01*
X7897381Y-14656286D02*
X7906905Y-14637238D01*
X7906905Y-14637238D02*
X7916429Y-14627714D01*
X7916429Y-14627714D02*
X7935476Y-14618190D01*
X7935476Y-14618190D02*
X7964048Y-14618190D01*
X7964048Y-14618190D02*
X7983096Y-14627714D01*
X7983096Y-14627714D02*
X7992619Y-14637238D01*
X7992619Y-14637238D02*
X8002143Y-14656286D01*
X8002143Y-14656286D02*
X8002143Y-14713428D01*
X8002143Y-14713428D02*
X7992619Y-14732476D01*
X7992619Y-14732476D02*
X7983096Y-14742000D01*
X7983096Y-14742000D02*
X7964048Y-14751524D01*
X7964048Y-14751524D02*
X7935476Y-14751524D01*
X8116429Y-14751524D02*
X8097381Y-14742000D01*
X8097381Y-14742000D02*
X8087857Y-14722952D01*
X8087857Y-14722952D02*
X8087857Y-14551524D01*
X8268810Y-14742000D02*
X8249762Y-14751524D01*
X8249762Y-14751524D02*
X8211667Y-14751524D01*
X8211667Y-14751524D02*
X8192619Y-14742000D01*
X8192619Y-14742000D02*
X8183096Y-14722952D01*
X8183096Y-14722952D02*
X8183096Y-14646762D01*
X8183096Y-14646762D02*
X8192619Y-14627714D01*
X8192619Y-14627714D02*
X8211667Y-14618190D01*
X8211667Y-14618190D02*
X8249762Y-14618190D01*
X8249762Y-14618190D02*
X8268810Y-14627714D01*
X8268810Y-14627714D02*
X8278334Y-14646762D01*
X8278334Y-14646762D02*
X8278334Y-14665809D01*
X8278334Y-14665809D02*
X8183096Y-14684857D01*
X8354524Y-14742000D02*
X8373572Y-14751524D01*
X8373572Y-14751524D02*
X8411667Y-14751524D01*
X8411667Y-14751524D02*
X8430715Y-14742000D01*
X8430715Y-14742000D02*
X8440239Y-14722952D01*
X8440239Y-14722952D02*
X8440239Y-14713428D01*
X8440239Y-14713428D02*
X8430715Y-14694381D01*
X8430715Y-14694381D02*
X8411667Y-14684857D01*
X8411667Y-14684857D02*
X8383096Y-14684857D01*
X8383096Y-14684857D02*
X8364048Y-14675333D01*
X8364048Y-14675333D02*
X8354524Y-14656286D01*
X8354524Y-14656286D02*
X8354524Y-14646762D01*
X8354524Y-14646762D02*
X8364048Y-14627714D01*
X8364048Y-14627714D02*
X8383096Y-14618190D01*
X8383096Y-14618190D02*
X8411667Y-14618190D01*
X8411667Y-14618190D02*
X8430715Y-14627714D01*
X8506905Y-14827714D02*
X8516429Y-14818190D01*
X8516429Y-14818190D02*
X8535477Y-14789619D01*
X8535477Y-14789619D02*
X8545000Y-14770571D01*
X8545000Y-14770571D02*
X8554524Y-14742000D01*
X8554524Y-14742000D02*
X8564048Y-14694381D01*
X8564048Y-14694381D02*
X8564048Y-14656286D01*
X8564048Y-14656286D02*
X8554524Y-14608667D01*
X8554524Y-14608667D02*
X8545000Y-14580095D01*
X8545000Y-14580095D02*
X8535477Y-14561048D01*
X8535477Y-14561048D02*
X8516429Y-14532476D01*
X8516429Y-14532476D02*
X8506905Y-14522952D01*
D14*
X3705000Y-14883000D02*
X3705000Y-14963000D01*
X3665000Y-14923000D02*
X3745000Y-14923000D01*
D11*
X4030714Y-14815524D02*
X4049762Y-14815524D01*
X4049762Y-14815524D02*
X4068809Y-14825048D01*
X4068809Y-14825048D02*
X4078333Y-14834571D01*
X4078333Y-14834571D02*
X4087857Y-14853619D01*
X4087857Y-14853619D02*
X4097381Y-14891714D01*
X4097381Y-14891714D02*
X4097381Y-14939333D01*
X4097381Y-14939333D02*
X4087857Y-14977428D01*
X4087857Y-14977428D02*
X4078333Y-14996476D01*
X4078333Y-14996476D02*
X4068809Y-15006000D01*
X4068809Y-15006000D02*
X4049762Y-15015524D01*
X4049762Y-15015524D02*
X4030714Y-15015524D01*
X4030714Y-15015524D02*
X4011667Y-15006000D01*
X4011667Y-15006000D02*
X4002143Y-14996476D01*
X4002143Y-14996476D02*
X3992619Y-14977428D01*
X3992619Y-14977428D02*
X3983095Y-14939333D01*
X3983095Y-14939333D02*
X3983095Y-14891714D01*
X3983095Y-14891714D02*
X3992619Y-14853619D01*
X3992619Y-14853619D02*
X4002143Y-14834571D01*
X4002143Y-14834571D02*
X4011667Y-14825048D01*
X4011667Y-14825048D02*
X4030714Y-14815524D01*
X4183095Y-14996476D02*
X4192619Y-15006000D01*
X4192619Y-15006000D02*
X4183095Y-15015524D01*
X4183095Y-15015524D02*
X4173571Y-15006000D01*
X4173571Y-15006000D02*
X4183095Y-14996476D01*
X4183095Y-14996476D02*
X4183095Y-15015524D01*
X4306905Y-14901238D02*
X4287857Y-14891714D01*
X4287857Y-14891714D02*
X4278333Y-14882190D01*
X4278333Y-14882190D02*
X4268810Y-14863143D01*
X4268810Y-14863143D02*
X4268810Y-14853619D01*
X4268810Y-14853619D02*
X4278333Y-14834571D01*
X4278333Y-14834571D02*
X4287857Y-14825048D01*
X4287857Y-14825048D02*
X4306905Y-14815524D01*
X4306905Y-14815524D02*
X4345000Y-14815524D01*
X4345000Y-14815524D02*
X4364048Y-14825048D01*
X4364048Y-14825048D02*
X4373571Y-14834571D01*
X4373571Y-14834571D02*
X4383095Y-14853619D01*
X4383095Y-14853619D02*
X4383095Y-14863143D01*
X4383095Y-14863143D02*
X4373571Y-14882190D01*
X4373571Y-14882190D02*
X4364048Y-14891714D01*
X4364048Y-14891714D02*
X4345000Y-14901238D01*
X4345000Y-14901238D02*
X4306905Y-14901238D01*
X4306905Y-14901238D02*
X4287857Y-14910762D01*
X4287857Y-14910762D02*
X4278333Y-14920286D01*
X4278333Y-14920286D02*
X4268810Y-14939333D01*
X4268810Y-14939333D02*
X4268810Y-14977428D01*
X4268810Y-14977428D02*
X4278333Y-14996476D01*
X4278333Y-14996476D02*
X4287857Y-15006000D01*
X4287857Y-15006000D02*
X4306905Y-15015524D01*
X4306905Y-15015524D02*
X4345000Y-15015524D01*
X4345000Y-15015524D02*
X4364048Y-15006000D01*
X4364048Y-15006000D02*
X4373571Y-14996476D01*
X4373571Y-14996476D02*
X4383095Y-14977428D01*
X4383095Y-14977428D02*
X4383095Y-14939333D01*
X4383095Y-14939333D02*
X4373571Y-14920286D01*
X4373571Y-14920286D02*
X4364048Y-14910762D01*
X4364048Y-14910762D02*
X4345000Y-14901238D01*
X4506905Y-14815524D02*
X4525952Y-14815524D01*
X4525952Y-14815524D02*
X4545000Y-14825048D01*
X4545000Y-14825048D02*
X4554524Y-14834571D01*
X4554524Y-14834571D02*
X4564048Y-14853619D01*
X4564048Y-14853619D02*
X4573571Y-14891714D01*
X4573571Y-14891714D02*
X4573571Y-14939333D01*
X4573571Y-14939333D02*
X4564048Y-14977428D01*
X4564048Y-14977428D02*
X4554524Y-14996476D01*
X4554524Y-14996476D02*
X4545000Y-15006000D01*
X4545000Y-15006000D02*
X4525952Y-15015524D01*
X4525952Y-15015524D02*
X4506905Y-15015524D01*
X4506905Y-15015524D02*
X4487857Y-15006000D01*
X4487857Y-15006000D02*
X4478333Y-14996476D01*
X4478333Y-14996476D02*
X4468810Y-14977428D01*
X4468810Y-14977428D02*
X4459286Y-14939333D01*
X4459286Y-14939333D02*
X4459286Y-14891714D01*
X4459286Y-14891714D02*
X4468810Y-14853619D01*
X4468810Y-14853619D02*
X4478333Y-14834571D01*
X4478333Y-14834571D02*
X4487857Y-14825048D01*
X4487857Y-14825048D02*
X4506905Y-14815524D01*
X4697381Y-14815524D02*
X4716429Y-14815524D01*
X4716429Y-14815524D02*
X4735476Y-14825048D01*
X4735476Y-14825048D02*
X4745000Y-14834571D01*
X4745000Y-14834571D02*
X4754524Y-14853619D01*
X4754524Y-14853619D02*
X4764048Y-14891714D01*
X4764048Y-14891714D02*
X4764048Y-14939333D01*
X4764048Y-14939333D02*
X4754524Y-14977428D01*
X4754524Y-14977428D02*
X4745000Y-14996476D01*
X4745000Y-14996476D02*
X4735476Y-15006000D01*
X4735476Y-15006000D02*
X4716429Y-15015524D01*
X4716429Y-15015524D02*
X4697381Y-15015524D01*
X4697381Y-15015524D02*
X4678333Y-15006000D01*
X4678333Y-15006000D02*
X4668810Y-14996476D01*
X4668810Y-14996476D02*
X4659286Y-14977428D01*
X4659286Y-14977428D02*
X4649762Y-14939333D01*
X4649762Y-14939333D02*
X4649762Y-14891714D01*
X4649762Y-14891714D02*
X4659286Y-14853619D01*
X4659286Y-14853619D02*
X4668810Y-14834571D01*
X4668810Y-14834571D02*
X4678333Y-14825048D01*
X4678333Y-14825048D02*
X4697381Y-14815524D01*
X4849762Y-15015524D02*
X4849762Y-14882190D01*
X4849762Y-14901238D02*
X4859286Y-14891714D01*
X4859286Y-14891714D02*
X4878333Y-14882190D01*
X4878333Y-14882190D02*
X4906905Y-14882190D01*
X4906905Y-14882190D02*
X4925952Y-14891714D01*
X4925952Y-14891714D02*
X4935476Y-14910762D01*
X4935476Y-14910762D02*
X4935476Y-15015524D01*
X4935476Y-14910762D02*
X4945000Y-14891714D01*
X4945000Y-14891714D02*
X4964048Y-14882190D01*
X4964048Y-14882190D02*
X4992619Y-14882190D01*
X4992619Y-14882190D02*
X5011667Y-14891714D01*
X5011667Y-14891714D02*
X5021191Y-14910762D01*
X5021191Y-14910762D02*
X5021191Y-15015524D01*
X5116429Y-15015524D02*
X5116429Y-14882190D01*
X5116429Y-14901238D02*
X5125952Y-14891714D01*
X5125952Y-14891714D02*
X5145000Y-14882190D01*
X5145000Y-14882190D02*
X5173572Y-14882190D01*
X5173572Y-14882190D02*
X5192619Y-14891714D01*
X5192619Y-14891714D02*
X5202143Y-14910762D01*
X5202143Y-14910762D02*
X5202143Y-15015524D01*
X5202143Y-14910762D02*
X5211667Y-14891714D01*
X5211667Y-14891714D02*
X5230714Y-14882190D01*
X5230714Y-14882190D02*
X5259286Y-14882190D01*
X5259286Y-14882190D02*
X5278333Y-14891714D01*
X5278333Y-14891714D02*
X5287857Y-14910762D01*
X5287857Y-14910762D02*
X5287857Y-15015524D01*
X5678333Y-14806000D02*
X5506905Y-15063143D01*
X5935476Y-14815524D02*
X5954524Y-14815524D01*
X5954524Y-14815524D02*
X5973572Y-14825048D01*
X5973572Y-14825048D02*
X5983095Y-14834571D01*
X5983095Y-14834571D02*
X5992619Y-14853619D01*
X5992619Y-14853619D02*
X6002143Y-14891714D01*
X6002143Y-14891714D02*
X6002143Y-14939333D01*
X6002143Y-14939333D02*
X5992619Y-14977428D01*
X5992619Y-14977428D02*
X5983095Y-14996476D01*
X5983095Y-14996476D02*
X5973572Y-15006000D01*
X5973572Y-15006000D02*
X5954524Y-15015524D01*
X5954524Y-15015524D02*
X5935476Y-15015524D01*
X5935476Y-15015524D02*
X5916429Y-15006000D01*
X5916429Y-15006000D02*
X5906905Y-14996476D01*
X5906905Y-14996476D02*
X5897381Y-14977428D01*
X5897381Y-14977428D02*
X5887857Y-14939333D01*
X5887857Y-14939333D02*
X5887857Y-14891714D01*
X5887857Y-14891714D02*
X5897381Y-14853619D01*
X5897381Y-14853619D02*
X5906905Y-14834571D01*
X5906905Y-14834571D02*
X5916429Y-14825048D01*
X5916429Y-14825048D02*
X5935476Y-14815524D01*
X6087857Y-14996476D02*
X6097381Y-15006000D01*
X6097381Y-15006000D02*
X6087857Y-15015524D01*
X6087857Y-15015524D02*
X6078333Y-15006000D01*
X6078333Y-15006000D02*
X6087857Y-14996476D01*
X6087857Y-14996476D02*
X6087857Y-15015524D01*
X6221191Y-14815524D02*
X6240238Y-14815524D01*
X6240238Y-14815524D02*
X6259286Y-14825048D01*
X6259286Y-14825048D02*
X6268810Y-14834571D01*
X6268810Y-14834571D02*
X6278333Y-14853619D01*
X6278333Y-14853619D02*
X6287857Y-14891714D01*
X6287857Y-14891714D02*
X6287857Y-14939333D01*
X6287857Y-14939333D02*
X6278333Y-14977428D01*
X6278333Y-14977428D02*
X6268810Y-14996476D01*
X6268810Y-14996476D02*
X6259286Y-15006000D01*
X6259286Y-15006000D02*
X6240238Y-15015524D01*
X6240238Y-15015524D02*
X6221191Y-15015524D01*
X6221191Y-15015524D02*
X6202143Y-15006000D01*
X6202143Y-15006000D02*
X6192619Y-14996476D01*
X6192619Y-14996476D02*
X6183095Y-14977428D01*
X6183095Y-14977428D02*
X6173572Y-14939333D01*
X6173572Y-14939333D02*
X6173572Y-14891714D01*
X6173572Y-14891714D02*
X6183095Y-14853619D01*
X6183095Y-14853619D02*
X6192619Y-14834571D01*
X6192619Y-14834571D02*
X6202143Y-14825048D01*
X6202143Y-14825048D02*
X6221191Y-14815524D01*
X6354524Y-14815524D02*
X6478333Y-14815524D01*
X6478333Y-14815524D02*
X6411667Y-14891714D01*
X6411667Y-14891714D02*
X6440238Y-14891714D01*
X6440238Y-14891714D02*
X6459286Y-14901238D01*
X6459286Y-14901238D02*
X6468810Y-14910762D01*
X6468810Y-14910762D02*
X6478333Y-14929809D01*
X6478333Y-14929809D02*
X6478333Y-14977428D01*
X6478333Y-14977428D02*
X6468810Y-14996476D01*
X6468810Y-14996476D02*
X6459286Y-15006000D01*
X6459286Y-15006000D02*
X6440238Y-15015524D01*
X6440238Y-15015524D02*
X6383095Y-15015524D01*
X6383095Y-15015524D02*
X6364048Y-15006000D01*
X6364048Y-15006000D02*
X6354524Y-14996476D01*
X6668810Y-15015524D02*
X6554524Y-15015524D01*
X6611667Y-15015524D02*
X6611667Y-14815524D01*
X6611667Y-14815524D02*
X6592619Y-14844095D01*
X6592619Y-14844095D02*
X6573572Y-14863143D01*
X6573572Y-14863143D02*
X6554524Y-14872667D01*
X6849762Y-14815524D02*
X6754524Y-14815524D01*
X6754524Y-14815524D02*
X6745000Y-14910762D01*
X6745000Y-14910762D02*
X6754524Y-14901238D01*
X6754524Y-14901238D02*
X6773572Y-14891714D01*
X6773572Y-14891714D02*
X6821191Y-14891714D01*
X6821191Y-14891714D02*
X6840238Y-14901238D01*
X6840238Y-14901238D02*
X6849762Y-14910762D01*
X6849762Y-14910762D02*
X6859286Y-14929809D01*
X6859286Y-14929809D02*
X6859286Y-14977428D01*
X6859286Y-14977428D02*
X6849762Y-14996476D01*
X6849762Y-14996476D02*
X6840238Y-15006000D01*
X6840238Y-15006000D02*
X6821191Y-15015524D01*
X6821191Y-15015524D02*
X6773572Y-15015524D01*
X6773572Y-15015524D02*
X6754524Y-15006000D01*
X6754524Y-15006000D02*
X6745000Y-14996476D01*
X6935476Y-14815524D02*
X6935476Y-14853619D01*
X7011667Y-14815524D02*
X7011667Y-14853619D01*
X7306905Y-15091714D02*
X7297381Y-15082190D01*
X7297381Y-15082190D02*
X7278334Y-15053619D01*
X7278334Y-15053619D02*
X7268810Y-15034571D01*
X7268810Y-15034571D02*
X7259286Y-15006000D01*
X7259286Y-15006000D02*
X7249762Y-14958381D01*
X7249762Y-14958381D02*
X7249762Y-14920286D01*
X7249762Y-14920286D02*
X7259286Y-14872667D01*
X7259286Y-14872667D02*
X7268810Y-14844095D01*
X7268810Y-14844095D02*
X7278334Y-14825048D01*
X7278334Y-14825048D02*
X7297381Y-14796476D01*
X7297381Y-14796476D02*
X7306905Y-14786952D01*
X7373572Y-14834571D02*
X7383095Y-14825048D01*
X7383095Y-14825048D02*
X7402143Y-14815524D01*
X7402143Y-14815524D02*
X7449762Y-14815524D01*
X7449762Y-14815524D02*
X7468810Y-14825048D01*
X7468810Y-14825048D02*
X7478334Y-14834571D01*
X7478334Y-14834571D02*
X7487857Y-14853619D01*
X7487857Y-14853619D02*
X7487857Y-14872667D01*
X7487857Y-14872667D02*
X7478334Y-14901238D01*
X7478334Y-14901238D02*
X7364048Y-15015524D01*
X7364048Y-15015524D02*
X7487857Y-15015524D01*
X7602143Y-14901238D02*
X7583095Y-14891714D01*
X7583095Y-14891714D02*
X7573572Y-14882190D01*
X7573572Y-14882190D02*
X7564048Y-14863143D01*
X7564048Y-14863143D02*
X7564048Y-14853619D01*
X7564048Y-14853619D02*
X7573572Y-14834571D01*
X7573572Y-14834571D02*
X7583095Y-14825048D01*
X7583095Y-14825048D02*
X7602143Y-14815524D01*
X7602143Y-14815524D02*
X7640238Y-14815524D01*
X7640238Y-14815524D02*
X7659286Y-14825048D01*
X7659286Y-14825048D02*
X7668810Y-14834571D01*
X7668810Y-14834571D02*
X7678334Y-14853619D01*
X7678334Y-14853619D02*
X7678334Y-14863143D01*
X7678334Y-14863143D02*
X7668810Y-14882190D01*
X7668810Y-14882190D02*
X7659286Y-14891714D01*
X7659286Y-14891714D02*
X7640238Y-14901238D01*
X7640238Y-14901238D02*
X7602143Y-14901238D01*
X7602143Y-14901238D02*
X7583095Y-14910762D01*
X7583095Y-14910762D02*
X7573572Y-14920286D01*
X7573572Y-14920286D02*
X7564048Y-14939333D01*
X7564048Y-14939333D02*
X7564048Y-14977428D01*
X7564048Y-14977428D02*
X7573572Y-14996476D01*
X7573572Y-14996476D02*
X7583095Y-15006000D01*
X7583095Y-15006000D02*
X7602143Y-15015524D01*
X7602143Y-15015524D02*
X7640238Y-15015524D01*
X7640238Y-15015524D02*
X7659286Y-15006000D01*
X7659286Y-15006000D02*
X7668810Y-14996476D01*
X7668810Y-14996476D02*
X7678334Y-14977428D01*
X7678334Y-14977428D02*
X7678334Y-14939333D01*
X7678334Y-14939333D02*
X7668810Y-14920286D01*
X7668810Y-14920286D02*
X7659286Y-14910762D01*
X7659286Y-14910762D02*
X7640238Y-14901238D01*
X7745000Y-14815524D02*
X7878334Y-14815524D01*
X7878334Y-14815524D02*
X7792619Y-15015524D01*
X8106905Y-15015524D02*
X8106905Y-14815524D01*
X8192619Y-15015524D02*
X8192619Y-14910762D01*
X8192619Y-14910762D02*
X8183096Y-14891714D01*
X8183096Y-14891714D02*
X8164048Y-14882190D01*
X8164048Y-14882190D02*
X8135476Y-14882190D01*
X8135476Y-14882190D02*
X8116429Y-14891714D01*
X8116429Y-14891714D02*
X8106905Y-14901238D01*
X8316429Y-15015524D02*
X8297381Y-15006000D01*
X8297381Y-15006000D02*
X8287857Y-14996476D01*
X8287857Y-14996476D02*
X8278334Y-14977428D01*
X8278334Y-14977428D02*
X8278334Y-14920286D01*
X8278334Y-14920286D02*
X8287857Y-14901238D01*
X8287857Y-14901238D02*
X8297381Y-14891714D01*
X8297381Y-14891714D02*
X8316429Y-14882190D01*
X8316429Y-14882190D02*
X8345000Y-14882190D01*
X8345000Y-14882190D02*
X8364048Y-14891714D01*
X8364048Y-14891714D02*
X8373572Y-14901238D01*
X8373572Y-14901238D02*
X8383096Y-14920286D01*
X8383096Y-14920286D02*
X8383096Y-14977428D01*
X8383096Y-14977428D02*
X8373572Y-14996476D01*
X8373572Y-14996476D02*
X8364048Y-15006000D01*
X8364048Y-15006000D02*
X8345000Y-15015524D01*
X8345000Y-15015524D02*
X8316429Y-15015524D01*
X8497381Y-15015524D02*
X8478334Y-15006000D01*
X8478334Y-15006000D02*
X8468810Y-14986952D01*
X8468810Y-14986952D02*
X8468810Y-14815524D01*
X8649762Y-15006000D02*
X8630715Y-15015524D01*
X8630715Y-15015524D02*
X8592619Y-15015524D01*
X8592619Y-15015524D02*
X8573572Y-15006000D01*
X8573572Y-15006000D02*
X8564048Y-14986952D01*
X8564048Y-14986952D02*
X8564048Y-14910762D01*
X8564048Y-14910762D02*
X8573572Y-14891714D01*
X8573572Y-14891714D02*
X8592619Y-14882190D01*
X8592619Y-14882190D02*
X8630715Y-14882190D01*
X8630715Y-14882190D02*
X8649762Y-14891714D01*
X8649762Y-14891714D02*
X8659286Y-14910762D01*
X8659286Y-14910762D02*
X8659286Y-14929809D01*
X8659286Y-14929809D02*
X8564048Y-14948857D01*
X8735477Y-15006000D02*
X8754524Y-15015524D01*
X8754524Y-15015524D02*
X8792619Y-15015524D01*
X8792619Y-15015524D02*
X8811667Y-15006000D01*
X8811667Y-15006000D02*
X8821191Y-14986952D01*
X8821191Y-14986952D02*
X8821191Y-14977428D01*
X8821191Y-14977428D02*
X8811667Y-14958381D01*
X8811667Y-14958381D02*
X8792619Y-14948857D01*
X8792619Y-14948857D02*
X8764048Y-14948857D01*
X8764048Y-14948857D02*
X8745000Y-14939333D01*
X8745000Y-14939333D02*
X8735477Y-14920286D01*
X8735477Y-14920286D02*
X8735477Y-14910762D01*
X8735477Y-14910762D02*
X8745000Y-14891714D01*
X8745000Y-14891714D02*
X8764048Y-14882190D01*
X8764048Y-14882190D02*
X8792619Y-14882190D01*
X8792619Y-14882190D02*
X8811667Y-14891714D01*
X8887858Y-15091714D02*
X8897381Y-15082190D01*
X8897381Y-15082190D02*
X8916429Y-15053619D01*
X8916429Y-15053619D02*
X8925953Y-15034571D01*
X8925953Y-15034571D02*
X8935477Y-15006000D01*
X8935477Y-15006000D02*
X8945000Y-14958381D01*
X8945000Y-14958381D02*
X8945000Y-14920286D01*
X8945000Y-14920286D02*
X8935477Y-14872667D01*
X8935477Y-14872667D02*
X8925953Y-14844095D01*
X8925953Y-14844095D02*
X8916429Y-14825048D01*
X8916429Y-14825048D02*
X8897381Y-14796476D01*
X8897381Y-14796476D02*
X8887858Y-14786952D01*
D15*
X3731820Y-15218820D02*
X3731820Y-15155180D01*
X3668180Y-15155180D01*
X3668180Y-15218820D01*
X3731820Y-15218820D01*
D11*
X4030714Y-15079524D02*
X4049762Y-15079524D01*
X4049762Y-15079524D02*
X4068809Y-15089048D01*
X4068809Y-15089048D02*
X4078333Y-15098571D01*
X4078333Y-15098571D02*
X4087857Y-15117619D01*
X4087857Y-15117619D02*
X4097381Y-15155714D01*
X4097381Y-15155714D02*
X4097381Y-15203333D01*
X4097381Y-15203333D02*
X4087857Y-15241428D01*
X4087857Y-15241428D02*
X4078333Y-15260476D01*
X4078333Y-15260476D02*
X4068809Y-15270000D01*
X4068809Y-15270000D02*
X4049762Y-15279524D01*
X4049762Y-15279524D02*
X4030714Y-15279524D01*
X4030714Y-15279524D02*
X4011667Y-15270000D01*
X4011667Y-15270000D02*
X4002143Y-15260476D01*
X4002143Y-15260476D02*
X3992619Y-15241428D01*
X3992619Y-15241428D02*
X3983095Y-15203333D01*
X3983095Y-15203333D02*
X3983095Y-15155714D01*
X3983095Y-15155714D02*
X3992619Y-15117619D01*
X3992619Y-15117619D02*
X4002143Y-15098571D01*
X4002143Y-15098571D02*
X4011667Y-15089048D01*
X4011667Y-15089048D02*
X4030714Y-15079524D01*
X4183095Y-15260476D02*
X4192619Y-15270000D01*
X4192619Y-15270000D02*
X4183095Y-15279524D01*
X4183095Y-15279524D02*
X4173571Y-15270000D01*
X4173571Y-15270000D02*
X4183095Y-15260476D01*
X4183095Y-15260476D02*
X4183095Y-15279524D01*
X4287857Y-15279524D02*
X4325952Y-15279524D01*
X4325952Y-15279524D02*
X4345000Y-15270000D01*
X4345000Y-15270000D02*
X4354524Y-15260476D01*
X4354524Y-15260476D02*
X4373571Y-15231905D01*
X4373571Y-15231905D02*
X4383095Y-15193809D01*
X4383095Y-15193809D02*
X4383095Y-15117619D01*
X4383095Y-15117619D02*
X4373571Y-15098571D01*
X4373571Y-15098571D02*
X4364048Y-15089048D01*
X4364048Y-15089048D02*
X4345000Y-15079524D01*
X4345000Y-15079524D02*
X4306905Y-15079524D01*
X4306905Y-15079524D02*
X4287857Y-15089048D01*
X4287857Y-15089048D02*
X4278333Y-15098571D01*
X4278333Y-15098571D02*
X4268810Y-15117619D01*
X4268810Y-15117619D02*
X4268810Y-15165238D01*
X4268810Y-15165238D02*
X4278333Y-15184286D01*
X4278333Y-15184286D02*
X4287857Y-15193809D01*
X4287857Y-15193809D02*
X4306905Y-15203333D01*
X4306905Y-15203333D02*
X4345000Y-15203333D01*
X4345000Y-15203333D02*
X4364048Y-15193809D01*
X4364048Y-15193809D02*
X4373571Y-15184286D01*
X4373571Y-15184286D02*
X4383095Y-15165238D01*
X4506905Y-15079524D02*
X4525952Y-15079524D01*
X4525952Y-15079524D02*
X4545000Y-15089048D01*
X4545000Y-15089048D02*
X4554524Y-15098571D01*
X4554524Y-15098571D02*
X4564048Y-15117619D01*
X4564048Y-15117619D02*
X4573571Y-15155714D01*
X4573571Y-15155714D02*
X4573571Y-15203333D01*
X4573571Y-15203333D02*
X4564048Y-15241428D01*
X4564048Y-15241428D02*
X4554524Y-15260476D01*
X4554524Y-15260476D02*
X4545000Y-15270000D01*
X4545000Y-15270000D02*
X4525952Y-15279524D01*
X4525952Y-15279524D02*
X4506905Y-15279524D01*
X4506905Y-15279524D02*
X4487857Y-15270000D01*
X4487857Y-15270000D02*
X4478333Y-15260476D01*
X4478333Y-15260476D02*
X4468810Y-15241428D01*
X4468810Y-15241428D02*
X4459286Y-15203333D01*
X4459286Y-15203333D02*
X4459286Y-15155714D01*
X4459286Y-15155714D02*
X4468810Y-15117619D01*
X4468810Y-15117619D02*
X4478333Y-15098571D01*
X4478333Y-15098571D02*
X4487857Y-15089048D01*
X4487857Y-15089048D02*
X4506905Y-15079524D01*
X4697381Y-15079524D02*
X4716429Y-15079524D01*
X4716429Y-15079524D02*
X4735476Y-15089048D01*
X4735476Y-15089048D02*
X4745000Y-15098571D01*
X4745000Y-15098571D02*
X4754524Y-15117619D01*
X4754524Y-15117619D02*
X4764048Y-15155714D01*
X4764048Y-15155714D02*
X4764048Y-15203333D01*
X4764048Y-15203333D02*
X4754524Y-15241428D01*
X4754524Y-15241428D02*
X4745000Y-15260476D01*
X4745000Y-15260476D02*
X4735476Y-15270000D01*
X4735476Y-15270000D02*
X4716429Y-15279524D01*
X4716429Y-15279524D02*
X4697381Y-15279524D01*
X4697381Y-15279524D02*
X4678333Y-15270000D01*
X4678333Y-15270000D02*
X4668810Y-15260476D01*
X4668810Y-15260476D02*
X4659286Y-15241428D01*
X4659286Y-15241428D02*
X4649762Y-15203333D01*
X4649762Y-15203333D02*
X4649762Y-15155714D01*
X4649762Y-15155714D02*
X4659286Y-15117619D01*
X4659286Y-15117619D02*
X4668810Y-15098571D01*
X4668810Y-15098571D02*
X4678333Y-15089048D01*
X4678333Y-15089048D02*
X4697381Y-15079524D01*
X4849762Y-15279524D02*
X4849762Y-15146190D01*
X4849762Y-15165238D02*
X4859286Y-15155714D01*
X4859286Y-15155714D02*
X4878333Y-15146190D01*
X4878333Y-15146190D02*
X4906905Y-15146190D01*
X4906905Y-15146190D02*
X4925952Y-15155714D01*
X4925952Y-15155714D02*
X4935476Y-15174762D01*
X4935476Y-15174762D02*
X4935476Y-15279524D01*
X4935476Y-15174762D02*
X4945000Y-15155714D01*
X4945000Y-15155714D02*
X4964048Y-15146190D01*
X4964048Y-15146190D02*
X4992619Y-15146190D01*
X4992619Y-15146190D02*
X5011667Y-15155714D01*
X5011667Y-15155714D02*
X5021191Y-15174762D01*
X5021191Y-15174762D02*
X5021191Y-15279524D01*
X5116429Y-15279524D02*
X5116429Y-15146190D01*
X5116429Y-15165238D02*
X5125952Y-15155714D01*
X5125952Y-15155714D02*
X5145000Y-15146190D01*
X5145000Y-15146190D02*
X5173572Y-15146190D01*
X5173572Y-15146190D02*
X5192619Y-15155714D01*
X5192619Y-15155714D02*
X5202143Y-15174762D01*
X5202143Y-15174762D02*
X5202143Y-15279524D01*
X5202143Y-15174762D02*
X5211667Y-15155714D01*
X5211667Y-15155714D02*
X5230714Y-15146190D01*
X5230714Y-15146190D02*
X5259286Y-15146190D01*
X5259286Y-15146190D02*
X5278333Y-15155714D01*
X5278333Y-15155714D02*
X5287857Y-15174762D01*
X5287857Y-15174762D02*
X5287857Y-15279524D01*
X5678333Y-15070000D02*
X5506905Y-15327143D01*
X5935476Y-15079524D02*
X5954524Y-15079524D01*
X5954524Y-15079524D02*
X5973572Y-15089048D01*
X5973572Y-15089048D02*
X5983095Y-15098571D01*
X5983095Y-15098571D02*
X5992619Y-15117619D01*
X5992619Y-15117619D02*
X6002143Y-15155714D01*
X6002143Y-15155714D02*
X6002143Y-15203333D01*
X6002143Y-15203333D02*
X5992619Y-15241428D01*
X5992619Y-15241428D02*
X5983095Y-15260476D01*
X5983095Y-15260476D02*
X5973572Y-15270000D01*
X5973572Y-15270000D02*
X5954524Y-15279524D01*
X5954524Y-15279524D02*
X5935476Y-15279524D01*
X5935476Y-15279524D02*
X5916429Y-15270000D01*
X5916429Y-15270000D02*
X5906905Y-15260476D01*
X5906905Y-15260476D02*
X5897381Y-15241428D01*
X5897381Y-15241428D02*
X5887857Y-15203333D01*
X5887857Y-15203333D02*
X5887857Y-15155714D01*
X5887857Y-15155714D02*
X5897381Y-15117619D01*
X5897381Y-15117619D02*
X5906905Y-15098571D01*
X5906905Y-15098571D02*
X5916429Y-15089048D01*
X5916429Y-15089048D02*
X5935476Y-15079524D01*
X6087857Y-15260476D02*
X6097381Y-15270000D01*
X6097381Y-15270000D02*
X6087857Y-15279524D01*
X6087857Y-15279524D02*
X6078333Y-15270000D01*
X6078333Y-15270000D02*
X6087857Y-15260476D01*
X6087857Y-15260476D02*
X6087857Y-15279524D01*
X6221191Y-15079524D02*
X6240238Y-15079524D01*
X6240238Y-15079524D02*
X6259286Y-15089048D01*
X6259286Y-15089048D02*
X6268810Y-15098571D01*
X6268810Y-15098571D02*
X6278333Y-15117619D01*
X6278333Y-15117619D02*
X6287857Y-15155714D01*
X6287857Y-15155714D02*
X6287857Y-15203333D01*
X6287857Y-15203333D02*
X6278333Y-15241428D01*
X6278333Y-15241428D02*
X6268810Y-15260476D01*
X6268810Y-15260476D02*
X6259286Y-15270000D01*
X6259286Y-15270000D02*
X6240238Y-15279524D01*
X6240238Y-15279524D02*
X6221191Y-15279524D01*
X6221191Y-15279524D02*
X6202143Y-15270000D01*
X6202143Y-15270000D02*
X6192619Y-15260476D01*
X6192619Y-15260476D02*
X6183095Y-15241428D01*
X6183095Y-15241428D02*
X6173572Y-15203333D01*
X6173572Y-15203333D02*
X6173572Y-15155714D01*
X6173572Y-15155714D02*
X6183095Y-15117619D01*
X6183095Y-15117619D02*
X6192619Y-15098571D01*
X6192619Y-15098571D02*
X6202143Y-15089048D01*
X6202143Y-15089048D02*
X6221191Y-15079524D01*
X6354524Y-15079524D02*
X6478333Y-15079524D01*
X6478333Y-15079524D02*
X6411667Y-15155714D01*
X6411667Y-15155714D02*
X6440238Y-15155714D01*
X6440238Y-15155714D02*
X6459286Y-15165238D01*
X6459286Y-15165238D02*
X6468810Y-15174762D01*
X6468810Y-15174762D02*
X6478333Y-15193809D01*
X6478333Y-15193809D02*
X6478333Y-15241428D01*
X6478333Y-15241428D02*
X6468810Y-15260476D01*
X6468810Y-15260476D02*
X6459286Y-15270000D01*
X6459286Y-15270000D02*
X6440238Y-15279524D01*
X6440238Y-15279524D02*
X6383095Y-15279524D01*
X6383095Y-15279524D02*
X6364048Y-15270000D01*
X6364048Y-15270000D02*
X6354524Y-15260476D01*
X6659286Y-15079524D02*
X6564048Y-15079524D01*
X6564048Y-15079524D02*
X6554524Y-15174762D01*
X6554524Y-15174762D02*
X6564048Y-15165238D01*
X6564048Y-15165238D02*
X6583095Y-15155714D01*
X6583095Y-15155714D02*
X6630714Y-15155714D01*
X6630714Y-15155714D02*
X6649762Y-15165238D01*
X6649762Y-15165238D02*
X6659286Y-15174762D01*
X6659286Y-15174762D02*
X6668810Y-15193809D01*
X6668810Y-15193809D02*
X6668810Y-15241428D01*
X6668810Y-15241428D02*
X6659286Y-15260476D01*
X6659286Y-15260476D02*
X6649762Y-15270000D01*
X6649762Y-15270000D02*
X6630714Y-15279524D01*
X6630714Y-15279524D02*
X6583095Y-15279524D01*
X6583095Y-15279524D02*
X6564048Y-15270000D01*
X6564048Y-15270000D02*
X6554524Y-15260476D01*
X6840238Y-15146190D02*
X6840238Y-15279524D01*
X6792619Y-15070000D02*
X6745000Y-15212857D01*
X6745000Y-15212857D02*
X6868810Y-15212857D01*
X6935476Y-15079524D02*
X6935476Y-15117619D01*
X7011667Y-15079524D02*
X7011667Y-15117619D01*
X7306905Y-15355714D02*
X7297381Y-15346190D01*
X7297381Y-15346190D02*
X7278334Y-15317619D01*
X7278334Y-15317619D02*
X7268810Y-15298571D01*
X7268810Y-15298571D02*
X7259286Y-15270000D01*
X7259286Y-15270000D02*
X7249762Y-15222381D01*
X7249762Y-15222381D02*
X7249762Y-15184286D01*
X7249762Y-15184286D02*
X7259286Y-15136667D01*
X7259286Y-15136667D02*
X7268810Y-15108095D01*
X7268810Y-15108095D02*
X7278334Y-15089048D01*
X7278334Y-15089048D02*
X7297381Y-15060476D01*
X7297381Y-15060476D02*
X7306905Y-15050952D01*
X7373572Y-15098571D02*
X7383095Y-15089048D01*
X7383095Y-15089048D02*
X7402143Y-15079524D01*
X7402143Y-15079524D02*
X7449762Y-15079524D01*
X7449762Y-15079524D02*
X7468810Y-15089048D01*
X7468810Y-15089048D02*
X7478334Y-15098571D01*
X7478334Y-15098571D02*
X7487857Y-15117619D01*
X7487857Y-15117619D02*
X7487857Y-15136667D01*
X7487857Y-15136667D02*
X7478334Y-15165238D01*
X7478334Y-15165238D02*
X7364048Y-15279524D01*
X7364048Y-15279524D02*
X7487857Y-15279524D01*
X7725953Y-15279524D02*
X7725953Y-15079524D01*
X7811667Y-15279524D02*
X7811667Y-15174762D01*
X7811667Y-15174762D02*
X7802143Y-15155714D01*
X7802143Y-15155714D02*
X7783096Y-15146190D01*
X7783096Y-15146190D02*
X7754524Y-15146190D01*
X7754524Y-15146190D02*
X7735476Y-15155714D01*
X7735476Y-15155714D02*
X7725953Y-15165238D01*
X7935476Y-15279524D02*
X7916429Y-15270000D01*
X7916429Y-15270000D02*
X7906905Y-15260476D01*
X7906905Y-15260476D02*
X7897381Y-15241428D01*
X7897381Y-15241428D02*
X7897381Y-15184286D01*
X7897381Y-15184286D02*
X7906905Y-15165238D01*
X7906905Y-15165238D02*
X7916429Y-15155714D01*
X7916429Y-15155714D02*
X7935476Y-15146190D01*
X7935476Y-15146190D02*
X7964048Y-15146190D01*
X7964048Y-15146190D02*
X7983096Y-15155714D01*
X7983096Y-15155714D02*
X7992619Y-15165238D01*
X7992619Y-15165238D02*
X8002143Y-15184286D01*
X8002143Y-15184286D02*
X8002143Y-15241428D01*
X8002143Y-15241428D02*
X7992619Y-15260476D01*
X7992619Y-15260476D02*
X7983096Y-15270000D01*
X7983096Y-15270000D02*
X7964048Y-15279524D01*
X7964048Y-15279524D02*
X7935476Y-15279524D01*
X8116429Y-15279524D02*
X8097381Y-15270000D01*
X8097381Y-15270000D02*
X8087857Y-15250952D01*
X8087857Y-15250952D02*
X8087857Y-15079524D01*
X8268810Y-15270000D02*
X8249762Y-15279524D01*
X8249762Y-15279524D02*
X8211667Y-15279524D01*
X8211667Y-15279524D02*
X8192619Y-15270000D01*
X8192619Y-15270000D02*
X8183096Y-15250952D01*
X8183096Y-15250952D02*
X8183096Y-15174762D01*
X8183096Y-15174762D02*
X8192619Y-15155714D01*
X8192619Y-15155714D02*
X8211667Y-15146190D01*
X8211667Y-15146190D02*
X8249762Y-15146190D01*
X8249762Y-15146190D02*
X8268810Y-15155714D01*
X8268810Y-15155714D02*
X8278334Y-15174762D01*
X8278334Y-15174762D02*
X8278334Y-15193809D01*
X8278334Y-15193809D02*
X8183096Y-15212857D01*
X8354524Y-15270000D02*
X8373572Y-15279524D01*
X8373572Y-15279524D02*
X8411667Y-15279524D01*
X8411667Y-15279524D02*
X8430715Y-15270000D01*
X8430715Y-15270000D02*
X8440239Y-15250952D01*
X8440239Y-15250952D02*
X8440239Y-15241428D01*
X8440239Y-15241428D02*
X8430715Y-15222381D01*
X8430715Y-15222381D02*
X8411667Y-15212857D01*
X8411667Y-15212857D02*
X8383096Y-15212857D01*
X8383096Y-15212857D02*
X8364048Y-15203333D01*
X8364048Y-15203333D02*
X8354524Y-15184286D01*
X8354524Y-15184286D02*
X8354524Y-15174762D01*
X8354524Y-15174762D02*
X8364048Y-15155714D01*
X8364048Y-15155714D02*
X8383096Y-15146190D01*
X8383096Y-15146190D02*
X8411667Y-15146190D01*
X8411667Y-15146190D02*
X8430715Y-15155714D01*
X8506905Y-15355714D02*
X8516429Y-15346190D01*
X8516429Y-15346190D02*
X8535477Y-15317619D01*
X8535477Y-15317619D02*
X8545000Y-15298571D01*
X8545000Y-15298571D02*
X8554524Y-15270000D01*
X8554524Y-15270000D02*
X8564048Y-15222381D01*
X8564048Y-15222381D02*
X8564048Y-15184286D01*
X8564048Y-15184286D02*
X8554524Y-15136667D01*
X8554524Y-15136667D02*
X8545000Y-15108095D01*
X8545000Y-15108095D02*
X8535477Y-15089048D01*
X8535477Y-15089048D02*
X8516429Y-15060476D01*
X8516429Y-15060476D02*
X8506905Y-15050952D01*
D10*
X3695000Y-15501000D02*
X3745000Y-15451000D01*
X3695000Y-15401000D01*
X3645000Y-15451000D01*
X3695000Y-15501000D01*
D11*
X4097381Y-15543524D02*
X3983095Y-15543524D01*
X4040238Y-15543524D02*
X4040238Y-15343524D01*
X4040238Y-15343524D02*
X4021190Y-15372095D01*
X4021190Y-15372095D02*
X4002143Y-15391143D01*
X4002143Y-15391143D02*
X3983095Y-15400667D01*
X4183095Y-15524476D02*
X4192619Y-15534000D01*
X4192619Y-15534000D02*
X4183095Y-15543524D01*
X4183095Y-15543524D02*
X4173571Y-15534000D01*
X4173571Y-15534000D02*
X4183095Y-15524476D01*
X4183095Y-15524476D02*
X4183095Y-15543524D01*
X4316429Y-15343524D02*
X4335476Y-15343524D01*
X4335476Y-15343524D02*
X4354524Y-15353048D01*
X4354524Y-15353048D02*
X4364048Y-15362571D01*
X4364048Y-15362571D02*
X4373571Y-15381619D01*
X4373571Y-15381619D02*
X4383095Y-15419714D01*
X4383095Y-15419714D02*
X4383095Y-15467333D01*
X4383095Y-15467333D02*
X4373571Y-15505428D01*
X4373571Y-15505428D02*
X4364048Y-15524476D01*
X4364048Y-15524476D02*
X4354524Y-15534000D01*
X4354524Y-15534000D02*
X4335476Y-15543524D01*
X4335476Y-15543524D02*
X4316429Y-15543524D01*
X4316429Y-15543524D02*
X4297381Y-15534000D01*
X4297381Y-15534000D02*
X4287857Y-15524476D01*
X4287857Y-15524476D02*
X4278333Y-15505428D01*
X4278333Y-15505428D02*
X4268810Y-15467333D01*
X4268810Y-15467333D02*
X4268810Y-15419714D01*
X4268810Y-15419714D02*
X4278333Y-15381619D01*
X4278333Y-15381619D02*
X4287857Y-15362571D01*
X4287857Y-15362571D02*
X4297381Y-15353048D01*
X4297381Y-15353048D02*
X4316429Y-15343524D01*
X4506905Y-15343524D02*
X4525952Y-15343524D01*
X4525952Y-15343524D02*
X4545000Y-15353048D01*
X4545000Y-15353048D02*
X4554524Y-15362571D01*
X4554524Y-15362571D02*
X4564048Y-15381619D01*
X4564048Y-15381619D02*
X4573571Y-15419714D01*
X4573571Y-15419714D02*
X4573571Y-15467333D01*
X4573571Y-15467333D02*
X4564048Y-15505428D01*
X4564048Y-15505428D02*
X4554524Y-15524476D01*
X4554524Y-15524476D02*
X4545000Y-15534000D01*
X4545000Y-15534000D02*
X4525952Y-15543524D01*
X4525952Y-15543524D02*
X4506905Y-15543524D01*
X4506905Y-15543524D02*
X4487857Y-15534000D01*
X4487857Y-15534000D02*
X4478333Y-15524476D01*
X4478333Y-15524476D02*
X4468810Y-15505428D01*
X4468810Y-15505428D02*
X4459286Y-15467333D01*
X4459286Y-15467333D02*
X4459286Y-15419714D01*
X4459286Y-15419714D02*
X4468810Y-15381619D01*
X4468810Y-15381619D02*
X4478333Y-15362571D01*
X4478333Y-15362571D02*
X4487857Y-15353048D01*
X4487857Y-15353048D02*
X4506905Y-15343524D01*
X4697381Y-15343524D02*
X4716429Y-15343524D01*
X4716429Y-15343524D02*
X4735476Y-15353048D01*
X4735476Y-15353048D02*
X4745000Y-15362571D01*
X4745000Y-15362571D02*
X4754524Y-15381619D01*
X4754524Y-15381619D02*
X4764048Y-15419714D01*
X4764048Y-15419714D02*
X4764048Y-15467333D01*
X4764048Y-15467333D02*
X4754524Y-15505428D01*
X4754524Y-15505428D02*
X4745000Y-15524476D01*
X4745000Y-15524476D02*
X4735476Y-15534000D01*
X4735476Y-15534000D02*
X4716429Y-15543524D01*
X4716429Y-15543524D02*
X4697381Y-15543524D01*
X4697381Y-15543524D02*
X4678333Y-15534000D01*
X4678333Y-15534000D02*
X4668810Y-15524476D01*
X4668810Y-15524476D02*
X4659286Y-15505428D01*
X4659286Y-15505428D02*
X4649762Y-15467333D01*
X4649762Y-15467333D02*
X4649762Y-15419714D01*
X4649762Y-15419714D02*
X4659286Y-15381619D01*
X4659286Y-15381619D02*
X4668810Y-15362571D01*
X4668810Y-15362571D02*
X4678333Y-15353048D01*
X4678333Y-15353048D02*
X4697381Y-15343524D01*
X4849762Y-15543524D02*
X4849762Y-15410190D01*
X4849762Y-15429238D02*
X4859286Y-15419714D01*
X4859286Y-15419714D02*
X4878333Y-15410190D01*
X4878333Y-15410190D02*
X4906905Y-15410190D01*
X4906905Y-15410190D02*
X4925952Y-15419714D01*
X4925952Y-15419714D02*
X4935476Y-15438762D01*
X4935476Y-15438762D02*
X4935476Y-15543524D01*
X4935476Y-15438762D02*
X4945000Y-15419714D01*
X4945000Y-15419714D02*
X4964048Y-15410190D01*
X4964048Y-15410190D02*
X4992619Y-15410190D01*
X4992619Y-15410190D02*
X5011667Y-15419714D01*
X5011667Y-15419714D02*
X5021191Y-15438762D01*
X5021191Y-15438762D02*
X5021191Y-15543524D01*
X5116429Y-15543524D02*
X5116429Y-15410190D01*
X5116429Y-15429238D02*
X5125952Y-15419714D01*
X5125952Y-15419714D02*
X5145000Y-15410190D01*
X5145000Y-15410190D02*
X5173572Y-15410190D01*
X5173572Y-15410190D02*
X5192619Y-15419714D01*
X5192619Y-15419714D02*
X5202143Y-15438762D01*
X5202143Y-15438762D02*
X5202143Y-15543524D01*
X5202143Y-15438762D02*
X5211667Y-15419714D01*
X5211667Y-15419714D02*
X5230714Y-15410190D01*
X5230714Y-15410190D02*
X5259286Y-15410190D01*
X5259286Y-15410190D02*
X5278333Y-15419714D01*
X5278333Y-15419714D02*
X5287857Y-15438762D01*
X5287857Y-15438762D02*
X5287857Y-15543524D01*
X5678333Y-15334000D02*
X5506905Y-15591143D01*
X5935476Y-15343524D02*
X5954524Y-15343524D01*
X5954524Y-15343524D02*
X5973572Y-15353048D01*
X5973572Y-15353048D02*
X5983095Y-15362571D01*
X5983095Y-15362571D02*
X5992619Y-15381619D01*
X5992619Y-15381619D02*
X6002143Y-15419714D01*
X6002143Y-15419714D02*
X6002143Y-15467333D01*
X6002143Y-15467333D02*
X5992619Y-15505428D01*
X5992619Y-15505428D02*
X5983095Y-15524476D01*
X5983095Y-15524476D02*
X5973572Y-15534000D01*
X5973572Y-15534000D02*
X5954524Y-15543524D01*
X5954524Y-15543524D02*
X5935476Y-15543524D01*
X5935476Y-15543524D02*
X5916429Y-15534000D01*
X5916429Y-15534000D02*
X5906905Y-15524476D01*
X5906905Y-15524476D02*
X5897381Y-15505428D01*
X5897381Y-15505428D02*
X5887857Y-15467333D01*
X5887857Y-15467333D02*
X5887857Y-15419714D01*
X5887857Y-15419714D02*
X5897381Y-15381619D01*
X5897381Y-15381619D02*
X5906905Y-15362571D01*
X5906905Y-15362571D02*
X5916429Y-15353048D01*
X5916429Y-15353048D02*
X5935476Y-15343524D01*
X6087857Y-15524476D02*
X6097381Y-15534000D01*
X6097381Y-15534000D02*
X6087857Y-15543524D01*
X6087857Y-15543524D02*
X6078333Y-15534000D01*
X6078333Y-15534000D02*
X6087857Y-15524476D01*
X6087857Y-15524476D02*
X6087857Y-15543524D01*
X6221191Y-15343524D02*
X6240238Y-15343524D01*
X6240238Y-15343524D02*
X6259286Y-15353048D01*
X6259286Y-15353048D02*
X6268810Y-15362571D01*
X6268810Y-15362571D02*
X6278333Y-15381619D01*
X6278333Y-15381619D02*
X6287857Y-15419714D01*
X6287857Y-15419714D02*
X6287857Y-15467333D01*
X6287857Y-15467333D02*
X6278333Y-15505428D01*
X6278333Y-15505428D02*
X6268810Y-15524476D01*
X6268810Y-15524476D02*
X6259286Y-15534000D01*
X6259286Y-15534000D02*
X6240238Y-15543524D01*
X6240238Y-15543524D02*
X6221191Y-15543524D01*
X6221191Y-15543524D02*
X6202143Y-15534000D01*
X6202143Y-15534000D02*
X6192619Y-15524476D01*
X6192619Y-15524476D02*
X6183095Y-15505428D01*
X6183095Y-15505428D02*
X6173572Y-15467333D01*
X6173572Y-15467333D02*
X6173572Y-15419714D01*
X6173572Y-15419714D02*
X6183095Y-15381619D01*
X6183095Y-15381619D02*
X6192619Y-15362571D01*
X6192619Y-15362571D02*
X6202143Y-15353048D01*
X6202143Y-15353048D02*
X6221191Y-15343524D01*
X6354524Y-15343524D02*
X6478333Y-15343524D01*
X6478333Y-15343524D02*
X6411667Y-15419714D01*
X6411667Y-15419714D02*
X6440238Y-15419714D01*
X6440238Y-15419714D02*
X6459286Y-15429238D01*
X6459286Y-15429238D02*
X6468810Y-15438762D01*
X6468810Y-15438762D02*
X6478333Y-15457809D01*
X6478333Y-15457809D02*
X6478333Y-15505428D01*
X6478333Y-15505428D02*
X6468810Y-15524476D01*
X6468810Y-15524476D02*
X6459286Y-15534000D01*
X6459286Y-15534000D02*
X6440238Y-15543524D01*
X6440238Y-15543524D02*
X6383095Y-15543524D01*
X6383095Y-15543524D02*
X6364048Y-15534000D01*
X6364048Y-15534000D02*
X6354524Y-15524476D01*
X6573572Y-15543524D02*
X6611667Y-15543524D01*
X6611667Y-15543524D02*
X6630714Y-15534000D01*
X6630714Y-15534000D02*
X6640238Y-15524476D01*
X6640238Y-15524476D02*
X6659286Y-15495905D01*
X6659286Y-15495905D02*
X6668810Y-15457809D01*
X6668810Y-15457809D02*
X6668810Y-15381619D01*
X6668810Y-15381619D02*
X6659286Y-15362571D01*
X6659286Y-15362571D02*
X6649762Y-15353048D01*
X6649762Y-15353048D02*
X6630714Y-15343524D01*
X6630714Y-15343524D02*
X6592619Y-15343524D01*
X6592619Y-15343524D02*
X6573572Y-15353048D01*
X6573572Y-15353048D02*
X6564048Y-15362571D01*
X6564048Y-15362571D02*
X6554524Y-15381619D01*
X6554524Y-15381619D02*
X6554524Y-15429238D01*
X6554524Y-15429238D02*
X6564048Y-15448286D01*
X6564048Y-15448286D02*
X6573572Y-15457809D01*
X6573572Y-15457809D02*
X6592619Y-15467333D01*
X6592619Y-15467333D02*
X6630714Y-15467333D01*
X6630714Y-15467333D02*
X6649762Y-15457809D01*
X6649762Y-15457809D02*
X6659286Y-15448286D01*
X6659286Y-15448286D02*
X6668810Y-15429238D01*
X6840238Y-15410190D02*
X6840238Y-15543524D01*
X6792619Y-15334000D02*
X6745000Y-15476857D01*
X6745000Y-15476857D02*
X6868810Y-15476857D01*
X6935476Y-15343524D02*
X6935476Y-15381619D01*
X7011667Y-15343524D02*
X7011667Y-15381619D01*
X7306905Y-15619714D02*
X7297381Y-15610190D01*
X7297381Y-15610190D02*
X7278334Y-15581619D01*
X7278334Y-15581619D02*
X7268810Y-15562571D01*
X7268810Y-15562571D02*
X7259286Y-15534000D01*
X7259286Y-15534000D02*
X7249762Y-15486381D01*
X7249762Y-15486381D02*
X7249762Y-15448286D01*
X7249762Y-15448286D02*
X7259286Y-15400667D01*
X7259286Y-15400667D02*
X7268810Y-15372095D01*
X7268810Y-15372095D02*
X7278334Y-15353048D01*
X7278334Y-15353048D02*
X7297381Y-15324476D01*
X7297381Y-15324476D02*
X7306905Y-15314952D01*
X7487857Y-15543524D02*
X7373572Y-15543524D01*
X7430714Y-15543524D02*
X7430714Y-15343524D01*
X7430714Y-15343524D02*
X7411667Y-15372095D01*
X7411667Y-15372095D02*
X7392619Y-15391143D01*
X7392619Y-15391143D02*
X7373572Y-15400667D01*
X7554524Y-15343524D02*
X7687857Y-15343524D01*
X7687857Y-15343524D02*
X7602143Y-15543524D01*
X7792619Y-15429238D02*
X7773572Y-15419714D01*
X7773572Y-15419714D02*
X7764048Y-15410190D01*
X7764048Y-15410190D02*
X7754524Y-15391143D01*
X7754524Y-15391143D02*
X7754524Y-15381619D01*
X7754524Y-15381619D02*
X7764048Y-15362571D01*
X7764048Y-15362571D02*
X7773572Y-15353048D01*
X7773572Y-15353048D02*
X7792619Y-15343524D01*
X7792619Y-15343524D02*
X7830715Y-15343524D01*
X7830715Y-15343524D02*
X7849762Y-15353048D01*
X7849762Y-15353048D02*
X7859286Y-15362571D01*
X7859286Y-15362571D02*
X7868810Y-15381619D01*
X7868810Y-15381619D02*
X7868810Y-15391143D01*
X7868810Y-15391143D02*
X7859286Y-15410190D01*
X7859286Y-15410190D02*
X7849762Y-15419714D01*
X7849762Y-15419714D02*
X7830715Y-15429238D01*
X7830715Y-15429238D02*
X7792619Y-15429238D01*
X7792619Y-15429238D02*
X7773572Y-15438762D01*
X7773572Y-15438762D02*
X7764048Y-15448286D01*
X7764048Y-15448286D02*
X7754524Y-15467333D01*
X7754524Y-15467333D02*
X7754524Y-15505428D01*
X7754524Y-15505428D02*
X7764048Y-15524476D01*
X7764048Y-15524476D02*
X7773572Y-15534000D01*
X7773572Y-15534000D02*
X7792619Y-15543524D01*
X7792619Y-15543524D02*
X7830715Y-15543524D01*
X7830715Y-15543524D02*
X7849762Y-15534000D01*
X7849762Y-15534000D02*
X7859286Y-15524476D01*
X7859286Y-15524476D02*
X7868810Y-15505428D01*
X7868810Y-15505428D02*
X7868810Y-15467333D01*
X7868810Y-15467333D02*
X7859286Y-15448286D01*
X7859286Y-15448286D02*
X7849762Y-15438762D01*
X7849762Y-15438762D02*
X7830715Y-15429238D01*
X8106905Y-15543524D02*
X8106905Y-15343524D01*
X8192619Y-15543524D02*
X8192619Y-15438762D01*
X8192619Y-15438762D02*
X8183096Y-15419714D01*
X8183096Y-15419714D02*
X8164048Y-15410190D01*
X8164048Y-15410190D02*
X8135476Y-15410190D01*
X8135476Y-15410190D02*
X8116429Y-15419714D01*
X8116429Y-15419714D02*
X8106905Y-15429238D01*
X8316429Y-15543524D02*
X8297381Y-15534000D01*
X8297381Y-15534000D02*
X8287857Y-15524476D01*
X8287857Y-15524476D02*
X8278334Y-15505428D01*
X8278334Y-15505428D02*
X8278334Y-15448286D01*
X8278334Y-15448286D02*
X8287857Y-15429238D01*
X8287857Y-15429238D02*
X8297381Y-15419714D01*
X8297381Y-15419714D02*
X8316429Y-15410190D01*
X8316429Y-15410190D02*
X8345000Y-15410190D01*
X8345000Y-15410190D02*
X8364048Y-15419714D01*
X8364048Y-15419714D02*
X8373572Y-15429238D01*
X8373572Y-15429238D02*
X8383096Y-15448286D01*
X8383096Y-15448286D02*
X8383096Y-15505428D01*
X8383096Y-15505428D02*
X8373572Y-15524476D01*
X8373572Y-15524476D02*
X8364048Y-15534000D01*
X8364048Y-15534000D02*
X8345000Y-15543524D01*
X8345000Y-15543524D02*
X8316429Y-15543524D01*
X8497381Y-15543524D02*
X8478334Y-15534000D01*
X8478334Y-15534000D02*
X8468810Y-15514952D01*
X8468810Y-15514952D02*
X8468810Y-15343524D01*
X8649762Y-15534000D02*
X8630715Y-15543524D01*
X8630715Y-15543524D02*
X8592619Y-15543524D01*
X8592619Y-15543524D02*
X8573572Y-15534000D01*
X8573572Y-15534000D02*
X8564048Y-15514952D01*
X8564048Y-15514952D02*
X8564048Y-15438762D01*
X8564048Y-15438762D02*
X8573572Y-15419714D01*
X8573572Y-15419714D02*
X8592619Y-15410190D01*
X8592619Y-15410190D02*
X8630715Y-15410190D01*
X8630715Y-15410190D02*
X8649762Y-15419714D01*
X8649762Y-15419714D02*
X8659286Y-15438762D01*
X8659286Y-15438762D02*
X8659286Y-15457809D01*
X8659286Y-15457809D02*
X8564048Y-15476857D01*
X8735477Y-15534000D02*
X8754524Y-15543524D01*
X8754524Y-15543524D02*
X8792619Y-15543524D01*
X8792619Y-15543524D02*
X8811667Y-15534000D01*
X8811667Y-15534000D02*
X8821191Y-15514952D01*
X8821191Y-15514952D02*
X8821191Y-15505428D01*
X8821191Y-15505428D02*
X8811667Y-15486381D01*
X8811667Y-15486381D02*
X8792619Y-15476857D01*
X8792619Y-15476857D02*
X8764048Y-15476857D01*
X8764048Y-15476857D02*
X8745000Y-15467333D01*
X8745000Y-15467333D02*
X8735477Y-15448286D01*
X8735477Y-15448286D02*
X8735477Y-15438762D01*
X8735477Y-15438762D02*
X8745000Y-15419714D01*
X8745000Y-15419714D02*
X8764048Y-15410190D01*
X8764048Y-15410190D02*
X8792619Y-15410190D01*
X8792619Y-15410190D02*
X8811667Y-15419714D01*
X8887858Y-15619714D02*
X8897381Y-15610190D01*
X8897381Y-15610190D02*
X8916429Y-15581619D01*
X8916429Y-15581619D02*
X8925953Y-15562571D01*
X8925953Y-15562571D02*
X8935477Y-15534000D01*
X8935477Y-15534000D02*
X8945000Y-15486381D01*
X8945000Y-15486381D02*
X8945000Y-15448286D01*
X8945000Y-15448286D02*
X8935477Y-15400667D01*
X8935477Y-15400667D02*
X8925953Y-15372095D01*
X8925953Y-15372095D02*
X8916429Y-15353048D01*
X8916429Y-15353048D02*
X8897381Y-15324476D01*
X8897381Y-15324476D02*
X8887858Y-15314952D01*
D16*
X3643000Y-15664000D02*
X3745000Y-15766000D01*
X3745000Y-15664000D02*
X3643000Y-15766000D01*
X3745000Y-15715000D02*
G75*
G03*
X3745000Y-15715000I-51000J0D01*
G01*
D11*
X4097381Y-15807524D02*
X3983095Y-15807524D01*
X4040238Y-15807524D02*
X4040238Y-15607524D01*
X4040238Y-15607524D02*
X4021190Y-15636095D01*
X4021190Y-15636095D02*
X4002143Y-15655143D01*
X4002143Y-15655143D02*
X3983095Y-15664667D01*
X4183095Y-15788476D02*
X4192619Y-15798000D01*
X4192619Y-15798000D02*
X4183095Y-15807524D01*
X4183095Y-15807524D02*
X4173571Y-15798000D01*
X4173571Y-15798000D02*
X4183095Y-15788476D01*
X4183095Y-15788476D02*
X4183095Y-15807524D01*
X4316429Y-15607524D02*
X4335476Y-15607524D01*
X4335476Y-15607524D02*
X4354524Y-15617048D01*
X4354524Y-15617048D02*
X4364048Y-15626571D01*
X4364048Y-15626571D02*
X4373571Y-15645619D01*
X4373571Y-15645619D02*
X4383095Y-15683714D01*
X4383095Y-15683714D02*
X4383095Y-15731333D01*
X4383095Y-15731333D02*
X4373571Y-15769428D01*
X4373571Y-15769428D02*
X4364048Y-15788476D01*
X4364048Y-15788476D02*
X4354524Y-15798000D01*
X4354524Y-15798000D02*
X4335476Y-15807524D01*
X4335476Y-15807524D02*
X4316429Y-15807524D01*
X4316429Y-15807524D02*
X4297381Y-15798000D01*
X4297381Y-15798000D02*
X4287857Y-15788476D01*
X4287857Y-15788476D02*
X4278333Y-15769428D01*
X4278333Y-15769428D02*
X4268810Y-15731333D01*
X4268810Y-15731333D02*
X4268810Y-15683714D01*
X4268810Y-15683714D02*
X4278333Y-15645619D01*
X4278333Y-15645619D02*
X4287857Y-15626571D01*
X4287857Y-15626571D02*
X4297381Y-15617048D01*
X4297381Y-15617048D02*
X4316429Y-15607524D01*
X4459286Y-15626571D02*
X4468810Y-15617048D01*
X4468810Y-15617048D02*
X4487857Y-15607524D01*
X4487857Y-15607524D02*
X4535476Y-15607524D01*
X4535476Y-15607524D02*
X4554524Y-15617048D01*
X4554524Y-15617048D02*
X4564048Y-15626571D01*
X4564048Y-15626571D02*
X4573571Y-15645619D01*
X4573571Y-15645619D02*
X4573571Y-15664667D01*
X4573571Y-15664667D02*
X4564048Y-15693238D01*
X4564048Y-15693238D02*
X4449762Y-15807524D01*
X4449762Y-15807524D02*
X4573571Y-15807524D01*
X4697381Y-15607524D02*
X4716429Y-15607524D01*
X4716429Y-15607524D02*
X4735476Y-15617048D01*
X4735476Y-15617048D02*
X4745000Y-15626571D01*
X4745000Y-15626571D02*
X4754524Y-15645619D01*
X4754524Y-15645619D02*
X4764048Y-15683714D01*
X4764048Y-15683714D02*
X4764048Y-15731333D01*
X4764048Y-15731333D02*
X4754524Y-15769428D01*
X4754524Y-15769428D02*
X4745000Y-15788476D01*
X4745000Y-15788476D02*
X4735476Y-15798000D01*
X4735476Y-15798000D02*
X4716429Y-15807524D01*
X4716429Y-15807524D02*
X4697381Y-15807524D01*
X4697381Y-15807524D02*
X4678333Y-15798000D01*
X4678333Y-15798000D02*
X4668810Y-15788476D01*
X4668810Y-15788476D02*
X4659286Y-15769428D01*
X4659286Y-15769428D02*
X4649762Y-15731333D01*
X4649762Y-15731333D02*
X4649762Y-15683714D01*
X4649762Y-15683714D02*
X4659286Y-15645619D01*
X4659286Y-15645619D02*
X4668810Y-15626571D01*
X4668810Y-15626571D02*
X4678333Y-15617048D01*
X4678333Y-15617048D02*
X4697381Y-15607524D01*
X4849762Y-15807524D02*
X4849762Y-15674190D01*
X4849762Y-15693238D02*
X4859286Y-15683714D01*
X4859286Y-15683714D02*
X4878333Y-15674190D01*
X4878333Y-15674190D02*
X4906905Y-15674190D01*
X4906905Y-15674190D02*
X4925952Y-15683714D01*
X4925952Y-15683714D02*
X4935476Y-15702762D01*
X4935476Y-15702762D02*
X4935476Y-15807524D01*
X4935476Y-15702762D02*
X4945000Y-15683714D01*
X4945000Y-15683714D02*
X4964048Y-15674190D01*
X4964048Y-15674190D02*
X4992619Y-15674190D01*
X4992619Y-15674190D02*
X5011667Y-15683714D01*
X5011667Y-15683714D02*
X5021191Y-15702762D01*
X5021191Y-15702762D02*
X5021191Y-15807524D01*
X5116429Y-15807524D02*
X5116429Y-15674190D01*
X5116429Y-15693238D02*
X5125952Y-15683714D01*
X5125952Y-15683714D02*
X5145000Y-15674190D01*
X5145000Y-15674190D02*
X5173572Y-15674190D01*
X5173572Y-15674190D02*
X5192619Y-15683714D01*
X5192619Y-15683714D02*
X5202143Y-15702762D01*
X5202143Y-15702762D02*
X5202143Y-15807524D01*
X5202143Y-15702762D02*
X5211667Y-15683714D01*
X5211667Y-15683714D02*
X5230714Y-15674190D01*
X5230714Y-15674190D02*
X5259286Y-15674190D01*
X5259286Y-15674190D02*
X5278333Y-15683714D01*
X5278333Y-15683714D02*
X5287857Y-15702762D01*
X5287857Y-15702762D02*
X5287857Y-15807524D01*
X5678333Y-15598000D02*
X5506905Y-15855143D01*
X5935476Y-15607524D02*
X5954524Y-15607524D01*
X5954524Y-15607524D02*
X5973572Y-15617048D01*
X5973572Y-15617048D02*
X5983095Y-15626571D01*
X5983095Y-15626571D02*
X5992619Y-15645619D01*
X5992619Y-15645619D02*
X6002143Y-15683714D01*
X6002143Y-15683714D02*
X6002143Y-15731333D01*
X6002143Y-15731333D02*
X5992619Y-15769428D01*
X5992619Y-15769428D02*
X5983095Y-15788476D01*
X5983095Y-15788476D02*
X5973572Y-15798000D01*
X5973572Y-15798000D02*
X5954524Y-15807524D01*
X5954524Y-15807524D02*
X5935476Y-15807524D01*
X5935476Y-15807524D02*
X5916429Y-15798000D01*
X5916429Y-15798000D02*
X5906905Y-15788476D01*
X5906905Y-15788476D02*
X5897381Y-15769428D01*
X5897381Y-15769428D02*
X5887857Y-15731333D01*
X5887857Y-15731333D02*
X5887857Y-15683714D01*
X5887857Y-15683714D02*
X5897381Y-15645619D01*
X5897381Y-15645619D02*
X5906905Y-15626571D01*
X5906905Y-15626571D02*
X5916429Y-15617048D01*
X5916429Y-15617048D02*
X5935476Y-15607524D01*
X6087857Y-15788476D02*
X6097381Y-15798000D01*
X6097381Y-15798000D02*
X6087857Y-15807524D01*
X6087857Y-15807524D02*
X6078333Y-15798000D01*
X6078333Y-15798000D02*
X6087857Y-15788476D01*
X6087857Y-15788476D02*
X6087857Y-15807524D01*
X6221191Y-15607524D02*
X6240238Y-15607524D01*
X6240238Y-15607524D02*
X6259286Y-15617048D01*
X6259286Y-15617048D02*
X6268810Y-15626571D01*
X6268810Y-15626571D02*
X6278333Y-15645619D01*
X6278333Y-15645619D02*
X6287857Y-15683714D01*
X6287857Y-15683714D02*
X6287857Y-15731333D01*
X6287857Y-15731333D02*
X6278333Y-15769428D01*
X6278333Y-15769428D02*
X6268810Y-15788476D01*
X6268810Y-15788476D02*
X6259286Y-15798000D01*
X6259286Y-15798000D02*
X6240238Y-15807524D01*
X6240238Y-15807524D02*
X6221191Y-15807524D01*
X6221191Y-15807524D02*
X6202143Y-15798000D01*
X6202143Y-15798000D02*
X6192619Y-15788476D01*
X6192619Y-15788476D02*
X6183095Y-15769428D01*
X6183095Y-15769428D02*
X6173572Y-15731333D01*
X6173572Y-15731333D02*
X6173572Y-15683714D01*
X6173572Y-15683714D02*
X6183095Y-15645619D01*
X6183095Y-15645619D02*
X6192619Y-15626571D01*
X6192619Y-15626571D02*
X6202143Y-15617048D01*
X6202143Y-15617048D02*
X6221191Y-15607524D01*
X6459286Y-15674190D02*
X6459286Y-15807524D01*
X6411667Y-15598000D02*
X6364048Y-15740857D01*
X6364048Y-15740857D02*
X6487857Y-15740857D01*
X6602143Y-15607524D02*
X6621191Y-15607524D01*
X6621191Y-15607524D02*
X6640238Y-15617048D01*
X6640238Y-15617048D02*
X6649762Y-15626571D01*
X6649762Y-15626571D02*
X6659286Y-15645619D01*
X6659286Y-15645619D02*
X6668810Y-15683714D01*
X6668810Y-15683714D02*
X6668810Y-15731333D01*
X6668810Y-15731333D02*
X6659286Y-15769428D01*
X6659286Y-15769428D02*
X6649762Y-15788476D01*
X6649762Y-15788476D02*
X6640238Y-15798000D01*
X6640238Y-15798000D02*
X6621191Y-15807524D01*
X6621191Y-15807524D02*
X6602143Y-15807524D01*
X6602143Y-15807524D02*
X6583095Y-15798000D01*
X6583095Y-15798000D02*
X6573572Y-15788476D01*
X6573572Y-15788476D02*
X6564048Y-15769428D01*
X6564048Y-15769428D02*
X6554524Y-15731333D01*
X6554524Y-15731333D02*
X6554524Y-15683714D01*
X6554524Y-15683714D02*
X6564048Y-15645619D01*
X6564048Y-15645619D02*
X6573572Y-15626571D01*
X6573572Y-15626571D02*
X6583095Y-15617048D01*
X6583095Y-15617048D02*
X6602143Y-15607524D01*
X6745000Y-15626571D02*
X6754524Y-15617048D01*
X6754524Y-15617048D02*
X6773572Y-15607524D01*
X6773572Y-15607524D02*
X6821191Y-15607524D01*
X6821191Y-15607524D02*
X6840238Y-15617048D01*
X6840238Y-15617048D02*
X6849762Y-15626571D01*
X6849762Y-15626571D02*
X6859286Y-15645619D01*
X6859286Y-15645619D02*
X6859286Y-15664667D01*
X6859286Y-15664667D02*
X6849762Y-15693238D01*
X6849762Y-15693238D02*
X6735476Y-15807524D01*
X6735476Y-15807524D02*
X6859286Y-15807524D01*
X6935476Y-15607524D02*
X6935476Y-15645619D01*
X7011667Y-15607524D02*
X7011667Y-15645619D01*
X7306905Y-15883714D02*
X7297381Y-15874190D01*
X7297381Y-15874190D02*
X7278334Y-15845619D01*
X7278334Y-15845619D02*
X7268810Y-15826571D01*
X7268810Y-15826571D02*
X7259286Y-15798000D01*
X7259286Y-15798000D02*
X7249762Y-15750381D01*
X7249762Y-15750381D02*
X7249762Y-15712286D01*
X7249762Y-15712286D02*
X7259286Y-15664667D01*
X7259286Y-15664667D02*
X7268810Y-15636095D01*
X7268810Y-15636095D02*
X7278334Y-15617048D01*
X7278334Y-15617048D02*
X7297381Y-15588476D01*
X7297381Y-15588476D02*
X7306905Y-15578952D01*
X7468810Y-15674190D02*
X7468810Y-15807524D01*
X7421191Y-15598000D02*
X7373572Y-15740857D01*
X7373572Y-15740857D02*
X7497381Y-15740857D01*
X7554524Y-15607524D02*
X7678334Y-15607524D01*
X7678334Y-15607524D02*
X7611667Y-15683714D01*
X7611667Y-15683714D02*
X7640238Y-15683714D01*
X7640238Y-15683714D02*
X7659286Y-15693238D01*
X7659286Y-15693238D02*
X7668810Y-15702762D01*
X7668810Y-15702762D02*
X7678334Y-15721809D01*
X7678334Y-15721809D02*
X7678334Y-15769428D01*
X7678334Y-15769428D02*
X7668810Y-15788476D01*
X7668810Y-15788476D02*
X7659286Y-15798000D01*
X7659286Y-15798000D02*
X7640238Y-15807524D01*
X7640238Y-15807524D02*
X7583095Y-15807524D01*
X7583095Y-15807524D02*
X7564048Y-15798000D01*
X7564048Y-15798000D02*
X7554524Y-15788476D01*
X7916429Y-15807524D02*
X7916429Y-15607524D01*
X8002143Y-15807524D02*
X8002143Y-15702762D01*
X8002143Y-15702762D02*
X7992619Y-15683714D01*
X7992619Y-15683714D02*
X7973572Y-15674190D01*
X7973572Y-15674190D02*
X7945000Y-15674190D01*
X7945000Y-15674190D02*
X7925953Y-15683714D01*
X7925953Y-15683714D02*
X7916429Y-15693238D01*
X8125953Y-15807524D02*
X8106905Y-15798000D01*
X8106905Y-15798000D02*
X8097381Y-15788476D01*
X8097381Y-15788476D02*
X8087857Y-15769428D01*
X8087857Y-15769428D02*
X8087857Y-15712286D01*
X8087857Y-15712286D02*
X8097381Y-15693238D01*
X8097381Y-15693238D02*
X8106905Y-15683714D01*
X8106905Y-15683714D02*
X8125953Y-15674190D01*
X8125953Y-15674190D02*
X8154524Y-15674190D01*
X8154524Y-15674190D02*
X8173572Y-15683714D01*
X8173572Y-15683714D02*
X8183096Y-15693238D01*
X8183096Y-15693238D02*
X8192619Y-15712286D01*
X8192619Y-15712286D02*
X8192619Y-15769428D01*
X8192619Y-15769428D02*
X8183096Y-15788476D01*
X8183096Y-15788476D02*
X8173572Y-15798000D01*
X8173572Y-15798000D02*
X8154524Y-15807524D01*
X8154524Y-15807524D02*
X8125953Y-15807524D01*
X8306905Y-15807524D02*
X8287857Y-15798000D01*
X8287857Y-15798000D02*
X8278334Y-15778952D01*
X8278334Y-15778952D02*
X8278334Y-15607524D01*
X8459286Y-15798000D02*
X8440239Y-15807524D01*
X8440239Y-15807524D02*
X8402143Y-15807524D01*
X8402143Y-15807524D02*
X8383096Y-15798000D01*
X8383096Y-15798000D02*
X8373572Y-15778952D01*
X8373572Y-15778952D02*
X8373572Y-15702762D01*
X8373572Y-15702762D02*
X8383096Y-15683714D01*
X8383096Y-15683714D02*
X8402143Y-15674190D01*
X8402143Y-15674190D02*
X8440239Y-15674190D01*
X8440239Y-15674190D02*
X8459286Y-15683714D01*
X8459286Y-15683714D02*
X8468810Y-15702762D01*
X8468810Y-15702762D02*
X8468810Y-15721809D01*
X8468810Y-15721809D02*
X8373572Y-15740857D01*
X8545000Y-15798000D02*
X8564048Y-15807524D01*
X8564048Y-15807524D02*
X8602143Y-15807524D01*
X8602143Y-15807524D02*
X8621191Y-15798000D01*
X8621191Y-15798000D02*
X8630715Y-15778952D01*
X8630715Y-15778952D02*
X8630715Y-15769428D01*
X8630715Y-15769428D02*
X8621191Y-15750381D01*
X8621191Y-15750381D02*
X8602143Y-15740857D01*
X8602143Y-15740857D02*
X8573572Y-15740857D01*
X8573572Y-15740857D02*
X8554524Y-15731333D01*
X8554524Y-15731333D02*
X8545000Y-15712286D01*
X8545000Y-15712286D02*
X8545000Y-15702762D01*
X8545000Y-15702762D02*
X8554524Y-15683714D01*
X8554524Y-15683714D02*
X8573572Y-15674190D01*
X8573572Y-15674190D02*
X8602143Y-15674190D01*
X8602143Y-15674190D02*
X8621191Y-15683714D01*
X8697381Y-15883714D02*
X8706905Y-15874190D01*
X8706905Y-15874190D02*
X8725953Y-15845619D01*
X8725953Y-15845619D02*
X8735477Y-15826571D01*
X8735477Y-15826571D02*
X8745000Y-15798000D01*
X8745000Y-15798000D02*
X8754524Y-15750381D01*
X8754524Y-15750381D02*
X8754524Y-15712286D01*
X8754524Y-15712286D02*
X8745000Y-15664667D01*
X8745000Y-15664667D02*
X8735477Y-15636095D01*
X8735477Y-15636095D02*
X8725953Y-15617048D01*
X8725953Y-15617048D02*
X8706905Y-15588476D01*
X8706905Y-15588476D02*
X8697381Y-15578952D01*
D17*
X3635000Y-15924000D02*
X3745000Y-16034000D01*
X3745000Y-15924000D02*
X3635000Y-16034000D01*
X3690000Y-15924000D02*
X3690000Y-16034000D01*
X3635000Y-15979000D02*
X3745000Y-15979000D01*
D11*
X4097381Y-16071524D02*
X3983095Y-16071524D01*
X4040238Y-16071524D02*
X4040238Y-15871524D01*
X4040238Y-15871524D02*
X4021190Y-15900095D01*
X4021190Y-15900095D02*
X4002143Y-15919143D01*
X4002143Y-15919143D02*
X3983095Y-15928667D01*
X4183095Y-16052476D02*
X4192619Y-16062000D01*
X4192619Y-16062000D02*
X4183095Y-16071524D01*
X4183095Y-16071524D02*
X4173571Y-16062000D01*
X4173571Y-16062000D02*
X4183095Y-16052476D01*
X4183095Y-16052476D02*
X4183095Y-16071524D01*
X4383095Y-16071524D02*
X4268810Y-16071524D01*
X4325952Y-16071524D02*
X4325952Y-15871524D01*
X4325952Y-15871524D02*
X4306905Y-15900095D01*
X4306905Y-15900095D02*
X4287857Y-15919143D01*
X4287857Y-15919143D02*
X4268810Y-15928667D01*
X4506905Y-15871524D02*
X4525952Y-15871524D01*
X4525952Y-15871524D02*
X4545000Y-15881048D01*
X4545000Y-15881048D02*
X4554524Y-15890571D01*
X4554524Y-15890571D02*
X4564048Y-15909619D01*
X4564048Y-15909619D02*
X4573571Y-15947714D01*
X4573571Y-15947714D02*
X4573571Y-15995333D01*
X4573571Y-15995333D02*
X4564048Y-16033428D01*
X4564048Y-16033428D02*
X4554524Y-16052476D01*
X4554524Y-16052476D02*
X4545000Y-16062000D01*
X4545000Y-16062000D02*
X4525952Y-16071524D01*
X4525952Y-16071524D02*
X4506905Y-16071524D01*
X4506905Y-16071524D02*
X4487857Y-16062000D01*
X4487857Y-16062000D02*
X4478333Y-16052476D01*
X4478333Y-16052476D02*
X4468810Y-16033428D01*
X4468810Y-16033428D02*
X4459286Y-15995333D01*
X4459286Y-15995333D02*
X4459286Y-15947714D01*
X4459286Y-15947714D02*
X4468810Y-15909619D01*
X4468810Y-15909619D02*
X4478333Y-15890571D01*
X4478333Y-15890571D02*
X4487857Y-15881048D01*
X4487857Y-15881048D02*
X4506905Y-15871524D01*
X4697381Y-15871524D02*
X4716429Y-15871524D01*
X4716429Y-15871524D02*
X4735476Y-15881048D01*
X4735476Y-15881048D02*
X4745000Y-15890571D01*
X4745000Y-15890571D02*
X4754524Y-15909619D01*
X4754524Y-15909619D02*
X4764048Y-15947714D01*
X4764048Y-15947714D02*
X4764048Y-15995333D01*
X4764048Y-15995333D02*
X4754524Y-16033428D01*
X4754524Y-16033428D02*
X4745000Y-16052476D01*
X4745000Y-16052476D02*
X4735476Y-16062000D01*
X4735476Y-16062000D02*
X4716429Y-16071524D01*
X4716429Y-16071524D02*
X4697381Y-16071524D01*
X4697381Y-16071524D02*
X4678333Y-16062000D01*
X4678333Y-16062000D02*
X4668810Y-16052476D01*
X4668810Y-16052476D02*
X4659286Y-16033428D01*
X4659286Y-16033428D02*
X4649762Y-15995333D01*
X4649762Y-15995333D02*
X4649762Y-15947714D01*
X4649762Y-15947714D02*
X4659286Y-15909619D01*
X4659286Y-15909619D02*
X4668810Y-15890571D01*
X4668810Y-15890571D02*
X4678333Y-15881048D01*
X4678333Y-15881048D02*
X4697381Y-15871524D01*
X4849762Y-16071524D02*
X4849762Y-15938190D01*
X4849762Y-15957238D02*
X4859286Y-15947714D01*
X4859286Y-15947714D02*
X4878333Y-15938190D01*
X4878333Y-15938190D02*
X4906905Y-15938190D01*
X4906905Y-15938190D02*
X4925952Y-15947714D01*
X4925952Y-15947714D02*
X4935476Y-15966762D01*
X4935476Y-15966762D02*
X4935476Y-16071524D01*
X4935476Y-15966762D02*
X4945000Y-15947714D01*
X4945000Y-15947714D02*
X4964048Y-15938190D01*
X4964048Y-15938190D02*
X4992619Y-15938190D01*
X4992619Y-15938190D02*
X5011667Y-15947714D01*
X5011667Y-15947714D02*
X5021191Y-15966762D01*
X5021191Y-15966762D02*
X5021191Y-16071524D01*
X5116429Y-16071524D02*
X5116429Y-15938190D01*
X5116429Y-15957238D02*
X5125952Y-15947714D01*
X5125952Y-15947714D02*
X5145000Y-15938190D01*
X5145000Y-15938190D02*
X5173572Y-15938190D01*
X5173572Y-15938190D02*
X5192619Y-15947714D01*
X5192619Y-15947714D02*
X5202143Y-15966762D01*
X5202143Y-15966762D02*
X5202143Y-16071524D01*
X5202143Y-15966762D02*
X5211667Y-15947714D01*
X5211667Y-15947714D02*
X5230714Y-15938190D01*
X5230714Y-15938190D02*
X5259286Y-15938190D01*
X5259286Y-15938190D02*
X5278333Y-15947714D01*
X5278333Y-15947714D02*
X5287857Y-15966762D01*
X5287857Y-15966762D02*
X5287857Y-16071524D01*
X5678333Y-15862000D02*
X5506905Y-16119143D01*
X5935476Y-15871524D02*
X5954524Y-15871524D01*
X5954524Y-15871524D02*
X5973572Y-15881048D01*
X5973572Y-15881048D02*
X5983095Y-15890571D01*
X5983095Y-15890571D02*
X5992619Y-15909619D01*
X5992619Y-15909619D02*
X6002143Y-15947714D01*
X6002143Y-15947714D02*
X6002143Y-15995333D01*
X6002143Y-15995333D02*
X5992619Y-16033428D01*
X5992619Y-16033428D02*
X5983095Y-16052476D01*
X5983095Y-16052476D02*
X5973572Y-16062000D01*
X5973572Y-16062000D02*
X5954524Y-16071524D01*
X5954524Y-16071524D02*
X5935476Y-16071524D01*
X5935476Y-16071524D02*
X5916429Y-16062000D01*
X5916429Y-16062000D02*
X5906905Y-16052476D01*
X5906905Y-16052476D02*
X5897381Y-16033428D01*
X5897381Y-16033428D02*
X5887857Y-15995333D01*
X5887857Y-15995333D02*
X5887857Y-15947714D01*
X5887857Y-15947714D02*
X5897381Y-15909619D01*
X5897381Y-15909619D02*
X5906905Y-15890571D01*
X5906905Y-15890571D02*
X5916429Y-15881048D01*
X5916429Y-15881048D02*
X5935476Y-15871524D01*
X6087857Y-16052476D02*
X6097381Y-16062000D01*
X6097381Y-16062000D02*
X6087857Y-16071524D01*
X6087857Y-16071524D02*
X6078333Y-16062000D01*
X6078333Y-16062000D02*
X6087857Y-16052476D01*
X6087857Y-16052476D02*
X6087857Y-16071524D01*
X6221191Y-15871524D02*
X6240238Y-15871524D01*
X6240238Y-15871524D02*
X6259286Y-15881048D01*
X6259286Y-15881048D02*
X6268810Y-15890571D01*
X6268810Y-15890571D02*
X6278333Y-15909619D01*
X6278333Y-15909619D02*
X6287857Y-15947714D01*
X6287857Y-15947714D02*
X6287857Y-15995333D01*
X6287857Y-15995333D02*
X6278333Y-16033428D01*
X6278333Y-16033428D02*
X6268810Y-16052476D01*
X6268810Y-16052476D02*
X6259286Y-16062000D01*
X6259286Y-16062000D02*
X6240238Y-16071524D01*
X6240238Y-16071524D02*
X6221191Y-16071524D01*
X6221191Y-16071524D02*
X6202143Y-16062000D01*
X6202143Y-16062000D02*
X6192619Y-16052476D01*
X6192619Y-16052476D02*
X6183095Y-16033428D01*
X6183095Y-16033428D02*
X6173572Y-15995333D01*
X6173572Y-15995333D02*
X6173572Y-15947714D01*
X6173572Y-15947714D02*
X6183095Y-15909619D01*
X6183095Y-15909619D02*
X6192619Y-15890571D01*
X6192619Y-15890571D02*
X6202143Y-15881048D01*
X6202143Y-15881048D02*
X6221191Y-15871524D01*
X6459286Y-15938190D02*
X6459286Y-16071524D01*
X6411667Y-15862000D02*
X6364048Y-16004857D01*
X6364048Y-16004857D02*
X6487857Y-16004857D01*
X6545000Y-15871524D02*
X6668810Y-15871524D01*
X6668810Y-15871524D02*
X6602143Y-15947714D01*
X6602143Y-15947714D02*
X6630714Y-15947714D01*
X6630714Y-15947714D02*
X6649762Y-15957238D01*
X6649762Y-15957238D02*
X6659286Y-15966762D01*
X6659286Y-15966762D02*
X6668810Y-15985809D01*
X6668810Y-15985809D02*
X6668810Y-16033428D01*
X6668810Y-16033428D02*
X6659286Y-16052476D01*
X6659286Y-16052476D02*
X6649762Y-16062000D01*
X6649762Y-16062000D02*
X6630714Y-16071524D01*
X6630714Y-16071524D02*
X6573572Y-16071524D01*
X6573572Y-16071524D02*
X6554524Y-16062000D01*
X6554524Y-16062000D02*
X6545000Y-16052476D01*
X6735476Y-15871524D02*
X6859286Y-15871524D01*
X6859286Y-15871524D02*
X6792619Y-15947714D01*
X6792619Y-15947714D02*
X6821191Y-15947714D01*
X6821191Y-15947714D02*
X6840238Y-15957238D01*
X6840238Y-15957238D02*
X6849762Y-15966762D01*
X6849762Y-15966762D02*
X6859286Y-15985809D01*
X6859286Y-15985809D02*
X6859286Y-16033428D01*
X6859286Y-16033428D02*
X6849762Y-16052476D01*
X6849762Y-16052476D02*
X6840238Y-16062000D01*
X6840238Y-16062000D02*
X6821191Y-16071524D01*
X6821191Y-16071524D02*
X6764048Y-16071524D01*
X6764048Y-16071524D02*
X6745000Y-16062000D01*
X6745000Y-16062000D02*
X6735476Y-16052476D01*
X6935476Y-15871524D02*
X6935476Y-15909619D01*
X7011667Y-15871524D02*
X7011667Y-15909619D01*
X7306905Y-16147714D02*
X7297381Y-16138190D01*
X7297381Y-16138190D02*
X7278334Y-16109619D01*
X7278334Y-16109619D02*
X7268810Y-16090571D01*
X7268810Y-16090571D02*
X7259286Y-16062000D01*
X7259286Y-16062000D02*
X7249762Y-16014381D01*
X7249762Y-16014381D02*
X7249762Y-15976286D01*
X7249762Y-15976286D02*
X7259286Y-15928667D01*
X7259286Y-15928667D02*
X7268810Y-15900095D01*
X7268810Y-15900095D02*
X7278334Y-15881048D01*
X7278334Y-15881048D02*
X7297381Y-15852476D01*
X7297381Y-15852476D02*
X7306905Y-15842952D01*
X7478334Y-15871524D02*
X7383095Y-15871524D01*
X7383095Y-15871524D02*
X7373572Y-15966762D01*
X7373572Y-15966762D02*
X7383095Y-15957238D01*
X7383095Y-15957238D02*
X7402143Y-15947714D01*
X7402143Y-15947714D02*
X7449762Y-15947714D01*
X7449762Y-15947714D02*
X7468810Y-15957238D01*
X7468810Y-15957238D02*
X7478334Y-15966762D01*
X7478334Y-15966762D02*
X7487857Y-15985809D01*
X7487857Y-15985809D02*
X7487857Y-16033428D01*
X7487857Y-16033428D02*
X7478334Y-16052476D01*
X7478334Y-16052476D02*
X7468810Y-16062000D01*
X7468810Y-16062000D02*
X7449762Y-16071524D01*
X7449762Y-16071524D02*
X7402143Y-16071524D01*
X7402143Y-16071524D02*
X7383095Y-16062000D01*
X7383095Y-16062000D02*
X7373572Y-16052476D01*
X7725953Y-16071524D02*
X7725953Y-15871524D01*
X7811667Y-16071524D02*
X7811667Y-15966762D01*
X7811667Y-15966762D02*
X7802143Y-15947714D01*
X7802143Y-15947714D02*
X7783096Y-15938190D01*
X7783096Y-15938190D02*
X7754524Y-15938190D01*
X7754524Y-15938190D02*
X7735476Y-15947714D01*
X7735476Y-15947714D02*
X7725953Y-15957238D01*
X7935476Y-16071524D02*
X7916429Y-16062000D01*
X7916429Y-16062000D02*
X7906905Y-16052476D01*
X7906905Y-16052476D02*
X7897381Y-16033428D01*
X7897381Y-16033428D02*
X7897381Y-15976286D01*
X7897381Y-15976286D02*
X7906905Y-15957238D01*
X7906905Y-15957238D02*
X7916429Y-15947714D01*
X7916429Y-15947714D02*
X7935476Y-15938190D01*
X7935476Y-15938190D02*
X7964048Y-15938190D01*
X7964048Y-15938190D02*
X7983096Y-15947714D01*
X7983096Y-15947714D02*
X7992619Y-15957238D01*
X7992619Y-15957238D02*
X8002143Y-15976286D01*
X8002143Y-15976286D02*
X8002143Y-16033428D01*
X8002143Y-16033428D02*
X7992619Y-16052476D01*
X7992619Y-16052476D02*
X7983096Y-16062000D01*
X7983096Y-16062000D02*
X7964048Y-16071524D01*
X7964048Y-16071524D02*
X7935476Y-16071524D01*
X8116429Y-16071524D02*
X8097381Y-16062000D01*
X8097381Y-16062000D02*
X8087857Y-16042952D01*
X8087857Y-16042952D02*
X8087857Y-15871524D01*
X8268810Y-16062000D02*
X8249762Y-16071524D01*
X8249762Y-16071524D02*
X8211667Y-16071524D01*
X8211667Y-16071524D02*
X8192619Y-16062000D01*
X8192619Y-16062000D02*
X8183096Y-16042952D01*
X8183096Y-16042952D02*
X8183096Y-15966762D01*
X8183096Y-15966762D02*
X8192619Y-15947714D01*
X8192619Y-15947714D02*
X8211667Y-15938190D01*
X8211667Y-15938190D02*
X8249762Y-15938190D01*
X8249762Y-15938190D02*
X8268810Y-15947714D01*
X8268810Y-15947714D02*
X8278334Y-15966762D01*
X8278334Y-15966762D02*
X8278334Y-15985809D01*
X8278334Y-15985809D02*
X8183096Y-16004857D01*
X8354524Y-16062000D02*
X8373572Y-16071524D01*
X8373572Y-16071524D02*
X8411667Y-16071524D01*
X8411667Y-16071524D02*
X8430715Y-16062000D01*
X8430715Y-16062000D02*
X8440239Y-16042952D01*
X8440239Y-16042952D02*
X8440239Y-16033428D01*
X8440239Y-16033428D02*
X8430715Y-16014381D01*
X8430715Y-16014381D02*
X8411667Y-16004857D01*
X8411667Y-16004857D02*
X8383096Y-16004857D01*
X8383096Y-16004857D02*
X8364048Y-15995333D01*
X8364048Y-15995333D02*
X8354524Y-15976286D01*
X8354524Y-15976286D02*
X8354524Y-15966762D01*
X8354524Y-15966762D02*
X8364048Y-15947714D01*
X8364048Y-15947714D02*
X8383096Y-15938190D01*
X8383096Y-15938190D02*
X8411667Y-15938190D01*
X8411667Y-15938190D02*
X8430715Y-15947714D01*
X8506905Y-16147714D02*
X8516429Y-16138190D01*
X8516429Y-16138190D02*
X8535477Y-16109619D01*
X8535477Y-16109619D02*
X8545000Y-16090571D01*
X8545000Y-16090571D02*
X8554524Y-16062000D01*
X8554524Y-16062000D02*
X8564048Y-16014381D01*
X8564048Y-16014381D02*
X8564048Y-15976286D01*
X8564048Y-15976286D02*
X8554524Y-15928667D01*
X8554524Y-15928667D02*
X8545000Y-15900095D01*
X8545000Y-15900095D02*
X8535477Y-15881048D01*
X8535477Y-15881048D02*
X8516429Y-15852476D01*
X8516429Y-15852476D02*
X8506905Y-15842952D01*
X3545000Y-16143000D02*
X3745000Y-16343000D01*
X3745000Y-16143000D02*
X3545000Y-16343000D01*
X3715711Y-16313711D02*
X3715711Y-16172289D01*
X3574289Y-16172289D01*
X3574289Y-16313711D01*
X3715711Y-16313711D01*
X3973571Y-16135524D02*
X4097381Y-16135524D01*
X4097381Y-16135524D02*
X4030714Y-16211714D01*
X4030714Y-16211714D02*
X4059286Y-16211714D01*
X4059286Y-16211714D02*
X4078333Y-16221238D01*
X4078333Y-16221238D02*
X4087857Y-16230762D01*
X4087857Y-16230762D02*
X4097381Y-16249809D01*
X4097381Y-16249809D02*
X4097381Y-16297428D01*
X4097381Y-16297428D02*
X4087857Y-16316476D01*
X4087857Y-16316476D02*
X4078333Y-16326000D01*
X4078333Y-16326000D02*
X4059286Y-16335524D01*
X4059286Y-16335524D02*
X4002143Y-16335524D01*
X4002143Y-16335524D02*
X3983095Y-16326000D01*
X3983095Y-16326000D02*
X3973571Y-16316476D01*
X4183095Y-16316476D02*
X4192619Y-16326000D01*
X4192619Y-16326000D02*
X4183095Y-16335524D01*
X4183095Y-16335524D02*
X4173571Y-16326000D01*
X4173571Y-16326000D02*
X4183095Y-16316476D01*
X4183095Y-16316476D02*
X4183095Y-16335524D01*
X4316429Y-16135524D02*
X4335476Y-16135524D01*
X4335476Y-16135524D02*
X4354524Y-16145048D01*
X4354524Y-16145048D02*
X4364048Y-16154571D01*
X4364048Y-16154571D02*
X4373571Y-16173619D01*
X4373571Y-16173619D02*
X4383095Y-16211714D01*
X4383095Y-16211714D02*
X4383095Y-16259333D01*
X4383095Y-16259333D02*
X4373571Y-16297428D01*
X4373571Y-16297428D02*
X4364048Y-16316476D01*
X4364048Y-16316476D02*
X4354524Y-16326000D01*
X4354524Y-16326000D02*
X4335476Y-16335524D01*
X4335476Y-16335524D02*
X4316429Y-16335524D01*
X4316429Y-16335524D02*
X4297381Y-16326000D01*
X4297381Y-16326000D02*
X4287857Y-16316476D01*
X4287857Y-16316476D02*
X4278333Y-16297428D01*
X4278333Y-16297428D02*
X4268810Y-16259333D01*
X4268810Y-16259333D02*
X4268810Y-16211714D01*
X4268810Y-16211714D02*
X4278333Y-16173619D01*
X4278333Y-16173619D02*
X4287857Y-16154571D01*
X4287857Y-16154571D02*
X4297381Y-16145048D01*
X4297381Y-16145048D02*
X4316429Y-16135524D01*
X4506905Y-16135524D02*
X4525952Y-16135524D01*
X4525952Y-16135524D02*
X4545000Y-16145048D01*
X4545000Y-16145048D02*
X4554524Y-16154571D01*
X4554524Y-16154571D02*
X4564048Y-16173619D01*
X4564048Y-16173619D02*
X4573571Y-16211714D01*
X4573571Y-16211714D02*
X4573571Y-16259333D01*
X4573571Y-16259333D02*
X4564048Y-16297428D01*
X4564048Y-16297428D02*
X4554524Y-16316476D01*
X4554524Y-16316476D02*
X4545000Y-16326000D01*
X4545000Y-16326000D02*
X4525952Y-16335524D01*
X4525952Y-16335524D02*
X4506905Y-16335524D01*
X4506905Y-16335524D02*
X4487857Y-16326000D01*
X4487857Y-16326000D02*
X4478333Y-16316476D01*
X4478333Y-16316476D02*
X4468810Y-16297428D01*
X4468810Y-16297428D02*
X4459286Y-16259333D01*
X4459286Y-16259333D02*
X4459286Y-16211714D01*
X4459286Y-16211714D02*
X4468810Y-16173619D01*
X4468810Y-16173619D02*
X4478333Y-16154571D01*
X4478333Y-16154571D02*
X4487857Y-16145048D01*
X4487857Y-16145048D02*
X4506905Y-16135524D01*
X4697381Y-16135524D02*
X4716429Y-16135524D01*
X4716429Y-16135524D02*
X4735476Y-16145048D01*
X4735476Y-16145048D02*
X4745000Y-16154571D01*
X4745000Y-16154571D02*
X4754524Y-16173619D01*
X4754524Y-16173619D02*
X4764048Y-16211714D01*
X4764048Y-16211714D02*
X4764048Y-16259333D01*
X4764048Y-16259333D02*
X4754524Y-16297428D01*
X4754524Y-16297428D02*
X4745000Y-16316476D01*
X4745000Y-16316476D02*
X4735476Y-16326000D01*
X4735476Y-16326000D02*
X4716429Y-16335524D01*
X4716429Y-16335524D02*
X4697381Y-16335524D01*
X4697381Y-16335524D02*
X4678333Y-16326000D01*
X4678333Y-16326000D02*
X4668810Y-16316476D01*
X4668810Y-16316476D02*
X4659286Y-16297428D01*
X4659286Y-16297428D02*
X4649762Y-16259333D01*
X4649762Y-16259333D02*
X4649762Y-16211714D01*
X4649762Y-16211714D02*
X4659286Y-16173619D01*
X4659286Y-16173619D02*
X4668810Y-16154571D01*
X4668810Y-16154571D02*
X4678333Y-16145048D01*
X4678333Y-16145048D02*
X4697381Y-16135524D01*
X4849762Y-16335524D02*
X4849762Y-16202190D01*
X4849762Y-16221238D02*
X4859286Y-16211714D01*
X4859286Y-16211714D02*
X4878333Y-16202190D01*
X4878333Y-16202190D02*
X4906905Y-16202190D01*
X4906905Y-16202190D02*
X4925952Y-16211714D01*
X4925952Y-16211714D02*
X4935476Y-16230762D01*
X4935476Y-16230762D02*
X4935476Y-16335524D01*
X4935476Y-16230762D02*
X4945000Y-16211714D01*
X4945000Y-16211714D02*
X4964048Y-16202190D01*
X4964048Y-16202190D02*
X4992619Y-16202190D01*
X4992619Y-16202190D02*
X5011667Y-16211714D01*
X5011667Y-16211714D02*
X5021191Y-16230762D01*
X5021191Y-16230762D02*
X5021191Y-16335524D01*
X5116429Y-16335524D02*
X5116429Y-16202190D01*
X5116429Y-16221238D02*
X5125952Y-16211714D01*
X5125952Y-16211714D02*
X5145000Y-16202190D01*
X5145000Y-16202190D02*
X5173572Y-16202190D01*
X5173572Y-16202190D02*
X5192619Y-16211714D01*
X5192619Y-16211714D02*
X5202143Y-16230762D01*
X5202143Y-16230762D02*
X5202143Y-16335524D01*
X5202143Y-16230762D02*
X5211667Y-16211714D01*
X5211667Y-16211714D02*
X5230714Y-16202190D01*
X5230714Y-16202190D02*
X5259286Y-16202190D01*
X5259286Y-16202190D02*
X5278333Y-16211714D01*
X5278333Y-16211714D02*
X5287857Y-16230762D01*
X5287857Y-16230762D02*
X5287857Y-16335524D01*
X5678333Y-16126000D02*
X5506905Y-16383143D01*
X5935476Y-16135524D02*
X5954524Y-16135524D01*
X5954524Y-16135524D02*
X5973572Y-16145048D01*
X5973572Y-16145048D02*
X5983095Y-16154571D01*
X5983095Y-16154571D02*
X5992619Y-16173619D01*
X5992619Y-16173619D02*
X6002143Y-16211714D01*
X6002143Y-16211714D02*
X6002143Y-16259333D01*
X6002143Y-16259333D02*
X5992619Y-16297428D01*
X5992619Y-16297428D02*
X5983095Y-16316476D01*
X5983095Y-16316476D02*
X5973572Y-16326000D01*
X5973572Y-16326000D02*
X5954524Y-16335524D01*
X5954524Y-16335524D02*
X5935476Y-16335524D01*
X5935476Y-16335524D02*
X5916429Y-16326000D01*
X5916429Y-16326000D02*
X5906905Y-16316476D01*
X5906905Y-16316476D02*
X5897381Y-16297428D01*
X5897381Y-16297428D02*
X5887857Y-16259333D01*
X5887857Y-16259333D02*
X5887857Y-16211714D01*
X5887857Y-16211714D02*
X5897381Y-16173619D01*
X5897381Y-16173619D02*
X5906905Y-16154571D01*
X5906905Y-16154571D02*
X5916429Y-16145048D01*
X5916429Y-16145048D02*
X5935476Y-16135524D01*
X6087857Y-16316476D02*
X6097381Y-16326000D01*
X6097381Y-16326000D02*
X6087857Y-16335524D01*
X6087857Y-16335524D02*
X6078333Y-16326000D01*
X6078333Y-16326000D02*
X6087857Y-16316476D01*
X6087857Y-16316476D02*
X6087857Y-16335524D01*
X6287857Y-16335524D02*
X6173572Y-16335524D01*
X6230714Y-16335524D02*
X6230714Y-16135524D01*
X6230714Y-16135524D02*
X6211667Y-16164095D01*
X6211667Y-16164095D02*
X6192619Y-16183143D01*
X6192619Y-16183143D02*
X6173572Y-16192667D01*
X6478333Y-16335524D02*
X6364048Y-16335524D01*
X6421191Y-16335524D02*
X6421191Y-16135524D01*
X6421191Y-16135524D02*
X6402143Y-16164095D01*
X6402143Y-16164095D02*
X6383095Y-16183143D01*
X6383095Y-16183143D02*
X6364048Y-16192667D01*
X6592619Y-16221238D02*
X6573572Y-16211714D01*
X6573572Y-16211714D02*
X6564048Y-16202190D01*
X6564048Y-16202190D02*
X6554524Y-16183143D01*
X6554524Y-16183143D02*
X6554524Y-16173619D01*
X6554524Y-16173619D02*
X6564048Y-16154571D01*
X6564048Y-16154571D02*
X6573572Y-16145048D01*
X6573572Y-16145048D02*
X6592619Y-16135524D01*
X6592619Y-16135524D02*
X6630714Y-16135524D01*
X6630714Y-16135524D02*
X6649762Y-16145048D01*
X6649762Y-16145048D02*
X6659286Y-16154571D01*
X6659286Y-16154571D02*
X6668810Y-16173619D01*
X6668810Y-16173619D02*
X6668810Y-16183143D01*
X6668810Y-16183143D02*
X6659286Y-16202190D01*
X6659286Y-16202190D02*
X6649762Y-16211714D01*
X6649762Y-16211714D02*
X6630714Y-16221238D01*
X6630714Y-16221238D02*
X6592619Y-16221238D01*
X6592619Y-16221238D02*
X6573572Y-16230762D01*
X6573572Y-16230762D02*
X6564048Y-16240286D01*
X6564048Y-16240286D02*
X6554524Y-16259333D01*
X6554524Y-16259333D02*
X6554524Y-16297428D01*
X6554524Y-16297428D02*
X6564048Y-16316476D01*
X6564048Y-16316476D02*
X6573572Y-16326000D01*
X6573572Y-16326000D02*
X6592619Y-16335524D01*
X6592619Y-16335524D02*
X6630714Y-16335524D01*
X6630714Y-16335524D02*
X6649762Y-16326000D01*
X6649762Y-16326000D02*
X6659286Y-16316476D01*
X6659286Y-16316476D02*
X6668810Y-16297428D01*
X6668810Y-16297428D02*
X6668810Y-16259333D01*
X6668810Y-16259333D02*
X6659286Y-16240286D01*
X6659286Y-16240286D02*
X6649762Y-16230762D01*
X6649762Y-16230762D02*
X6630714Y-16221238D01*
X6859286Y-16335524D02*
X6745000Y-16335524D01*
X6802143Y-16335524D02*
X6802143Y-16135524D01*
X6802143Y-16135524D02*
X6783095Y-16164095D01*
X6783095Y-16164095D02*
X6764048Y-16183143D01*
X6764048Y-16183143D02*
X6745000Y-16192667D01*
X6935476Y-16135524D02*
X6935476Y-16173619D01*
X7011667Y-16135524D02*
X7011667Y-16173619D01*
X7306905Y-16411714D02*
X7297381Y-16402190D01*
X7297381Y-16402190D02*
X7278334Y-16373619D01*
X7278334Y-16373619D02*
X7268810Y-16354571D01*
X7268810Y-16354571D02*
X7259286Y-16326000D01*
X7259286Y-16326000D02*
X7249762Y-16278381D01*
X7249762Y-16278381D02*
X7249762Y-16240286D01*
X7249762Y-16240286D02*
X7259286Y-16192667D01*
X7259286Y-16192667D02*
X7268810Y-16164095D01*
X7268810Y-16164095D02*
X7278334Y-16145048D01*
X7278334Y-16145048D02*
X7297381Y-16116476D01*
X7297381Y-16116476D02*
X7306905Y-16106952D01*
X7478334Y-16135524D02*
X7383095Y-16135524D01*
X7383095Y-16135524D02*
X7373572Y-16230762D01*
X7373572Y-16230762D02*
X7383095Y-16221238D01*
X7383095Y-16221238D02*
X7402143Y-16211714D01*
X7402143Y-16211714D02*
X7449762Y-16211714D01*
X7449762Y-16211714D02*
X7468810Y-16221238D01*
X7468810Y-16221238D02*
X7478334Y-16230762D01*
X7478334Y-16230762D02*
X7487857Y-16249809D01*
X7487857Y-16249809D02*
X7487857Y-16297428D01*
X7487857Y-16297428D02*
X7478334Y-16316476D01*
X7478334Y-16316476D02*
X7468810Y-16326000D01*
X7468810Y-16326000D02*
X7449762Y-16335524D01*
X7449762Y-16335524D02*
X7402143Y-16335524D01*
X7402143Y-16335524D02*
X7383095Y-16326000D01*
X7383095Y-16326000D02*
X7373572Y-16316476D01*
X7725953Y-16335524D02*
X7725953Y-16135524D01*
X7811667Y-16335524D02*
X7811667Y-16230762D01*
X7811667Y-16230762D02*
X7802143Y-16211714D01*
X7802143Y-16211714D02*
X7783096Y-16202190D01*
X7783096Y-16202190D02*
X7754524Y-16202190D01*
X7754524Y-16202190D02*
X7735476Y-16211714D01*
X7735476Y-16211714D02*
X7725953Y-16221238D01*
X7935476Y-16335524D02*
X7916429Y-16326000D01*
X7916429Y-16326000D02*
X7906905Y-16316476D01*
X7906905Y-16316476D02*
X7897381Y-16297428D01*
X7897381Y-16297428D02*
X7897381Y-16240286D01*
X7897381Y-16240286D02*
X7906905Y-16221238D01*
X7906905Y-16221238D02*
X7916429Y-16211714D01*
X7916429Y-16211714D02*
X7935476Y-16202190D01*
X7935476Y-16202190D02*
X7964048Y-16202190D01*
X7964048Y-16202190D02*
X7983096Y-16211714D01*
X7983096Y-16211714D02*
X7992619Y-16221238D01*
X7992619Y-16221238D02*
X8002143Y-16240286D01*
X8002143Y-16240286D02*
X8002143Y-16297428D01*
X8002143Y-16297428D02*
X7992619Y-16316476D01*
X7992619Y-16316476D02*
X7983096Y-16326000D01*
X7983096Y-16326000D02*
X7964048Y-16335524D01*
X7964048Y-16335524D02*
X7935476Y-16335524D01*
X8116429Y-16335524D02*
X8097381Y-16326000D01*
X8097381Y-16326000D02*
X8087857Y-16306952D01*
X8087857Y-16306952D02*
X8087857Y-16135524D01*
X8268810Y-16326000D02*
X8249762Y-16335524D01*
X8249762Y-16335524D02*
X8211667Y-16335524D01*
X8211667Y-16335524D02*
X8192619Y-16326000D01*
X8192619Y-16326000D02*
X8183096Y-16306952D01*
X8183096Y-16306952D02*
X8183096Y-16230762D01*
X8183096Y-16230762D02*
X8192619Y-16211714D01*
X8192619Y-16211714D02*
X8211667Y-16202190D01*
X8211667Y-16202190D02*
X8249762Y-16202190D01*
X8249762Y-16202190D02*
X8268810Y-16211714D01*
X8268810Y-16211714D02*
X8278334Y-16230762D01*
X8278334Y-16230762D02*
X8278334Y-16249809D01*
X8278334Y-16249809D02*
X8183096Y-16268857D01*
X8354524Y-16326000D02*
X8373572Y-16335524D01*
X8373572Y-16335524D02*
X8411667Y-16335524D01*
X8411667Y-16335524D02*
X8430715Y-16326000D01*
X8430715Y-16326000D02*
X8440239Y-16306952D01*
X8440239Y-16306952D02*
X8440239Y-16297428D01*
X8440239Y-16297428D02*
X8430715Y-16278381D01*
X8430715Y-16278381D02*
X8411667Y-16268857D01*
X8411667Y-16268857D02*
X8383096Y-16268857D01*
X8383096Y-16268857D02*
X8364048Y-16259333D01*
X8364048Y-16259333D02*
X8354524Y-16240286D01*
X8354524Y-16240286D02*
X8354524Y-16230762D01*
X8354524Y-16230762D02*
X8364048Y-16211714D01*
X8364048Y-16211714D02*
X8383096Y-16202190D01*
X8383096Y-16202190D02*
X8411667Y-16202190D01*
X8411667Y-16202190D02*
X8430715Y-16211714D01*
X8506905Y-16411714D02*
X8516429Y-16402190D01*
X8516429Y-16402190D02*
X8535477Y-16373619D01*
X8535477Y-16373619D02*
X8545000Y-16354571D01*
X8545000Y-16354571D02*
X8554524Y-16326000D01*
X8554524Y-16326000D02*
X8564048Y-16278381D01*
X8564048Y-16278381D02*
X8564048Y-16240286D01*
X8564048Y-16240286D02*
X8554524Y-16192667D01*
X8554524Y-16192667D02*
X8545000Y-16164095D01*
X8545000Y-16164095D02*
X8535477Y-16145048D01*
X8535477Y-16145048D02*
X8516429Y-16116476D01*
X8516429Y-16116476D02*
X8506905Y-16106952D01*
M02*
