M48
; DRILL file {KiCad 7.0.2-0} date 2023 June 25, Sunday 21:33:45
; FORMAT={-:-/ absolute / metric / decimal}
; #@! TF.CreationDate,2023-06-25T21:33:45+02:00
; #@! TF.GenerationSoftware,Kicad,Pcbnew,7.0.2-0
; #@! TF.FileFunction,Plated,1,2,PTH
FMAT,2
METRIC
; #@! TA.AperFunction,Plated,PTH,ViaDrill
T1C0.400
; #@! TA.AperFunction,Plated,PTH,ComponentDrill
T2C0.700
; #@! TA.AperFunction,Plated,PTH,ComponentDrill
T3C0.800
; #@! TA.AperFunction,Plated,PTH,ComponentDrill
T4C0.900
; #@! TA.AperFunction,Plated,PTH,ComponentDrill
T5C1.000
; #@! TA.AperFunction,Plated,PTH,ComponentDrill
T6C1.020
; #@! TA.AperFunction,Plated,PTH,ComponentDrill
T7C1.100
; #@! TA.AperFunction,Plated,PTH,ComponentDrill
T8C3.000
%
G90
G05
T1
X51.308Y-88.519
X55.88Y-88.519
X58.293Y-108.585
X60.071Y-117.983
X63.373Y-117.983
X64.516Y-84.963
X67.818Y-115.951
X68.961Y-60.833
X69.088Y-49.403
X69.977Y-88.392
X71.501Y-60.833
X71.501Y-84.201
X71.628Y-49.403
X72.644Y-88.392
X74.295Y-108.839
X74.403Y-98.806
X76.327Y-98.806
X76.962Y-108.839
X81.28Y-115.824
X81.28Y-117.983
X85.979Y-71.864
X85.979Y-73.678
X91.694Y-45.593
X91.694Y-46.863
X94.361Y-45.593
X95.631Y-46.863
X97.409Y-113.411
X97.409Y-116.332
X98.425Y-100.33
X99.441Y-103.886
X107.569Y-99.441
X107.569Y-102.743
X115.189Y-130.937
X115.189Y-133.35
X118.872Y-58.42
X119.825Y-57.34
X121.793Y-57.404
X121.793Y-58.547
X131.318Y-40.05
X131.318Y-42.672
X136.144Y-40.005
X136.144Y-43.434
X137.198Y-40.005
X137.198Y-43.434
X141.598Y-43.072
X141.84Y-110.49
X142.349Y-43.811
X142.748Y-109.474
X144.399Y-40.277
X145.034Y-41.294
X145.034Y-109.474
X145.034Y-110.528
X151.879Y-39.276
X151.892Y-40.42
X151.9Y-41.474
X151.974Y-38.227
X152.019Y-37.084
X152.656Y-64.008
X154.686Y-39.281
X154.686Y-37.084
X154.686Y-75.673
X154.686Y-77.724
X154.686Y-40.334
X154.688Y-38.227
X154.706Y-64.008
X154.791Y-41.417
X157.988Y-112.268
X157.988Y-114.191
X158.242Y-131.191
X158.242Y-133.604
X166.339Y-54.819
X168.422Y-53.721
X176.147Y-104.158
X176.328Y-100.838
X177.292Y-118.999
X177.381Y-100.838
X177.382Y-104.158
X177.419Y-117.475
X177.839Y-61.722
X178.435Y-100.838
X178.587Y-104.158
X178.64Y-118.794
X178.689Y-121.412
X179.547Y-117.475
X179.832Y-122.637
X182.08Y-62.738
X182.082Y-60.659
X183.134Y-60.706
X183.134Y-62.738
X184.239Y-60.706
X184.239Y-62.738
X185.293Y-60.706
X185.293Y-62.738
X203.073Y-96.03
X203.078Y-90.043
X204.602Y-89.916
X204.602Y-96.03
X221.615Y-87.376
X221.615Y-91.948
X236.601Y-92.075
X236.728Y-88.011
X245.364Y-101.328
X245.364Y-104.158
X248.619Y-128.016
X249.936Y-88.011
X249.936Y-91.821
X260.604Y-104.158
X260.731Y-101.219
X267.811Y-88.265
X267.811Y-91.776
X274.32Y-84.836
X278.511Y-84.836
T2
X55.245Y-80.722
X55.245Y-83.262
X57.404Y-88.519
X59.944Y-88.519
X88.95Y-65.151
X91.49Y-65.151
X153.416Y-48.006
X155.956Y-48.006
T3
X46.355Y-102.489
X46.355Y-105.791
X49.911Y-126.873
X51.475Y-108.839
X53.975Y-102.489
X53.975Y-105.791
X53.975Y-108.839
X55.553Y-39.497
X55.553Y-42.799
X55.553Y-46.101
X55.553Y-49.403
X55.553Y-52.705
X55.553Y-58.928
X55.553Y-62.23
X55.553Y-65.532
X57.277Y-92.71
X57.277Y-96.139
X57.277Y-110.744
X57.277Y-114.046
X57.292Y-99.431
X57.292Y-101.971
X57.292Y-104.511
X57.292Y-107.051
X57.531Y-126.873
X58.093Y-70.21
X60.633Y-70.21
X61.254Y-55.833
X63.173Y-39.497
X63.173Y-42.799
X63.173Y-46.101
X63.173Y-49.403
X63.173Y-52.705
X63.173Y-58.928
X63.173Y-62.23
X63.173Y-65.532
X63.173Y-70.21
X63.754Y-55.833
X64.897Y-92.71
X64.897Y-96.139
X64.897Y-110.744
X64.897Y-114.046
X64.912Y-99.431
X64.912Y-101.971
X64.912Y-104.511
X64.912Y-107.051
X66.602Y-68.199
X66.675Y-48.233
X66.675Y-50.773
X66.675Y-53.313
X66.675Y-55.853
X66.675Y-58.393
X66.675Y-60.933
X66.675Y-63.473
X66.729Y-38.902
X66.729Y-43.902
X67.691Y-96.266
X67.711Y-99.441
X67.818Y-103.886
X67.818Y-107.188
X67.818Y-110.49
X70.211Y-99.441
X70.231Y-75.692
X70.231Y-79.121
X70.231Y-82.423
X70.231Y-86.487
X70.231Y-91.715
X70.358Y-114.321
X72.771Y-86.487
X72.771Y-91.715
X72.898Y-114.321
X74.222Y-68.199
X74.295Y-48.233
X74.295Y-50.773
X74.295Y-53.313
X74.295Y-55.853
X74.295Y-58.393
X74.295Y-60.933
X74.295Y-63.473
X75.311Y-86.487
X75.311Y-91.715
X75.311Y-96.266
X75.438Y-103.886
X75.438Y-107.188
X75.438Y-110.49
X75.438Y-114.321
X77.397Y-55.793
X77.397Y-58.293
X77.724Y-39.243
X77.724Y-41.743
X77.851Y-75.692
X77.851Y-79.121
X77.851Y-82.423
X78.105Y-86.508
X78.105Y-91.588
X79.629Y-97.282
X79.629Y-99.822
X79.629Y-102.362
X80.645Y-86.508
X80.645Y-91.588
X81.915Y-48.895
X81.915Y-56.515
X83.185Y-86.508
X83.185Y-91.588
X85.344Y-48.895
X85.344Y-56.515
X85.725Y-59.075
X85.725Y-61.575
X89.027Y-60.579
X89.169Y-49.393
X89.169Y-51.933
X89.169Y-54.473
X89.169Y-57.013
X94.742Y-74.803
X94.742Y-82.423
X96.647Y-60.579
X96.789Y-49.393
X96.789Y-51.933
X96.789Y-54.473
X96.789Y-57.013
X97.155Y-68.834
X98.283Y-75.321
X98.283Y-77.861
X98.283Y-80.401
X98.283Y-82.941
X98.298Y-86.487
X98.933Y-122.428
X98.933Y-125.73
X99.949Y-48.935
X99.949Y-51.435
X101.59Y-111.237
X101.59Y-118.857
X101.62Y-108.077
X104.12Y-108.077
X104.13Y-111.237
X104.13Y-118.857
X104.394Y-49.276
X104.394Y-51.816
X104.394Y-54.356
X104.394Y-56.896
X104.775Y-68.834
X105.903Y-75.321
X105.903Y-77.861
X105.903Y-80.401
X105.903Y-82.941
X105.918Y-86.487
X106.553Y-122.428
X106.553Y-125.73
X106.67Y-111.237
X106.67Y-118.857
X108.839Y-39.331
X108.839Y-41.831
X109.21Y-111.237
X109.21Y-118.857
X109.22Y-122.174
X109.728Y-74.803
X109.728Y-82.423
X111.72Y-122.174
X112.014Y-49.276
X112.014Y-51.816
X112.014Y-54.356
X112.014Y-56.896
X113.411Y-74.803
X113.411Y-82.423
X122.936Y-113.538
X129.667Y-125.476
X129.667Y-128.778
X130.556Y-113.538
X137.287Y-125.476
X137.287Y-128.778
X146.304Y-117.261
X146.304Y-122.261
X150.241Y-114.808
X150.241Y-122.428
X152.908Y-127.762
X152.908Y-131.191
X153.416Y-116.352
X153.416Y-118.852
X153.416Y-122.067
X153.416Y-124.567
X155.194Y-109.982
X155.194Y-113.284
X157.988Y-116.713
X157.988Y-124.333
X159.532Y-51.562
X160.528Y-116.713
X160.528Y-124.333
X160.528Y-127.762
X160.528Y-131.191
X162.032Y-51.562
X162.088Y-56.604
X162.088Y-59.144
X162.088Y-61.684
X162.088Y-64.224
X162.088Y-66.764
X162.088Y-69.304
X162.088Y-71.844
X162.088Y-74.384
X162.814Y-109.982
X162.814Y-113.284
X163.068Y-116.713
X163.068Y-124.333
X163.068Y-128.016
X164.398Y-51.562
X165.568Y-128.016
X165.608Y-113.03
X165.608Y-116.713
X165.608Y-124.333
X166.898Y-51.562
X168.108Y-113.03
X168.148Y-116.713
X168.148Y-124.333
X168.148Y-127.762
X168.148Y-130.81
X169.708Y-56.604
X169.708Y-59.144
X169.708Y-61.684
X169.708Y-64.224
X169.708Y-66.764
X169.708Y-69.304
X169.708Y-71.844
X169.708Y-74.384
X170.327Y-51.201
X170.327Y-53.701
X170.648Y-130.81
X170.688Y-116.713
X170.688Y-124.333
X170.708Y-110.236
X170.815Y-113.284
X172.72Y-50.292
X172.72Y-53.34
X172.974Y-44.069
X172.974Y-46.569
X173.208Y-110.236
X173.228Y-116.713
X173.228Y-124.333
X175.768Y-127.762
X178.435Y-113.284
X180.34Y-50.292
X180.34Y-53.34
X183.134Y-109.982
X183.134Y-117.602
X186.309Y-109.982
X186.309Y-117.602
X202.951Y-109.982
X202.951Y-117.602
X203.454Y-122.047
X203.454Y-129.667
X206.634Y-109.982
X206.634Y-117.602
X207.01Y-122.047
X207.01Y-129.667
X218.353Y-130.175
X218.353Y-133.477
X218.821Y-109.982
X218.821Y-117.602
X222.377Y-109.982
X222.377Y-117.602
X223.6Y-122.555
X225.973Y-130.175
X225.973Y-133.477
X226.1Y-122.555
X229.031Y-122.54
X229.031Y-130.16
X231.571Y-122.54
X231.571Y-130.16
X234.111Y-122.54
X234.111Y-130.16
X234.188Y-109.982
X234.188Y-117.602
X236.651Y-122.54
X236.651Y-130.16
X237.744Y-109.982
X237.744Y-117.602
X239.602Y-130.175
X242.102Y-130.175
X245.15Y-122.555
X245.15Y-130.175
X248.619Y-122.555
X250.444Y-109.982
X250.444Y-117.602
X253.619Y-122.555
X253.873Y-109.982
X253.873Y-117.602
X265.779Y-109.982
X265.779Y-117.602
X269.208Y-109.982
X269.208Y-117.602
T4
X47.366Y-115.189
X49.906Y-115.189
T5
X47.371Y-122.174
X48.935Y-94.441
X49.911Y-122.174
X49.965Y-39.497
X49.965Y-42.037
X49.965Y-44.577
X50.038Y-48.768
X50.038Y-51.308
X50.038Y-53.848
X51.435Y-99.441
X52.451Y-122.174
X53.935Y-94.441
X58.601Y-76.073
X58.674Y-82.931
X61.141Y-76.073
X61.214Y-82.931
X63.681Y-76.073
X63.754Y-82.931
X67.818Y-120.142
X78.486Y-107.315
X81.026Y-72.771
X81.534Y-77.724
X81.534Y-82.724
X81.915Y-60.325
X83.058Y-66.675
X86.026Y-70.271
X86.026Y-75.271
X86.534Y-80.224
X86.741Y-124.46
X88.011Y-39.37
X88.011Y-41.91
X89.281Y-124.46
X90.551Y-39.37
X90.551Y-41.91
X91.948Y-87.122
X92.202Y-98.425
X93.091Y-39.37
X93.091Y-41.91
X93.218Y-124.46
X94.488Y-87.122
X94.742Y-98.425
X95.631Y-39.37
X95.631Y-41.91
X95.758Y-124.46
X96.52Y-64.135
X97.282Y-98.425
X98.171Y-39.37
X98.171Y-41.91
X99.648Y-60.833
X99.822Y-98.425
X102.148Y-65.833
X102.362Y-98.425
X104.648Y-60.833
X104.902Y-98.425
X113.711Y-110.657
X113.711Y-115.657
X118.711Y-113.157
X119.634Y-43.561
X119.634Y-46.101
X119.634Y-48.641
X119.634Y-51.181
X124.079Y-120.396
X124.079Y-122.936
X124.079Y-125.476
X124.079Y-128.016
X124.079Y-130.556
X124.079Y-133.096
X135.128Y-110.998
X135.128Y-113.538
X135.128Y-116.078
X135.128Y-118.618
X135.128Y-121.158
X147.447Y-125.984
X147.447Y-128.524
X147.447Y-131.064
X149.86Y-110.744
X156.627Y-56.604
X156.627Y-59.144
X156.627Y-61.684
X156.627Y-64.224
X156.627Y-66.764
X156.627Y-69.304
X156.651Y-73.279
X156.651Y-75.819
X175.042Y-56.604
X175.042Y-59.144
X175.042Y-61.684
X175.042Y-64.224
X175.042Y-66.764
X175.042Y-69.304
X177.927Y-124.333
X181.483Y-133.223
X184.023Y-133.223
X186.563Y-133.223
X187.873Y-123.871
X189.103Y-133.223
X190.373Y-128.871
X191.643Y-133.223
X192.873Y-123.871
X193.484Y-87.503
X193.484Y-90.043
X193.484Y-92.583
X194.183Y-133.223
X195.366Y-123.871
X196.024Y-87.503
X196.024Y-90.043
X196.024Y-92.583
X196.024Y-97.155
X196.024Y-99.695
X196.024Y-102.235
X196.024Y-104.775
X196.024Y-107.315
X196.024Y-109.855
X197.866Y-128.871
X200.366Y-123.871
X208.915Y-87.503
X208.915Y-90.043
X208.915Y-92.583
X210.005Y-128.143
X211.455Y-87.503
X211.455Y-90.043
X211.455Y-92.583
X211.455Y-97.155
X211.455Y-99.695
X211.455Y-102.235
X211.455Y-104.775
X211.455Y-107.315
X211.455Y-109.855
X215.005Y-125.643
X215.005Y-130.643
X224.282Y-87.503
X224.282Y-90.043
X224.282Y-92.583
X226.787Y-97.155
X226.787Y-99.695
X226.787Y-102.235
X226.787Y-104.775
X226.787Y-107.315
X226.787Y-109.855
X226.822Y-87.503
X226.822Y-90.043
X226.822Y-92.583
X239.776Y-87.503
X239.776Y-90.043
X239.776Y-92.583
X242.316Y-87.503
X242.316Y-90.043
X242.316Y-92.583
X242.316Y-97.155
X242.316Y-99.695
X242.316Y-102.235
X242.316Y-104.775
X242.316Y-107.315
X242.316Y-109.855
X255.143Y-87.503
X255.143Y-90.043
X255.143Y-92.583
X257.683Y-87.503
X257.683Y-90.043
X257.683Y-92.583
X257.683Y-97.155
X257.683Y-99.695
X257.683Y-102.235
X257.683Y-104.775
X257.683Y-107.315
X257.683Y-109.855
X270.605Y-87.503
X270.605Y-90.043
X270.605Y-92.583
X273.145Y-87.503
X273.145Y-90.043
X273.145Y-92.583
X273.145Y-97.155
X273.145Y-99.695
X273.145Y-102.235
X273.145Y-104.775
X273.145Y-107.315
X273.145Y-109.855
T6
X128.397Y-43.561
X128.397Y-46.101
X128.397Y-48.641
X128.397Y-51.181
X128.397Y-53.721
X128.397Y-56.261
X128.397Y-58.801
X128.397Y-61.341
X128.397Y-63.881
X128.397Y-66.421
X128.397Y-68.961
X128.397Y-71.501
X128.397Y-74.041
X128.397Y-76.581
X128.397Y-79.121
X128.397Y-81.661
X128.397Y-84.201
X128.397Y-86.741
X128.397Y-89.281
X128.397Y-91.821
X134.747Y-91.591
X137.287Y-91.591
X139.827Y-91.591
X146.177Y-43.561
X146.177Y-46.101
X146.177Y-48.641
X146.177Y-51.181
X146.177Y-53.721
X146.177Y-56.261
X146.177Y-58.801
X146.177Y-61.341
X146.177Y-63.881
X146.177Y-66.421
X146.177Y-68.961
X146.177Y-71.501
X146.177Y-74.041
X146.177Y-76.581
X146.177Y-79.121
X146.177Y-81.661
X146.177Y-84.201
X146.177Y-86.741
X146.177Y-89.281
X146.177Y-91.821
T7
X159.131Y-43.434
X160.274Y-46.736
X162.814Y-46.736
X165.354Y-46.736
X166.751Y-43.434
T8
X41.656Y-39.243
X42.164Y-133.35
X161.163Y-82.296
X275.844Y-39.116
X275.844Y-133.477
T0
M30
