%TF.GenerationSoftware,KiCad,Pcbnew,7.0.2-0*%
%TF.CreationDate,2023-06-25T21:33:46+02:00*%
%TF.ProjectId,shmoergh-funk-live-control,73686d6f-6572-4676-982d-66756e6b2d6c,rev?*%
%TF.SameCoordinates,Original*%
%TF.FileFunction,Drillmap*%
%TF.FilePolarity,Positive*%
%FSLAX45Y45*%
G04 Gerber Fmt 4.5, Leading zero omitted, Abs format (unit mm)*
G04 Created by KiCad (PCBNEW 7.0.2-0) date 2023-06-25 21:33:46*
%MOMM*%
%LPD*%
G01*
G04 APERTURE LIST*
%ADD10C,0.100000*%
%ADD11C,0.200000*%
G04 APERTURE END LIST*
D10*
X3750000Y-3500000D02*
X28000000Y-3500000D01*
X28000000Y-13750000D01*
X3750000Y-13750000D01*
X3750000Y-3500000D01*
D11*
X3992619Y-14067524D02*
X3992619Y-13867524D01*
X3992619Y-13867524D02*
X4040238Y-13867524D01*
X4040238Y-13867524D02*
X4068809Y-13877048D01*
X4068809Y-13877048D02*
X4087857Y-13896095D01*
X4087857Y-13896095D02*
X4097381Y-13915143D01*
X4097381Y-13915143D02*
X4106905Y-13953238D01*
X4106905Y-13953238D02*
X4106905Y-13981809D01*
X4106905Y-13981809D02*
X4097381Y-14019905D01*
X4097381Y-14019905D02*
X4087857Y-14038952D01*
X4087857Y-14038952D02*
X4068809Y-14058000D01*
X4068809Y-14058000D02*
X4040238Y-14067524D01*
X4040238Y-14067524D02*
X3992619Y-14067524D01*
X4192619Y-14067524D02*
X4192619Y-13934190D01*
X4192619Y-13972286D02*
X4202143Y-13953238D01*
X4202143Y-13953238D02*
X4211667Y-13943714D01*
X4211667Y-13943714D02*
X4230714Y-13934190D01*
X4230714Y-13934190D02*
X4249762Y-13934190D01*
X4316429Y-14067524D02*
X4316429Y-13934190D01*
X4316429Y-13867524D02*
X4306905Y-13877048D01*
X4306905Y-13877048D02*
X4316429Y-13886571D01*
X4316429Y-13886571D02*
X4325952Y-13877048D01*
X4325952Y-13877048D02*
X4316429Y-13867524D01*
X4316429Y-13867524D02*
X4316429Y-13886571D01*
X4440238Y-14067524D02*
X4421190Y-14058000D01*
X4421190Y-14058000D02*
X4411667Y-14038952D01*
X4411667Y-14038952D02*
X4411667Y-13867524D01*
X4545000Y-14067524D02*
X4525952Y-14058000D01*
X4525952Y-14058000D02*
X4516429Y-14038952D01*
X4516429Y-14038952D02*
X4516429Y-13867524D01*
X4773571Y-14067524D02*
X4773571Y-13867524D01*
X4773571Y-13867524D02*
X4840238Y-14010381D01*
X4840238Y-14010381D02*
X4906905Y-13867524D01*
X4906905Y-13867524D02*
X4906905Y-14067524D01*
X5087857Y-14067524D02*
X5087857Y-13962762D01*
X5087857Y-13962762D02*
X5078333Y-13943714D01*
X5078333Y-13943714D02*
X5059286Y-13934190D01*
X5059286Y-13934190D02*
X5021190Y-13934190D01*
X5021190Y-13934190D02*
X5002143Y-13943714D01*
X5087857Y-14058000D02*
X5068810Y-14067524D01*
X5068810Y-14067524D02*
X5021190Y-14067524D01*
X5021190Y-14067524D02*
X5002143Y-14058000D01*
X5002143Y-14058000D02*
X4992619Y-14038952D01*
X4992619Y-14038952D02*
X4992619Y-14019905D01*
X4992619Y-14019905D02*
X5002143Y-14000857D01*
X5002143Y-14000857D02*
X5021190Y-13991333D01*
X5021190Y-13991333D02*
X5068810Y-13991333D01*
X5068810Y-13991333D02*
X5087857Y-13981809D01*
X5183095Y-13934190D02*
X5183095Y-14134190D01*
X5183095Y-13943714D02*
X5202143Y-13934190D01*
X5202143Y-13934190D02*
X5240238Y-13934190D01*
X5240238Y-13934190D02*
X5259286Y-13943714D01*
X5259286Y-13943714D02*
X5268810Y-13953238D01*
X5268810Y-13953238D02*
X5278333Y-13972286D01*
X5278333Y-13972286D02*
X5278333Y-14029428D01*
X5278333Y-14029428D02*
X5268810Y-14048476D01*
X5268810Y-14048476D02*
X5259286Y-14058000D01*
X5259286Y-14058000D02*
X5240238Y-14067524D01*
X5240238Y-14067524D02*
X5202143Y-14067524D01*
X5202143Y-14067524D02*
X5183095Y-14058000D01*
X5364048Y-14048476D02*
X5373571Y-14058000D01*
X5373571Y-14058000D02*
X5364048Y-14067524D01*
X5364048Y-14067524D02*
X5354524Y-14058000D01*
X5354524Y-14058000D02*
X5364048Y-14048476D01*
X5364048Y-14048476D02*
X5364048Y-14067524D01*
X5364048Y-13943714D02*
X5373571Y-13953238D01*
X5373571Y-13953238D02*
X5364048Y-13962762D01*
X5364048Y-13962762D02*
X5354524Y-13953238D01*
X5354524Y-13953238D02*
X5364048Y-13943714D01*
X5364048Y-13943714D02*
X5364048Y-13962762D01*
M02*
