G04 #@! TF.GenerationSoftware,KiCad,Pcbnew,7.0.6-0*
G04 #@! TF.CreationDate,2023-08-18T21:45:25+02:00*
G04 #@! TF.ProjectId,shmoergh-funk-live-voice,73686d6f-6572-4676-982d-66756e6b2d6c,rev?*
G04 #@! TF.SameCoordinates,Original*
G04 #@! TF.FileFunction,Legend,Top*
G04 #@! TF.FilePolarity,Positive*
%FSLAX46Y46*%
G04 Gerber Fmt 4.6, Leading zero omitted, Abs format (unit mm)*
G04 Created by KiCad (PCBNEW 7.0.6-0) date 2023-08-18 21:45:25*
%MOMM*%
%LPD*%
G01*
G04 APERTURE LIST*
G04 Aperture macros list*
%AMRoundRect*
0 Rectangle with rounded corners*
0 $1 Rounding radius*
0 $2 $3 $4 $5 $6 $7 $8 $9 X,Y pos of 4 corners*
0 Add a 4 corners polygon primitive as box body*
4,1,4,$2,$3,$4,$5,$6,$7,$8,$9,$2,$3,0*
0 Add four circle primitives for the rounded corners*
1,1,$1+$1,$2,$3*
1,1,$1+$1,$4,$5*
1,1,$1+$1,$6,$7*
1,1,$1+$1,$8,$9*
0 Add four rect primitives between the rounded corners*
20,1,$1+$1,$2,$3,$4,$5,0*
20,1,$1+$1,$4,$5,$6,$7,0*
20,1,$1+$1,$6,$7,$8,$9,0*
20,1,$1+$1,$8,$9,$2,$3,0*%
G04 Aperture macros list end*
%ADD10C,0.150000*%
%ADD11C,0.120000*%
%ADD12C,1.400000*%
%ADD13RoundRect,0.250000X-0.262500X-0.450000X0.262500X-0.450000X0.262500X0.450000X-0.262500X0.450000X0*%
%ADD14C,1.620000*%
%ADD15R,1.500000X1.500000*%
%ADD16C,1.500000*%
%ADD17RoundRect,0.250000X0.262500X0.450000X-0.262500X0.450000X-0.262500X-0.450000X0.262500X-0.450000X0*%
%ADD18RoundRect,0.250000X0.250000X0.475000X-0.250000X0.475000X-0.250000X-0.475000X0.250000X-0.475000X0*%
%ADD19C,1.600000*%
%ADD20R,2.400000X1.600000*%
%ADD21O,2.400000X1.600000*%
%ADD22R,1.700000X1.700000*%
%ADD23O,1.700000X1.700000*%
%ADD24RoundRect,0.250000X0.475000X-0.250000X0.475000X0.250000X-0.475000X0.250000X-0.475000X-0.250000X0*%
G04 APERTURE END LIST*
D10*
X137128380Y-110203723D02*
X137509333Y-110203723D01*
X137052190Y-110432295D02*
X137318857Y-109632295D01*
X137318857Y-109632295D02*
X137585523Y-110432295D01*
X137852190Y-110432295D02*
X137852190Y-109632295D01*
X137852190Y-109632295D02*
X138118856Y-110203723D01*
X138118856Y-110203723D02*
X138385523Y-109632295D01*
X138385523Y-109632295D02*
X138385523Y-110432295D01*
X138766476Y-110432295D02*
X138766476Y-109632295D01*
X138766476Y-109632295D02*
X139071238Y-109632295D01*
X139071238Y-109632295D02*
X139147428Y-109670390D01*
X139147428Y-109670390D02*
X139185523Y-109708485D01*
X139185523Y-109708485D02*
X139223619Y-109784676D01*
X139223619Y-109784676D02*
X139223619Y-109898961D01*
X139223619Y-109898961D02*
X139185523Y-109975152D01*
X139185523Y-109975152D02*
X139147428Y-110013247D01*
X139147428Y-110013247D02*
X139071238Y-110051342D01*
X139071238Y-110051342D02*
X138766476Y-110051342D01*
X137147429Y-111644104D02*
X137109333Y-111682200D01*
X137109333Y-111682200D02*
X136995048Y-111720295D01*
X136995048Y-111720295D02*
X136918857Y-111720295D01*
X136918857Y-111720295D02*
X136804571Y-111682200D01*
X136804571Y-111682200D02*
X136728381Y-111606009D01*
X136728381Y-111606009D02*
X136690286Y-111529819D01*
X136690286Y-111529819D02*
X136652190Y-111377438D01*
X136652190Y-111377438D02*
X136652190Y-111263152D01*
X136652190Y-111263152D02*
X136690286Y-111110771D01*
X136690286Y-111110771D02*
X136728381Y-111034580D01*
X136728381Y-111034580D02*
X136804571Y-110958390D01*
X136804571Y-110958390D02*
X136918857Y-110920295D01*
X136918857Y-110920295D02*
X136995048Y-110920295D01*
X136995048Y-110920295D02*
X137109333Y-110958390D01*
X137109333Y-110958390D02*
X137147429Y-110996485D01*
X137642667Y-110920295D02*
X137795048Y-110920295D01*
X137795048Y-110920295D02*
X137871238Y-110958390D01*
X137871238Y-110958390D02*
X137947429Y-111034580D01*
X137947429Y-111034580D02*
X137985524Y-111186961D01*
X137985524Y-111186961D02*
X137985524Y-111453628D01*
X137985524Y-111453628D02*
X137947429Y-111606009D01*
X137947429Y-111606009D02*
X137871238Y-111682200D01*
X137871238Y-111682200D02*
X137795048Y-111720295D01*
X137795048Y-111720295D02*
X137642667Y-111720295D01*
X137642667Y-111720295D02*
X137566476Y-111682200D01*
X137566476Y-111682200D02*
X137490286Y-111606009D01*
X137490286Y-111606009D02*
X137452190Y-111453628D01*
X137452190Y-111453628D02*
X137452190Y-111186961D01*
X137452190Y-111186961D02*
X137490286Y-111034580D01*
X137490286Y-111034580D02*
X137566476Y-110958390D01*
X137566476Y-110958390D02*
X137642667Y-110920295D01*
X138328381Y-111720295D02*
X138328381Y-110920295D01*
X138328381Y-110920295D02*
X138595047Y-111491723D01*
X138595047Y-111491723D02*
X138861714Y-110920295D01*
X138861714Y-110920295D02*
X138861714Y-111720295D01*
X139242667Y-111720295D02*
X139242667Y-110920295D01*
X139242667Y-110920295D02*
X139547429Y-110920295D01*
X139547429Y-110920295D02*
X139623619Y-110958390D01*
X139623619Y-110958390D02*
X139661714Y-110996485D01*
X139661714Y-110996485D02*
X139699810Y-111072676D01*
X139699810Y-111072676D02*
X139699810Y-111186961D01*
X139699810Y-111186961D02*
X139661714Y-111263152D01*
X139661714Y-111263152D02*
X139623619Y-111301247D01*
X139623619Y-111301247D02*
X139547429Y-111339342D01*
X139547429Y-111339342D02*
X139242667Y-111339342D01*
X132826303Y-110450295D02*
X132559636Y-110069342D01*
X132369160Y-110450295D02*
X132369160Y-109650295D01*
X132369160Y-109650295D02*
X132673922Y-109650295D01*
X132673922Y-109650295D02*
X132750112Y-109688390D01*
X132750112Y-109688390D02*
X132788207Y-109726485D01*
X132788207Y-109726485D02*
X132826303Y-109802676D01*
X132826303Y-109802676D02*
X132826303Y-109916961D01*
X132826303Y-109916961D02*
X132788207Y-109993152D01*
X132788207Y-109993152D02*
X132750112Y-110031247D01*
X132750112Y-110031247D02*
X132673922Y-110069342D01*
X132673922Y-110069342D02*
X132369160Y-110069342D01*
X133169160Y-110031247D02*
X133435826Y-110031247D01*
X133550112Y-110450295D02*
X133169160Y-110450295D01*
X133169160Y-110450295D02*
X133169160Y-109650295D01*
X133169160Y-109650295D02*
X133550112Y-109650295D01*
X133854874Y-110412200D02*
X133969160Y-110450295D01*
X133969160Y-110450295D02*
X134159636Y-110450295D01*
X134159636Y-110450295D02*
X134235827Y-110412200D01*
X134235827Y-110412200D02*
X134273922Y-110374104D01*
X134273922Y-110374104D02*
X134312017Y-110297914D01*
X134312017Y-110297914D02*
X134312017Y-110221723D01*
X134312017Y-110221723D02*
X134273922Y-110145533D01*
X134273922Y-110145533D02*
X134235827Y-110107438D01*
X134235827Y-110107438D02*
X134159636Y-110069342D01*
X134159636Y-110069342D02*
X134007255Y-110031247D01*
X134007255Y-110031247D02*
X133931065Y-109993152D01*
X133931065Y-109993152D02*
X133892970Y-109955057D01*
X133892970Y-109955057D02*
X133854874Y-109878866D01*
X133854874Y-109878866D02*
X133854874Y-109802676D01*
X133854874Y-109802676D02*
X133892970Y-109726485D01*
X133892970Y-109726485D02*
X133931065Y-109688390D01*
X133931065Y-109688390D02*
X134007255Y-109650295D01*
X134007255Y-109650295D02*
X134197732Y-109650295D01*
X134197732Y-109650295D02*
X134312017Y-109688390D01*
X134654875Y-110031247D02*
X134921541Y-110031247D01*
X135035827Y-110450295D02*
X134654875Y-110450295D01*
X134654875Y-110450295D02*
X134654875Y-109650295D01*
X134654875Y-109650295D02*
X135035827Y-109650295D01*
X135264399Y-109650295D02*
X135721542Y-109650295D01*
X135492970Y-110450295D02*
X135492970Y-109650295D01*
X149593428Y-109378200D02*
X149707714Y-109416295D01*
X149707714Y-109416295D02*
X149898190Y-109416295D01*
X149898190Y-109416295D02*
X149974381Y-109378200D01*
X149974381Y-109378200D02*
X150012476Y-109340104D01*
X150012476Y-109340104D02*
X150050571Y-109263914D01*
X150050571Y-109263914D02*
X150050571Y-109187723D01*
X150050571Y-109187723D02*
X150012476Y-109111533D01*
X150012476Y-109111533D02*
X149974381Y-109073438D01*
X149974381Y-109073438D02*
X149898190Y-109035342D01*
X149898190Y-109035342D02*
X149745809Y-108997247D01*
X149745809Y-108997247D02*
X149669619Y-108959152D01*
X149669619Y-108959152D02*
X149631524Y-108921057D01*
X149631524Y-108921057D02*
X149593428Y-108844866D01*
X149593428Y-108844866D02*
X149593428Y-108768676D01*
X149593428Y-108768676D02*
X149631524Y-108692485D01*
X149631524Y-108692485D02*
X149669619Y-108654390D01*
X149669619Y-108654390D02*
X149745809Y-108616295D01*
X149745809Y-108616295D02*
X149936286Y-108616295D01*
X149936286Y-108616295D02*
X150050571Y-108654390D01*
X150355333Y-109187723D02*
X150736286Y-109187723D01*
X150279143Y-109416295D02*
X150545810Y-108616295D01*
X150545810Y-108616295D02*
X150812476Y-109416295D01*
X151002952Y-108616295D02*
X151193428Y-109416295D01*
X151193428Y-109416295D02*
X151345809Y-108844866D01*
X151345809Y-108844866D02*
X151498190Y-109416295D01*
X151498190Y-109416295D02*
X151688667Y-108616295D01*
X149764857Y-110285247D02*
X149879143Y-110323342D01*
X149879143Y-110323342D02*
X149917238Y-110361438D01*
X149917238Y-110361438D02*
X149955334Y-110437628D01*
X149955334Y-110437628D02*
X149955334Y-110551914D01*
X149955334Y-110551914D02*
X149917238Y-110628104D01*
X149917238Y-110628104D02*
X149879143Y-110666200D01*
X149879143Y-110666200D02*
X149802953Y-110704295D01*
X149802953Y-110704295D02*
X149498191Y-110704295D01*
X149498191Y-110704295D02*
X149498191Y-109904295D01*
X149498191Y-109904295D02*
X149764857Y-109904295D01*
X149764857Y-109904295D02*
X149841048Y-109942390D01*
X149841048Y-109942390D02*
X149879143Y-109980485D01*
X149879143Y-109980485D02*
X149917238Y-110056676D01*
X149917238Y-110056676D02*
X149917238Y-110132866D01*
X149917238Y-110132866D02*
X149879143Y-110209057D01*
X149879143Y-110209057D02*
X149841048Y-110247152D01*
X149841048Y-110247152D02*
X149764857Y-110285247D01*
X149764857Y-110285247D02*
X149498191Y-110285247D01*
X150298191Y-110704295D02*
X150298191Y-109904295D01*
X150641047Y-110475723D02*
X151022000Y-110475723D01*
X150564857Y-110704295D02*
X150831524Y-109904295D01*
X150831524Y-109904295D02*
X151098190Y-110704295D01*
X151326761Y-110666200D02*
X151441047Y-110704295D01*
X151441047Y-110704295D02*
X151631523Y-110704295D01*
X151631523Y-110704295D02*
X151707714Y-110666200D01*
X151707714Y-110666200D02*
X151745809Y-110628104D01*
X151745809Y-110628104D02*
X151783904Y-110551914D01*
X151783904Y-110551914D02*
X151783904Y-110475723D01*
X151783904Y-110475723D02*
X151745809Y-110399533D01*
X151745809Y-110399533D02*
X151707714Y-110361438D01*
X151707714Y-110361438D02*
X151631523Y-110323342D01*
X151631523Y-110323342D02*
X151479142Y-110285247D01*
X151479142Y-110285247D02*
X151402952Y-110247152D01*
X151402952Y-110247152D02*
X151364857Y-110209057D01*
X151364857Y-110209057D02*
X151326761Y-110132866D01*
X151326761Y-110132866D02*
X151326761Y-110056676D01*
X151326761Y-110056676D02*
X151364857Y-109980485D01*
X151364857Y-109980485D02*
X151402952Y-109942390D01*
X151402952Y-109942390D02*
X151479142Y-109904295D01*
X151479142Y-109904295D02*
X151669619Y-109904295D01*
X151669619Y-109904295D02*
X151783904Y-109942390D01*
X153667064Y-109396200D02*
X153781350Y-109434295D01*
X153781350Y-109434295D02*
X153971826Y-109434295D01*
X153971826Y-109434295D02*
X154048017Y-109396200D01*
X154048017Y-109396200D02*
X154086112Y-109358104D01*
X154086112Y-109358104D02*
X154124207Y-109281914D01*
X154124207Y-109281914D02*
X154124207Y-109205723D01*
X154124207Y-109205723D02*
X154086112Y-109129533D01*
X154086112Y-109129533D02*
X154048017Y-109091438D01*
X154048017Y-109091438D02*
X153971826Y-109053342D01*
X153971826Y-109053342D02*
X153819445Y-109015247D01*
X153819445Y-109015247D02*
X153743255Y-108977152D01*
X153743255Y-108977152D02*
X153705160Y-108939057D01*
X153705160Y-108939057D02*
X153667064Y-108862866D01*
X153667064Y-108862866D02*
X153667064Y-108786676D01*
X153667064Y-108786676D02*
X153705160Y-108710485D01*
X153705160Y-108710485D02*
X153743255Y-108672390D01*
X153743255Y-108672390D02*
X153819445Y-108634295D01*
X153819445Y-108634295D02*
X154009922Y-108634295D01*
X154009922Y-108634295D02*
X154124207Y-108672390D01*
X154428969Y-109205723D02*
X154809922Y-109205723D01*
X154352779Y-109434295D02*
X154619446Y-108634295D01*
X154619446Y-108634295D02*
X154886112Y-109434295D01*
X155076588Y-108634295D02*
X155267064Y-109434295D01*
X155267064Y-109434295D02*
X155419445Y-108862866D01*
X155419445Y-108862866D02*
X155571826Y-109434295D01*
X155571826Y-109434295D02*
X155762303Y-108634295D01*
X156588064Y-85393200D02*
X156702350Y-85431295D01*
X156702350Y-85431295D02*
X156892826Y-85431295D01*
X156892826Y-85431295D02*
X156969017Y-85393200D01*
X156969017Y-85393200D02*
X157007112Y-85355104D01*
X157007112Y-85355104D02*
X157045207Y-85278914D01*
X157045207Y-85278914D02*
X157045207Y-85202723D01*
X157045207Y-85202723D02*
X157007112Y-85126533D01*
X157007112Y-85126533D02*
X156969017Y-85088438D01*
X156969017Y-85088438D02*
X156892826Y-85050342D01*
X156892826Y-85050342D02*
X156740445Y-85012247D01*
X156740445Y-85012247D02*
X156664255Y-84974152D01*
X156664255Y-84974152D02*
X156626160Y-84936057D01*
X156626160Y-84936057D02*
X156588064Y-84859866D01*
X156588064Y-84859866D02*
X156588064Y-84783676D01*
X156588064Y-84783676D02*
X156626160Y-84707485D01*
X156626160Y-84707485D02*
X156664255Y-84669390D01*
X156664255Y-84669390D02*
X156740445Y-84631295D01*
X156740445Y-84631295D02*
X156930922Y-84631295D01*
X156930922Y-84631295D02*
X157045207Y-84669390D01*
X157921398Y-85507485D02*
X157845208Y-85469390D01*
X157845208Y-85469390D02*
X157769017Y-85393200D01*
X157769017Y-85393200D02*
X157654731Y-85278914D01*
X157654731Y-85278914D02*
X157578541Y-85240819D01*
X157578541Y-85240819D02*
X157502350Y-85240819D01*
X157540446Y-85431295D02*
X157464255Y-85393200D01*
X157464255Y-85393200D02*
X157388065Y-85317009D01*
X157388065Y-85317009D02*
X157349969Y-85164628D01*
X157349969Y-85164628D02*
X157349969Y-84897961D01*
X157349969Y-84897961D02*
X157388065Y-84745580D01*
X157388065Y-84745580D02*
X157464255Y-84669390D01*
X157464255Y-84669390D02*
X157540446Y-84631295D01*
X157540446Y-84631295D02*
X157692827Y-84631295D01*
X157692827Y-84631295D02*
X157769017Y-84669390D01*
X157769017Y-84669390D02*
X157845208Y-84745580D01*
X157845208Y-84745580D02*
X157883303Y-84897961D01*
X157883303Y-84897961D02*
X157883303Y-85164628D01*
X157883303Y-85164628D02*
X157845208Y-85317009D01*
X157845208Y-85317009D02*
X157769017Y-85393200D01*
X157769017Y-85393200D02*
X157692827Y-85431295D01*
X157692827Y-85431295D02*
X157540446Y-85431295D01*
X158683303Y-85431295D02*
X158416636Y-85050342D01*
X158226160Y-85431295D02*
X158226160Y-84631295D01*
X158226160Y-84631295D02*
X158530922Y-84631295D01*
X158530922Y-84631295D02*
X158607112Y-84669390D01*
X158607112Y-84669390D02*
X158645207Y-84707485D01*
X158645207Y-84707485D02*
X158683303Y-84783676D01*
X158683303Y-84783676D02*
X158683303Y-84897961D01*
X158683303Y-84897961D02*
X158645207Y-84974152D01*
X158645207Y-84974152D02*
X158607112Y-85012247D01*
X158607112Y-85012247D02*
X158530922Y-85050342D01*
X158530922Y-85050342D02*
X158226160Y-85050342D01*
X140459064Y-116254200D02*
X140573350Y-116292295D01*
X140573350Y-116292295D02*
X140763826Y-116292295D01*
X140763826Y-116292295D02*
X140840017Y-116254200D01*
X140840017Y-116254200D02*
X140878112Y-116216104D01*
X140878112Y-116216104D02*
X140916207Y-116139914D01*
X140916207Y-116139914D02*
X140916207Y-116063723D01*
X140916207Y-116063723D02*
X140878112Y-115987533D01*
X140878112Y-115987533D02*
X140840017Y-115949438D01*
X140840017Y-115949438D02*
X140763826Y-115911342D01*
X140763826Y-115911342D02*
X140611445Y-115873247D01*
X140611445Y-115873247D02*
X140535255Y-115835152D01*
X140535255Y-115835152D02*
X140497160Y-115797057D01*
X140497160Y-115797057D02*
X140459064Y-115720866D01*
X140459064Y-115720866D02*
X140459064Y-115644676D01*
X140459064Y-115644676D02*
X140497160Y-115568485D01*
X140497160Y-115568485D02*
X140535255Y-115530390D01*
X140535255Y-115530390D02*
X140611445Y-115492295D01*
X140611445Y-115492295D02*
X140801922Y-115492295D01*
X140801922Y-115492295D02*
X140916207Y-115530390D01*
X141259065Y-116292295D02*
X141259065Y-115492295D01*
X141259065Y-115873247D02*
X141716208Y-115873247D01*
X141716208Y-116292295D02*
X141716208Y-115492295D01*
X142097160Y-116292295D02*
X142097160Y-115492295D01*
X142097160Y-115492295D02*
X142363826Y-116063723D01*
X142363826Y-116063723D02*
X142630493Y-115492295D01*
X142630493Y-115492295D02*
X142630493Y-116292295D01*
X143544779Y-115492295D02*
X142935255Y-116292295D01*
X143163827Y-116292295D02*
X143087636Y-116254200D01*
X143087636Y-116254200D02*
X143011446Y-116178009D01*
X143011446Y-116178009D02*
X142973350Y-116025628D01*
X142973350Y-116025628D02*
X142973350Y-115758961D01*
X142973350Y-115758961D02*
X143011446Y-115606580D01*
X143011446Y-115606580D02*
X143087636Y-115530390D01*
X143087636Y-115530390D02*
X143163827Y-115492295D01*
X143163827Y-115492295D02*
X143316208Y-115492295D01*
X143316208Y-115492295D02*
X143392398Y-115530390D01*
X143392398Y-115530390D02*
X143468589Y-115606580D01*
X143468589Y-115606580D02*
X143506684Y-115758961D01*
X143506684Y-115758961D02*
X143506684Y-116025628D01*
X143506684Y-116025628D02*
X143468589Y-116178009D01*
X143468589Y-116178009D02*
X143392398Y-116254200D01*
X143392398Y-116254200D02*
X143316208Y-116292295D01*
X143316208Y-116292295D02*
X143163827Y-116292295D01*
X143849541Y-115873247D02*
X144116207Y-115873247D01*
X144230493Y-116292295D02*
X143849541Y-116292295D01*
X143849541Y-116292295D02*
X143849541Y-115492295D01*
X143849541Y-115492295D02*
X144230493Y-115492295D01*
X145030494Y-116292295D02*
X144763827Y-115911342D01*
X144573351Y-116292295D02*
X144573351Y-115492295D01*
X144573351Y-115492295D02*
X144878113Y-115492295D01*
X144878113Y-115492295D02*
X144954303Y-115530390D01*
X144954303Y-115530390D02*
X144992398Y-115568485D01*
X144992398Y-115568485D02*
X145030494Y-115644676D01*
X145030494Y-115644676D02*
X145030494Y-115758961D01*
X145030494Y-115758961D02*
X144992398Y-115835152D01*
X144992398Y-115835152D02*
X144954303Y-115873247D01*
X144954303Y-115873247D02*
X144878113Y-115911342D01*
X144878113Y-115911342D02*
X144573351Y-115911342D01*
X145792398Y-115530390D02*
X145716208Y-115492295D01*
X145716208Y-115492295D02*
X145601922Y-115492295D01*
X145601922Y-115492295D02*
X145487636Y-115530390D01*
X145487636Y-115530390D02*
X145411446Y-115606580D01*
X145411446Y-115606580D02*
X145373351Y-115682771D01*
X145373351Y-115682771D02*
X145335255Y-115835152D01*
X145335255Y-115835152D02*
X145335255Y-115949438D01*
X145335255Y-115949438D02*
X145373351Y-116101819D01*
X145373351Y-116101819D02*
X145411446Y-116178009D01*
X145411446Y-116178009D02*
X145487636Y-116254200D01*
X145487636Y-116254200D02*
X145601922Y-116292295D01*
X145601922Y-116292295D02*
X145678113Y-116292295D01*
X145678113Y-116292295D02*
X145792398Y-116254200D01*
X145792398Y-116254200D02*
X145830494Y-116216104D01*
X145830494Y-116216104D02*
X145830494Y-115949438D01*
X145830494Y-115949438D02*
X145678113Y-115949438D01*
X146173351Y-116292295D02*
X146173351Y-115492295D01*
X146173351Y-115873247D02*
X146630494Y-115873247D01*
X146630494Y-116292295D02*
X146630494Y-115492295D01*
X147620970Y-115987533D02*
X148230494Y-115987533D01*
X149220970Y-116292295D02*
X149220970Y-115492295D01*
X149220970Y-115492295D02*
X149411446Y-115492295D01*
X149411446Y-115492295D02*
X149525732Y-115530390D01*
X149525732Y-115530390D02*
X149601922Y-115606580D01*
X149601922Y-115606580D02*
X149640017Y-115682771D01*
X149640017Y-115682771D02*
X149678113Y-115835152D01*
X149678113Y-115835152D02*
X149678113Y-115949438D01*
X149678113Y-115949438D02*
X149640017Y-116101819D01*
X149640017Y-116101819D02*
X149601922Y-116178009D01*
X149601922Y-116178009D02*
X149525732Y-116254200D01*
X149525732Y-116254200D02*
X149411446Y-116292295D01*
X149411446Y-116292295D02*
X149220970Y-116292295D01*
X150478113Y-116216104D02*
X150440017Y-116254200D01*
X150440017Y-116254200D02*
X150325732Y-116292295D01*
X150325732Y-116292295D02*
X150249541Y-116292295D01*
X150249541Y-116292295D02*
X150135255Y-116254200D01*
X150135255Y-116254200D02*
X150059065Y-116178009D01*
X150059065Y-116178009D02*
X150020970Y-116101819D01*
X150020970Y-116101819D02*
X149982874Y-115949438D01*
X149982874Y-115949438D02*
X149982874Y-115835152D01*
X149982874Y-115835152D02*
X150020970Y-115682771D01*
X150020970Y-115682771D02*
X150059065Y-115606580D01*
X150059065Y-115606580D02*
X150135255Y-115530390D01*
X150135255Y-115530390D02*
X150249541Y-115492295D01*
X150249541Y-115492295D02*
X150325732Y-115492295D01*
X150325732Y-115492295D02*
X150440017Y-115530390D01*
X150440017Y-115530390D02*
X150478113Y-115568485D01*
X150973351Y-115492295D02*
X151125732Y-115492295D01*
X151125732Y-115492295D02*
X151201922Y-115530390D01*
X151201922Y-115530390D02*
X151278113Y-115606580D01*
X151278113Y-115606580D02*
X151316208Y-115758961D01*
X151316208Y-115758961D02*
X151316208Y-116025628D01*
X151316208Y-116025628D02*
X151278113Y-116178009D01*
X151278113Y-116178009D02*
X151201922Y-116254200D01*
X151201922Y-116254200D02*
X151125732Y-116292295D01*
X151125732Y-116292295D02*
X150973351Y-116292295D01*
X150973351Y-116292295D02*
X150897160Y-116254200D01*
X150897160Y-116254200D02*
X150820970Y-116178009D01*
X150820970Y-116178009D02*
X150782874Y-116025628D01*
X150782874Y-116025628D02*
X150782874Y-115758961D01*
X150782874Y-115758961D02*
X150820970Y-115606580D01*
X150820970Y-115606580D02*
X150897160Y-115530390D01*
X150897160Y-115530390D02*
X150973351Y-115492295D01*
X152154303Y-115492295D02*
X152420970Y-116292295D01*
X152420970Y-116292295D02*
X152687636Y-115492295D01*
X153068588Y-116292295D02*
X152992398Y-116254200D01*
X152992398Y-116254200D02*
X152954303Y-116216104D01*
X152954303Y-116216104D02*
X152916207Y-116139914D01*
X152916207Y-116139914D02*
X152916207Y-115911342D01*
X152916207Y-115911342D02*
X152954303Y-115835152D01*
X152954303Y-115835152D02*
X152992398Y-115797057D01*
X152992398Y-115797057D02*
X153068588Y-115758961D01*
X153068588Y-115758961D02*
X153182874Y-115758961D01*
X153182874Y-115758961D02*
X153259065Y-115797057D01*
X153259065Y-115797057D02*
X153297160Y-115835152D01*
X153297160Y-115835152D02*
X153335255Y-115911342D01*
X153335255Y-115911342D02*
X153335255Y-116139914D01*
X153335255Y-116139914D02*
X153297160Y-116216104D01*
X153297160Y-116216104D02*
X153259065Y-116254200D01*
X153259065Y-116254200D02*
X153182874Y-116292295D01*
X153182874Y-116292295D02*
X153068588Y-116292295D01*
X153678113Y-116292295D02*
X153678113Y-115758961D01*
X153678113Y-115492295D02*
X153640017Y-115530390D01*
X153640017Y-115530390D02*
X153678113Y-115568485D01*
X153678113Y-115568485D02*
X153716208Y-115530390D01*
X153716208Y-115530390D02*
X153678113Y-115492295D01*
X153678113Y-115492295D02*
X153678113Y-115568485D01*
X154401922Y-116254200D02*
X154325731Y-116292295D01*
X154325731Y-116292295D02*
X154173350Y-116292295D01*
X154173350Y-116292295D02*
X154097160Y-116254200D01*
X154097160Y-116254200D02*
X154059065Y-116216104D01*
X154059065Y-116216104D02*
X154020969Y-116139914D01*
X154020969Y-116139914D02*
X154020969Y-115911342D01*
X154020969Y-115911342D02*
X154059065Y-115835152D01*
X154059065Y-115835152D02*
X154097160Y-115797057D01*
X154097160Y-115797057D02*
X154173350Y-115758961D01*
X154173350Y-115758961D02*
X154325731Y-115758961D01*
X154325731Y-115758961D02*
X154401922Y-115797057D01*
X155049541Y-116254200D02*
X154973350Y-116292295D01*
X154973350Y-116292295D02*
X154820969Y-116292295D01*
X154820969Y-116292295D02*
X154744779Y-116254200D01*
X154744779Y-116254200D02*
X154706683Y-116178009D01*
X154706683Y-116178009D02*
X154706683Y-115873247D01*
X154706683Y-115873247D02*
X154744779Y-115797057D01*
X154744779Y-115797057D02*
X154820969Y-115758961D01*
X154820969Y-115758961D02*
X154973350Y-115758961D01*
X154973350Y-115758961D02*
X155049541Y-115797057D01*
X155049541Y-115797057D02*
X155087636Y-115873247D01*
X155087636Y-115873247D02*
X155087636Y-115949438D01*
X155087636Y-115949438D02*
X154706683Y-116025628D01*
X155925731Y-115492295D02*
X156192398Y-116292295D01*
X156192398Y-116292295D02*
X156459064Y-115492295D01*
X157144778Y-116292295D02*
X156687635Y-116292295D01*
X156916207Y-116292295D02*
X156916207Y-115492295D01*
X156916207Y-115492295D02*
X156840016Y-115606580D01*
X156840016Y-115606580D02*
X156763826Y-115682771D01*
X156763826Y-115682771D02*
X156687635Y-115720866D01*
X157487636Y-116216104D02*
X157525731Y-116254200D01*
X157525731Y-116254200D02*
X157487636Y-116292295D01*
X157487636Y-116292295D02*
X157449540Y-116254200D01*
X157449540Y-116254200D02*
X157487636Y-116216104D01*
X157487636Y-116216104D02*
X157487636Y-116292295D01*
X158287635Y-116292295D02*
X157830492Y-116292295D01*
X158059064Y-116292295D02*
X158059064Y-115492295D01*
X158059064Y-115492295D02*
X157982873Y-115606580D01*
X157982873Y-115606580D02*
X157906683Y-115682771D01*
X157906683Y-115682771D02*
X157830492Y-115720866D01*
X154932142Y-94500819D02*
X154598809Y-94024628D01*
X154360714Y-94500819D02*
X154360714Y-93500819D01*
X154360714Y-93500819D02*
X154741666Y-93500819D01*
X154741666Y-93500819D02*
X154836904Y-93548438D01*
X154836904Y-93548438D02*
X154884523Y-93596057D01*
X154884523Y-93596057D02*
X154932142Y-93691295D01*
X154932142Y-93691295D02*
X154932142Y-93834152D01*
X154932142Y-93834152D02*
X154884523Y-93929390D01*
X154884523Y-93929390D02*
X154836904Y-93977009D01*
X154836904Y-93977009D02*
X154741666Y-94024628D01*
X154741666Y-94024628D02*
X154360714Y-94024628D01*
X155884523Y-94500819D02*
X155313095Y-94500819D01*
X155598809Y-94500819D02*
X155598809Y-93500819D01*
X155598809Y-93500819D02*
X155503571Y-93643676D01*
X155503571Y-93643676D02*
X155408333Y-93738914D01*
X155408333Y-93738914D02*
X155313095Y-93786533D01*
X156503571Y-93500819D02*
X156598809Y-93500819D01*
X156598809Y-93500819D02*
X156694047Y-93548438D01*
X156694047Y-93548438D02*
X156741666Y-93596057D01*
X156741666Y-93596057D02*
X156789285Y-93691295D01*
X156789285Y-93691295D02*
X156836904Y-93881771D01*
X156836904Y-93881771D02*
X156836904Y-94119866D01*
X156836904Y-94119866D02*
X156789285Y-94310342D01*
X156789285Y-94310342D02*
X156741666Y-94405580D01*
X156741666Y-94405580D02*
X156694047Y-94453200D01*
X156694047Y-94453200D02*
X156598809Y-94500819D01*
X156598809Y-94500819D02*
X156503571Y-94500819D01*
X156503571Y-94500819D02*
X156408333Y-94453200D01*
X156408333Y-94453200D02*
X156360714Y-94405580D01*
X156360714Y-94405580D02*
X156313095Y-94310342D01*
X156313095Y-94310342D02*
X156265476Y-94119866D01*
X156265476Y-94119866D02*
X156265476Y-93881771D01*
X156265476Y-93881771D02*
X156313095Y-93691295D01*
X156313095Y-93691295D02*
X156360714Y-93596057D01*
X156360714Y-93596057D02*
X156408333Y-93548438D01*
X156408333Y-93548438D02*
X156503571Y-93500819D01*
X140049809Y-113296819D02*
X139716476Y-112820628D01*
X139478381Y-113296819D02*
X139478381Y-112296819D01*
X139478381Y-112296819D02*
X139859333Y-112296819D01*
X139859333Y-112296819D02*
X139954571Y-112344438D01*
X139954571Y-112344438D02*
X140002190Y-112392057D01*
X140002190Y-112392057D02*
X140049809Y-112487295D01*
X140049809Y-112487295D02*
X140049809Y-112630152D01*
X140049809Y-112630152D02*
X140002190Y-112725390D01*
X140002190Y-112725390D02*
X139954571Y-112773009D01*
X139954571Y-112773009D02*
X139859333Y-112820628D01*
X139859333Y-112820628D02*
X139478381Y-112820628D01*
X140335524Y-112296819D02*
X140668857Y-113296819D01*
X140668857Y-113296819D02*
X141002190Y-112296819D01*
X141097429Y-113392057D02*
X141859333Y-113392057D01*
X142049810Y-113249200D02*
X142192667Y-113296819D01*
X142192667Y-113296819D02*
X142430762Y-113296819D01*
X142430762Y-113296819D02*
X142526000Y-113249200D01*
X142526000Y-113249200D02*
X142573619Y-113201580D01*
X142573619Y-113201580D02*
X142621238Y-113106342D01*
X142621238Y-113106342D02*
X142621238Y-113011104D01*
X142621238Y-113011104D02*
X142573619Y-112915866D01*
X142573619Y-112915866D02*
X142526000Y-112868247D01*
X142526000Y-112868247D02*
X142430762Y-112820628D01*
X142430762Y-112820628D02*
X142240286Y-112773009D01*
X142240286Y-112773009D02*
X142145048Y-112725390D01*
X142145048Y-112725390D02*
X142097429Y-112677771D01*
X142097429Y-112677771D02*
X142049810Y-112582533D01*
X142049810Y-112582533D02*
X142049810Y-112487295D01*
X142049810Y-112487295D02*
X142097429Y-112392057D01*
X142097429Y-112392057D02*
X142145048Y-112344438D01*
X142145048Y-112344438D02*
X142240286Y-112296819D01*
X142240286Y-112296819D02*
X142478381Y-112296819D01*
X142478381Y-112296819D02*
X142621238Y-112344438D01*
X143002191Y-113011104D02*
X143478381Y-113011104D01*
X142906953Y-113296819D02*
X143240286Y-112296819D01*
X143240286Y-112296819D02*
X143573619Y-113296819D01*
X143811715Y-112296819D02*
X144049810Y-113296819D01*
X144049810Y-113296819D02*
X144240286Y-112582533D01*
X144240286Y-112582533D02*
X144430762Y-113296819D01*
X144430762Y-113296819D02*
X144668858Y-112296819D01*
X144811715Y-113392057D02*
X145573619Y-113392057D01*
X146145048Y-112773009D02*
X146287905Y-112820628D01*
X146287905Y-112820628D02*
X146335524Y-112868247D01*
X146335524Y-112868247D02*
X146383143Y-112963485D01*
X146383143Y-112963485D02*
X146383143Y-113106342D01*
X146383143Y-113106342D02*
X146335524Y-113201580D01*
X146335524Y-113201580D02*
X146287905Y-113249200D01*
X146287905Y-113249200D02*
X146192667Y-113296819D01*
X146192667Y-113296819D02*
X145811715Y-113296819D01*
X145811715Y-113296819D02*
X145811715Y-112296819D01*
X145811715Y-112296819D02*
X146145048Y-112296819D01*
X146145048Y-112296819D02*
X146240286Y-112344438D01*
X146240286Y-112344438D02*
X146287905Y-112392057D01*
X146287905Y-112392057D02*
X146335524Y-112487295D01*
X146335524Y-112487295D02*
X146335524Y-112582533D01*
X146335524Y-112582533D02*
X146287905Y-112677771D01*
X146287905Y-112677771D02*
X146240286Y-112725390D01*
X146240286Y-112725390D02*
X146145048Y-112773009D01*
X146145048Y-112773009D02*
X145811715Y-112773009D01*
X146811715Y-113296819D02*
X146811715Y-112296819D01*
X147240286Y-113011104D02*
X147716476Y-113011104D01*
X147145048Y-113296819D02*
X147478381Y-112296819D01*
X147478381Y-112296819D02*
X147811714Y-113296819D01*
X148097429Y-113249200D02*
X148240286Y-113296819D01*
X148240286Y-113296819D02*
X148478381Y-113296819D01*
X148478381Y-113296819D02*
X148573619Y-113249200D01*
X148573619Y-113249200D02*
X148621238Y-113201580D01*
X148621238Y-113201580D02*
X148668857Y-113106342D01*
X148668857Y-113106342D02*
X148668857Y-113011104D01*
X148668857Y-113011104D02*
X148621238Y-112915866D01*
X148621238Y-112915866D02*
X148573619Y-112868247D01*
X148573619Y-112868247D02*
X148478381Y-112820628D01*
X148478381Y-112820628D02*
X148287905Y-112773009D01*
X148287905Y-112773009D02*
X148192667Y-112725390D01*
X148192667Y-112725390D02*
X148145048Y-112677771D01*
X148145048Y-112677771D02*
X148097429Y-112582533D01*
X148097429Y-112582533D02*
X148097429Y-112487295D01*
X148097429Y-112487295D02*
X148145048Y-112392057D01*
X148145048Y-112392057D02*
X148192667Y-112344438D01*
X148192667Y-112344438D02*
X148287905Y-112296819D01*
X148287905Y-112296819D02*
X148526000Y-112296819D01*
X148526000Y-112296819D02*
X148668857Y-112344438D01*
X149621238Y-113296819D02*
X149049810Y-113296819D01*
X149335524Y-113296819D02*
X149335524Y-112296819D01*
X149335524Y-112296819D02*
X149240286Y-112439676D01*
X149240286Y-112439676D02*
X149145048Y-112534914D01*
X149145048Y-112534914D02*
X149049810Y-112582533D01*
X134916057Y-93760238D02*
X134868438Y-93855476D01*
X134868438Y-93855476D02*
X134773200Y-93950714D01*
X134773200Y-93950714D02*
X134630342Y-94093571D01*
X134630342Y-94093571D02*
X134582723Y-94188809D01*
X134582723Y-94188809D02*
X134582723Y-94284047D01*
X134820819Y-94236428D02*
X134773200Y-94331666D01*
X134773200Y-94331666D02*
X134677961Y-94426904D01*
X134677961Y-94426904D02*
X134487485Y-94474523D01*
X134487485Y-94474523D02*
X134154152Y-94474523D01*
X134154152Y-94474523D02*
X133963676Y-94426904D01*
X133963676Y-94426904D02*
X133868438Y-94331666D01*
X133868438Y-94331666D02*
X133820819Y-94236428D01*
X133820819Y-94236428D02*
X133820819Y-94045952D01*
X133820819Y-94045952D02*
X133868438Y-93950714D01*
X133868438Y-93950714D02*
X133963676Y-93855476D01*
X133963676Y-93855476D02*
X134154152Y-93807857D01*
X134154152Y-93807857D02*
X134487485Y-93807857D01*
X134487485Y-93807857D02*
X134677961Y-93855476D01*
X134677961Y-93855476D02*
X134773200Y-93950714D01*
X134773200Y-93950714D02*
X134820819Y-94045952D01*
X134820819Y-94045952D02*
X134820819Y-94236428D01*
X134820819Y-92855476D02*
X134820819Y-93426904D01*
X134820819Y-93141190D02*
X133820819Y-93141190D01*
X133820819Y-93141190D02*
X133963676Y-93236428D01*
X133963676Y-93236428D02*
X134058914Y-93331666D01*
X134058914Y-93331666D02*
X134106533Y-93426904D01*
X154900333Y-102120819D02*
X154567000Y-101644628D01*
X154328905Y-102120819D02*
X154328905Y-101120819D01*
X154328905Y-101120819D02*
X154709857Y-101120819D01*
X154709857Y-101120819D02*
X154805095Y-101168438D01*
X154805095Y-101168438D02*
X154852714Y-101216057D01*
X154852714Y-101216057D02*
X154900333Y-101311295D01*
X154900333Y-101311295D02*
X154900333Y-101454152D01*
X154900333Y-101454152D02*
X154852714Y-101549390D01*
X154852714Y-101549390D02*
X154805095Y-101597009D01*
X154805095Y-101597009D02*
X154709857Y-101644628D01*
X154709857Y-101644628D02*
X154328905Y-101644628D01*
X155757476Y-101120819D02*
X155567000Y-101120819D01*
X155567000Y-101120819D02*
X155471762Y-101168438D01*
X155471762Y-101168438D02*
X155424143Y-101216057D01*
X155424143Y-101216057D02*
X155328905Y-101358914D01*
X155328905Y-101358914D02*
X155281286Y-101549390D01*
X155281286Y-101549390D02*
X155281286Y-101930342D01*
X155281286Y-101930342D02*
X155328905Y-102025580D01*
X155328905Y-102025580D02*
X155376524Y-102073200D01*
X155376524Y-102073200D02*
X155471762Y-102120819D01*
X155471762Y-102120819D02*
X155662238Y-102120819D01*
X155662238Y-102120819D02*
X155757476Y-102073200D01*
X155757476Y-102073200D02*
X155805095Y-102025580D01*
X155805095Y-102025580D02*
X155852714Y-101930342D01*
X155852714Y-101930342D02*
X155852714Y-101692247D01*
X155852714Y-101692247D02*
X155805095Y-101597009D01*
X155805095Y-101597009D02*
X155757476Y-101549390D01*
X155757476Y-101549390D02*
X155662238Y-101501771D01*
X155662238Y-101501771D02*
X155471762Y-101501771D01*
X155471762Y-101501771D02*
X155376524Y-101549390D01*
X155376524Y-101549390D02*
X155328905Y-101597009D01*
X155328905Y-101597009D02*
X155281286Y-101692247D01*
X154932142Y-87388819D02*
X154598809Y-86912628D01*
X154360714Y-87388819D02*
X154360714Y-86388819D01*
X154360714Y-86388819D02*
X154741666Y-86388819D01*
X154741666Y-86388819D02*
X154836904Y-86436438D01*
X154836904Y-86436438D02*
X154884523Y-86484057D01*
X154884523Y-86484057D02*
X154932142Y-86579295D01*
X154932142Y-86579295D02*
X154932142Y-86722152D01*
X154932142Y-86722152D02*
X154884523Y-86817390D01*
X154884523Y-86817390D02*
X154836904Y-86865009D01*
X154836904Y-86865009D02*
X154741666Y-86912628D01*
X154741666Y-86912628D02*
X154360714Y-86912628D01*
X155884523Y-87388819D02*
X155313095Y-87388819D01*
X155598809Y-87388819D02*
X155598809Y-86388819D01*
X155598809Y-86388819D02*
X155503571Y-86531676D01*
X155503571Y-86531676D02*
X155408333Y-86626914D01*
X155408333Y-86626914D02*
X155313095Y-86674533D01*
X156217857Y-86388819D02*
X156836904Y-86388819D01*
X156836904Y-86388819D02*
X156503571Y-86769771D01*
X156503571Y-86769771D02*
X156646428Y-86769771D01*
X156646428Y-86769771D02*
X156741666Y-86817390D01*
X156741666Y-86817390D02*
X156789285Y-86865009D01*
X156789285Y-86865009D02*
X156836904Y-86960247D01*
X156836904Y-86960247D02*
X156836904Y-87198342D01*
X156836904Y-87198342D02*
X156789285Y-87293580D01*
X156789285Y-87293580D02*
X156741666Y-87341200D01*
X156741666Y-87341200D02*
X156646428Y-87388819D01*
X156646428Y-87388819D02*
X156360714Y-87388819D01*
X156360714Y-87388819D02*
X156265476Y-87341200D01*
X156265476Y-87341200D02*
X156217857Y-87293580D01*
X154900333Y-96945580D02*
X154852714Y-96993200D01*
X154852714Y-96993200D02*
X154709857Y-97040819D01*
X154709857Y-97040819D02*
X154614619Y-97040819D01*
X154614619Y-97040819D02*
X154471762Y-96993200D01*
X154471762Y-96993200D02*
X154376524Y-96897961D01*
X154376524Y-96897961D02*
X154328905Y-96802723D01*
X154328905Y-96802723D02*
X154281286Y-96612247D01*
X154281286Y-96612247D02*
X154281286Y-96469390D01*
X154281286Y-96469390D02*
X154328905Y-96278914D01*
X154328905Y-96278914D02*
X154376524Y-96183676D01*
X154376524Y-96183676D02*
X154471762Y-96088438D01*
X154471762Y-96088438D02*
X154614619Y-96040819D01*
X154614619Y-96040819D02*
X154709857Y-96040819D01*
X154709857Y-96040819D02*
X154852714Y-96088438D01*
X154852714Y-96088438D02*
X154900333Y-96136057D01*
X155281286Y-96136057D02*
X155328905Y-96088438D01*
X155328905Y-96088438D02*
X155424143Y-96040819D01*
X155424143Y-96040819D02*
X155662238Y-96040819D01*
X155662238Y-96040819D02*
X155757476Y-96088438D01*
X155757476Y-96088438D02*
X155805095Y-96136057D01*
X155805095Y-96136057D02*
X155852714Y-96231295D01*
X155852714Y-96231295D02*
X155852714Y-96326533D01*
X155852714Y-96326533D02*
X155805095Y-96469390D01*
X155805095Y-96469390D02*
X155233667Y-97040819D01*
X155233667Y-97040819D02*
X155852714Y-97040819D01*
X154805142Y-89420819D02*
X154471809Y-88944628D01*
X154233714Y-89420819D02*
X154233714Y-88420819D01*
X154233714Y-88420819D02*
X154614666Y-88420819D01*
X154614666Y-88420819D02*
X154709904Y-88468438D01*
X154709904Y-88468438D02*
X154757523Y-88516057D01*
X154757523Y-88516057D02*
X154805142Y-88611295D01*
X154805142Y-88611295D02*
X154805142Y-88754152D01*
X154805142Y-88754152D02*
X154757523Y-88849390D01*
X154757523Y-88849390D02*
X154709904Y-88897009D01*
X154709904Y-88897009D02*
X154614666Y-88944628D01*
X154614666Y-88944628D02*
X154233714Y-88944628D01*
X155757523Y-89420819D02*
X155186095Y-89420819D01*
X155471809Y-89420819D02*
X155471809Y-88420819D01*
X155471809Y-88420819D02*
X155376571Y-88563676D01*
X155376571Y-88563676D02*
X155281333Y-88658914D01*
X155281333Y-88658914D02*
X155186095Y-88706533D01*
X156138476Y-88516057D02*
X156186095Y-88468438D01*
X156186095Y-88468438D02*
X156281333Y-88420819D01*
X156281333Y-88420819D02*
X156519428Y-88420819D01*
X156519428Y-88420819D02*
X156614666Y-88468438D01*
X156614666Y-88468438D02*
X156662285Y-88516057D01*
X156662285Y-88516057D02*
X156709904Y-88611295D01*
X156709904Y-88611295D02*
X156709904Y-88706533D01*
X156709904Y-88706533D02*
X156662285Y-88849390D01*
X156662285Y-88849390D02*
X156090857Y-89420819D01*
X156090857Y-89420819D02*
X156709904Y-89420819D01*
X135106580Y-102467666D02*
X135154200Y-102515285D01*
X135154200Y-102515285D02*
X135201819Y-102658142D01*
X135201819Y-102658142D02*
X135201819Y-102753380D01*
X135201819Y-102753380D02*
X135154200Y-102896237D01*
X135154200Y-102896237D02*
X135058961Y-102991475D01*
X135058961Y-102991475D02*
X134963723Y-103039094D01*
X134963723Y-103039094D02*
X134773247Y-103086713D01*
X134773247Y-103086713D02*
X134630390Y-103086713D01*
X134630390Y-103086713D02*
X134439914Y-103039094D01*
X134439914Y-103039094D02*
X134344676Y-102991475D01*
X134344676Y-102991475D02*
X134249438Y-102896237D01*
X134249438Y-102896237D02*
X134201819Y-102753380D01*
X134201819Y-102753380D02*
X134201819Y-102658142D01*
X134201819Y-102658142D02*
X134249438Y-102515285D01*
X134249438Y-102515285D02*
X134297057Y-102467666D01*
X134535152Y-101610523D02*
X135201819Y-101610523D01*
X134154200Y-101848618D02*
X134868485Y-102086713D01*
X134868485Y-102086713D02*
X134868485Y-101467666D01*
X135723333Y-97707580D02*
X135675714Y-97755200D01*
X135675714Y-97755200D02*
X135532857Y-97802819D01*
X135532857Y-97802819D02*
X135437619Y-97802819D01*
X135437619Y-97802819D02*
X135294762Y-97755200D01*
X135294762Y-97755200D02*
X135199524Y-97659961D01*
X135199524Y-97659961D02*
X135151905Y-97564723D01*
X135151905Y-97564723D02*
X135104286Y-97374247D01*
X135104286Y-97374247D02*
X135104286Y-97231390D01*
X135104286Y-97231390D02*
X135151905Y-97040914D01*
X135151905Y-97040914D02*
X135199524Y-96945676D01*
X135199524Y-96945676D02*
X135294762Y-96850438D01*
X135294762Y-96850438D02*
X135437619Y-96802819D01*
X135437619Y-96802819D02*
X135532857Y-96802819D01*
X135532857Y-96802819D02*
X135675714Y-96850438D01*
X135675714Y-96850438D02*
X135723333Y-96898057D01*
X136056667Y-96802819D02*
X136675714Y-96802819D01*
X136675714Y-96802819D02*
X136342381Y-97183771D01*
X136342381Y-97183771D02*
X136485238Y-97183771D01*
X136485238Y-97183771D02*
X136580476Y-97231390D01*
X136580476Y-97231390D02*
X136628095Y-97279009D01*
X136628095Y-97279009D02*
X136675714Y-97374247D01*
X136675714Y-97374247D02*
X136675714Y-97612342D01*
X136675714Y-97612342D02*
X136628095Y-97707580D01*
X136628095Y-97707580D02*
X136580476Y-97755200D01*
X136580476Y-97755200D02*
X136485238Y-97802819D01*
X136485238Y-97802819D02*
X136199524Y-97802819D01*
X136199524Y-97802819D02*
X136104286Y-97755200D01*
X136104286Y-97755200D02*
X136056667Y-97707580D01*
X137016833Y-93660819D02*
X136683500Y-93184628D01*
X136445405Y-93660819D02*
X136445405Y-92660819D01*
X136445405Y-92660819D02*
X136826357Y-92660819D01*
X136826357Y-92660819D02*
X136921595Y-92708438D01*
X136921595Y-92708438D02*
X136969214Y-92756057D01*
X136969214Y-92756057D02*
X137016833Y-92851295D01*
X137016833Y-92851295D02*
X137016833Y-92994152D01*
X137016833Y-92994152D02*
X136969214Y-93089390D01*
X136969214Y-93089390D02*
X136921595Y-93137009D01*
X136921595Y-93137009D02*
X136826357Y-93184628D01*
X136826357Y-93184628D02*
X136445405Y-93184628D01*
X137350167Y-92660819D02*
X137969214Y-92660819D01*
X137969214Y-92660819D02*
X137635881Y-93041771D01*
X137635881Y-93041771D02*
X137778738Y-93041771D01*
X137778738Y-93041771D02*
X137873976Y-93089390D01*
X137873976Y-93089390D02*
X137921595Y-93137009D01*
X137921595Y-93137009D02*
X137969214Y-93232247D01*
X137969214Y-93232247D02*
X137969214Y-93470342D01*
X137969214Y-93470342D02*
X137921595Y-93565580D01*
X137921595Y-93565580D02*
X137873976Y-93613200D01*
X137873976Y-93613200D02*
X137778738Y-93660819D01*
X137778738Y-93660819D02*
X137493024Y-93660819D01*
X137493024Y-93660819D02*
X137397786Y-93613200D01*
X137397786Y-93613200D02*
X137350167Y-93565580D01*
X135074819Y-100181666D02*
X134598628Y-100514999D01*
X135074819Y-100753094D02*
X134074819Y-100753094D01*
X134074819Y-100753094D02*
X134074819Y-100372142D01*
X134074819Y-100372142D02*
X134122438Y-100276904D01*
X134122438Y-100276904D02*
X134170057Y-100229285D01*
X134170057Y-100229285D02*
X134265295Y-100181666D01*
X134265295Y-100181666D02*
X134408152Y-100181666D01*
X134408152Y-100181666D02*
X134503390Y-100229285D01*
X134503390Y-100229285D02*
X134551009Y-100276904D01*
X134551009Y-100276904D02*
X134598628Y-100372142D01*
X134598628Y-100372142D02*
X134598628Y-100753094D01*
X135074819Y-99229285D02*
X135074819Y-99800713D01*
X135074819Y-99514999D02*
X134074819Y-99514999D01*
X134074819Y-99514999D02*
X134217676Y-99610237D01*
X134217676Y-99610237D02*
X134312914Y-99705475D01*
X134312914Y-99705475D02*
X134360533Y-99800713D01*
X137882333Y-84626580D02*
X137834714Y-84674200D01*
X137834714Y-84674200D02*
X137691857Y-84721819D01*
X137691857Y-84721819D02*
X137596619Y-84721819D01*
X137596619Y-84721819D02*
X137453762Y-84674200D01*
X137453762Y-84674200D02*
X137358524Y-84578961D01*
X137358524Y-84578961D02*
X137310905Y-84483723D01*
X137310905Y-84483723D02*
X137263286Y-84293247D01*
X137263286Y-84293247D02*
X137263286Y-84150390D01*
X137263286Y-84150390D02*
X137310905Y-83959914D01*
X137310905Y-83959914D02*
X137358524Y-83864676D01*
X137358524Y-83864676D02*
X137453762Y-83769438D01*
X137453762Y-83769438D02*
X137596619Y-83721819D01*
X137596619Y-83721819D02*
X137691857Y-83721819D01*
X137691857Y-83721819D02*
X137834714Y-83769438D01*
X137834714Y-83769438D02*
X137882333Y-83817057D01*
X138787095Y-83721819D02*
X138310905Y-83721819D01*
X138310905Y-83721819D02*
X138263286Y-84198009D01*
X138263286Y-84198009D02*
X138310905Y-84150390D01*
X138310905Y-84150390D02*
X138406143Y-84102771D01*
X138406143Y-84102771D02*
X138644238Y-84102771D01*
X138644238Y-84102771D02*
X138739476Y-84150390D01*
X138739476Y-84150390D02*
X138787095Y-84198009D01*
X138787095Y-84198009D02*
X138834714Y-84293247D01*
X138834714Y-84293247D02*
X138834714Y-84531342D01*
X138834714Y-84531342D02*
X138787095Y-84626580D01*
X138787095Y-84626580D02*
X138739476Y-84674200D01*
X138739476Y-84674200D02*
X138644238Y-84721819D01*
X138644238Y-84721819D02*
X138406143Y-84721819D01*
X138406143Y-84721819D02*
X138310905Y-84674200D01*
X138310905Y-84674200D02*
X138263286Y-84626580D01*
X129881333Y-92087819D02*
X129548000Y-91611628D01*
X129309905Y-92087819D02*
X129309905Y-91087819D01*
X129309905Y-91087819D02*
X129690857Y-91087819D01*
X129690857Y-91087819D02*
X129786095Y-91135438D01*
X129786095Y-91135438D02*
X129833714Y-91183057D01*
X129833714Y-91183057D02*
X129881333Y-91278295D01*
X129881333Y-91278295D02*
X129881333Y-91421152D01*
X129881333Y-91421152D02*
X129833714Y-91516390D01*
X129833714Y-91516390D02*
X129786095Y-91564009D01*
X129786095Y-91564009D02*
X129690857Y-91611628D01*
X129690857Y-91611628D02*
X129309905Y-91611628D01*
X130786095Y-91087819D02*
X130309905Y-91087819D01*
X130309905Y-91087819D02*
X130262286Y-91564009D01*
X130262286Y-91564009D02*
X130309905Y-91516390D01*
X130309905Y-91516390D02*
X130405143Y-91468771D01*
X130405143Y-91468771D02*
X130643238Y-91468771D01*
X130643238Y-91468771D02*
X130738476Y-91516390D01*
X130738476Y-91516390D02*
X130786095Y-91564009D01*
X130786095Y-91564009D02*
X130833714Y-91659247D01*
X130833714Y-91659247D02*
X130833714Y-91897342D01*
X130833714Y-91897342D02*
X130786095Y-91992580D01*
X130786095Y-91992580D02*
X130738476Y-92040200D01*
X130738476Y-92040200D02*
X130643238Y-92087819D01*
X130643238Y-92087819D02*
X130405143Y-92087819D01*
X130405143Y-92087819D02*
X130309905Y-92040200D01*
X130309905Y-92040200D02*
X130262286Y-91992580D01*
X131405333Y-107200819D02*
X131072000Y-106724628D01*
X130833905Y-107200819D02*
X130833905Y-106200819D01*
X130833905Y-106200819D02*
X131214857Y-106200819D01*
X131214857Y-106200819D02*
X131310095Y-106248438D01*
X131310095Y-106248438D02*
X131357714Y-106296057D01*
X131357714Y-106296057D02*
X131405333Y-106391295D01*
X131405333Y-106391295D02*
X131405333Y-106534152D01*
X131405333Y-106534152D02*
X131357714Y-106629390D01*
X131357714Y-106629390D02*
X131310095Y-106677009D01*
X131310095Y-106677009D02*
X131214857Y-106724628D01*
X131214857Y-106724628D02*
X130833905Y-106724628D01*
X131786286Y-106296057D02*
X131833905Y-106248438D01*
X131833905Y-106248438D02*
X131929143Y-106200819D01*
X131929143Y-106200819D02*
X132167238Y-106200819D01*
X132167238Y-106200819D02*
X132262476Y-106248438D01*
X132262476Y-106248438D02*
X132310095Y-106296057D01*
X132310095Y-106296057D02*
X132357714Y-106391295D01*
X132357714Y-106391295D02*
X132357714Y-106486533D01*
X132357714Y-106486533D02*
X132310095Y-106629390D01*
X132310095Y-106629390D02*
X131738667Y-107200819D01*
X131738667Y-107200819D02*
X132357714Y-107200819D01*
X148042333Y-84799819D02*
X147709000Y-84323628D01*
X147470905Y-84799819D02*
X147470905Y-83799819D01*
X147470905Y-83799819D02*
X147851857Y-83799819D01*
X147851857Y-83799819D02*
X147947095Y-83847438D01*
X147947095Y-83847438D02*
X147994714Y-83895057D01*
X147994714Y-83895057D02*
X148042333Y-83990295D01*
X148042333Y-83990295D02*
X148042333Y-84133152D01*
X148042333Y-84133152D02*
X147994714Y-84228390D01*
X147994714Y-84228390D02*
X147947095Y-84276009D01*
X147947095Y-84276009D02*
X147851857Y-84323628D01*
X147851857Y-84323628D02*
X147470905Y-84323628D01*
X148613762Y-84228390D02*
X148518524Y-84180771D01*
X148518524Y-84180771D02*
X148470905Y-84133152D01*
X148470905Y-84133152D02*
X148423286Y-84037914D01*
X148423286Y-84037914D02*
X148423286Y-83990295D01*
X148423286Y-83990295D02*
X148470905Y-83895057D01*
X148470905Y-83895057D02*
X148518524Y-83847438D01*
X148518524Y-83847438D02*
X148613762Y-83799819D01*
X148613762Y-83799819D02*
X148804238Y-83799819D01*
X148804238Y-83799819D02*
X148899476Y-83847438D01*
X148899476Y-83847438D02*
X148947095Y-83895057D01*
X148947095Y-83895057D02*
X148994714Y-83990295D01*
X148994714Y-83990295D02*
X148994714Y-84037914D01*
X148994714Y-84037914D02*
X148947095Y-84133152D01*
X148947095Y-84133152D02*
X148899476Y-84180771D01*
X148899476Y-84180771D02*
X148804238Y-84228390D01*
X148804238Y-84228390D02*
X148613762Y-84228390D01*
X148613762Y-84228390D02*
X148518524Y-84276009D01*
X148518524Y-84276009D02*
X148470905Y-84323628D01*
X148470905Y-84323628D02*
X148423286Y-84418866D01*
X148423286Y-84418866D02*
X148423286Y-84609342D01*
X148423286Y-84609342D02*
X148470905Y-84704580D01*
X148470905Y-84704580D02*
X148518524Y-84752200D01*
X148518524Y-84752200D02*
X148613762Y-84799819D01*
X148613762Y-84799819D02*
X148804238Y-84799819D01*
X148804238Y-84799819D02*
X148899476Y-84752200D01*
X148899476Y-84752200D02*
X148947095Y-84704580D01*
X148947095Y-84704580D02*
X148994714Y-84609342D01*
X148994714Y-84609342D02*
X148994714Y-84418866D01*
X148994714Y-84418866D02*
X148947095Y-84323628D01*
X148947095Y-84323628D02*
X148899476Y-84276009D01*
X148899476Y-84276009D02*
X148804238Y-84228390D01*
X154900333Y-99580819D02*
X154567000Y-99104628D01*
X154328905Y-99580819D02*
X154328905Y-98580819D01*
X154328905Y-98580819D02*
X154709857Y-98580819D01*
X154709857Y-98580819D02*
X154805095Y-98628438D01*
X154805095Y-98628438D02*
X154852714Y-98676057D01*
X154852714Y-98676057D02*
X154900333Y-98771295D01*
X154900333Y-98771295D02*
X154900333Y-98914152D01*
X154900333Y-98914152D02*
X154852714Y-99009390D01*
X154852714Y-99009390D02*
X154805095Y-99057009D01*
X154805095Y-99057009D02*
X154709857Y-99104628D01*
X154709857Y-99104628D02*
X154328905Y-99104628D01*
X155233667Y-98580819D02*
X155900333Y-98580819D01*
X155900333Y-98580819D02*
X155471762Y-99580819D01*
X143891095Y-86090819D02*
X143891095Y-86900342D01*
X143891095Y-86900342D02*
X143938714Y-86995580D01*
X143938714Y-86995580D02*
X143986333Y-87043200D01*
X143986333Y-87043200D02*
X144081571Y-87090819D01*
X144081571Y-87090819D02*
X144272047Y-87090819D01*
X144272047Y-87090819D02*
X144367285Y-87043200D01*
X144367285Y-87043200D02*
X144414904Y-86995580D01*
X144414904Y-86995580D02*
X144462523Y-86900342D01*
X144462523Y-86900342D02*
X144462523Y-86090819D01*
X145462523Y-87090819D02*
X144891095Y-87090819D01*
X145176809Y-87090819D02*
X145176809Y-86090819D01*
X145176809Y-86090819D02*
X145081571Y-86233676D01*
X145081571Y-86233676D02*
X144986333Y-86328914D01*
X144986333Y-86328914D02*
X144891095Y-86376533D01*
X128611333Y-100850819D02*
X128278000Y-100374628D01*
X128039905Y-100850819D02*
X128039905Y-99850819D01*
X128039905Y-99850819D02*
X128420857Y-99850819D01*
X128420857Y-99850819D02*
X128516095Y-99898438D01*
X128516095Y-99898438D02*
X128563714Y-99946057D01*
X128563714Y-99946057D02*
X128611333Y-100041295D01*
X128611333Y-100041295D02*
X128611333Y-100184152D01*
X128611333Y-100184152D02*
X128563714Y-100279390D01*
X128563714Y-100279390D02*
X128516095Y-100327009D01*
X128516095Y-100327009D02*
X128420857Y-100374628D01*
X128420857Y-100374628D02*
X128039905Y-100374628D01*
X129468476Y-100184152D02*
X129468476Y-100850819D01*
X129230381Y-99803200D02*
X128992286Y-100517485D01*
X128992286Y-100517485D02*
X129611333Y-100517485D01*
X136376580Y-94974666D02*
X136424200Y-95022285D01*
X136424200Y-95022285D02*
X136471819Y-95165142D01*
X136471819Y-95165142D02*
X136471819Y-95260380D01*
X136471819Y-95260380D02*
X136424200Y-95403237D01*
X136424200Y-95403237D02*
X136328961Y-95498475D01*
X136328961Y-95498475D02*
X136233723Y-95546094D01*
X136233723Y-95546094D02*
X136043247Y-95593713D01*
X136043247Y-95593713D02*
X135900390Y-95593713D01*
X135900390Y-95593713D02*
X135709914Y-95546094D01*
X135709914Y-95546094D02*
X135614676Y-95498475D01*
X135614676Y-95498475D02*
X135519438Y-95403237D01*
X135519438Y-95403237D02*
X135471819Y-95260380D01*
X135471819Y-95260380D02*
X135471819Y-95165142D01*
X135471819Y-95165142D02*
X135519438Y-95022285D01*
X135519438Y-95022285D02*
X135567057Y-94974666D01*
X136471819Y-94022285D02*
X136471819Y-94593713D01*
X136471819Y-94307999D02*
X135471819Y-94307999D01*
X135471819Y-94307999D02*
X135614676Y-94403237D01*
X135614676Y-94403237D02*
X135709914Y-94498475D01*
X135709914Y-94498475D02*
X135757533Y-94593713D01*
X154900333Y-92087819D02*
X154567000Y-91611628D01*
X154328905Y-92087819D02*
X154328905Y-91087819D01*
X154328905Y-91087819D02*
X154709857Y-91087819D01*
X154709857Y-91087819D02*
X154805095Y-91135438D01*
X154805095Y-91135438D02*
X154852714Y-91183057D01*
X154852714Y-91183057D02*
X154900333Y-91278295D01*
X154900333Y-91278295D02*
X154900333Y-91421152D01*
X154900333Y-91421152D02*
X154852714Y-91516390D01*
X154852714Y-91516390D02*
X154805095Y-91564009D01*
X154805095Y-91564009D02*
X154709857Y-91611628D01*
X154709857Y-91611628D02*
X154328905Y-91611628D01*
X155376524Y-92087819D02*
X155567000Y-92087819D01*
X155567000Y-92087819D02*
X155662238Y-92040200D01*
X155662238Y-92040200D02*
X155709857Y-91992580D01*
X155709857Y-91992580D02*
X155805095Y-91849723D01*
X155805095Y-91849723D02*
X155852714Y-91659247D01*
X155852714Y-91659247D02*
X155852714Y-91278295D01*
X155852714Y-91278295D02*
X155805095Y-91183057D01*
X155805095Y-91183057D02*
X155757476Y-91135438D01*
X155757476Y-91135438D02*
X155662238Y-91087819D01*
X155662238Y-91087819D02*
X155471762Y-91087819D01*
X155471762Y-91087819D02*
X155376524Y-91135438D01*
X155376524Y-91135438D02*
X155328905Y-91183057D01*
X155328905Y-91183057D02*
X155281286Y-91278295D01*
X155281286Y-91278295D02*
X155281286Y-91516390D01*
X155281286Y-91516390D02*
X155328905Y-91611628D01*
X155328905Y-91611628D02*
X155376524Y-91659247D01*
X155376524Y-91659247D02*
X155471762Y-91706866D01*
X155471762Y-91706866D02*
X155662238Y-91706866D01*
X155662238Y-91706866D02*
X155757476Y-91659247D01*
X155757476Y-91659247D02*
X155805095Y-91611628D01*
X155805095Y-91611628D02*
X155852714Y-91516390D01*
X154932142Y-104660819D02*
X154598809Y-104184628D01*
X154360714Y-104660819D02*
X154360714Y-103660819D01*
X154360714Y-103660819D02*
X154741666Y-103660819D01*
X154741666Y-103660819D02*
X154836904Y-103708438D01*
X154836904Y-103708438D02*
X154884523Y-103756057D01*
X154884523Y-103756057D02*
X154932142Y-103851295D01*
X154932142Y-103851295D02*
X154932142Y-103994152D01*
X154932142Y-103994152D02*
X154884523Y-104089390D01*
X154884523Y-104089390D02*
X154836904Y-104137009D01*
X154836904Y-104137009D02*
X154741666Y-104184628D01*
X154741666Y-104184628D02*
X154360714Y-104184628D01*
X155884523Y-104660819D02*
X155313095Y-104660819D01*
X155598809Y-104660819D02*
X155598809Y-103660819D01*
X155598809Y-103660819D02*
X155503571Y-103803676D01*
X155503571Y-103803676D02*
X155408333Y-103898914D01*
X155408333Y-103898914D02*
X155313095Y-103946533D01*
X156836904Y-104660819D02*
X156265476Y-104660819D01*
X156551190Y-104660819D02*
X156551190Y-103660819D01*
X156551190Y-103660819D02*
X156455952Y-103803676D01*
X156455952Y-103803676D02*
X156360714Y-103898914D01*
X156360714Y-103898914D02*
X156265476Y-103946533D01*
X126539666Y-90028855D02*
X126539666Y-90743140D01*
X126539666Y-90743140D02*
X126492047Y-90885997D01*
X126492047Y-90885997D02*
X126396809Y-90981236D01*
X126396809Y-90981236D02*
X126253952Y-91028855D01*
X126253952Y-91028855D02*
X126158714Y-91028855D01*
X127539666Y-91028855D02*
X126968238Y-91028855D01*
X127253952Y-91028855D02*
X127253952Y-90028855D01*
X127253952Y-90028855D02*
X127158714Y-90171712D01*
X127158714Y-90171712D02*
X127063476Y-90266950D01*
X127063476Y-90266950D02*
X126968238Y-90314569D01*
D11*
X158507000Y-82097000D02*
X158507000Y-82047000D01*
X158507000Y-82047000D02*
X156657000Y-82047000D01*
X158507000Y-83947000D02*
X158507000Y-82097000D01*
X156657000Y-83947000D02*
X158507000Y-83947000D01*
X156657000Y-82047000D02*
X156657000Y-83947000D01*
X155459000Y-106227000D02*
X155459000Y-106177000D01*
X155459000Y-106177000D02*
X153609000Y-106177000D01*
X155459000Y-108077000D02*
X155459000Y-106227000D01*
X153609000Y-108077000D02*
X155459000Y-108077000D01*
X153609000Y-106177000D02*
X153609000Y-108077000D01*
X149672000Y-106177000D02*
X149672000Y-108077000D01*
X149672000Y-108077000D02*
X151522000Y-108077000D01*
X151522000Y-108077000D02*
X151522000Y-106227000D01*
X151522000Y-106177000D02*
X149672000Y-106177000D01*
X151522000Y-106227000D02*
X151522000Y-106177000D01*
X136028000Y-106989000D02*
X136028000Y-106939000D01*
X136028000Y-106939000D02*
X134178000Y-106939000D01*
X136028000Y-108839000D02*
X136028000Y-106989000D01*
X134178000Y-108839000D02*
X136028000Y-108839000D01*
X134178000Y-106939000D02*
X134178000Y-108839000D01*
X139076000Y-106989000D02*
X139076000Y-106939000D01*
X139076000Y-106939000D02*
X137226000Y-106939000D01*
X139076000Y-108839000D02*
X139076000Y-106989000D01*
X137226000Y-108839000D02*
X139076000Y-108839000D01*
X137226000Y-106939000D02*
X137226000Y-108839000D01*
X150295500Y-93046000D02*
X150295500Y-95046000D01*
X150295500Y-95046000D02*
X153695500Y-95046000D01*
X153695500Y-93046000D02*
X150295500Y-93046000D01*
X153695500Y-95046000D02*
X153695500Y-93046000D01*
X145833000Y-107427000D02*
X142964000Y-107427000D01*
X145519000Y-107427000D02*
X143279000Y-107427000D01*
X145399000Y-108298000D02*
X145899000Y-108298000D01*
X143399000Y-108298000D02*
X142899000Y-108298000D01*
X147669000Y-108473000D02*
X147669000Y-111168000D01*
X141129000Y-108473000D02*
X141129000Y-111168000D01*
X144399000Y-109048000D02*
X144399000Y-108548000D01*
X147669000Y-111168000D02*
X141129000Y-111168000D01*
X145519000Y-111168000D02*
X143279000Y-111168000D01*
X145399000Y-108048000D02*
X143399000Y-108048000D01*
X143399000Y-108048000D02*
X143399000Y-108548000D01*
X143399000Y-108548000D02*
X145399000Y-108548000D01*
X145399000Y-108548000D02*
X145399000Y-108048000D01*
X144499000Y-108748000D02*
X144299000Y-108748000D01*
X144399000Y-108548000D01*
X144499000Y-108748000D01*
G36*
X144499000Y-108748000D02*
G01*
X144299000Y-108748000D01*
X144399000Y-108548000D01*
X144499000Y-108748000D01*
G37*
X130311000Y-94636000D02*
X130311000Y-98486000D01*
X134610999Y-96576000D02*
G75*
G03*
X133109807Y-94219601I-2599999J0D01*
G01*
X130888955Y-94253369D02*
G75*
G03*
X130311000Y-94636000I1122045J-2322631D01*
G01*
X133109807Y-98932400D02*
G75*
G03*
X134611000Y-96576000I-1098807J2356400D01*
G01*
X130311001Y-98485999D02*
G75*
G03*
X130898736Y-98878382I1699999J1909999D01*
G01*
X153742500Y-102666000D02*
X153742500Y-100666000D01*
X153742500Y-100666000D02*
X150342500Y-100666000D01*
X150342500Y-102666000D02*
X153742500Y-102666000D01*
X150342500Y-100666000D02*
X150342500Y-102666000D01*
X153742500Y-87680000D02*
X153742500Y-85680000D01*
X153742500Y-85680000D02*
X150342500Y-85680000D01*
X150342500Y-87680000D02*
X153742500Y-87680000D01*
X150342500Y-85680000D02*
X150342500Y-87680000D01*
X152280252Y-97321000D02*
X151757748Y-97321000D01*
X152280252Y-95851000D02*
X151757748Y-95851000D01*
X153719000Y-89966000D02*
X153719000Y-87966000D01*
X153719000Y-87966000D02*
X150319000Y-87966000D01*
X150319000Y-89966000D02*
X153719000Y-89966000D01*
X150319000Y-87966000D02*
X150319000Y-89966000D01*
X134832000Y-103417000D02*
X134832000Y-103662000D01*
X134832000Y-103417000D02*
X138472000Y-103417000D01*
X134832000Y-105512000D02*
X134832000Y-105757000D01*
X134832000Y-105757000D02*
X138472000Y-105757000D01*
X138472000Y-103417000D02*
X138472000Y-103662000D01*
X138472000Y-105512000D02*
X138472000Y-105757000D01*
X137487252Y-99861000D02*
X136964748Y-99861000D01*
X137487252Y-98391000D02*
X136964748Y-98391000D01*
X138883500Y-92506000D02*
X138883500Y-90506000D01*
X138883500Y-90506000D02*
X135483500Y-90506000D01*
X135483500Y-92506000D02*
X138883500Y-92506000D01*
X135483500Y-90506000D02*
X135483500Y-92506000D01*
X138963500Y-102412000D02*
X138963500Y-100412000D01*
X138963500Y-100412000D02*
X135563500Y-100412000D01*
X135563500Y-102412000D02*
X138963500Y-102412000D01*
X135563500Y-100412000D02*
X135563500Y-102412000D01*
X138634000Y-89812000D02*
X138634000Y-85072000D01*
X138634000Y-89812000D02*
X131194000Y-89812000D01*
X138634000Y-85072000D02*
X131194000Y-85072000D01*
X131194000Y-89812000D02*
X131194000Y-85072000D01*
X134565500Y-92506000D02*
X134565500Y-90506000D01*
X134565500Y-90506000D02*
X131165500Y-90506000D01*
X131165500Y-92506000D02*
X134565500Y-92506000D01*
X131165500Y-90506000D02*
X131165500Y-92506000D01*
X130507000Y-103587000D02*
X130507000Y-105587000D01*
X130507000Y-105587000D02*
X133907000Y-105587000D01*
X133907000Y-103587000D02*
X130507000Y-103587000D01*
X133907000Y-105587000D02*
X133907000Y-103587000D01*
X146509000Y-85045000D02*
X146509000Y-87045000D01*
X146509000Y-87045000D02*
X149909000Y-87045000D01*
X149909000Y-85045000D02*
X146509000Y-85045000D01*
X149909000Y-87045000D02*
X149909000Y-85045000D01*
X150295500Y-98126000D02*
X150295500Y-100126000D01*
X150295500Y-100126000D02*
X153695500Y-100126000D01*
X153695500Y-98126000D02*
X150295500Y-98126000D01*
X153695500Y-100126000D02*
X153695500Y-98126000D01*
X139403000Y-87576000D02*
X139403000Y-105596000D01*
X139403000Y-105596000D02*
X149903000Y-105596000D01*
X142403000Y-87636000D02*
X142403000Y-105536000D01*
X142403000Y-105536000D02*
X146903000Y-105536000D01*
X143653000Y-87636000D02*
X142403000Y-87636000D01*
X146903000Y-87636000D02*
X145653000Y-87636000D01*
X146903000Y-105536000D02*
X146903000Y-87636000D01*
X149903000Y-87576000D02*
X139403000Y-87576000D01*
X149903000Y-105596000D02*
X149903000Y-87576000D01*
X143653000Y-87636000D02*
G75*
G03*
X145653000Y-87636000I1000000J0D01*
G01*
X130507000Y-101047000D02*
X130507000Y-103047000D01*
X130507000Y-103047000D02*
X133907000Y-103047000D01*
X133907000Y-101047000D02*
X130507000Y-101047000D01*
X133907000Y-103047000D02*
X133907000Y-101047000D01*
X125543000Y-101286000D02*
X126873000Y-101286000D01*
X125543000Y-102616000D02*
X125543000Y-101286000D01*
X125543000Y-103886000D02*
X125543000Y-116646000D01*
X125543000Y-103886000D02*
X128203000Y-103886000D01*
X125543000Y-116646000D02*
X128203000Y-116646000D01*
X128203000Y-103886000D02*
X128203000Y-116646000D01*
X137187000Y-95958252D02*
X137187000Y-95435748D01*
X138657000Y-95958252D02*
X138657000Y-95435748D01*
X153719000Y-92506000D02*
X153719000Y-90506000D01*
X153719000Y-90506000D02*
X150319000Y-90506000D01*
X150319000Y-92506000D02*
X153719000Y-92506000D01*
X150319000Y-90506000D02*
X150319000Y-92506000D01*
X150342500Y-103206000D02*
X150342500Y-105206000D01*
X150342500Y-105206000D02*
X153742500Y-105206000D01*
X153742500Y-103206000D02*
X150342500Y-103206000D01*
X153742500Y-105206000D02*
X153742500Y-103206000D01*
X125543000Y-91574036D02*
X126873000Y-91574036D01*
X125543000Y-92904036D02*
X125543000Y-91574036D01*
X125543000Y-94174036D02*
X125543000Y-99314036D01*
X125543000Y-94174036D02*
X128203000Y-94174036D01*
X125543000Y-99314036D02*
X128203000Y-99314036D01*
X128203000Y-94174036D02*
X128203000Y-99314036D01*
%LPC*%
D12*
X157607000Y-82997000D03*
X154559000Y-107127000D03*
X150622000Y-107127000D03*
X135128000Y-107889000D03*
X138176000Y-107889000D03*
D13*
X151083000Y-94046000D03*
X152908000Y-94046000D03*
D14*
X146899000Y-107548000D03*
X144399000Y-110048000D03*
X141899000Y-107548000D03*
D15*
X132011000Y-94036000D03*
D16*
X132011000Y-96576000D03*
X132011000Y-99116000D03*
D17*
X152955000Y-101666000D03*
X151130000Y-101666000D03*
X152955000Y-86680000D03*
X151130000Y-86680000D03*
D18*
X152969000Y-96586000D03*
X151069000Y-96586000D03*
D17*
X152931500Y-88966000D03*
X151106500Y-88966000D03*
D19*
X135402000Y-104587000D03*
X137902000Y-104587000D03*
D18*
X138176000Y-99126000D03*
X136276000Y-99126000D03*
D17*
X138096000Y-91506000D03*
X136271000Y-91506000D03*
X138176000Y-101412000D03*
X136351000Y-101412000D03*
D19*
X137414000Y-87442000D03*
X132414000Y-87442000D03*
D17*
X133778000Y-91506000D03*
X131953000Y-91506000D03*
D13*
X131294500Y-104587000D03*
X133119500Y-104587000D03*
X147296500Y-86045000D03*
X149121500Y-86045000D03*
X151083000Y-99126000D03*
X152908000Y-99126000D03*
D20*
X140843000Y-88966000D03*
D21*
X140843000Y-91506000D03*
X140843000Y-94046000D03*
X140843000Y-96586000D03*
X140843000Y-99126000D03*
X140843000Y-101666000D03*
X140843000Y-104206000D03*
X148463000Y-104206000D03*
X148463000Y-101666000D03*
X148463000Y-99126000D03*
X148463000Y-96586000D03*
X148463000Y-94046000D03*
X148463000Y-91506000D03*
X148463000Y-88966000D03*
D13*
X131294500Y-102047000D03*
X133119500Y-102047000D03*
D22*
X126873000Y-102616000D03*
D23*
X126873000Y-105156000D03*
X126873000Y-107696000D03*
X126873000Y-110236000D03*
X126873000Y-112776000D03*
X126873000Y-115316000D03*
D24*
X137922000Y-96647000D03*
X137922000Y-94747000D03*
D17*
X152931500Y-91506000D03*
X151106500Y-91506000D03*
X151130000Y-104206000D03*
X152955000Y-104206000D03*
D22*
X126873000Y-92904036D03*
D23*
X126873000Y-95444036D03*
X126873000Y-97984036D03*
%LPD*%
M02*
