M48
; DRILL file {KiCad 7.0.6-0} date 2023 August 18, Friday 21:45:20
; FORMAT={-:-/ absolute / metric / decimal}
; #@! TF.CreationDate,2023-08-18T21:45:20+02:00
; #@! TF.GenerationSoftware,Kicad,Pcbnew,7.0.6-0
; #@! TF.FileFunction,Plated,1,2,PTH
FMAT,2
METRIC
; #@! TA.AperFunction,Plated,PTH,ViaDrill
T1C0.400
; #@! TA.AperFunction,Plated,PTH,ComponentDrill
T2C0.700
; #@! TA.AperFunction,Plated,PTH,ComponentDrill
T3C0.800
; #@! TA.AperFunction,Plated,PTH,ComponentDrill
T4C0.900
; #@! TA.AperFunction,Plated,PTH,ComponentDrill
T5C1.000
%
G90
G05
T1
X129.54Y-83.759
X129.54Y-85.501
X129.54Y-105.603
X130.683Y-100.523
X132.208Y-105.583
X135.346Y-101.412
X136.276Y-97.983
X143.129Y-86.172
X145.288Y-84.14
X147.066Y-82.997
X147.193Y-84.993
X151.003Y-110.937
X151.003Y-113.604
X151.13Y-85.41
X152.908Y-95.443
X153.959Y-88.966
X153.959Y-90.363
X153.959Y-91.506
X155.829Y-90.363
X156.845Y-91.506
X157.671Y-89.029
T2
X135.128Y-107.889
X138.176Y-107.889
X150.622Y-107.127
X154.559Y-107.127
X157.607Y-82.997
T3
X132.011Y-94.036
X132.011Y-96.576
X132.011Y-99.116
X132.414Y-87.442
X135.402Y-104.587
X137.414Y-87.442
X137.902Y-104.587
X140.843Y-88.966
X140.843Y-91.506
X140.843Y-94.046
X140.843Y-96.586
X140.843Y-99.126
X140.843Y-101.666
X140.843Y-104.206
X148.463Y-88.966
X148.463Y-91.506
X148.463Y-94.046
X148.463Y-96.586
X148.463Y-99.126
X148.463Y-101.666
X148.463Y-104.206
T4
X141.899Y-107.548
X144.399Y-110.048
X146.899Y-107.548
T5
X126.873Y-92.904
X126.873Y-95.444
X126.873Y-97.984
X126.873Y-102.616
X126.873Y-105.156
X126.873Y-107.696
X126.873Y-110.236
X126.873Y-112.776
X126.873Y-115.316
T0
M30
