G04 #@! TF.GenerationSoftware,KiCad,Pcbnew,(6.0.8-1)-1*
G04 #@! TF.CreationDate,2023-01-21T16:41:45+01:00*
G04 #@! TF.ProjectId,steiner-parker-vcf,73746569-6e65-4722-9d70-61726b65722d,rev?*
G04 #@! TF.SameCoordinates,Original*
G04 #@! TF.FileFunction,Legend,Top*
G04 #@! TF.FilePolarity,Positive*
%FSLAX46Y46*%
G04 Gerber Fmt 4.6, Leading zero omitted, Abs format (unit mm)*
G04 Created by KiCad (PCBNEW (6.0.8-1)-1) date 2023-01-21 16:41:45*
%MOMM*%
%LPD*%
G01*
G04 APERTURE LIST*
G04 Aperture macros list*
%AMRoundRect*
0 Rectangle with rounded corners*
0 $1 Rounding radius*
0 $2 $3 $4 $5 $6 $7 $8 $9 X,Y pos of 4 corners*
0 Add a 4 corners polygon primitive as box body*
4,1,4,$2,$3,$4,$5,$6,$7,$8,$9,$2,$3,0*
0 Add four circle primitives for the rounded corners*
1,1,$1+$1,$2,$3*
1,1,$1+$1,$4,$5*
1,1,$1+$1,$6,$7*
1,1,$1+$1,$8,$9*
0 Add four rect primitives between the rounded corners*
20,1,$1+$1,$2,$3,$4,$5,0*
20,1,$1+$1,$4,$5,$6,$7,0*
20,1,$1+$1,$6,$7,$8,$9,0*
20,1,$1+$1,$8,$9,$2,$3,0*%
G04 Aperture macros list end*
%ADD10C,0.120000*%
%ADD11C,0.150000*%
%ADD12C,0.250000*%
%ADD13R,1.600000X1.600000*%
%ADD14O,1.600000X1.600000*%
%ADD15C,1.600000*%
%ADD16C,6.000000*%
%ADD17R,1.700000X1.700000*%
%ADD18O,1.700000X1.700000*%
%ADD19R,2.400000X1.600000*%
%ADD20O,2.400000X1.600000*%
%ADD21R,1.500000X1.500000*%
%ADD22C,1.500000*%
%ADD23RoundRect,0.250000X-0.600000X0.600000X-0.600000X-0.600000X0.600000X-0.600000X0.600000X0.600000X0*%
%ADD24C,1.700000*%
%ADD25R,1.560000X1.560000*%
%ADD26C,1.560000*%
%ADD27C,1.440000*%
%ADD28C,2.000000*%
G04 APERTURE END LIST*
D10*
X151384000Y-114554000D02*
X151384000Y-115062000D01*
X148082000Y-114554000D02*
X151384000Y-114554000D01*
D11*
X150328380Y-74834666D02*
X150328380Y-74682285D01*
X150376000Y-74606095D01*
X150471238Y-74529904D01*
X150661714Y-74491809D01*
X150995047Y-74491809D01*
X151185523Y-74529904D01*
X151280761Y-74606095D01*
X151328380Y-74682285D01*
X151328380Y-74834666D01*
X151280761Y-74910857D01*
X151185523Y-74987047D01*
X150995047Y-75025142D01*
X150661714Y-75025142D01*
X150471238Y-74987047D01*
X150376000Y-74910857D01*
X150328380Y-74834666D01*
X150661714Y-73806095D02*
X151328380Y-73806095D01*
X150661714Y-74148952D02*
X151185523Y-74148952D01*
X151280761Y-74110857D01*
X151328380Y-74034666D01*
X151328380Y-73920380D01*
X151280761Y-73844190D01*
X151233142Y-73806095D01*
X150661714Y-73539428D02*
X150661714Y-73234666D01*
X150328380Y-73425142D02*
X151185523Y-73425142D01*
X151280761Y-73387047D01*
X151328380Y-73310857D01*
X151328380Y-73234666D01*
X126658952Y-92162380D02*
X127230380Y-92162380D01*
X126944666Y-93162380D02*
X126944666Y-92162380D01*
X128039904Y-93162380D02*
X127563714Y-93162380D01*
X127563714Y-92162380D01*
X128563714Y-92162380D02*
X128658952Y-92162380D01*
X128754190Y-92210000D01*
X128801809Y-92257619D01*
X128849428Y-92352857D01*
X128897047Y-92543333D01*
X128897047Y-92781428D01*
X128849428Y-92971904D01*
X128801809Y-93067142D01*
X128754190Y-93114761D01*
X128658952Y-93162380D01*
X128563714Y-93162380D01*
X128468476Y-93114761D01*
X128420857Y-93067142D01*
X128373238Y-92971904D01*
X128325619Y-92781428D01*
X128325619Y-92543333D01*
X128373238Y-92352857D01*
X128420857Y-92257619D01*
X128468476Y-92210000D01*
X128563714Y-92162380D01*
X129230380Y-92162380D02*
X129897047Y-92162380D01*
X129468476Y-93162380D01*
X130706571Y-92495714D02*
X130706571Y-93162380D01*
X130468476Y-92114761D02*
X130230380Y-92829047D01*
X130849428Y-92829047D01*
X151312571Y-117246285D02*
X151312571Y-116979619D01*
X151836380Y-116865333D02*
X151836380Y-117246285D01*
X150836380Y-117246285D01*
X150836380Y-116865333D01*
X151836380Y-116598666D02*
X151169714Y-116179619D01*
X151169714Y-116598666D02*
X151836380Y-116179619D01*
X151169714Y-115989142D02*
X151169714Y-115684380D01*
X150836380Y-115874857D02*
X151693523Y-115874857D01*
X151788761Y-115836761D01*
X151836380Y-115760571D01*
X151836380Y-115684380D01*
X151741142Y-115417714D02*
X151788761Y-115379619D01*
X151836380Y-115417714D01*
X151788761Y-115455809D01*
X151741142Y-115417714D01*
X151836380Y-115417714D01*
D12*
X112580666Y-120605351D02*
X112647333Y-120442255D01*
X112647333Y-120156541D01*
X112580666Y-120033922D01*
X112514000Y-119968446D01*
X112380666Y-119894636D01*
X112247333Y-119877970D01*
X112114000Y-119918446D01*
X112047333Y-119967255D01*
X111980666Y-120073208D01*
X111914000Y-120293446D01*
X111847333Y-120399398D01*
X111780666Y-120448208D01*
X111647333Y-120488684D01*
X111514000Y-120472017D01*
X111380666Y-120398208D01*
X111314000Y-120332732D01*
X111247333Y-120210113D01*
X111247333Y-119924398D01*
X111314000Y-119761303D01*
X112647333Y-119413684D02*
X111247333Y-119238684D01*
X111914000Y-119322017D02*
X111914000Y-118636303D01*
X112647333Y-118727970D02*
X111247333Y-118552970D01*
X112647333Y-118156541D02*
X111247333Y-117981541D01*
X112247333Y-117706541D01*
X111247333Y-117181541D01*
X112647333Y-117356541D01*
X111247333Y-115810113D02*
X112647333Y-116899398D01*
X112647333Y-116556541D02*
X112580666Y-116662494D01*
X112447333Y-116760113D01*
X112180666Y-116783922D01*
X111714000Y-116725589D01*
X111447333Y-116635113D01*
X111314000Y-116504160D01*
X111247333Y-116381541D01*
X111247333Y-116152970D01*
X111314000Y-116047017D01*
X111447333Y-115949398D01*
X111714000Y-115925589D01*
X112180666Y-115983922D01*
X112447333Y-116074398D01*
X112580666Y-116205351D01*
X112647333Y-116327970D01*
X112647333Y-116556541D01*
X111914000Y-115436303D02*
X111914000Y-115036303D01*
X112647333Y-114956541D02*
X112647333Y-115527970D01*
X111247333Y-115352970D01*
X111247333Y-114781541D01*
X112647333Y-113756541D02*
X111980666Y-114073208D01*
X112647333Y-114442255D02*
X111247333Y-114267255D01*
X111247333Y-113810113D01*
X111314000Y-113704160D01*
X111380666Y-113655351D01*
X111514000Y-113614875D01*
X111714000Y-113639875D01*
X111847333Y-113713684D01*
X111914000Y-113779160D01*
X111980666Y-113901779D01*
X111980666Y-114358922D01*
X111314000Y-112447017D02*
X111247333Y-112552970D01*
X111247333Y-112724398D01*
X111314000Y-112904160D01*
X111447333Y-113035113D01*
X111580666Y-113108922D01*
X111847333Y-113199398D01*
X112047333Y-113224398D01*
X112314000Y-113200589D01*
X112447333Y-113160113D01*
X112580666Y-113062494D01*
X112647333Y-112899398D01*
X112647333Y-112785113D01*
X112580666Y-112605351D01*
X112514000Y-112539875D01*
X112047333Y-112481541D01*
X112047333Y-112710113D01*
X112647333Y-112042255D02*
X111247333Y-111867255D01*
X111914000Y-111950589D02*
X111914000Y-111264875D01*
X112647333Y-111356541D02*
X111247333Y-111181541D01*
D11*
X151233142Y-81883238D02*
X151280761Y-81921333D01*
X151328380Y-82035619D01*
X151328380Y-82111809D01*
X151280761Y-82226095D01*
X151185523Y-82302285D01*
X151090285Y-82340380D01*
X150899809Y-82378476D01*
X150756952Y-82378476D01*
X150566476Y-82340380D01*
X150471238Y-82302285D01*
X150376000Y-82226095D01*
X150328380Y-82111809D01*
X150328380Y-82035619D01*
X150376000Y-81921333D01*
X150423619Y-81883238D01*
X150328380Y-81654666D02*
X151328380Y-81388000D01*
X150328380Y-81121333D01*
X129198952Y-97242380D02*
X129770380Y-97242380D01*
X129484666Y-98242380D02*
X129484666Y-97242380D01*
X130579904Y-98242380D02*
X130103714Y-98242380D01*
X130103714Y-97242380D01*
X131103714Y-97242380D02*
X131198952Y-97242380D01*
X131294190Y-97290000D01*
X131341809Y-97337619D01*
X131389428Y-97432857D01*
X131437047Y-97623333D01*
X131437047Y-97861428D01*
X131389428Y-98051904D01*
X131341809Y-98147142D01*
X131294190Y-98194761D01*
X131198952Y-98242380D01*
X131103714Y-98242380D01*
X131008476Y-98194761D01*
X130960857Y-98147142D01*
X130913238Y-98051904D01*
X130865619Y-97861428D01*
X130865619Y-97623333D01*
X130913238Y-97432857D01*
X130960857Y-97337619D01*
X131008476Y-97290000D01*
X131103714Y-97242380D01*
X131770380Y-97242380D02*
X132437047Y-97242380D01*
X132008476Y-98242380D01*
X132770380Y-97337619D02*
X132818000Y-97290000D01*
X132913238Y-97242380D01*
X133151333Y-97242380D01*
X133246571Y-97290000D01*
X133294190Y-97337619D01*
X133341809Y-97432857D01*
X133341809Y-97528095D01*
X133294190Y-97670952D01*
X132722761Y-98242380D01*
X133341809Y-98242380D01*
D12*
X151361714Y-140900940D02*
X151418857Y-140765226D01*
X151418857Y-140527130D01*
X151361714Y-140424750D01*
X151304571Y-140369988D01*
X151190285Y-140308083D01*
X151076000Y-140293797D01*
X150961714Y-140327130D01*
X150904571Y-140367607D01*
X150847428Y-140455702D01*
X150790285Y-140639035D01*
X150733142Y-140727130D01*
X150676000Y-140767607D01*
X150561714Y-140800940D01*
X150447428Y-140786654D01*
X150333142Y-140724750D01*
X150276000Y-140669988D01*
X150218857Y-140567607D01*
X150218857Y-140329511D01*
X150276000Y-140193797D01*
X150618857Y-139950940D02*
X150618857Y-139569988D01*
X150218857Y-139758083D02*
X151247428Y-139886654D01*
X151361714Y-139853321D01*
X151418857Y-139765226D01*
X151418857Y-139669988D01*
X151361714Y-138948559D02*
X151418857Y-139050940D01*
X151418857Y-139241416D01*
X151361714Y-139329511D01*
X151247428Y-139362845D01*
X150790285Y-139305702D01*
X150676000Y-139243797D01*
X150618857Y-139141416D01*
X150618857Y-138950940D01*
X150676000Y-138862845D01*
X150790285Y-138829511D01*
X150904571Y-138843797D01*
X151018857Y-139334273D01*
X151418857Y-138479511D02*
X150618857Y-138379511D01*
X150218857Y-138329511D02*
X150276000Y-138384273D01*
X150333142Y-138343797D01*
X150276000Y-138289035D01*
X150218857Y-138329511D01*
X150333142Y-138343797D01*
X150618857Y-137903321D02*
X151418857Y-138003321D01*
X150733142Y-137917607D02*
X150676000Y-137862845D01*
X150618857Y-137760464D01*
X150618857Y-137617607D01*
X150676000Y-137529511D01*
X150790285Y-137496178D01*
X151418857Y-137574750D01*
X151361714Y-136710464D02*
X151418857Y-136812845D01*
X151418857Y-137003321D01*
X151361714Y-137091416D01*
X151247428Y-137124750D01*
X150790285Y-137067607D01*
X150676000Y-137005702D01*
X150618857Y-136903321D01*
X150618857Y-136712845D01*
X150676000Y-136624750D01*
X150790285Y-136591416D01*
X150904571Y-136605702D01*
X151018857Y-137096178D01*
X151418857Y-136241416D02*
X150618857Y-136141416D01*
X150847428Y-136169988D02*
X150733142Y-136108083D01*
X150676000Y-136053321D01*
X150618857Y-135950940D01*
X150618857Y-135855702D01*
X150961714Y-135565226D02*
X150961714Y-134803321D01*
X151418857Y-134384273D02*
X150218857Y-134234273D01*
X150218857Y-133853321D01*
X150276000Y-133765226D01*
X150333142Y-133724750D01*
X150447428Y-133691416D01*
X150618857Y-133712845D01*
X150733142Y-133774750D01*
X150790285Y-133829511D01*
X150847428Y-133931892D01*
X150847428Y-134312845D01*
X151418857Y-132955702D02*
X150790285Y-132877130D01*
X150676000Y-132910464D01*
X150618857Y-132998559D01*
X150618857Y-133189035D01*
X150676000Y-133291416D01*
X151361714Y-132948559D02*
X151418857Y-133050940D01*
X151418857Y-133289035D01*
X151361714Y-133377130D01*
X151247428Y-133410464D01*
X151133142Y-133396178D01*
X151018857Y-133334273D01*
X150961714Y-133231892D01*
X150961714Y-132993797D01*
X150904571Y-132891416D01*
X151418857Y-132479511D02*
X150618857Y-132379511D01*
X150847428Y-132408083D02*
X150733142Y-132346178D01*
X150676000Y-132291416D01*
X150618857Y-132189035D01*
X150618857Y-132093797D01*
X151418857Y-131860464D02*
X150218857Y-131710464D01*
X150961714Y-131708083D02*
X151418857Y-131479511D01*
X150618857Y-131379511D02*
X151076000Y-131817607D01*
X151361714Y-130662845D02*
X151418857Y-130765226D01*
X151418857Y-130955702D01*
X151361714Y-131043797D01*
X151247428Y-131077130D01*
X150790285Y-131019988D01*
X150676000Y-130958083D01*
X150618857Y-130855702D01*
X150618857Y-130665226D01*
X150676000Y-130577130D01*
X150790285Y-130543797D01*
X150904571Y-130558083D01*
X151018857Y-131048559D01*
X151418857Y-130193797D02*
X150618857Y-130093797D01*
X150847428Y-130122369D02*
X150733142Y-130060464D01*
X150676000Y-130005702D01*
X150618857Y-129903321D01*
X150618857Y-129808083D01*
X150218857Y-128805702D02*
X151418857Y-128622369D01*
X150218857Y-128139035D01*
X151304571Y-127369988D02*
X151361714Y-127424750D01*
X151418857Y-127574750D01*
X151418857Y-127669988D01*
X151361714Y-127805702D01*
X151247428Y-127886654D01*
X151133142Y-127919988D01*
X150904571Y-127939035D01*
X150733142Y-127917607D01*
X150504571Y-127841416D01*
X150390285Y-127779511D01*
X150276000Y-127669988D01*
X150218857Y-127519988D01*
X150218857Y-127424750D01*
X150276000Y-127289035D01*
X150333142Y-127248559D01*
X150790285Y-126543797D02*
X150790285Y-126877130D01*
X151418857Y-126955702D02*
X150218857Y-126805702D01*
X150218857Y-126329511D01*
D11*
X151328380Y-76650857D02*
X150852190Y-76917523D01*
X151328380Y-77108000D02*
X150328380Y-77108000D01*
X150328380Y-76803238D01*
X150376000Y-76727047D01*
X150423619Y-76688952D01*
X150518857Y-76650857D01*
X150661714Y-76650857D01*
X150756952Y-76688952D01*
X150804571Y-76727047D01*
X150852190Y-76803238D01*
X150852190Y-77108000D01*
X151328380Y-76308000D02*
X150661714Y-76308000D01*
X150328380Y-76308000D02*
X150376000Y-76346095D01*
X150423619Y-76308000D01*
X150376000Y-76269904D01*
X150328380Y-76308000D01*
X150423619Y-76308000D01*
X151328380Y-79362285D02*
X150852190Y-79628952D01*
X151328380Y-79819428D02*
X150328380Y-79819428D01*
X150328380Y-79514666D01*
X150376000Y-79438476D01*
X150423619Y-79400380D01*
X150518857Y-79362285D01*
X150661714Y-79362285D01*
X150756952Y-79400380D01*
X150804571Y-79438476D01*
X150852190Y-79514666D01*
X150852190Y-79819428D01*
X151328380Y-78905142D02*
X151280761Y-78981333D01*
X151233142Y-79019428D01*
X151137904Y-79057523D01*
X150852190Y-79057523D01*
X150756952Y-79019428D01*
X150709333Y-78981333D01*
X150661714Y-78905142D01*
X150661714Y-78790857D01*
X150709333Y-78714666D01*
X150756952Y-78676571D01*
X150852190Y-78638476D01*
X151137904Y-78638476D01*
X151233142Y-78676571D01*
X151280761Y-78714666D01*
X151328380Y-78790857D01*
X151328380Y-78905142D01*
X151328380Y-84689904D02*
X150328380Y-84689904D01*
X150661714Y-84308952D02*
X151328380Y-84308952D01*
X150756952Y-84308952D02*
X150709333Y-84270857D01*
X150661714Y-84194666D01*
X150661714Y-84080380D01*
X150709333Y-84004190D01*
X150804571Y-83966095D01*
X151328380Y-83966095D01*
D12*
X117513440Y-147793142D02*
X117568202Y-147736000D01*
X117670583Y-147678857D01*
X117908678Y-147678857D01*
X117996773Y-147736000D01*
X118037250Y-147793142D01*
X118070583Y-147907428D01*
X118056297Y-148021714D01*
X117987250Y-148193142D01*
X117330107Y-148878857D01*
X117949154Y-148878857D01*
X118718202Y-147678857D02*
X118813440Y-147678857D01*
X118901535Y-147736000D01*
X118942011Y-147793142D01*
X118975345Y-147907428D01*
X118994392Y-148136000D01*
X118958678Y-148421714D01*
X118882488Y-148650285D01*
X118820583Y-148764571D01*
X118765821Y-148821714D01*
X118663440Y-148878857D01*
X118568202Y-148878857D01*
X118480107Y-148821714D01*
X118439630Y-148764571D01*
X118406297Y-148650285D01*
X118387250Y-148421714D01*
X118422964Y-148136000D01*
X118499154Y-147907428D01*
X118561059Y-147793142D01*
X118615821Y-147736000D01*
X118718202Y-147678857D01*
X119418202Y-147793142D02*
X119472964Y-147736000D01*
X119575345Y-147678857D01*
X119813440Y-147678857D01*
X119901535Y-147736000D01*
X119942011Y-147793142D01*
X119975345Y-147907428D01*
X119961059Y-148021714D01*
X119892011Y-148193142D01*
X119234869Y-148878857D01*
X119853916Y-148878857D01*
X120337250Y-147678857D02*
X120956297Y-147678857D01*
X120565821Y-148136000D01*
X120708678Y-148136000D01*
X120796773Y-148193142D01*
X120837250Y-148250285D01*
X120870583Y-148364571D01*
X120834869Y-148650285D01*
X120772964Y-148764571D01*
X120718202Y-148821714D01*
X120615821Y-148878857D01*
X120330107Y-148878857D01*
X120242011Y-148821714D01*
X120201535Y-148764571D01*
X122001535Y-148078857D02*
X122139630Y-148878857D01*
X122477726Y-148078857D01*
X123282488Y-148878857D02*
X122711059Y-148878857D01*
X122996773Y-148878857D02*
X123146773Y-147678857D01*
X123030107Y-147850285D01*
X122920583Y-147964571D01*
X122818202Y-148021714D01*
X123725345Y-148764571D02*
X123765821Y-148821714D01*
X123711059Y-148878857D01*
X123670583Y-148821714D01*
X123725345Y-148764571D01*
X123711059Y-148878857D01*
X124527726Y-147678857D02*
X124622964Y-147678857D01*
X124711059Y-147736000D01*
X124751535Y-147793142D01*
X124784869Y-147907428D01*
X124803916Y-148136000D01*
X124768202Y-148421714D01*
X124692011Y-148650285D01*
X124630107Y-148764571D01*
X124575345Y-148821714D01*
X124472964Y-148878857D01*
X124377726Y-148878857D01*
X124289630Y-148821714D01*
X124249154Y-148764571D01*
X124215821Y-148650285D01*
X124196773Y-148421714D01*
X124232488Y-148136000D01*
X124308678Y-147907428D01*
X124370583Y-147793142D01*
X124425345Y-147736000D01*
X124527726Y-147678857D01*
D11*
X141422380Y-136088285D02*
X140422380Y-136088285D01*
X140422380Y-135850190D01*
X140470000Y-135707333D01*
X140565238Y-135612095D01*
X140660476Y-135564476D01*
X140850952Y-135516857D01*
X140993809Y-135516857D01*
X141184285Y-135564476D01*
X141279523Y-135612095D01*
X141374761Y-135707333D01*
X141422380Y-135850190D01*
X141422380Y-136088285D01*
X141422380Y-134564476D02*
X141422380Y-135135904D01*
X141422380Y-134850190D02*
X140422380Y-134850190D01*
X140565238Y-134945428D01*
X140660476Y-135040666D01*
X140708095Y-135135904D01*
X140422380Y-133945428D02*
X140422380Y-133850190D01*
X140470000Y-133754952D01*
X140517619Y-133707333D01*
X140612857Y-133659714D01*
X140803333Y-133612095D01*
X141041428Y-133612095D01*
X141231904Y-133659714D01*
X141327142Y-133707333D01*
X141374761Y-133754952D01*
X141422380Y-133850190D01*
X141422380Y-133945428D01*
X141374761Y-134040666D01*
X141327142Y-134088285D01*
X141231904Y-134135904D01*
X141041428Y-134183523D01*
X140803333Y-134183523D01*
X140612857Y-134135904D01*
X140517619Y-134088285D01*
X140470000Y-134040666D01*
X140422380Y-133945428D01*
X115768380Y-127738095D02*
X114768380Y-127738095D01*
X114768380Y-127500000D01*
X114816000Y-127357142D01*
X114911238Y-127261904D01*
X115006476Y-127214285D01*
X115196952Y-127166666D01*
X115339809Y-127166666D01*
X115530285Y-127214285D01*
X115625523Y-127261904D01*
X115720761Y-127357142D01*
X115768380Y-127500000D01*
X115768380Y-127738095D01*
X115768380Y-126214285D02*
X115768380Y-126785714D01*
X115768380Y-126500000D02*
X114768380Y-126500000D01*
X114911238Y-126595238D01*
X115006476Y-126690476D01*
X115054095Y-126785714D01*
X132913119Y-118429904D02*
X132646452Y-118048952D01*
X132455976Y-118429904D02*
X132455976Y-117629904D01*
X132760738Y-117629904D01*
X132836928Y-117668000D01*
X132875023Y-117706095D01*
X132913119Y-117782285D01*
X132913119Y-117896571D01*
X132875023Y-117972761D01*
X132836928Y-118010857D01*
X132760738Y-118048952D01*
X132455976Y-118048952D01*
X133675023Y-118429904D02*
X133217880Y-118429904D01*
X133446452Y-118429904D02*
X133446452Y-117629904D01*
X133370261Y-117744190D01*
X133294071Y-117820380D01*
X133217880Y-117858476D01*
X134055976Y-118429904D02*
X134208357Y-118429904D01*
X134284547Y-118391809D01*
X134322642Y-118353714D01*
X134398833Y-118239428D01*
X134436928Y-118087047D01*
X134436928Y-117782285D01*
X134398833Y-117706095D01*
X134360738Y-117668000D01*
X134284547Y-117629904D01*
X134132166Y-117629904D01*
X134055976Y-117668000D01*
X134017880Y-117706095D01*
X133979785Y-117782285D01*
X133979785Y-117972761D01*
X134017880Y-118048952D01*
X134055976Y-118087047D01*
X134132166Y-118125142D01*
X134284547Y-118125142D01*
X134360738Y-118087047D01*
X134398833Y-118048952D01*
X134436928Y-117972761D01*
X117772309Y-88795904D02*
X117505642Y-88414952D01*
X117315166Y-88795904D02*
X117315166Y-87995904D01*
X117619928Y-87995904D01*
X117696119Y-88034000D01*
X117734214Y-88072095D01*
X117772309Y-88148285D01*
X117772309Y-88262571D01*
X117734214Y-88338761D01*
X117696119Y-88376857D01*
X117619928Y-88414952D01*
X117315166Y-88414952D01*
X118038976Y-87995904D02*
X118534214Y-87995904D01*
X118267547Y-88300666D01*
X118381833Y-88300666D01*
X118458023Y-88338761D01*
X118496119Y-88376857D01*
X118534214Y-88453047D01*
X118534214Y-88643523D01*
X118496119Y-88719714D01*
X118458023Y-88757809D01*
X118381833Y-88795904D01*
X118153261Y-88795904D01*
X118077071Y-88757809D01*
X118038976Y-88719714D01*
X119296119Y-88795904D02*
X118838976Y-88795904D01*
X119067547Y-88795904D02*
X119067547Y-87995904D01*
X118991357Y-88110190D01*
X118915166Y-88186380D01*
X118838976Y-88224476D01*
X117959142Y-63666666D02*
X118006761Y-63714285D01*
X118054380Y-63857142D01*
X118054380Y-63952380D01*
X118006761Y-64095238D01*
X117911523Y-64190476D01*
X117816285Y-64238095D01*
X117625809Y-64285714D01*
X117482952Y-64285714D01*
X117292476Y-64238095D01*
X117197238Y-64190476D01*
X117102000Y-64095238D01*
X117054380Y-63952380D01*
X117054380Y-63857142D01*
X117102000Y-63714285D01*
X117149619Y-63666666D01*
X117149619Y-63285714D02*
X117102000Y-63238095D01*
X117054380Y-63142857D01*
X117054380Y-62904761D01*
X117102000Y-62809523D01*
X117149619Y-62761904D01*
X117244857Y-62714285D01*
X117340095Y-62714285D01*
X117482952Y-62761904D01*
X118054380Y-63333333D01*
X118054380Y-62714285D01*
X143883142Y-144375142D02*
X143835523Y-144422761D01*
X143692666Y-144470380D01*
X143597428Y-144470380D01*
X143454571Y-144422761D01*
X143359333Y-144327523D01*
X143311714Y-144232285D01*
X143264095Y-144041809D01*
X143264095Y-143898952D01*
X143311714Y-143708476D01*
X143359333Y-143613238D01*
X143454571Y-143518000D01*
X143597428Y-143470380D01*
X143692666Y-143470380D01*
X143835523Y-143518000D01*
X143883142Y-143565619D01*
X144835523Y-144470380D02*
X144264095Y-144470380D01*
X144549809Y-144470380D02*
X144549809Y-143470380D01*
X144454571Y-143613238D01*
X144359333Y-143708476D01*
X144264095Y-143756095D01*
X145692666Y-143470380D02*
X145502190Y-143470380D01*
X145406952Y-143518000D01*
X145359333Y-143565619D01*
X145264095Y-143708476D01*
X145216476Y-143898952D01*
X145216476Y-144279904D01*
X145264095Y-144375142D01*
X145311714Y-144422761D01*
X145406952Y-144470380D01*
X145597428Y-144470380D01*
X145692666Y-144422761D01*
X145740285Y-144375142D01*
X145787904Y-144279904D01*
X145787904Y-144041809D01*
X145740285Y-143946571D01*
X145692666Y-143898952D01*
X145597428Y-143851333D01*
X145406952Y-143851333D01*
X145311714Y-143898952D01*
X145264095Y-143946571D01*
X145216476Y-144041809D01*
X130246380Y-135358095D02*
X129246380Y-135358095D01*
X129246380Y-135120000D01*
X129294000Y-134977142D01*
X129389238Y-134881904D01*
X129484476Y-134834285D01*
X129674952Y-134786666D01*
X129817809Y-134786666D01*
X130008285Y-134834285D01*
X130103523Y-134881904D01*
X130198761Y-134977142D01*
X130246380Y-135120000D01*
X130246380Y-135358095D01*
X129246380Y-133929523D02*
X129246380Y-134120000D01*
X129294000Y-134215238D01*
X129341619Y-134262857D01*
X129484476Y-134358095D01*
X129674952Y-134405714D01*
X130055904Y-134405714D01*
X130151142Y-134358095D01*
X130198761Y-134310476D01*
X130246380Y-134215238D01*
X130246380Y-134024761D01*
X130198761Y-133929523D01*
X130151142Y-133881904D01*
X130055904Y-133834285D01*
X129817809Y-133834285D01*
X129722571Y-133881904D01*
X129674952Y-133929523D01*
X129627333Y-134024761D01*
X129627333Y-134215238D01*
X129674952Y-134310476D01*
X129722571Y-134358095D01*
X129817809Y-134405714D01*
X130421142Y-128119142D02*
X130373523Y-128166761D01*
X130230666Y-128214380D01*
X130135428Y-128214380D01*
X129992571Y-128166761D01*
X129897333Y-128071523D01*
X129849714Y-127976285D01*
X129802095Y-127785809D01*
X129802095Y-127642952D01*
X129849714Y-127452476D01*
X129897333Y-127357238D01*
X129992571Y-127262000D01*
X130135428Y-127214380D01*
X130230666Y-127214380D01*
X130373523Y-127262000D01*
X130421142Y-127309619D01*
X131373523Y-128214380D02*
X130802095Y-128214380D01*
X131087809Y-128214380D02*
X131087809Y-127214380D01*
X130992571Y-127357238D01*
X130897333Y-127452476D01*
X130802095Y-127500095D01*
X132325904Y-128214380D02*
X131754476Y-128214380D01*
X132040190Y-128214380D02*
X132040190Y-127214380D01*
X131944952Y-127357238D01*
X131849714Y-127452476D01*
X131754476Y-127500095D01*
X140783333Y-101739142D02*
X140735714Y-101786761D01*
X140592857Y-101834380D01*
X140497619Y-101834380D01*
X140354761Y-101786761D01*
X140259523Y-101691523D01*
X140211904Y-101596285D01*
X140164285Y-101405809D01*
X140164285Y-101262952D01*
X140211904Y-101072476D01*
X140259523Y-100977238D01*
X140354761Y-100882000D01*
X140497619Y-100834380D01*
X140592857Y-100834380D01*
X140735714Y-100882000D01*
X140783333Y-100929619D01*
X141640476Y-100834380D02*
X141450000Y-100834380D01*
X141354761Y-100882000D01*
X141307142Y-100929619D01*
X141211904Y-101072476D01*
X141164285Y-101262952D01*
X141164285Y-101643904D01*
X141211904Y-101739142D01*
X141259523Y-101786761D01*
X141354761Y-101834380D01*
X141545238Y-101834380D01*
X141640476Y-101786761D01*
X141688095Y-101739142D01*
X141735714Y-101643904D01*
X141735714Y-101405809D01*
X141688095Y-101310571D01*
X141640476Y-101262952D01*
X141545238Y-101215333D01*
X141354761Y-101215333D01*
X141259523Y-101262952D01*
X141211904Y-101310571D01*
X141164285Y-101405809D01*
X115055714Y-77247714D02*
X115017619Y-77285809D01*
X114903333Y-77323904D01*
X114827142Y-77323904D01*
X114712857Y-77285809D01*
X114636666Y-77209619D01*
X114598571Y-77133428D01*
X114560476Y-76981047D01*
X114560476Y-76866761D01*
X114598571Y-76714380D01*
X114636666Y-76638190D01*
X114712857Y-76562000D01*
X114827142Y-76523904D01*
X114903333Y-76523904D01*
X115017619Y-76562000D01*
X115055714Y-76600095D01*
X115817619Y-77323904D02*
X115360476Y-77323904D01*
X115589047Y-77323904D02*
X115589047Y-76523904D01*
X115512857Y-76638190D01*
X115436666Y-76714380D01*
X115360476Y-76752476D01*
X116084285Y-76523904D02*
X116617619Y-76523904D01*
X116274761Y-77323904D01*
X127452380Y-134850095D02*
X126452380Y-134850095D01*
X126452380Y-134612000D01*
X126500000Y-134469142D01*
X126595238Y-134373904D01*
X126690476Y-134326285D01*
X126880952Y-134278666D01*
X127023809Y-134278666D01*
X127214285Y-134326285D01*
X127309523Y-134373904D01*
X127404761Y-134469142D01*
X127452380Y-134612000D01*
X127452380Y-134850095D01*
X126452380Y-133373904D02*
X126452380Y-133850095D01*
X126928571Y-133897714D01*
X126880952Y-133850095D01*
X126833333Y-133754857D01*
X126833333Y-133516761D01*
X126880952Y-133421523D01*
X126928571Y-133373904D01*
X127023809Y-133326285D01*
X127261904Y-133326285D01*
X127357142Y-133373904D01*
X127404761Y-133421523D01*
X127452380Y-133516761D01*
X127452380Y-133754857D01*
X127404761Y-133850095D01*
X127357142Y-133897714D01*
X150074380Y-113267619D02*
X150788666Y-113267619D01*
X150931523Y-113315238D01*
X151026761Y-113410476D01*
X151074380Y-113553333D01*
X151074380Y-113648571D01*
X151074380Y-112791428D02*
X150074380Y-112791428D01*
X150074380Y-112410476D01*
X150122000Y-112315238D01*
X150169619Y-112267619D01*
X150264857Y-112220000D01*
X150407714Y-112220000D01*
X150502952Y-112267619D01*
X150550571Y-112315238D01*
X150598190Y-112410476D01*
X150598190Y-112791428D01*
X151169619Y-112029523D02*
X151169619Y-111267619D01*
X151074380Y-111029523D02*
X150074380Y-111029523D01*
X151074380Y-110553333D02*
X150074380Y-110553333D01*
X151074380Y-109981904D01*
X150074380Y-109981904D01*
X150074380Y-109648571D02*
X150074380Y-109077142D01*
X151074380Y-109362857D02*
X150074380Y-109362857D01*
X151169619Y-108981904D02*
X151169619Y-108220000D01*
X150550571Y-107981904D02*
X150550571Y-107648571D01*
X151074380Y-107505714D02*
X151074380Y-107981904D01*
X150074380Y-107981904D01*
X150074380Y-107505714D01*
X150074380Y-107172380D02*
X151074380Y-106505714D01*
X150074380Y-106505714D02*
X151074380Y-107172380D01*
X150074380Y-106267619D02*
X150074380Y-105696190D01*
X151074380Y-105981904D02*
X150074380Y-105981904D01*
X151074380Y-104839047D02*
X151074380Y-105410476D01*
X151074380Y-105124761D02*
X150074380Y-105124761D01*
X150217238Y-105220000D01*
X150312476Y-105315238D01*
X150360095Y-105410476D01*
X114371119Y-90997904D02*
X114104452Y-90616952D01*
X113913976Y-90997904D02*
X113913976Y-90197904D01*
X114218738Y-90197904D01*
X114294928Y-90236000D01*
X114333023Y-90274095D01*
X114371119Y-90350285D01*
X114371119Y-90464571D01*
X114333023Y-90540761D01*
X114294928Y-90578857D01*
X114218738Y-90616952D01*
X113913976Y-90616952D01*
X114675880Y-90274095D02*
X114713976Y-90236000D01*
X114790166Y-90197904D01*
X114980642Y-90197904D01*
X115056833Y-90236000D01*
X115094928Y-90274095D01*
X115133023Y-90350285D01*
X115133023Y-90426476D01*
X115094928Y-90540761D01*
X114637785Y-90997904D01*
X115133023Y-90997904D01*
X115513976Y-90997904D02*
X115666357Y-90997904D01*
X115742547Y-90959809D01*
X115780642Y-90921714D01*
X115856833Y-90807428D01*
X115894928Y-90655047D01*
X115894928Y-90350285D01*
X115856833Y-90274095D01*
X115818738Y-90236000D01*
X115742547Y-90197904D01*
X115590166Y-90197904D01*
X115513976Y-90236000D01*
X115475880Y-90274095D01*
X115437785Y-90350285D01*
X115437785Y-90540761D01*
X115475880Y-90616952D01*
X115513976Y-90655047D01*
X115590166Y-90693142D01*
X115742547Y-90693142D01*
X115818738Y-90655047D01*
X115856833Y-90616952D01*
X115894928Y-90540761D01*
X135961119Y-83885904D02*
X135694452Y-83504952D01*
X135503976Y-83885904D02*
X135503976Y-83085904D01*
X135808738Y-83085904D01*
X135884928Y-83124000D01*
X135923023Y-83162095D01*
X135961119Y-83238285D01*
X135961119Y-83352571D01*
X135923023Y-83428761D01*
X135884928Y-83466857D01*
X135808738Y-83504952D01*
X135503976Y-83504952D01*
X136684928Y-83085904D02*
X136303976Y-83085904D01*
X136265880Y-83466857D01*
X136303976Y-83428761D01*
X136380166Y-83390666D01*
X136570642Y-83390666D01*
X136646833Y-83428761D01*
X136684928Y-83466857D01*
X136723023Y-83543047D01*
X136723023Y-83733523D01*
X136684928Y-83809714D01*
X136646833Y-83847809D01*
X136570642Y-83885904D01*
X136380166Y-83885904D01*
X136303976Y-83847809D01*
X136265880Y-83809714D01*
X138628380Y-135104095D02*
X137628380Y-135104095D01*
X137628380Y-134866000D01*
X137676000Y-134723142D01*
X137771238Y-134627904D01*
X137866476Y-134580285D01*
X138056952Y-134532666D01*
X138199809Y-134532666D01*
X138390285Y-134580285D01*
X138485523Y-134627904D01*
X138580761Y-134723142D01*
X138628380Y-134866000D01*
X138628380Y-135104095D01*
X138628380Y-134056476D02*
X138628380Y-133866000D01*
X138580761Y-133770761D01*
X138533142Y-133723142D01*
X138390285Y-133627904D01*
X138199809Y-133580285D01*
X137818857Y-133580285D01*
X137723619Y-133627904D01*
X137676000Y-133675523D01*
X137628380Y-133770761D01*
X137628380Y-133961238D01*
X137676000Y-134056476D01*
X137723619Y-134104095D01*
X137818857Y-134151714D01*
X138056952Y-134151714D01*
X138152190Y-134104095D01*
X138199809Y-134056476D01*
X138247428Y-133961238D01*
X138247428Y-133770761D01*
X138199809Y-133675523D01*
X138152190Y-133627904D01*
X138056952Y-133580285D01*
X126746095Y-97242380D02*
X126746095Y-98051904D01*
X126793714Y-98147142D01*
X126841333Y-98194761D01*
X126936571Y-98242380D01*
X127127047Y-98242380D01*
X127222285Y-98194761D01*
X127269904Y-98147142D01*
X127317523Y-98051904D01*
X127317523Y-97242380D01*
X128317523Y-98242380D02*
X127746095Y-98242380D01*
X128031809Y-98242380D02*
X128031809Y-97242380D01*
X127936571Y-97385238D01*
X127841333Y-97480476D01*
X127746095Y-97528095D01*
X142343142Y-146692857D02*
X142390761Y-146740476D01*
X142438380Y-146883333D01*
X142438380Y-146978571D01*
X142390761Y-147121428D01*
X142295523Y-147216666D01*
X142200285Y-147264285D01*
X142009809Y-147311904D01*
X141866952Y-147311904D01*
X141676476Y-147264285D01*
X141581238Y-147216666D01*
X141486000Y-147121428D01*
X141438380Y-146978571D01*
X141438380Y-146883333D01*
X141486000Y-146740476D01*
X141533619Y-146692857D01*
X142438380Y-145740476D02*
X142438380Y-146311904D01*
X142438380Y-146026190D02*
X141438380Y-146026190D01*
X141581238Y-146121428D01*
X141676476Y-146216666D01*
X141724095Y-146311904D01*
X141771714Y-144883333D02*
X142438380Y-144883333D01*
X141390761Y-145121428D02*
X142105047Y-145359523D01*
X142105047Y-144740476D01*
X129325619Y-148177238D02*
X129278000Y-148272476D01*
X129182761Y-148367714D01*
X129039904Y-148510571D01*
X128992285Y-148605809D01*
X128992285Y-148701047D01*
X129230380Y-148653428D02*
X129182761Y-148748666D01*
X129087523Y-148843904D01*
X128897047Y-148891523D01*
X128563714Y-148891523D01*
X128373238Y-148843904D01*
X128278000Y-148748666D01*
X128230380Y-148653428D01*
X128230380Y-148462952D01*
X128278000Y-148367714D01*
X128373238Y-148272476D01*
X128563714Y-148224857D01*
X128897047Y-148224857D01*
X129087523Y-148272476D01*
X129182761Y-148367714D01*
X129230380Y-148462952D01*
X129230380Y-148653428D01*
X128325619Y-147843904D02*
X128278000Y-147796285D01*
X128230380Y-147701047D01*
X128230380Y-147462952D01*
X128278000Y-147367714D01*
X128325619Y-147320095D01*
X128420857Y-147272476D01*
X128516095Y-147272476D01*
X128658952Y-147320095D01*
X129230380Y-147891523D01*
X129230380Y-147272476D01*
X118816380Y-135358095D02*
X117816380Y-135358095D01*
X117816380Y-135120000D01*
X117864000Y-134977142D01*
X117959238Y-134881904D01*
X118054476Y-134834285D01*
X118244952Y-134786666D01*
X118387809Y-134786666D01*
X118578285Y-134834285D01*
X118673523Y-134881904D01*
X118768761Y-134977142D01*
X118816380Y-135120000D01*
X118816380Y-135358095D01*
X117911619Y-134405714D02*
X117864000Y-134358095D01*
X117816380Y-134262857D01*
X117816380Y-134024761D01*
X117864000Y-133929523D01*
X117911619Y-133881904D01*
X118006857Y-133834285D01*
X118102095Y-133834285D01*
X118244952Y-133881904D01*
X118816380Y-134453333D01*
X118816380Y-133834285D01*
X119959119Y-108269904D02*
X119692452Y-107888952D01*
X119501976Y-108269904D02*
X119501976Y-107469904D01*
X119806738Y-107469904D01*
X119882928Y-107508000D01*
X119921023Y-107546095D01*
X119959119Y-107622285D01*
X119959119Y-107736571D01*
X119921023Y-107812761D01*
X119882928Y-107850857D01*
X119806738Y-107888952D01*
X119501976Y-107888952D01*
X120340071Y-108269904D02*
X120492452Y-108269904D01*
X120568642Y-108231809D01*
X120606738Y-108193714D01*
X120682928Y-108079428D01*
X120721023Y-107927047D01*
X120721023Y-107622285D01*
X120682928Y-107546095D01*
X120644833Y-107508000D01*
X120568642Y-107469904D01*
X120416261Y-107469904D01*
X120340071Y-107508000D01*
X120301976Y-107546095D01*
X120263880Y-107622285D01*
X120263880Y-107812761D01*
X120301976Y-107888952D01*
X120340071Y-107927047D01*
X120416261Y-107965142D01*
X120568642Y-107965142D01*
X120644833Y-107927047D01*
X120682928Y-107888952D01*
X120721023Y-107812761D01*
X115127904Y-110672880D02*
X114746952Y-110939547D01*
X115127904Y-111130023D02*
X114327904Y-111130023D01*
X114327904Y-110825261D01*
X114366000Y-110749071D01*
X114404095Y-110710976D01*
X114480285Y-110672880D01*
X114594571Y-110672880D01*
X114670761Y-110710976D01*
X114708857Y-110749071D01*
X114746952Y-110825261D01*
X114746952Y-111130023D01*
X114327904Y-109987166D02*
X114327904Y-110139547D01*
X114366000Y-110215738D01*
X114404095Y-110253833D01*
X114518380Y-110330023D01*
X114670761Y-110368119D01*
X114975523Y-110368119D01*
X115051714Y-110330023D01*
X115089809Y-110291928D01*
X115127904Y-110215738D01*
X115127904Y-110063357D01*
X115089809Y-109987166D01*
X115051714Y-109949071D01*
X114975523Y-109910976D01*
X114785047Y-109910976D01*
X114708857Y-109949071D01*
X114670761Y-109987166D01*
X114632666Y-110063357D01*
X114632666Y-110215738D01*
X114670761Y-110291928D01*
X114708857Y-110330023D01*
X114785047Y-110368119D01*
X130627119Y-115127904D02*
X130360452Y-114746952D01*
X130169976Y-115127904D02*
X130169976Y-114327904D01*
X130474738Y-114327904D01*
X130550928Y-114366000D01*
X130589023Y-114404095D01*
X130627119Y-114480285D01*
X130627119Y-114594571D01*
X130589023Y-114670761D01*
X130550928Y-114708857D01*
X130474738Y-114746952D01*
X130169976Y-114746952D01*
X130893785Y-114327904D02*
X131389023Y-114327904D01*
X131122357Y-114632666D01*
X131236642Y-114632666D01*
X131312833Y-114670761D01*
X131350928Y-114708857D01*
X131389023Y-114785047D01*
X131389023Y-114975523D01*
X131350928Y-115051714D01*
X131312833Y-115089809D01*
X131236642Y-115127904D01*
X131008071Y-115127904D01*
X130931880Y-115089809D01*
X130893785Y-115051714D01*
X134028309Y-101495904D02*
X133761642Y-101114952D01*
X133571166Y-101495904D02*
X133571166Y-100695904D01*
X133875928Y-100695904D01*
X133952119Y-100734000D01*
X133990214Y-100772095D01*
X134028309Y-100848285D01*
X134028309Y-100962571D01*
X133990214Y-101038761D01*
X133952119Y-101076857D01*
X133875928Y-101114952D01*
X133571166Y-101114952D01*
X134790214Y-101495904D02*
X134333071Y-101495904D01*
X134561642Y-101495904D02*
X134561642Y-100695904D01*
X134485452Y-100810190D01*
X134409261Y-100886380D01*
X134333071Y-100924476D01*
X135056880Y-100695904D02*
X135552119Y-100695904D01*
X135285452Y-101000666D01*
X135399738Y-101000666D01*
X135475928Y-101038761D01*
X135514023Y-101076857D01*
X135552119Y-101153047D01*
X135552119Y-101343523D01*
X135514023Y-101419714D01*
X135475928Y-101457809D01*
X135399738Y-101495904D01*
X135171166Y-101495904D01*
X135094976Y-101457809D01*
X135056880Y-101419714D01*
X139279333Y-97639142D02*
X139231714Y-97686761D01*
X139088857Y-97734380D01*
X138993619Y-97734380D01*
X138850761Y-97686761D01*
X138755523Y-97591523D01*
X138707904Y-97496285D01*
X138660285Y-97305809D01*
X138660285Y-97162952D01*
X138707904Y-96972476D01*
X138755523Y-96877238D01*
X138850761Y-96782000D01*
X138993619Y-96734380D01*
X139088857Y-96734380D01*
X139231714Y-96782000D01*
X139279333Y-96829619D01*
X140184095Y-96734380D02*
X139707904Y-96734380D01*
X139660285Y-97210571D01*
X139707904Y-97162952D01*
X139803142Y-97115333D01*
X140041238Y-97115333D01*
X140136476Y-97162952D01*
X140184095Y-97210571D01*
X140231714Y-97305809D01*
X140231714Y-97543904D01*
X140184095Y-97639142D01*
X140136476Y-97686761D01*
X140041238Y-97734380D01*
X139803142Y-97734380D01*
X139707904Y-97686761D01*
X139660285Y-97639142D01*
X139025333Y-81383142D02*
X138977714Y-81430761D01*
X138834857Y-81478380D01*
X138739619Y-81478380D01*
X138596761Y-81430761D01*
X138501523Y-81335523D01*
X138453904Y-81240285D01*
X138406285Y-81049809D01*
X138406285Y-80906952D01*
X138453904Y-80716476D01*
X138501523Y-80621238D01*
X138596761Y-80526000D01*
X138739619Y-80478380D01*
X138834857Y-80478380D01*
X138977714Y-80526000D01*
X139025333Y-80573619D01*
X139358666Y-80478380D02*
X139977714Y-80478380D01*
X139644380Y-80859333D01*
X139787238Y-80859333D01*
X139882476Y-80906952D01*
X139930095Y-80954571D01*
X139977714Y-81049809D01*
X139977714Y-81287904D01*
X139930095Y-81383142D01*
X139882476Y-81430761D01*
X139787238Y-81478380D01*
X139501523Y-81478380D01*
X139406285Y-81430761D01*
X139358666Y-81383142D01*
X148439142Y-128912857D02*
X148486761Y-128960476D01*
X148534380Y-129103333D01*
X148534380Y-129198571D01*
X148486761Y-129341428D01*
X148391523Y-129436666D01*
X148296285Y-129484285D01*
X148105809Y-129531904D01*
X147962952Y-129531904D01*
X147772476Y-129484285D01*
X147677238Y-129436666D01*
X147582000Y-129341428D01*
X147534380Y-129198571D01*
X147534380Y-129103333D01*
X147582000Y-128960476D01*
X147629619Y-128912857D01*
X148534380Y-127960476D02*
X148534380Y-128531904D01*
X148534380Y-128246190D02*
X147534380Y-128246190D01*
X147677238Y-128341428D01*
X147772476Y-128436666D01*
X147820095Y-128531904D01*
X147629619Y-127579523D02*
X147582000Y-127531904D01*
X147534380Y-127436666D01*
X147534380Y-127198571D01*
X147582000Y-127103333D01*
X147629619Y-127055714D01*
X147724857Y-127008095D01*
X147820095Y-127008095D01*
X147962952Y-127055714D01*
X148534380Y-127627142D01*
X148534380Y-127008095D01*
X123360309Y-106067904D02*
X123093642Y-105686952D01*
X122903166Y-106067904D02*
X122903166Y-105267904D01*
X123207928Y-105267904D01*
X123284119Y-105306000D01*
X123322214Y-105344095D01*
X123360309Y-105420285D01*
X123360309Y-105534571D01*
X123322214Y-105610761D01*
X123284119Y-105648857D01*
X123207928Y-105686952D01*
X122903166Y-105686952D01*
X124122214Y-106067904D02*
X123665071Y-106067904D01*
X123893642Y-106067904D02*
X123893642Y-105267904D01*
X123817452Y-105382190D01*
X123741261Y-105458380D01*
X123665071Y-105496476D01*
X124617452Y-105267904D02*
X124693642Y-105267904D01*
X124769833Y-105306000D01*
X124807928Y-105344095D01*
X124846023Y-105420285D01*
X124884119Y-105572666D01*
X124884119Y-105763142D01*
X124846023Y-105915523D01*
X124807928Y-105991714D01*
X124769833Y-106029809D01*
X124693642Y-106067904D01*
X124617452Y-106067904D01*
X124541261Y-106029809D01*
X124503166Y-105991714D01*
X124465071Y-105915523D01*
X124426976Y-105763142D01*
X124426976Y-105572666D01*
X124465071Y-105420285D01*
X124503166Y-105344095D01*
X124541261Y-105306000D01*
X124617452Y-105267904D01*
X118026309Y-71269904D02*
X117759642Y-70888952D01*
X117569166Y-71269904D02*
X117569166Y-70469904D01*
X117873928Y-70469904D01*
X117950119Y-70508000D01*
X117988214Y-70546095D01*
X118026309Y-70622285D01*
X118026309Y-70736571D01*
X117988214Y-70812761D01*
X117950119Y-70850857D01*
X117873928Y-70888952D01*
X117569166Y-70888952D01*
X118331071Y-70546095D02*
X118369166Y-70508000D01*
X118445357Y-70469904D01*
X118635833Y-70469904D01*
X118712023Y-70508000D01*
X118750119Y-70546095D01*
X118788214Y-70622285D01*
X118788214Y-70698476D01*
X118750119Y-70812761D01*
X118292976Y-71269904D01*
X118788214Y-71269904D01*
X119245357Y-70812761D02*
X119169166Y-70774666D01*
X119131071Y-70736571D01*
X119092976Y-70660380D01*
X119092976Y-70622285D01*
X119131071Y-70546095D01*
X119169166Y-70508000D01*
X119245357Y-70469904D01*
X119397738Y-70469904D01*
X119473928Y-70508000D01*
X119512023Y-70546095D01*
X119550119Y-70622285D01*
X119550119Y-70660380D01*
X119512023Y-70736571D01*
X119473928Y-70774666D01*
X119397738Y-70812761D01*
X119245357Y-70812761D01*
X119169166Y-70850857D01*
X119131071Y-70888952D01*
X119092976Y-70965142D01*
X119092976Y-71117523D01*
X119131071Y-71193714D01*
X119169166Y-71231809D01*
X119245357Y-71269904D01*
X119397738Y-71269904D01*
X119473928Y-71231809D01*
X119512023Y-71193714D01*
X119550119Y-71117523D01*
X119550119Y-70965142D01*
X119512023Y-70888952D01*
X119473928Y-70850857D01*
X119397738Y-70812761D01*
X139362309Y-91589904D02*
X139095642Y-91208952D01*
X138905166Y-91589904D02*
X138905166Y-90789904D01*
X139209928Y-90789904D01*
X139286119Y-90828000D01*
X139324214Y-90866095D01*
X139362309Y-90942285D01*
X139362309Y-91056571D01*
X139324214Y-91132761D01*
X139286119Y-91170857D01*
X139209928Y-91208952D01*
X138905166Y-91208952D01*
X140124214Y-91589904D02*
X139667071Y-91589904D01*
X139895642Y-91589904D02*
X139895642Y-90789904D01*
X139819452Y-90904190D01*
X139743261Y-90980380D01*
X139667071Y-91018476D01*
X140428976Y-90866095D02*
X140467071Y-90828000D01*
X140543261Y-90789904D01*
X140733738Y-90789904D01*
X140809928Y-90828000D01*
X140848023Y-90866095D01*
X140886119Y-90942285D01*
X140886119Y-91018476D01*
X140848023Y-91132761D01*
X140390880Y-91589904D01*
X140886119Y-91589904D01*
X143220380Y-56213333D02*
X143934666Y-56213333D01*
X144077523Y-56260952D01*
X144172761Y-56356190D01*
X144220380Y-56499047D01*
X144220380Y-56594285D01*
X144220380Y-55213333D02*
X144220380Y-55784761D01*
X144220380Y-55499047D02*
X143220380Y-55499047D01*
X143363238Y-55594285D01*
X143458476Y-55689523D01*
X143506095Y-55784761D01*
X143867142Y-122562857D02*
X143914761Y-122610476D01*
X143962380Y-122753333D01*
X143962380Y-122848571D01*
X143914761Y-122991428D01*
X143819523Y-123086666D01*
X143724285Y-123134285D01*
X143533809Y-123181904D01*
X143390952Y-123181904D01*
X143200476Y-123134285D01*
X143105238Y-123086666D01*
X143010000Y-122991428D01*
X142962380Y-122848571D01*
X142962380Y-122753333D01*
X143010000Y-122610476D01*
X143057619Y-122562857D01*
X143962380Y-121610476D02*
X143962380Y-122181904D01*
X143962380Y-121896190D02*
X142962380Y-121896190D01*
X143105238Y-121991428D01*
X143200476Y-122086666D01*
X143248095Y-122181904D01*
X142962380Y-120705714D02*
X142962380Y-121181904D01*
X143438571Y-121229523D01*
X143390952Y-121181904D01*
X143343333Y-121086666D01*
X143343333Y-120848571D01*
X143390952Y-120753333D01*
X143438571Y-120705714D01*
X143533809Y-120658095D01*
X143771904Y-120658095D01*
X143867142Y-120705714D01*
X143914761Y-120753333D01*
X143962380Y-120848571D01*
X143962380Y-121086666D01*
X143914761Y-121181904D01*
X143867142Y-121229523D01*
X126865142Y-67921142D02*
X126817523Y-67968761D01*
X126674666Y-68016380D01*
X126579428Y-68016380D01*
X126436571Y-67968761D01*
X126341333Y-67873523D01*
X126293714Y-67778285D01*
X126246095Y-67587809D01*
X126246095Y-67444952D01*
X126293714Y-67254476D01*
X126341333Y-67159238D01*
X126436571Y-67064000D01*
X126579428Y-67016380D01*
X126674666Y-67016380D01*
X126817523Y-67064000D01*
X126865142Y-67111619D01*
X127817523Y-68016380D02*
X127246095Y-68016380D01*
X127531809Y-68016380D02*
X127531809Y-67016380D01*
X127436571Y-67159238D01*
X127341333Y-67254476D01*
X127246095Y-67302095D01*
X128388952Y-67444952D02*
X128293714Y-67397333D01*
X128246095Y-67349714D01*
X128198476Y-67254476D01*
X128198476Y-67206857D01*
X128246095Y-67111619D01*
X128293714Y-67064000D01*
X128388952Y-67016380D01*
X128579428Y-67016380D01*
X128674666Y-67064000D01*
X128722285Y-67111619D01*
X128769904Y-67206857D01*
X128769904Y-67254476D01*
X128722285Y-67349714D01*
X128674666Y-67397333D01*
X128579428Y-67444952D01*
X128388952Y-67444952D01*
X128293714Y-67492571D01*
X128246095Y-67540190D01*
X128198476Y-67635428D01*
X128198476Y-67825904D01*
X128246095Y-67921142D01*
X128293714Y-67968761D01*
X128388952Y-68016380D01*
X128579428Y-68016380D01*
X128674666Y-67968761D01*
X128722285Y-67921142D01*
X128769904Y-67825904D01*
X128769904Y-67635428D01*
X128722285Y-67540190D01*
X128674666Y-67492571D01*
X128579428Y-67444952D01*
X111105904Y-85614571D02*
X110724952Y-85881238D01*
X111105904Y-86071714D02*
X110305904Y-86071714D01*
X110305904Y-85766952D01*
X110344000Y-85690761D01*
X110382095Y-85652666D01*
X110458285Y-85614571D01*
X110572571Y-85614571D01*
X110648761Y-85652666D01*
X110686857Y-85690761D01*
X110724952Y-85766952D01*
X110724952Y-86071714D01*
X110305904Y-85386000D02*
X111105904Y-85119333D01*
X110305904Y-84852666D01*
X111182095Y-84776476D02*
X111182095Y-84166952D01*
X111105904Y-83976476D02*
X110305904Y-83976476D01*
X110877333Y-83709809D01*
X110305904Y-83443142D01*
X111105904Y-83443142D01*
X110877333Y-83100285D02*
X110877333Y-82719333D01*
X111105904Y-83176476D02*
X110305904Y-82909809D01*
X111105904Y-82643142D01*
X110305904Y-82452666D02*
X111105904Y-81919333D01*
X110305904Y-81919333D02*
X111105904Y-82452666D01*
X111182095Y-81805047D02*
X111182095Y-81195523D01*
X111105904Y-80547904D02*
X110724952Y-80814571D01*
X111105904Y-81005047D02*
X110305904Y-81005047D01*
X110305904Y-80700285D01*
X110344000Y-80624095D01*
X110382095Y-80586000D01*
X110458285Y-80547904D01*
X110572571Y-80547904D01*
X110648761Y-80586000D01*
X110686857Y-80624095D01*
X110724952Y-80700285D01*
X110724952Y-81005047D01*
X110686857Y-80205047D02*
X110686857Y-79938380D01*
X111105904Y-79824095D02*
X111105904Y-80205047D01*
X110305904Y-80205047D01*
X110305904Y-79824095D01*
X111067809Y-79519333D02*
X111105904Y-79405047D01*
X111105904Y-79214571D01*
X111067809Y-79138380D01*
X111029714Y-79100285D01*
X110953523Y-79062190D01*
X110877333Y-79062190D01*
X110801142Y-79100285D01*
X110763047Y-79138380D01*
X110724952Y-79214571D01*
X110686857Y-79366952D01*
X110648761Y-79443142D01*
X110610666Y-79481238D01*
X110534476Y-79519333D01*
X110458285Y-79519333D01*
X110382095Y-79481238D01*
X110344000Y-79443142D01*
X110305904Y-79366952D01*
X110305904Y-79176476D01*
X110344000Y-79062190D01*
X110305904Y-78566952D02*
X110305904Y-78414571D01*
X110344000Y-78338380D01*
X110420190Y-78262190D01*
X110572571Y-78224095D01*
X110839238Y-78224095D01*
X110991619Y-78262190D01*
X111067809Y-78338380D01*
X111105904Y-78414571D01*
X111105904Y-78566952D01*
X111067809Y-78643142D01*
X110991619Y-78719333D01*
X110839238Y-78757428D01*
X110572571Y-78757428D01*
X110420190Y-78719333D01*
X110344000Y-78643142D01*
X110305904Y-78566952D01*
X111105904Y-77462190D02*
X111105904Y-77919333D01*
X111105904Y-77690761D02*
X110305904Y-77690761D01*
X110420190Y-77766952D01*
X110496380Y-77843142D01*
X110534476Y-77919333D01*
X120516666Y-86137714D02*
X120478571Y-86175809D01*
X120364285Y-86213904D01*
X120288095Y-86213904D01*
X120173809Y-86175809D01*
X120097619Y-86099619D01*
X120059523Y-86023428D01*
X120021428Y-85871047D01*
X120021428Y-85756761D01*
X120059523Y-85604380D01*
X120097619Y-85528190D01*
X120173809Y-85452000D01*
X120288095Y-85413904D01*
X120364285Y-85413904D01*
X120478571Y-85452000D01*
X120516666Y-85490095D01*
X121202380Y-85680571D02*
X121202380Y-86213904D01*
X121011904Y-85375809D02*
X120821428Y-85947238D01*
X121316666Y-85947238D01*
X138274000Y-125674380D02*
X138040666Y-125198190D01*
X137874000Y-125674380D02*
X137874000Y-124674380D01*
X138140666Y-124674380D01*
X138207333Y-124722000D01*
X138240666Y-124769619D01*
X138274000Y-124864857D01*
X138274000Y-125007714D01*
X138240666Y-125102952D01*
X138207333Y-125150571D01*
X138140666Y-125198190D01*
X137874000Y-125198190D01*
X138474000Y-124674380D02*
X138707333Y-125674380D01*
X138940666Y-124674380D01*
X139007333Y-125769619D02*
X139540666Y-125769619D01*
X139940666Y-125150571D02*
X140040666Y-125198190D01*
X140074000Y-125245809D01*
X140107333Y-125341047D01*
X140107333Y-125483904D01*
X140074000Y-125579142D01*
X140040666Y-125626761D01*
X139974000Y-125674380D01*
X139707333Y-125674380D01*
X139707333Y-124674380D01*
X139940666Y-124674380D01*
X140007333Y-124722000D01*
X140040666Y-124769619D01*
X140074000Y-124864857D01*
X140074000Y-124960095D01*
X140040666Y-125055333D01*
X140007333Y-125102952D01*
X139940666Y-125150571D01*
X139707333Y-125150571D01*
X140374000Y-125388666D02*
X140707333Y-125388666D01*
X140307333Y-125674380D02*
X140540666Y-124674380D01*
X140774000Y-125674380D01*
X141340666Y-125674380D02*
X141007333Y-125674380D01*
X141007333Y-124674380D01*
X141540666Y-125388666D02*
X141874000Y-125388666D01*
X141474000Y-125674380D02*
X141707333Y-124674380D01*
X141940666Y-125674380D01*
X142174000Y-125674380D02*
X142174000Y-124674380D01*
X142574000Y-125674380D01*
X142574000Y-124674380D01*
X143307333Y-125579142D02*
X143274000Y-125626761D01*
X143174000Y-125674380D01*
X143107333Y-125674380D01*
X143007333Y-125626761D01*
X142940666Y-125531523D01*
X142907333Y-125436285D01*
X142874000Y-125245809D01*
X142874000Y-125102952D01*
X142907333Y-124912476D01*
X142940666Y-124817238D01*
X143007333Y-124722000D01*
X143107333Y-124674380D01*
X143174000Y-124674380D01*
X143274000Y-124722000D01*
X143307333Y-124769619D01*
X143607333Y-125150571D02*
X143840666Y-125150571D01*
X143940666Y-125674380D02*
X143607333Y-125674380D01*
X143607333Y-124674380D01*
X143940666Y-124674380D01*
X144607333Y-125674380D02*
X144207333Y-125674380D01*
X144407333Y-125674380D02*
X144407333Y-124674380D01*
X144340666Y-124817238D01*
X144274000Y-124912476D01*
X144207333Y-124960095D01*
X151823142Y-60852666D02*
X151870761Y-60900285D01*
X151918380Y-61043142D01*
X151918380Y-61138380D01*
X151870761Y-61281238D01*
X151775523Y-61376476D01*
X151680285Y-61424095D01*
X151489809Y-61471714D01*
X151346952Y-61471714D01*
X151156476Y-61424095D01*
X151061238Y-61376476D01*
X150966000Y-61281238D01*
X150918380Y-61138380D01*
X150918380Y-61043142D01*
X150966000Y-60900285D01*
X151013619Y-60852666D01*
X151918380Y-59900285D02*
X151918380Y-60471714D01*
X151918380Y-60186000D02*
X150918380Y-60186000D01*
X151061238Y-60281238D01*
X151156476Y-60376476D01*
X151204095Y-60471714D01*
X135961119Y-74233904D02*
X135694452Y-73852952D01*
X135503976Y-74233904D02*
X135503976Y-73433904D01*
X135808738Y-73433904D01*
X135884928Y-73472000D01*
X135923023Y-73510095D01*
X135961119Y-73586285D01*
X135961119Y-73700571D01*
X135923023Y-73776761D01*
X135884928Y-73814857D01*
X135808738Y-73852952D01*
X135503976Y-73852952D01*
X136227785Y-73433904D02*
X136723023Y-73433904D01*
X136456357Y-73738666D01*
X136570642Y-73738666D01*
X136646833Y-73776761D01*
X136684928Y-73814857D01*
X136723023Y-73891047D01*
X136723023Y-74081523D01*
X136684928Y-74157714D01*
X136646833Y-74195809D01*
X136570642Y-74233904D01*
X136342071Y-74233904D01*
X136265880Y-74195809D01*
X136227785Y-74157714D01*
X137408738Y-73700571D02*
X137408738Y-74233904D01*
X137218261Y-73395809D02*
X137027785Y-73967238D01*
X137523023Y-73967238D01*
X120908309Y-127869904D02*
X120641642Y-127488952D01*
X120451166Y-127869904D02*
X120451166Y-127069904D01*
X120755928Y-127069904D01*
X120832119Y-127108000D01*
X120870214Y-127146095D01*
X120908309Y-127222285D01*
X120908309Y-127336571D01*
X120870214Y-127412761D01*
X120832119Y-127450857D01*
X120755928Y-127488952D01*
X120451166Y-127488952D01*
X121670214Y-127869904D02*
X121213071Y-127869904D01*
X121441642Y-127869904D02*
X121441642Y-127069904D01*
X121365452Y-127184190D01*
X121289261Y-127260380D01*
X121213071Y-127298476D01*
X122355928Y-127069904D02*
X122203547Y-127069904D01*
X122127357Y-127108000D01*
X122089261Y-127146095D01*
X122013071Y-127260380D01*
X121974976Y-127412761D01*
X121974976Y-127717523D01*
X122013071Y-127793714D01*
X122051166Y-127831809D01*
X122127357Y-127869904D01*
X122279738Y-127869904D01*
X122355928Y-127831809D01*
X122394023Y-127793714D01*
X122432119Y-127717523D01*
X122432119Y-127527047D01*
X122394023Y-127450857D01*
X122355928Y-127412761D01*
X122279738Y-127374666D01*
X122127357Y-127374666D01*
X122051166Y-127412761D01*
X122013071Y-127450857D01*
X121974976Y-127527047D01*
X133294380Y-134850095D02*
X132294380Y-134850095D01*
X132294380Y-134612000D01*
X132342000Y-134469142D01*
X132437238Y-134373904D01*
X132532476Y-134326285D01*
X132722952Y-134278666D01*
X132865809Y-134278666D01*
X133056285Y-134326285D01*
X133151523Y-134373904D01*
X133246761Y-134469142D01*
X133294380Y-134612000D01*
X133294380Y-134850095D01*
X132294380Y-133945333D02*
X132294380Y-133278666D01*
X133294380Y-133707238D01*
X114625119Y-66867904D02*
X114358452Y-66486952D01*
X114167976Y-66867904D02*
X114167976Y-66067904D01*
X114472738Y-66067904D01*
X114548928Y-66106000D01*
X114587023Y-66144095D01*
X114625119Y-66220285D01*
X114625119Y-66334571D01*
X114587023Y-66410761D01*
X114548928Y-66448857D01*
X114472738Y-66486952D01*
X114167976Y-66486952D01*
X114929880Y-66144095D02*
X114967976Y-66106000D01*
X115044166Y-66067904D01*
X115234642Y-66067904D01*
X115310833Y-66106000D01*
X115348928Y-66144095D01*
X115387023Y-66220285D01*
X115387023Y-66296476D01*
X115348928Y-66410761D01*
X114891785Y-66867904D01*
X115387023Y-66867904D01*
X115653690Y-66067904D02*
X116187023Y-66067904D01*
X115844166Y-66867904D01*
X121055428Y-61682380D02*
X121055428Y-62396666D01*
X121007809Y-62539523D01*
X120912571Y-62634761D01*
X120769714Y-62682380D01*
X120674476Y-62682380D01*
X121293523Y-62777619D02*
X122055428Y-62777619D01*
X122293523Y-62682380D02*
X122293523Y-61682380D01*
X122674476Y-61682380D01*
X122769714Y-61730000D01*
X122817333Y-61777619D01*
X122864952Y-61872857D01*
X122864952Y-62015714D01*
X122817333Y-62110952D01*
X122769714Y-62158571D01*
X122674476Y-62206190D01*
X122293523Y-62206190D01*
X123245904Y-62396666D02*
X123722095Y-62396666D01*
X123150666Y-62682380D02*
X123484000Y-61682380D01*
X123817333Y-62682380D01*
X124150666Y-62682380D02*
X124150666Y-61682380D01*
X124722095Y-62682380D01*
X124722095Y-61682380D01*
X125198285Y-62158571D02*
X125531619Y-62158571D01*
X125674476Y-62682380D02*
X125198285Y-62682380D01*
X125198285Y-61682380D01*
X125674476Y-61682380D01*
X126579238Y-62682380D02*
X126103047Y-62682380D01*
X126103047Y-61682380D01*
X126674476Y-62777619D02*
X127436380Y-62777619D01*
X128198285Y-61730000D02*
X128103047Y-61682380D01*
X127960190Y-61682380D01*
X127817333Y-61730000D01*
X127722095Y-61825238D01*
X127674476Y-61920476D01*
X127626857Y-62110952D01*
X127626857Y-62253809D01*
X127674476Y-62444285D01*
X127722095Y-62539523D01*
X127817333Y-62634761D01*
X127960190Y-62682380D01*
X128055428Y-62682380D01*
X128198285Y-62634761D01*
X128245904Y-62587142D01*
X128245904Y-62253809D01*
X128055428Y-62253809D01*
X128674476Y-62682380D02*
X128674476Y-61682380D01*
X129245904Y-62682380D01*
X129245904Y-61682380D01*
X129722095Y-62682380D02*
X129722095Y-61682380D01*
X129960190Y-61682380D01*
X130103047Y-61730000D01*
X130198285Y-61825238D01*
X130245904Y-61920476D01*
X130293523Y-62110952D01*
X130293523Y-62253809D01*
X130245904Y-62444285D01*
X130198285Y-62539523D01*
X130103047Y-62634761D01*
X129960190Y-62682380D01*
X129722095Y-62682380D01*
X130674476Y-61777619D02*
X130722095Y-61730000D01*
X130817333Y-61682380D01*
X131055428Y-61682380D01*
X131150666Y-61730000D01*
X131198285Y-61777619D01*
X131245904Y-61872857D01*
X131245904Y-61968095D01*
X131198285Y-62110952D01*
X130626857Y-62682380D01*
X131245904Y-62682380D01*
X113133142Y-138342666D02*
X113180761Y-138390285D01*
X113228380Y-138533142D01*
X113228380Y-138628380D01*
X113180761Y-138771238D01*
X113085523Y-138866476D01*
X112990285Y-138914095D01*
X112799809Y-138961714D01*
X112656952Y-138961714D01*
X112466476Y-138914095D01*
X112371238Y-138866476D01*
X112276000Y-138771238D01*
X112228380Y-138628380D01*
X112228380Y-138533142D01*
X112276000Y-138390285D01*
X112323619Y-138342666D01*
X113228380Y-137866476D02*
X113228380Y-137676000D01*
X113180761Y-137580761D01*
X113133142Y-137533142D01*
X112990285Y-137437904D01*
X112799809Y-137390285D01*
X112418857Y-137390285D01*
X112323619Y-137437904D01*
X112276000Y-137485523D01*
X112228380Y-137580761D01*
X112228380Y-137771238D01*
X112276000Y-137866476D01*
X112323619Y-137914095D01*
X112418857Y-137961714D01*
X112656952Y-137961714D01*
X112752190Y-137914095D01*
X112799809Y-137866476D01*
X112847428Y-137771238D01*
X112847428Y-137580761D01*
X112799809Y-137485523D01*
X112752190Y-137437904D01*
X112656952Y-137390285D01*
X135834380Y-135358095D02*
X134834380Y-135358095D01*
X134834380Y-135120000D01*
X134882000Y-134977142D01*
X134977238Y-134881904D01*
X135072476Y-134834285D01*
X135262952Y-134786666D01*
X135405809Y-134786666D01*
X135596285Y-134834285D01*
X135691523Y-134881904D01*
X135786761Y-134977142D01*
X135834380Y-135120000D01*
X135834380Y-135358095D01*
X135262952Y-134215238D02*
X135215333Y-134310476D01*
X135167714Y-134358095D01*
X135072476Y-134405714D01*
X135024857Y-134405714D01*
X134929619Y-134358095D01*
X134882000Y-134310476D01*
X134834380Y-134215238D01*
X134834380Y-134024761D01*
X134882000Y-133929523D01*
X134929619Y-133881904D01*
X135024857Y-133834285D01*
X135072476Y-133834285D01*
X135167714Y-133881904D01*
X135215333Y-133929523D01*
X135262952Y-134024761D01*
X135262952Y-134215238D01*
X135310571Y-134310476D01*
X135358190Y-134358095D01*
X135453428Y-134405714D01*
X135643904Y-134405714D01*
X135739142Y-134358095D01*
X135786761Y-134310476D01*
X135834380Y-134215238D01*
X135834380Y-134024761D01*
X135786761Y-133929523D01*
X135739142Y-133881904D01*
X135643904Y-133834285D01*
X135453428Y-133834285D01*
X135358190Y-133881904D01*
X135310571Y-133929523D01*
X135262952Y-134024761D01*
X144696309Y-110893904D02*
X144429642Y-110512952D01*
X144239166Y-110893904D02*
X144239166Y-110093904D01*
X144543928Y-110093904D01*
X144620119Y-110132000D01*
X144658214Y-110170095D01*
X144696309Y-110246285D01*
X144696309Y-110360571D01*
X144658214Y-110436761D01*
X144620119Y-110474857D01*
X144543928Y-110512952D01*
X144239166Y-110512952D01*
X145458214Y-110893904D02*
X145001071Y-110893904D01*
X145229642Y-110893904D02*
X145229642Y-110093904D01*
X145153452Y-110208190D01*
X145077261Y-110284380D01*
X145001071Y-110322476D01*
X146182023Y-110093904D02*
X145801071Y-110093904D01*
X145762976Y-110474857D01*
X145801071Y-110436761D01*
X145877261Y-110398666D01*
X146067738Y-110398666D01*
X146143928Y-110436761D01*
X146182023Y-110474857D01*
X146220119Y-110551047D01*
X146220119Y-110741523D01*
X146182023Y-110817714D01*
X146143928Y-110855809D01*
X146067738Y-110893904D01*
X145877261Y-110893904D01*
X145801071Y-110855809D01*
X145762976Y-110817714D01*
X120908309Y-124567904D02*
X120641642Y-124186952D01*
X120451166Y-124567904D02*
X120451166Y-123767904D01*
X120755928Y-123767904D01*
X120832119Y-123806000D01*
X120870214Y-123844095D01*
X120908309Y-123920285D01*
X120908309Y-124034571D01*
X120870214Y-124110761D01*
X120832119Y-124148857D01*
X120755928Y-124186952D01*
X120451166Y-124186952D01*
X121213071Y-123844095D02*
X121251166Y-123806000D01*
X121327357Y-123767904D01*
X121517833Y-123767904D01*
X121594023Y-123806000D01*
X121632119Y-123844095D01*
X121670214Y-123920285D01*
X121670214Y-123996476D01*
X121632119Y-124110761D01*
X121174976Y-124567904D01*
X121670214Y-124567904D01*
X122355928Y-124034571D02*
X122355928Y-124567904D01*
X122165452Y-123729809D02*
X121974976Y-124301238D01*
X122470214Y-124301238D01*
X114625119Y-73471904D02*
X114358452Y-73090952D01*
X114167976Y-73471904D02*
X114167976Y-72671904D01*
X114472738Y-72671904D01*
X114548928Y-72710000D01*
X114587023Y-72748095D01*
X114625119Y-72824285D01*
X114625119Y-72938571D01*
X114587023Y-73014761D01*
X114548928Y-73052857D01*
X114472738Y-73090952D01*
X114167976Y-73090952D01*
X114929880Y-72748095D02*
X114967976Y-72710000D01*
X115044166Y-72671904D01*
X115234642Y-72671904D01*
X115310833Y-72710000D01*
X115348928Y-72748095D01*
X115387023Y-72824285D01*
X115387023Y-72900476D01*
X115348928Y-73014761D01*
X114891785Y-73471904D01*
X115387023Y-73471904D01*
X116072738Y-72671904D02*
X115920357Y-72671904D01*
X115844166Y-72710000D01*
X115806071Y-72748095D01*
X115729880Y-72862380D01*
X115691785Y-73014761D01*
X115691785Y-73319523D01*
X115729880Y-73395714D01*
X115767976Y-73433809D01*
X115844166Y-73471904D01*
X115996547Y-73471904D01*
X116072738Y-73433809D01*
X116110833Y-73395714D01*
X116148928Y-73319523D01*
X116148928Y-73129047D01*
X116110833Y-73052857D01*
X116072738Y-73014761D01*
X115996547Y-72976666D01*
X115844166Y-72976666D01*
X115767976Y-73014761D01*
X115729880Y-73052857D01*
X115691785Y-73129047D01*
X145437904Y-129877690D02*
X145056952Y-130144357D01*
X145437904Y-130334833D02*
X144637904Y-130334833D01*
X144637904Y-130030071D01*
X144676000Y-129953880D01*
X144714095Y-129915785D01*
X144790285Y-129877690D01*
X144904571Y-129877690D01*
X144980761Y-129915785D01*
X145018857Y-129953880D01*
X145056952Y-130030071D01*
X145056952Y-130334833D01*
X144714095Y-129572928D02*
X144676000Y-129534833D01*
X144637904Y-129458642D01*
X144637904Y-129268166D01*
X144676000Y-129191976D01*
X144714095Y-129153880D01*
X144790285Y-129115785D01*
X144866476Y-129115785D01*
X144980761Y-129153880D01*
X145437904Y-129611023D01*
X145437904Y-129115785D01*
X145437904Y-128353880D02*
X145437904Y-128811023D01*
X145437904Y-128582452D02*
X144637904Y-128582452D01*
X144752190Y-128658642D01*
X144828380Y-128734833D01*
X144866476Y-128811023D01*
X116108380Y-119867047D02*
X115632190Y-120200380D01*
X116108380Y-120438476D02*
X115108380Y-120438476D01*
X115108380Y-120057523D01*
X115156000Y-119962285D01*
X115203619Y-119914666D01*
X115298857Y-119867047D01*
X115441714Y-119867047D01*
X115536952Y-119914666D01*
X115584571Y-119962285D01*
X115632190Y-120057523D01*
X115632190Y-120438476D01*
X115108380Y-119581333D02*
X116108380Y-119248000D01*
X115108380Y-118914666D01*
X116203619Y-118819428D02*
X116203619Y-118057523D01*
X115584571Y-117486095D02*
X115632190Y-117343238D01*
X115679809Y-117295619D01*
X115775047Y-117248000D01*
X115917904Y-117248000D01*
X116013142Y-117295619D01*
X116060761Y-117343238D01*
X116108380Y-117438476D01*
X116108380Y-117819428D01*
X115108380Y-117819428D01*
X115108380Y-117486095D01*
X115156000Y-117390857D01*
X115203619Y-117343238D01*
X115298857Y-117295619D01*
X115394095Y-117295619D01*
X115489333Y-117343238D01*
X115536952Y-117390857D01*
X115584571Y-117486095D01*
X115584571Y-117819428D01*
X116108380Y-116819428D02*
X115108380Y-116819428D01*
X115822666Y-116390857D02*
X115822666Y-115914666D01*
X116108380Y-116486095D02*
X115108380Y-116152761D01*
X116108380Y-115819428D01*
X116060761Y-115533714D02*
X116108380Y-115390857D01*
X116108380Y-115152761D01*
X116060761Y-115057523D01*
X116013142Y-115009904D01*
X115917904Y-114962285D01*
X115822666Y-114962285D01*
X115727428Y-115009904D01*
X115679809Y-115057523D01*
X115632190Y-115152761D01*
X115584571Y-115343238D01*
X115536952Y-115438476D01*
X115489333Y-115486095D01*
X115394095Y-115533714D01*
X115298857Y-115533714D01*
X115203619Y-115486095D01*
X115156000Y-115438476D01*
X115108380Y-115343238D01*
X115108380Y-115105142D01*
X115156000Y-114962285D01*
X116108380Y-114009904D02*
X116108380Y-114581333D01*
X116108380Y-114295619D02*
X115108380Y-114295619D01*
X115251238Y-114390857D01*
X115346476Y-114486095D01*
X115394095Y-114581333D01*
X136060309Y-145437904D02*
X135793642Y-145056952D01*
X135603166Y-145437904D02*
X135603166Y-144637904D01*
X135907928Y-144637904D01*
X135984119Y-144676000D01*
X136022214Y-144714095D01*
X136060309Y-144790285D01*
X136060309Y-144904571D01*
X136022214Y-144980761D01*
X135984119Y-145018857D01*
X135907928Y-145056952D01*
X135603166Y-145056952D01*
X136822214Y-145437904D02*
X136365071Y-145437904D01*
X136593642Y-145437904D02*
X136593642Y-144637904D01*
X136517452Y-144752190D01*
X136441261Y-144828380D01*
X136365071Y-144866476D01*
X137279357Y-144980761D02*
X137203166Y-144942666D01*
X137165071Y-144904571D01*
X137126976Y-144828380D01*
X137126976Y-144790285D01*
X137165071Y-144714095D01*
X137203166Y-144676000D01*
X137279357Y-144637904D01*
X137431738Y-144637904D01*
X137507928Y-144676000D01*
X137546023Y-144714095D01*
X137584119Y-144790285D01*
X137584119Y-144828380D01*
X137546023Y-144904571D01*
X137507928Y-144942666D01*
X137431738Y-144980761D01*
X137279357Y-144980761D01*
X137203166Y-145018857D01*
X137165071Y-145056952D01*
X137126976Y-145133142D01*
X137126976Y-145285523D01*
X137165071Y-145361714D01*
X137203166Y-145399809D01*
X137279357Y-145437904D01*
X137431738Y-145437904D01*
X137507928Y-145399809D01*
X137546023Y-145361714D01*
X137584119Y-145285523D01*
X137584119Y-145133142D01*
X137546023Y-145056952D01*
X137507928Y-145018857D01*
X137431738Y-144980761D01*
X145204214Y-66951904D02*
X144937547Y-66570952D01*
X144747071Y-66951904D02*
X144747071Y-66151904D01*
X145051833Y-66151904D01*
X145128023Y-66190000D01*
X145166119Y-66228095D01*
X145204214Y-66304285D01*
X145204214Y-66418571D01*
X145166119Y-66494761D01*
X145128023Y-66532857D01*
X145051833Y-66570952D01*
X144747071Y-66570952D01*
X145966119Y-66951904D02*
X145508976Y-66951904D01*
X145737547Y-66951904D02*
X145737547Y-66151904D01*
X145661357Y-66266190D01*
X145585166Y-66342380D01*
X145508976Y-66380476D01*
X135961119Y-87187904D02*
X135694452Y-86806952D01*
X135503976Y-87187904D02*
X135503976Y-86387904D01*
X135808738Y-86387904D01*
X135884928Y-86426000D01*
X135923023Y-86464095D01*
X135961119Y-86540285D01*
X135961119Y-86654571D01*
X135923023Y-86730761D01*
X135884928Y-86768857D01*
X135808738Y-86806952D01*
X135503976Y-86806952D01*
X136723023Y-87187904D02*
X136265880Y-87187904D01*
X136494452Y-87187904D02*
X136494452Y-86387904D01*
X136418261Y-86502190D01*
X136342071Y-86578380D01*
X136265880Y-86616476D01*
X137484928Y-87187904D02*
X137027785Y-87187904D01*
X137256357Y-87187904D02*
X137256357Y-86387904D01*
X137180166Y-86502190D01*
X137103976Y-86578380D01*
X137027785Y-86616476D01*
X136060309Y-148739904D02*
X135793642Y-148358952D01*
X135603166Y-148739904D02*
X135603166Y-147939904D01*
X135907928Y-147939904D01*
X135984119Y-147978000D01*
X136022214Y-148016095D01*
X136060309Y-148092285D01*
X136060309Y-148206571D01*
X136022214Y-148282761D01*
X135984119Y-148320857D01*
X135907928Y-148358952D01*
X135603166Y-148358952D01*
X136365071Y-148016095D02*
X136403166Y-147978000D01*
X136479357Y-147939904D01*
X136669833Y-147939904D01*
X136746023Y-147978000D01*
X136784119Y-148016095D01*
X136822214Y-148092285D01*
X136822214Y-148168476D01*
X136784119Y-148282761D01*
X136326976Y-148739904D01*
X136822214Y-148739904D01*
X137088880Y-147939904D02*
X137584119Y-147939904D01*
X137317452Y-148244666D01*
X137431738Y-148244666D01*
X137507928Y-148282761D01*
X137546023Y-148320857D01*
X137584119Y-148397047D01*
X137584119Y-148587523D01*
X137546023Y-148663714D01*
X137507928Y-148701809D01*
X137431738Y-148739904D01*
X137203166Y-148739904D01*
X137126976Y-148701809D01*
X137088880Y-148663714D01*
X126761095Y-90433380D02*
X126761095Y-91242904D01*
X126808714Y-91338142D01*
X126856333Y-91385761D01*
X126951571Y-91433380D01*
X127142047Y-91433380D01*
X127237285Y-91385761D01*
X127284904Y-91338142D01*
X127332523Y-91242904D01*
X127332523Y-90433380D01*
X127761095Y-90528619D02*
X127808714Y-90481000D01*
X127903952Y-90433380D01*
X128142047Y-90433380D01*
X128237285Y-90481000D01*
X128284904Y-90528619D01*
X128332523Y-90623857D01*
X128332523Y-90719095D01*
X128284904Y-90861952D01*
X127713476Y-91433380D01*
X128332523Y-91433380D01*
X132659119Y-141035904D02*
X132392452Y-140654952D01*
X132201976Y-141035904D02*
X132201976Y-140235904D01*
X132506738Y-140235904D01*
X132582928Y-140274000D01*
X132621023Y-140312095D01*
X132659119Y-140388285D01*
X132659119Y-140502571D01*
X132621023Y-140578761D01*
X132582928Y-140616857D01*
X132506738Y-140654952D01*
X132201976Y-140654952D01*
X132963880Y-140312095D02*
X133001976Y-140274000D01*
X133078166Y-140235904D01*
X133268642Y-140235904D01*
X133344833Y-140274000D01*
X133382928Y-140312095D01*
X133421023Y-140388285D01*
X133421023Y-140464476D01*
X133382928Y-140578761D01*
X132925785Y-141035904D01*
X133421023Y-141035904D01*
X133725785Y-140312095D02*
X133763880Y-140274000D01*
X133840071Y-140235904D01*
X134030547Y-140235904D01*
X134106738Y-140274000D01*
X134144833Y-140312095D01*
X134182928Y-140388285D01*
X134182928Y-140464476D01*
X134144833Y-140578761D01*
X133687690Y-141035904D01*
X134182928Y-141035904D01*
X139362309Y-78635904D02*
X139095642Y-78254952D01*
X138905166Y-78635904D02*
X138905166Y-77835904D01*
X139209928Y-77835904D01*
X139286119Y-77874000D01*
X139324214Y-77912095D01*
X139362309Y-77988285D01*
X139362309Y-78102571D01*
X139324214Y-78178761D01*
X139286119Y-78216857D01*
X139209928Y-78254952D01*
X138905166Y-78254952D01*
X139628976Y-77835904D02*
X140124214Y-77835904D01*
X139857547Y-78140666D01*
X139971833Y-78140666D01*
X140048023Y-78178761D01*
X140086119Y-78216857D01*
X140124214Y-78293047D01*
X140124214Y-78483523D01*
X140086119Y-78559714D01*
X140048023Y-78597809D01*
X139971833Y-78635904D01*
X139743261Y-78635904D01*
X139667071Y-78597809D01*
X139628976Y-78559714D01*
X140428976Y-77912095D02*
X140467071Y-77874000D01*
X140543261Y-77835904D01*
X140733738Y-77835904D01*
X140809928Y-77874000D01*
X140848023Y-77912095D01*
X140886119Y-77988285D01*
X140886119Y-78064476D01*
X140848023Y-78178761D01*
X140390880Y-78635904D01*
X140886119Y-78635904D01*
X126341142Y-119800666D02*
X126388761Y-119848285D01*
X126436380Y-119991142D01*
X126436380Y-120086380D01*
X126388761Y-120229238D01*
X126293523Y-120324476D01*
X126198285Y-120372095D01*
X126007809Y-120419714D01*
X125864952Y-120419714D01*
X125674476Y-120372095D01*
X125579238Y-120324476D01*
X125484000Y-120229238D01*
X125436380Y-120086380D01*
X125436380Y-119991142D01*
X125484000Y-119848285D01*
X125531619Y-119800666D01*
X125436380Y-119467333D02*
X125436380Y-118800666D01*
X126436380Y-119229238D01*
X124658380Y-135358095D02*
X123658380Y-135358095D01*
X123658380Y-135120000D01*
X123706000Y-134977142D01*
X123801238Y-134881904D01*
X123896476Y-134834285D01*
X124086952Y-134786666D01*
X124229809Y-134786666D01*
X124420285Y-134834285D01*
X124515523Y-134881904D01*
X124610761Y-134977142D01*
X124658380Y-135120000D01*
X124658380Y-135358095D01*
X123991714Y-133929523D02*
X124658380Y-133929523D01*
X123610761Y-134167619D02*
X124325047Y-134405714D01*
X124325047Y-133786666D01*
X148963142Y-102973142D02*
X148915523Y-103020761D01*
X148772666Y-103068380D01*
X148677428Y-103068380D01*
X148534571Y-103020761D01*
X148439333Y-102925523D01*
X148391714Y-102830285D01*
X148344095Y-102639809D01*
X148344095Y-102496952D01*
X148391714Y-102306476D01*
X148439333Y-102211238D01*
X148534571Y-102116000D01*
X148677428Y-102068380D01*
X148772666Y-102068380D01*
X148915523Y-102116000D01*
X148963142Y-102163619D01*
X149915523Y-103068380D02*
X149344095Y-103068380D01*
X149629809Y-103068380D02*
X149629809Y-102068380D01*
X149534571Y-102211238D01*
X149439333Y-102306476D01*
X149344095Y-102354095D01*
X150534571Y-102068380D02*
X150629809Y-102068380D01*
X150725047Y-102116000D01*
X150772666Y-102163619D01*
X150820285Y-102258857D01*
X150867904Y-102449333D01*
X150867904Y-102687428D01*
X150820285Y-102877904D01*
X150772666Y-102973142D01*
X150725047Y-103020761D01*
X150629809Y-103068380D01*
X150534571Y-103068380D01*
X150439333Y-103020761D01*
X150391714Y-102973142D01*
X150344095Y-102877904D01*
X150296476Y-102687428D01*
X150296476Y-102449333D01*
X150344095Y-102258857D01*
X150391714Y-102163619D01*
X150439333Y-102116000D01*
X150534571Y-102068380D01*
X114371119Y-94299904D02*
X114104452Y-93918952D01*
X113913976Y-94299904D02*
X113913976Y-93499904D01*
X114218738Y-93499904D01*
X114294928Y-93538000D01*
X114333023Y-93576095D01*
X114371119Y-93652285D01*
X114371119Y-93766571D01*
X114333023Y-93842761D01*
X114294928Y-93880857D01*
X114218738Y-93918952D01*
X113913976Y-93918952D01*
X114637785Y-93499904D02*
X115133023Y-93499904D01*
X114866357Y-93804666D01*
X114980642Y-93804666D01*
X115056833Y-93842761D01*
X115094928Y-93880857D01*
X115133023Y-93957047D01*
X115133023Y-94147523D01*
X115094928Y-94223714D01*
X115056833Y-94261809D01*
X114980642Y-94299904D01*
X114752071Y-94299904D01*
X114675880Y-94261809D01*
X114637785Y-94223714D01*
X115399690Y-93499904D02*
X115894928Y-93499904D01*
X115628261Y-93804666D01*
X115742547Y-93804666D01*
X115818738Y-93842761D01*
X115856833Y-93880857D01*
X115894928Y-93957047D01*
X115894928Y-94147523D01*
X115856833Y-94223714D01*
X115818738Y-94261809D01*
X115742547Y-94299904D01*
X115513976Y-94299904D01*
X115437785Y-94261809D01*
X115399690Y-94223714D01*
X141295119Y-106491904D02*
X141028452Y-106110952D01*
X140837976Y-106491904D02*
X140837976Y-105691904D01*
X141142738Y-105691904D01*
X141218928Y-105730000D01*
X141257023Y-105768095D01*
X141295119Y-105844285D01*
X141295119Y-105958571D01*
X141257023Y-106034761D01*
X141218928Y-106072857D01*
X141142738Y-106110952D01*
X140837976Y-106110952D01*
X142057023Y-106491904D02*
X141599880Y-106491904D01*
X141828452Y-106491904D02*
X141828452Y-105691904D01*
X141752261Y-105806190D01*
X141676071Y-105882380D01*
X141599880Y-105920476D01*
X142323690Y-105691904D02*
X142857023Y-105691904D01*
X142514166Y-106491904D01*
X121864380Y-134850095D02*
X120864380Y-134850095D01*
X120864380Y-134612000D01*
X120912000Y-134469142D01*
X121007238Y-134373904D01*
X121102476Y-134326285D01*
X121292952Y-134278666D01*
X121435809Y-134278666D01*
X121626285Y-134326285D01*
X121721523Y-134373904D01*
X121816761Y-134469142D01*
X121864380Y-134612000D01*
X121864380Y-134850095D01*
X120864380Y-133945333D02*
X120864380Y-133326285D01*
X121245333Y-133659619D01*
X121245333Y-133516761D01*
X121292952Y-133421523D01*
X121340571Y-133373904D01*
X121435809Y-133326285D01*
X121673904Y-133326285D01*
X121769142Y-133373904D01*
X121816761Y-133421523D01*
X121864380Y-133516761D01*
X121864380Y-133802476D01*
X121816761Y-133897714D01*
X121769142Y-133945333D01*
X151074380Y-93733523D02*
X150598190Y-94066857D01*
X151074380Y-94304952D02*
X150074380Y-94304952D01*
X150074380Y-93924000D01*
X150122000Y-93828761D01*
X150169619Y-93781142D01*
X150264857Y-93733523D01*
X150407714Y-93733523D01*
X150502952Y-93781142D01*
X150550571Y-93828761D01*
X150598190Y-93924000D01*
X150598190Y-94304952D01*
X150074380Y-93447809D02*
X151074380Y-93114476D01*
X150074380Y-92781142D01*
X151169619Y-92685904D02*
X151169619Y-91924000D01*
X151074380Y-91114476D02*
X150598190Y-91447809D01*
X151074380Y-91685904D02*
X150074380Y-91685904D01*
X150074380Y-91304952D01*
X150122000Y-91209714D01*
X150169619Y-91162095D01*
X150264857Y-91114476D01*
X150407714Y-91114476D01*
X150502952Y-91162095D01*
X150550571Y-91209714D01*
X150598190Y-91304952D01*
X150598190Y-91685904D01*
X150550571Y-90685904D02*
X150550571Y-90352571D01*
X151074380Y-90209714D02*
X151074380Y-90685904D01*
X150074380Y-90685904D01*
X150074380Y-90209714D01*
X151026761Y-89828761D02*
X151074380Y-89685904D01*
X151074380Y-89447809D01*
X151026761Y-89352571D01*
X150979142Y-89304952D01*
X150883904Y-89257333D01*
X150788666Y-89257333D01*
X150693428Y-89304952D01*
X150645809Y-89352571D01*
X150598190Y-89447809D01*
X150550571Y-89638285D01*
X150502952Y-89733523D01*
X150455333Y-89781142D01*
X150360095Y-89828761D01*
X150264857Y-89828761D01*
X150169619Y-89781142D01*
X150122000Y-89733523D01*
X150074380Y-89638285D01*
X150074380Y-89400190D01*
X150122000Y-89257333D01*
X150074380Y-88638285D02*
X150074380Y-88447809D01*
X150122000Y-88352571D01*
X150217238Y-88257333D01*
X150407714Y-88209714D01*
X150741047Y-88209714D01*
X150931523Y-88257333D01*
X151026761Y-88352571D01*
X151074380Y-88447809D01*
X151074380Y-88638285D01*
X151026761Y-88733523D01*
X150931523Y-88828761D01*
X150741047Y-88876380D01*
X150407714Y-88876380D01*
X150217238Y-88828761D01*
X150122000Y-88733523D01*
X150074380Y-88638285D01*
X151169619Y-88019238D02*
X151169619Y-87257333D01*
X151074380Y-86495428D02*
X151074380Y-87066857D01*
X151074380Y-86781142D02*
X150074380Y-86781142D01*
X150217238Y-86876380D01*
X150312476Y-86971619D01*
X150360095Y-87066857D01*
X112641142Y-100179142D02*
X112593523Y-100226761D01*
X112450666Y-100274380D01*
X112355428Y-100274380D01*
X112212571Y-100226761D01*
X112117333Y-100131523D01*
X112069714Y-100036285D01*
X112022095Y-99845809D01*
X112022095Y-99702952D01*
X112069714Y-99512476D01*
X112117333Y-99417238D01*
X112212571Y-99322000D01*
X112355428Y-99274380D01*
X112450666Y-99274380D01*
X112593523Y-99322000D01*
X112641142Y-99369619D01*
X113593523Y-100274380D02*
X113022095Y-100274380D01*
X113307809Y-100274380D02*
X113307809Y-99274380D01*
X113212571Y-99417238D01*
X113117333Y-99512476D01*
X113022095Y-99560095D01*
X114069714Y-100274380D02*
X114260190Y-100274380D01*
X114355428Y-100226761D01*
X114403047Y-100179142D01*
X114498285Y-100036285D01*
X114545904Y-99845809D01*
X114545904Y-99464857D01*
X114498285Y-99369619D01*
X114450666Y-99322000D01*
X114355428Y-99274380D01*
X114164952Y-99274380D01*
X114069714Y-99322000D01*
X114022095Y-99369619D01*
X113974476Y-99464857D01*
X113974476Y-99702952D01*
X114022095Y-99798190D01*
X114069714Y-99845809D01*
X114164952Y-99893428D01*
X114355428Y-99893428D01*
X114450666Y-99845809D01*
X114498285Y-99798190D01*
X114545904Y-99702952D01*
X126325333Y-100179142D02*
X126277714Y-100226761D01*
X126134857Y-100274380D01*
X126039619Y-100274380D01*
X125896761Y-100226761D01*
X125801523Y-100131523D01*
X125753904Y-100036285D01*
X125706285Y-99845809D01*
X125706285Y-99702952D01*
X125753904Y-99512476D01*
X125801523Y-99417238D01*
X125896761Y-99322000D01*
X126039619Y-99274380D01*
X126134857Y-99274380D01*
X126277714Y-99322000D01*
X126325333Y-99369619D01*
X126896761Y-99702952D02*
X126801523Y-99655333D01*
X126753904Y-99607714D01*
X126706285Y-99512476D01*
X126706285Y-99464857D01*
X126753904Y-99369619D01*
X126801523Y-99322000D01*
X126896761Y-99274380D01*
X127087238Y-99274380D01*
X127182476Y-99322000D01*
X127230095Y-99369619D01*
X127277714Y-99464857D01*
X127277714Y-99512476D01*
X127230095Y-99607714D01*
X127182476Y-99655333D01*
X127087238Y-99702952D01*
X126896761Y-99702952D01*
X126801523Y-99750571D01*
X126753904Y-99798190D01*
X126706285Y-99893428D01*
X126706285Y-100083904D01*
X126753904Y-100179142D01*
X126801523Y-100226761D01*
X126896761Y-100274380D01*
X127087238Y-100274380D01*
X127182476Y-100226761D01*
X127230095Y-100179142D01*
X127277714Y-100083904D01*
X127277714Y-99893428D01*
X127230095Y-99798190D01*
X127182476Y-99750571D01*
X127087238Y-99702952D01*
X119959119Y-111571904D02*
X119692452Y-111190952D01*
X119501976Y-111571904D02*
X119501976Y-110771904D01*
X119806738Y-110771904D01*
X119882928Y-110810000D01*
X119921023Y-110848095D01*
X119959119Y-110924285D01*
X119959119Y-111038571D01*
X119921023Y-111114761D01*
X119882928Y-111152857D01*
X119806738Y-111190952D01*
X119501976Y-111190952D01*
X120644833Y-111038571D02*
X120644833Y-111571904D01*
X120454357Y-110733809D02*
X120263880Y-111305238D01*
X120759119Y-111305238D01*
X139362309Y-72031904D02*
X139095642Y-71650952D01*
X138905166Y-72031904D02*
X138905166Y-71231904D01*
X139209928Y-71231904D01*
X139286119Y-71270000D01*
X139324214Y-71308095D01*
X139362309Y-71384285D01*
X139362309Y-71498571D01*
X139324214Y-71574761D01*
X139286119Y-71612857D01*
X139209928Y-71650952D01*
X138905166Y-71650952D01*
X139628976Y-71231904D02*
X140124214Y-71231904D01*
X139857547Y-71536666D01*
X139971833Y-71536666D01*
X140048023Y-71574761D01*
X140086119Y-71612857D01*
X140124214Y-71689047D01*
X140124214Y-71879523D01*
X140086119Y-71955714D01*
X140048023Y-71993809D01*
X139971833Y-72031904D01*
X139743261Y-72031904D01*
X139667071Y-71993809D01*
X139628976Y-71955714D01*
X140848023Y-71231904D02*
X140467071Y-71231904D01*
X140428976Y-71612857D01*
X140467071Y-71574761D01*
X140543261Y-71536666D01*
X140733738Y-71536666D01*
X140809928Y-71574761D01*
X140848023Y-71612857D01*
X140886119Y-71689047D01*
X140886119Y-71879523D01*
X140848023Y-71955714D01*
X140809928Y-71993809D01*
X140733738Y-72031904D01*
X140543261Y-72031904D01*
X140467071Y-71993809D01*
X140428976Y-71955714D01*
X138295142Y-128119142D02*
X138247523Y-128166761D01*
X138104666Y-128214380D01*
X138009428Y-128214380D01*
X137866571Y-128166761D01*
X137771333Y-128071523D01*
X137723714Y-127976285D01*
X137676095Y-127785809D01*
X137676095Y-127642952D01*
X137723714Y-127452476D01*
X137771333Y-127357238D01*
X137866571Y-127262000D01*
X138009428Y-127214380D01*
X138104666Y-127214380D01*
X138247523Y-127262000D01*
X138295142Y-127309619D01*
X139247523Y-128214380D02*
X138676095Y-128214380D01*
X138961809Y-128214380D02*
X138961809Y-127214380D01*
X138866571Y-127357238D01*
X138771333Y-127452476D01*
X138676095Y-127500095D01*
X139580857Y-127214380D02*
X140199904Y-127214380D01*
X139866571Y-127595333D01*
X140009428Y-127595333D01*
X140104666Y-127642952D01*
X140152285Y-127690571D01*
X140199904Y-127785809D01*
X140199904Y-128023904D01*
X140152285Y-128119142D01*
X140104666Y-128166761D01*
X140009428Y-128214380D01*
X139723714Y-128214380D01*
X139628476Y-128166761D01*
X139580857Y-128119142D01*
X119415619Y-140811238D02*
X119368000Y-140906476D01*
X119272761Y-141001714D01*
X119129904Y-141144571D01*
X119082285Y-141239809D01*
X119082285Y-141335047D01*
X119320380Y-141287428D02*
X119272761Y-141382666D01*
X119177523Y-141477904D01*
X118987047Y-141525523D01*
X118653714Y-141525523D01*
X118463238Y-141477904D01*
X118368000Y-141382666D01*
X118320380Y-141287428D01*
X118320380Y-141096952D01*
X118368000Y-141001714D01*
X118463238Y-140906476D01*
X118653714Y-140858857D01*
X118987047Y-140858857D01*
X119177523Y-140906476D01*
X119272761Y-141001714D01*
X119320380Y-141096952D01*
X119320380Y-141287428D01*
X119320380Y-139906476D02*
X119320380Y-140477904D01*
X119320380Y-140192190D02*
X118320380Y-140192190D01*
X118463238Y-140287428D01*
X118558476Y-140382666D01*
X118606095Y-140477904D01*
X124609904Y-94317690D02*
X124228952Y-94584357D01*
X124609904Y-94774833D02*
X123809904Y-94774833D01*
X123809904Y-94470071D01*
X123848000Y-94393880D01*
X123886095Y-94355785D01*
X123962285Y-94317690D01*
X124076571Y-94317690D01*
X124152761Y-94355785D01*
X124190857Y-94393880D01*
X124228952Y-94470071D01*
X124228952Y-94774833D01*
X123886095Y-94012928D02*
X123848000Y-93974833D01*
X123809904Y-93898642D01*
X123809904Y-93708166D01*
X123848000Y-93631976D01*
X123886095Y-93593880D01*
X123962285Y-93555785D01*
X124038476Y-93555785D01*
X124152761Y-93593880D01*
X124609904Y-94051023D01*
X124609904Y-93555785D01*
X123809904Y-92831976D02*
X123809904Y-93212928D01*
X124190857Y-93251023D01*
X124152761Y-93212928D01*
X124114666Y-93136738D01*
X124114666Y-92946261D01*
X124152761Y-92870071D01*
X124190857Y-92831976D01*
X124267047Y-92793880D01*
X124457523Y-92793880D01*
X124533714Y-92831976D01*
X124571809Y-92870071D01*
X124609904Y-92946261D01*
X124609904Y-93136738D01*
X124571809Y-93212928D01*
X124533714Y-93251023D01*
X139362309Y-94891904D02*
X139095642Y-94510952D01*
X138905166Y-94891904D02*
X138905166Y-94091904D01*
X139209928Y-94091904D01*
X139286119Y-94130000D01*
X139324214Y-94168095D01*
X139362309Y-94244285D01*
X139362309Y-94358571D01*
X139324214Y-94434761D01*
X139286119Y-94472857D01*
X139209928Y-94510952D01*
X138905166Y-94510952D01*
X140124214Y-94891904D02*
X139667071Y-94891904D01*
X139895642Y-94891904D02*
X139895642Y-94091904D01*
X139819452Y-94206190D01*
X139743261Y-94282380D01*
X139667071Y-94320476D01*
X140809928Y-94358571D02*
X140809928Y-94891904D01*
X140619452Y-94053809D02*
X140428976Y-94625238D01*
X140924214Y-94625238D01*
X143073119Y-117667904D02*
X142806452Y-117286952D01*
X142615976Y-117667904D02*
X142615976Y-116867904D01*
X142920738Y-116867904D01*
X142996928Y-116906000D01*
X143035023Y-116944095D01*
X143073119Y-117020285D01*
X143073119Y-117134571D01*
X143035023Y-117210761D01*
X142996928Y-117248857D01*
X142920738Y-117286952D01*
X142615976Y-117286952D01*
X143377880Y-116944095D02*
X143415976Y-116906000D01*
X143492166Y-116867904D01*
X143682642Y-116867904D01*
X143758833Y-116906000D01*
X143796928Y-116944095D01*
X143835023Y-117020285D01*
X143835023Y-117096476D01*
X143796928Y-117210761D01*
X143339785Y-117667904D01*
X143835023Y-117667904D01*
X144330261Y-116867904D02*
X144406452Y-116867904D01*
X144482642Y-116906000D01*
X144520738Y-116944095D01*
X144558833Y-117020285D01*
X144596928Y-117172666D01*
X144596928Y-117363142D01*
X144558833Y-117515523D01*
X144520738Y-117591714D01*
X144482642Y-117629809D01*
X144406452Y-117667904D01*
X144330261Y-117667904D01*
X144254071Y-117629809D01*
X144215976Y-117591714D01*
X144177880Y-117515523D01*
X144139785Y-117363142D01*
X144139785Y-117172666D01*
X144177880Y-117020285D01*
X144215976Y-116944095D01*
X144254071Y-116906000D01*
X144330261Y-116867904D01*
X119445904Y-58094880D02*
X119064952Y-58361547D01*
X119445904Y-58552023D02*
X118645904Y-58552023D01*
X118645904Y-58247261D01*
X118684000Y-58171071D01*
X118722095Y-58132976D01*
X118798285Y-58094880D01*
X118912571Y-58094880D01*
X118988761Y-58132976D01*
X119026857Y-58171071D01*
X119064952Y-58247261D01*
X119064952Y-58552023D01*
X118722095Y-57790119D02*
X118684000Y-57752023D01*
X118645904Y-57675833D01*
X118645904Y-57485357D01*
X118684000Y-57409166D01*
X118722095Y-57371071D01*
X118798285Y-57332976D01*
X118874476Y-57332976D01*
X118988761Y-57371071D01*
X119445904Y-57828214D01*
X119445904Y-57332976D01*
X143724380Y-71707333D02*
X144438666Y-71707333D01*
X144581523Y-71754952D01*
X144676761Y-71850190D01*
X144724380Y-71993047D01*
X144724380Y-72088285D01*
X143819619Y-71278761D02*
X143772000Y-71231142D01*
X143724380Y-71135904D01*
X143724380Y-70897809D01*
X143772000Y-70802571D01*
X143819619Y-70754952D01*
X143914857Y-70707333D01*
X144010095Y-70707333D01*
X144152952Y-70754952D01*
X144724380Y-71326380D01*
X144724380Y-70707333D01*
D10*
X142090000Y-132846000D02*
X139850000Y-132846000D01*
X139850000Y-132246000D02*
X139850000Y-136486000D01*
X140970000Y-137136000D02*
X140970000Y-136486000D01*
X142090000Y-133086000D02*
X139850000Y-133086000D01*
X142090000Y-132966000D02*
X139850000Y-132966000D01*
X140970000Y-131596000D02*
X140970000Y-132246000D01*
X142090000Y-136486000D02*
X142090000Y-132246000D01*
X142090000Y-132246000D02*
X139850000Y-132246000D01*
X139850000Y-136486000D02*
X142090000Y-136486000D01*
X116436000Y-128866000D02*
X116436000Y-124626000D01*
X116436000Y-124626000D02*
X114196000Y-124626000D01*
X115316000Y-123976000D02*
X115316000Y-124626000D01*
X114196000Y-124626000D02*
X114196000Y-128866000D01*
X116436000Y-125466000D02*
X114196000Y-125466000D01*
X114196000Y-128866000D02*
X116436000Y-128866000D01*
X116436000Y-125346000D02*
X114196000Y-125346000D01*
X115316000Y-129516000D02*
X115316000Y-128866000D01*
X116436000Y-125226000D02*
X114196000Y-125226000D01*
X131858000Y-119658000D02*
X131858000Y-119988000D01*
X138398000Y-119988000D02*
X138398000Y-119658000D01*
X131858000Y-117248000D02*
X138398000Y-117248000D01*
X131858000Y-117578000D02*
X131858000Y-117248000D01*
X131858000Y-119988000D02*
X138398000Y-119988000D01*
X138398000Y-117248000D02*
X138398000Y-117578000D01*
X119856000Y-89254000D02*
X113316000Y-89254000D01*
X119856000Y-86514000D02*
X113316000Y-86514000D01*
X113316000Y-89254000D02*
X113316000Y-88924000D01*
X119856000Y-88924000D02*
X119856000Y-89254000D01*
X119856000Y-86844000D02*
X119856000Y-86514000D01*
X113316000Y-86514000D02*
X113316000Y-86844000D01*
X111234000Y-59291380D02*
X113006000Y-59291380D01*
X110819000Y-60732380D02*
X117273000Y-60732380D01*
X115086000Y-59451380D02*
X116942000Y-59451380D01*
X111356000Y-59091380D02*
X113006000Y-59091380D01*
X115086000Y-60652380D02*
X117268000Y-60652380D01*
X115086000Y-59131380D02*
X116762000Y-59131380D01*
X110857000Y-60372380D02*
X113006000Y-60372380D01*
X112465000Y-58051380D02*
X115627000Y-58051380D01*
X110896000Y-60171380D02*
X113006000Y-60171380D01*
X110960000Y-59931380D02*
X113006000Y-59931380D01*
X111468000Y-58931380D02*
X113006000Y-58931380D01*
X110864000Y-60332380D02*
X113006000Y-60332380D01*
X115086000Y-60492380D02*
X117252000Y-60492380D01*
X115086000Y-59171380D02*
X116788000Y-59171380D01*
X110985000Y-59851380D02*
X113006000Y-59851380D01*
X115086000Y-60131380D02*
X117187000Y-60131380D01*
X111028000Y-59731380D02*
X113006000Y-59731380D01*
X112051000Y-58331380D02*
X116041000Y-58331380D01*
X113413000Y-57691380D02*
X114679000Y-57691380D01*
X111530000Y-58851380D02*
X113006000Y-58851380D01*
X115086000Y-58971380D02*
X116653000Y-58971380D01*
X112614000Y-57971380D02*
X115478000Y-57971380D01*
X111212000Y-59331380D02*
X113006000Y-59331380D01*
X115086000Y-59251380D02*
X116836000Y-59251380D01*
X112396000Y-58091380D02*
X115696000Y-58091380D01*
X111439000Y-58971380D02*
X113006000Y-58971380D01*
X111864000Y-58491380D02*
X116228000Y-58491380D01*
X112102000Y-58291380D02*
X115990000Y-58291380D01*
X115086000Y-59571380D02*
X116998000Y-59571380D01*
X111382000Y-59051380D02*
X113006000Y-59051380D01*
X115086000Y-60372380D02*
X117235000Y-60372380D01*
X112002000Y-58371380D02*
X116090000Y-58371380D01*
X112212000Y-58211380D02*
X115880000Y-58211380D01*
X110816000Y-60852380D02*
X117276000Y-60852380D01*
X113644000Y-57651380D02*
X114448000Y-57651380D01*
X115086000Y-58611380D02*
X116351000Y-58611380D01*
X110831000Y-60572380D02*
X113006000Y-60572380D01*
X111666000Y-58691380D02*
X113006000Y-58691380D01*
X111130000Y-59491380D02*
X113006000Y-59491380D01*
X111909000Y-58451380D02*
X116183000Y-58451380D01*
X110851000Y-60412380D02*
X113006000Y-60412380D01*
X115086000Y-60612380D02*
X117264000Y-60612380D01*
X115086000Y-60572380D02*
X117261000Y-60572380D01*
X111630000Y-58731380D02*
X113006000Y-58731380D01*
X112332000Y-58131380D02*
X115760000Y-58131380D01*
X115086000Y-59051380D02*
X116710000Y-59051380D01*
X110828000Y-60612380D02*
X113006000Y-60612380D01*
X115086000Y-59691380D02*
X117048000Y-59691380D01*
X110871000Y-60292380D02*
X113006000Y-60292380D01*
X111562000Y-58811380D02*
X113006000Y-58811380D01*
X112156000Y-58251380D02*
X115936000Y-58251380D01*
X115086000Y-59651380D02*
X117032000Y-59651380D01*
X113106000Y-57771380D02*
X114986000Y-57771380D01*
X111703000Y-58651380D02*
X113006000Y-58651380D01*
X115086000Y-59971380D02*
X117144000Y-59971380D01*
X111170000Y-59411380D02*
X113006000Y-59411380D01*
X115086000Y-58811380D02*
X116530000Y-58811380D01*
X115086000Y-60332380D02*
X117228000Y-60332380D01*
X111076000Y-59611380D02*
X113006000Y-59611380D01*
X110816000Y-60892380D02*
X117276000Y-60892380D01*
X115086000Y-60292380D02*
X117221000Y-60292380D01*
X113244000Y-57731380D02*
X114848000Y-57731380D01*
X115086000Y-60011380D02*
X117156000Y-60011380D01*
X111498000Y-58891380D02*
X113006000Y-58891380D01*
X110925000Y-60051380D02*
X113006000Y-60051380D01*
X115086000Y-59531380D02*
X116980000Y-59531380D01*
X111741000Y-58611380D02*
X113006000Y-58611380D01*
X115086000Y-59851380D02*
X117107000Y-59851380D01*
X115086000Y-58731380D02*
X116462000Y-58731380D01*
X115086000Y-59411380D02*
X116922000Y-59411380D01*
X111781000Y-58571380D02*
X116311000Y-58571380D01*
X115086000Y-59011380D02*
X116682000Y-59011380D01*
X112987000Y-57811380D02*
X115105000Y-57811380D01*
X115086000Y-60051380D02*
X117167000Y-60051380D01*
X112270000Y-58171380D02*
X115822000Y-58171380D01*
X115086000Y-59891380D02*
X117120000Y-59891380D01*
X115086000Y-60412380D02*
X117241000Y-60412380D01*
X115086000Y-59611380D02*
X117016000Y-59611380D01*
X111304000Y-59171380D02*
X113006000Y-59171380D01*
X111094000Y-59571380D02*
X113006000Y-59571380D01*
X110972000Y-59891380D02*
X113006000Y-59891380D01*
X110845000Y-60452380D02*
X113006000Y-60452380D01*
X110905000Y-60131380D02*
X113006000Y-60131380D01*
X115086000Y-59491380D02*
X116962000Y-59491380D01*
X111410000Y-59011380D02*
X113006000Y-59011380D01*
X111150000Y-59451380D02*
X113006000Y-59451380D01*
X115086000Y-60212380D02*
X117205000Y-60212380D01*
X115086000Y-59291380D02*
X116858000Y-59291380D01*
X112881000Y-57851380D02*
X115211000Y-57851380D01*
X111190000Y-59371380D02*
X113006000Y-59371380D01*
X115086000Y-60532380D02*
X117257000Y-60532380D01*
X111330000Y-59131380D02*
X113006000Y-59131380D01*
X110915000Y-60091380D02*
X113006000Y-60091380D01*
X115086000Y-59211380D02*
X116812000Y-59211380D01*
X110999000Y-59811380D02*
X113006000Y-59811380D01*
X115086000Y-59731380D02*
X117064000Y-59731380D01*
X112784000Y-57891380D02*
X115308000Y-57891380D01*
X115086000Y-58651380D02*
X116389000Y-58651380D01*
X110936000Y-60011380D02*
X113006000Y-60011380D01*
X115086000Y-59371380D02*
X116902000Y-59371380D01*
X110816000Y-60812380D02*
X117276000Y-60812380D01*
X111954000Y-58411380D02*
X116138000Y-58411380D01*
X115086000Y-58851380D02*
X116562000Y-58851380D01*
X111112000Y-59531380D02*
X113006000Y-59531380D01*
X115086000Y-58891380D02*
X116594000Y-58891380D01*
X111892000Y-64077621D02*
X112522000Y-64077621D01*
X112696000Y-57931380D02*
X115396000Y-57931380D01*
X112537000Y-58011380D02*
X115555000Y-58011380D01*
X110818000Y-60772380D02*
X117274000Y-60772380D01*
X115086000Y-59931380D02*
X117132000Y-59931380D01*
X115086000Y-59091380D02*
X116736000Y-59091380D01*
X115086000Y-58771380D02*
X116496000Y-58771380D01*
X111044000Y-59691380D02*
X113006000Y-59691380D01*
X111822000Y-58531380D02*
X116270000Y-58531380D01*
X110824000Y-60652380D02*
X113006000Y-60652380D01*
X115086000Y-60171380D02*
X117196000Y-60171380D01*
X115086000Y-59811380D02*
X117093000Y-59811380D01*
X110887000Y-60212380D02*
X113006000Y-60212380D01*
X110822000Y-60692380D02*
X117270000Y-60692380D01*
X110835000Y-60532380D02*
X113006000Y-60532380D01*
X115086000Y-59331380D02*
X116880000Y-59331380D01*
X110879000Y-60252380D02*
X113006000Y-60252380D01*
X115086000Y-58691380D02*
X116426000Y-58691380D01*
X115086000Y-60452380D02*
X117247000Y-60452380D01*
X112207000Y-64392621D02*
X112207000Y-63762621D01*
X111280000Y-59211380D02*
X113006000Y-59211380D01*
X115086000Y-59771380D02*
X117079000Y-59771380D01*
X111013000Y-59771380D02*
X113006000Y-59771380D01*
X111060000Y-59651380D02*
X113006000Y-59651380D01*
X110840000Y-60492380D02*
X113006000Y-60492380D01*
X115086000Y-58931380D02*
X116624000Y-58931380D01*
X115086000Y-60091380D02*
X117177000Y-60091380D01*
X111256000Y-59251380D02*
X113006000Y-59251380D01*
X110948000Y-59971380D02*
X113006000Y-59971380D01*
X115086000Y-60252380D02*
X117213000Y-60252380D01*
X111596000Y-58771380D02*
X113006000Y-58771380D01*
X117316000Y-60892380D02*
G75*
G03*
X117316000Y-60892380I-3270000J0D01*
G01*
X144075380Y-142116000D02*
X144075380Y-140740000D01*
X145075380Y-142718000D02*
X145075380Y-140740000D01*
X145235380Y-138660000D02*
X145235380Y-136626000D01*
X145155380Y-138660000D02*
X145155380Y-136653000D01*
X143235380Y-140962000D02*
X143235380Y-138438000D01*
X143155380Y-140759000D02*
X143155380Y-138641000D01*
X144555380Y-142466000D02*
X144555380Y-140740000D01*
X143555380Y-141534000D02*
X143555380Y-137866000D01*
X145395380Y-142821000D02*
X145395380Y-140740000D01*
X145355380Y-138660000D02*
X145355380Y-136590000D01*
X145315380Y-138660000D02*
X145315380Y-136602000D01*
X144475380Y-138660000D02*
X144475380Y-136984000D01*
X144035380Y-138660000D02*
X144035380Y-137320000D01*
X144075380Y-138660000D02*
X144075380Y-137284000D01*
X145115380Y-142733000D02*
X145115380Y-140740000D01*
X144515380Y-138660000D02*
X144515380Y-136958000D01*
X144195380Y-138660000D02*
X144195380Y-137184000D01*
X143715380Y-141744000D02*
X143715380Y-137656000D01*
X143355380Y-141209000D02*
X143355380Y-138191000D01*
X144155380Y-142184000D02*
X144155380Y-140740000D01*
X145636380Y-138660000D02*
X145636380Y-136525000D01*
X145596380Y-142867000D02*
X145596380Y-140740000D01*
X144715380Y-138660000D02*
X144715380Y-136844000D01*
X143995380Y-138660000D02*
X143995380Y-137357000D01*
X143315380Y-141132000D02*
X143315380Y-138268000D01*
X145315380Y-142798000D02*
X145315380Y-140740000D01*
X149736621Y-141539000D02*
X149106621Y-141539000D01*
X145235380Y-142774000D02*
X145235380Y-140740000D01*
X144595380Y-142490000D02*
X144595380Y-140740000D01*
X144195380Y-142216000D02*
X144195380Y-140740000D01*
X145716380Y-138660000D02*
X145716380Y-136511000D01*
X143675380Y-141695000D02*
X143675380Y-137705000D01*
X144315380Y-142307000D02*
X144315380Y-140740000D01*
X144995380Y-142686000D02*
X144995380Y-140740000D01*
X144275380Y-142278000D02*
X144275380Y-140740000D01*
X143955380Y-138660000D02*
X143955380Y-137395000D01*
X145035380Y-142702000D02*
X145035380Y-140740000D01*
X145876380Y-142911000D02*
X145876380Y-140740000D01*
X145075380Y-138660000D02*
X145075380Y-136682000D01*
X144635380Y-138660000D02*
X144635380Y-136888000D01*
X143835380Y-141882000D02*
X143835380Y-137518000D01*
X145195380Y-138660000D02*
X145195380Y-136639000D01*
X144355380Y-138660000D02*
X144355380Y-137064000D01*
X145035380Y-138660000D02*
X145035380Y-136698000D01*
X145155380Y-142747000D02*
X145155380Y-140740000D01*
X143395380Y-141281000D02*
X143395380Y-138119000D01*
X144835380Y-138660000D02*
X144835380Y-136784000D01*
X143995380Y-142043000D02*
X143995380Y-140740000D01*
X145195380Y-142761000D02*
X145195380Y-140740000D01*
X145395380Y-138660000D02*
X145395380Y-136579000D01*
X144235380Y-142248000D02*
X144235380Y-140740000D01*
X144595380Y-138660000D02*
X144595380Y-136910000D01*
X145556380Y-138660000D02*
X145556380Y-136541000D01*
X145475380Y-138660000D02*
X145475380Y-136559000D01*
X144275380Y-138660000D02*
X144275380Y-137122000D01*
X143475380Y-141414000D02*
X143475380Y-137986000D01*
X143595380Y-141590000D02*
X143595380Y-137810000D01*
X145876380Y-138660000D02*
X145876380Y-136489000D01*
X143875380Y-141924000D02*
X143875380Y-137476000D01*
X145796380Y-138660000D02*
X145796380Y-136499000D01*
X143035380Y-140333000D02*
X143035380Y-139067000D01*
X144795380Y-142596000D02*
X144795380Y-140740000D01*
X145716380Y-142889000D02*
X145716380Y-140740000D01*
X144915380Y-138660000D02*
X144915380Y-136748000D01*
X144875380Y-142634000D02*
X144875380Y-140740000D01*
X144435380Y-138660000D02*
X144435380Y-137010000D01*
X143435380Y-141350000D02*
X143435380Y-138050000D01*
X145636380Y-142875000D02*
X145636380Y-140740000D01*
X144675380Y-142534000D02*
X144675380Y-140740000D01*
X144555380Y-138660000D02*
X144555380Y-136934000D01*
X145756380Y-138660000D02*
X145756380Y-136505000D01*
X145676380Y-138660000D02*
X145676380Y-136518000D01*
X144995380Y-138660000D02*
X144995380Y-136714000D01*
X144235380Y-138660000D02*
X144235380Y-137152000D01*
X145916380Y-142915000D02*
X145916380Y-140740000D01*
X144675380Y-138660000D02*
X144675380Y-136866000D01*
X145556380Y-142859000D02*
X145556380Y-140740000D01*
X144355380Y-142336000D02*
X144355380Y-140740000D01*
X144915380Y-142652000D02*
X144915380Y-140740000D01*
X145996380Y-138660000D02*
X145996380Y-136478000D01*
X143275380Y-141050000D02*
X143275380Y-138350000D01*
X145956380Y-142918000D02*
X145956380Y-140740000D01*
X149421621Y-141854000D02*
X149421621Y-141224000D01*
X143075380Y-140502000D02*
X143075380Y-138898000D01*
X144955380Y-142670000D02*
X144955380Y-140740000D01*
X145796380Y-142901000D02*
X145796380Y-140740000D01*
X145916380Y-138660000D02*
X145916380Y-136485000D01*
X146236380Y-142930000D02*
X146236380Y-136470000D01*
X146116380Y-142928000D02*
X146116380Y-136472000D01*
X144395380Y-142364000D02*
X144395380Y-140740000D01*
X144435380Y-142390000D02*
X144435380Y-140740000D01*
X146036380Y-142924000D02*
X146036380Y-136476000D01*
X143635380Y-141644000D02*
X143635380Y-137756000D01*
X144115380Y-138660000D02*
X144115380Y-137250000D01*
X144315380Y-138660000D02*
X144315380Y-137093000D01*
X144115380Y-142150000D02*
X144115380Y-140740000D01*
X144955380Y-138660000D02*
X144955380Y-136730000D01*
X145676380Y-142882000D02*
X145676380Y-140740000D01*
X144835380Y-142616000D02*
X144835380Y-140740000D01*
X145756380Y-142895000D02*
X145756380Y-140740000D01*
X144875380Y-138660000D02*
X144875380Y-136766000D01*
X145515380Y-142850000D02*
X145515380Y-140740000D01*
X143755380Y-141792000D02*
X143755380Y-137608000D01*
X142995380Y-140102000D02*
X142995380Y-139298000D01*
X145515380Y-138660000D02*
X145515380Y-136550000D01*
X145996380Y-142922000D02*
X145996380Y-140740000D01*
X145596380Y-138660000D02*
X145596380Y-136533000D01*
X144635380Y-142512000D02*
X144635380Y-140740000D01*
X145836380Y-138660000D02*
X145836380Y-136494000D01*
X144715380Y-142556000D02*
X144715380Y-140740000D01*
X144395380Y-138660000D02*
X144395380Y-137036000D01*
X143795380Y-141837000D02*
X143795380Y-137563000D01*
X143195380Y-140865000D02*
X143195380Y-138535000D01*
X145275380Y-142786000D02*
X145275380Y-140740000D01*
X145115380Y-138660000D02*
X145115380Y-136667000D01*
X143915380Y-141965000D02*
X143915380Y-137435000D01*
X146076380Y-142927000D02*
X146076380Y-136473000D01*
X145836380Y-142906000D02*
X145836380Y-140740000D01*
X145475380Y-142841000D02*
X145475380Y-140740000D01*
X143955380Y-142005000D02*
X143955380Y-140740000D01*
X145355380Y-142810000D02*
X145355380Y-140740000D01*
X144155380Y-138660000D02*
X144155380Y-137216000D01*
X143115380Y-140640000D02*
X143115380Y-138760000D01*
X145956380Y-138660000D02*
X145956380Y-136482000D01*
X145275380Y-138660000D02*
X145275380Y-136614000D01*
X144795380Y-138660000D02*
X144795380Y-136804000D01*
X144755380Y-142576000D02*
X144755380Y-140740000D01*
X145435380Y-138660000D02*
X145435380Y-136569000D01*
X145435380Y-142831000D02*
X145435380Y-140740000D01*
X144755380Y-138660000D02*
X144755380Y-136824000D01*
X146196380Y-142930000D02*
X146196380Y-136470000D01*
X146156380Y-142930000D02*
X146156380Y-136470000D01*
X144035380Y-142080000D02*
X144035380Y-140740000D01*
X143515380Y-141476000D02*
X143515380Y-137924000D01*
X144515380Y-142442000D02*
X144515380Y-140740000D01*
X144475380Y-142416000D02*
X144475380Y-140740000D01*
X149506380Y-139700000D02*
G75*
G03*
X149506380Y-139700000I-3270000J0D01*
G01*
X128674000Y-132246000D02*
X128674000Y-136486000D01*
X130914000Y-133086000D02*
X128674000Y-133086000D01*
X129794000Y-131596000D02*
X129794000Y-132246000D01*
X130914000Y-132966000D02*
X128674000Y-132966000D01*
X129794000Y-137136000D02*
X129794000Y-136486000D01*
X130914000Y-132246000D02*
X128674000Y-132246000D01*
X130914000Y-136486000D02*
X130914000Y-132246000D01*
X128674000Y-136486000D02*
X130914000Y-136486000D01*
X130914000Y-132846000D02*
X128674000Y-132846000D01*
X127444000Y-129132000D02*
X134684000Y-129132000D01*
X127444000Y-126392000D02*
X134684000Y-126392000D01*
X127444000Y-126392000D02*
X127444000Y-129132000D01*
X134684000Y-126392000D02*
X134684000Y-129132000D01*
X139330000Y-102512000D02*
X139330000Y-102577000D01*
X139330000Y-104687000D02*
X139330000Y-104752000D01*
X142570000Y-104687000D02*
X142570000Y-104752000D01*
X139330000Y-104752000D02*
X142570000Y-104752000D01*
X139330000Y-102512000D02*
X142570000Y-102512000D01*
X142570000Y-102512000D02*
X142570000Y-102577000D01*
X119230000Y-75592000D02*
X111990000Y-75592000D01*
X111990000Y-78332000D02*
X111990000Y-75592000D01*
X119230000Y-78332000D02*
X111990000Y-78332000D01*
X119230000Y-78332000D02*
X119230000Y-75592000D01*
X125880000Y-135886000D02*
X128120000Y-135886000D01*
X125880000Y-135766000D02*
X128120000Y-135766000D01*
X127000000Y-137136000D02*
X127000000Y-136486000D01*
X125880000Y-136486000D02*
X128120000Y-136486000D01*
X128120000Y-132246000D02*
X125880000Y-132246000D01*
X127000000Y-131596000D02*
X127000000Y-132246000D01*
X128120000Y-136486000D02*
X128120000Y-132246000D01*
X125880000Y-132246000D02*
X125880000Y-136486000D01*
X125880000Y-135646000D02*
X128120000Y-135646000D01*
X142748000Y-115122000D02*
X142748000Y-112462000D01*
X142748000Y-112462000D02*
X147888000Y-112462000D01*
X140148000Y-112462000D02*
X141478000Y-112462000D01*
X147888000Y-115122000D02*
X147888000Y-112462000D01*
X140148000Y-113792000D02*
X140148000Y-112462000D01*
X142748000Y-115122000D02*
X147888000Y-115122000D01*
X113316000Y-92556000D02*
X119856000Y-92556000D01*
X113316000Y-89816000D02*
X119856000Y-89816000D01*
X113316000Y-92226000D02*
X113316000Y-92556000D01*
X119856000Y-89816000D02*
X119856000Y-90146000D01*
X113316000Y-90146000D02*
X113316000Y-89816000D01*
X119856000Y-92556000D02*
X119856000Y-92226000D01*
X134906000Y-85444000D02*
X141446000Y-85444000D01*
X134906000Y-85114000D02*
X134906000Y-85444000D01*
X134906000Y-82704000D02*
X141446000Y-82704000D01*
X134906000Y-83034000D02*
X134906000Y-82704000D01*
X141446000Y-82704000D02*
X141446000Y-83034000D01*
X141446000Y-85444000D02*
X141446000Y-85114000D01*
X137056000Y-135886000D02*
X139296000Y-135886000D01*
X139296000Y-132246000D02*
X137056000Y-132246000D01*
X137056000Y-135766000D02*
X139296000Y-135766000D01*
X137056000Y-136486000D02*
X139296000Y-136486000D01*
X137056000Y-132246000D02*
X137056000Y-136486000D01*
X138176000Y-137136000D02*
X138176000Y-136486000D01*
X137056000Y-135646000D02*
X139296000Y-135646000D01*
X138176000Y-131596000D02*
X138176000Y-132246000D01*
X139296000Y-136486000D02*
X139296000Y-132246000D01*
X130577000Y-102566000D02*
X130577000Y-112846000D01*
X135077000Y-112846000D02*
X135077000Y-102566000D01*
X135077000Y-102566000D02*
X133827000Y-102566000D01*
X130577000Y-112846000D02*
X135077000Y-112846000D01*
X131827000Y-102566000D02*
X130577000Y-102566000D01*
X131827000Y-102566000D02*
G75*
G03*
X133827000Y-102566000I1000000J0D01*
G01*
X142344000Y-143606000D02*
X142279000Y-143606000D01*
X142344000Y-140366000D02*
X142344000Y-143606000D01*
X140169000Y-140366000D02*
X140104000Y-140366000D01*
X140104000Y-140366000D02*
X140104000Y-143606000D01*
X142344000Y-140366000D02*
X142279000Y-140366000D01*
X140169000Y-143606000D02*
X140104000Y-143606000D01*
X124896000Y-141456000D02*
X124896000Y-145056000D01*
X127844807Y-145612400D02*
G75*
G03*
X129346000Y-143256000I-1098807J2356400D01*
G01*
X125623205Y-140931816D02*
G75*
G03*
X124896000Y-141456000I1122795J-2324184D01*
G01*
X124896000Y-145056000D02*
G75*
G03*
X125623205Y-145580184I1850000J1800000D01*
G01*
X129346000Y-143256000D02*
G75*
G03*
X127844807Y-140899600I-2600000J0D01*
G01*
X119484000Y-132246000D02*
X117244000Y-132246000D01*
X119484000Y-132966000D02*
X117244000Y-132966000D01*
X119484000Y-132846000D02*
X117244000Y-132846000D01*
X117244000Y-132246000D02*
X117244000Y-136486000D01*
X118364000Y-131596000D02*
X118364000Y-132246000D01*
X117244000Y-136486000D02*
X119484000Y-136486000D01*
X119484000Y-133086000D02*
X117244000Y-133086000D01*
X118364000Y-137136000D02*
X118364000Y-136486000D01*
X119484000Y-136486000D02*
X119484000Y-132246000D01*
X125444000Y-109828000D02*
X125444000Y-109498000D01*
X125444000Y-107088000D02*
X125444000Y-107418000D01*
X118904000Y-109498000D02*
X118904000Y-109828000D01*
X118904000Y-107418000D02*
X118904000Y-107088000D01*
X118904000Y-109828000D02*
X125444000Y-109828000D01*
X118904000Y-107088000D02*
X125444000Y-107088000D01*
X113946000Y-105188000D02*
X114276000Y-105188000D01*
X116686000Y-105188000D02*
X116356000Y-105188000D01*
X116686000Y-111728000D02*
X116686000Y-105188000D01*
X116356000Y-111728000D02*
X116686000Y-111728000D01*
X114276000Y-111728000D02*
X113946000Y-111728000D01*
X113946000Y-111728000D02*
X113946000Y-105188000D01*
X129572000Y-116356000D02*
X129572000Y-116686000D01*
X129572000Y-116686000D02*
X136112000Y-116686000D01*
X136112000Y-113946000D02*
X136112000Y-114276000D01*
X129572000Y-114276000D02*
X129572000Y-113946000D01*
X136112000Y-116686000D02*
X136112000Y-116356000D01*
X129572000Y-113946000D02*
X136112000Y-113946000D01*
X136112000Y-101624000D02*
X136112000Y-101954000D01*
X129572000Y-99214000D02*
X129572000Y-99544000D01*
X136112000Y-99214000D02*
X129572000Y-99214000D01*
X136112000Y-101954000D02*
X129572000Y-101954000D01*
X129572000Y-101954000D02*
X129572000Y-101624000D01*
X136112000Y-99544000D02*
X136112000Y-99214000D01*
X143066000Y-95912000D02*
X143066000Y-98652000D01*
X135826000Y-95912000D02*
X143066000Y-95912000D01*
X135826000Y-98652000D02*
X143066000Y-98652000D01*
X135826000Y-95912000D02*
X135826000Y-98652000D01*
X133996000Y-79906000D02*
X137236000Y-79906000D01*
X137236000Y-79906000D02*
X137236000Y-79971000D01*
X133996000Y-79906000D02*
X133996000Y-79971000D01*
X133996000Y-82146000D02*
X137236000Y-82146000D01*
X137236000Y-82081000D02*
X137236000Y-82146000D01*
X133996000Y-82081000D02*
X133996000Y-82146000D01*
X150635000Y-124044621D02*
X148614000Y-124044621D01*
X146534000Y-124044621D02*
X144513000Y-124044621D01*
X150290000Y-124764621D02*
X148614000Y-124764621D01*
X146534000Y-123924621D02*
X144476000Y-123924621D01*
X149464000Y-125644621D02*
X145684000Y-125644621D01*
X150705000Y-123804621D02*
X148614000Y-123804621D01*
X146534000Y-124844621D02*
X144910000Y-124844621D01*
X149288000Y-125764621D02*
X145860000Y-125764621D01*
X149879000Y-125284621D02*
X148614000Y-125284621D01*
X146534000Y-123964621D02*
X144488000Y-123964621D01*
X146534000Y-125044621D02*
X145058000Y-125044621D01*
X146534000Y-124364621D02*
X144640000Y-124364621D01*
X146534000Y-123323621D02*
X144359000Y-123323621D01*
X150024000Y-125124621D02*
X148614000Y-125124621D01*
X150648000Y-124004621D02*
X148614000Y-124004621D01*
X150592000Y-124164621D02*
X148614000Y-124164621D01*
X146534000Y-123563621D02*
X144392000Y-123563621D01*
X149408000Y-125684621D02*
X145740000Y-125684621D01*
X149711000Y-125444621D02*
X145437000Y-125444621D01*
X146534000Y-124684621D02*
X144808000Y-124684621D01*
X146534000Y-124804621D02*
X144884000Y-124804621D01*
X149569000Y-125564621D02*
X145579000Y-125564621D01*
X146534000Y-123523621D02*
X144385000Y-123523621D01*
X150715000Y-123764621D02*
X148614000Y-123764621D01*
X146534000Y-125084621D02*
X145090000Y-125084621D01*
X149224000Y-125804621D02*
X145924000Y-125804621D01*
X146534000Y-123403621D02*
X144368000Y-123403621D01*
X150780000Y-123403621D02*
X148614000Y-123403621D01*
X149666000Y-125484621D02*
X145482000Y-125484621D01*
X149350000Y-125724621D02*
X145798000Y-125724621D01*
X150607000Y-124124621D02*
X148614000Y-124124621D01*
X146534000Y-123443621D02*
X144373000Y-123443621D01*
X146534000Y-124324621D02*
X144622000Y-124324621D01*
X150526000Y-124324621D02*
X148614000Y-124324621D01*
X149756000Y-125404621D02*
X145392000Y-125404621D01*
X148924000Y-125964621D02*
X146224000Y-125964621D01*
X150364000Y-124644621D02*
X148614000Y-124644621D01*
X146534000Y-124964621D02*
X144996000Y-124964621D01*
X146534000Y-123643621D02*
X144407000Y-123643621D01*
X150801000Y-123163621D02*
X144347000Y-123163621D01*
X150660000Y-123964621D02*
X148614000Y-123964621D01*
X150576000Y-124204621D02*
X148614000Y-124204621D01*
X150450000Y-124484621D02*
X148614000Y-124484621D01*
X146534000Y-123724621D02*
X144424000Y-123724621D01*
X146534000Y-125124621D02*
X145124000Y-125124621D01*
X150181000Y-124924621D02*
X148614000Y-124924621D01*
X148514000Y-126124621D02*
X146634000Y-126124621D01*
X146534000Y-124604621D02*
X144762000Y-124604621D01*
X150804000Y-123003621D02*
X144344000Y-123003621D01*
X148739000Y-126044621D02*
X146409000Y-126044621D01*
X146534000Y-124444621D02*
X144678000Y-124444621D01*
X148207000Y-126204621D02*
X146941000Y-126204621D01*
X149155000Y-125844621D02*
X145993000Y-125844621D01*
X150672000Y-123924621D02*
X148614000Y-123924621D01*
X148633000Y-126084621D02*
X146515000Y-126084621D01*
X149798000Y-125364621D02*
X145350000Y-125364621D01*
X150210000Y-124884621D02*
X148614000Y-124884621D01*
X146534000Y-124884621D02*
X144938000Y-124884621D01*
X146534000Y-123243621D02*
X144352000Y-123243621D01*
X146534000Y-123283621D02*
X144356000Y-123283621D01*
X150733000Y-123683621D02*
X148614000Y-123683621D01*
X150152000Y-124964621D02*
X148614000Y-124964621D01*
X150340000Y-124684621D02*
X148614000Y-124684621D01*
X150408000Y-124564621D02*
X148614000Y-124564621D01*
X146534000Y-125244621D02*
X145231000Y-125244621D01*
X148376000Y-126164621D02*
X146772000Y-126164621D01*
X150741000Y-123643621D02*
X148614000Y-123643621D01*
X149728000Y-119818380D02*
X149098000Y-119818380D01*
X150796000Y-123243621D02*
X148614000Y-123243621D01*
X150789000Y-123323621D02*
X148614000Y-123323621D01*
X146534000Y-123603621D02*
X144399000Y-123603621D01*
X150470000Y-124444621D02*
X148614000Y-124444621D01*
X150560000Y-124244621D02*
X148614000Y-124244621D01*
X150508000Y-124364621D02*
X148614000Y-124364621D01*
X149413000Y-119503380D02*
X149413000Y-120133380D01*
X150490000Y-124404621D02*
X148614000Y-124404621D01*
X150798000Y-123203621D02*
X144350000Y-123203621D01*
X147976000Y-126244621D02*
X147172000Y-126244621D01*
X149083000Y-125884621D02*
X146065000Y-125884621D01*
X146534000Y-124164621D02*
X144556000Y-124164621D01*
X150122000Y-125004621D02*
X148614000Y-125004621D01*
X146534000Y-123363621D02*
X144363000Y-123363621D01*
X150238000Y-124844621D02*
X148614000Y-124844621D01*
X149618000Y-125524621D02*
X145530000Y-125524621D01*
X146534000Y-124204621D02*
X144572000Y-124204621D01*
X150763000Y-123523621D02*
X148614000Y-123523621D01*
X146534000Y-124084621D02*
X144527000Y-124084621D01*
X146534000Y-123884621D02*
X144464000Y-123884621D01*
X146534000Y-124484621D02*
X144698000Y-124484621D01*
X149954000Y-125204621D02*
X148614000Y-125204621D01*
X146534000Y-123764621D02*
X144433000Y-123764621D01*
X146534000Y-124644621D02*
X144784000Y-124644621D01*
X146534000Y-124764621D02*
X144858000Y-124764621D01*
X150316000Y-124724621D02*
X148614000Y-124724621D01*
X146534000Y-124924621D02*
X144967000Y-124924621D01*
X150058000Y-125084621D02*
X148614000Y-125084621D01*
X146534000Y-124524621D02*
X144718000Y-124524621D01*
X146534000Y-125284621D02*
X145269000Y-125284621D01*
X149990000Y-125164621D02*
X148614000Y-125164621D01*
X146534000Y-124244621D02*
X144588000Y-124244621D01*
X149518000Y-125604621D02*
X145630000Y-125604621D01*
X146534000Y-124724621D02*
X144832000Y-124724621D01*
X146534000Y-124404621D02*
X144658000Y-124404621D01*
X149917000Y-125244621D02*
X148614000Y-125244621D01*
X148836000Y-126004621D02*
X146312000Y-126004621D01*
X150264000Y-124804621D02*
X148614000Y-124804621D01*
X146534000Y-124004621D02*
X144500000Y-124004621D01*
X146534000Y-123683621D02*
X144415000Y-123683621D01*
X146534000Y-123844621D02*
X144453000Y-123844621D01*
X146534000Y-123483621D02*
X144379000Y-123483621D01*
X149839000Y-125324621D02*
X145309000Y-125324621D01*
X146534000Y-124124621D02*
X144541000Y-124124621D01*
X150792000Y-123283621D02*
X148614000Y-123283621D01*
X150804000Y-123043621D02*
X144344000Y-123043621D01*
X150695000Y-123844621D02*
X148614000Y-123844621D01*
X150756000Y-123563621D02*
X148614000Y-123563621D01*
X146534000Y-123804621D02*
X144443000Y-123804621D01*
X150544000Y-124284621D02*
X148614000Y-124284621D01*
X150090000Y-125044621D02*
X148614000Y-125044621D01*
X150724000Y-123724621D02*
X148614000Y-123724621D01*
X150684000Y-123884621D02*
X148614000Y-123884621D01*
X146534000Y-124564621D02*
X144740000Y-124564621D01*
X146534000Y-125164621D02*
X145158000Y-125164621D01*
X150769000Y-123483621D02*
X148614000Y-123483621D01*
X150775000Y-123443621D02*
X148614000Y-123443621D01*
X146534000Y-125004621D02*
X145026000Y-125004621D01*
X150802000Y-123123621D02*
X144346000Y-123123621D01*
X150785000Y-123363621D02*
X148614000Y-123363621D01*
X146534000Y-124284621D02*
X144604000Y-124284621D01*
X150749000Y-123603621D02*
X148614000Y-123603621D01*
X150430000Y-124524621D02*
X148614000Y-124524621D01*
X149006000Y-125924621D02*
X146142000Y-125924621D01*
X150804000Y-123083621D02*
X144344000Y-123083621D01*
X146534000Y-125204621D02*
X145194000Y-125204621D01*
X150386000Y-124604621D02*
X148614000Y-124604621D01*
X150621000Y-124084621D02*
X148614000Y-124084621D01*
X150844000Y-123003621D02*
G75*
G03*
X150844000Y-123003621I-3270000J0D01*
G01*
X118904000Y-106526000D02*
X118904000Y-106196000D01*
X118904000Y-103786000D02*
X118904000Y-104116000D01*
X125444000Y-103786000D02*
X118904000Y-103786000D01*
X125444000Y-104116000D02*
X125444000Y-103786000D01*
X125444000Y-106196000D02*
X125444000Y-106526000D01*
X125444000Y-106526000D02*
X118904000Y-106526000D01*
X113570000Y-68988000D02*
X113570000Y-69318000D01*
X120110000Y-71728000D02*
X113570000Y-71728000D01*
X120110000Y-68988000D02*
X113570000Y-68988000D01*
X120110000Y-69318000D02*
X120110000Y-68988000D01*
X113570000Y-71728000D02*
X113570000Y-71398000D01*
X120110000Y-71398000D02*
X120110000Y-71728000D01*
X141446000Y-92048000D02*
X134906000Y-92048000D01*
X134906000Y-92048000D02*
X134906000Y-91718000D01*
X141446000Y-91718000D02*
X141446000Y-92048000D01*
X141446000Y-89638000D02*
X141446000Y-89308000D01*
X134906000Y-89308000D02*
X134906000Y-89638000D01*
X141446000Y-89308000D02*
X134906000Y-89308000D01*
X122298000Y-51320000D02*
X142878000Y-51320000D01*
X134638000Y-51320000D02*
X134638000Y-52630000D01*
X142878000Y-60440000D02*
X122298000Y-60440000D01*
X122298000Y-60440000D02*
X122298000Y-51320000D01*
X141578000Y-59130000D02*
X123598000Y-59130000D01*
X137168000Y-50292000D02*
X137668000Y-50930000D01*
X130538000Y-52630000D02*
X130538000Y-52630000D01*
X123598000Y-52630000D02*
X130538000Y-52630000D01*
X123598000Y-59130000D02*
X123598000Y-52630000D01*
X138168000Y-50292000D02*
X137168000Y-50292000D01*
X141578000Y-52630000D02*
X141578000Y-59130000D01*
X130538000Y-52630000D02*
X130538000Y-51320000D01*
X134638000Y-52630000D02*
X141578000Y-52630000D01*
X142878000Y-51320000D02*
X142878000Y-60440000D01*
X137668000Y-50930000D02*
X138168000Y-50292000D01*
X138588000Y-120800000D02*
X138588000Y-120865000D01*
X138588000Y-120800000D02*
X141828000Y-120800000D01*
X138588000Y-123040000D02*
X141828000Y-123040000D01*
X141828000Y-120800000D02*
X141828000Y-120865000D01*
X141828000Y-122975000D02*
X141828000Y-123040000D01*
X138588000Y-122975000D02*
X138588000Y-123040000D01*
X131128000Y-71204000D02*
X123888000Y-71204000D01*
X131128000Y-71204000D02*
X131128000Y-66464000D01*
X131128000Y-66464000D02*
X123888000Y-66464000D01*
X123888000Y-71204000D02*
X123888000Y-66464000D01*
X118966000Y-84086000D02*
X118966000Y-85506000D01*
X118766000Y-80506000D02*
X118766000Y-84086000D01*
X117036000Y-85606000D02*
X113056000Y-85606000D01*
X118966000Y-85506000D02*
X118766000Y-85506000D01*
X118766000Y-84086000D02*
X118966000Y-84086000D01*
X118766000Y-79086000D02*
X118766000Y-78986000D01*
X118966000Y-79086000D02*
X118966000Y-80506000D01*
X118766000Y-78986000D02*
X118516000Y-78986000D01*
X111746000Y-81786000D02*
X111746000Y-80296000D01*
X118766000Y-80506000D02*
X118966000Y-80506000D01*
X113056000Y-78986000D02*
X116596000Y-78986000D01*
X118766000Y-85506000D02*
X118766000Y-85606000D01*
X118966000Y-79086000D02*
X118766000Y-79086000D01*
X118766000Y-85606000D02*
X118076000Y-85606000D01*
X111746000Y-84296000D02*
X111746000Y-82806000D01*
X111746000Y-84296000D02*
G75*
G03*
X113056000Y-85606000I1310000J0D01*
G01*
X113056000Y-78986000D02*
G75*
G03*
X111746000Y-80296000I0J-1310000D01*
G01*
X121705000Y-84444000D02*
X121770000Y-84444000D01*
X119530000Y-81204000D02*
X119595000Y-81204000D01*
X121770000Y-84444000D02*
X121770000Y-81204000D01*
X121705000Y-81204000D02*
X121770000Y-81204000D01*
X119530000Y-84444000D02*
X119530000Y-81204000D01*
X119530000Y-84444000D02*
X119595000Y-84444000D01*
X127459000Y-125730000D02*
X137229000Y-125730000D01*
X137229000Y-120660000D02*
X137229000Y-125730000D01*
X127459000Y-120660000D02*
X127459000Y-125730000D01*
X127459000Y-120660000D02*
X137229000Y-120660000D01*
X150288000Y-60926000D02*
X148106000Y-60926000D01*
X146026000Y-62007000D02*
X144114000Y-62007000D01*
X146026000Y-61767000D02*
X144019000Y-61767000D01*
X146026000Y-61126000D02*
X143865000Y-61126000D01*
X146026000Y-61607000D02*
X143968000Y-61607000D01*
X146026000Y-61326000D02*
X143899000Y-61326000D01*
X150127000Y-61727000D02*
X148106000Y-61727000D01*
X150284000Y-60966000D02*
X148106000Y-60966000D01*
X146026000Y-62407000D02*
X144324000Y-62407000D01*
X149409000Y-62927000D02*
X148106000Y-62927000D01*
X150187000Y-61527000D02*
X148106000Y-61527000D01*
X150296000Y-60766000D02*
X143836000Y-60766000D01*
X150277000Y-61046000D02*
X148106000Y-61046000D01*
X146026000Y-61407000D02*
X143916000Y-61407000D01*
X146026000Y-60926000D02*
X143844000Y-60926000D01*
X150241000Y-61286000D02*
X148106000Y-61286000D01*
X149942000Y-62167000D02*
X148106000Y-62167000D01*
X149900000Y-62247000D02*
X148106000Y-62247000D01*
X146026000Y-62167000D02*
X144190000Y-62167000D01*
X146026000Y-61046000D02*
X143855000Y-61046000D01*
X148905000Y-57185759D02*
X148905000Y-57815759D01*
X150290000Y-60886000D02*
X143842000Y-60886000D01*
X146026000Y-62327000D02*
X144276000Y-62327000D01*
X149614000Y-62687000D02*
X148106000Y-62687000D01*
X147468000Y-63927000D02*
X146664000Y-63927000D01*
X146026000Y-61927000D02*
X144080000Y-61927000D01*
X146026000Y-62367000D02*
X144300000Y-62367000D01*
X146026000Y-62207000D02*
X144210000Y-62207000D01*
X146026000Y-62487000D02*
X144376000Y-62487000D01*
X146026000Y-61366000D02*
X143907000Y-61366000D01*
X149010000Y-63287000D02*
X145122000Y-63287000D01*
X146026000Y-61246000D02*
X143884000Y-61246000D01*
X149922000Y-62207000D02*
X148106000Y-62207000D01*
X150197000Y-61487000D02*
X148106000Y-61487000D01*
X149203000Y-63127000D02*
X144929000Y-63127000D01*
X148231000Y-63727000D02*
X145901000Y-63727000D01*
X150281000Y-61006000D02*
X148106000Y-61006000D01*
X148842000Y-63407000D02*
X145290000Y-63407000D01*
X150099000Y-61807000D02*
X148106000Y-61807000D01*
X150267000Y-61126000D02*
X148106000Y-61126000D01*
X149371000Y-62967000D02*
X148106000Y-62967000D01*
X149110000Y-63207000D02*
X145022000Y-63207000D01*
X149808000Y-62407000D02*
X148106000Y-62407000D01*
X146026000Y-61727000D02*
X144005000Y-61727000D01*
X150140000Y-61687000D02*
X148106000Y-61687000D01*
X148125000Y-63767000D02*
X146007000Y-63767000D01*
X146026000Y-62847000D02*
X144650000Y-62847000D01*
X147699000Y-63887000D02*
X146433000Y-63887000D01*
X150296000Y-60686000D02*
X143836000Y-60686000D01*
X146026000Y-62887000D02*
X144686000Y-62887000D01*
X146026000Y-62287000D02*
X144254000Y-62287000D01*
X148900000Y-63367000D02*
X145232000Y-63367000D01*
X146026000Y-61527000D02*
X143945000Y-61527000D01*
X150216000Y-61407000D02*
X148106000Y-61407000D01*
X146026000Y-61567000D02*
X143956000Y-61567000D01*
X149158000Y-63167000D02*
X144974000Y-63167000D01*
X150164000Y-61607000D02*
X148106000Y-61607000D01*
X146026000Y-61086000D02*
X143860000Y-61086000D01*
X149832000Y-62367000D02*
X148106000Y-62367000D01*
X146026000Y-62087000D02*
X144150000Y-62087000D01*
X146026000Y-62727000D02*
X144550000Y-62727000D01*
X146026000Y-61807000D02*
X144033000Y-61807000D01*
X146026000Y-61687000D02*
X143992000Y-61687000D01*
X148416000Y-63647000D02*
X145716000Y-63647000D01*
X146026000Y-62607000D02*
X144459000Y-62607000D01*
X150207000Y-61447000D02*
X148106000Y-61447000D01*
X149248000Y-63087000D02*
X144884000Y-63087000D01*
X148647000Y-63527000D02*
X145485000Y-63527000D01*
X150176000Y-61567000D02*
X148106000Y-61567000D01*
X146026000Y-62047000D02*
X144132000Y-62047000D01*
X149644000Y-62647000D02*
X148106000Y-62647000D01*
X146026000Y-62687000D02*
X144518000Y-62687000D01*
X148006000Y-63807000D02*
X146126000Y-63807000D01*
X150225000Y-61366000D02*
X148106000Y-61366000D01*
X146026000Y-62447000D02*
X144350000Y-62447000D01*
X149290000Y-63047000D02*
X144842000Y-63047000D01*
X146026000Y-62927000D02*
X144723000Y-62927000D01*
X149782000Y-62447000D02*
X148106000Y-62447000D01*
X146026000Y-61847000D02*
X144048000Y-61847000D01*
X149982000Y-62087000D02*
X148106000Y-62087000D01*
X148716000Y-63487000D02*
X145416000Y-63487000D01*
X148328000Y-63687000D02*
X145804000Y-63687000D01*
X150068000Y-61887000D02*
X148106000Y-61887000D01*
X149702000Y-62567000D02*
X148106000Y-62567000D01*
X150255000Y-61206000D02*
X148106000Y-61206000D01*
X148575000Y-63567000D02*
X145557000Y-63567000D01*
X150233000Y-61326000D02*
X148106000Y-61326000D01*
X149061000Y-63247000D02*
X145071000Y-63247000D01*
X150296000Y-60726000D02*
X143836000Y-60726000D01*
X149482000Y-62847000D02*
X148106000Y-62847000D01*
X146026000Y-62247000D02*
X144232000Y-62247000D01*
X146026000Y-62967000D02*
X144761000Y-62967000D01*
X150248000Y-61246000D02*
X148106000Y-61246000D01*
X150113000Y-61767000D02*
X148106000Y-61767000D01*
X150261000Y-61166000D02*
X148106000Y-61166000D01*
X149331000Y-63007000D02*
X144801000Y-63007000D01*
X149730000Y-62527000D02*
X148106000Y-62527000D01*
X149220000Y-57500759D02*
X148590000Y-57500759D01*
X149516000Y-62807000D02*
X148106000Y-62807000D01*
X150294000Y-60806000D02*
X143838000Y-60806000D01*
X146026000Y-61487000D02*
X143935000Y-61487000D01*
X146026000Y-61206000D02*
X143877000Y-61206000D01*
X150000000Y-62047000D02*
X148106000Y-62047000D01*
X146026000Y-62807000D02*
X144616000Y-62807000D01*
X150018000Y-62007000D02*
X148106000Y-62007000D01*
X150272000Y-61086000D02*
X148106000Y-61086000D01*
X150293000Y-60846000D02*
X143839000Y-60846000D01*
X146026000Y-62127000D02*
X144170000Y-62127000D01*
X149856000Y-62327000D02*
X148106000Y-62327000D01*
X147868000Y-63847000D02*
X146264000Y-63847000D01*
X150052000Y-61927000D02*
X148106000Y-61927000D01*
X146026000Y-62527000D02*
X144402000Y-62527000D01*
X146026000Y-61887000D02*
X144064000Y-61887000D01*
X146026000Y-60966000D02*
X143848000Y-60966000D01*
X148956000Y-63327000D02*
X145176000Y-63327000D01*
X150152000Y-61647000D02*
X148106000Y-61647000D01*
X149582000Y-62727000D02*
X148106000Y-62727000D01*
X146026000Y-62567000D02*
X144430000Y-62567000D01*
X149673000Y-62607000D02*
X148106000Y-62607000D01*
X149550000Y-62767000D02*
X148106000Y-62767000D01*
X150036000Y-61967000D02*
X148106000Y-61967000D01*
X146026000Y-62647000D02*
X144488000Y-62647000D01*
X146026000Y-62767000D02*
X144582000Y-62767000D01*
X146026000Y-61166000D02*
X143871000Y-61166000D01*
X149962000Y-62127000D02*
X148106000Y-62127000D01*
X146026000Y-61286000D02*
X143891000Y-61286000D01*
X148780000Y-63447000D02*
X145352000Y-63447000D01*
X148498000Y-63607000D02*
X145634000Y-63607000D01*
X150084000Y-61847000D02*
X148106000Y-61847000D01*
X146026000Y-61447000D02*
X143925000Y-61447000D01*
X146026000Y-61006000D02*
X143851000Y-61006000D01*
X146026000Y-61967000D02*
X144096000Y-61967000D01*
X149756000Y-62487000D02*
X148106000Y-62487000D01*
X149878000Y-62287000D02*
X148106000Y-62287000D01*
X146026000Y-61647000D02*
X143980000Y-61647000D01*
X149446000Y-62887000D02*
X148106000Y-62887000D01*
X150336000Y-60686000D02*
G75*
G03*
X150336000Y-60686000I-3270000J0D01*
G01*
X134906000Y-73052000D02*
X141446000Y-73052000D01*
X134906000Y-73382000D02*
X134906000Y-73052000D01*
X134906000Y-75792000D02*
X141446000Y-75792000D01*
X134906000Y-75462000D02*
X134906000Y-75792000D01*
X141446000Y-73052000D02*
X141446000Y-73382000D01*
X141446000Y-75792000D02*
X141446000Y-75462000D01*
X125190000Y-128116000D02*
X118650000Y-128116000D01*
X125190000Y-127786000D02*
X125190000Y-128116000D01*
X118650000Y-128116000D02*
X118650000Y-127786000D01*
X118650000Y-125376000D02*
X118650000Y-125706000D01*
X125190000Y-125376000D02*
X118650000Y-125376000D01*
X125190000Y-125706000D02*
X125190000Y-125376000D01*
X132588000Y-137136000D02*
X132588000Y-136486000D01*
X131468000Y-136486000D02*
X133708000Y-136486000D01*
X133708000Y-136486000D02*
X133708000Y-132246000D01*
X133708000Y-132246000D02*
X131468000Y-132246000D01*
X131468000Y-135766000D02*
X133708000Y-135766000D01*
X131468000Y-132246000D02*
X131468000Y-136486000D01*
X132588000Y-131596000D02*
X132588000Y-132246000D01*
X131468000Y-135646000D02*
X133708000Y-135646000D01*
X131468000Y-135886000D02*
X133708000Y-135886000D01*
X120110000Y-65686000D02*
X120110000Y-66016000D01*
X113570000Y-68096000D02*
X113570000Y-68426000D01*
X113570000Y-68426000D02*
X120110000Y-68426000D01*
X113570000Y-65686000D02*
X120110000Y-65686000D01*
X113570000Y-66016000D02*
X113570000Y-65686000D01*
X120110000Y-68426000D02*
X120110000Y-68096000D01*
X137160000Y-66929000D02*
X132080000Y-66929000D01*
X132080000Y-61595000D02*
X137160000Y-61595000D01*
X132080000Y-66929000D02*
X132080000Y-61595000D01*
X137160000Y-61595000D02*
X137160000Y-66929000D01*
X116432000Y-139256000D02*
X116432000Y-132016000D01*
X113692000Y-139256000D02*
X113692000Y-132016000D01*
X113692000Y-139256000D02*
X116432000Y-139256000D01*
X113692000Y-132016000D02*
X116432000Y-132016000D01*
X134262000Y-132246000D02*
X134262000Y-136486000D01*
X136502000Y-132846000D02*
X134262000Y-132846000D01*
X135382000Y-137136000D02*
X135382000Y-136486000D01*
X136502000Y-136486000D02*
X136502000Y-132246000D01*
X134262000Y-136486000D02*
X136502000Y-136486000D01*
X136502000Y-133086000D02*
X134262000Y-133086000D01*
X136502000Y-132966000D02*
X134262000Y-132966000D01*
X136502000Y-132246000D02*
X134262000Y-132246000D01*
X135382000Y-131596000D02*
X135382000Y-132246000D01*
X146780000Y-108942000D02*
X146780000Y-108612000D01*
X146780000Y-108612000D02*
X140240000Y-108612000D01*
X146780000Y-111352000D02*
X140240000Y-111352000D01*
X140240000Y-111352000D02*
X140240000Y-111022000D01*
X140240000Y-108612000D02*
X140240000Y-108942000D01*
X146780000Y-111022000D02*
X146780000Y-111352000D01*
X125190000Y-122404000D02*
X125190000Y-122074000D01*
X125190000Y-122074000D02*
X118650000Y-122074000D01*
X118650000Y-124814000D02*
X118650000Y-124484000D01*
X125190000Y-124814000D02*
X118650000Y-124814000D01*
X125190000Y-124484000D02*
X125190000Y-124814000D01*
X118650000Y-122074000D02*
X118650000Y-122404000D01*
X113570000Y-72620000D02*
X113570000Y-72290000D01*
X120110000Y-72290000D02*
X120110000Y-72620000D01*
X113570000Y-72290000D02*
X120110000Y-72290000D01*
X120110000Y-75030000D02*
X120110000Y-74700000D01*
X113570000Y-74700000D02*
X113570000Y-75030000D01*
X113570000Y-75030000D02*
X120110000Y-75030000D01*
X143156000Y-134334000D02*
X143486000Y-134334000D01*
X145566000Y-127794000D02*
X145896000Y-127794000D01*
X143486000Y-127794000D02*
X143156000Y-127794000D01*
X145896000Y-134334000D02*
X145566000Y-134334000D01*
X145896000Y-127794000D02*
X145896000Y-134334000D01*
X143156000Y-127794000D02*
X143156000Y-134334000D01*
X116946000Y-114138000D02*
X116946000Y-114038000D01*
X116946000Y-114038000D02*
X117636000Y-114038000D01*
X116946000Y-115558000D02*
X116746000Y-115558000D01*
X123966000Y-117858000D02*
X123966000Y-119348000D01*
X122656000Y-120658000D02*
X119116000Y-120658000D01*
X123966000Y-115348000D02*
X123966000Y-116838000D01*
X116946000Y-119138000D02*
X116946000Y-115558000D01*
X116746000Y-115558000D02*
X116746000Y-114138000D01*
X116946000Y-120558000D02*
X116946000Y-120658000D01*
X118676000Y-114038000D02*
X122656000Y-114038000D01*
X116946000Y-119138000D02*
X116746000Y-119138000D01*
X116946000Y-120658000D02*
X117196000Y-120658000D01*
X116746000Y-114138000D02*
X116946000Y-114138000D01*
X116746000Y-120558000D02*
X116746000Y-119138000D01*
X116746000Y-120558000D02*
X116946000Y-120558000D01*
X122656000Y-120658000D02*
G75*
G03*
X123966000Y-119348000I0J1310000D01*
G01*
X123966000Y-115348000D02*
G75*
G03*
X122656000Y-114038000I-1310000J0D01*
G01*
X138144000Y-145896000D02*
X131604000Y-145896000D01*
X138144000Y-143156000D02*
X131604000Y-143156000D01*
X138144000Y-145566000D02*
X138144000Y-145896000D01*
X138144000Y-143486000D02*
X138144000Y-143156000D01*
X131604000Y-143156000D02*
X131604000Y-143486000D01*
X131604000Y-145896000D02*
X131604000Y-145566000D01*
X146526000Y-64670000D02*
X139986000Y-64670000D01*
X139986000Y-67410000D02*
X139986000Y-67080000D01*
X146526000Y-67080000D02*
X146526000Y-67410000D01*
X146526000Y-65000000D02*
X146526000Y-64670000D01*
X139986000Y-64670000D02*
X139986000Y-65000000D01*
X146526000Y-67410000D02*
X139986000Y-67410000D01*
X134906000Y-88416000D02*
X134906000Y-88746000D01*
X134906000Y-86006000D02*
X141446000Y-86006000D01*
X134906000Y-86336000D02*
X134906000Y-86006000D01*
X141446000Y-88746000D02*
X141446000Y-88416000D01*
X141446000Y-86006000D02*
X141446000Y-86336000D01*
X134906000Y-88746000D02*
X141446000Y-88746000D01*
X131604000Y-149198000D02*
X131604000Y-148868000D01*
X138144000Y-146458000D02*
X131604000Y-146458000D01*
X138144000Y-149198000D02*
X131604000Y-149198000D01*
X138144000Y-148868000D02*
X138144000Y-149198000D01*
X131604000Y-146458000D02*
X131604000Y-146788000D01*
X138144000Y-146788000D02*
X138144000Y-146458000D01*
X129773000Y-72081000D02*
X125273000Y-72081000D01*
X129773000Y-89981000D02*
X129773000Y-72081000D01*
X128523000Y-89981000D02*
X129773000Y-89981000D01*
X125273000Y-72081000D02*
X125273000Y-89981000D01*
X125273000Y-89981000D02*
X126523000Y-89981000D01*
X128523000Y-89981000D02*
G75*
G03*
X126523000Y-89981000I-1000000J0D01*
G01*
X138144000Y-139854000D02*
X138144000Y-140184000D01*
X131604000Y-140184000D02*
X131604000Y-139854000D01*
X131604000Y-139854000D02*
X138144000Y-139854000D01*
X131604000Y-142594000D02*
X138144000Y-142594000D01*
X138144000Y-142594000D02*
X138144000Y-142264000D01*
X131604000Y-142264000D02*
X131604000Y-142594000D01*
X141446000Y-76354000D02*
X134906000Y-76354000D01*
X134906000Y-76354000D02*
X134906000Y-76684000D01*
X141446000Y-79094000D02*
X134906000Y-79094000D01*
X141446000Y-76684000D02*
X141446000Y-76354000D01*
X134906000Y-79094000D02*
X134906000Y-78764000D01*
X141446000Y-78764000D02*
X141446000Y-79094000D01*
X127104000Y-117718000D02*
X127104000Y-114478000D01*
X124864000Y-117718000D02*
X124864000Y-114478000D01*
X127039000Y-114478000D02*
X127104000Y-114478000D01*
X124864000Y-114478000D02*
X124929000Y-114478000D01*
X127039000Y-117718000D02*
X127104000Y-117718000D01*
X124864000Y-117718000D02*
X124929000Y-117718000D01*
X124206000Y-131596000D02*
X124206000Y-132246000D01*
X123086000Y-132246000D02*
X123086000Y-136486000D01*
X125326000Y-136486000D02*
X125326000Y-132246000D01*
X125326000Y-132846000D02*
X123086000Y-132846000D01*
X125326000Y-133086000D02*
X123086000Y-133086000D01*
X123086000Y-136486000D02*
X125326000Y-136486000D01*
X125326000Y-132246000D02*
X123086000Y-132246000D01*
X124206000Y-137136000D02*
X124206000Y-136486000D01*
X125326000Y-132966000D02*
X123086000Y-132966000D01*
X148687000Y-99592000D02*
X148687000Y-101342000D01*
X150127000Y-97493000D02*
X150127000Y-99611000D01*
X149647000Y-96608000D02*
X149647000Y-100496000D01*
X147406000Y-95341000D02*
X147406000Y-97512000D01*
X147726000Y-95393000D02*
X147726000Y-97512000D01*
X147927000Y-99592000D02*
X147927000Y-101662000D01*
X149447000Y-96370000D02*
X149447000Y-100734000D01*
X148847000Y-99592000D02*
X148847000Y-101242000D01*
X147326000Y-99592000D02*
X147326000Y-101770000D01*
X148407000Y-95618000D02*
X148407000Y-97512000D01*
X149967000Y-97120000D02*
X149967000Y-99984000D01*
X149927000Y-97043000D02*
X149927000Y-100061000D01*
X148127000Y-95505000D02*
X148127000Y-97512000D01*
X147286000Y-99592000D02*
X147286000Y-101774000D01*
X149207000Y-99592000D02*
X149207000Y-100968000D01*
X149287000Y-99592000D02*
X149287000Y-100895000D01*
X148607000Y-95718000D02*
X148607000Y-97512000D01*
X148767000Y-95810000D02*
X148767000Y-97512000D01*
X147446000Y-95346000D02*
X147446000Y-97512000D01*
X148527000Y-95676000D02*
X148527000Y-97512000D01*
X147606000Y-95370000D02*
X147606000Y-97512000D01*
X147046000Y-95322000D02*
X147046000Y-101782000D01*
X147246000Y-95328000D02*
X147246000Y-101776000D01*
X148047000Y-99592000D02*
X148047000Y-101626000D01*
X147286000Y-95330000D02*
X147286000Y-97512000D01*
X148087000Y-95491000D02*
X148087000Y-97512000D01*
X147887000Y-99592000D02*
X147887000Y-101673000D01*
X147767000Y-95402000D02*
X147767000Y-97512000D01*
X147526000Y-99592000D02*
X147526000Y-101747000D01*
X150007000Y-97202000D02*
X150007000Y-99902000D01*
X148807000Y-95836000D02*
X148807000Y-97512000D01*
X150087000Y-97387000D02*
X150087000Y-99717000D01*
X147206000Y-95325000D02*
X147206000Y-101779000D01*
X148047000Y-95478000D02*
X148047000Y-97512000D01*
X149087000Y-99592000D02*
X149087000Y-101068000D01*
X147927000Y-95442000D02*
X147927000Y-97512000D01*
X148167000Y-95519000D02*
X148167000Y-97512000D01*
X148567000Y-95696000D02*
X148567000Y-97512000D01*
X148447000Y-99592000D02*
X148447000Y-101468000D01*
X148167000Y-99592000D02*
X148167000Y-101585000D01*
X149727000Y-96718000D02*
X149727000Y-100386000D01*
X148287000Y-95566000D02*
X148287000Y-97512000D01*
X147967000Y-95454000D02*
X147967000Y-97512000D01*
X147726000Y-99592000D02*
X147726000Y-101711000D01*
X150247000Y-97919000D02*
X150247000Y-99185000D01*
X149567000Y-96508000D02*
X149567000Y-100596000D01*
X147526000Y-95357000D02*
X147526000Y-97512000D01*
X148487000Y-99592000D02*
X148487000Y-101448000D01*
X149167000Y-99592000D02*
X149167000Y-101002000D01*
X147486000Y-95351000D02*
X147486000Y-97512000D01*
X148327000Y-95582000D02*
X148327000Y-97512000D01*
X149407000Y-96328000D02*
X149407000Y-100776000D01*
X148567000Y-99592000D02*
X148567000Y-101408000D01*
X149367000Y-96287000D02*
X149367000Y-100817000D01*
X149487000Y-96415000D02*
X149487000Y-100689000D01*
X147646000Y-95377000D02*
X147646000Y-97512000D01*
X148767000Y-99592000D02*
X148767000Y-101294000D01*
X148007000Y-99592000D02*
X148007000Y-101638000D01*
X148247000Y-99592000D02*
X148247000Y-101554000D01*
X149807000Y-96838000D02*
X149807000Y-100266000D01*
X149207000Y-96136000D02*
X149207000Y-97512000D01*
X149287000Y-96209000D02*
X149287000Y-97512000D01*
X147887000Y-95431000D02*
X147887000Y-97512000D01*
X147686000Y-95385000D02*
X147686000Y-97512000D01*
X148447000Y-95636000D02*
X148447000Y-97512000D01*
X148607000Y-99592000D02*
X148607000Y-101386000D01*
X148927000Y-99592000D02*
X148927000Y-101188000D01*
X150047000Y-97290000D02*
X150047000Y-99814000D01*
X147807000Y-95411000D02*
X147807000Y-97512000D01*
X148687000Y-95762000D02*
X148687000Y-97512000D01*
X147686000Y-99592000D02*
X147686000Y-101719000D01*
X148487000Y-95656000D02*
X148487000Y-97512000D01*
X147166000Y-95324000D02*
X147166000Y-101780000D01*
X148127000Y-99592000D02*
X148127000Y-101599000D01*
X147606000Y-99592000D02*
X147606000Y-101734000D01*
X149087000Y-96036000D02*
X149087000Y-97512000D01*
X147847000Y-95421000D02*
X147847000Y-97512000D01*
X149247000Y-96172000D02*
X149247000Y-97512000D01*
X148647000Y-99592000D02*
X148647000Y-101364000D01*
X148287000Y-99592000D02*
X148287000Y-101538000D01*
X148247000Y-95550000D02*
X148247000Y-97512000D01*
X148007000Y-95466000D02*
X148007000Y-97512000D01*
X148887000Y-95888000D02*
X148887000Y-97512000D01*
X147086000Y-95322000D02*
X147086000Y-101782000D01*
X147646000Y-99592000D02*
X147646000Y-101727000D01*
X147847000Y-99592000D02*
X147847000Y-101683000D01*
X149847000Y-96902000D02*
X149847000Y-100202000D01*
X149047000Y-96004000D02*
X149047000Y-97512000D01*
X148207000Y-99592000D02*
X148207000Y-101570000D01*
X148407000Y-99592000D02*
X148407000Y-101486000D01*
X149607000Y-96557000D02*
X149607000Y-100547000D01*
X147967000Y-99592000D02*
X147967000Y-101650000D01*
X149047000Y-99592000D02*
X149047000Y-101100000D01*
X148527000Y-99592000D02*
X148527000Y-101428000D01*
X149007000Y-99592000D02*
X149007000Y-101130000D01*
X147566000Y-95363000D02*
X147566000Y-97512000D01*
X148087000Y-99592000D02*
X148087000Y-101613000D01*
X148967000Y-99592000D02*
X148967000Y-101159000D01*
X148927000Y-95916000D02*
X148927000Y-97512000D01*
X149527000Y-96460000D02*
X149527000Y-100644000D01*
X148847000Y-95862000D02*
X148847000Y-97512000D01*
X143860759Y-96398000D02*
X143860759Y-97028000D01*
X147366000Y-99592000D02*
X147366000Y-101767000D01*
X147406000Y-99592000D02*
X147406000Y-101763000D01*
X148807000Y-99592000D02*
X148807000Y-101268000D01*
X149687000Y-96662000D02*
X149687000Y-100442000D01*
X149327000Y-96247000D02*
X149327000Y-97512000D01*
X148647000Y-95740000D02*
X148647000Y-97512000D01*
X148727000Y-99592000D02*
X148727000Y-101318000D01*
X150287000Y-98150000D02*
X150287000Y-98954000D01*
X147566000Y-99592000D02*
X147566000Y-101741000D01*
X147326000Y-95334000D02*
X147326000Y-97512000D01*
X150167000Y-97612000D02*
X150167000Y-99492000D01*
X147126000Y-95322000D02*
X147126000Y-101782000D01*
X148887000Y-99592000D02*
X148887000Y-101216000D01*
X149767000Y-96776000D02*
X149767000Y-100328000D01*
X149327000Y-99592000D02*
X149327000Y-100857000D01*
X147446000Y-99592000D02*
X147446000Y-101758000D01*
X149887000Y-96971000D02*
X149887000Y-100133000D01*
X148207000Y-95534000D02*
X148207000Y-97512000D01*
X148367000Y-99592000D02*
X148367000Y-101504000D01*
X148327000Y-99592000D02*
X148327000Y-101522000D01*
X149127000Y-96068000D02*
X149127000Y-97512000D01*
X149247000Y-99592000D02*
X149247000Y-100932000D01*
X147486000Y-99592000D02*
X147486000Y-101753000D01*
X147366000Y-95337000D02*
X147366000Y-97512000D01*
X147767000Y-99592000D02*
X147767000Y-101702000D01*
X149127000Y-99592000D02*
X149127000Y-101036000D01*
X148967000Y-95945000D02*
X148967000Y-97512000D01*
X149167000Y-96102000D02*
X149167000Y-97512000D01*
X149007000Y-95974000D02*
X149007000Y-97512000D01*
X148367000Y-95600000D02*
X148367000Y-97512000D01*
X147807000Y-99592000D02*
X147807000Y-101693000D01*
X148727000Y-95786000D02*
X148727000Y-97512000D01*
X150207000Y-97750000D02*
X150207000Y-99354000D01*
X143545759Y-96713000D02*
X144175759Y-96713000D01*
X150316000Y-98552000D02*
G75*
G03*
X150316000Y-98552000I-3270000J0D01*
G01*
X113316000Y-93448000D02*
X113316000Y-93118000D01*
X119856000Y-95858000D02*
X119856000Y-95528000D01*
X113316000Y-93118000D02*
X119856000Y-93118000D01*
X113316000Y-95858000D02*
X119856000Y-95858000D01*
X113316000Y-95528000D02*
X113316000Y-95858000D01*
X119856000Y-93118000D02*
X119856000Y-93448000D01*
X140240000Y-107720000D02*
X140240000Y-108050000D01*
X140240000Y-105310000D02*
X146780000Y-105310000D01*
X146780000Y-105310000D02*
X146780000Y-105640000D01*
X146780000Y-108050000D02*
X146780000Y-107720000D01*
X140240000Y-108050000D02*
X146780000Y-108050000D01*
X140240000Y-105640000D02*
X140240000Y-105310000D01*
X122532000Y-132246000D02*
X120292000Y-132246000D01*
X121412000Y-137136000D02*
X121412000Y-136486000D01*
X121412000Y-131596000D02*
X121412000Y-132246000D01*
X120292000Y-135646000D02*
X122532000Y-135646000D01*
X120292000Y-135886000D02*
X122532000Y-135886000D01*
X122532000Y-136486000D02*
X122532000Y-132246000D01*
X120292000Y-132246000D02*
X120292000Y-136486000D01*
X120292000Y-136486000D02*
X122532000Y-136486000D01*
X120292000Y-135766000D02*
X122532000Y-135766000D01*
X149352000Y-94234000D02*
X144018000Y-94234000D01*
X149352000Y-86614000D02*
X149352000Y-94234000D01*
X144018000Y-86614000D02*
X149352000Y-86614000D01*
X144018000Y-94234000D02*
X144018000Y-86614000D01*
X120665000Y-97557000D02*
X120665000Y-102087000D01*
X119785000Y-100862000D02*
X119785000Y-102718000D01*
X121425000Y-98763000D02*
X121425000Y-100881000D01*
X119545000Y-96820000D02*
X119545000Y-98782000D01*
X119425000Y-96775000D02*
X119425000Y-98782000D01*
X114843759Y-97983000D02*
X115473759Y-97983000D01*
X119665000Y-96870000D02*
X119665000Y-98782000D01*
X120625000Y-97517000D02*
X120625000Y-98782000D01*
X118624000Y-96604000D02*
X118624000Y-98782000D01*
X118864000Y-100862000D02*
X118864000Y-103011000D01*
X119465000Y-96789000D02*
X119465000Y-98782000D01*
X119185000Y-96701000D02*
X119185000Y-98782000D01*
X120345000Y-97274000D02*
X120345000Y-98782000D01*
X118744000Y-96616000D02*
X118744000Y-98782000D01*
X118584000Y-100862000D02*
X118584000Y-103044000D01*
X120305000Y-100862000D02*
X120305000Y-102400000D01*
X121265000Y-98390000D02*
X121265000Y-101254000D01*
X120145000Y-97132000D02*
X120145000Y-98782000D01*
X119345000Y-100862000D02*
X119345000Y-102896000D01*
X118824000Y-96627000D02*
X118824000Y-98782000D01*
X119865000Y-100862000D02*
X119865000Y-102678000D01*
X119225000Y-100862000D02*
X119225000Y-102932000D01*
X118704000Y-96611000D02*
X118704000Y-98782000D01*
X118784000Y-96621000D02*
X118784000Y-98782000D01*
X118904000Y-100862000D02*
X118904000Y-103004000D01*
X119785000Y-96926000D02*
X119785000Y-98782000D01*
X119305000Y-96736000D02*
X119305000Y-98782000D01*
X120505000Y-97406000D02*
X120505000Y-98782000D01*
X119465000Y-100862000D02*
X119465000Y-102855000D01*
X119945000Y-97010000D02*
X119945000Y-98782000D01*
X120585000Y-97479000D02*
X120585000Y-98782000D01*
X118664000Y-96607000D02*
X118664000Y-98782000D01*
X120825000Y-97730000D02*
X120825000Y-101914000D01*
X120025000Y-100862000D02*
X120025000Y-102588000D01*
X120865000Y-97778000D02*
X120865000Y-101866000D01*
X120785000Y-97685000D02*
X120785000Y-101959000D01*
X119945000Y-100862000D02*
X119945000Y-102634000D01*
X119265000Y-100862000D02*
X119265000Y-102920000D01*
X121145000Y-98172000D02*
X121145000Y-101472000D01*
X119705000Y-96888000D02*
X119705000Y-98782000D01*
X120065000Y-97080000D02*
X120065000Y-98782000D01*
X119545000Y-100862000D02*
X119545000Y-102824000D01*
X118384000Y-96592000D02*
X118384000Y-103052000D01*
X119745000Y-100862000D02*
X119745000Y-102738000D01*
X119625000Y-100862000D02*
X119625000Y-102792000D01*
X118904000Y-96640000D02*
X118904000Y-98782000D01*
X118784000Y-100862000D02*
X118784000Y-103023000D01*
X120585000Y-100862000D02*
X120585000Y-102165000D01*
X120425000Y-97338000D02*
X120425000Y-98782000D01*
X119024000Y-96663000D02*
X119024000Y-98782000D01*
X119385000Y-96761000D02*
X119385000Y-98782000D01*
X119345000Y-96748000D02*
X119345000Y-98782000D01*
X121505000Y-99020000D02*
X121505000Y-100624000D01*
X119745000Y-96906000D02*
X119745000Y-98782000D01*
X118344000Y-96592000D02*
X118344000Y-103052000D01*
X121545000Y-99189000D02*
X121545000Y-100455000D01*
X121305000Y-98472000D02*
X121305000Y-101172000D01*
X120985000Y-97932000D02*
X120985000Y-101712000D01*
X119905000Y-100862000D02*
X119905000Y-102656000D01*
X118584000Y-96600000D02*
X118584000Y-98782000D01*
X120145000Y-100862000D02*
X120145000Y-102512000D01*
X119985000Y-100862000D02*
X119985000Y-102612000D01*
X118984000Y-96655000D02*
X118984000Y-98782000D01*
X118824000Y-100862000D02*
X118824000Y-103017000D01*
X119185000Y-100862000D02*
X119185000Y-102943000D01*
X118704000Y-100862000D02*
X118704000Y-103033000D01*
X119305000Y-100862000D02*
X119305000Y-102908000D01*
X119705000Y-100862000D02*
X119705000Y-102756000D01*
X120065000Y-100862000D02*
X120065000Y-102564000D01*
X119625000Y-96852000D02*
X119625000Y-98782000D01*
X119505000Y-96804000D02*
X119505000Y-98782000D01*
X121225000Y-98313000D02*
X121225000Y-101331000D01*
X120465000Y-100862000D02*
X120465000Y-102272000D01*
X119024000Y-100862000D02*
X119024000Y-102981000D01*
X120265000Y-100862000D02*
X120265000Y-102429000D01*
X120945000Y-97878000D02*
X120945000Y-101766000D01*
X118864000Y-96633000D02*
X118864000Y-98782000D01*
X120225000Y-100862000D02*
X120225000Y-102458000D01*
X119385000Y-100862000D02*
X119385000Y-102883000D01*
X119065000Y-100862000D02*
X119065000Y-102972000D01*
X121385000Y-98657000D02*
X121385000Y-100987000D01*
X119145000Y-96691000D02*
X119145000Y-98782000D01*
X120265000Y-97215000D02*
X120265000Y-98782000D01*
X119825000Y-100862000D02*
X119825000Y-102698000D01*
X121105000Y-98108000D02*
X121105000Y-101536000D01*
X121065000Y-98046000D02*
X121065000Y-101598000D01*
X120305000Y-97244000D02*
X120305000Y-98782000D01*
X121345000Y-98560000D02*
X121345000Y-101084000D01*
X119825000Y-96946000D02*
X119825000Y-98782000D01*
X120345000Y-100862000D02*
X120345000Y-102370000D01*
X119105000Y-100862000D02*
X119105000Y-102963000D01*
X119105000Y-96681000D02*
X119105000Y-98782000D01*
X119665000Y-100862000D02*
X119665000Y-102774000D01*
X118744000Y-100862000D02*
X118744000Y-103028000D01*
X121185000Y-98241000D02*
X121185000Y-101403000D01*
X120905000Y-97827000D02*
X120905000Y-101817000D01*
X120745000Y-97640000D02*
X120745000Y-102004000D01*
X118944000Y-96647000D02*
X118944000Y-98782000D01*
X119585000Y-96836000D02*
X119585000Y-98782000D01*
X119145000Y-100862000D02*
X119145000Y-102953000D01*
X120425000Y-100862000D02*
X120425000Y-102306000D01*
X118984000Y-100862000D02*
X118984000Y-102989000D01*
X120025000Y-97056000D02*
X120025000Y-98782000D01*
X121585000Y-99420000D02*
X121585000Y-100224000D01*
X119985000Y-97032000D02*
X119985000Y-98782000D01*
X120465000Y-97372000D02*
X120465000Y-98782000D01*
X119505000Y-100862000D02*
X119505000Y-102840000D01*
X120545000Y-97442000D02*
X120545000Y-98782000D01*
X119065000Y-96672000D02*
X119065000Y-98782000D01*
X120185000Y-100862000D02*
X120185000Y-102486000D01*
X119265000Y-96724000D02*
X119265000Y-98782000D01*
X120185000Y-97158000D02*
X120185000Y-98782000D01*
X118464000Y-96594000D02*
X118464000Y-103050000D01*
X115158759Y-97668000D02*
X115158759Y-98298000D01*
X119865000Y-96966000D02*
X119865000Y-98782000D01*
X119585000Y-100862000D02*
X119585000Y-102808000D01*
X119905000Y-96988000D02*
X119905000Y-98782000D01*
X118944000Y-100862000D02*
X118944000Y-102997000D01*
X118624000Y-100862000D02*
X118624000Y-103040000D01*
X120505000Y-100862000D02*
X120505000Y-102238000D01*
X119225000Y-96712000D02*
X119225000Y-98782000D01*
X118504000Y-96595000D02*
X118504000Y-103049000D01*
X120705000Y-97598000D02*
X120705000Y-102046000D01*
X120105000Y-97106000D02*
X120105000Y-98782000D01*
X120385000Y-100862000D02*
X120385000Y-102338000D01*
X120105000Y-100862000D02*
X120105000Y-102538000D01*
X120385000Y-97306000D02*
X120385000Y-98782000D01*
X120545000Y-100862000D02*
X120545000Y-102202000D01*
X120225000Y-97186000D02*
X120225000Y-98782000D01*
X121025000Y-97988000D02*
X121025000Y-101656000D01*
X118664000Y-100862000D02*
X118664000Y-103037000D01*
X120625000Y-100862000D02*
X120625000Y-102127000D01*
X119425000Y-100862000D02*
X119425000Y-102869000D01*
X118424000Y-96592000D02*
X118424000Y-103052000D01*
X118544000Y-96598000D02*
X118544000Y-103046000D01*
X121465000Y-98882000D02*
X121465000Y-100762000D01*
X121614000Y-99822000D02*
G75*
G03*
X121614000Y-99822000I-3270000J0D01*
G01*
X126334000Y-100988000D02*
X123094000Y-100988000D01*
X123094000Y-103228000D02*
X123094000Y-103163000D01*
X126334000Y-101053000D02*
X126334000Y-100988000D01*
X126334000Y-103228000D02*
X123094000Y-103228000D01*
X126334000Y-103228000D02*
X126334000Y-103163000D01*
X123094000Y-101053000D02*
X123094000Y-100988000D01*
X118904000Y-113130000D02*
X125444000Y-113130000D01*
X118904000Y-112800000D02*
X118904000Y-113130000D01*
X118904000Y-110390000D02*
X125444000Y-110390000D01*
X125444000Y-110390000D02*
X125444000Y-110720000D01*
X125444000Y-113130000D02*
X125444000Y-112800000D01*
X118904000Y-110720000D02*
X118904000Y-110390000D01*
X134906000Y-72490000D02*
X134906000Y-72160000D01*
X134906000Y-69750000D02*
X134906000Y-70080000D01*
X141446000Y-72160000D02*
X141446000Y-72490000D01*
X141446000Y-70080000D02*
X141446000Y-69750000D01*
X141446000Y-72490000D02*
X134906000Y-72490000D01*
X141446000Y-69750000D02*
X134906000Y-69750000D01*
X142558000Y-126392000D02*
X142558000Y-129132000D01*
X135318000Y-129132000D02*
X142558000Y-129132000D01*
X135318000Y-126392000D02*
X135318000Y-129132000D01*
X135318000Y-126392000D02*
X142558000Y-126392000D01*
X124278000Y-145056000D02*
X124278000Y-141456000D01*
X121329193Y-140899600D02*
G75*
G03*
X119828000Y-143256000I1098807J-2356400D01*
G01*
X123550795Y-145580184D02*
G75*
G03*
X124278000Y-145056000I-1122795J2324184D01*
G01*
X124278000Y-141456000D02*
G75*
G03*
X123550795Y-140931816I-1850000J-1800000D01*
G01*
X119828000Y-143256000D02*
G75*
G03*
X121329193Y-145612400I2600000J0D01*
G01*
X122658000Y-92234000D02*
X122328000Y-92234000D01*
X125068000Y-98774000D02*
X124738000Y-98774000D01*
X124738000Y-92234000D02*
X125068000Y-92234000D01*
X125068000Y-92234000D02*
X125068000Y-98774000D01*
X122328000Y-98774000D02*
X122658000Y-98774000D01*
X122328000Y-92234000D02*
X122328000Y-98774000D01*
X134906000Y-95350000D02*
X134906000Y-95020000D01*
X141446000Y-95350000D02*
X134906000Y-95350000D01*
X141446000Y-92610000D02*
X134906000Y-92610000D01*
X141446000Y-92940000D02*
X141446000Y-92610000D01*
X134906000Y-92610000D02*
X134906000Y-92940000D01*
X141446000Y-95020000D02*
X141446000Y-95350000D01*
X148558000Y-119226000D02*
X148558000Y-118896000D01*
X148558000Y-116486000D02*
X148558000Y-116816000D01*
X142018000Y-118896000D02*
X142018000Y-119226000D01*
X142018000Y-116816000D02*
X142018000Y-116486000D01*
X142018000Y-119226000D02*
X148558000Y-119226000D01*
X142018000Y-116486000D02*
X148558000Y-116486000D01*
X118264000Y-52610000D02*
X118594000Y-52610000D01*
X121004000Y-59150000D02*
X121004000Y-52610000D01*
X120674000Y-59150000D02*
X121004000Y-59150000D01*
X118264000Y-59150000D02*
X118264000Y-52610000D01*
X118594000Y-59150000D02*
X118264000Y-59150000D01*
X121004000Y-52610000D02*
X120674000Y-52610000D01*
X143891000Y-85598000D02*
X143891000Y-72898000D01*
X149225000Y-85598000D02*
X143891000Y-85598000D01*
X143891000Y-72898000D02*
X149225000Y-72898000D01*
X149225000Y-72898000D02*
X149225000Y-85598000D01*
%LPC*%
D13*
X140970000Y-130556000D03*
D14*
X140970000Y-138176000D03*
D13*
X115316000Y-122936000D03*
D14*
X115316000Y-130556000D03*
D15*
X131318000Y-118618000D03*
D14*
X138938000Y-118618000D03*
D15*
X120396000Y-87884000D03*
D14*
X112776000Y-87884000D03*
D13*
X114046000Y-62142380D03*
D15*
X114046000Y-59642380D03*
D13*
X147486380Y-139700000D03*
D15*
X144986380Y-139700000D03*
D13*
X129794000Y-130556000D03*
D14*
X129794000Y-138176000D03*
D16*
X149098000Y-53594000D03*
D15*
X128564000Y-127762000D03*
X133564000Y-127762000D03*
X139700000Y-103632000D03*
X142200000Y-103632000D03*
X118110000Y-76962000D03*
X113110000Y-76962000D03*
D13*
X127000000Y-138176000D03*
D14*
X127000000Y-130556000D03*
D17*
X141478000Y-113792000D03*
D18*
X144018000Y-113792000D03*
X146558000Y-113792000D03*
D15*
X112776000Y-91186000D03*
D14*
X120396000Y-91186000D03*
D15*
X134366000Y-84074000D03*
D14*
X141986000Y-84074000D03*
D13*
X138176000Y-138176000D03*
D14*
X138176000Y-130556000D03*
D19*
X129017000Y-103896000D03*
D20*
X129017000Y-106436000D03*
X129017000Y-108976000D03*
X129017000Y-111516000D03*
X136637000Y-111516000D03*
X136637000Y-108976000D03*
X136637000Y-106436000D03*
X136637000Y-103896000D03*
D15*
X141224000Y-140736000D03*
X141224000Y-143236000D03*
D21*
X126746000Y-140716000D03*
D22*
X126746000Y-143256000D03*
X126746000Y-145796000D03*
D13*
X118364000Y-130556000D03*
D14*
X118364000Y-138176000D03*
D15*
X118364000Y-108458000D03*
D14*
X125984000Y-108458000D03*
D15*
X115316000Y-112268000D03*
D14*
X115316000Y-104648000D03*
D15*
X129032000Y-115316000D03*
D14*
X136652000Y-115316000D03*
D15*
X136652000Y-100584000D03*
D14*
X129032000Y-100584000D03*
D16*
X113538000Y-53594000D03*
D15*
X136946000Y-97282000D03*
X141946000Y-97282000D03*
X134366000Y-81026000D03*
X136866000Y-81026000D03*
D13*
X147574000Y-121753621D03*
D15*
X147574000Y-124253621D03*
X125984000Y-105156000D03*
D14*
X118364000Y-105156000D03*
D15*
X120650000Y-70358000D03*
D14*
X113030000Y-70358000D03*
D15*
X141986000Y-90678000D03*
D14*
X134366000Y-90678000D03*
D23*
X137668000Y-54610000D03*
D24*
X137668000Y-57150000D03*
X135128000Y-54610000D03*
X135128000Y-57150000D03*
X132588000Y-54610000D03*
X132588000Y-57150000D03*
X130048000Y-54610000D03*
X130048000Y-57150000D03*
X127508000Y-54610000D03*
X127508000Y-57150000D03*
D15*
X138958000Y-121920000D03*
X141458000Y-121920000D03*
X130008000Y-68834000D03*
X125008000Y-68834000D03*
D25*
X117556000Y-79796000D03*
D26*
X112556000Y-82296000D03*
X117556000Y-84796000D03*
D15*
X120650000Y-84074000D03*
X120650000Y-81574000D03*
D27*
X134884000Y-123190000D03*
X132344000Y-123190000D03*
X129804000Y-123190000D03*
D13*
X147066000Y-59436000D03*
D15*
X147066000Y-61936000D03*
X134366000Y-74422000D03*
D14*
X141986000Y-74422000D03*
D15*
X125730000Y-126746000D03*
D14*
X118110000Y-126746000D03*
D13*
X132588000Y-138176000D03*
D14*
X132588000Y-130556000D03*
D15*
X113030000Y-67056000D03*
D14*
X120650000Y-67056000D03*
D28*
X133350000Y-64389000D03*
X135890000Y-64389000D03*
D15*
X115062000Y-138136000D03*
X115062000Y-133136000D03*
D13*
X135382000Y-130556000D03*
D14*
X135382000Y-138176000D03*
D15*
X147320000Y-109982000D03*
D14*
X139700000Y-109982000D03*
D15*
X125730000Y-123444000D03*
D14*
X118110000Y-123444000D03*
D15*
X113030000Y-73660000D03*
D14*
X120650000Y-73660000D03*
D16*
X149098000Y-146558000D03*
D15*
X144526000Y-127254000D03*
D14*
X144526000Y-134874000D03*
D25*
X118156000Y-119848000D03*
D26*
X123156000Y-117348000D03*
X118156000Y-114848000D03*
D15*
X138684000Y-144526000D03*
D14*
X131064000Y-144526000D03*
D15*
X147066000Y-66040000D03*
D14*
X139446000Y-66040000D03*
D15*
X134366000Y-87376000D03*
D14*
X141986000Y-87376000D03*
D15*
X138684000Y-147828000D03*
D14*
X131064000Y-147828000D03*
D19*
X131333000Y-88651000D03*
D20*
X131333000Y-86111000D03*
X131333000Y-83571000D03*
X131333000Y-81031000D03*
X131333000Y-78491000D03*
X131333000Y-75951000D03*
X131333000Y-73411000D03*
X123713000Y-73411000D03*
X123713000Y-75951000D03*
X123713000Y-78491000D03*
X123713000Y-81031000D03*
X123713000Y-83571000D03*
X123713000Y-86111000D03*
X123713000Y-88651000D03*
D15*
X131064000Y-141224000D03*
D14*
X138684000Y-141224000D03*
D15*
X141986000Y-77724000D03*
D14*
X134366000Y-77724000D03*
D15*
X125984000Y-117348000D03*
X125984000Y-114848000D03*
D13*
X124206000Y-130556000D03*
D14*
X124206000Y-138176000D03*
D13*
X145796000Y-98552000D03*
D15*
X148296000Y-98552000D03*
X112776000Y-94488000D03*
D14*
X120396000Y-94488000D03*
D15*
X139700000Y-106680000D03*
D14*
X147320000Y-106680000D03*
D13*
X121412000Y-138176000D03*
D14*
X121412000Y-130556000D03*
D28*
X146812000Y-92964000D03*
X146812000Y-90424000D03*
X146812000Y-87884000D03*
D13*
X117094000Y-99822000D03*
D15*
X119594000Y-99822000D03*
X125964000Y-102108000D03*
X123464000Y-102108000D03*
X118364000Y-111760000D03*
D14*
X125984000Y-111760000D03*
D15*
X141986000Y-71120000D03*
D14*
X134366000Y-71120000D03*
D16*
X113538000Y-146558000D03*
D15*
X136438000Y-127762000D03*
X141438000Y-127762000D03*
D21*
X122428000Y-145796000D03*
D22*
X122428000Y-143256000D03*
X122428000Y-140716000D03*
D15*
X123698000Y-91694000D03*
D14*
X123698000Y-99314000D03*
D15*
X141986000Y-93980000D03*
D14*
X134366000Y-93980000D03*
D15*
X141478000Y-117856000D03*
D14*
X149098000Y-117856000D03*
D15*
X119634000Y-59690000D03*
D14*
X119634000Y-52070000D03*
D28*
X146685000Y-84328000D03*
X146685000Y-81788000D03*
X146685000Y-79248000D03*
X146685000Y-76708000D03*
X146685000Y-74168000D03*
M02*
