%TF.GenerationSoftware,KiCad,Pcbnew,(6.0.8-1)-1*%
%TF.CreationDate,2023-01-21T16:41:56+01:00*%
%TF.ProjectId,steiner-parker-vcf,73746569-6e65-4722-9d70-61726b65722d,rev?*%
%TF.SameCoordinates,Original*%
%TF.FileFunction,Drillmap*%
%TF.FilePolarity,Positive*%
%FSLAX45Y45*%
G04 Gerber Fmt 4.5, Leading zero omitted, Abs format (unit mm)*
G04 Created by KiCad (PCBNEW (6.0.8-1)-1) date 2023-01-21 16:41:56*
%MOMM*%
%LPD*%
G01*
G04 APERTURE LIST*
%ADD10C,0.050000*%
%ADD11C,0.200000*%
%ADD12C,0.040000*%
%ADD13C,0.080000*%
%ADD14C,0.100000*%
%ADD15C,0.300000*%
G04 APERTURE END LIST*
D10*
X11250000Y-5000000D02*
G75*
G03*
X11000000Y-5250000I0J-250000D01*
G01*
X15000000Y-15000000D02*
G75*
G03*
X15250000Y-14750000I0J250000D01*
G01*
X11000000Y-14750000D02*
X11000000Y-5250000D01*
X15250000Y-5250000D02*
X15250000Y-14750000D01*
X15250000Y-5250000D02*
G75*
G03*
X15000000Y-5000000I-250000J0D01*
G01*
X11000000Y-14750000D02*
G75*
G03*
X11250000Y-15000000I250000J0D01*
G01*
X11250000Y-5000000D02*
X15000000Y-5000000D01*
X15000000Y-15000000D02*
X11250000Y-15000000D01*
D11*
D12*
X11156000Y-10292400D02*
X11196000Y-10332400D01*
X11196000Y-10292400D02*
X11156000Y-10332400D01*
X11156000Y-13289600D02*
X11196000Y-13329600D01*
X11196000Y-13289600D02*
X11156000Y-13329600D01*
X11156000Y-13518200D02*
X11196000Y-13558200D01*
X11196000Y-13518200D02*
X11156000Y-13558200D01*
X11206800Y-10597200D02*
X11246800Y-10637200D01*
X11246800Y-10597200D02*
X11206800Y-10637200D01*
X11206800Y-12299000D02*
X11246800Y-12339000D01*
X11246800Y-12299000D02*
X11206800Y-12339000D01*
X11384600Y-12502200D02*
X11424600Y-12542200D01*
X11424600Y-12502200D02*
X11384600Y-12542200D01*
X11435400Y-13518200D02*
X11475400Y-13558200D01*
X11475400Y-13518200D02*
X11435400Y-13558200D01*
X11638600Y-7066600D02*
X11678600Y-7106600D01*
X11678600Y-7066600D02*
X11638600Y-7106600D01*
X11968800Y-12908600D02*
X12008800Y-12948600D01*
X12008800Y-12908600D02*
X11968800Y-12948600D01*
X12095800Y-7955600D02*
X12135800Y-7995600D01*
X12135800Y-7955600D02*
X12095800Y-7995600D01*
X12527600Y-6482400D02*
X12567600Y-6522400D01*
X12567600Y-6482400D02*
X12527600Y-6522400D01*
X12908600Y-14610400D02*
X12948600Y-14650400D01*
X12948600Y-14610400D02*
X12908600Y-14650400D01*
X12934000Y-9606600D02*
X12974000Y-9646600D01*
X12974000Y-9606600D02*
X12934000Y-9646600D01*
X12959400Y-6482400D02*
X12999400Y-6522400D01*
X12999400Y-6482400D02*
X12959400Y-6522400D01*
X13137200Y-12476800D02*
X13177200Y-12516800D01*
X13177200Y-12476800D02*
X13137200Y-12516800D01*
X13289600Y-9251000D02*
X13329600Y-9291000D01*
X13329600Y-9251000D02*
X13289600Y-9291000D01*
X13416600Y-10927400D02*
X13456600Y-10967400D01*
X13456600Y-10927400D02*
X13416600Y-10967400D01*
X13442000Y-12476800D02*
X13482000Y-12516800D01*
X13482000Y-12476800D02*
X13442000Y-12516800D01*
X13444800Y-10495600D02*
X13484800Y-10535600D01*
X13484800Y-10495600D02*
X13444800Y-10535600D01*
X13848400Y-11232200D02*
X13888400Y-11272200D01*
X13888400Y-11232200D02*
X13848400Y-11272200D01*
X14026200Y-11562400D02*
X14066200Y-11602400D01*
X14066200Y-11562400D02*
X14026200Y-11602400D01*
X14026200Y-14610400D02*
X14066200Y-14650400D01*
X14066200Y-14610400D02*
X14026200Y-14650400D01*
X14204000Y-8895400D02*
X14244000Y-8935400D01*
X14244000Y-8895400D02*
X14204000Y-8935400D01*
X14492550Y-8539800D02*
X14532550Y-8579800D01*
X14532550Y-8539800D02*
X14492550Y-8579800D01*
X14762800Y-11968800D02*
X14802800Y-12008800D01*
X14802800Y-11968800D02*
X14762800Y-12008800D01*
X14889800Y-11257600D02*
X14929800Y-11297600D01*
X14929800Y-11257600D02*
X14889800Y-11297600D01*
X14889800Y-11562400D02*
X14929800Y-11602400D01*
X14929800Y-11562400D02*
X14889800Y-11602400D01*
X14940600Y-7904800D02*
X14980600Y-7944800D01*
X14980600Y-7904800D02*
X14940600Y-7944800D01*
X15016800Y-11968800D02*
X15056800Y-12008800D01*
X15056800Y-11968800D02*
X15016800Y-12008800D01*
D13*
X11317600Y-8788400D02*
G75*
G03*
X11317600Y-8788400I-40000J0D01*
G01*
X11317600Y-9118600D02*
G75*
G03*
X11317600Y-9118600I-40000J0D01*
G01*
X11317600Y-9448800D02*
G75*
G03*
X11317600Y-9448800I-40000J0D01*
G01*
X11343000Y-6705600D02*
G75*
G03*
X11343000Y-6705600I-40000J0D01*
G01*
X11343000Y-7035800D02*
G75*
G03*
X11343000Y-7035800I-40000J0D01*
G01*
X11343000Y-7366000D02*
G75*
G03*
X11343000Y-7366000I-40000J0D01*
G01*
X11351000Y-7696200D02*
G75*
G03*
X11351000Y-7696200I-40000J0D01*
G01*
X11444600Y-5964238D02*
G75*
G03*
X11444600Y-5964238I-40000J0D01*
G01*
X11444600Y-6214238D02*
G75*
G03*
X11444600Y-6214238I-40000J0D01*
G01*
X11546200Y-13313600D02*
G75*
G03*
X11546200Y-13313600I-40000J0D01*
G01*
X11546200Y-13813600D02*
G75*
G03*
X11546200Y-13813600I-40000J0D01*
G01*
X11571600Y-10464800D02*
G75*
G03*
X11571600Y-10464800I-40000J0D01*
G01*
X11571600Y-11226800D02*
G75*
G03*
X11571600Y-11226800I-40000J0D01*
G01*
X11571600Y-12293600D02*
G75*
G03*
X11571600Y-12293600I-40000J0D01*
G01*
X11571600Y-13055600D02*
G75*
G03*
X11571600Y-13055600I-40000J0D01*
G01*
X11749400Y-9982200D02*
G75*
G03*
X11749400Y-9982200I-40000J0D01*
G01*
X11851000Y-7696200D02*
G75*
G03*
X11851000Y-7696200I-40000J0D01*
G01*
X11851000Y-12344400D02*
G75*
G03*
X11851000Y-12344400I-40000J0D01*
G01*
X11851000Y-12674600D02*
G75*
G03*
X11851000Y-12674600I-40000J0D01*
G01*
X11876400Y-10515600D02*
G75*
G03*
X11876400Y-10515600I-40000J0D01*
G01*
X11876400Y-10845800D02*
G75*
G03*
X11876400Y-10845800I-40000J0D01*
G01*
X11876400Y-11176000D02*
G75*
G03*
X11876400Y-11176000I-40000J0D01*
G01*
X11876400Y-13055600D02*
G75*
G03*
X11876400Y-13055600I-40000J0D01*
G01*
X11876400Y-13817600D02*
G75*
G03*
X11876400Y-13817600I-40000J0D01*
G01*
X11999400Y-9982200D02*
G75*
G03*
X11999400Y-9982200I-40000J0D01*
G01*
X12003400Y-5207000D02*
G75*
G03*
X12003400Y-5207000I-40000J0D01*
G01*
X12003400Y-5969000D02*
G75*
G03*
X12003400Y-5969000I-40000J0D01*
G01*
X12079600Y-8788400D02*
G75*
G03*
X12079600Y-8788400I-40000J0D01*
G01*
X12079600Y-9118600D02*
G75*
G03*
X12079600Y-9118600I-40000J0D01*
G01*
X12079600Y-9448800D02*
G75*
G03*
X12079600Y-9448800I-40000J0D01*
G01*
X12105000Y-6705600D02*
G75*
G03*
X12105000Y-6705600I-40000J0D01*
G01*
X12105000Y-7035800D02*
G75*
G03*
X12105000Y-7035800I-40000J0D01*
G01*
X12105000Y-7366000D02*
G75*
G03*
X12105000Y-7366000I-40000J0D01*
G01*
X12105000Y-8157400D02*
G75*
G03*
X12105000Y-8157400I-40000J0D01*
G01*
X12105000Y-8407400D02*
G75*
G03*
X12105000Y-8407400I-40000J0D01*
G01*
X12181200Y-13055600D02*
G75*
G03*
X12181200Y-13055600I-40000J0D01*
G01*
X12181200Y-13817600D02*
G75*
G03*
X12181200Y-13817600I-40000J0D01*
G01*
X12282800Y-14071600D02*
G75*
G03*
X12282800Y-14071600I-40000J0D01*
G01*
X12282800Y-14325600D02*
G75*
G03*
X12282800Y-14325600I-40000J0D01*
G01*
X12282800Y-14579600D02*
G75*
G03*
X12282800Y-14579600I-40000J0D01*
G01*
X12386400Y-10210800D02*
G75*
G03*
X12386400Y-10210800I-40000J0D01*
G01*
X12409800Y-9169400D02*
G75*
G03*
X12409800Y-9169400I-40000J0D01*
G01*
X12409800Y-9931400D02*
G75*
G03*
X12409800Y-9931400I-40000J0D01*
G01*
X12411300Y-7341100D02*
G75*
G03*
X12411300Y-7341100I-40000J0D01*
G01*
X12411300Y-7595100D02*
G75*
G03*
X12411300Y-7595100I-40000J0D01*
G01*
X12411300Y-7849100D02*
G75*
G03*
X12411300Y-7849100I-40000J0D01*
G01*
X12411300Y-8103100D02*
G75*
G03*
X12411300Y-8103100I-40000J0D01*
G01*
X12411300Y-8357100D02*
G75*
G03*
X12411300Y-8357100I-40000J0D01*
G01*
X12411300Y-8611100D02*
G75*
G03*
X12411300Y-8611100I-40000J0D01*
G01*
X12411300Y-8865100D02*
G75*
G03*
X12411300Y-8865100I-40000J0D01*
G01*
X12460600Y-13055600D02*
G75*
G03*
X12460600Y-13055600I-40000J0D01*
G01*
X12460600Y-13817600D02*
G75*
G03*
X12460600Y-13817600I-40000J0D01*
G01*
X12540800Y-6883400D02*
G75*
G03*
X12540800Y-6883400I-40000J0D01*
G01*
X12613000Y-12344400D02*
G75*
G03*
X12613000Y-12344400I-40000J0D01*
G01*
X12613000Y-12674600D02*
G75*
G03*
X12613000Y-12674600I-40000J0D01*
G01*
X12636400Y-10210800D02*
G75*
G03*
X12636400Y-10210800I-40000J0D01*
G01*
X12638400Y-10515600D02*
G75*
G03*
X12638400Y-10515600I-40000J0D01*
G01*
X12638400Y-10845800D02*
G75*
G03*
X12638400Y-10845800I-40000J0D01*
G01*
X12638400Y-11176000D02*
G75*
G03*
X12638400Y-11176000I-40000J0D01*
G01*
X12638400Y-11484800D02*
G75*
G03*
X12638400Y-11484800I-40000J0D01*
G01*
X12638400Y-11734800D02*
G75*
G03*
X12638400Y-11734800I-40000J0D01*
G01*
X12714600Y-14071600D02*
G75*
G03*
X12714600Y-14071600I-40000J0D01*
G01*
X12714600Y-14325600D02*
G75*
G03*
X12714600Y-14325600I-40000J0D01*
G01*
X12714600Y-14579600D02*
G75*
G03*
X12714600Y-14579600I-40000J0D01*
G01*
X12740000Y-13055600D02*
G75*
G03*
X12740000Y-13055600I-40000J0D01*
G01*
X12740000Y-13817600D02*
G75*
G03*
X12740000Y-13817600I-40000J0D01*
G01*
X12896400Y-12776200D02*
G75*
G03*
X12896400Y-12776200I-40000J0D01*
G01*
X12941700Y-10389600D02*
G75*
G03*
X12941700Y-10389600I-40000J0D01*
G01*
X12941700Y-10643600D02*
G75*
G03*
X12941700Y-10643600I-40000J0D01*
G01*
X12941700Y-10897600D02*
G75*
G03*
X12941700Y-10897600I-40000J0D01*
G01*
X12941700Y-11151600D02*
G75*
G03*
X12941700Y-11151600I-40000J0D01*
G01*
X12943200Y-10058400D02*
G75*
G03*
X12943200Y-10058400I-40000J0D01*
G01*
X12943200Y-11531600D02*
G75*
G03*
X12943200Y-11531600I-40000J0D01*
G01*
X13019400Y-13055600D02*
G75*
G03*
X13019400Y-13055600I-40000J0D01*
G01*
X13019400Y-13817600D02*
G75*
G03*
X13019400Y-13817600I-40000J0D01*
G01*
X13020400Y-12319000D02*
G75*
G03*
X13020400Y-12319000I-40000J0D01*
G01*
X13040800Y-6883400D02*
G75*
G03*
X13040800Y-6883400I-40000J0D01*
G01*
X13146400Y-14122400D02*
G75*
G03*
X13146400Y-14122400I-40000J0D01*
G01*
X13146400Y-14452600D02*
G75*
G03*
X13146400Y-14452600I-40000J0D01*
G01*
X13146400Y-14782800D02*
G75*
G03*
X13146400Y-14782800I-40000J0D01*
G01*
X13171800Y-11861800D02*
G75*
G03*
X13171800Y-11861800I-40000J0D01*
G01*
X13173300Y-7341100D02*
G75*
G03*
X13173300Y-7341100I-40000J0D01*
G01*
X13173300Y-7595100D02*
G75*
G03*
X13173300Y-7595100I-40000J0D01*
G01*
X13173300Y-7849100D02*
G75*
G03*
X13173300Y-7849100I-40000J0D01*
G01*
X13173300Y-8103100D02*
G75*
G03*
X13173300Y-8103100I-40000J0D01*
G01*
X13173300Y-8357100D02*
G75*
G03*
X13173300Y-8357100I-40000J0D01*
G01*
X13173300Y-8611100D02*
G75*
G03*
X13173300Y-8611100I-40000J0D01*
G01*
X13173300Y-8865100D02*
G75*
G03*
X13173300Y-8865100I-40000J0D01*
G01*
X13274400Y-12319000D02*
G75*
G03*
X13274400Y-12319000I-40000J0D01*
G01*
X13298800Y-13055600D02*
G75*
G03*
X13298800Y-13055600I-40000J0D01*
G01*
X13298800Y-13817600D02*
G75*
G03*
X13298800Y-13817600I-40000J0D01*
G01*
X13396400Y-12776200D02*
G75*
G03*
X13396400Y-12776200I-40000J0D01*
G01*
X13476600Y-7112000D02*
G75*
G03*
X13476600Y-7112000I-40000J0D01*
G01*
X13476600Y-7442200D02*
G75*
G03*
X13476600Y-7442200I-40000J0D01*
G01*
X13476600Y-7772400D02*
G75*
G03*
X13476600Y-7772400I-40000J0D01*
G01*
X13476600Y-8102600D02*
G75*
G03*
X13476600Y-8102600I-40000J0D01*
G01*
X13476600Y-8407400D02*
G75*
G03*
X13476600Y-8407400I-40000J0D01*
G01*
X13476600Y-8737600D02*
G75*
G03*
X13476600Y-8737600I-40000J0D01*
G01*
X13476600Y-9067800D02*
G75*
G03*
X13476600Y-9067800I-40000J0D01*
G01*
X13476600Y-9398000D02*
G75*
G03*
X13476600Y-9398000I-40000J0D01*
G01*
X13528400Y-12319000D02*
G75*
G03*
X13528400Y-12319000I-40000J0D01*
G01*
X13578200Y-13055600D02*
G75*
G03*
X13578200Y-13055600I-40000J0D01*
G01*
X13578200Y-13817600D02*
G75*
G03*
X13578200Y-13817600I-40000J0D01*
G01*
X13683800Y-12776200D02*
G75*
G03*
X13683800Y-12776200I-40000J0D01*
G01*
X13703700Y-10389600D02*
G75*
G03*
X13703700Y-10389600I-40000J0D01*
G01*
X13703700Y-10643600D02*
G75*
G03*
X13703700Y-10643600I-40000J0D01*
G01*
X13703700Y-10897600D02*
G75*
G03*
X13703700Y-10897600I-40000J0D01*
G01*
X13703700Y-11151600D02*
G75*
G03*
X13703700Y-11151600I-40000J0D01*
G01*
X13705200Y-10058400D02*
G75*
G03*
X13705200Y-10058400I-40000J0D01*
G01*
X13705200Y-11531600D02*
G75*
G03*
X13705200Y-11531600I-40000J0D01*
G01*
X13726600Y-8102600D02*
G75*
G03*
X13726600Y-8102600I-40000J0D01*
G01*
X13734600Y-9728200D02*
G75*
G03*
X13734600Y-9728200I-40000J0D01*
G01*
X13857600Y-13055600D02*
G75*
G03*
X13857600Y-13055600I-40000J0D01*
G01*
X13857600Y-13817600D02*
G75*
G03*
X13857600Y-13817600I-40000J0D01*
G01*
X13908400Y-14122400D02*
G75*
G03*
X13908400Y-14122400I-40000J0D01*
G01*
X13908400Y-14452600D02*
G75*
G03*
X13908400Y-14452600I-40000J0D01*
G01*
X13908400Y-14782800D02*
G75*
G03*
X13908400Y-14782800I-40000J0D01*
G01*
X13933800Y-11861800D02*
G75*
G03*
X13933800Y-11861800I-40000J0D01*
G01*
X13935800Y-12192000D02*
G75*
G03*
X13935800Y-12192000I-40000J0D01*
G01*
X13984600Y-6604000D02*
G75*
G03*
X13984600Y-6604000I-40000J0D01*
G01*
X14010000Y-10363200D02*
G75*
G03*
X14010000Y-10363200I-40000J0D01*
G01*
X14010000Y-10668000D02*
G75*
G03*
X14010000Y-10668000I-40000J0D01*
G01*
X14010000Y-10998200D02*
G75*
G03*
X14010000Y-10998200I-40000J0D01*
G01*
X14137000Y-13055600D02*
G75*
G03*
X14137000Y-13055600I-40000J0D01*
G01*
X14137000Y-13817600D02*
G75*
G03*
X14137000Y-13817600I-40000J0D01*
G01*
X14162400Y-14073600D02*
G75*
G03*
X14162400Y-14073600I-40000J0D01*
G01*
X14162400Y-14323600D02*
G75*
G03*
X14162400Y-14323600I-40000J0D01*
G01*
X14183800Y-12776200D02*
G75*
G03*
X14183800Y-12776200I-40000J0D01*
G01*
X14185800Y-12192000D02*
G75*
G03*
X14185800Y-12192000I-40000J0D01*
G01*
X14187800Y-11785600D02*
G75*
G03*
X14187800Y-11785600I-40000J0D01*
G01*
X14234600Y-9728200D02*
G75*
G03*
X14234600Y-9728200I-40000J0D01*
G01*
X14238600Y-7112000D02*
G75*
G03*
X14238600Y-7112000I-40000J0D01*
G01*
X14238600Y-7442200D02*
G75*
G03*
X14238600Y-7442200I-40000J0D01*
G01*
X14238600Y-7772400D02*
G75*
G03*
X14238600Y-7772400I-40000J0D01*
G01*
X14238600Y-8407400D02*
G75*
G03*
X14238600Y-8407400I-40000J0D01*
G01*
X14238600Y-8737600D02*
G75*
G03*
X14238600Y-8737600I-40000J0D01*
G01*
X14238600Y-9067800D02*
G75*
G03*
X14238600Y-9067800I-40000J0D01*
G01*
X14238600Y-9398000D02*
G75*
G03*
X14238600Y-9398000I-40000J0D01*
G01*
X14260000Y-10363200D02*
G75*
G03*
X14260000Y-10363200I-40000J0D01*
G01*
X14492600Y-12725400D02*
G75*
G03*
X14492600Y-12725400I-40000J0D01*
G01*
X14492600Y-13487400D02*
G75*
G03*
X14492600Y-13487400I-40000J0D01*
G01*
X14538638Y-13970000D02*
G75*
G03*
X14538638Y-13970000I-40000J0D01*
G01*
X14619600Y-9855200D02*
G75*
G03*
X14619600Y-9855200I-40000J0D01*
G01*
X14746600Y-5943600D02*
G75*
G03*
X14746600Y-5943600I-40000J0D01*
G01*
X14746600Y-6193600D02*
G75*
G03*
X14746600Y-6193600I-40000J0D01*
G01*
X14746600Y-6604000D02*
G75*
G03*
X14746600Y-6604000I-40000J0D01*
G01*
X14772000Y-10668000D02*
G75*
G03*
X14772000Y-10668000I-40000J0D01*
G01*
X14772000Y-10998200D02*
G75*
G03*
X14772000Y-10998200I-40000J0D01*
G01*
X14788638Y-13970000D02*
G75*
G03*
X14788638Y-13970000I-40000J0D01*
G01*
X14797400Y-12175362D02*
G75*
G03*
X14797400Y-12175362I-40000J0D01*
G01*
X14797400Y-12425362D02*
G75*
G03*
X14797400Y-12425362I-40000J0D01*
G01*
X14869600Y-9855200D02*
G75*
G03*
X14869600Y-9855200I-40000J0D01*
G01*
X14949800Y-11785600D02*
G75*
G03*
X14949800Y-11785600I-40000J0D01*
G01*
D14*
X11255600Y-8179600D02*
X11255600Y-8279600D01*
X11205600Y-8229600D02*
X11305600Y-8229600D01*
X11755600Y-7929600D02*
X11755600Y-8029600D01*
X11705600Y-7979600D02*
X11805600Y-7979600D01*
X11755600Y-8429600D02*
X11755600Y-8529600D01*
X11705600Y-8479600D02*
X11805600Y-8479600D01*
X11815600Y-11434800D02*
X11815600Y-11534800D01*
X11765600Y-11484800D02*
X11865600Y-11484800D01*
X11815600Y-11934800D02*
X11815600Y-12034800D01*
X11765600Y-11984800D02*
X11865600Y-11984800D01*
X12315600Y-11684800D02*
X12315600Y-11784800D01*
X12265600Y-11734800D02*
X12365600Y-11734800D01*
X12750800Y-5411000D02*
X12750800Y-5511000D01*
X12700800Y-5461000D02*
X12800800Y-5461000D01*
X12750800Y-5665000D02*
X12750800Y-5765000D01*
X12700800Y-5715000D02*
X12800800Y-5715000D01*
X13004800Y-5411000D02*
X13004800Y-5511000D01*
X12954800Y-5461000D02*
X13054800Y-5461000D01*
X13004800Y-5665000D02*
X13004800Y-5765000D01*
X12954800Y-5715000D02*
X13054800Y-5715000D01*
X13258800Y-5411000D02*
X13258800Y-5511000D01*
X13208800Y-5461000D02*
X13308800Y-5461000D01*
X13258800Y-5665000D02*
X13258800Y-5765000D01*
X13208800Y-5715000D02*
X13308800Y-5715000D01*
X13335000Y-6388900D02*
X13335000Y-6488900D01*
X13285000Y-6438900D02*
X13385000Y-6438900D01*
X13512800Y-5411000D02*
X13512800Y-5511000D01*
X13462800Y-5461000D02*
X13562800Y-5461000D01*
X13512800Y-5665000D02*
X13512800Y-5765000D01*
X13462800Y-5715000D02*
X13562800Y-5715000D01*
X13589000Y-6388900D02*
X13589000Y-6488900D01*
X13539000Y-6438900D02*
X13639000Y-6438900D01*
X13766800Y-5411000D02*
X13766800Y-5511000D01*
X13716800Y-5461000D02*
X13816800Y-5461000D01*
X13766800Y-5665000D02*
X13766800Y-5765000D01*
X13716800Y-5715000D02*
X13816800Y-5715000D01*
X14147800Y-11329200D02*
X14147800Y-11429200D01*
X14097800Y-11379200D02*
X14197800Y-11379200D01*
X14401800Y-11329200D02*
X14401800Y-11429200D01*
X14351800Y-11379200D02*
X14451800Y-11379200D01*
X14655800Y-11329200D02*
X14655800Y-11429200D01*
X14605800Y-11379200D02*
X14705800Y-11379200D01*
X14668500Y-7366800D02*
X14668500Y-7466800D01*
X14618500Y-7416800D02*
X14718500Y-7416800D01*
X14668500Y-7620800D02*
X14668500Y-7720800D01*
X14618500Y-7670800D02*
X14718500Y-7670800D01*
X14668500Y-7874800D02*
X14668500Y-7974800D01*
X14618500Y-7924800D02*
X14718500Y-7924800D01*
X14668500Y-8128800D02*
X14668500Y-8228800D01*
X14618500Y-8178800D02*
X14718500Y-8178800D01*
X14668500Y-8382800D02*
X14668500Y-8482800D01*
X14618500Y-8432800D02*
X14718500Y-8432800D01*
X14681200Y-8738400D02*
X14681200Y-8838400D01*
X14631200Y-8788400D02*
X14731200Y-8788400D01*
X14681200Y-8992400D02*
X14681200Y-9092400D01*
X14631200Y-9042400D02*
X14731200Y-9042400D01*
X14681200Y-9246400D02*
X14681200Y-9346400D01*
X14631200Y-9296400D02*
X14731200Y-9296400D01*
D15*
X11459867Y-5465467D02*
X11459867Y-5253333D01*
X11247733Y-5253333D01*
X11247733Y-5465467D01*
X11459867Y-5465467D01*
X11459867Y-14761867D02*
X11459867Y-14549733D01*
X11247733Y-14549733D01*
X11247733Y-14761867D01*
X11459867Y-14761867D01*
X15015867Y-5465467D02*
X15015867Y-5253333D01*
X14803733Y-5253333D01*
X14803733Y-5465467D01*
X15015867Y-5465467D01*
X15015867Y-14761867D02*
X15015867Y-14549733D01*
X14803733Y-14549733D01*
X14803733Y-14761867D01*
X15015867Y-14761867D01*
D11*
X11255119Y-15312976D02*
X11255119Y-15112976D01*
X11302738Y-15112976D01*
X11331309Y-15122500D01*
X11350357Y-15141548D01*
X11359881Y-15160595D01*
X11369405Y-15198690D01*
X11369405Y-15227262D01*
X11359881Y-15265357D01*
X11350357Y-15284405D01*
X11331309Y-15303452D01*
X11302738Y-15312976D01*
X11255119Y-15312976D01*
X11455119Y-15312976D02*
X11455119Y-15179643D01*
X11455119Y-15217738D02*
X11464643Y-15198690D01*
X11474167Y-15189167D01*
X11493214Y-15179643D01*
X11512262Y-15179643D01*
X11578928Y-15312976D02*
X11578928Y-15179643D01*
X11578928Y-15112976D02*
X11569405Y-15122500D01*
X11578928Y-15132024D01*
X11588452Y-15122500D01*
X11578928Y-15112976D01*
X11578928Y-15132024D01*
X11702738Y-15312976D02*
X11683690Y-15303452D01*
X11674167Y-15284405D01*
X11674167Y-15112976D01*
X11807500Y-15312976D02*
X11788452Y-15303452D01*
X11778928Y-15284405D01*
X11778928Y-15112976D01*
X12036071Y-15312976D02*
X12036071Y-15112976D01*
X12102738Y-15255833D01*
X12169405Y-15112976D01*
X12169405Y-15312976D01*
X12350357Y-15312976D02*
X12350357Y-15208214D01*
X12340833Y-15189167D01*
X12321786Y-15179643D01*
X12283690Y-15179643D01*
X12264643Y-15189167D01*
X12350357Y-15303452D02*
X12331309Y-15312976D01*
X12283690Y-15312976D01*
X12264643Y-15303452D01*
X12255119Y-15284405D01*
X12255119Y-15265357D01*
X12264643Y-15246309D01*
X12283690Y-15236786D01*
X12331309Y-15236786D01*
X12350357Y-15227262D01*
X12445595Y-15179643D02*
X12445595Y-15379643D01*
X12445595Y-15189167D02*
X12464643Y-15179643D01*
X12502738Y-15179643D01*
X12521786Y-15189167D01*
X12531309Y-15198690D01*
X12540833Y-15217738D01*
X12540833Y-15274881D01*
X12531309Y-15293928D01*
X12521786Y-15303452D01*
X12502738Y-15312976D01*
X12464643Y-15312976D01*
X12445595Y-15303452D01*
X12626548Y-15293928D02*
X12636071Y-15303452D01*
X12626548Y-15312976D01*
X12617024Y-15303452D01*
X12626548Y-15293928D01*
X12626548Y-15312976D01*
X12626548Y-15189167D02*
X12636071Y-15198690D01*
X12626548Y-15208214D01*
X12617024Y-15198690D01*
X12626548Y-15189167D01*
X12626548Y-15208214D01*
D12*
X10957500Y-15622500D02*
X10997500Y-15662500D01*
X10997500Y-15622500D02*
X10957500Y-15662500D01*
D11*
X11293214Y-15532976D02*
X11312262Y-15532976D01*
X11331309Y-15542500D01*
X11340833Y-15552024D01*
X11350357Y-15571071D01*
X11359881Y-15609167D01*
X11359881Y-15656786D01*
X11350357Y-15694881D01*
X11340833Y-15713928D01*
X11331309Y-15723452D01*
X11312262Y-15732976D01*
X11293214Y-15732976D01*
X11274167Y-15723452D01*
X11264643Y-15713928D01*
X11255119Y-15694881D01*
X11245595Y-15656786D01*
X11245595Y-15609167D01*
X11255119Y-15571071D01*
X11264643Y-15552024D01*
X11274167Y-15542500D01*
X11293214Y-15532976D01*
X11445595Y-15713928D02*
X11455119Y-15723452D01*
X11445595Y-15732976D01*
X11436071Y-15723452D01*
X11445595Y-15713928D01*
X11445595Y-15732976D01*
X11626548Y-15599643D02*
X11626548Y-15732976D01*
X11578928Y-15523452D02*
X11531309Y-15666309D01*
X11655119Y-15666309D01*
X11769405Y-15532976D02*
X11788452Y-15532976D01*
X11807500Y-15542500D01*
X11817024Y-15552024D01*
X11826548Y-15571071D01*
X11836071Y-15609167D01*
X11836071Y-15656786D01*
X11826548Y-15694881D01*
X11817024Y-15713928D01*
X11807500Y-15723452D01*
X11788452Y-15732976D01*
X11769405Y-15732976D01*
X11750357Y-15723452D01*
X11740833Y-15713928D01*
X11731309Y-15694881D01*
X11721786Y-15656786D01*
X11721786Y-15609167D01*
X11731309Y-15571071D01*
X11740833Y-15552024D01*
X11750357Y-15542500D01*
X11769405Y-15532976D01*
X11959881Y-15532976D02*
X11978928Y-15532976D01*
X11997976Y-15542500D01*
X12007500Y-15552024D01*
X12017024Y-15571071D01*
X12026548Y-15609167D01*
X12026548Y-15656786D01*
X12017024Y-15694881D01*
X12007500Y-15713928D01*
X11997976Y-15723452D01*
X11978928Y-15732976D01*
X11959881Y-15732976D01*
X11940833Y-15723452D01*
X11931309Y-15713928D01*
X11921786Y-15694881D01*
X11912262Y-15656786D01*
X11912262Y-15609167D01*
X11921786Y-15571071D01*
X11931309Y-15552024D01*
X11940833Y-15542500D01*
X11959881Y-15532976D01*
X12112262Y-15732976D02*
X12112262Y-15599643D01*
X12112262Y-15618690D02*
X12121786Y-15609167D01*
X12140833Y-15599643D01*
X12169405Y-15599643D01*
X12188452Y-15609167D01*
X12197976Y-15628214D01*
X12197976Y-15732976D01*
X12197976Y-15628214D02*
X12207500Y-15609167D01*
X12226548Y-15599643D01*
X12255119Y-15599643D01*
X12274167Y-15609167D01*
X12283690Y-15628214D01*
X12283690Y-15732976D01*
X12378928Y-15732976D02*
X12378928Y-15599643D01*
X12378928Y-15618690D02*
X12388452Y-15609167D01*
X12407500Y-15599643D01*
X12436071Y-15599643D01*
X12455119Y-15609167D01*
X12464643Y-15628214D01*
X12464643Y-15732976D01*
X12464643Y-15628214D02*
X12474167Y-15609167D01*
X12493214Y-15599643D01*
X12521786Y-15599643D01*
X12540833Y-15609167D01*
X12550357Y-15628214D01*
X12550357Y-15732976D01*
X12940833Y-15523452D02*
X12769405Y-15780595D01*
X13197976Y-15532976D02*
X13217024Y-15532976D01*
X13236071Y-15542500D01*
X13245595Y-15552024D01*
X13255119Y-15571071D01*
X13264643Y-15609167D01*
X13264643Y-15656786D01*
X13255119Y-15694881D01*
X13245595Y-15713928D01*
X13236071Y-15723452D01*
X13217024Y-15732976D01*
X13197976Y-15732976D01*
X13178928Y-15723452D01*
X13169405Y-15713928D01*
X13159881Y-15694881D01*
X13150357Y-15656786D01*
X13150357Y-15609167D01*
X13159881Y-15571071D01*
X13169405Y-15552024D01*
X13178928Y-15542500D01*
X13197976Y-15532976D01*
X13350357Y-15713928D02*
X13359881Y-15723452D01*
X13350357Y-15732976D01*
X13340833Y-15723452D01*
X13350357Y-15713928D01*
X13350357Y-15732976D01*
X13483690Y-15532976D02*
X13502738Y-15532976D01*
X13521786Y-15542500D01*
X13531309Y-15552024D01*
X13540833Y-15571071D01*
X13550357Y-15609167D01*
X13550357Y-15656786D01*
X13540833Y-15694881D01*
X13531309Y-15713928D01*
X13521786Y-15723452D01*
X13502738Y-15732976D01*
X13483690Y-15732976D01*
X13464643Y-15723452D01*
X13455119Y-15713928D01*
X13445595Y-15694881D01*
X13436071Y-15656786D01*
X13436071Y-15609167D01*
X13445595Y-15571071D01*
X13455119Y-15552024D01*
X13464643Y-15542500D01*
X13483690Y-15532976D01*
X13740833Y-15732976D02*
X13626548Y-15732976D01*
X13683690Y-15732976D02*
X13683690Y-15532976D01*
X13664643Y-15561548D01*
X13645595Y-15580595D01*
X13626548Y-15590119D01*
X13921786Y-15532976D02*
X13826548Y-15532976D01*
X13817024Y-15628214D01*
X13826548Y-15618690D01*
X13845595Y-15609167D01*
X13893214Y-15609167D01*
X13912262Y-15618690D01*
X13921786Y-15628214D01*
X13931309Y-15647262D01*
X13931309Y-15694881D01*
X13921786Y-15713928D01*
X13912262Y-15723452D01*
X13893214Y-15732976D01*
X13845595Y-15732976D01*
X13826548Y-15723452D01*
X13817024Y-15713928D01*
X13997976Y-15532976D02*
X14131309Y-15532976D01*
X14045595Y-15732976D01*
X14197976Y-15532976D02*
X14197976Y-15571071D01*
X14274167Y-15532976D02*
X14274167Y-15571071D01*
X14569405Y-15809167D02*
X14559881Y-15799643D01*
X14540833Y-15771071D01*
X14531309Y-15752024D01*
X14521786Y-15723452D01*
X14512262Y-15675833D01*
X14512262Y-15637738D01*
X14521786Y-15590119D01*
X14531309Y-15561548D01*
X14540833Y-15542500D01*
X14559881Y-15513928D01*
X14569405Y-15504405D01*
X14636071Y-15552024D02*
X14645595Y-15542500D01*
X14664643Y-15532976D01*
X14712262Y-15532976D01*
X14731309Y-15542500D01*
X14740833Y-15552024D01*
X14750357Y-15571071D01*
X14750357Y-15590119D01*
X14740833Y-15618690D01*
X14626548Y-15732976D01*
X14750357Y-15732976D01*
X14845595Y-15732976D02*
X14883690Y-15732976D01*
X14902738Y-15723452D01*
X14912262Y-15713928D01*
X14931309Y-15685357D01*
X14940833Y-15647262D01*
X14940833Y-15571071D01*
X14931309Y-15552024D01*
X14921786Y-15542500D01*
X14902738Y-15532976D01*
X14864643Y-15532976D01*
X14845595Y-15542500D01*
X14836071Y-15552024D01*
X14826548Y-15571071D01*
X14826548Y-15618690D01*
X14836071Y-15637738D01*
X14845595Y-15647262D01*
X14864643Y-15656786D01*
X14902738Y-15656786D01*
X14921786Y-15647262D01*
X14931309Y-15637738D01*
X14940833Y-15618690D01*
X15178928Y-15732976D02*
X15178928Y-15532976D01*
X15264643Y-15732976D02*
X15264643Y-15628214D01*
X15255119Y-15609167D01*
X15236071Y-15599643D01*
X15207500Y-15599643D01*
X15188452Y-15609167D01*
X15178928Y-15618690D01*
X15388452Y-15732976D02*
X15369405Y-15723452D01*
X15359881Y-15713928D01*
X15350357Y-15694881D01*
X15350357Y-15637738D01*
X15359881Y-15618690D01*
X15369405Y-15609167D01*
X15388452Y-15599643D01*
X15417024Y-15599643D01*
X15436071Y-15609167D01*
X15445595Y-15618690D01*
X15455119Y-15637738D01*
X15455119Y-15694881D01*
X15445595Y-15713928D01*
X15436071Y-15723452D01*
X15417024Y-15732976D01*
X15388452Y-15732976D01*
X15569405Y-15732976D02*
X15550357Y-15723452D01*
X15540833Y-15704405D01*
X15540833Y-15532976D01*
X15721786Y-15723452D02*
X15702738Y-15732976D01*
X15664643Y-15732976D01*
X15645595Y-15723452D01*
X15636071Y-15704405D01*
X15636071Y-15628214D01*
X15645595Y-15609167D01*
X15664643Y-15599643D01*
X15702738Y-15599643D01*
X15721786Y-15609167D01*
X15731309Y-15628214D01*
X15731309Y-15647262D01*
X15636071Y-15666309D01*
X15807500Y-15723452D02*
X15826548Y-15732976D01*
X15864643Y-15732976D01*
X15883690Y-15723452D01*
X15893214Y-15704405D01*
X15893214Y-15694881D01*
X15883690Y-15675833D01*
X15864643Y-15666309D01*
X15836071Y-15666309D01*
X15817024Y-15656786D01*
X15807500Y-15637738D01*
X15807500Y-15628214D01*
X15817024Y-15609167D01*
X15836071Y-15599643D01*
X15864643Y-15599643D01*
X15883690Y-15609167D01*
X15959881Y-15809167D02*
X15969405Y-15799643D01*
X15988452Y-15771071D01*
X15997976Y-15752024D01*
X16007500Y-15723452D01*
X16017024Y-15675833D01*
X16017024Y-15637738D01*
X16007500Y-15590119D01*
X15997976Y-15561548D01*
X15988452Y-15542500D01*
X15969405Y-15513928D01*
X15959881Y-15504405D01*
D13*
X10997500Y-15906500D02*
G75*
G03*
X10997500Y-15906500I-40000J0D01*
G01*
D11*
X11293214Y-15796976D02*
X11312262Y-15796976D01*
X11331309Y-15806500D01*
X11340833Y-15816024D01*
X11350357Y-15835071D01*
X11359881Y-15873167D01*
X11359881Y-15920786D01*
X11350357Y-15958881D01*
X11340833Y-15977928D01*
X11331309Y-15987452D01*
X11312262Y-15996976D01*
X11293214Y-15996976D01*
X11274167Y-15987452D01*
X11264643Y-15977928D01*
X11255119Y-15958881D01*
X11245595Y-15920786D01*
X11245595Y-15873167D01*
X11255119Y-15835071D01*
X11264643Y-15816024D01*
X11274167Y-15806500D01*
X11293214Y-15796976D01*
X11445595Y-15977928D02*
X11455119Y-15987452D01*
X11445595Y-15996976D01*
X11436071Y-15987452D01*
X11445595Y-15977928D01*
X11445595Y-15996976D01*
X11569405Y-15882690D02*
X11550357Y-15873167D01*
X11540833Y-15863643D01*
X11531309Y-15844595D01*
X11531309Y-15835071D01*
X11540833Y-15816024D01*
X11550357Y-15806500D01*
X11569405Y-15796976D01*
X11607500Y-15796976D01*
X11626548Y-15806500D01*
X11636071Y-15816024D01*
X11645595Y-15835071D01*
X11645595Y-15844595D01*
X11636071Y-15863643D01*
X11626548Y-15873167D01*
X11607500Y-15882690D01*
X11569405Y-15882690D01*
X11550357Y-15892214D01*
X11540833Y-15901738D01*
X11531309Y-15920786D01*
X11531309Y-15958881D01*
X11540833Y-15977928D01*
X11550357Y-15987452D01*
X11569405Y-15996976D01*
X11607500Y-15996976D01*
X11626548Y-15987452D01*
X11636071Y-15977928D01*
X11645595Y-15958881D01*
X11645595Y-15920786D01*
X11636071Y-15901738D01*
X11626548Y-15892214D01*
X11607500Y-15882690D01*
X11769405Y-15796976D02*
X11788452Y-15796976D01*
X11807500Y-15806500D01*
X11817024Y-15816024D01*
X11826548Y-15835071D01*
X11836071Y-15873167D01*
X11836071Y-15920786D01*
X11826548Y-15958881D01*
X11817024Y-15977928D01*
X11807500Y-15987452D01*
X11788452Y-15996976D01*
X11769405Y-15996976D01*
X11750357Y-15987452D01*
X11740833Y-15977928D01*
X11731309Y-15958881D01*
X11721786Y-15920786D01*
X11721786Y-15873167D01*
X11731309Y-15835071D01*
X11740833Y-15816024D01*
X11750357Y-15806500D01*
X11769405Y-15796976D01*
X11959881Y-15796976D02*
X11978928Y-15796976D01*
X11997976Y-15806500D01*
X12007500Y-15816024D01*
X12017024Y-15835071D01*
X12026548Y-15873167D01*
X12026548Y-15920786D01*
X12017024Y-15958881D01*
X12007500Y-15977928D01*
X11997976Y-15987452D01*
X11978928Y-15996976D01*
X11959881Y-15996976D01*
X11940833Y-15987452D01*
X11931309Y-15977928D01*
X11921786Y-15958881D01*
X11912262Y-15920786D01*
X11912262Y-15873167D01*
X11921786Y-15835071D01*
X11931309Y-15816024D01*
X11940833Y-15806500D01*
X11959881Y-15796976D01*
X12112262Y-15996976D02*
X12112262Y-15863643D01*
X12112262Y-15882690D02*
X12121786Y-15873167D01*
X12140833Y-15863643D01*
X12169405Y-15863643D01*
X12188452Y-15873167D01*
X12197976Y-15892214D01*
X12197976Y-15996976D01*
X12197976Y-15892214D02*
X12207500Y-15873167D01*
X12226548Y-15863643D01*
X12255119Y-15863643D01*
X12274167Y-15873167D01*
X12283690Y-15892214D01*
X12283690Y-15996976D01*
X12378928Y-15996976D02*
X12378928Y-15863643D01*
X12378928Y-15882690D02*
X12388452Y-15873167D01*
X12407500Y-15863643D01*
X12436071Y-15863643D01*
X12455119Y-15873167D01*
X12464643Y-15892214D01*
X12464643Y-15996976D01*
X12464643Y-15892214D02*
X12474167Y-15873167D01*
X12493214Y-15863643D01*
X12521786Y-15863643D01*
X12540833Y-15873167D01*
X12550357Y-15892214D01*
X12550357Y-15996976D01*
X12940833Y-15787452D02*
X12769405Y-16044595D01*
X13197976Y-15796976D02*
X13217024Y-15796976D01*
X13236071Y-15806500D01*
X13245595Y-15816024D01*
X13255119Y-15835071D01*
X13264643Y-15873167D01*
X13264643Y-15920786D01*
X13255119Y-15958881D01*
X13245595Y-15977928D01*
X13236071Y-15987452D01*
X13217024Y-15996976D01*
X13197976Y-15996976D01*
X13178928Y-15987452D01*
X13169405Y-15977928D01*
X13159881Y-15958881D01*
X13150357Y-15920786D01*
X13150357Y-15873167D01*
X13159881Y-15835071D01*
X13169405Y-15816024D01*
X13178928Y-15806500D01*
X13197976Y-15796976D01*
X13350357Y-15977928D02*
X13359881Y-15987452D01*
X13350357Y-15996976D01*
X13340833Y-15987452D01*
X13350357Y-15977928D01*
X13350357Y-15996976D01*
X13483690Y-15796976D02*
X13502738Y-15796976D01*
X13521786Y-15806500D01*
X13531309Y-15816024D01*
X13540833Y-15835071D01*
X13550357Y-15873167D01*
X13550357Y-15920786D01*
X13540833Y-15958881D01*
X13531309Y-15977928D01*
X13521786Y-15987452D01*
X13502738Y-15996976D01*
X13483690Y-15996976D01*
X13464643Y-15987452D01*
X13455119Y-15977928D01*
X13445595Y-15958881D01*
X13436071Y-15920786D01*
X13436071Y-15873167D01*
X13445595Y-15835071D01*
X13455119Y-15816024D01*
X13464643Y-15806500D01*
X13483690Y-15796976D01*
X13617024Y-15796976D02*
X13740833Y-15796976D01*
X13674167Y-15873167D01*
X13702738Y-15873167D01*
X13721786Y-15882690D01*
X13731309Y-15892214D01*
X13740833Y-15911262D01*
X13740833Y-15958881D01*
X13731309Y-15977928D01*
X13721786Y-15987452D01*
X13702738Y-15996976D01*
X13645595Y-15996976D01*
X13626548Y-15987452D01*
X13617024Y-15977928D01*
X13931309Y-15996976D02*
X13817024Y-15996976D01*
X13874167Y-15996976D02*
X13874167Y-15796976D01*
X13855119Y-15825548D01*
X13836071Y-15844595D01*
X13817024Y-15854119D01*
X14112262Y-15796976D02*
X14017024Y-15796976D01*
X14007500Y-15892214D01*
X14017024Y-15882690D01*
X14036071Y-15873167D01*
X14083690Y-15873167D01*
X14102738Y-15882690D01*
X14112262Y-15892214D01*
X14121786Y-15911262D01*
X14121786Y-15958881D01*
X14112262Y-15977928D01*
X14102738Y-15987452D01*
X14083690Y-15996976D01*
X14036071Y-15996976D01*
X14017024Y-15987452D01*
X14007500Y-15977928D01*
X14197976Y-15796976D02*
X14197976Y-15835071D01*
X14274167Y-15796976D02*
X14274167Y-15835071D01*
X14569405Y-16073167D02*
X14559881Y-16063643D01*
X14540833Y-16035071D01*
X14531309Y-16016024D01*
X14521786Y-15987452D01*
X14512262Y-15939833D01*
X14512262Y-15901738D01*
X14521786Y-15854119D01*
X14531309Y-15825548D01*
X14540833Y-15806500D01*
X14559881Y-15777928D01*
X14569405Y-15768405D01*
X14750357Y-15996976D02*
X14636071Y-15996976D01*
X14693214Y-15996976D02*
X14693214Y-15796976D01*
X14674167Y-15825548D01*
X14655119Y-15844595D01*
X14636071Y-15854119D01*
X14931309Y-15796976D02*
X14836071Y-15796976D01*
X14826548Y-15892214D01*
X14836071Y-15882690D01*
X14855119Y-15873167D01*
X14902738Y-15873167D01*
X14921786Y-15882690D01*
X14931309Y-15892214D01*
X14940833Y-15911262D01*
X14940833Y-15958881D01*
X14931309Y-15977928D01*
X14921786Y-15987452D01*
X14902738Y-15996976D01*
X14855119Y-15996976D01*
X14836071Y-15987452D01*
X14826548Y-15977928D01*
X15007500Y-15796976D02*
X15131309Y-15796976D01*
X15064643Y-15873167D01*
X15093214Y-15873167D01*
X15112262Y-15882690D01*
X15121786Y-15892214D01*
X15131309Y-15911262D01*
X15131309Y-15958881D01*
X15121786Y-15977928D01*
X15112262Y-15987452D01*
X15093214Y-15996976D01*
X15036071Y-15996976D01*
X15017024Y-15987452D01*
X15007500Y-15977928D01*
X15369405Y-15996976D02*
X15369405Y-15796976D01*
X15455119Y-15996976D02*
X15455119Y-15892214D01*
X15445595Y-15873167D01*
X15426548Y-15863643D01*
X15397976Y-15863643D01*
X15378928Y-15873167D01*
X15369405Y-15882690D01*
X15578928Y-15996976D02*
X15559881Y-15987452D01*
X15550357Y-15977928D01*
X15540833Y-15958881D01*
X15540833Y-15901738D01*
X15550357Y-15882690D01*
X15559881Y-15873167D01*
X15578928Y-15863643D01*
X15607500Y-15863643D01*
X15626548Y-15873167D01*
X15636071Y-15882690D01*
X15645595Y-15901738D01*
X15645595Y-15958881D01*
X15636071Y-15977928D01*
X15626548Y-15987452D01*
X15607500Y-15996976D01*
X15578928Y-15996976D01*
X15759881Y-15996976D02*
X15740833Y-15987452D01*
X15731309Y-15968405D01*
X15731309Y-15796976D01*
X15912262Y-15987452D02*
X15893214Y-15996976D01*
X15855119Y-15996976D01*
X15836071Y-15987452D01*
X15826548Y-15968405D01*
X15826548Y-15892214D01*
X15836071Y-15873167D01*
X15855119Y-15863643D01*
X15893214Y-15863643D01*
X15912262Y-15873167D01*
X15921786Y-15892214D01*
X15921786Y-15911262D01*
X15826548Y-15930309D01*
X15997976Y-15987452D02*
X16017024Y-15996976D01*
X16055119Y-15996976D01*
X16074167Y-15987452D01*
X16083690Y-15968405D01*
X16083690Y-15958881D01*
X16074167Y-15939833D01*
X16055119Y-15930309D01*
X16026548Y-15930309D01*
X16007500Y-15920786D01*
X15997976Y-15901738D01*
X15997976Y-15892214D01*
X16007500Y-15873167D01*
X16026548Y-15863643D01*
X16055119Y-15863643D01*
X16074167Y-15873167D01*
X16150357Y-16073167D02*
X16159881Y-16063643D01*
X16178928Y-16035071D01*
X16188452Y-16016024D01*
X16197976Y-15987452D01*
X16207500Y-15939833D01*
X16207500Y-15901738D01*
X16197976Y-15854119D01*
X16188452Y-15825548D01*
X16178928Y-15806500D01*
X16159881Y-15777928D01*
X16150357Y-15768405D01*
D14*
X10947500Y-16120500D02*
X10947500Y-16220500D01*
X10897500Y-16170500D02*
X10997500Y-16170500D01*
D11*
X11359881Y-16260976D02*
X11245595Y-16260976D01*
X11302738Y-16260976D02*
X11302738Y-16060976D01*
X11283690Y-16089548D01*
X11264643Y-16108595D01*
X11245595Y-16118119D01*
X11445595Y-16241928D02*
X11455119Y-16251452D01*
X11445595Y-16260976D01*
X11436071Y-16251452D01*
X11445595Y-16241928D01*
X11445595Y-16260976D01*
X11578928Y-16060976D02*
X11597976Y-16060976D01*
X11617024Y-16070500D01*
X11626548Y-16080024D01*
X11636071Y-16099071D01*
X11645595Y-16137167D01*
X11645595Y-16184786D01*
X11636071Y-16222881D01*
X11626548Y-16241928D01*
X11617024Y-16251452D01*
X11597976Y-16260976D01*
X11578928Y-16260976D01*
X11559881Y-16251452D01*
X11550357Y-16241928D01*
X11540833Y-16222881D01*
X11531309Y-16184786D01*
X11531309Y-16137167D01*
X11540833Y-16099071D01*
X11550357Y-16080024D01*
X11559881Y-16070500D01*
X11578928Y-16060976D01*
X11769405Y-16060976D02*
X11788452Y-16060976D01*
X11807500Y-16070500D01*
X11817024Y-16080024D01*
X11826548Y-16099071D01*
X11836071Y-16137167D01*
X11836071Y-16184786D01*
X11826548Y-16222881D01*
X11817024Y-16241928D01*
X11807500Y-16251452D01*
X11788452Y-16260976D01*
X11769405Y-16260976D01*
X11750357Y-16251452D01*
X11740833Y-16241928D01*
X11731309Y-16222881D01*
X11721786Y-16184786D01*
X11721786Y-16137167D01*
X11731309Y-16099071D01*
X11740833Y-16080024D01*
X11750357Y-16070500D01*
X11769405Y-16060976D01*
X11959881Y-16060976D02*
X11978928Y-16060976D01*
X11997976Y-16070500D01*
X12007500Y-16080024D01*
X12017024Y-16099071D01*
X12026548Y-16137167D01*
X12026548Y-16184786D01*
X12017024Y-16222881D01*
X12007500Y-16241928D01*
X11997976Y-16251452D01*
X11978928Y-16260976D01*
X11959881Y-16260976D01*
X11940833Y-16251452D01*
X11931309Y-16241928D01*
X11921786Y-16222881D01*
X11912262Y-16184786D01*
X11912262Y-16137167D01*
X11921786Y-16099071D01*
X11931309Y-16080024D01*
X11940833Y-16070500D01*
X11959881Y-16060976D01*
X12112262Y-16260976D02*
X12112262Y-16127643D01*
X12112262Y-16146690D02*
X12121786Y-16137167D01*
X12140833Y-16127643D01*
X12169405Y-16127643D01*
X12188452Y-16137167D01*
X12197976Y-16156214D01*
X12197976Y-16260976D01*
X12197976Y-16156214D02*
X12207500Y-16137167D01*
X12226548Y-16127643D01*
X12255119Y-16127643D01*
X12274167Y-16137167D01*
X12283690Y-16156214D01*
X12283690Y-16260976D01*
X12378928Y-16260976D02*
X12378928Y-16127643D01*
X12378928Y-16146690D02*
X12388452Y-16137167D01*
X12407500Y-16127643D01*
X12436071Y-16127643D01*
X12455119Y-16137167D01*
X12464643Y-16156214D01*
X12464643Y-16260976D01*
X12464643Y-16156214D02*
X12474167Y-16137167D01*
X12493214Y-16127643D01*
X12521786Y-16127643D01*
X12540833Y-16137167D01*
X12550357Y-16156214D01*
X12550357Y-16260976D01*
X12940833Y-16051452D02*
X12769405Y-16308595D01*
X13197976Y-16060976D02*
X13217024Y-16060976D01*
X13236071Y-16070500D01*
X13245595Y-16080024D01*
X13255119Y-16099071D01*
X13264643Y-16137167D01*
X13264643Y-16184786D01*
X13255119Y-16222881D01*
X13245595Y-16241928D01*
X13236071Y-16251452D01*
X13217024Y-16260976D01*
X13197976Y-16260976D01*
X13178928Y-16251452D01*
X13169405Y-16241928D01*
X13159881Y-16222881D01*
X13150357Y-16184786D01*
X13150357Y-16137167D01*
X13159881Y-16099071D01*
X13169405Y-16080024D01*
X13178928Y-16070500D01*
X13197976Y-16060976D01*
X13350357Y-16241928D02*
X13359881Y-16251452D01*
X13350357Y-16260976D01*
X13340833Y-16251452D01*
X13350357Y-16241928D01*
X13350357Y-16260976D01*
X13483690Y-16060976D02*
X13502738Y-16060976D01*
X13521786Y-16070500D01*
X13531309Y-16080024D01*
X13540833Y-16099071D01*
X13550357Y-16137167D01*
X13550357Y-16184786D01*
X13540833Y-16222881D01*
X13531309Y-16241928D01*
X13521786Y-16251452D01*
X13502738Y-16260976D01*
X13483690Y-16260976D01*
X13464643Y-16251452D01*
X13455119Y-16241928D01*
X13445595Y-16222881D01*
X13436071Y-16184786D01*
X13436071Y-16137167D01*
X13445595Y-16099071D01*
X13455119Y-16080024D01*
X13464643Y-16070500D01*
X13483690Y-16060976D01*
X13617024Y-16060976D02*
X13740833Y-16060976D01*
X13674167Y-16137167D01*
X13702738Y-16137167D01*
X13721786Y-16146690D01*
X13731309Y-16156214D01*
X13740833Y-16175262D01*
X13740833Y-16222881D01*
X13731309Y-16241928D01*
X13721786Y-16251452D01*
X13702738Y-16260976D01*
X13645595Y-16260976D01*
X13626548Y-16251452D01*
X13617024Y-16241928D01*
X13836071Y-16260976D02*
X13874167Y-16260976D01*
X13893214Y-16251452D01*
X13902738Y-16241928D01*
X13921786Y-16213357D01*
X13931309Y-16175262D01*
X13931309Y-16099071D01*
X13921786Y-16080024D01*
X13912262Y-16070500D01*
X13893214Y-16060976D01*
X13855119Y-16060976D01*
X13836071Y-16070500D01*
X13826548Y-16080024D01*
X13817024Y-16099071D01*
X13817024Y-16146690D01*
X13826548Y-16165738D01*
X13836071Y-16175262D01*
X13855119Y-16184786D01*
X13893214Y-16184786D01*
X13912262Y-16175262D01*
X13921786Y-16165738D01*
X13931309Y-16146690D01*
X14102738Y-16127643D02*
X14102738Y-16260976D01*
X14055119Y-16051452D02*
X14007500Y-16194309D01*
X14131309Y-16194309D01*
X14197976Y-16060976D02*
X14197976Y-16099071D01*
X14274167Y-16060976D02*
X14274167Y-16099071D01*
X14569405Y-16337167D02*
X14559881Y-16327643D01*
X14540833Y-16299071D01*
X14531309Y-16280024D01*
X14521786Y-16251452D01*
X14512262Y-16203833D01*
X14512262Y-16165738D01*
X14521786Y-16118119D01*
X14531309Y-16089548D01*
X14540833Y-16070500D01*
X14559881Y-16041928D01*
X14569405Y-16032405D01*
X14636071Y-16080024D02*
X14645595Y-16070500D01*
X14664643Y-16060976D01*
X14712262Y-16060976D01*
X14731309Y-16070500D01*
X14740833Y-16080024D01*
X14750357Y-16099071D01*
X14750357Y-16118119D01*
X14740833Y-16146690D01*
X14626548Y-16260976D01*
X14750357Y-16260976D01*
X14845595Y-16260976D02*
X14883690Y-16260976D01*
X14902738Y-16251452D01*
X14912262Y-16241928D01*
X14931309Y-16213357D01*
X14940833Y-16175262D01*
X14940833Y-16099071D01*
X14931309Y-16080024D01*
X14921786Y-16070500D01*
X14902738Y-16060976D01*
X14864643Y-16060976D01*
X14845595Y-16070500D01*
X14836071Y-16080024D01*
X14826548Y-16099071D01*
X14826548Y-16146690D01*
X14836071Y-16165738D01*
X14845595Y-16175262D01*
X14864643Y-16184786D01*
X14902738Y-16184786D01*
X14921786Y-16175262D01*
X14931309Y-16165738D01*
X14940833Y-16146690D01*
X15178928Y-16260976D02*
X15178928Y-16060976D01*
X15264643Y-16260976D02*
X15264643Y-16156214D01*
X15255119Y-16137167D01*
X15236071Y-16127643D01*
X15207500Y-16127643D01*
X15188452Y-16137167D01*
X15178928Y-16146690D01*
X15388452Y-16260976D02*
X15369405Y-16251452D01*
X15359881Y-16241928D01*
X15350357Y-16222881D01*
X15350357Y-16165738D01*
X15359881Y-16146690D01*
X15369405Y-16137167D01*
X15388452Y-16127643D01*
X15417024Y-16127643D01*
X15436071Y-16137167D01*
X15445595Y-16146690D01*
X15455119Y-16165738D01*
X15455119Y-16222881D01*
X15445595Y-16241928D01*
X15436071Y-16251452D01*
X15417024Y-16260976D01*
X15388452Y-16260976D01*
X15569405Y-16260976D02*
X15550357Y-16251452D01*
X15540833Y-16232405D01*
X15540833Y-16060976D01*
X15721786Y-16251452D02*
X15702738Y-16260976D01*
X15664643Y-16260976D01*
X15645595Y-16251452D01*
X15636071Y-16232405D01*
X15636071Y-16156214D01*
X15645595Y-16137167D01*
X15664643Y-16127643D01*
X15702738Y-16127643D01*
X15721786Y-16137167D01*
X15731309Y-16156214D01*
X15731309Y-16175262D01*
X15636071Y-16194309D01*
X15807500Y-16251452D02*
X15826548Y-16260976D01*
X15864643Y-16260976D01*
X15883690Y-16251452D01*
X15893214Y-16232405D01*
X15893214Y-16222881D01*
X15883690Y-16203833D01*
X15864643Y-16194309D01*
X15836071Y-16194309D01*
X15817024Y-16184786D01*
X15807500Y-16165738D01*
X15807500Y-16156214D01*
X15817024Y-16137167D01*
X15836071Y-16127643D01*
X15864643Y-16127643D01*
X15883690Y-16137167D01*
X15959881Y-16337167D02*
X15969405Y-16327643D01*
X15988452Y-16299071D01*
X15997976Y-16280024D01*
X16007500Y-16251452D01*
X16017024Y-16203833D01*
X16017024Y-16165738D01*
X16007500Y-16118119D01*
X15997976Y-16089548D01*
X15988452Y-16070500D01*
X15969405Y-16041928D01*
X15959881Y-16032405D01*
X10968211Y-16505211D02*
X10968211Y-16363789D01*
X10826789Y-16363789D01*
X10826789Y-16505211D01*
X10968211Y-16505211D01*
X11236071Y-16324976D02*
X11359881Y-16324976D01*
X11293214Y-16401167D01*
X11321786Y-16401167D01*
X11340833Y-16410690D01*
X11350357Y-16420214D01*
X11359881Y-16439262D01*
X11359881Y-16486881D01*
X11350357Y-16505928D01*
X11340833Y-16515452D01*
X11321786Y-16524976D01*
X11264643Y-16524976D01*
X11245595Y-16515452D01*
X11236071Y-16505928D01*
X11445595Y-16505928D02*
X11455119Y-16515452D01*
X11445595Y-16524976D01*
X11436071Y-16515452D01*
X11445595Y-16505928D01*
X11445595Y-16524976D01*
X11578928Y-16324976D02*
X11597976Y-16324976D01*
X11617024Y-16334500D01*
X11626548Y-16344024D01*
X11636071Y-16363071D01*
X11645595Y-16401167D01*
X11645595Y-16448786D01*
X11636071Y-16486881D01*
X11626548Y-16505928D01*
X11617024Y-16515452D01*
X11597976Y-16524976D01*
X11578928Y-16524976D01*
X11559881Y-16515452D01*
X11550357Y-16505928D01*
X11540833Y-16486881D01*
X11531309Y-16448786D01*
X11531309Y-16401167D01*
X11540833Y-16363071D01*
X11550357Y-16344024D01*
X11559881Y-16334500D01*
X11578928Y-16324976D01*
X11769405Y-16324976D02*
X11788452Y-16324976D01*
X11807500Y-16334500D01*
X11817024Y-16344024D01*
X11826548Y-16363071D01*
X11836071Y-16401167D01*
X11836071Y-16448786D01*
X11826548Y-16486881D01*
X11817024Y-16505928D01*
X11807500Y-16515452D01*
X11788452Y-16524976D01*
X11769405Y-16524976D01*
X11750357Y-16515452D01*
X11740833Y-16505928D01*
X11731309Y-16486881D01*
X11721786Y-16448786D01*
X11721786Y-16401167D01*
X11731309Y-16363071D01*
X11740833Y-16344024D01*
X11750357Y-16334500D01*
X11769405Y-16324976D01*
X11959881Y-16324976D02*
X11978928Y-16324976D01*
X11997976Y-16334500D01*
X12007500Y-16344024D01*
X12017024Y-16363071D01*
X12026548Y-16401167D01*
X12026548Y-16448786D01*
X12017024Y-16486881D01*
X12007500Y-16505928D01*
X11997976Y-16515452D01*
X11978928Y-16524976D01*
X11959881Y-16524976D01*
X11940833Y-16515452D01*
X11931309Y-16505928D01*
X11921786Y-16486881D01*
X11912262Y-16448786D01*
X11912262Y-16401167D01*
X11921786Y-16363071D01*
X11931309Y-16344024D01*
X11940833Y-16334500D01*
X11959881Y-16324976D01*
X12112262Y-16524976D02*
X12112262Y-16391643D01*
X12112262Y-16410690D02*
X12121786Y-16401167D01*
X12140833Y-16391643D01*
X12169405Y-16391643D01*
X12188452Y-16401167D01*
X12197976Y-16420214D01*
X12197976Y-16524976D01*
X12197976Y-16420214D02*
X12207500Y-16401167D01*
X12226548Y-16391643D01*
X12255119Y-16391643D01*
X12274167Y-16401167D01*
X12283690Y-16420214D01*
X12283690Y-16524976D01*
X12378928Y-16524976D02*
X12378928Y-16391643D01*
X12378928Y-16410690D02*
X12388452Y-16401167D01*
X12407500Y-16391643D01*
X12436071Y-16391643D01*
X12455119Y-16401167D01*
X12464643Y-16420214D01*
X12464643Y-16524976D01*
X12464643Y-16420214D02*
X12474167Y-16401167D01*
X12493214Y-16391643D01*
X12521786Y-16391643D01*
X12540833Y-16401167D01*
X12550357Y-16420214D01*
X12550357Y-16524976D01*
X12940833Y-16315452D02*
X12769405Y-16572595D01*
X13197976Y-16324976D02*
X13217024Y-16324976D01*
X13236071Y-16334500D01*
X13245595Y-16344024D01*
X13255119Y-16363071D01*
X13264643Y-16401167D01*
X13264643Y-16448786D01*
X13255119Y-16486881D01*
X13245595Y-16505928D01*
X13236071Y-16515452D01*
X13217024Y-16524976D01*
X13197976Y-16524976D01*
X13178928Y-16515452D01*
X13169405Y-16505928D01*
X13159881Y-16486881D01*
X13150357Y-16448786D01*
X13150357Y-16401167D01*
X13159881Y-16363071D01*
X13169405Y-16344024D01*
X13178928Y-16334500D01*
X13197976Y-16324976D01*
X13350357Y-16505928D02*
X13359881Y-16515452D01*
X13350357Y-16524976D01*
X13340833Y-16515452D01*
X13350357Y-16505928D01*
X13350357Y-16524976D01*
X13550357Y-16524976D02*
X13436071Y-16524976D01*
X13493214Y-16524976D02*
X13493214Y-16324976D01*
X13474167Y-16353548D01*
X13455119Y-16372595D01*
X13436071Y-16382119D01*
X13740833Y-16524976D02*
X13626548Y-16524976D01*
X13683690Y-16524976D02*
X13683690Y-16324976D01*
X13664643Y-16353548D01*
X13645595Y-16372595D01*
X13626548Y-16382119D01*
X13855119Y-16410690D02*
X13836071Y-16401167D01*
X13826548Y-16391643D01*
X13817024Y-16372595D01*
X13817024Y-16363071D01*
X13826548Y-16344024D01*
X13836071Y-16334500D01*
X13855119Y-16324976D01*
X13893214Y-16324976D01*
X13912262Y-16334500D01*
X13921786Y-16344024D01*
X13931309Y-16363071D01*
X13931309Y-16372595D01*
X13921786Y-16391643D01*
X13912262Y-16401167D01*
X13893214Y-16410690D01*
X13855119Y-16410690D01*
X13836071Y-16420214D01*
X13826548Y-16429738D01*
X13817024Y-16448786D01*
X13817024Y-16486881D01*
X13826548Y-16505928D01*
X13836071Y-16515452D01*
X13855119Y-16524976D01*
X13893214Y-16524976D01*
X13912262Y-16515452D01*
X13921786Y-16505928D01*
X13931309Y-16486881D01*
X13931309Y-16448786D01*
X13921786Y-16429738D01*
X13912262Y-16420214D01*
X13893214Y-16410690D01*
X14121786Y-16524976D02*
X14007500Y-16524976D01*
X14064643Y-16524976D02*
X14064643Y-16324976D01*
X14045595Y-16353548D01*
X14026548Y-16372595D01*
X14007500Y-16382119D01*
X14197976Y-16324976D02*
X14197976Y-16363071D01*
X14274167Y-16324976D02*
X14274167Y-16363071D01*
X14569405Y-16601167D02*
X14559881Y-16591643D01*
X14540833Y-16563071D01*
X14531309Y-16544024D01*
X14521786Y-16515452D01*
X14512262Y-16467833D01*
X14512262Y-16429738D01*
X14521786Y-16382119D01*
X14531309Y-16353548D01*
X14540833Y-16334500D01*
X14559881Y-16305928D01*
X14569405Y-16296405D01*
X14731309Y-16391643D02*
X14731309Y-16524976D01*
X14683690Y-16315452D02*
X14636071Y-16458309D01*
X14759881Y-16458309D01*
X14988452Y-16524976D02*
X14988452Y-16324976D01*
X15074167Y-16524976D02*
X15074167Y-16420214D01*
X15064643Y-16401167D01*
X15045595Y-16391643D01*
X15017024Y-16391643D01*
X14997976Y-16401167D01*
X14988452Y-16410690D01*
X15197976Y-16524976D02*
X15178928Y-16515452D01*
X15169405Y-16505928D01*
X15159881Y-16486881D01*
X15159881Y-16429738D01*
X15169405Y-16410690D01*
X15178928Y-16401167D01*
X15197976Y-16391643D01*
X15226548Y-16391643D01*
X15245595Y-16401167D01*
X15255119Y-16410690D01*
X15264643Y-16429738D01*
X15264643Y-16486881D01*
X15255119Y-16505928D01*
X15245595Y-16515452D01*
X15226548Y-16524976D01*
X15197976Y-16524976D01*
X15378928Y-16524976D02*
X15359881Y-16515452D01*
X15350357Y-16496405D01*
X15350357Y-16324976D01*
X15531309Y-16515452D02*
X15512262Y-16524976D01*
X15474167Y-16524976D01*
X15455119Y-16515452D01*
X15445595Y-16496405D01*
X15445595Y-16420214D01*
X15455119Y-16401167D01*
X15474167Y-16391643D01*
X15512262Y-16391643D01*
X15531309Y-16401167D01*
X15540833Y-16420214D01*
X15540833Y-16439262D01*
X15445595Y-16458309D01*
X15617024Y-16515452D02*
X15636071Y-16524976D01*
X15674167Y-16524976D01*
X15693214Y-16515452D01*
X15702738Y-16496405D01*
X15702738Y-16486881D01*
X15693214Y-16467833D01*
X15674167Y-16458309D01*
X15645595Y-16458309D01*
X15626548Y-16448786D01*
X15617024Y-16429738D01*
X15617024Y-16420214D01*
X15626548Y-16401167D01*
X15645595Y-16391643D01*
X15674167Y-16391643D01*
X15693214Y-16401167D01*
X15769405Y-16601167D02*
X15778928Y-16591643D01*
X15797976Y-16563071D01*
X15807500Y-16544024D01*
X15817024Y-16515452D01*
X15826548Y-16467833D01*
X15826548Y-16429738D01*
X15817024Y-16382119D01*
X15807500Y-16353548D01*
X15797976Y-16334500D01*
X15778928Y-16305928D01*
X15769405Y-16296405D01*
M02*
