G04 #@! TF.GenerationSoftware,KiCad,Pcbnew,7.0.6-0*
G04 #@! TF.CreationDate,2023-08-18T21:45:24+02:00*
G04 #@! TF.ProjectId,shmoergh-funk-live-voice,73686d6f-6572-4676-982d-66756e6b2d6c,rev?*
G04 #@! TF.SameCoordinates,Original*
G04 #@! TF.FileFunction,Copper,L2,Bot*
G04 #@! TF.FilePolarity,Positive*
%FSLAX46Y46*%
G04 Gerber Fmt 4.6, Leading zero omitted, Abs format (unit mm)*
G04 Created by KiCad (PCBNEW 7.0.6-0) date 2023-08-18 21:45:24*
%MOMM*%
%LPD*%
G01*
G04 APERTURE LIST*
G04 #@! TA.AperFunction,ComponentPad*
%ADD10C,1.400000*%
G04 #@! TD*
G04 #@! TA.AperFunction,ComponentPad*
%ADD11C,1.620000*%
G04 #@! TD*
G04 #@! TA.AperFunction,ComponentPad*
%ADD12R,1.500000X1.500000*%
G04 #@! TD*
G04 #@! TA.AperFunction,ComponentPad*
%ADD13C,1.500000*%
G04 #@! TD*
G04 #@! TA.AperFunction,ComponentPad*
%ADD14C,1.600000*%
G04 #@! TD*
G04 #@! TA.AperFunction,ComponentPad*
%ADD15R,2.400000X1.600000*%
G04 #@! TD*
G04 #@! TA.AperFunction,ComponentPad*
%ADD16O,2.400000X1.600000*%
G04 #@! TD*
G04 #@! TA.AperFunction,ComponentPad*
%ADD17R,1.700000X1.700000*%
G04 #@! TD*
G04 #@! TA.AperFunction,ComponentPad*
%ADD18O,1.700000X1.700000*%
G04 #@! TD*
G04 #@! TA.AperFunction,ViaPad*
%ADD19C,0.800000*%
G04 #@! TD*
G04 #@! TA.AperFunction,Conductor*
%ADD20C,0.254000*%
G04 #@! TD*
G04 #@! TA.AperFunction,Conductor*
%ADD21C,0.508000*%
G04 #@! TD*
G04 APERTURE END LIST*
D10*
X157607000Y-82997000D03*
X154559000Y-107127000D03*
X150622000Y-107127000D03*
X135128000Y-107889000D03*
X138176000Y-107889000D03*
D11*
X146899000Y-107548000D03*
X144399000Y-110048000D03*
X141899000Y-107548000D03*
D12*
X132011000Y-94036000D03*
D13*
X132011000Y-96576000D03*
X132011000Y-99116000D03*
D14*
X135402000Y-104587000D03*
X137902000Y-104587000D03*
X137414000Y-87442000D03*
X132414000Y-87442000D03*
D15*
X140843000Y-88966000D03*
D16*
X140843000Y-91506000D03*
X140843000Y-94046000D03*
X140843000Y-96586000D03*
X140843000Y-99126000D03*
X140843000Y-101666000D03*
X140843000Y-104206000D03*
X148463000Y-104206000D03*
X148463000Y-101666000D03*
X148463000Y-99126000D03*
X148463000Y-96586000D03*
X148463000Y-94046000D03*
X148463000Y-91506000D03*
X148463000Y-88966000D03*
D17*
X126873000Y-102616000D03*
D18*
X126873000Y-105156000D03*
X126873000Y-107696000D03*
X126873000Y-110236000D03*
X126873000Y-112776000D03*
X126873000Y-115316000D03*
D17*
X126873000Y-92904036D03*
D18*
X126873000Y-95444036D03*
X126873000Y-97984036D03*
D19*
X151130000Y-85410000D03*
X136276000Y-97983000D03*
X132207663Y-105583159D03*
X152908000Y-95443000D03*
X129540000Y-105603000D03*
X129540000Y-85501500D03*
X129540000Y-83759000D03*
X151003000Y-113604000D03*
X151003000Y-110937000D03*
X157670500Y-89029500D03*
X153959500Y-88966000D03*
X153959500Y-91506000D03*
X156845000Y-91506000D03*
X147193000Y-84993500D03*
X147066000Y-82997000D03*
X130683000Y-100523000D03*
X135346500Y-101412000D03*
X143129000Y-86172000D03*
X145288000Y-84140000D03*
X155829000Y-90363000D03*
X153959500Y-90363000D03*
D20*
X135128000Y-107889000D02*
X135128000Y-104861000D01*
X135128000Y-104861000D02*
X135402000Y-104587000D01*
D21*
X129540000Y-105603000D02*
X129540000Y-103698000D01*
X128458000Y-102616000D02*
X126873000Y-102616000D01*
X129540000Y-103698000D02*
X128458000Y-102616000D01*
X129540000Y-83759000D02*
X129540000Y-85501500D01*
X151003000Y-113604000D02*
X151003000Y-110937000D01*
X157670500Y-89029500D02*
X157607000Y-88966000D01*
X157607000Y-88966000D02*
X153959500Y-88966000D01*
X156845000Y-91506000D02*
X153959500Y-91506000D01*
X147066000Y-84866500D02*
X147066000Y-82997000D01*
X147193000Y-84993500D02*
X147066000Y-84866500D01*
X130683000Y-100523000D02*
X134457500Y-100523000D01*
X134457500Y-100523000D02*
X135346500Y-101412000D01*
X143129000Y-86172000D02*
X143256000Y-86172000D01*
X143256000Y-86172000D02*
X145288000Y-84140000D01*
X155829000Y-90363000D02*
X153959500Y-90363000D01*
G04 #@! TA.AperFunction,Conductor*
G36*
X159942539Y-81020185D02*
G01*
X159988294Y-81072989D01*
X159999500Y-81124500D01*
X159999500Y-117375500D01*
X159979815Y-117442539D01*
X159927011Y-117488294D01*
X159875500Y-117499500D01*
X125124500Y-117499500D01*
X125057461Y-117479815D01*
X125011706Y-117427011D01*
X125000500Y-117375500D01*
X125000500Y-115316000D01*
X125517341Y-115316000D01*
X125537936Y-115551403D01*
X125537938Y-115551413D01*
X125599094Y-115779655D01*
X125599096Y-115779659D01*
X125599097Y-115779663D01*
X125698964Y-115993829D01*
X125698965Y-115993830D01*
X125698967Y-115993834D01*
X125807281Y-116148521D01*
X125834505Y-116187401D01*
X126001599Y-116354495D01*
X126098384Y-116422264D01*
X126195165Y-116490032D01*
X126195167Y-116490033D01*
X126195170Y-116490035D01*
X126409337Y-116589903D01*
X126637592Y-116651063D01*
X126825918Y-116667539D01*
X126872999Y-116671659D01*
X126873000Y-116671659D01*
X126873001Y-116671659D01*
X126912234Y-116668226D01*
X127108408Y-116651063D01*
X127336663Y-116589903D01*
X127550830Y-116490035D01*
X127744401Y-116354495D01*
X127911495Y-116187401D01*
X128047035Y-115993830D01*
X128146903Y-115779663D01*
X128208063Y-115551408D01*
X128228659Y-115316000D01*
X128208063Y-115080592D01*
X128146903Y-114852337D01*
X128047035Y-114638171D01*
X127925880Y-114465142D01*
X127911494Y-114444597D01*
X127744402Y-114277506D01*
X127744401Y-114277505D01*
X127558842Y-114147575D01*
X127558841Y-114147574D01*
X127515216Y-114092997D01*
X127508024Y-114023498D01*
X127539546Y-113961144D01*
X127558836Y-113944428D01*
X127744401Y-113814495D01*
X127911495Y-113647401D01*
X127941885Y-113604000D01*
X150097540Y-113604000D01*
X150117326Y-113792256D01*
X150117327Y-113792259D01*
X150175818Y-113972277D01*
X150175821Y-113972284D01*
X150270467Y-114136216D01*
X150280695Y-114147575D01*
X150397129Y-114276888D01*
X150550265Y-114388148D01*
X150550270Y-114388151D01*
X150723192Y-114465142D01*
X150723197Y-114465144D01*
X150908354Y-114504500D01*
X150908355Y-114504500D01*
X151097644Y-114504500D01*
X151097646Y-114504500D01*
X151282803Y-114465144D01*
X151455730Y-114388151D01*
X151608871Y-114276888D01*
X151735533Y-114136216D01*
X151830179Y-113972284D01*
X151888674Y-113792256D01*
X151908460Y-113604000D01*
X151888674Y-113415744D01*
X151830179Y-113235716D01*
X151774111Y-113138604D01*
X151757500Y-113076606D01*
X151757500Y-111464392D01*
X151774113Y-111402392D01*
X151796564Y-111363506D01*
X151830179Y-111305284D01*
X151888674Y-111125256D01*
X151908460Y-110937000D01*
X151888674Y-110748744D01*
X151830179Y-110568716D01*
X151735533Y-110404784D01*
X151608871Y-110264112D01*
X151608870Y-110264111D01*
X151455734Y-110152851D01*
X151455729Y-110152848D01*
X151282807Y-110075857D01*
X151282802Y-110075855D01*
X151137000Y-110044865D01*
X151097646Y-110036500D01*
X150908354Y-110036500D01*
X150875897Y-110043398D01*
X150723197Y-110075855D01*
X150723192Y-110075857D01*
X150550270Y-110152848D01*
X150550265Y-110152851D01*
X150397129Y-110264111D01*
X150270466Y-110404785D01*
X150175821Y-110568715D01*
X150175818Y-110568722D01*
X150117327Y-110748740D01*
X150117326Y-110748744D01*
X150097540Y-110937000D01*
X150117326Y-111125256D01*
X150117327Y-111125259D01*
X150175818Y-111305277D01*
X150175821Y-111305284D01*
X150231887Y-111402392D01*
X150248500Y-111464392D01*
X150248500Y-113076606D01*
X150231888Y-113138605D01*
X150175820Y-113235718D01*
X150175818Y-113235722D01*
X150117327Y-113415740D01*
X150117326Y-113415744D01*
X150097540Y-113604000D01*
X127941885Y-113604000D01*
X128047035Y-113453830D01*
X128146903Y-113239663D01*
X128208063Y-113011408D01*
X128228659Y-112776000D01*
X128208063Y-112540592D01*
X128146903Y-112312337D01*
X128047035Y-112098171D01*
X127911495Y-111904599D01*
X127911494Y-111904597D01*
X127744402Y-111737506D01*
X127744396Y-111737501D01*
X127558842Y-111607575D01*
X127515217Y-111552998D01*
X127508023Y-111483500D01*
X127539546Y-111421145D01*
X127558842Y-111404425D01*
X127617280Y-111363506D01*
X127744401Y-111274495D01*
X127911495Y-111107401D01*
X128047035Y-110913830D01*
X128146903Y-110699663D01*
X128208063Y-110471408D01*
X128228659Y-110236000D01*
X128212211Y-110048002D01*
X143083494Y-110048002D01*
X143103478Y-110276429D01*
X143103479Y-110276436D01*
X143162827Y-110497925D01*
X143162828Y-110497927D01*
X143162829Y-110497930D01*
X143259738Y-110705753D01*
X143391264Y-110893591D01*
X143553409Y-111055736D01*
X143741247Y-111187262D01*
X143949070Y-111284171D01*
X144170565Y-111343521D01*
X144333732Y-111357796D01*
X144398998Y-111363506D01*
X144399000Y-111363506D01*
X144399002Y-111363506D01*
X144456108Y-111358509D01*
X144627435Y-111343521D01*
X144848930Y-111284171D01*
X145056753Y-111187262D01*
X145244591Y-111055736D01*
X145406736Y-110893591D01*
X145538262Y-110705753D01*
X145635171Y-110497930D01*
X145694521Y-110276435D01*
X145714506Y-110048000D01*
X145710358Y-110000592D01*
X145694521Y-109819570D01*
X145694521Y-109819565D01*
X145635171Y-109598070D01*
X145538262Y-109390247D01*
X145406736Y-109202409D01*
X145244591Y-109040264D01*
X145056753Y-108908738D01*
X144848930Y-108811829D01*
X144848927Y-108811828D01*
X144848925Y-108811827D01*
X144627436Y-108752479D01*
X144627429Y-108752478D01*
X144399002Y-108732494D01*
X144398998Y-108732494D01*
X144170570Y-108752478D01*
X144170563Y-108752479D01*
X143949074Y-108811827D01*
X143949070Y-108811829D01*
X143741247Y-108908738D01*
X143553409Y-109040264D01*
X143553407Y-109040265D01*
X143553404Y-109040268D01*
X143391268Y-109202404D01*
X143259738Y-109390247D01*
X143162830Y-109598068D01*
X143162827Y-109598074D01*
X143103479Y-109819563D01*
X143103478Y-109819570D01*
X143083494Y-110047997D01*
X143083494Y-110048002D01*
X128212211Y-110048002D01*
X128208063Y-110000592D01*
X128146903Y-109772337D01*
X128047035Y-109558171D01*
X127911495Y-109364599D01*
X127911494Y-109364597D01*
X127744402Y-109197506D01*
X127744401Y-109197505D01*
X127558842Y-109067575D01*
X127558841Y-109067574D01*
X127515216Y-109012997D01*
X127508024Y-108943498D01*
X127539546Y-108881144D01*
X127558836Y-108864428D01*
X127744401Y-108734495D01*
X127911495Y-108567401D01*
X128047035Y-108373830D01*
X128146903Y-108159663D01*
X128208063Y-107931408D01*
X128211773Y-107889000D01*
X133922357Y-107889000D01*
X133942884Y-108110535D01*
X133942885Y-108110537D01*
X134003769Y-108324523D01*
X134003775Y-108324538D01*
X134102938Y-108523683D01*
X134102943Y-108523691D01*
X134237020Y-108701238D01*
X134401437Y-108851123D01*
X134401439Y-108851125D01*
X134590595Y-108968245D01*
X134590596Y-108968245D01*
X134590599Y-108968247D01*
X134798060Y-109048618D01*
X135016757Y-109089500D01*
X135016759Y-109089500D01*
X135239241Y-109089500D01*
X135239243Y-109089500D01*
X135457940Y-109048618D01*
X135665401Y-108968247D01*
X135854562Y-108851124D01*
X136018981Y-108701236D01*
X136153058Y-108523689D01*
X136252229Y-108324528D01*
X136313115Y-108110536D01*
X136333643Y-107889000D01*
X136970357Y-107889000D01*
X136990884Y-108110535D01*
X136990885Y-108110537D01*
X137051769Y-108324523D01*
X137051775Y-108324538D01*
X137150938Y-108523683D01*
X137150943Y-108523691D01*
X137285020Y-108701238D01*
X137449437Y-108851123D01*
X137449439Y-108851125D01*
X137638595Y-108968245D01*
X137638596Y-108968245D01*
X137638599Y-108968247D01*
X137846060Y-109048618D01*
X138064757Y-109089500D01*
X138064759Y-109089500D01*
X138287241Y-109089500D01*
X138287243Y-109089500D01*
X138505940Y-109048618D01*
X138713401Y-108968247D01*
X138902562Y-108851124D01*
X139066981Y-108701236D01*
X139201058Y-108523689D01*
X139300229Y-108324528D01*
X139361115Y-108110536D01*
X139381643Y-107889000D01*
X139371212Y-107776435D01*
X139361115Y-107667464D01*
X139361114Y-107667462D01*
X139331256Y-107562523D01*
X139327125Y-107548002D01*
X140583494Y-107548002D01*
X140603478Y-107776429D01*
X140603479Y-107776436D01*
X140662827Y-107997925D01*
X140662828Y-107997927D01*
X140662829Y-107997930D01*
X140759738Y-108205753D01*
X140891264Y-108393591D01*
X141053409Y-108555736D01*
X141241247Y-108687262D01*
X141449070Y-108784171D01*
X141670565Y-108843521D01*
X141833732Y-108857795D01*
X141898998Y-108863506D01*
X141899000Y-108863506D01*
X141899002Y-108863506D01*
X141956108Y-108858509D01*
X142127435Y-108843521D01*
X142348930Y-108784171D01*
X142556753Y-108687262D01*
X142744591Y-108555736D01*
X142906736Y-108393591D01*
X143038262Y-108205753D01*
X143135171Y-107997930D01*
X143194521Y-107776435D01*
X143213235Y-107562528D01*
X143214506Y-107548002D01*
X145583494Y-107548002D01*
X145603478Y-107776429D01*
X145603479Y-107776436D01*
X145662827Y-107997925D01*
X145662828Y-107997927D01*
X145662829Y-107997930D01*
X145759738Y-108205753D01*
X145891264Y-108393591D01*
X146053409Y-108555736D01*
X146241247Y-108687262D01*
X146449070Y-108784171D01*
X146670565Y-108843521D01*
X146833732Y-108857795D01*
X146898998Y-108863506D01*
X146899000Y-108863506D01*
X146899002Y-108863506D01*
X146956108Y-108858509D01*
X147127435Y-108843521D01*
X147348930Y-108784171D01*
X147556753Y-108687262D01*
X147744591Y-108555736D01*
X147906736Y-108393591D01*
X148038262Y-108205753D01*
X148135171Y-107997930D01*
X148194521Y-107776435D01*
X148213235Y-107562528D01*
X148214506Y-107548002D01*
X148214506Y-107547997D01*
X148206235Y-107453461D01*
X148194521Y-107319565D01*
X148142923Y-107127000D01*
X149416356Y-107127000D01*
X149436884Y-107348535D01*
X149436885Y-107348537D01*
X149497769Y-107562523D01*
X149497775Y-107562538D01*
X149596938Y-107761683D01*
X149596943Y-107761691D01*
X149731020Y-107939238D01*
X149895437Y-108089123D01*
X149895439Y-108089125D01*
X150084595Y-108206245D01*
X150084596Y-108206245D01*
X150084599Y-108206247D01*
X150292060Y-108286618D01*
X150510757Y-108327500D01*
X150510759Y-108327500D01*
X150733241Y-108327500D01*
X150733243Y-108327500D01*
X150951940Y-108286618D01*
X151159401Y-108206247D01*
X151348562Y-108089124D01*
X151512981Y-107939236D01*
X151647058Y-107761689D01*
X151746229Y-107562528D01*
X151807115Y-107348536D01*
X151827643Y-107127000D01*
X153353356Y-107127000D01*
X153373884Y-107348535D01*
X153373885Y-107348537D01*
X153434769Y-107562523D01*
X153434775Y-107562538D01*
X153533938Y-107761683D01*
X153533943Y-107761691D01*
X153668020Y-107939238D01*
X153832437Y-108089123D01*
X153832439Y-108089125D01*
X154021595Y-108206245D01*
X154021596Y-108206245D01*
X154021599Y-108206247D01*
X154229060Y-108286618D01*
X154447757Y-108327500D01*
X154447759Y-108327500D01*
X154670241Y-108327500D01*
X154670243Y-108327500D01*
X154888940Y-108286618D01*
X155096401Y-108206247D01*
X155285562Y-108089124D01*
X155449981Y-107939236D01*
X155584058Y-107761689D01*
X155683229Y-107562528D01*
X155744115Y-107348536D01*
X155764643Y-107127000D01*
X155754558Y-107018169D01*
X155744115Y-106905464D01*
X155744114Y-106905462D01*
X155728296Y-106849869D01*
X155683229Y-106691472D01*
X155683224Y-106691461D01*
X155584061Y-106492316D01*
X155584056Y-106492308D01*
X155449979Y-106314761D01*
X155285562Y-106164876D01*
X155285560Y-106164874D01*
X155096404Y-106047754D01*
X155096398Y-106047752D01*
X154888940Y-105967382D01*
X154670243Y-105926500D01*
X154447757Y-105926500D01*
X154229060Y-105967382D01*
X154097864Y-106018207D01*
X154021601Y-106047752D01*
X154021595Y-106047754D01*
X153832439Y-106164874D01*
X153832437Y-106164876D01*
X153668020Y-106314761D01*
X153533943Y-106492308D01*
X153533938Y-106492316D01*
X153434775Y-106691461D01*
X153434769Y-106691476D01*
X153373885Y-106905462D01*
X153373884Y-106905464D01*
X153353356Y-107126999D01*
X153353356Y-107127000D01*
X151827643Y-107127000D01*
X151817558Y-107018169D01*
X151807115Y-106905464D01*
X151807114Y-106905462D01*
X151791296Y-106849869D01*
X151746229Y-106691472D01*
X151746224Y-106691461D01*
X151647061Y-106492316D01*
X151647056Y-106492308D01*
X151512979Y-106314761D01*
X151348562Y-106164876D01*
X151348560Y-106164874D01*
X151159404Y-106047754D01*
X151159398Y-106047752D01*
X150951940Y-105967382D01*
X150733243Y-105926500D01*
X150510757Y-105926500D01*
X150292060Y-105967382D01*
X150160864Y-106018207D01*
X150084601Y-106047752D01*
X150084595Y-106047754D01*
X149895439Y-106164874D01*
X149895437Y-106164876D01*
X149731020Y-106314761D01*
X149596943Y-106492308D01*
X149596938Y-106492316D01*
X149497775Y-106691461D01*
X149497769Y-106691476D01*
X149436885Y-106905462D01*
X149436884Y-106905464D01*
X149416356Y-107126999D01*
X149416356Y-107127000D01*
X148142923Y-107127000D01*
X148135171Y-107098070D01*
X148038262Y-106890247D01*
X147906736Y-106702409D01*
X147744591Y-106540264D01*
X147556753Y-106408738D01*
X147348930Y-106311829D01*
X147348927Y-106311828D01*
X147348925Y-106311827D01*
X147127436Y-106252479D01*
X147127429Y-106252478D01*
X146899002Y-106232494D01*
X146898998Y-106232494D01*
X146670570Y-106252478D01*
X146670563Y-106252479D01*
X146449074Y-106311827D01*
X146449070Y-106311829D01*
X146241247Y-106408738D01*
X146053409Y-106540264D01*
X146053407Y-106540265D01*
X146053404Y-106540268D01*
X145891268Y-106702404D01*
X145891265Y-106702407D01*
X145891264Y-106702409D01*
X145788011Y-106849869D01*
X145759738Y-106890247D01*
X145662830Y-107098068D01*
X145662827Y-107098074D01*
X145603479Y-107319563D01*
X145603478Y-107319570D01*
X145583494Y-107547997D01*
X145583494Y-107548002D01*
X143214506Y-107548002D01*
X143214506Y-107547997D01*
X143206235Y-107453461D01*
X143194521Y-107319565D01*
X143135171Y-107098070D01*
X143038262Y-106890247D01*
X142906736Y-106702409D01*
X142744591Y-106540264D01*
X142556753Y-106408738D01*
X142348930Y-106311829D01*
X142348927Y-106311828D01*
X142348925Y-106311827D01*
X142127436Y-106252479D01*
X142127429Y-106252478D01*
X141899002Y-106232494D01*
X141898998Y-106232494D01*
X141670570Y-106252478D01*
X141670563Y-106252479D01*
X141449074Y-106311827D01*
X141449070Y-106311829D01*
X141241247Y-106408738D01*
X141053409Y-106540264D01*
X141053407Y-106540265D01*
X141053404Y-106540268D01*
X140891268Y-106702404D01*
X140891265Y-106702407D01*
X140891264Y-106702409D01*
X140788011Y-106849869D01*
X140759738Y-106890247D01*
X140662830Y-107098068D01*
X140662827Y-107098074D01*
X140603479Y-107319563D01*
X140603478Y-107319570D01*
X140583494Y-107547997D01*
X140583494Y-107548002D01*
X139327125Y-107548002D01*
X139300229Y-107453472D01*
X139300224Y-107453461D01*
X139201061Y-107254316D01*
X139201056Y-107254308D01*
X139066979Y-107076761D01*
X138902562Y-106926876D01*
X138902560Y-106926874D01*
X138713404Y-106809754D01*
X138713398Y-106809752D01*
X138505940Y-106729382D01*
X138287243Y-106688500D01*
X138064757Y-106688500D01*
X137846060Y-106729382D01*
X137714864Y-106780207D01*
X137638601Y-106809752D01*
X137638595Y-106809754D01*
X137449439Y-106926874D01*
X137449437Y-106926876D01*
X137285020Y-107076761D01*
X137150943Y-107254308D01*
X137150938Y-107254316D01*
X137051775Y-107453461D01*
X137051769Y-107453476D01*
X136990885Y-107667462D01*
X136990884Y-107667464D01*
X136970357Y-107888999D01*
X136970357Y-107889000D01*
X136333643Y-107889000D01*
X136323212Y-107776435D01*
X136313115Y-107667464D01*
X136313114Y-107667462D01*
X136283256Y-107562523D01*
X136252229Y-107453472D01*
X136252224Y-107453461D01*
X136153061Y-107254316D01*
X136153056Y-107254308D01*
X136018979Y-107076761D01*
X135854562Y-106926876D01*
X135854561Y-106926875D01*
X135814221Y-106901897D01*
X135767586Y-106849869D01*
X135755500Y-106796471D01*
X135755500Y-105933806D01*
X135775185Y-105866767D01*
X135827989Y-105821012D01*
X135847406Y-105814031D01*
X135848496Y-105813739D01*
X136054734Y-105717568D01*
X136241139Y-105587047D01*
X136402047Y-105426139D01*
X136532568Y-105239734D01*
X136539618Y-105224614D01*
X136585789Y-105172176D01*
X136652982Y-105153023D01*
X136719864Y-105173238D01*
X136764381Y-105224614D01*
X136771432Y-105239733D01*
X136771432Y-105239734D01*
X136901954Y-105426141D01*
X137062858Y-105587045D01*
X137062861Y-105587047D01*
X137249266Y-105717568D01*
X137455504Y-105813739D01*
X137675308Y-105872635D01*
X137837230Y-105886801D01*
X137901998Y-105892468D01*
X137902000Y-105892468D01*
X137902002Y-105892468D01*
X137958672Y-105887509D01*
X138128692Y-105872635D01*
X138348496Y-105813739D01*
X138554734Y-105717568D01*
X138741139Y-105587047D01*
X138902047Y-105426139D01*
X139032568Y-105239734D01*
X139128739Y-105033496D01*
X139144620Y-104974225D01*
X139180984Y-104914565D01*
X139243830Y-104884035D01*
X139313206Y-104892329D01*
X139365970Y-104935195D01*
X139442954Y-105045141D01*
X139603858Y-105206045D01*
X139650693Y-105238839D01*
X139790266Y-105336568D01*
X139996504Y-105432739D01*
X140216308Y-105491635D01*
X140386216Y-105506500D01*
X141299784Y-105506500D01*
X141469692Y-105491635D01*
X141689496Y-105432739D01*
X141895734Y-105336568D01*
X142082139Y-105206047D01*
X142243047Y-105045139D01*
X142373568Y-104858734D01*
X142469739Y-104652496D01*
X142528635Y-104432692D01*
X142548468Y-104206001D01*
X146757532Y-104206001D01*
X146777364Y-104432686D01*
X146777366Y-104432697D01*
X146836258Y-104652488D01*
X146836261Y-104652497D01*
X146932431Y-104858732D01*
X146932432Y-104858734D01*
X147062954Y-105045141D01*
X147223858Y-105206045D01*
X147270693Y-105238839D01*
X147410266Y-105336568D01*
X147616504Y-105432739D01*
X147836308Y-105491635D01*
X148006216Y-105506500D01*
X148919784Y-105506500D01*
X149089692Y-105491635D01*
X149309496Y-105432739D01*
X149515734Y-105336568D01*
X149702139Y-105206047D01*
X149863047Y-105045139D01*
X149993568Y-104858734D01*
X150089739Y-104652496D01*
X150148635Y-104432692D01*
X150168468Y-104206000D01*
X150164677Y-104162674D01*
X150156232Y-104066145D01*
X150148635Y-103979308D01*
X150089739Y-103759504D01*
X149993568Y-103553266D01*
X149870121Y-103376964D01*
X149863045Y-103366858D01*
X149702141Y-103205954D01*
X149515734Y-103075432D01*
X149515728Y-103075429D01*
X149457725Y-103048382D01*
X149405285Y-103002210D01*
X149386133Y-102935017D01*
X149406348Y-102868135D01*
X149457725Y-102823618D01*
X149515734Y-102796568D01*
X149702139Y-102666047D01*
X149863047Y-102505139D01*
X149993568Y-102318734D01*
X150089739Y-102112496D01*
X150148635Y-101892692D01*
X150168468Y-101666000D01*
X150148635Y-101439308D01*
X150089739Y-101219504D01*
X149993568Y-101013266D01*
X149863047Y-100826861D01*
X149863045Y-100826858D01*
X149702141Y-100665954D01*
X149515734Y-100535432D01*
X149515728Y-100535429D01*
X149457725Y-100508382D01*
X149405285Y-100462210D01*
X149386133Y-100395017D01*
X149406348Y-100328135D01*
X149457725Y-100283618D01*
X149515734Y-100256568D01*
X149702139Y-100126047D01*
X149863047Y-99965139D01*
X149993568Y-99778734D01*
X150089739Y-99572496D01*
X150148635Y-99352692D01*
X150168468Y-99126000D01*
X150148635Y-98899308D01*
X150089739Y-98679504D01*
X149993568Y-98473266D01*
X149878635Y-98309123D01*
X149863045Y-98286858D01*
X149702141Y-98125954D01*
X149515734Y-97995432D01*
X149515728Y-97995429D01*
X149457725Y-97968382D01*
X149405285Y-97922210D01*
X149386133Y-97855017D01*
X149406348Y-97788135D01*
X149457725Y-97743618D01*
X149515734Y-97716568D01*
X149702139Y-97586047D01*
X149863047Y-97425139D01*
X149993568Y-97238734D01*
X150089739Y-97032496D01*
X150148635Y-96812692D01*
X150168468Y-96586000D01*
X150148635Y-96359308D01*
X150089739Y-96139504D01*
X149993568Y-95933266D01*
X149878635Y-95769123D01*
X149863045Y-95746858D01*
X149702141Y-95585954D01*
X149515734Y-95455432D01*
X149515728Y-95455429D01*
X149457725Y-95428382D01*
X149405285Y-95382210D01*
X149386133Y-95315017D01*
X149406348Y-95248135D01*
X149457725Y-95203618D01*
X149458319Y-95203341D01*
X149515734Y-95176568D01*
X149702139Y-95046047D01*
X149863047Y-94885139D01*
X149993568Y-94698734D01*
X150089739Y-94492496D01*
X150148635Y-94272692D01*
X150168468Y-94046000D01*
X150148635Y-93819308D01*
X150089739Y-93599504D01*
X149993568Y-93393266D01*
X149884940Y-93238128D01*
X149863045Y-93206858D01*
X149702141Y-93045954D01*
X149515734Y-92915432D01*
X149515728Y-92915429D01*
X149457725Y-92888382D01*
X149405285Y-92842210D01*
X149386133Y-92775017D01*
X149406348Y-92708135D01*
X149457725Y-92663618D01*
X149515734Y-92636568D01*
X149702139Y-92506047D01*
X149863047Y-92345139D01*
X149993568Y-92158734D01*
X150089739Y-91952496D01*
X150148635Y-91732692D01*
X150168468Y-91506000D01*
X153054040Y-91506000D01*
X153073826Y-91694256D01*
X153073827Y-91694259D01*
X153132318Y-91874277D01*
X153132321Y-91874284D01*
X153226967Y-92038216D01*
X153335482Y-92158734D01*
X153353629Y-92178888D01*
X153506765Y-92290148D01*
X153506770Y-92290151D01*
X153679692Y-92367142D01*
X153679697Y-92367144D01*
X153864854Y-92406500D01*
X153864855Y-92406500D01*
X154054144Y-92406500D01*
X154054146Y-92406500D01*
X154239303Y-92367144D01*
X154412230Y-92290151D01*
X154420444Y-92284182D01*
X154486250Y-92260702D01*
X154493331Y-92260500D01*
X156311169Y-92260500D01*
X156378208Y-92280185D01*
X156384056Y-92284183D01*
X156392269Y-92290150D01*
X156392270Y-92290151D01*
X156565192Y-92367142D01*
X156565197Y-92367144D01*
X156750354Y-92406500D01*
X156750355Y-92406500D01*
X156939644Y-92406500D01*
X156939646Y-92406500D01*
X157124803Y-92367144D01*
X157297730Y-92290151D01*
X157450871Y-92178888D01*
X157577533Y-92038216D01*
X157672179Y-91874284D01*
X157730674Y-91694256D01*
X157750460Y-91506000D01*
X157730674Y-91317744D01*
X157672179Y-91137716D01*
X157577533Y-90973784D01*
X157450871Y-90833112D01*
X157450870Y-90833111D01*
X157297734Y-90721851D01*
X157297729Y-90721848D01*
X157124807Y-90644857D01*
X157124802Y-90644855D01*
X156979000Y-90613865D01*
X156939646Y-90605500D01*
X156846688Y-90605500D01*
X156779649Y-90585815D01*
X156733894Y-90533011D01*
X156723367Y-90468540D01*
X156734460Y-90363000D01*
X156714674Y-90174744D01*
X156656179Y-89994716D01*
X156605247Y-89906499D01*
X156588775Y-89838599D01*
X156611628Y-89772572D01*
X156666550Y-89729382D01*
X156712635Y-89720500D01*
X157049268Y-89720500D01*
X157116307Y-89740185D01*
X157122153Y-89744182D01*
X157217765Y-89813648D01*
X157217770Y-89813651D01*
X157390692Y-89890642D01*
X157390697Y-89890644D01*
X157575854Y-89930000D01*
X157575855Y-89930000D01*
X157765144Y-89930000D01*
X157765146Y-89930000D01*
X157950303Y-89890644D01*
X158123230Y-89813651D01*
X158276371Y-89702388D01*
X158403033Y-89561716D01*
X158497679Y-89397784D01*
X158556174Y-89217756D01*
X158575960Y-89029500D01*
X158556174Y-88841244D01*
X158497679Y-88661216D01*
X158403033Y-88497284D01*
X158276371Y-88356612D01*
X158276370Y-88356611D01*
X158123234Y-88245351D01*
X158123229Y-88245348D01*
X157950307Y-88168357D01*
X157950302Y-88168355D01*
X157804501Y-88137365D01*
X157765146Y-88129000D01*
X157575854Y-88129000D01*
X157543397Y-88135898D01*
X157390697Y-88168355D01*
X157390693Y-88168357D01*
X157317874Y-88200779D01*
X157267438Y-88211500D01*
X154493331Y-88211500D01*
X154426292Y-88191815D01*
X154420444Y-88187817D01*
X154412230Y-88181849D01*
X154412229Y-88181848D01*
X154239307Y-88104857D01*
X154239302Y-88104855D01*
X154093501Y-88073865D01*
X154054146Y-88065500D01*
X153864854Y-88065500D01*
X153832397Y-88072398D01*
X153679697Y-88104855D01*
X153679692Y-88104857D01*
X153506770Y-88181848D01*
X153506765Y-88181851D01*
X153353629Y-88293111D01*
X153226966Y-88433785D01*
X153132321Y-88597715D01*
X153132318Y-88597722D01*
X153086313Y-88739313D01*
X153073826Y-88777744D01*
X153054040Y-88966000D01*
X153073826Y-89154256D01*
X153073827Y-89154259D01*
X153132318Y-89334277D01*
X153132321Y-89334284D01*
X153226967Y-89498216D01*
X153267635Y-89543382D01*
X153301981Y-89581528D01*
X153332211Y-89644520D01*
X153323585Y-89713855D01*
X153301981Y-89747472D01*
X153226966Y-89830785D01*
X153132321Y-89994715D01*
X153132318Y-89994722D01*
X153075973Y-90168135D01*
X153073826Y-90174744D01*
X153054040Y-90363000D01*
X153073826Y-90551256D01*
X153073827Y-90551259D01*
X153132318Y-90731277D01*
X153132320Y-90731281D01*
X153132321Y-90731284D01*
X153180212Y-90814235D01*
X153213852Y-90872501D01*
X153230324Y-90940401D01*
X153213852Y-90996499D01*
X153132320Y-91137718D01*
X153132318Y-91137722D01*
X153086313Y-91279313D01*
X153073826Y-91317744D01*
X153054040Y-91506000D01*
X150168468Y-91506000D01*
X150148635Y-91279308D01*
X150089739Y-91059504D01*
X149993568Y-90853266D01*
X149863047Y-90666861D01*
X149863045Y-90666858D01*
X149702141Y-90505954D01*
X149515734Y-90375432D01*
X149515728Y-90375429D01*
X149457725Y-90348382D01*
X149405285Y-90302210D01*
X149386133Y-90235017D01*
X149406348Y-90168135D01*
X149457725Y-90123618D01*
X149515734Y-90096568D01*
X149702139Y-89966047D01*
X149863047Y-89805139D01*
X149993568Y-89618734D01*
X150089739Y-89412496D01*
X150148635Y-89192692D01*
X150168468Y-88966000D01*
X150148635Y-88739308D01*
X150089739Y-88519504D01*
X149993568Y-88313266D01*
X149863047Y-88126861D01*
X149863045Y-88126858D01*
X149702141Y-87965954D01*
X149515734Y-87835432D01*
X149515732Y-87835431D01*
X149309497Y-87739261D01*
X149309488Y-87739258D01*
X149089697Y-87680366D01*
X149089687Y-87680364D01*
X148919784Y-87665500D01*
X148006216Y-87665500D01*
X147836312Y-87680364D01*
X147836302Y-87680366D01*
X147616511Y-87739258D01*
X147616502Y-87739261D01*
X147410267Y-87835431D01*
X147410265Y-87835432D01*
X147223858Y-87965954D01*
X147062954Y-88126858D01*
X146932432Y-88313265D01*
X146932431Y-88313267D01*
X146836261Y-88519502D01*
X146836258Y-88519511D01*
X146777366Y-88739302D01*
X146777364Y-88739313D01*
X146757532Y-88965998D01*
X146757532Y-88966001D01*
X146777364Y-89192686D01*
X146777366Y-89192697D01*
X146836258Y-89412488D01*
X146836261Y-89412497D01*
X146932431Y-89618732D01*
X146932432Y-89618734D01*
X147062954Y-89805141D01*
X147223858Y-89966045D01*
X147270693Y-89998839D01*
X147410266Y-90096568D01*
X147468275Y-90123618D01*
X147520714Y-90169791D01*
X147539866Y-90236984D01*
X147519650Y-90303865D01*
X147468275Y-90348382D01*
X147410267Y-90375431D01*
X147410265Y-90375432D01*
X147223858Y-90505954D01*
X147062954Y-90666858D01*
X146932432Y-90853265D01*
X146932431Y-90853267D01*
X146836261Y-91059502D01*
X146836258Y-91059511D01*
X146777366Y-91279302D01*
X146777364Y-91279313D01*
X146757532Y-91505998D01*
X146757532Y-91506001D01*
X146777364Y-91732686D01*
X146777366Y-91732697D01*
X146836258Y-91952488D01*
X146836261Y-91952497D01*
X146932431Y-92158732D01*
X146932432Y-92158734D01*
X147062954Y-92345141D01*
X147223858Y-92506045D01*
X147223861Y-92506047D01*
X147410266Y-92636568D01*
X147468275Y-92663618D01*
X147520714Y-92709791D01*
X147539866Y-92776984D01*
X147519650Y-92843865D01*
X147468275Y-92888382D01*
X147410267Y-92915431D01*
X147410265Y-92915432D01*
X147223858Y-93045954D01*
X147062954Y-93206858D01*
X146932432Y-93393265D01*
X146932431Y-93393267D01*
X146836261Y-93599502D01*
X146836258Y-93599511D01*
X146777366Y-93819302D01*
X146777364Y-93819313D01*
X146757532Y-94045998D01*
X146757532Y-94046001D01*
X146777364Y-94272686D01*
X146777366Y-94272697D01*
X146836258Y-94492488D01*
X146836261Y-94492497D01*
X146932431Y-94698732D01*
X146932432Y-94698734D01*
X147062954Y-94885141D01*
X147223858Y-95046045D01*
X147223861Y-95046047D01*
X147410266Y-95176568D01*
X147467681Y-95203341D01*
X147468275Y-95203618D01*
X147520714Y-95249791D01*
X147539866Y-95316984D01*
X147519650Y-95383865D01*
X147468275Y-95428382D01*
X147410267Y-95455431D01*
X147410265Y-95455432D01*
X147223858Y-95585954D01*
X147062954Y-95746858D01*
X146932432Y-95933265D01*
X146932431Y-95933267D01*
X146836261Y-96139502D01*
X146836258Y-96139511D01*
X146777366Y-96359302D01*
X146777364Y-96359313D01*
X146757532Y-96585998D01*
X146757532Y-96586001D01*
X146777364Y-96812686D01*
X146777366Y-96812697D01*
X146836258Y-97032488D01*
X146836261Y-97032497D01*
X146932431Y-97238732D01*
X146932432Y-97238734D01*
X147062954Y-97425141D01*
X147223858Y-97586045D01*
X147223861Y-97586047D01*
X147410266Y-97716568D01*
X147446830Y-97733618D01*
X147468275Y-97743618D01*
X147520714Y-97789791D01*
X147539866Y-97856984D01*
X147519650Y-97923865D01*
X147468275Y-97968382D01*
X147410267Y-97995431D01*
X147410265Y-97995432D01*
X147223858Y-98125954D01*
X147062954Y-98286858D01*
X146932432Y-98473265D01*
X146932431Y-98473267D01*
X146836261Y-98679502D01*
X146836258Y-98679511D01*
X146777366Y-98899302D01*
X146777364Y-98899313D01*
X146757532Y-99125998D01*
X146757532Y-99126001D01*
X146777364Y-99352686D01*
X146777366Y-99352697D01*
X146836258Y-99572488D01*
X146836261Y-99572497D01*
X146932431Y-99778732D01*
X146932432Y-99778734D01*
X147062954Y-99965141D01*
X147223858Y-100126045D01*
X147270693Y-100158839D01*
X147410266Y-100256568D01*
X147468275Y-100283618D01*
X147520714Y-100329791D01*
X147539866Y-100396984D01*
X147519650Y-100463865D01*
X147468275Y-100508382D01*
X147410267Y-100535431D01*
X147410265Y-100535432D01*
X147223858Y-100665954D01*
X147062954Y-100826858D01*
X146932432Y-101013265D01*
X146932431Y-101013267D01*
X146836261Y-101219502D01*
X146836258Y-101219511D01*
X146777366Y-101439302D01*
X146777364Y-101439313D01*
X146757532Y-101665998D01*
X146757532Y-101666001D01*
X146777364Y-101892686D01*
X146777366Y-101892697D01*
X146836258Y-102112488D01*
X146836261Y-102112497D01*
X146932431Y-102318732D01*
X146932432Y-102318734D01*
X147062954Y-102505141D01*
X147223858Y-102666045D01*
X147223861Y-102666047D01*
X147410266Y-102796568D01*
X147468278Y-102823619D01*
X147520713Y-102869788D01*
X147539866Y-102936982D01*
X147519651Y-103003863D01*
X147468277Y-103048380D01*
X147410268Y-103075430D01*
X147410265Y-103075432D01*
X147223858Y-103205954D01*
X147062954Y-103366858D01*
X146932432Y-103553265D01*
X146932431Y-103553267D01*
X146836261Y-103759502D01*
X146836258Y-103759511D01*
X146777366Y-103979302D01*
X146777364Y-103979313D01*
X146757532Y-104205998D01*
X146757532Y-104206001D01*
X142548468Y-104206001D01*
X142548468Y-104206000D01*
X142544677Y-104162674D01*
X142536232Y-104066145D01*
X142528635Y-103979308D01*
X142469739Y-103759504D01*
X142373568Y-103553266D01*
X142250121Y-103376964D01*
X142243045Y-103366858D01*
X142082141Y-103205954D01*
X141895734Y-103075432D01*
X141895728Y-103075429D01*
X141837725Y-103048382D01*
X141785285Y-103002210D01*
X141766133Y-102935017D01*
X141786348Y-102868135D01*
X141837725Y-102823618D01*
X141895734Y-102796568D01*
X142082139Y-102666047D01*
X142243047Y-102505139D01*
X142373568Y-102318734D01*
X142469739Y-102112496D01*
X142528635Y-101892692D01*
X142548468Y-101666000D01*
X142528635Y-101439308D01*
X142469739Y-101219504D01*
X142373568Y-101013266D01*
X142243047Y-100826861D01*
X142243045Y-100826858D01*
X142082141Y-100665954D01*
X141895734Y-100535432D01*
X141895728Y-100535429D01*
X141837725Y-100508382D01*
X141785285Y-100462210D01*
X141766133Y-100395017D01*
X141786348Y-100328135D01*
X141837725Y-100283618D01*
X141895734Y-100256568D01*
X142082139Y-100126047D01*
X142243047Y-99965139D01*
X142373568Y-99778734D01*
X142469739Y-99572496D01*
X142528635Y-99352692D01*
X142548468Y-99126000D01*
X142528635Y-98899308D01*
X142469739Y-98679504D01*
X142373568Y-98473266D01*
X142258635Y-98309123D01*
X142243045Y-98286858D01*
X142082141Y-98125954D01*
X141895734Y-97995432D01*
X141895728Y-97995429D01*
X141837725Y-97968382D01*
X141785285Y-97922210D01*
X141766133Y-97855017D01*
X141786348Y-97788135D01*
X141837725Y-97743618D01*
X141895734Y-97716568D01*
X142082139Y-97586047D01*
X142243047Y-97425139D01*
X142373568Y-97238734D01*
X142469739Y-97032496D01*
X142528635Y-96812692D01*
X142548468Y-96586000D01*
X142528635Y-96359308D01*
X142469739Y-96139504D01*
X142373568Y-95933266D01*
X142258635Y-95769123D01*
X142243045Y-95746858D01*
X142082141Y-95585954D01*
X141895734Y-95455432D01*
X141895732Y-95455431D01*
X141837725Y-95428382D01*
X141837132Y-95428105D01*
X141784694Y-95381934D01*
X141765542Y-95314740D01*
X141785758Y-95247859D01*
X141837134Y-95203341D01*
X141895484Y-95176132D01*
X142081820Y-95045657D01*
X142242657Y-94884820D01*
X142373134Y-94698482D01*
X142469265Y-94492326D01*
X142469269Y-94492317D01*
X142521872Y-94296000D01*
X141158686Y-94296000D01*
X141170641Y-94284045D01*
X141228165Y-94171148D01*
X141247986Y-94046000D01*
X141228165Y-93920852D01*
X141170641Y-93807955D01*
X141158686Y-93796000D01*
X142521872Y-93796000D01*
X142521872Y-93795999D01*
X142469269Y-93599682D01*
X142469265Y-93599673D01*
X142373134Y-93393517D01*
X142242657Y-93207179D01*
X142081820Y-93046342D01*
X141895482Y-92915865D01*
X141837133Y-92888657D01*
X141784694Y-92842484D01*
X141765542Y-92775291D01*
X141785758Y-92708410D01*
X141837129Y-92663895D01*
X141895734Y-92636568D01*
X142082139Y-92506047D01*
X142243047Y-92345139D01*
X142373568Y-92158734D01*
X142469739Y-91952496D01*
X142528635Y-91732692D01*
X142548468Y-91506000D01*
X142528635Y-91279308D01*
X142469739Y-91059504D01*
X142373568Y-90853266D01*
X142243047Y-90666861D01*
X142243045Y-90666858D01*
X142082143Y-90505956D01*
X142057536Y-90488726D01*
X142013912Y-90434149D01*
X142006719Y-90364650D01*
X142038241Y-90302296D01*
X142098471Y-90266882D01*
X142115404Y-90263861D01*
X142150483Y-90260091D01*
X142285331Y-90209796D01*
X142400546Y-90123546D01*
X142486796Y-90008331D01*
X142537091Y-89873483D01*
X142543500Y-89813873D01*
X142543499Y-88118128D01*
X142537091Y-88058517D01*
X142502567Y-87965954D01*
X142486797Y-87923671D01*
X142486793Y-87923664D01*
X142400547Y-87808455D01*
X142400544Y-87808452D01*
X142285335Y-87722206D01*
X142285328Y-87722202D01*
X142150482Y-87671908D01*
X142150483Y-87671908D01*
X142090883Y-87665501D01*
X142090881Y-87665500D01*
X142090873Y-87665500D01*
X142090864Y-87665500D01*
X139595129Y-87665500D01*
X139595123Y-87665501D01*
X139535516Y-87671908D01*
X139400671Y-87722202D01*
X139400664Y-87722206D01*
X139285455Y-87808452D01*
X139285452Y-87808455D01*
X139199206Y-87923664D01*
X139199202Y-87923671D01*
X139148908Y-88058517D01*
X139142501Y-88118116D01*
X139142501Y-88118123D01*
X139142500Y-88118135D01*
X139142500Y-89813870D01*
X139142501Y-89813876D01*
X139148908Y-89873483D01*
X139199202Y-90008328D01*
X139199206Y-90008335D01*
X139285452Y-90123544D01*
X139285455Y-90123547D01*
X139400664Y-90209793D01*
X139400671Y-90209797D01*
X139445618Y-90226561D01*
X139535517Y-90260091D01*
X139570596Y-90263862D01*
X139635144Y-90290599D01*
X139674993Y-90347991D01*
X139677488Y-90417816D01*
X139641836Y-90477905D01*
X139628464Y-90488725D01*
X139603858Y-90505954D01*
X139442954Y-90666858D01*
X139312432Y-90853265D01*
X139312431Y-90853267D01*
X139216261Y-91059502D01*
X139216258Y-91059511D01*
X139157366Y-91279302D01*
X139157364Y-91279313D01*
X139137532Y-91505998D01*
X139137532Y-91506001D01*
X139157364Y-91732686D01*
X139157366Y-91732697D01*
X139216258Y-91952488D01*
X139216261Y-91952497D01*
X139312431Y-92158732D01*
X139312432Y-92158734D01*
X139442954Y-92345141D01*
X139603858Y-92506045D01*
X139603861Y-92506047D01*
X139790266Y-92636568D01*
X139848865Y-92663893D01*
X139901305Y-92710065D01*
X139920457Y-92777258D01*
X139900242Y-92844139D01*
X139848867Y-92888657D01*
X139790515Y-92915867D01*
X139604179Y-93046342D01*
X139443342Y-93207179D01*
X139312865Y-93393517D01*
X139216734Y-93599673D01*
X139216730Y-93599682D01*
X139164127Y-93795999D01*
X139164128Y-93796000D01*
X140527314Y-93796000D01*
X140515359Y-93807955D01*
X140457835Y-93920852D01*
X140438014Y-94046000D01*
X140457835Y-94171148D01*
X140515359Y-94284045D01*
X140527314Y-94296000D01*
X139164128Y-94296000D01*
X139216730Y-94492317D01*
X139216734Y-94492326D01*
X139312865Y-94698482D01*
X139443342Y-94884820D01*
X139604179Y-95045657D01*
X139790518Y-95176134D01*
X139790520Y-95176135D01*
X139848865Y-95203342D01*
X139901305Y-95249514D01*
X139920457Y-95316707D01*
X139900242Y-95383589D01*
X139848867Y-95428105D01*
X139790268Y-95455431D01*
X139790264Y-95455433D01*
X139603858Y-95585954D01*
X139442954Y-95746858D01*
X139312432Y-95933265D01*
X139312431Y-95933267D01*
X139216261Y-96139502D01*
X139216258Y-96139511D01*
X139157366Y-96359302D01*
X139157364Y-96359313D01*
X139137532Y-96585998D01*
X139137532Y-96586001D01*
X139157364Y-96812686D01*
X139157366Y-96812697D01*
X139216258Y-97032488D01*
X139216261Y-97032497D01*
X139312431Y-97238732D01*
X139312432Y-97238734D01*
X139442954Y-97425141D01*
X139603858Y-97586045D01*
X139603861Y-97586047D01*
X139790266Y-97716568D01*
X139826830Y-97733618D01*
X139848275Y-97743618D01*
X139900714Y-97789791D01*
X139919866Y-97856984D01*
X139899650Y-97923865D01*
X139848275Y-97968382D01*
X139790267Y-97995431D01*
X139790265Y-97995432D01*
X139603858Y-98125954D01*
X139442954Y-98286858D01*
X139312432Y-98473265D01*
X139312431Y-98473267D01*
X139216261Y-98679502D01*
X139216258Y-98679511D01*
X139157366Y-98899302D01*
X139157364Y-98899313D01*
X139137532Y-99125998D01*
X139137532Y-99126001D01*
X139157364Y-99352686D01*
X139157366Y-99352697D01*
X139216258Y-99572488D01*
X139216261Y-99572497D01*
X139312431Y-99778732D01*
X139312432Y-99778734D01*
X139442954Y-99965141D01*
X139603858Y-100126045D01*
X139650693Y-100158839D01*
X139790266Y-100256568D01*
X139848275Y-100283618D01*
X139900714Y-100329791D01*
X139919866Y-100396984D01*
X139899650Y-100463865D01*
X139848275Y-100508382D01*
X139790267Y-100535431D01*
X139790265Y-100535432D01*
X139603858Y-100665954D01*
X139442954Y-100826858D01*
X139312432Y-101013265D01*
X139312431Y-101013267D01*
X139216261Y-101219502D01*
X139216258Y-101219511D01*
X139157366Y-101439302D01*
X139157364Y-101439313D01*
X139137532Y-101665998D01*
X139137532Y-101666001D01*
X139157364Y-101892686D01*
X139157366Y-101892697D01*
X139216258Y-102112488D01*
X139216261Y-102112497D01*
X139312431Y-102318732D01*
X139312432Y-102318734D01*
X139442954Y-102505141D01*
X139603858Y-102666045D01*
X139603861Y-102666047D01*
X139790266Y-102796568D01*
X139848275Y-102823618D01*
X139900714Y-102869791D01*
X139919866Y-102936984D01*
X139899650Y-103003865D01*
X139848275Y-103048382D01*
X139790267Y-103075431D01*
X139790265Y-103075432D01*
X139603858Y-103205954D01*
X139442954Y-103366858D01*
X139312432Y-103553265D01*
X139312431Y-103553267D01*
X139216261Y-103759502D01*
X139216259Y-103759509D01*
X139200379Y-103818775D01*
X139164014Y-103878435D01*
X139101166Y-103908964D01*
X139031791Y-103900669D01*
X138979029Y-103857804D01*
X138902045Y-103747858D01*
X138741141Y-103586954D01*
X138554734Y-103456432D01*
X138554732Y-103456431D01*
X138348497Y-103360261D01*
X138348488Y-103360258D01*
X138128697Y-103301366D01*
X138128693Y-103301365D01*
X138128692Y-103301365D01*
X138128691Y-103301364D01*
X138128686Y-103301364D01*
X137902002Y-103281532D01*
X137901998Y-103281532D01*
X137675313Y-103301364D01*
X137675302Y-103301366D01*
X137455511Y-103360258D01*
X137455502Y-103360261D01*
X137249267Y-103456431D01*
X137249265Y-103456432D01*
X137062858Y-103586954D01*
X136901954Y-103747858D01*
X136788565Y-103909797D01*
X136771432Y-103934266D01*
X136764380Y-103949387D01*
X136718209Y-104001825D01*
X136651015Y-104020976D01*
X136584134Y-104000760D01*
X136539619Y-103949387D01*
X136532568Y-103934266D01*
X136402047Y-103747861D01*
X136402045Y-103747858D01*
X136241141Y-103586954D01*
X136054734Y-103456432D01*
X136054732Y-103456431D01*
X135848497Y-103360261D01*
X135848488Y-103360258D01*
X135628697Y-103301366D01*
X135628693Y-103301365D01*
X135628692Y-103301365D01*
X135628691Y-103301364D01*
X135628686Y-103301364D01*
X135402002Y-103281532D01*
X135401998Y-103281532D01*
X135175313Y-103301364D01*
X135175302Y-103301366D01*
X134955511Y-103360258D01*
X134955502Y-103360261D01*
X134749267Y-103456431D01*
X134749265Y-103456432D01*
X134562858Y-103586954D01*
X134401954Y-103747858D01*
X134271432Y-103934265D01*
X134271431Y-103934267D01*
X134175261Y-104140502D01*
X134175258Y-104140511D01*
X134116366Y-104360302D01*
X134116364Y-104360313D01*
X134096532Y-104586998D01*
X134096532Y-104587001D01*
X134116364Y-104813686D01*
X134116366Y-104813697D01*
X134175258Y-105033488D01*
X134175261Y-105033497D01*
X134271431Y-105239732D01*
X134271432Y-105239734D01*
X134401951Y-105426137D01*
X134401952Y-105426138D01*
X134401953Y-105426139D01*
X134464182Y-105488368D01*
X134497666Y-105549689D01*
X134500500Y-105576048D01*
X134500500Y-106796471D01*
X134480815Y-106863510D01*
X134441779Y-106901897D01*
X134401438Y-106926875D01*
X134401437Y-106926876D01*
X134237020Y-107076761D01*
X134102943Y-107254308D01*
X134102938Y-107254316D01*
X134003775Y-107453461D01*
X134003769Y-107453476D01*
X133942885Y-107667462D01*
X133942884Y-107667464D01*
X133922357Y-107888999D01*
X133922357Y-107889000D01*
X128211773Y-107889000D01*
X128228659Y-107696000D01*
X128208063Y-107460592D01*
X128146903Y-107232337D01*
X128047035Y-107018171D01*
X127983110Y-106926875D01*
X127911494Y-106824597D01*
X127744402Y-106657506D01*
X127744396Y-106657501D01*
X127558842Y-106527575D01*
X127515217Y-106472998D01*
X127508023Y-106403500D01*
X127539546Y-106341145D01*
X127558842Y-106324425D01*
X127661591Y-106252479D01*
X127744401Y-106194495D01*
X127911495Y-106027401D01*
X128047035Y-105833830D01*
X128146903Y-105619663D01*
X128208063Y-105391408D01*
X128228659Y-105156000D01*
X128208063Y-104920592D01*
X128146903Y-104692337D01*
X128047035Y-104478171D01*
X128015190Y-104432692D01*
X127911496Y-104284600D01*
X127854211Y-104227315D01*
X127789567Y-104162671D01*
X127756084Y-104101351D01*
X127761068Y-104031659D01*
X127802939Y-103975725D01*
X127833915Y-103958810D01*
X127965331Y-103909796D01*
X128080546Y-103823546D01*
X128166796Y-103708331D01*
X128185349Y-103658586D01*
X128227220Y-103602652D01*
X128292685Y-103578234D01*
X128360958Y-103593085D01*
X128389213Y-103614237D01*
X128749181Y-103974204D01*
X128782666Y-104035527D01*
X128785500Y-104061885D01*
X128785500Y-105075606D01*
X128768888Y-105137604D01*
X128748929Y-105172176D01*
X128712820Y-105234718D01*
X128712818Y-105234722D01*
X128654327Y-105414740D01*
X128654326Y-105414744D01*
X128634540Y-105603000D01*
X128654326Y-105791256D01*
X128654327Y-105791259D01*
X128712818Y-105971277D01*
X128712821Y-105971284D01*
X128807467Y-106135216D01*
X128934129Y-106275887D01*
X128934129Y-106275888D01*
X129087265Y-106387148D01*
X129087270Y-106387151D01*
X129260192Y-106464142D01*
X129260197Y-106464144D01*
X129445354Y-106503500D01*
X129445355Y-106503500D01*
X129634644Y-106503500D01*
X129634646Y-106503500D01*
X129819803Y-106464144D01*
X129992730Y-106387151D01*
X130145871Y-106275888D01*
X130272533Y-106135216D01*
X130367179Y-105971284D01*
X130425674Y-105791256D01*
X130445460Y-105603000D01*
X130425674Y-105414744D01*
X130367179Y-105234716D01*
X130350626Y-105206045D01*
X130311112Y-105137605D01*
X130294499Y-105075605D01*
X130294499Y-104432686D01*
X130294499Y-103761984D01*
X130295808Y-103744031D01*
X130299315Y-103720093D01*
X130298286Y-103708335D01*
X130294736Y-103667755D01*
X130294500Y-103662349D01*
X130294500Y-103654066D01*
X130294500Y-103654059D01*
X130290674Y-103621327D01*
X130283943Y-103544388D01*
X130283941Y-103544383D01*
X130282483Y-103537319D01*
X130282537Y-103537307D01*
X130280881Y-103529837D01*
X130280827Y-103529850D01*
X130279160Y-103522822D01*
X130279160Y-103522816D01*
X130252752Y-103450260D01*
X130228464Y-103376964D01*
X130228461Y-103376960D01*
X130225412Y-103370419D01*
X130225461Y-103370395D01*
X130222128Y-103363509D01*
X130222079Y-103363534D01*
X130218835Y-103357075D01*
X130176400Y-103292555D01*
X130135872Y-103226849D01*
X130131392Y-103221183D01*
X130131434Y-103221149D01*
X130126597Y-103215211D01*
X130126556Y-103215246D01*
X130121912Y-103209711D01*
X130065752Y-103156728D01*
X129036766Y-102127742D01*
X129024984Y-102114109D01*
X129021604Y-102109569D01*
X129010539Y-102094706D01*
X129010537Y-102094704D01*
X129010538Y-102094704D01*
X128982932Y-102071541D01*
X128970285Y-102060928D01*
X128966310Y-102057286D01*
X128960441Y-102051417D01*
X128960440Y-102051416D01*
X128960438Y-102051414D01*
X128934584Y-102030972D01*
X128875427Y-101981333D01*
X128869394Y-101977365D01*
X128869422Y-101977321D01*
X128862961Y-101973204D01*
X128862934Y-101973250D01*
X128856790Y-101969460D01*
X128786808Y-101936827D01*
X128717815Y-101902177D01*
X128711031Y-101899708D01*
X128711049Y-101899658D01*
X128703807Y-101897141D01*
X128703791Y-101897191D01*
X128696938Y-101894920D01*
X128621311Y-101879304D01*
X128546181Y-101861498D01*
X128539014Y-101860661D01*
X128539020Y-101860607D01*
X128531405Y-101859829D01*
X128531401Y-101859883D01*
X128524210Y-101859253D01*
X128447018Y-101861500D01*
X128347499Y-101861500D01*
X128280460Y-101841815D01*
X128234705Y-101789011D01*
X128223499Y-101737500D01*
X128223499Y-101718129D01*
X128223498Y-101718123D01*
X128223497Y-101718116D01*
X128217091Y-101658517D01*
X128202105Y-101618338D01*
X128166797Y-101523671D01*
X128166793Y-101523664D01*
X128080547Y-101408455D01*
X128080544Y-101408452D01*
X127965335Y-101322206D01*
X127965328Y-101322202D01*
X127830482Y-101271908D01*
X127830483Y-101271908D01*
X127770883Y-101265501D01*
X127770881Y-101265500D01*
X127770873Y-101265500D01*
X127770864Y-101265500D01*
X125975129Y-101265500D01*
X125975123Y-101265501D01*
X125915516Y-101271908D01*
X125780671Y-101322202D01*
X125780664Y-101322206D01*
X125665455Y-101408452D01*
X125665452Y-101408455D01*
X125579206Y-101523664D01*
X125579202Y-101523671D01*
X125528908Y-101658517D01*
X125522501Y-101718116D01*
X125522501Y-101718123D01*
X125522500Y-101718135D01*
X125522500Y-103513870D01*
X125522501Y-103513876D01*
X125528908Y-103573483D01*
X125579202Y-103708328D01*
X125579206Y-103708335D01*
X125665452Y-103823544D01*
X125665455Y-103823547D01*
X125780664Y-103909793D01*
X125780671Y-103909797D01*
X125912081Y-103958810D01*
X125968015Y-104000681D01*
X125992432Y-104066145D01*
X125977580Y-104134418D01*
X125956430Y-104162673D01*
X125834503Y-104284600D01*
X125698965Y-104478169D01*
X125698964Y-104478171D01*
X125599098Y-104692335D01*
X125599094Y-104692344D01*
X125537938Y-104920586D01*
X125537936Y-104920596D01*
X125517341Y-105155999D01*
X125517341Y-105156000D01*
X125537936Y-105391403D01*
X125537938Y-105391413D01*
X125599094Y-105619655D01*
X125599096Y-105619659D01*
X125599097Y-105619663D01*
X125644751Y-105717567D01*
X125698965Y-105833830D01*
X125698967Y-105833834D01*
X125834501Y-106027395D01*
X125834506Y-106027402D01*
X126001597Y-106194493D01*
X126001603Y-106194498D01*
X126187158Y-106324425D01*
X126230783Y-106379002D01*
X126237977Y-106448500D01*
X126206454Y-106510855D01*
X126187158Y-106527575D01*
X126001597Y-106657505D01*
X125834505Y-106824597D01*
X125698965Y-107018169D01*
X125698964Y-107018171D01*
X125599098Y-107232335D01*
X125599094Y-107232344D01*
X125537938Y-107460586D01*
X125537936Y-107460596D01*
X125517341Y-107695999D01*
X125517341Y-107696000D01*
X125537936Y-107931403D01*
X125537938Y-107931413D01*
X125599094Y-108159655D01*
X125599096Y-108159659D01*
X125599097Y-108159663D01*
X125620819Y-108206245D01*
X125698965Y-108373830D01*
X125698967Y-108373834D01*
X125834501Y-108567395D01*
X125834506Y-108567402D01*
X126001597Y-108734493D01*
X126001603Y-108734498D01*
X126187158Y-108864425D01*
X126230783Y-108919002D01*
X126237977Y-108988500D01*
X126206454Y-109050855D01*
X126187158Y-109067575D01*
X126001597Y-109197505D01*
X125834505Y-109364597D01*
X125698965Y-109558169D01*
X125698964Y-109558171D01*
X125599098Y-109772335D01*
X125599094Y-109772344D01*
X125537938Y-110000586D01*
X125537936Y-110000596D01*
X125517341Y-110235999D01*
X125517341Y-110236000D01*
X125537936Y-110471403D01*
X125537938Y-110471413D01*
X125599094Y-110699655D01*
X125599096Y-110699659D01*
X125599097Y-110699663D01*
X125601937Y-110705753D01*
X125698965Y-110913830D01*
X125698967Y-110913834D01*
X125834501Y-111107395D01*
X125834506Y-111107402D01*
X126001597Y-111274493D01*
X126001603Y-111274498D01*
X126187158Y-111404425D01*
X126230783Y-111459002D01*
X126237977Y-111528500D01*
X126206454Y-111590855D01*
X126187158Y-111607575D01*
X126001597Y-111737505D01*
X125834505Y-111904597D01*
X125698965Y-112098169D01*
X125698964Y-112098171D01*
X125599098Y-112312335D01*
X125599094Y-112312344D01*
X125537938Y-112540586D01*
X125537936Y-112540596D01*
X125517341Y-112775999D01*
X125517341Y-112776000D01*
X125537936Y-113011403D01*
X125537938Y-113011413D01*
X125599094Y-113239655D01*
X125599096Y-113239659D01*
X125599097Y-113239663D01*
X125681203Y-113415740D01*
X125698965Y-113453830D01*
X125698967Y-113453834D01*
X125834501Y-113647395D01*
X125834506Y-113647402D01*
X126001597Y-113814493D01*
X126001603Y-113814498D01*
X126187158Y-113944425D01*
X126230783Y-113999002D01*
X126237977Y-114068500D01*
X126206454Y-114130855D01*
X126187158Y-114147575D01*
X126001597Y-114277505D01*
X125834505Y-114444597D01*
X125698965Y-114638169D01*
X125698964Y-114638171D01*
X125599098Y-114852335D01*
X125599094Y-114852344D01*
X125537938Y-115080586D01*
X125537936Y-115080596D01*
X125517341Y-115315999D01*
X125517341Y-115316000D01*
X125000500Y-115316000D01*
X125000500Y-100523000D01*
X129777540Y-100523000D01*
X129797326Y-100711256D01*
X129797327Y-100711259D01*
X129855818Y-100891277D01*
X129855821Y-100891284D01*
X129950467Y-101055216D01*
X130077129Y-101195887D01*
X130077129Y-101195888D01*
X130230265Y-101307148D01*
X130230270Y-101307151D01*
X130403192Y-101384142D01*
X130403197Y-101384144D01*
X130588354Y-101423500D01*
X130588355Y-101423500D01*
X130777644Y-101423500D01*
X130777646Y-101423500D01*
X130962803Y-101384144D01*
X131135730Y-101307151D01*
X131143944Y-101301182D01*
X131209750Y-101277702D01*
X131216831Y-101277500D01*
X134093614Y-101277500D01*
X134160653Y-101297185D01*
X134181295Y-101313819D01*
X134436451Y-101568975D01*
X134466701Y-101618338D01*
X134519318Y-101780277D01*
X134519321Y-101780284D01*
X134613967Y-101944216D01*
X134715767Y-102057276D01*
X134740629Y-102084888D01*
X134893765Y-102196148D01*
X134893770Y-102196151D01*
X135066692Y-102273142D01*
X135066697Y-102273144D01*
X135251854Y-102312500D01*
X135251855Y-102312500D01*
X135441144Y-102312500D01*
X135441146Y-102312500D01*
X135626303Y-102273144D01*
X135799230Y-102196151D01*
X135952371Y-102084888D01*
X136079033Y-101944216D01*
X136173679Y-101780284D01*
X136232174Y-101600256D01*
X136251960Y-101412000D01*
X136232174Y-101223744D01*
X136173679Y-101043716D01*
X136079033Y-100879784D01*
X135952371Y-100739112D01*
X135952370Y-100739111D01*
X135799234Y-100627851D01*
X135799229Y-100627848D01*
X135626307Y-100550857D01*
X135626302Y-100550855D01*
X135568353Y-100538538D01*
X135506871Y-100505345D01*
X135506453Y-100504929D01*
X135036266Y-100034742D01*
X135024484Y-100021109D01*
X135021104Y-100016569D01*
X135010039Y-100001706D01*
X135010037Y-100001704D01*
X135010038Y-100001704D01*
X134982432Y-99978541D01*
X134969785Y-99967928D01*
X134965810Y-99964286D01*
X134959941Y-99958417D01*
X134959940Y-99958416D01*
X134959938Y-99958414D01*
X134934084Y-99937972D01*
X134874927Y-99888333D01*
X134868894Y-99884365D01*
X134868922Y-99884321D01*
X134862461Y-99880204D01*
X134862434Y-99880250D01*
X134856290Y-99876460D01*
X134786308Y-99843827D01*
X134717315Y-99809177D01*
X134710531Y-99806708D01*
X134710549Y-99806658D01*
X134703307Y-99804141D01*
X134703291Y-99804191D01*
X134696438Y-99801920D01*
X134620811Y-99786304D01*
X134545681Y-99768498D01*
X134538514Y-99767661D01*
X134538520Y-99767607D01*
X134530905Y-99766829D01*
X134530901Y-99766883D01*
X134523710Y-99766253D01*
X134446518Y-99768500D01*
X133281150Y-99768500D01*
X133214111Y-99748815D01*
X133168356Y-99696011D01*
X133158412Y-99626853D01*
X133168768Y-99592095D01*
X133190575Y-99545330D01*
X133247207Y-99333977D01*
X133266277Y-99116000D01*
X133247207Y-98898023D01*
X133190575Y-98686670D01*
X133098102Y-98488362D01*
X133098100Y-98488359D01*
X133098099Y-98488357D01*
X132972599Y-98309124D01*
X132950333Y-98286858D01*
X132817877Y-98154402D01*
X132638639Y-98028898D01*
X132487414Y-97958381D01*
X132434977Y-97912210D01*
X132415825Y-97845016D01*
X132436041Y-97778135D01*
X132487414Y-97733618D01*
X132638639Y-97663102D01*
X132817877Y-97537598D01*
X132972598Y-97382877D01*
X133098102Y-97203639D01*
X133190575Y-97005330D01*
X133247207Y-96793977D01*
X133266277Y-96576000D01*
X133247207Y-96358023D01*
X133190575Y-96146670D01*
X133098102Y-95948362D01*
X133098100Y-95948359D01*
X133098099Y-95948357D01*
X132972599Y-95769124D01*
X132897511Y-95694036D01*
X132817877Y-95614402D01*
X132671733Y-95512071D01*
X132628112Y-95457497D01*
X132620919Y-95387998D01*
X132652441Y-95325644D01*
X132712671Y-95290230D01*
X132742859Y-95286499D01*
X132808872Y-95286499D01*
X132868483Y-95280091D01*
X133003331Y-95229796D01*
X133118546Y-95143546D01*
X133204796Y-95028331D01*
X133255091Y-94893483D01*
X133261500Y-94833873D01*
X133261499Y-93238128D01*
X133255091Y-93178517D01*
X133205648Y-93045954D01*
X133204797Y-93043671D01*
X133204793Y-93043664D01*
X133118547Y-92928455D01*
X133118544Y-92928452D01*
X133003335Y-92842206D01*
X133003328Y-92842202D01*
X132868482Y-92791908D01*
X132868483Y-92791908D01*
X132808883Y-92785501D01*
X132808881Y-92785500D01*
X132808873Y-92785500D01*
X132808864Y-92785500D01*
X131213129Y-92785500D01*
X131213123Y-92785501D01*
X131153516Y-92791908D01*
X131018671Y-92842202D01*
X131018664Y-92842206D01*
X130903455Y-92928452D01*
X130903452Y-92928455D01*
X130817206Y-93043664D01*
X130817202Y-93043671D01*
X130766908Y-93178517D01*
X130763827Y-93207179D01*
X130760501Y-93238123D01*
X130760500Y-93238135D01*
X130760500Y-94833870D01*
X130760501Y-94833876D01*
X130766908Y-94893483D01*
X130817202Y-95028328D01*
X130817206Y-95028335D01*
X130903452Y-95143544D01*
X130903455Y-95143547D01*
X131018664Y-95229793D01*
X131018671Y-95229797D01*
X131153517Y-95280091D01*
X131153516Y-95280091D01*
X131160444Y-95280835D01*
X131213127Y-95286500D01*
X131279139Y-95286499D01*
X131346176Y-95306183D01*
X131391932Y-95358986D01*
X131401876Y-95428144D01*
X131372852Y-95491700D01*
X131350262Y-95512074D01*
X131204118Y-95614405D01*
X131049402Y-95769121D01*
X130923900Y-95948357D01*
X130923898Y-95948361D01*
X130831426Y-96146668D01*
X130831422Y-96146677D01*
X130774793Y-96358020D01*
X130774793Y-96358024D01*
X130755723Y-96575997D01*
X130755723Y-96576002D01*
X130774793Y-96793975D01*
X130774793Y-96793979D01*
X130831422Y-97005322D01*
X130831424Y-97005326D01*
X130831425Y-97005330D01*
X130877661Y-97104484D01*
X130923897Y-97203638D01*
X130923898Y-97203639D01*
X131049402Y-97382877D01*
X131204123Y-97537598D01*
X131383361Y-97663101D01*
X131383361Y-97663102D01*
X131534583Y-97733618D01*
X131587022Y-97779790D01*
X131606174Y-97846984D01*
X131585958Y-97913865D01*
X131534583Y-97958382D01*
X131383361Y-98028898D01*
X131383357Y-98028900D01*
X131204121Y-98154402D01*
X131049402Y-98309121D01*
X130923900Y-98488357D01*
X130923898Y-98488361D01*
X130831426Y-98686668D01*
X130831422Y-98686677D01*
X130774793Y-98898020D01*
X130774793Y-98898024D01*
X130755723Y-99115997D01*
X130755723Y-99116002D01*
X130759404Y-99158071D01*
X130773491Y-99319099D01*
X130774793Y-99333975D01*
X130774793Y-99333979D01*
X130810277Y-99466407D01*
X130808614Y-99536257D01*
X130769451Y-99594119D01*
X130705223Y-99621623D01*
X130690502Y-99622500D01*
X130588354Y-99622500D01*
X130567875Y-99626853D01*
X130403197Y-99661855D01*
X130403192Y-99661857D01*
X130230270Y-99738848D01*
X130230265Y-99738851D01*
X130077129Y-99850111D01*
X129950466Y-99990785D01*
X129855821Y-100154715D01*
X129855818Y-100154722D01*
X129799473Y-100328135D01*
X129797326Y-100334744D01*
X129777540Y-100523000D01*
X125000500Y-100523000D01*
X125000500Y-97984036D01*
X125517341Y-97984036D01*
X125537936Y-98219439D01*
X125537938Y-98219449D01*
X125599094Y-98447691D01*
X125599096Y-98447695D01*
X125599097Y-98447699D01*
X125618058Y-98488361D01*
X125698965Y-98661866D01*
X125698967Y-98661870D01*
X125807281Y-98816557D01*
X125834505Y-98855437D01*
X126001599Y-99022531D01*
X126098384Y-99090301D01*
X126195165Y-99158068D01*
X126195167Y-99158069D01*
X126195170Y-99158071D01*
X126409337Y-99257939D01*
X126637592Y-99319099D01*
X126825918Y-99335575D01*
X126872999Y-99339695D01*
X126873000Y-99339695D01*
X126873001Y-99339695D01*
X126912234Y-99336262D01*
X127108408Y-99319099D01*
X127336663Y-99257939D01*
X127550830Y-99158071D01*
X127744401Y-99022531D01*
X127911495Y-98855437D01*
X128047035Y-98661866D01*
X128146903Y-98447699D01*
X128208063Y-98219444D01*
X128228659Y-97984036D01*
X128208063Y-97748628D01*
X128146903Y-97520373D01*
X128047035Y-97306207D01*
X127975217Y-97203639D01*
X127911494Y-97112633D01*
X127744402Y-96945542D01*
X127744401Y-96945541D01*
X127558405Y-96815305D01*
X127514781Y-96760728D01*
X127507588Y-96691229D01*
X127539110Y-96628875D01*
X127558405Y-96612155D01*
X127744082Y-96482141D01*
X127911105Y-96315118D01*
X128046600Y-96121614D01*
X128146429Y-95907528D01*
X128146432Y-95907522D01*
X128203636Y-95694036D01*
X127306686Y-95694036D01*
X127332493Y-95653880D01*
X127373000Y-95515925D01*
X127373000Y-95372147D01*
X127332493Y-95234192D01*
X127306686Y-95194036D01*
X128203636Y-95194036D01*
X128203635Y-95194035D01*
X128146432Y-94980549D01*
X128146429Y-94980543D01*
X128046600Y-94766458D01*
X128046599Y-94766456D01*
X127911113Y-94572962D01*
X127911108Y-94572956D01*
X127789053Y-94450901D01*
X127755568Y-94389578D01*
X127760552Y-94319886D01*
X127802424Y-94263953D01*
X127833400Y-94247038D01*
X127965331Y-94197832D01*
X128080546Y-94111582D01*
X128166796Y-93996367D01*
X128217091Y-93861519D01*
X128223500Y-93801909D01*
X128223499Y-92006164D01*
X128217091Y-91946553D01*
X128190136Y-91874284D01*
X128166797Y-91811707D01*
X128166793Y-91811700D01*
X128080547Y-91696491D01*
X128080544Y-91696488D01*
X127965335Y-91610242D01*
X127965328Y-91610238D01*
X127830482Y-91559944D01*
X127830483Y-91559944D01*
X127770883Y-91553537D01*
X127770881Y-91553536D01*
X127770873Y-91553536D01*
X127770864Y-91553536D01*
X125975129Y-91553536D01*
X125975123Y-91553537D01*
X125915516Y-91559944D01*
X125780671Y-91610238D01*
X125780664Y-91610242D01*
X125665455Y-91696488D01*
X125665452Y-91696491D01*
X125579206Y-91811700D01*
X125579202Y-91811707D01*
X125528908Y-91946553D01*
X125522501Y-92006152D01*
X125522501Y-92006159D01*
X125522500Y-92006171D01*
X125522500Y-93801906D01*
X125522501Y-93801912D01*
X125528908Y-93861519D01*
X125579202Y-93996364D01*
X125579206Y-93996371D01*
X125665452Y-94111580D01*
X125665455Y-94111583D01*
X125780664Y-94197829D01*
X125780671Y-94197833D01*
X125780674Y-94197834D01*
X125912598Y-94247038D01*
X125968531Y-94288909D01*
X125992949Y-94354373D01*
X125978098Y-94422646D01*
X125956947Y-94450901D01*
X125834886Y-94572962D01*
X125699400Y-94766456D01*
X125699399Y-94766458D01*
X125599570Y-94980543D01*
X125599567Y-94980549D01*
X125542364Y-95194035D01*
X125542364Y-95194036D01*
X126439314Y-95194036D01*
X126413507Y-95234192D01*
X126373000Y-95372147D01*
X126373000Y-95515925D01*
X126413507Y-95653880D01*
X126439314Y-95694036D01*
X125542364Y-95694036D01*
X125599567Y-95907522D01*
X125599570Y-95907528D01*
X125699399Y-96121614D01*
X125834894Y-96315118D01*
X126001917Y-96482141D01*
X126187595Y-96612155D01*
X126231219Y-96666732D01*
X126238412Y-96736231D01*
X126206890Y-96798585D01*
X126187595Y-96815305D01*
X126001594Y-96945544D01*
X125834505Y-97112633D01*
X125698965Y-97306205D01*
X125698964Y-97306207D01*
X125599098Y-97520371D01*
X125599094Y-97520380D01*
X125537938Y-97748622D01*
X125537936Y-97748632D01*
X125517341Y-97984035D01*
X125517341Y-97984036D01*
X125000500Y-97984036D01*
X125000500Y-87442001D01*
X131108532Y-87442001D01*
X131128364Y-87668686D01*
X131128366Y-87668697D01*
X131187258Y-87888488D01*
X131187261Y-87888497D01*
X131283431Y-88094732D01*
X131283432Y-88094734D01*
X131413954Y-88281141D01*
X131574858Y-88442045D01*
X131574861Y-88442047D01*
X131761266Y-88572568D01*
X131967504Y-88668739D01*
X132187308Y-88727635D01*
X132349230Y-88741801D01*
X132413998Y-88747468D01*
X132414000Y-88747468D01*
X132414002Y-88747468D01*
X132470672Y-88742509D01*
X132640692Y-88727635D01*
X132860496Y-88668739D01*
X133066734Y-88572568D01*
X133253139Y-88442047D01*
X133414047Y-88281139D01*
X133544568Y-88094734D01*
X133640739Y-87888496D01*
X133699635Y-87668692D01*
X133719468Y-87442001D01*
X136108532Y-87442001D01*
X136128364Y-87668686D01*
X136128366Y-87668697D01*
X136187258Y-87888488D01*
X136187261Y-87888497D01*
X136283431Y-88094732D01*
X136283432Y-88094734D01*
X136413954Y-88281141D01*
X136574858Y-88442045D01*
X136574861Y-88442047D01*
X136761266Y-88572568D01*
X136967504Y-88668739D01*
X137187308Y-88727635D01*
X137349230Y-88741801D01*
X137413998Y-88747468D01*
X137414000Y-88747468D01*
X137414002Y-88747468D01*
X137470672Y-88742509D01*
X137640692Y-88727635D01*
X137860496Y-88668739D01*
X138066734Y-88572568D01*
X138253139Y-88442047D01*
X138414047Y-88281139D01*
X138544568Y-88094734D01*
X138640739Y-87888496D01*
X138699635Y-87668692D01*
X138719468Y-87442000D01*
X138699635Y-87215308D01*
X138640739Y-86995504D01*
X138544568Y-86789266D01*
X138414047Y-86602861D01*
X138414045Y-86602858D01*
X138253141Y-86441954D01*
X138066734Y-86311432D01*
X138066732Y-86311431D01*
X137860497Y-86215261D01*
X137860488Y-86215258D01*
X137699045Y-86172000D01*
X142223540Y-86172000D01*
X142243326Y-86360256D01*
X142243327Y-86360259D01*
X142301818Y-86540277D01*
X142301821Y-86540284D01*
X142396467Y-86704216D01*
X142523128Y-86844887D01*
X142523129Y-86844888D01*
X142676265Y-86956148D01*
X142676270Y-86956151D01*
X142849192Y-87033142D01*
X142849197Y-87033144D01*
X143034354Y-87072500D01*
X143034355Y-87072500D01*
X143223644Y-87072500D01*
X143223646Y-87072500D01*
X143408803Y-87033144D01*
X143581730Y-86956151D01*
X143734871Y-86844888D01*
X143861533Y-86704216D01*
X143949984Y-86551013D01*
X143969686Y-86525336D01*
X145447954Y-85047068D01*
X145509275Y-85013585D01*
X145509493Y-85013537D01*
X145567803Y-85001144D01*
X145567807Y-85001142D01*
X145567808Y-85001142D01*
X145628531Y-84974106D01*
X145740730Y-84924151D01*
X145893871Y-84812888D01*
X146020533Y-84672216D01*
X146080113Y-84569019D01*
X146130679Y-84520805D01*
X146199286Y-84507581D01*
X146264151Y-84533549D01*
X146304680Y-84590463D01*
X146311500Y-84631020D01*
X146311500Y-84772757D01*
X146307405Y-84798618D01*
X146308676Y-84798889D01*
X146307326Y-84805239D01*
X146289578Y-84974106D01*
X146287540Y-84993500D01*
X146307326Y-85181756D01*
X146307327Y-85181759D01*
X146365818Y-85361777D01*
X146365821Y-85361784D01*
X146460467Y-85525716D01*
X146587128Y-85666388D01*
X146587129Y-85666388D01*
X146740265Y-85777648D01*
X146740270Y-85777651D01*
X146913192Y-85854642D01*
X146913197Y-85854644D01*
X147098354Y-85894000D01*
X147098355Y-85894000D01*
X147287644Y-85894000D01*
X147287646Y-85894000D01*
X147472803Y-85854644D01*
X147645730Y-85777651D01*
X147798871Y-85666388D01*
X147925533Y-85525716D01*
X148020179Y-85361784D01*
X148078674Y-85181756D01*
X148098460Y-84993500D01*
X148078674Y-84805244D01*
X148020179Y-84625216D01*
X147925533Y-84461284D01*
X147852350Y-84380006D01*
X147822120Y-84317015D01*
X147820500Y-84297034D01*
X147820500Y-83524392D01*
X147837113Y-83462392D01*
X147893179Y-83365284D01*
X147951674Y-83185256D01*
X147971460Y-82997000D01*
X156401356Y-82997000D01*
X156421884Y-83218535D01*
X156421885Y-83218537D01*
X156482769Y-83432523D01*
X156482775Y-83432538D01*
X156581938Y-83631683D01*
X156581943Y-83631691D01*
X156716020Y-83809238D01*
X156880437Y-83959123D01*
X156880439Y-83959125D01*
X157069595Y-84076245D01*
X157069596Y-84076245D01*
X157069599Y-84076247D01*
X157277060Y-84156618D01*
X157495757Y-84197500D01*
X157495759Y-84197500D01*
X157718241Y-84197500D01*
X157718243Y-84197500D01*
X157936940Y-84156618D01*
X158144401Y-84076247D01*
X158333562Y-83959124D01*
X158497981Y-83809236D01*
X158632058Y-83631689D01*
X158731229Y-83432528D01*
X158792115Y-83218536D01*
X158812643Y-82997000D01*
X158810590Y-82974849D01*
X158792115Y-82775464D01*
X158792114Y-82775462D01*
X158750361Y-82628716D01*
X158731229Y-82561472D01*
X158731224Y-82561461D01*
X158632061Y-82362316D01*
X158632056Y-82362308D01*
X158497979Y-82184761D01*
X158333562Y-82034876D01*
X158333560Y-82034874D01*
X158144404Y-81917754D01*
X158144398Y-81917752D01*
X157936940Y-81837382D01*
X157718243Y-81796500D01*
X157495757Y-81796500D01*
X157277060Y-81837382D01*
X157145864Y-81888207D01*
X157069601Y-81917752D01*
X157069595Y-81917754D01*
X156880439Y-82034874D01*
X156880437Y-82034876D01*
X156716020Y-82184761D01*
X156581943Y-82362308D01*
X156581938Y-82362316D01*
X156482775Y-82561461D01*
X156482769Y-82561476D01*
X156421885Y-82775462D01*
X156421884Y-82775464D01*
X156401356Y-82996999D01*
X156401356Y-82997000D01*
X147971460Y-82997000D01*
X147951674Y-82808744D01*
X147893179Y-82628716D01*
X147798533Y-82464784D01*
X147671871Y-82324112D01*
X147671870Y-82324111D01*
X147518734Y-82212851D01*
X147518729Y-82212848D01*
X147345807Y-82135857D01*
X147345802Y-82135855D01*
X147200001Y-82104865D01*
X147160646Y-82096500D01*
X146971354Y-82096500D01*
X146938897Y-82103398D01*
X146786197Y-82135855D01*
X146786192Y-82135857D01*
X146613270Y-82212848D01*
X146613265Y-82212851D01*
X146460129Y-82324111D01*
X146333466Y-82464785D01*
X146238821Y-82628715D01*
X146238818Y-82628722D01*
X146191140Y-82775462D01*
X146180326Y-82808744D01*
X146160540Y-82997000D01*
X146180326Y-83185256D01*
X146180327Y-83185259D01*
X146238818Y-83365277D01*
X146238821Y-83365284D01*
X146277650Y-83432538D01*
X146294887Y-83462392D01*
X146311500Y-83524392D01*
X146311500Y-83648979D01*
X146291815Y-83716018D01*
X146239011Y-83761773D01*
X146169853Y-83771717D01*
X146106297Y-83742692D01*
X146080113Y-83710979D01*
X146020534Y-83607785D01*
X145893870Y-83467111D01*
X145740734Y-83355851D01*
X145740729Y-83355848D01*
X145567807Y-83278857D01*
X145567802Y-83278855D01*
X145422001Y-83247865D01*
X145382646Y-83239500D01*
X145193354Y-83239500D01*
X145160897Y-83246398D01*
X145008197Y-83278855D01*
X145008192Y-83278857D01*
X144835270Y-83355848D01*
X144835265Y-83355851D01*
X144682129Y-83467111D01*
X144555466Y-83607785D01*
X144460821Y-83771715D01*
X144460821Y-83771717D01*
X144408201Y-83933661D01*
X144377951Y-83983023D01*
X143125795Y-85235181D01*
X143064472Y-85268666D01*
X143038114Y-85271500D01*
X143034354Y-85271500D01*
X143001897Y-85278398D01*
X142849197Y-85310855D01*
X142849192Y-85310857D01*
X142676270Y-85387848D01*
X142676265Y-85387851D01*
X142523129Y-85499111D01*
X142396466Y-85639785D01*
X142301821Y-85803715D01*
X142301818Y-85803722D01*
X142243327Y-85983740D01*
X142243326Y-85983744D01*
X142223540Y-86172000D01*
X137699045Y-86172000D01*
X137640697Y-86156366D01*
X137640693Y-86156365D01*
X137640692Y-86156365D01*
X137640691Y-86156364D01*
X137640686Y-86156364D01*
X137414002Y-86136532D01*
X137413998Y-86136532D01*
X137187313Y-86156364D01*
X137187302Y-86156366D01*
X136967511Y-86215258D01*
X136967502Y-86215261D01*
X136761267Y-86311431D01*
X136761265Y-86311432D01*
X136574858Y-86441954D01*
X136413954Y-86602858D01*
X136283432Y-86789265D01*
X136283431Y-86789267D01*
X136187261Y-86995502D01*
X136187258Y-86995511D01*
X136128366Y-87215302D01*
X136128364Y-87215313D01*
X136108532Y-87441998D01*
X136108532Y-87442001D01*
X133719468Y-87442001D01*
X133719468Y-87442000D01*
X133699635Y-87215308D01*
X133640739Y-86995504D01*
X133544568Y-86789266D01*
X133414047Y-86602861D01*
X133414045Y-86602858D01*
X133253141Y-86441954D01*
X133066734Y-86311432D01*
X133066732Y-86311431D01*
X132860497Y-86215261D01*
X132860488Y-86215258D01*
X132640697Y-86156366D01*
X132640693Y-86156365D01*
X132640692Y-86156365D01*
X132640691Y-86156364D01*
X132640686Y-86156364D01*
X132414002Y-86136532D01*
X132413998Y-86136532D01*
X132187313Y-86156364D01*
X132187302Y-86156366D01*
X131967511Y-86215258D01*
X131967502Y-86215261D01*
X131761267Y-86311431D01*
X131761265Y-86311432D01*
X131574858Y-86441954D01*
X131413954Y-86602858D01*
X131283432Y-86789265D01*
X131283431Y-86789267D01*
X131187261Y-86995502D01*
X131187258Y-86995511D01*
X131128366Y-87215302D01*
X131128364Y-87215313D01*
X131108532Y-87441998D01*
X131108532Y-87442001D01*
X125000500Y-87442001D01*
X125000500Y-85501500D01*
X128634540Y-85501500D01*
X128654326Y-85689756D01*
X128654327Y-85689759D01*
X128712818Y-85869777D01*
X128712821Y-85869784D01*
X128807467Y-86033716D01*
X128900043Y-86136532D01*
X128934129Y-86174388D01*
X129087265Y-86285648D01*
X129087270Y-86285651D01*
X129260192Y-86362642D01*
X129260197Y-86362644D01*
X129445354Y-86402000D01*
X129445355Y-86402000D01*
X129634644Y-86402000D01*
X129634646Y-86402000D01*
X129819803Y-86362644D01*
X129992730Y-86285651D01*
X130145871Y-86174388D01*
X130272533Y-86033716D01*
X130367179Y-85869784D01*
X130425674Y-85689756D01*
X130445460Y-85501500D01*
X130425674Y-85313244D01*
X130367179Y-85133216D01*
X130311111Y-85036104D01*
X130294500Y-84974106D01*
X130294500Y-84286392D01*
X130311113Y-84224392D01*
X130367179Y-84127284D01*
X130425674Y-83947256D01*
X130445460Y-83759000D01*
X130425674Y-83570744D01*
X130367179Y-83390716D01*
X130272533Y-83226784D01*
X130145871Y-83086112D01*
X130145870Y-83086111D01*
X129992734Y-82974851D01*
X129992729Y-82974848D01*
X129819807Y-82897857D01*
X129819802Y-82897855D01*
X129674000Y-82866865D01*
X129634646Y-82858500D01*
X129445354Y-82858500D01*
X129412897Y-82865398D01*
X129260197Y-82897855D01*
X129260192Y-82897857D01*
X129087270Y-82974848D01*
X129087265Y-82974851D01*
X128934129Y-83086111D01*
X128807466Y-83226785D01*
X128712821Y-83390715D01*
X128712818Y-83390722D01*
X128654327Y-83570740D01*
X128654326Y-83570744D01*
X128634540Y-83759000D01*
X128654326Y-83947256D01*
X128654327Y-83947259D01*
X128712818Y-84127277D01*
X128712821Y-84127284D01*
X128753360Y-84197500D01*
X128768887Y-84224392D01*
X128785500Y-84286392D01*
X128785500Y-84974106D01*
X128768888Y-85036105D01*
X128712820Y-85133218D01*
X128712818Y-85133222D01*
X128654327Y-85313240D01*
X128654326Y-85313244D01*
X128634540Y-85501500D01*
X125000500Y-85501500D01*
X125000500Y-81124500D01*
X125020185Y-81057461D01*
X125072989Y-81011706D01*
X125124500Y-81000500D01*
X159875500Y-81000500D01*
X159942539Y-81020185D01*
G37*
G04 #@! TD.AperFunction*
M02*
