G04 #@! TF.GenerationSoftware,KiCad,Pcbnew,7.0.2-0*
G04 #@! TF.CreationDate,2023-05-29T19:58:27+02:00*
G04 #@! TF.ProjectId,shmoergh-funk-live-voice,73686d6f-6572-4676-982d-66756e6b2d6c,rev?*
G04 #@! TF.SameCoordinates,Original*
G04 #@! TF.FileFunction,Legend,Top*
G04 #@! TF.FilePolarity,Positive*
%FSLAX46Y46*%
G04 Gerber Fmt 4.6, Leading zero omitted, Abs format (unit mm)*
G04 Created by KiCad (PCBNEW 7.0.2-0) date 2023-05-29 19:58:27*
%MOMM*%
%LPD*%
G01*
G04 APERTURE LIST*
%ADD10C,0.150000*%
%ADD11C,0.120000*%
%ADD12C,0.010000*%
%ADD13C,1.600000*%
%ADD14O,1.600000X1.600000*%
%ADD15C,1.400000*%
%ADD16C,1.620000*%
%ADD17R,1.500000X1.500000*%
%ADD18C,1.500000*%
%ADD19R,1.700000X1.700000*%
%ADD20O,1.700000X1.700000*%
%ADD21R,2.400000X1.600000*%
%ADD22O,2.400000X1.600000*%
G04 APERTURE END LIST*
D10*
X136423380Y-63211000D02*
X136537666Y-63249095D01*
X136537666Y-63249095D02*
X136728142Y-63249095D01*
X136728142Y-63249095D02*
X136804333Y-63211000D01*
X136804333Y-63211000D02*
X136842428Y-63172904D01*
X136842428Y-63172904D02*
X136880523Y-63096714D01*
X136880523Y-63096714D02*
X136880523Y-63020523D01*
X136880523Y-63020523D02*
X136842428Y-62944333D01*
X136842428Y-62944333D02*
X136804333Y-62906238D01*
X136804333Y-62906238D02*
X136728142Y-62868142D01*
X136728142Y-62868142D02*
X136575761Y-62830047D01*
X136575761Y-62830047D02*
X136499571Y-62791952D01*
X136499571Y-62791952D02*
X136461476Y-62753857D01*
X136461476Y-62753857D02*
X136423380Y-62677666D01*
X136423380Y-62677666D02*
X136423380Y-62601476D01*
X136423380Y-62601476D02*
X136461476Y-62525285D01*
X136461476Y-62525285D02*
X136499571Y-62487190D01*
X136499571Y-62487190D02*
X136575761Y-62449095D01*
X136575761Y-62449095D02*
X136766238Y-62449095D01*
X136766238Y-62449095D02*
X136880523Y-62487190D01*
X137223381Y-63249095D02*
X137223381Y-62449095D01*
X137223381Y-62830047D02*
X137680524Y-62830047D01*
X137680524Y-63249095D02*
X137680524Y-62449095D01*
X138061476Y-63249095D02*
X138061476Y-62449095D01*
X138061476Y-62449095D02*
X138328142Y-63020523D01*
X138328142Y-63020523D02*
X138594809Y-62449095D01*
X138594809Y-62449095D02*
X138594809Y-63249095D01*
X139509095Y-62449095D02*
X138899571Y-63249095D01*
X139128143Y-63249095D02*
X139051952Y-63211000D01*
X139051952Y-63211000D02*
X138975762Y-63134809D01*
X138975762Y-63134809D02*
X138937666Y-62982428D01*
X138937666Y-62982428D02*
X138937666Y-62715761D01*
X138937666Y-62715761D02*
X138975762Y-62563380D01*
X138975762Y-62563380D02*
X139051952Y-62487190D01*
X139051952Y-62487190D02*
X139128143Y-62449095D01*
X139128143Y-62449095D02*
X139280524Y-62449095D01*
X139280524Y-62449095D02*
X139356714Y-62487190D01*
X139356714Y-62487190D02*
X139432905Y-62563380D01*
X139432905Y-62563380D02*
X139471000Y-62715761D01*
X139471000Y-62715761D02*
X139471000Y-62982428D01*
X139471000Y-62982428D02*
X139432905Y-63134809D01*
X139432905Y-63134809D02*
X139356714Y-63211000D01*
X139356714Y-63211000D02*
X139280524Y-63249095D01*
X139280524Y-63249095D02*
X139128143Y-63249095D01*
X139813857Y-62830047D02*
X140080523Y-62830047D01*
X140194809Y-63249095D02*
X139813857Y-63249095D01*
X139813857Y-63249095D02*
X139813857Y-62449095D01*
X139813857Y-62449095D02*
X140194809Y-62449095D01*
X140994810Y-63249095D02*
X140728143Y-62868142D01*
X140537667Y-63249095D02*
X140537667Y-62449095D01*
X140537667Y-62449095D02*
X140842429Y-62449095D01*
X140842429Y-62449095D02*
X140918619Y-62487190D01*
X140918619Y-62487190D02*
X140956714Y-62525285D01*
X140956714Y-62525285D02*
X140994810Y-62601476D01*
X140994810Y-62601476D02*
X140994810Y-62715761D01*
X140994810Y-62715761D02*
X140956714Y-62791952D01*
X140956714Y-62791952D02*
X140918619Y-62830047D01*
X140918619Y-62830047D02*
X140842429Y-62868142D01*
X140842429Y-62868142D02*
X140537667Y-62868142D01*
X141756714Y-62487190D02*
X141680524Y-62449095D01*
X141680524Y-62449095D02*
X141566238Y-62449095D01*
X141566238Y-62449095D02*
X141451952Y-62487190D01*
X141451952Y-62487190D02*
X141375762Y-62563380D01*
X141375762Y-62563380D02*
X141337667Y-62639571D01*
X141337667Y-62639571D02*
X141299571Y-62791952D01*
X141299571Y-62791952D02*
X141299571Y-62906238D01*
X141299571Y-62906238D02*
X141337667Y-63058619D01*
X141337667Y-63058619D02*
X141375762Y-63134809D01*
X141375762Y-63134809D02*
X141451952Y-63211000D01*
X141451952Y-63211000D02*
X141566238Y-63249095D01*
X141566238Y-63249095D02*
X141642429Y-63249095D01*
X141642429Y-63249095D02*
X141756714Y-63211000D01*
X141756714Y-63211000D02*
X141794810Y-63172904D01*
X141794810Y-63172904D02*
X141794810Y-62906238D01*
X141794810Y-62906238D02*
X141642429Y-62906238D01*
X142137667Y-63249095D02*
X142137667Y-62449095D01*
X142137667Y-62830047D02*
X142594810Y-62830047D01*
X142594810Y-63249095D02*
X142594810Y-62449095D01*
X136461476Y-64545095D02*
X136461476Y-63745095D01*
X136461476Y-63745095D02*
X136651952Y-63745095D01*
X136651952Y-63745095D02*
X136766238Y-63783190D01*
X136766238Y-63783190D02*
X136842428Y-63859380D01*
X136842428Y-63859380D02*
X136880523Y-63935571D01*
X136880523Y-63935571D02*
X136918619Y-64087952D01*
X136918619Y-64087952D02*
X136918619Y-64202238D01*
X136918619Y-64202238D02*
X136880523Y-64354619D01*
X136880523Y-64354619D02*
X136842428Y-64430809D01*
X136842428Y-64430809D02*
X136766238Y-64507000D01*
X136766238Y-64507000D02*
X136651952Y-64545095D01*
X136651952Y-64545095D02*
X136461476Y-64545095D01*
X137718619Y-64468904D02*
X137680523Y-64507000D01*
X137680523Y-64507000D02*
X137566238Y-64545095D01*
X137566238Y-64545095D02*
X137490047Y-64545095D01*
X137490047Y-64545095D02*
X137375761Y-64507000D01*
X137375761Y-64507000D02*
X137299571Y-64430809D01*
X137299571Y-64430809D02*
X137261476Y-64354619D01*
X137261476Y-64354619D02*
X137223380Y-64202238D01*
X137223380Y-64202238D02*
X137223380Y-64087952D01*
X137223380Y-64087952D02*
X137261476Y-63935571D01*
X137261476Y-63935571D02*
X137299571Y-63859380D01*
X137299571Y-63859380D02*
X137375761Y-63783190D01*
X137375761Y-63783190D02*
X137490047Y-63745095D01*
X137490047Y-63745095D02*
X137566238Y-63745095D01*
X137566238Y-63745095D02*
X137680523Y-63783190D01*
X137680523Y-63783190D02*
X137718619Y-63821285D01*
X138213857Y-63745095D02*
X138366238Y-63745095D01*
X138366238Y-63745095D02*
X138442428Y-63783190D01*
X138442428Y-63783190D02*
X138518619Y-63859380D01*
X138518619Y-63859380D02*
X138556714Y-64011761D01*
X138556714Y-64011761D02*
X138556714Y-64278428D01*
X138556714Y-64278428D02*
X138518619Y-64430809D01*
X138518619Y-64430809D02*
X138442428Y-64507000D01*
X138442428Y-64507000D02*
X138366238Y-64545095D01*
X138366238Y-64545095D02*
X138213857Y-64545095D01*
X138213857Y-64545095D02*
X138137666Y-64507000D01*
X138137666Y-64507000D02*
X138061476Y-64430809D01*
X138061476Y-64430809D02*
X138023380Y-64278428D01*
X138023380Y-64278428D02*
X138023380Y-64011761D01*
X138023380Y-64011761D02*
X138061476Y-63859380D01*
X138061476Y-63859380D02*
X138137666Y-63783190D01*
X138137666Y-63783190D02*
X138213857Y-63745095D01*
X139394809Y-63745095D02*
X139661476Y-64545095D01*
X139661476Y-64545095D02*
X139928142Y-63745095D01*
X140309094Y-64545095D02*
X140232904Y-64507000D01*
X140232904Y-64507000D02*
X140194809Y-64468904D01*
X140194809Y-64468904D02*
X140156713Y-64392714D01*
X140156713Y-64392714D02*
X140156713Y-64164142D01*
X140156713Y-64164142D02*
X140194809Y-64087952D01*
X140194809Y-64087952D02*
X140232904Y-64049857D01*
X140232904Y-64049857D02*
X140309094Y-64011761D01*
X140309094Y-64011761D02*
X140423380Y-64011761D01*
X140423380Y-64011761D02*
X140499571Y-64049857D01*
X140499571Y-64049857D02*
X140537666Y-64087952D01*
X140537666Y-64087952D02*
X140575761Y-64164142D01*
X140575761Y-64164142D02*
X140575761Y-64392714D01*
X140575761Y-64392714D02*
X140537666Y-64468904D01*
X140537666Y-64468904D02*
X140499571Y-64507000D01*
X140499571Y-64507000D02*
X140423380Y-64545095D01*
X140423380Y-64545095D02*
X140309094Y-64545095D01*
X140918619Y-64545095D02*
X140918619Y-64011761D01*
X140918619Y-63745095D02*
X140880523Y-63783190D01*
X140880523Y-63783190D02*
X140918619Y-63821285D01*
X140918619Y-63821285D02*
X140956714Y-63783190D01*
X140956714Y-63783190D02*
X140918619Y-63745095D01*
X140918619Y-63745095D02*
X140918619Y-63821285D01*
X141642428Y-64507000D02*
X141566237Y-64545095D01*
X141566237Y-64545095D02*
X141413856Y-64545095D01*
X141413856Y-64545095D02*
X141337666Y-64507000D01*
X141337666Y-64507000D02*
X141299571Y-64468904D01*
X141299571Y-64468904D02*
X141261475Y-64392714D01*
X141261475Y-64392714D02*
X141261475Y-64164142D01*
X141261475Y-64164142D02*
X141299571Y-64087952D01*
X141299571Y-64087952D02*
X141337666Y-64049857D01*
X141337666Y-64049857D02*
X141413856Y-64011761D01*
X141413856Y-64011761D02*
X141566237Y-64011761D01*
X141566237Y-64011761D02*
X141642428Y-64049857D01*
X142290047Y-64507000D02*
X142213856Y-64545095D01*
X142213856Y-64545095D02*
X142061475Y-64545095D01*
X142061475Y-64545095D02*
X141985285Y-64507000D01*
X141985285Y-64507000D02*
X141947189Y-64430809D01*
X141947189Y-64430809D02*
X141947189Y-64126047D01*
X141947189Y-64126047D02*
X141985285Y-64049857D01*
X141985285Y-64049857D02*
X142061475Y-64011761D01*
X142061475Y-64011761D02*
X142213856Y-64011761D01*
X142213856Y-64011761D02*
X142290047Y-64049857D01*
X142290047Y-64049857D02*
X142328142Y-64126047D01*
X142328142Y-64126047D02*
X142328142Y-64202238D01*
X142328142Y-64202238D02*
X141947189Y-64278428D01*
X129894619Y-67765095D02*
X129627952Y-67384142D01*
X129437476Y-67765095D02*
X129437476Y-66965095D01*
X129437476Y-66965095D02*
X129742238Y-66965095D01*
X129742238Y-66965095D02*
X129818428Y-67003190D01*
X129818428Y-67003190D02*
X129856523Y-67041285D01*
X129856523Y-67041285D02*
X129894619Y-67117476D01*
X129894619Y-67117476D02*
X129894619Y-67231761D01*
X129894619Y-67231761D02*
X129856523Y-67307952D01*
X129856523Y-67307952D02*
X129818428Y-67346047D01*
X129818428Y-67346047D02*
X129742238Y-67384142D01*
X129742238Y-67384142D02*
X129437476Y-67384142D01*
X130618428Y-66965095D02*
X130237476Y-66965095D01*
X130237476Y-66965095D02*
X130199380Y-67346047D01*
X130199380Y-67346047D02*
X130237476Y-67307952D01*
X130237476Y-67307952D02*
X130313666Y-67269857D01*
X130313666Y-67269857D02*
X130504142Y-67269857D01*
X130504142Y-67269857D02*
X130580333Y-67307952D01*
X130580333Y-67307952D02*
X130618428Y-67346047D01*
X130618428Y-67346047D02*
X130656523Y-67422238D01*
X130656523Y-67422238D02*
X130656523Y-67612714D01*
X130656523Y-67612714D02*
X130618428Y-67688904D01*
X130618428Y-67688904D02*
X130580333Y-67727000D01*
X130580333Y-67727000D02*
X130504142Y-67765095D01*
X130504142Y-67765095D02*
X130313666Y-67765095D01*
X130313666Y-67765095D02*
X130237476Y-67727000D01*
X130237476Y-67727000D02*
X130199380Y-67688904D01*
X132596999Y-68091285D02*
X132635095Y-68053190D01*
X132635095Y-68053190D02*
X132711285Y-68015095D01*
X132711285Y-68015095D02*
X132901761Y-68015095D01*
X132901761Y-68015095D02*
X132977952Y-68053190D01*
X132977952Y-68053190D02*
X133016047Y-68091285D01*
X133016047Y-68091285D02*
X133054142Y-68167476D01*
X133054142Y-68167476D02*
X133054142Y-68243666D01*
X133054142Y-68243666D02*
X133016047Y-68357952D01*
X133016047Y-68357952D02*
X132558904Y-68815095D01*
X132558904Y-68815095D02*
X133054142Y-68815095D01*
X133397000Y-68738904D02*
X133435095Y-68777000D01*
X133435095Y-68777000D02*
X133397000Y-68815095D01*
X133397000Y-68815095D02*
X133358904Y-68777000D01*
X133358904Y-68777000D02*
X133397000Y-68738904D01*
X133397000Y-68738904D02*
X133397000Y-68815095D01*
X133739856Y-68091285D02*
X133777952Y-68053190D01*
X133777952Y-68053190D02*
X133854142Y-68015095D01*
X133854142Y-68015095D02*
X134044618Y-68015095D01*
X134044618Y-68015095D02*
X134120809Y-68053190D01*
X134120809Y-68053190D02*
X134158904Y-68091285D01*
X134158904Y-68091285D02*
X134196999Y-68167476D01*
X134196999Y-68167476D02*
X134196999Y-68243666D01*
X134196999Y-68243666D02*
X134158904Y-68357952D01*
X134158904Y-68357952D02*
X133701761Y-68815095D01*
X133701761Y-68815095D02*
X134196999Y-68815095D01*
X134539857Y-68815095D02*
X134539857Y-68015095D01*
X134616047Y-68510333D02*
X134844619Y-68815095D01*
X134844619Y-68281761D02*
X134539857Y-68586523D01*
X137173714Y-106651131D02*
X136907047Y-106270178D01*
X136716571Y-106651131D02*
X136716571Y-105851131D01*
X136716571Y-105851131D02*
X137021333Y-105851131D01*
X137021333Y-105851131D02*
X137097523Y-105889226D01*
X137097523Y-105889226D02*
X137135618Y-105927321D01*
X137135618Y-105927321D02*
X137173714Y-106003512D01*
X137173714Y-106003512D02*
X137173714Y-106117797D01*
X137173714Y-106117797D02*
X137135618Y-106193988D01*
X137135618Y-106193988D02*
X137097523Y-106232083D01*
X137097523Y-106232083D02*
X137021333Y-106270178D01*
X137021333Y-106270178D02*
X136716571Y-106270178D01*
X137935618Y-106651131D02*
X137478475Y-106651131D01*
X137707047Y-106651131D02*
X137707047Y-105851131D01*
X137707047Y-105851131D02*
X137630856Y-105965416D01*
X137630856Y-105965416D02*
X137554666Y-106041607D01*
X137554666Y-106041607D02*
X137478475Y-106079702D01*
X132871333Y-105067797D02*
X132871333Y-105601131D01*
X132680857Y-104763036D02*
X132490380Y-105334464D01*
X132490380Y-105334464D02*
X132985619Y-105334464D01*
X133290381Y-105524940D02*
X133328476Y-105563036D01*
X133328476Y-105563036D02*
X133290381Y-105601131D01*
X133290381Y-105601131D02*
X133252285Y-105563036D01*
X133252285Y-105563036D02*
X133290381Y-105524940D01*
X133290381Y-105524940D02*
X133290381Y-105601131D01*
X133595142Y-104801131D02*
X134128476Y-104801131D01*
X134128476Y-104801131D02*
X133785618Y-105601131D01*
X134433238Y-105601131D02*
X134433238Y-104801131D01*
X134509428Y-105296369D02*
X134738000Y-105601131D01*
X134738000Y-105067797D02*
X134433238Y-105372559D01*
X131064333Y-76130380D02*
X131016714Y-76178000D01*
X131016714Y-76178000D02*
X130873857Y-76225619D01*
X130873857Y-76225619D02*
X130778619Y-76225619D01*
X130778619Y-76225619D02*
X130635762Y-76178000D01*
X130635762Y-76178000D02*
X130540524Y-76082761D01*
X130540524Y-76082761D02*
X130492905Y-75987523D01*
X130492905Y-75987523D02*
X130445286Y-75797047D01*
X130445286Y-75797047D02*
X130445286Y-75654190D01*
X130445286Y-75654190D02*
X130492905Y-75463714D01*
X130492905Y-75463714D02*
X130540524Y-75368476D01*
X130540524Y-75368476D02*
X130635762Y-75273238D01*
X130635762Y-75273238D02*
X130778619Y-75225619D01*
X130778619Y-75225619D02*
X130873857Y-75225619D01*
X130873857Y-75225619D02*
X131016714Y-75273238D01*
X131016714Y-75273238D02*
X131064333Y-75320857D01*
X131969095Y-75225619D02*
X131492905Y-75225619D01*
X131492905Y-75225619D02*
X131445286Y-75701809D01*
X131445286Y-75701809D02*
X131492905Y-75654190D01*
X131492905Y-75654190D02*
X131588143Y-75606571D01*
X131588143Y-75606571D02*
X131826238Y-75606571D01*
X131826238Y-75606571D02*
X131921476Y-75654190D01*
X131921476Y-75654190D02*
X131969095Y-75701809D01*
X131969095Y-75701809D02*
X132016714Y-75797047D01*
X132016714Y-75797047D02*
X132016714Y-76035142D01*
X132016714Y-76035142D02*
X131969095Y-76130380D01*
X131969095Y-76130380D02*
X131921476Y-76178000D01*
X131921476Y-76178000D02*
X131826238Y-76225619D01*
X131826238Y-76225619D02*
X131588143Y-76225619D01*
X131588143Y-76225619D02*
X131492905Y-76178000D01*
X131492905Y-76178000D02*
X131445286Y-76130380D01*
X149322619Y-102155143D02*
X149322619Y-101726572D01*
X150322619Y-101940857D02*
X149322619Y-101940857D01*
X150322619Y-101476571D02*
X149322619Y-101476571D01*
X149322619Y-101476571D02*
X149322619Y-101190857D01*
X149322619Y-101190857D02*
X149370238Y-101119428D01*
X149370238Y-101119428D02*
X149417857Y-101083714D01*
X149417857Y-101083714D02*
X149513095Y-101048000D01*
X149513095Y-101048000D02*
X149655952Y-101048000D01*
X149655952Y-101048000D02*
X149751190Y-101083714D01*
X149751190Y-101083714D02*
X149798809Y-101119428D01*
X149798809Y-101119428D02*
X149846428Y-101190857D01*
X149846428Y-101190857D02*
X149846428Y-101476571D01*
X150417857Y-100905143D02*
X150417857Y-100333714D01*
X150275000Y-100190856D02*
X150322619Y-100083714D01*
X150322619Y-100083714D02*
X150322619Y-99905142D01*
X150322619Y-99905142D02*
X150275000Y-99833714D01*
X150275000Y-99833714D02*
X150227380Y-99797999D01*
X150227380Y-99797999D02*
X150132142Y-99762285D01*
X150132142Y-99762285D02*
X150036904Y-99762285D01*
X150036904Y-99762285D02*
X149941666Y-99797999D01*
X149941666Y-99797999D02*
X149894047Y-99833714D01*
X149894047Y-99833714D02*
X149846428Y-99905142D01*
X149846428Y-99905142D02*
X149798809Y-100047999D01*
X149798809Y-100047999D02*
X149751190Y-100119428D01*
X149751190Y-100119428D02*
X149703571Y-100155142D01*
X149703571Y-100155142D02*
X149608333Y-100190856D01*
X149608333Y-100190856D02*
X149513095Y-100190856D01*
X149513095Y-100190856D02*
X149417857Y-100155142D01*
X149417857Y-100155142D02*
X149370238Y-100119428D01*
X149370238Y-100119428D02*
X149322619Y-100047999D01*
X149322619Y-100047999D02*
X149322619Y-99869428D01*
X149322619Y-99869428D02*
X149370238Y-99762285D01*
X150036904Y-99476570D02*
X150036904Y-99119428D01*
X150322619Y-99547999D02*
X149322619Y-99297999D01*
X149322619Y-99297999D02*
X150322619Y-99047999D01*
X149322619Y-98869428D02*
X150322619Y-98690856D01*
X150322619Y-98690856D02*
X149608333Y-98547999D01*
X149608333Y-98547999D02*
X150322619Y-98405142D01*
X150322619Y-98405142D02*
X149322619Y-98226571D01*
X150417857Y-98119428D02*
X150417857Y-97547999D01*
X149798809Y-97119427D02*
X149846428Y-97012284D01*
X149846428Y-97012284D02*
X149894047Y-96976570D01*
X149894047Y-96976570D02*
X149989285Y-96940856D01*
X149989285Y-96940856D02*
X150132142Y-96940856D01*
X150132142Y-96940856D02*
X150227380Y-96976570D01*
X150227380Y-96976570D02*
X150275000Y-97012284D01*
X150275000Y-97012284D02*
X150322619Y-97083713D01*
X150322619Y-97083713D02*
X150322619Y-97369427D01*
X150322619Y-97369427D02*
X149322619Y-97369427D01*
X149322619Y-97369427D02*
X149322619Y-97119427D01*
X149322619Y-97119427D02*
X149370238Y-97047999D01*
X149370238Y-97047999D02*
X149417857Y-97012284D01*
X149417857Y-97012284D02*
X149513095Y-96976570D01*
X149513095Y-96976570D02*
X149608333Y-96976570D01*
X149608333Y-96976570D02*
X149703571Y-97012284D01*
X149703571Y-97012284D02*
X149751190Y-97047999D01*
X149751190Y-97047999D02*
X149798809Y-97119427D01*
X149798809Y-97119427D02*
X149798809Y-97369427D01*
X150322619Y-96619427D02*
X149322619Y-96619427D01*
X150036904Y-96297998D02*
X150036904Y-95940856D01*
X150322619Y-96369427D02*
X149322619Y-96119427D01*
X149322619Y-96119427D02*
X150322619Y-95869427D01*
X150275000Y-95655141D02*
X150322619Y-95547999D01*
X150322619Y-95547999D02*
X150322619Y-95369427D01*
X150322619Y-95369427D02*
X150275000Y-95297999D01*
X150275000Y-95297999D02*
X150227380Y-95262284D01*
X150227380Y-95262284D02*
X150132142Y-95226570D01*
X150132142Y-95226570D02*
X150036904Y-95226570D01*
X150036904Y-95226570D02*
X149941666Y-95262284D01*
X149941666Y-95262284D02*
X149894047Y-95297999D01*
X149894047Y-95297999D02*
X149846428Y-95369427D01*
X149846428Y-95369427D02*
X149798809Y-95512284D01*
X149798809Y-95512284D02*
X149751190Y-95583713D01*
X149751190Y-95583713D02*
X149703571Y-95619427D01*
X149703571Y-95619427D02*
X149608333Y-95655141D01*
X149608333Y-95655141D02*
X149513095Y-95655141D01*
X149513095Y-95655141D02*
X149417857Y-95619427D01*
X149417857Y-95619427D02*
X149370238Y-95583713D01*
X149370238Y-95583713D02*
X149322619Y-95512284D01*
X149322619Y-95512284D02*
X149322619Y-95333713D01*
X149322619Y-95333713D02*
X149370238Y-95226570D01*
X150322619Y-94512284D02*
X150322619Y-94940855D01*
X150322619Y-94726570D02*
X149322619Y-94726570D01*
X149322619Y-94726570D02*
X149465476Y-94797998D01*
X149465476Y-94797998D02*
X149560714Y-94869427D01*
X149560714Y-94869427D02*
X149608333Y-94940855D01*
X145939619Y-52398095D02*
X145672952Y-52017142D01*
X145482476Y-52398095D02*
X145482476Y-51598095D01*
X145482476Y-51598095D02*
X145787238Y-51598095D01*
X145787238Y-51598095D02*
X145863428Y-51636190D01*
X145863428Y-51636190D02*
X145901523Y-51674285D01*
X145901523Y-51674285D02*
X145939619Y-51750476D01*
X145939619Y-51750476D02*
X145939619Y-51864761D01*
X145939619Y-51864761D02*
X145901523Y-51940952D01*
X145901523Y-51940952D02*
X145863428Y-51979047D01*
X145863428Y-51979047D02*
X145787238Y-52017142D01*
X145787238Y-52017142D02*
X145482476Y-52017142D01*
X146701523Y-52398095D02*
X146244380Y-52398095D01*
X146472952Y-52398095D02*
X146472952Y-51598095D01*
X146472952Y-51598095D02*
X146396761Y-51712380D01*
X146396761Y-51712380D02*
X146320571Y-51788571D01*
X146320571Y-51788571D02*
X146244380Y-51826666D01*
X147196762Y-51598095D02*
X147272952Y-51598095D01*
X147272952Y-51598095D02*
X147349143Y-51636190D01*
X147349143Y-51636190D02*
X147387238Y-51674285D01*
X147387238Y-51674285D02*
X147425333Y-51750476D01*
X147425333Y-51750476D02*
X147463428Y-51902857D01*
X147463428Y-51902857D02*
X147463428Y-52093333D01*
X147463428Y-52093333D02*
X147425333Y-52245714D01*
X147425333Y-52245714D02*
X147387238Y-52321904D01*
X147387238Y-52321904D02*
X147349143Y-52360000D01*
X147349143Y-52360000D02*
X147272952Y-52398095D01*
X147272952Y-52398095D02*
X147196762Y-52398095D01*
X147196762Y-52398095D02*
X147120571Y-52360000D01*
X147120571Y-52360000D02*
X147082476Y-52321904D01*
X147082476Y-52321904D02*
X147044381Y-52245714D01*
X147044381Y-52245714D02*
X147006285Y-52093333D01*
X147006285Y-52093333D02*
X147006285Y-51902857D01*
X147006285Y-51902857D02*
X147044381Y-51750476D01*
X147044381Y-51750476D02*
X147082476Y-51674285D01*
X147082476Y-51674285D02*
X147120571Y-51636190D01*
X147120571Y-51636190D02*
X147196762Y-51598095D01*
X148641999Y-52914761D02*
X148641999Y-53448095D01*
X148451523Y-52610000D02*
X148261046Y-53181428D01*
X148261046Y-53181428D02*
X148756285Y-53181428D01*
X148984856Y-52648095D02*
X149518190Y-52648095D01*
X149518190Y-52648095D02*
X149175332Y-53448095D01*
X149975333Y-52648095D02*
X150051523Y-52648095D01*
X150051523Y-52648095D02*
X150127714Y-52686190D01*
X150127714Y-52686190D02*
X150165809Y-52724285D01*
X150165809Y-52724285D02*
X150203904Y-52800476D01*
X150203904Y-52800476D02*
X150241999Y-52952857D01*
X150241999Y-52952857D02*
X150241999Y-53143333D01*
X150241999Y-53143333D02*
X150203904Y-53295714D01*
X150203904Y-53295714D02*
X150165809Y-53371904D01*
X150165809Y-53371904D02*
X150127714Y-53410000D01*
X150127714Y-53410000D02*
X150051523Y-53448095D01*
X150051523Y-53448095D02*
X149975333Y-53448095D01*
X149975333Y-53448095D02*
X149899142Y-53410000D01*
X149899142Y-53410000D02*
X149861047Y-53371904D01*
X149861047Y-53371904D02*
X149822952Y-53295714D01*
X149822952Y-53295714D02*
X149784856Y-53143333D01*
X149784856Y-53143333D02*
X149784856Y-52952857D01*
X149784856Y-52952857D02*
X149822952Y-52800476D01*
X149822952Y-52800476D02*
X149861047Y-52724285D01*
X149861047Y-52724285D02*
X149899142Y-52686190D01*
X149899142Y-52686190D02*
X149975333Y-52648095D01*
X150584857Y-53448095D02*
X150584857Y-52648095D01*
X150661047Y-53143333D02*
X150889619Y-53448095D01*
X150889619Y-52914761D02*
X150584857Y-53219523D01*
X139927619Y-67765095D02*
X139660952Y-67384142D01*
X139470476Y-67765095D02*
X139470476Y-66965095D01*
X139470476Y-66965095D02*
X139775238Y-66965095D01*
X139775238Y-66965095D02*
X139851428Y-67003190D01*
X139851428Y-67003190D02*
X139889523Y-67041285D01*
X139889523Y-67041285D02*
X139927619Y-67117476D01*
X139927619Y-67117476D02*
X139927619Y-67231761D01*
X139927619Y-67231761D02*
X139889523Y-67307952D01*
X139889523Y-67307952D02*
X139851428Y-67346047D01*
X139851428Y-67346047D02*
X139775238Y-67384142D01*
X139775238Y-67384142D02*
X139470476Y-67384142D01*
X140613333Y-66965095D02*
X140460952Y-66965095D01*
X140460952Y-66965095D02*
X140384761Y-67003190D01*
X140384761Y-67003190D02*
X140346666Y-67041285D01*
X140346666Y-67041285D02*
X140270476Y-67155571D01*
X140270476Y-67155571D02*
X140232380Y-67307952D01*
X140232380Y-67307952D02*
X140232380Y-67612714D01*
X140232380Y-67612714D02*
X140270476Y-67688904D01*
X140270476Y-67688904D02*
X140308571Y-67727000D01*
X140308571Y-67727000D02*
X140384761Y-67765095D01*
X140384761Y-67765095D02*
X140537142Y-67765095D01*
X140537142Y-67765095D02*
X140613333Y-67727000D01*
X140613333Y-67727000D02*
X140651428Y-67688904D01*
X140651428Y-67688904D02*
X140689523Y-67612714D01*
X140689523Y-67612714D02*
X140689523Y-67422238D01*
X140689523Y-67422238D02*
X140651428Y-67346047D01*
X140651428Y-67346047D02*
X140613333Y-67307952D01*
X140613333Y-67307952D02*
X140537142Y-67269857D01*
X140537142Y-67269857D02*
X140384761Y-67269857D01*
X140384761Y-67269857D02*
X140308571Y-67307952D01*
X140308571Y-67307952D02*
X140270476Y-67346047D01*
X140270476Y-67346047D02*
X140232380Y-67422238D01*
X142706189Y-68815095D02*
X142249046Y-68815095D01*
X142477618Y-68815095D02*
X142477618Y-68015095D01*
X142477618Y-68015095D02*
X142401427Y-68129380D01*
X142401427Y-68129380D02*
X142325237Y-68205571D01*
X142325237Y-68205571D02*
X142249046Y-68243666D01*
X143201428Y-68015095D02*
X143277618Y-68015095D01*
X143277618Y-68015095D02*
X143353809Y-68053190D01*
X143353809Y-68053190D02*
X143391904Y-68091285D01*
X143391904Y-68091285D02*
X143429999Y-68167476D01*
X143429999Y-68167476D02*
X143468094Y-68319857D01*
X143468094Y-68319857D02*
X143468094Y-68510333D01*
X143468094Y-68510333D02*
X143429999Y-68662714D01*
X143429999Y-68662714D02*
X143391904Y-68738904D01*
X143391904Y-68738904D02*
X143353809Y-68777000D01*
X143353809Y-68777000D02*
X143277618Y-68815095D01*
X143277618Y-68815095D02*
X143201428Y-68815095D01*
X143201428Y-68815095D02*
X143125237Y-68777000D01*
X143125237Y-68777000D02*
X143087142Y-68738904D01*
X143087142Y-68738904D02*
X143049047Y-68662714D01*
X143049047Y-68662714D02*
X143010951Y-68510333D01*
X143010951Y-68510333D02*
X143010951Y-68319857D01*
X143010951Y-68319857D02*
X143049047Y-68167476D01*
X143049047Y-68167476D02*
X143087142Y-68091285D01*
X143087142Y-68091285D02*
X143125237Y-68053190D01*
X143125237Y-68053190D02*
X143201428Y-68015095D01*
X143963333Y-68015095D02*
X144039523Y-68015095D01*
X144039523Y-68015095D02*
X144115714Y-68053190D01*
X144115714Y-68053190D02*
X144153809Y-68091285D01*
X144153809Y-68091285D02*
X144191904Y-68167476D01*
X144191904Y-68167476D02*
X144229999Y-68319857D01*
X144229999Y-68319857D02*
X144229999Y-68510333D01*
X144229999Y-68510333D02*
X144191904Y-68662714D01*
X144191904Y-68662714D02*
X144153809Y-68738904D01*
X144153809Y-68738904D02*
X144115714Y-68777000D01*
X144115714Y-68777000D02*
X144039523Y-68815095D01*
X144039523Y-68815095D02*
X143963333Y-68815095D01*
X143963333Y-68815095D02*
X143887142Y-68777000D01*
X143887142Y-68777000D02*
X143849047Y-68738904D01*
X143849047Y-68738904D02*
X143810952Y-68662714D01*
X143810952Y-68662714D02*
X143772856Y-68510333D01*
X143772856Y-68510333D02*
X143772856Y-68319857D01*
X143772856Y-68319857D02*
X143810952Y-68167476D01*
X143810952Y-68167476D02*
X143849047Y-68091285D01*
X143849047Y-68091285D02*
X143887142Y-68053190D01*
X143887142Y-68053190D02*
X143963333Y-68015095D01*
X144572857Y-68815095D02*
X144572857Y-68015095D01*
X144649047Y-68510333D02*
X144877619Y-68815095D01*
X144877619Y-68281761D02*
X144572857Y-68586523D01*
X133945333Y-100951380D02*
X133897714Y-100999000D01*
X133897714Y-100999000D02*
X133754857Y-101046619D01*
X133754857Y-101046619D02*
X133659619Y-101046619D01*
X133659619Y-101046619D02*
X133516762Y-100999000D01*
X133516762Y-100999000D02*
X133421524Y-100903761D01*
X133421524Y-100903761D02*
X133373905Y-100808523D01*
X133373905Y-100808523D02*
X133326286Y-100618047D01*
X133326286Y-100618047D02*
X133326286Y-100475190D01*
X133326286Y-100475190D02*
X133373905Y-100284714D01*
X133373905Y-100284714D02*
X133421524Y-100189476D01*
X133421524Y-100189476D02*
X133516762Y-100094238D01*
X133516762Y-100094238D02*
X133659619Y-100046619D01*
X133659619Y-100046619D02*
X133754857Y-100046619D01*
X133754857Y-100046619D02*
X133897714Y-100094238D01*
X133897714Y-100094238D02*
X133945333Y-100141857D01*
X134802476Y-100379952D02*
X134802476Y-101046619D01*
X134564381Y-99999000D02*
X134326286Y-100713285D01*
X134326286Y-100713285D02*
X134945333Y-100713285D01*
X153132619Y-77215380D02*
X153132619Y-76643952D01*
X154132619Y-76929666D02*
X153132619Y-76929666D01*
X154132619Y-76310618D02*
X153132619Y-76310618D01*
X153132619Y-76310618D02*
X153132619Y-75929666D01*
X153132619Y-75929666D02*
X153180238Y-75834428D01*
X153180238Y-75834428D02*
X153227857Y-75786809D01*
X153227857Y-75786809D02*
X153323095Y-75739190D01*
X153323095Y-75739190D02*
X153465952Y-75739190D01*
X153465952Y-75739190D02*
X153561190Y-75786809D01*
X153561190Y-75786809D02*
X153608809Y-75834428D01*
X153608809Y-75834428D02*
X153656428Y-75929666D01*
X153656428Y-75929666D02*
X153656428Y-76310618D01*
X154227857Y-75548714D02*
X154227857Y-74786809D01*
X154085000Y-74596332D02*
X154132619Y-74453475D01*
X154132619Y-74453475D02*
X154132619Y-74215380D01*
X154132619Y-74215380D02*
X154085000Y-74120142D01*
X154085000Y-74120142D02*
X154037380Y-74072523D01*
X154037380Y-74072523D02*
X153942142Y-74024904D01*
X153942142Y-74024904D02*
X153846904Y-74024904D01*
X153846904Y-74024904D02*
X153751666Y-74072523D01*
X153751666Y-74072523D02*
X153704047Y-74120142D01*
X153704047Y-74120142D02*
X153656428Y-74215380D01*
X153656428Y-74215380D02*
X153608809Y-74405856D01*
X153608809Y-74405856D02*
X153561190Y-74501094D01*
X153561190Y-74501094D02*
X153513571Y-74548713D01*
X153513571Y-74548713D02*
X153418333Y-74596332D01*
X153418333Y-74596332D02*
X153323095Y-74596332D01*
X153323095Y-74596332D02*
X153227857Y-74548713D01*
X153227857Y-74548713D02*
X153180238Y-74501094D01*
X153180238Y-74501094D02*
X153132619Y-74405856D01*
X153132619Y-74405856D02*
X153132619Y-74167761D01*
X153132619Y-74167761D02*
X153180238Y-74024904D01*
X154227857Y-72929666D02*
X154180238Y-73024904D01*
X154180238Y-73024904D02*
X154085000Y-73120142D01*
X154085000Y-73120142D02*
X153942142Y-73262999D01*
X153942142Y-73262999D02*
X153894523Y-73358237D01*
X153894523Y-73358237D02*
X153894523Y-73453475D01*
X154132619Y-73405856D02*
X154085000Y-73501094D01*
X154085000Y-73501094D02*
X153989761Y-73596332D01*
X153989761Y-73596332D02*
X153799285Y-73643951D01*
X153799285Y-73643951D02*
X153465952Y-73643951D01*
X153465952Y-73643951D02*
X153275476Y-73596332D01*
X153275476Y-73596332D02*
X153180238Y-73501094D01*
X153180238Y-73501094D02*
X153132619Y-73405856D01*
X153132619Y-73405856D02*
X153132619Y-73215380D01*
X153132619Y-73215380D02*
X153180238Y-73120142D01*
X153180238Y-73120142D02*
X153275476Y-73024904D01*
X153275476Y-73024904D02*
X153465952Y-72977285D01*
X153465952Y-72977285D02*
X153799285Y-72977285D01*
X153799285Y-72977285D02*
X153989761Y-73024904D01*
X153989761Y-73024904D02*
X154085000Y-73120142D01*
X154085000Y-73120142D02*
X154132619Y-73215380D01*
X154132619Y-73215380D02*
X154132619Y-73405856D01*
X154132619Y-71977285D02*
X153656428Y-72310618D01*
X154132619Y-72548713D02*
X153132619Y-72548713D01*
X153132619Y-72548713D02*
X153132619Y-72167761D01*
X153132619Y-72167761D02*
X153180238Y-72072523D01*
X153180238Y-72072523D02*
X153227857Y-72024904D01*
X153227857Y-72024904D02*
X153323095Y-71977285D01*
X153323095Y-71977285D02*
X153465952Y-71977285D01*
X153465952Y-71977285D02*
X153561190Y-72024904D01*
X153561190Y-72024904D02*
X153608809Y-72072523D01*
X153608809Y-72072523D02*
X153656428Y-72167761D01*
X153656428Y-72167761D02*
X153656428Y-72548713D01*
X154227857Y-71786809D02*
X154227857Y-71024904D01*
X153132619Y-70596332D02*
X153132619Y-70405856D01*
X153132619Y-70405856D02*
X153180238Y-70310618D01*
X153180238Y-70310618D02*
X153275476Y-70215380D01*
X153275476Y-70215380D02*
X153465952Y-70167761D01*
X153465952Y-70167761D02*
X153799285Y-70167761D01*
X153799285Y-70167761D02*
X153989761Y-70215380D01*
X153989761Y-70215380D02*
X154085000Y-70310618D01*
X154085000Y-70310618D02*
X154132619Y-70405856D01*
X154132619Y-70405856D02*
X154132619Y-70596332D01*
X154132619Y-70596332D02*
X154085000Y-70691570D01*
X154085000Y-70691570D02*
X153989761Y-70786808D01*
X153989761Y-70786808D02*
X153799285Y-70834427D01*
X153799285Y-70834427D02*
X153465952Y-70834427D01*
X153465952Y-70834427D02*
X153275476Y-70786808D01*
X153275476Y-70786808D02*
X153180238Y-70691570D01*
X153180238Y-70691570D02*
X153132619Y-70596332D01*
X153132619Y-69739189D02*
X153942142Y-69739189D01*
X153942142Y-69739189D02*
X154037380Y-69691570D01*
X154037380Y-69691570D02*
X154085000Y-69643951D01*
X154085000Y-69643951D02*
X154132619Y-69548713D01*
X154132619Y-69548713D02*
X154132619Y-69358237D01*
X154132619Y-69358237D02*
X154085000Y-69262999D01*
X154085000Y-69262999D02*
X154037380Y-69215380D01*
X154037380Y-69215380D02*
X153942142Y-69167761D01*
X153942142Y-69167761D02*
X153132619Y-69167761D01*
X153132619Y-68834427D02*
X153132619Y-68262999D01*
X154132619Y-68548713D02*
X153132619Y-68548713D01*
X154132619Y-67405856D02*
X154132619Y-67977284D01*
X154132619Y-67691570D02*
X153132619Y-67691570D01*
X153132619Y-67691570D02*
X153275476Y-67786808D01*
X153275476Y-67786808D02*
X153370714Y-67882046D01*
X153370714Y-67882046D02*
X153418333Y-67977284D01*
X149535809Y-56702423D02*
X149269142Y-56321470D01*
X149078666Y-56702423D02*
X149078666Y-55902423D01*
X149078666Y-55902423D02*
X149383428Y-55902423D01*
X149383428Y-55902423D02*
X149459618Y-55940518D01*
X149459618Y-55940518D02*
X149497713Y-55978613D01*
X149497713Y-55978613D02*
X149535809Y-56054804D01*
X149535809Y-56054804D02*
X149535809Y-56169089D01*
X149535809Y-56169089D02*
X149497713Y-56245280D01*
X149497713Y-56245280D02*
X149459618Y-56283375D01*
X149459618Y-56283375D02*
X149383428Y-56321470D01*
X149383428Y-56321470D02*
X149078666Y-56321470D01*
X150297713Y-56702423D02*
X149840570Y-56702423D01*
X150069142Y-56702423D02*
X150069142Y-55902423D01*
X150069142Y-55902423D02*
X149992951Y-56016708D01*
X149992951Y-56016708D02*
X149916761Y-56092899D01*
X149916761Y-56092899D02*
X149840570Y-56130994D01*
X150602475Y-55978613D02*
X150640571Y-55940518D01*
X150640571Y-55940518D02*
X150716761Y-55902423D01*
X150716761Y-55902423D02*
X150907237Y-55902423D01*
X150907237Y-55902423D02*
X150983428Y-55940518D01*
X150983428Y-55940518D02*
X151021523Y-55978613D01*
X151021523Y-55978613D02*
X151059618Y-56054804D01*
X151059618Y-56054804D02*
X151059618Y-56130994D01*
X151059618Y-56130994D02*
X151021523Y-56245280D01*
X151021523Y-56245280D02*
X150564380Y-56702423D01*
X150564380Y-56702423D02*
X151059618Y-56702423D01*
X146071523Y-55652423D02*
X145614380Y-55652423D01*
X145842952Y-55652423D02*
X145842952Y-54852423D01*
X145842952Y-54852423D02*
X145766761Y-54966708D01*
X145766761Y-54966708D02*
X145690571Y-55042899D01*
X145690571Y-55042899D02*
X145614380Y-55080994D01*
X146795333Y-54852423D02*
X146414381Y-54852423D01*
X146414381Y-54852423D02*
X146376285Y-55233375D01*
X146376285Y-55233375D02*
X146414381Y-55195280D01*
X146414381Y-55195280D02*
X146490571Y-55157185D01*
X146490571Y-55157185D02*
X146681047Y-55157185D01*
X146681047Y-55157185D02*
X146757238Y-55195280D01*
X146757238Y-55195280D02*
X146795333Y-55233375D01*
X146795333Y-55233375D02*
X146833428Y-55309566D01*
X146833428Y-55309566D02*
X146833428Y-55500042D01*
X146833428Y-55500042D02*
X146795333Y-55576232D01*
X146795333Y-55576232D02*
X146757238Y-55614328D01*
X146757238Y-55614328D02*
X146681047Y-55652423D01*
X146681047Y-55652423D02*
X146490571Y-55652423D01*
X146490571Y-55652423D02*
X146414381Y-55614328D01*
X146414381Y-55614328D02*
X146376285Y-55576232D01*
X147176286Y-55652423D02*
X147176286Y-54852423D01*
X147252476Y-55347661D02*
X147481048Y-55652423D01*
X147481048Y-55119089D02*
X147176286Y-55423851D01*
X129552619Y-84850131D02*
X129285952Y-84469178D01*
X129095476Y-84850131D02*
X129095476Y-84050131D01*
X129095476Y-84050131D02*
X129400238Y-84050131D01*
X129400238Y-84050131D02*
X129476428Y-84088226D01*
X129476428Y-84088226D02*
X129514523Y-84126321D01*
X129514523Y-84126321D02*
X129552619Y-84202512D01*
X129552619Y-84202512D02*
X129552619Y-84316797D01*
X129552619Y-84316797D02*
X129514523Y-84392988D01*
X129514523Y-84392988D02*
X129476428Y-84431083D01*
X129476428Y-84431083D02*
X129400238Y-84469178D01*
X129400238Y-84469178D02*
X129095476Y-84469178D01*
X129819285Y-84050131D02*
X130314523Y-84050131D01*
X130314523Y-84050131D02*
X130047857Y-84354893D01*
X130047857Y-84354893D02*
X130162142Y-84354893D01*
X130162142Y-84354893D02*
X130238333Y-84392988D01*
X130238333Y-84392988D02*
X130276428Y-84431083D01*
X130276428Y-84431083D02*
X130314523Y-84507274D01*
X130314523Y-84507274D02*
X130314523Y-84697750D01*
X130314523Y-84697750D02*
X130276428Y-84773940D01*
X130276428Y-84773940D02*
X130238333Y-84812036D01*
X130238333Y-84812036D02*
X130162142Y-84850131D01*
X130162142Y-84850131D02*
X129933571Y-84850131D01*
X129933571Y-84850131D02*
X129857380Y-84812036D01*
X129857380Y-84812036D02*
X129819285Y-84773940D01*
X131204046Y-85176321D02*
X131242142Y-85138226D01*
X131242142Y-85138226D02*
X131318332Y-85100131D01*
X131318332Y-85100131D02*
X131508808Y-85100131D01*
X131508808Y-85100131D02*
X131584999Y-85138226D01*
X131584999Y-85138226D02*
X131623094Y-85176321D01*
X131623094Y-85176321D02*
X131661189Y-85252512D01*
X131661189Y-85252512D02*
X131661189Y-85328702D01*
X131661189Y-85328702D02*
X131623094Y-85442988D01*
X131623094Y-85442988D02*
X131165951Y-85900131D01*
X131165951Y-85900131D02*
X131661189Y-85900131D01*
X132156428Y-85100131D02*
X132232618Y-85100131D01*
X132232618Y-85100131D02*
X132308809Y-85138226D01*
X132308809Y-85138226D02*
X132346904Y-85176321D01*
X132346904Y-85176321D02*
X132384999Y-85252512D01*
X132384999Y-85252512D02*
X132423094Y-85404893D01*
X132423094Y-85404893D02*
X132423094Y-85595369D01*
X132423094Y-85595369D02*
X132384999Y-85747750D01*
X132384999Y-85747750D02*
X132346904Y-85823940D01*
X132346904Y-85823940D02*
X132308809Y-85862036D01*
X132308809Y-85862036D02*
X132232618Y-85900131D01*
X132232618Y-85900131D02*
X132156428Y-85900131D01*
X132156428Y-85900131D02*
X132080237Y-85862036D01*
X132080237Y-85862036D02*
X132042142Y-85823940D01*
X132042142Y-85823940D02*
X132004047Y-85747750D01*
X132004047Y-85747750D02*
X131965951Y-85595369D01*
X131965951Y-85595369D02*
X131965951Y-85404893D01*
X131965951Y-85404893D02*
X132004047Y-85252512D01*
X132004047Y-85252512D02*
X132042142Y-85176321D01*
X132042142Y-85176321D02*
X132080237Y-85138226D01*
X132080237Y-85138226D02*
X132156428Y-85100131D01*
X132918333Y-85100131D02*
X132994523Y-85100131D01*
X132994523Y-85100131D02*
X133070714Y-85138226D01*
X133070714Y-85138226D02*
X133108809Y-85176321D01*
X133108809Y-85176321D02*
X133146904Y-85252512D01*
X133146904Y-85252512D02*
X133184999Y-85404893D01*
X133184999Y-85404893D02*
X133184999Y-85595369D01*
X133184999Y-85595369D02*
X133146904Y-85747750D01*
X133146904Y-85747750D02*
X133108809Y-85823940D01*
X133108809Y-85823940D02*
X133070714Y-85862036D01*
X133070714Y-85862036D02*
X132994523Y-85900131D01*
X132994523Y-85900131D02*
X132918333Y-85900131D01*
X132918333Y-85900131D02*
X132842142Y-85862036D01*
X132842142Y-85862036D02*
X132804047Y-85823940D01*
X132804047Y-85823940D02*
X132765952Y-85747750D01*
X132765952Y-85747750D02*
X132727856Y-85595369D01*
X132727856Y-85595369D02*
X132727856Y-85404893D01*
X132727856Y-85404893D02*
X132765952Y-85252512D01*
X132765952Y-85252512D02*
X132804047Y-85176321D01*
X132804047Y-85176321D02*
X132842142Y-85138226D01*
X132842142Y-85138226D02*
X132918333Y-85100131D01*
X133527857Y-85900131D02*
X133527857Y-85100131D01*
X133604047Y-85595369D02*
X133832619Y-85900131D01*
X133832619Y-85366797D02*
X133527857Y-85671559D01*
X134252333Y-82617416D02*
X134204714Y-82665036D01*
X134204714Y-82665036D02*
X134061857Y-82712655D01*
X134061857Y-82712655D02*
X133966619Y-82712655D01*
X133966619Y-82712655D02*
X133823762Y-82665036D01*
X133823762Y-82665036D02*
X133728524Y-82569797D01*
X133728524Y-82569797D02*
X133680905Y-82474559D01*
X133680905Y-82474559D02*
X133633286Y-82284083D01*
X133633286Y-82284083D02*
X133633286Y-82141226D01*
X133633286Y-82141226D02*
X133680905Y-81950750D01*
X133680905Y-81950750D02*
X133728524Y-81855512D01*
X133728524Y-81855512D02*
X133823762Y-81760274D01*
X133823762Y-81760274D02*
X133966619Y-81712655D01*
X133966619Y-81712655D02*
X134061857Y-81712655D01*
X134061857Y-81712655D02*
X134204714Y-81760274D01*
X134204714Y-81760274D02*
X134252333Y-81807893D01*
X135204714Y-82712655D02*
X134633286Y-82712655D01*
X134919000Y-82712655D02*
X134919000Y-81712655D01*
X134919000Y-81712655D02*
X134823762Y-81855512D01*
X134823762Y-81855512D02*
X134728524Y-81950750D01*
X134728524Y-81950750D02*
X134633286Y-81998369D01*
X142591619Y-107346047D02*
X142591619Y-106774619D01*
X143591619Y-107060333D02*
X142591619Y-107060333D01*
X143591619Y-106441285D02*
X142591619Y-106441285D01*
X142591619Y-106441285D02*
X142591619Y-106060333D01*
X142591619Y-106060333D02*
X142639238Y-105965095D01*
X142639238Y-105965095D02*
X142686857Y-105917476D01*
X142686857Y-105917476D02*
X142782095Y-105869857D01*
X142782095Y-105869857D02*
X142924952Y-105869857D01*
X142924952Y-105869857D02*
X143020190Y-105917476D01*
X143020190Y-105917476D02*
X143067809Y-105965095D01*
X143067809Y-105965095D02*
X143115428Y-106060333D01*
X143115428Y-106060333D02*
X143115428Y-106441285D01*
X143686857Y-105679381D02*
X143686857Y-104917476D01*
X143305904Y-104726999D02*
X143305904Y-104250809D01*
X143591619Y-104822237D02*
X142591619Y-104488904D01*
X142591619Y-104488904D02*
X143591619Y-104155571D01*
X143591619Y-103822237D02*
X142591619Y-103822237D01*
X142591619Y-103822237D02*
X143305904Y-103488904D01*
X143305904Y-103488904D02*
X142591619Y-103155571D01*
X142591619Y-103155571D02*
X143591619Y-103155571D01*
X143591619Y-102679380D02*
X142591619Y-102679380D01*
X142591619Y-102679380D02*
X142591619Y-102298428D01*
X142591619Y-102298428D02*
X142639238Y-102203190D01*
X142639238Y-102203190D02*
X142686857Y-102155571D01*
X142686857Y-102155571D02*
X142782095Y-102107952D01*
X142782095Y-102107952D02*
X142924952Y-102107952D01*
X142924952Y-102107952D02*
X143020190Y-102155571D01*
X143020190Y-102155571D02*
X143067809Y-102203190D01*
X143067809Y-102203190D02*
X143115428Y-102298428D01*
X143115428Y-102298428D02*
X143115428Y-102679380D01*
X143686857Y-101917476D02*
X143686857Y-101155571D01*
X143496380Y-100346047D02*
X143544000Y-100393666D01*
X143544000Y-100393666D02*
X143591619Y-100536523D01*
X143591619Y-100536523D02*
X143591619Y-100631761D01*
X143591619Y-100631761D02*
X143544000Y-100774618D01*
X143544000Y-100774618D02*
X143448761Y-100869856D01*
X143448761Y-100869856D02*
X143353523Y-100917475D01*
X143353523Y-100917475D02*
X143163047Y-100965094D01*
X143163047Y-100965094D02*
X143020190Y-100965094D01*
X143020190Y-100965094D02*
X142829714Y-100917475D01*
X142829714Y-100917475D02*
X142734476Y-100869856D01*
X142734476Y-100869856D02*
X142639238Y-100774618D01*
X142639238Y-100774618D02*
X142591619Y-100631761D01*
X142591619Y-100631761D02*
X142591619Y-100536523D01*
X142591619Y-100536523D02*
X142639238Y-100393666D01*
X142639238Y-100393666D02*
X142686857Y-100346047D01*
X142591619Y-99726999D02*
X142591619Y-99536523D01*
X142591619Y-99536523D02*
X142639238Y-99441285D01*
X142639238Y-99441285D02*
X142734476Y-99346047D01*
X142734476Y-99346047D02*
X142924952Y-99298428D01*
X142924952Y-99298428D02*
X143258285Y-99298428D01*
X143258285Y-99298428D02*
X143448761Y-99346047D01*
X143448761Y-99346047D02*
X143544000Y-99441285D01*
X143544000Y-99441285D02*
X143591619Y-99536523D01*
X143591619Y-99536523D02*
X143591619Y-99726999D01*
X143591619Y-99726999D02*
X143544000Y-99822237D01*
X143544000Y-99822237D02*
X143448761Y-99917475D01*
X143448761Y-99917475D02*
X143258285Y-99965094D01*
X143258285Y-99965094D02*
X142924952Y-99965094D01*
X142924952Y-99965094D02*
X142734476Y-99917475D01*
X142734476Y-99917475D02*
X142639238Y-99822237D01*
X142639238Y-99822237D02*
X142591619Y-99726999D01*
X143591619Y-98869856D02*
X142591619Y-98869856D01*
X142591619Y-98869856D02*
X143305904Y-98536523D01*
X143305904Y-98536523D02*
X142591619Y-98203190D01*
X142591619Y-98203190D02*
X143591619Y-98203190D01*
X143591619Y-97726999D02*
X142591619Y-97726999D01*
X142591619Y-97726999D02*
X142591619Y-97346047D01*
X142591619Y-97346047D02*
X142639238Y-97250809D01*
X142639238Y-97250809D02*
X142686857Y-97203190D01*
X142686857Y-97203190D02*
X142782095Y-97155571D01*
X142782095Y-97155571D02*
X142924952Y-97155571D01*
X142924952Y-97155571D02*
X143020190Y-97203190D01*
X143020190Y-97203190D02*
X143067809Y-97250809D01*
X143067809Y-97250809D02*
X143115428Y-97346047D01*
X143115428Y-97346047D02*
X143115428Y-97726999D01*
X143591619Y-96203190D02*
X143591619Y-96774618D01*
X143591619Y-96488904D02*
X142591619Y-96488904D01*
X142591619Y-96488904D02*
X142734476Y-96584142D01*
X142734476Y-96584142D02*
X142829714Y-96679380D01*
X142829714Y-96679380D02*
X142877333Y-96774618D01*
X151892380Y-78779666D02*
X151940000Y-78827285D01*
X151940000Y-78827285D02*
X151987619Y-78970142D01*
X151987619Y-78970142D02*
X151987619Y-79065380D01*
X151987619Y-79065380D02*
X151940000Y-79208237D01*
X151940000Y-79208237D02*
X151844761Y-79303475D01*
X151844761Y-79303475D02*
X151749523Y-79351094D01*
X151749523Y-79351094D02*
X151559047Y-79398713D01*
X151559047Y-79398713D02*
X151416190Y-79398713D01*
X151416190Y-79398713D02*
X151225714Y-79351094D01*
X151225714Y-79351094D02*
X151130476Y-79303475D01*
X151130476Y-79303475D02*
X151035238Y-79208237D01*
X151035238Y-79208237D02*
X150987619Y-79065380D01*
X150987619Y-79065380D02*
X150987619Y-78970142D01*
X150987619Y-78970142D02*
X151035238Y-78827285D01*
X151035238Y-78827285D02*
X151082857Y-78779666D01*
X151082857Y-78398713D02*
X151035238Y-78351094D01*
X151035238Y-78351094D02*
X150987619Y-78255856D01*
X150987619Y-78255856D02*
X150987619Y-78017761D01*
X150987619Y-78017761D02*
X151035238Y-77922523D01*
X151035238Y-77922523D02*
X151082857Y-77874904D01*
X151082857Y-77874904D02*
X151178095Y-77827285D01*
X151178095Y-77827285D02*
X151273333Y-77827285D01*
X151273333Y-77827285D02*
X151416190Y-77874904D01*
X151416190Y-77874904D02*
X151987619Y-78446332D01*
X151987619Y-78446332D02*
X151987619Y-77827285D01*
X145939619Y-62206423D02*
X145672952Y-61825470D01*
X145482476Y-62206423D02*
X145482476Y-61406423D01*
X145482476Y-61406423D02*
X145787238Y-61406423D01*
X145787238Y-61406423D02*
X145863428Y-61444518D01*
X145863428Y-61444518D02*
X145901523Y-61482613D01*
X145901523Y-61482613D02*
X145939619Y-61558804D01*
X145939619Y-61558804D02*
X145939619Y-61673089D01*
X145939619Y-61673089D02*
X145901523Y-61749280D01*
X145901523Y-61749280D02*
X145863428Y-61787375D01*
X145863428Y-61787375D02*
X145787238Y-61825470D01*
X145787238Y-61825470D02*
X145482476Y-61825470D01*
X146701523Y-62206423D02*
X146244380Y-62206423D01*
X146472952Y-62206423D02*
X146472952Y-61406423D01*
X146472952Y-61406423D02*
X146396761Y-61520708D01*
X146396761Y-61520708D02*
X146320571Y-61596899D01*
X146320571Y-61596899D02*
X146244380Y-61634994D01*
X147463428Y-62206423D02*
X147006285Y-62206423D01*
X147234857Y-62206423D02*
X147234857Y-61406423D01*
X147234857Y-61406423D02*
X147158666Y-61520708D01*
X147158666Y-61520708D02*
X147082476Y-61596899D01*
X147082476Y-61596899D02*
X147006285Y-61634994D01*
X149480094Y-63256423D02*
X149022951Y-63256423D01*
X149251523Y-63256423D02*
X149251523Y-62456423D01*
X149251523Y-62456423D02*
X149175332Y-62570708D01*
X149175332Y-62570708D02*
X149099142Y-62646899D01*
X149099142Y-62646899D02*
X149022951Y-62684994D01*
X149975333Y-62456423D02*
X150051523Y-62456423D01*
X150051523Y-62456423D02*
X150127714Y-62494518D01*
X150127714Y-62494518D02*
X150165809Y-62532613D01*
X150165809Y-62532613D02*
X150203904Y-62608804D01*
X150203904Y-62608804D02*
X150241999Y-62761185D01*
X150241999Y-62761185D02*
X150241999Y-62951661D01*
X150241999Y-62951661D02*
X150203904Y-63104042D01*
X150203904Y-63104042D02*
X150165809Y-63180232D01*
X150165809Y-63180232D02*
X150127714Y-63218328D01*
X150127714Y-63218328D02*
X150051523Y-63256423D01*
X150051523Y-63256423D02*
X149975333Y-63256423D01*
X149975333Y-63256423D02*
X149899142Y-63218328D01*
X149899142Y-63218328D02*
X149861047Y-63180232D01*
X149861047Y-63180232D02*
X149822952Y-63104042D01*
X149822952Y-63104042D02*
X149784856Y-62951661D01*
X149784856Y-62951661D02*
X149784856Y-62761185D01*
X149784856Y-62761185D02*
X149822952Y-62608804D01*
X149822952Y-62608804D02*
X149861047Y-62532613D01*
X149861047Y-62532613D02*
X149899142Y-62494518D01*
X149899142Y-62494518D02*
X149975333Y-62456423D01*
X150584857Y-63256423D02*
X150584857Y-62456423D01*
X150661047Y-62951661D02*
X150889619Y-63256423D01*
X150889619Y-62723089D02*
X150584857Y-63027851D01*
X152989619Y-113061190D02*
X152513428Y-113394523D01*
X152989619Y-113632618D02*
X151989619Y-113632618D01*
X151989619Y-113632618D02*
X151989619Y-113251666D01*
X151989619Y-113251666D02*
X152037238Y-113156428D01*
X152037238Y-113156428D02*
X152084857Y-113108809D01*
X152084857Y-113108809D02*
X152180095Y-113061190D01*
X152180095Y-113061190D02*
X152322952Y-113061190D01*
X152322952Y-113061190D02*
X152418190Y-113108809D01*
X152418190Y-113108809D02*
X152465809Y-113156428D01*
X152465809Y-113156428D02*
X152513428Y-113251666D01*
X152513428Y-113251666D02*
X152513428Y-113632618D01*
X151989619Y-112775475D02*
X152989619Y-112442142D01*
X152989619Y-112442142D02*
X151989619Y-112108809D01*
X153084857Y-112013571D02*
X153084857Y-111251666D01*
X152942000Y-111061189D02*
X152989619Y-110918332D01*
X152989619Y-110918332D02*
X152989619Y-110680237D01*
X152989619Y-110680237D02*
X152942000Y-110584999D01*
X152942000Y-110584999D02*
X152894380Y-110537380D01*
X152894380Y-110537380D02*
X152799142Y-110489761D01*
X152799142Y-110489761D02*
X152703904Y-110489761D01*
X152703904Y-110489761D02*
X152608666Y-110537380D01*
X152608666Y-110537380D02*
X152561047Y-110584999D01*
X152561047Y-110584999D02*
X152513428Y-110680237D01*
X152513428Y-110680237D02*
X152465809Y-110870713D01*
X152465809Y-110870713D02*
X152418190Y-110965951D01*
X152418190Y-110965951D02*
X152370571Y-111013570D01*
X152370571Y-111013570D02*
X152275333Y-111061189D01*
X152275333Y-111061189D02*
X152180095Y-111061189D01*
X152180095Y-111061189D02*
X152084857Y-111013570D01*
X152084857Y-111013570D02*
X152037238Y-110965951D01*
X152037238Y-110965951D02*
X151989619Y-110870713D01*
X151989619Y-110870713D02*
X151989619Y-110632618D01*
X151989619Y-110632618D02*
X152037238Y-110489761D01*
X152703904Y-110108808D02*
X152703904Y-109632618D01*
X152989619Y-110204046D02*
X151989619Y-109870713D01*
X151989619Y-109870713D02*
X152989619Y-109537380D01*
X151989619Y-109299284D02*
X152989619Y-109061189D01*
X152989619Y-109061189D02*
X152275333Y-108870713D01*
X152275333Y-108870713D02*
X152989619Y-108680237D01*
X152989619Y-108680237D02*
X151989619Y-108442142D01*
X153084857Y-108299285D02*
X153084857Y-107537380D01*
X152465809Y-106965951D02*
X152513428Y-106823094D01*
X152513428Y-106823094D02*
X152561047Y-106775475D01*
X152561047Y-106775475D02*
X152656285Y-106727856D01*
X152656285Y-106727856D02*
X152799142Y-106727856D01*
X152799142Y-106727856D02*
X152894380Y-106775475D01*
X152894380Y-106775475D02*
X152942000Y-106823094D01*
X152942000Y-106823094D02*
X152989619Y-106918332D01*
X152989619Y-106918332D02*
X152989619Y-107299284D01*
X152989619Y-107299284D02*
X151989619Y-107299284D01*
X151989619Y-107299284D02*
X151989619Y-106965951D01*
X151989619Y-106965951D02*
X152037238Y-106870713D01*
X152037238Y-106870713D02*
X152084857Y-106823094D01*
X152084857Y-106823094D02*
X152180095Y-106775475D01*
X152180095Y-106775475D02*
X152275333Y-106775475D01*
X152275333Y-106775475D02*
X152370571Y-106823094D01*
X152370571Y-106823094D02*
X152418190Y-106870713D01*
X152418190Y-106870713D02*
X152465809Y-106965951D01*
X152465809Y-106965951D02*
X152465809Y-107299284D01*
X152989619Y-106299284D02*
X151989619Y-106299284D01*
X152703904Y-105870713D02*
X152703904Y-105394523D01*
X152989619Y-105965951D02*
X151989619Y-105632618D01*
X151989619Y-105632618D02*
X152989619Y-105299285D01*
X152942000Y-105013570D02*
X152989619Y-104870713D01*
X152989619Y-104870713D02*
X152989619Y-104632618D01*
X152989619Y-104632618D02*
X152942000Y-104537380D01*
X152942000Y-104537380D02*
X152894380Y-104489761D01*
X152894380Y-104489761D02*
X152799142Y-104442142D01*
X152799142Y-104442142D02*
X152703904Y-104442142D01*
X152703904Y-104442142D02*
X152608666Y-104489761D01*
X152608666Y-104489761D02*
X152561047Y-104537380D01*
X152561047Y-104537380D02*
X152513428Y-104632618D01*
X152513428Y-104632618D02*
X152465809Y-104823094D01*
X152465809Y-104823094D02*
X152418190Y-104918332D01*
X152418190Y-104918332D02*
X152370571Y-104965951D01*
X152370571Y-104965951D02*
X152275333Y-105013570D01*
X152275333Y-105013570D02*
X152180095Y-105013570D01*
X152180095Y-105013570D02*
X152084857Y-104965951D01*
X152084857Y-104965951D02*
X152037238Y-104918332D01*
X152037238Y-104918332D02*
X151989619Y-104823094D01*
X151989619Y-104823094D02*
X151989619Y-104584999D01*
X151989619Y-104584999D02*
X152037238Y-104442142D01*
X152989619Y-103489761D02*
X152989619Y-104061189D01*
X152989619Y-103775475D02*
X151989619Y-103775475D01*
X151989619Y-103775475D02*
X152132476Y-103870713D01*
X152132476Y-103870713D02*
X152227714Y-103965951D01*
X152227714Y-103965951D02*
X152275333Y-104061189D01*
X137005380Y-101706702D02*
X137053000Y-101754321D01*
X137053000Y-101754321D02*
X137100619Y-101897178D01*
X137100619Y-101897178D02*
X137100619Y-101992416D01*
X137100619Y-101992416D02*
X137053000Y-102135273D01*
X137053000Y-102135273D02*
X136957761Y-102230511D01*
X136957761Y-102230511D02*
X136862523Y-102278130D01*
X136862523Y-102278130D02*
X136672047Y-102325749D01*
X136672047Y-102325749D02*
X136529190Y-102325749D01*
X136529190Y-102325749D02*
X136338714Y-102278130D01*
X136338714Y-102278130D02*
X136243476Y-102230511D01*
X136243476Y-102230511D02*
X136148238Y-102135273D01*
X136148238Y-102135273D02*
X136100619Y-101992416D01*
X136100619Y-101992416D02*
X136100619Y-101897178D01*
X136100619Y-101897178D02*
X136148238Y-101754321D01*
X136148238Y-101754321D02*
X136195857Y-101706702D01*
X136100619Y-101373368D02*
X136100619Y-100754321D01*
X136100619Y-100754321D02*
X136481571Y-101087654D01*
X136481571Y-101087654D02*
X136481571Y-100944797D01*
X136481571Y-100944797D02*
X136529190Y-100849559D01*
X136529190Y-100849559D02*
X136576809Y-100801940D01*
X136576809Y-100801940D02*
X136672047Y-100754321D01*
X136672047Y-100754321D02*
X136910142Y-100754321D01*
X136910142Y-100754321D02*
X137005380Y-100801940D01*
X137005380Y-100801940D02*
X137053000Y-100849559D01*
X137053000Y-100849559D02*
X137100619Y-100944797D01*
X137100619Y-100944797D02*
X137100619Y-101230511D01*
X137100619Y-101230511D02*
X137053000Y-101325749D01*
X137053000Y-101325749D02*
X137005380Y-101373368D01*
X152751619Y-100178571D02*
X152751619Y-99607143D01*
X153751619Y-99892857D02*
X152751619Y-99892857D01*
X153751619Y-99273809D02*
X152751619Y-99273809D01*
X152751619Y-99273809D02*
X152751619Y-98892857D01*
X152751619Y-98892857D02*
X152799238Y-98797619D01*
X152799238Y-98797619D02*
X152846857Y-98750000D01*
X152846857Y-98750000D02*
X152942095Y-98702381D01*
X152942095Y-98702381D02*
X153084952Y-98702381D01*
X153084952Y-98702381D02*
X153180190Y-98750000D01*
X153180190Y-98750000D02*
X153227809Y-98797619D01*
X153227809Y-98797619D02*
X153275428Y-98892857D01*
X153275428Y-98892857D02*
X153275428Y-99273809D01*
X153846857Y-98511905D02*
X153846857Y-97750000D01*
X153704000Y-97559523D02*
X153751619Y-97416666D01*
X153751619Y-97416666D02*
X153751619Y-97178571D01*
X153751619Y-97178571D02*
X153704000Y-97083333D01*
X153704000Y-97083333D02*
X153656380Y-97035714D01*
X153656380Y-97035714D02*
X153561142Y-96988095D01*
X153561142Y-96988095D02*
X153465904Y-96988095D01*
X153465904Y-96988095D02*
X153370666Y-97035714D01*
X153370666Y-97035714D02*
X153323047Y-97083333D01*
X153323047Y-97083333D02*
X153275428Y-97178571D01*
X153275428Y-97178571D02*
X153227809Y-97369047D01*
X153227809Y-97369047D02*
X153180190Y-97464285D01*
X153180190Y-97464285D02*
X153132571Y-97511904D01*
X153132571Y-97511904D02*
X153037333Y-97559523D01*
X153037333Y-97559523D02*
X152942095Y-97559523D01*
X152942095Y-97559523D02*
X152846857Y-97511904D01*
X152846857Y-97511904D02*
X152799238Y-97464285D01*
X152799238Y-97464285D02*
X152751619Y-97369047D01*
X152751619Y-97369047D02*
X152751619Y-97130952D01*
X152751619Y-97130952D02*
X152799238Y-96988095D01*
X153465904Y-96607142D02*
X153465904Y-96130952D01*
X153751619Y-96702380D02*
X152751619Y-96369047D01*
X152751619Y-96369047D02*
X153751619Y-96035714D01*
X152751619Y-95797618D02*
X153751619Y-95559523D01*
X153751619Y-95559523D02*
X153037333Y-95369047D01*
X153037333Y-95369047D02*
X153751619Y-95178571D01*
X153751619Y-95178571D02*
X152751619Y-94940476D01*
X153846857Y-94797619D02*
X153846857Y-94035714D01*
X152751619Y-93607142D02*
X152751619Y-93416666D01*
X152751619Y-93416666D02*
X152799238Y-93321428D01*
X152799238Y-93321428D02*
X152894476Y-93226190D01*
X152894476Y-93226190D02*
X153084952Y-93178571D01*
X153084952Y-93178571D02*
X153418285Y-93178571D01*
X153418285Y-93178571D02*
X153608761Y-93226190D01*
X153608761Y-93226190D02*
X153704000Y-93321428D01*
X153704000Y-93321428D02*
X153751619Y-93416666D01*
X153751619Y-93416666D02*
X153751619Y-93607142D01*
X153751619Y-93607142D02*
X153704000Y-93702380D01*
X153704000Y-93702380D02*
X153608761Y-93797618D01*
X153608761Y-93797618D02*
X153418285Y-93845237D01*
X153418285Y-93845237D02*
X153084952Y-93845237D01*
X153084952Y-93845237D02*
X152894476Y-93797618D01*
X152894476Y-93797618D02*
X152799238Y-93702380D01*
X152799238Y-93702380D02*
X152751619Y-93607142D01*
X152751619Y-92749999D02*
X153561142Y-92749999D01*
X153561142Y-92749999D02*
X153656380Y-92702380D01*
X153656380Y-92702380D02*
X153704000Y-92654761D01*
X153704000Y-92654761D02*
X153751619Y-92559523D01*
X153751619Y-92559523D02*
X153751619Y-92369047D01*
X153751619Y-92369047D02*
X153704000Y-92273809D01*
X153704000Y-92273809D02*
X153656380Y-92226190D01*
X153656380Y-92226190D02*
X153561142Y-92178571D01*
X153561142Y-92178571D02*
X152751619Y-92178571D01*
X152751619Y-91845237D02*
X152751619Y-91273809D01*
X153751619Y-91559523D02*
X152751619Y-91559523D01*
X153751619Y-90416666D02*
X153751619Y-90988094D01*
X153751619Y-90702380D02*
X152751619Y-90702380D01*
X152751619Y-90702380D02*
X152894476Y-90797618D01*
X152894476Y-90797618D02*
X152989714Y-90892856D01*
X152989714Y-90892856D02*
X153037333Y-90988094D01*
X128883436Y-59733459D02*
X128616769Y-59352506D01*
X128426293Y-59733459D02*
X128426293Y-58933459D01*
X128426293Y-58933459D02*
X128731055Y-58933459D01*
X128731055Y-58933459D02*
X128807245Y-58971554D01*
X128807245Y-58971554D02*
X128845340Y-59009649D01*
X128845340Y-59009649D02*
X128883436Y-59085840D01*
X128883436Y-59085840D02*
X128883436Y-59200125D01*
X128883436Y-59200125D02*
X128845340Y-59276316D01*
X128845340Y-59276316D02*
X128807245Y-59314411D01*
X128807245Y-59314411D02*
X128731055Y-59352506D01*
X128731055Y-59352506D02*
X128426293Y-59352506D01*
X129569150Y-59200125D02*
X129569150Y-59733459D01*
X129378674Y-58895364D02*
X129188197Y-59466792D01*
X129188197Y-59466792D02*
X129683436Y-59466792D01*
X133185816Y-60783459D02*
X132728673Y-60783459D01*
X132957245Y-60783459D02*
X132957245Y-59983459D01*
X132957245Y-59983459D02*
X132881054Y-60097744D01*
X132881054Y-60097744D02*
X132804864Y-60173935D01*
X132804864Y-60173935D02*
X132728673Y-60212030D01*
X133528674Y-60783459D02*
X133528674Y-59983459D01*
X133604864Y-60478697D02*
X133833436Y-60783459D01*
X133833436Y-60250125D02*
X133528674Y-60554887D01*
X129318238Y-51532619D02*
X129889666Y-51532619D01*
X129603952Y-52532619D02*
X129603952Y-51532619D01*
X130223000Y-52532619D02*
X130223000Y-51532619D01*
X130223000Y-51532619D02*
X130603952Y-51532619D01*
X130603952Y-51532619D02*
X130699190Y-51580238D01*
X130699190Y-51580238D02*
X130746809Y-51627857D01*
X130746809Y-51627857D02*
X130794428Y-51723095D01*
X130794428Y-51723095D02*
X130794428Y-51865952D01*
X130794428Y-51865952D02*
X130746809Y-51961190D01*
X130746809Y-51961190D02*
X130699190Y-52008809D01*
X130699190Y-52008809D02*
X130603952Y-52056428D01*
X130603952Y-52056428D02*
X130223000Y-52056428D01*
X130984905Y-52627857D02*
X131746809Y-52627857D01*
X132556333Y-52532619D02*
X132223000Y-52056428D01*
X131984905Y-52532619D02*
X131984905Y-51532619D01*
X131984905Y-51532619D02*
X132365857Y-51532619D01*
X132365857Y-51532619D02*
X132461095Y-51580238D01*
X132461095Y-51580238D02*
X132508714Y-51627857D01*
X132508714Y-51627857D02*
X132556333Y-51723095D01*
X132556333Y-51723095D02*
X132556333Y-51865952D01*
X132556333Y-51865952D02*
X132508714Y-51961190D01*
X132508714Y-51961190D02*
X132461095Y-52008809D01*
X132461095Y-52008809D02*
X132365857Y-52056428D01*
X132365857Y-52056428D02*
X131984905Y-52056428D01*
X132984905Y-52008809D02*
X133318238Y-52008809D01*
X133461095Y-52532619D02*
X132984905Y-52532619D01*
X132984905Y-52532619D02*
X132984905Y-51532619D01*
X132984905Y-51532619D02*
X133461095Y-51532619D01*
X133842048Y-52485000D02*
X133984905Y-52532619D01*
X133984905Y-52532619D02*
X134223000Y-52532619D01*
X134223000Y-52532619D02*
X134318238Y-52485000D01*
X134318238Y-52485000D02*
X134365857Y-52437380D01*
X134365857Y-52437380D02*
X134413476Y-52342142D01*
X134413476Y-52342142D02*
X134413476Y-52246904D01*
X134413476Y-52246904D02*
X134365857Y-52151666D01*
X134365857Y-52151666D02*
X134318238Y-52104047D01*
X134318238Y-52104047D02*
X134223000Y-52056428D01*
X134223000Y-52056428D02*
X134032524Y-52008809D01*
X134032524Y-52008809D02*
X133937286Y-51961190D01*
X133937286Y-51961190D02*
X133889667Y-51913571D01*
X133889667Y-51913571D02*
X133842048Y-51818333D01*
X133842048Y-51818333D02*
X133842048Y-51723095D01*
X133842048Y-51723095D02*
X133889667Y-51627857D01*
X133889667Y-51627857D02*
X133937286Y-51580238D01*
X133937286Y-51580238D02*
X134032524Y-51532619D01*
X134032524Y-51532619D02*
X134270619Y-51532619D01*
X134270619Y-51532619D02*
X134413476Y-51580238D01*
X134842048Y-52008809D02*
X135175381Y-52008809D01*
X135318238Y-52532619D02*
X134842048Y-52532619D01*
X134842048Y-52532619D02*
X134842048Y-51532619D01*
X134842048Y-51532619D02*
X135318238Y-51532619D01*
X135603953Y-51532619D02*
X136175381Y-51532619D01*
X135889667Y-52532619D02*
X135889667Y-51532619D01*
X137032524Y-52532619D02*
X136461096Y-52532619D01*
X136746810Y-52532619D02*
X136746810Y-51532619D01*
X136746810Y-51532619D02*
X136651572Y-51675476D01*
X136651572Y-51675476D02*
X136556334Y-51770714D01*
X136556334Y-51770714D02*
X136461096Y-51818333D01*
X132815619Y-108853131D02*
X132548952Y-108472178D01*
X132358476Y-108853131D02*
X132358476Y-108053131D01*
X132358476Y-108053131D02*
X132663238Y-108053131D01*
X132663238Y-108053131D02*
X132739428Y-108091226D01*
X132739428Y-108091226D02*
X132777523Y-108129321D01*
X132777523Y-108129321D02*
X132815619Y-108205512D01*
X132815619Y-108205512D02*
X132815619Y-108319797D01*
X132815619Y-108319797D02*
X132777523Y-108395988D01*
X132777523Y-108395988D02*
X132739428Y-108434083D01*
X132739428Y-108434083D02*
X132663238Y-108472178D01*
X132663238Y-108472178D02*
X132358476Y-108472178D01*
X133196571Y-108853131D02*
X133348952Y-108853131D01*
X133348952Y-108853131D02*
X133425142Y-108815036D01*
X133425142Y-108815036D02*
X133463238Y-108776940D01*
X133463238Y-108776940D02*
X133539428Y-108662655D01*
X133539428Y-108662655D02*
X133577523Y-108510274D01*
X133577523Y-108510274D02*
X133577523Y-108205512D01*
X133577523Y-108205512D02*
X133539428Y-108129321D01*
X133539428Y-108129321D02*
X133501333Y-108091226D01*
X133501333Y-108091226D02*
X133425142Y-108053131D01*
X133425142Y-108053131D02*
X133272761Y-108053131D01*
X133272761Y-108053131D02*
X133196571Y-108091226D01*
X133196571Y-108091226D02*
X133158476Y-108129321D01*
X133158476Y-108129321D02*
X133120380Y-108205512D01*
X133120380Y-108205512D02*
X133120380Y-108395988D01*
X133120380Y-108395988D02*
X133158476Y-108472178D01*
X133158476Y-108472178D02*
X133196571Y-108510274D01*
X133196571Y-108510274D02*
X133272761Y-108548369D01*
X133272761Y-108548369D02*
X133425142Y-108548369D01*
X133425142Y-108548369D02*
X133501333Y-108510274D01*
X133501333Y-108510274D02*
X133539428Y-108472178D01*
X133539428Y-108472178D02*
X133577523Y-108395988D01*
X134489427Y-109598369D02*
X134527522Y-109560274D01*
X134527522Y-109560274D02*
X134603713Y-109522178D01*
X134603713Y-109522178D02*
X134756094Y-109598369D01*
X134756094Y-109598369D02*
X134832284Y-109560274D01*
X134832284Y-109560274D02*
X134870379Y-109522178D01*
X135594189Y-109903131D02*
X135137046Y-109903131D01*
X135365618Y-109903131D02*
X135365618Y-109103131D01*
X135365618Y-109103131D02*
X135289427Y-109217416D01*
X135289427Y-109217416D02*
X135213237Y-109293607D01*
X135213237Y-109293607D02*
X135137046Y-109331702D01*
X136051332Y-109445988D02*
X135975142Y-109407893D01*
X135975142Y-109407893D02*
X135937047Y-109369797D01*
X135937047Y-109369797D02*
X135898951Y-109293607D01*
X135898951Y-109293607D02*
X135898951Y-109255512D01*
X135898951Y-109255512D02*
X135937047Y-109179321D01*
X135937047Y-109179321D02*
X135975142Y-109141226D01*
X135975142Y-109141226D02*
X136051332Y-109103131D01*
X136051332Y-109103131D02*
X136203713Y-109103131D01*
X136203713Y-109103131D02*
X136279904Y-109141226D01*
X136279904Y-109141226D02*
X136317999Y-109179321D01*
X136317999Y-109179321D02*
X136356094Y-109255512D01*
X136356094Y-109255512D02*
X136356094Y-109293607D01*
X136356094Y-109293607D02*
X136317999Y-109369797D01*
X136317999Y-109369797D02*
X136279904Y-109407893D01*
X136279904Y-109407893D02*
X136203713Y-109445988D01*
X136203713Y-109445988D02*
X136051332Y-109445988D01*
X136051332Y-109445988D02*
X135975142Y-109484083D01*
X135975142Y-109484083D02*
X135937047Y-109522178D01*
X135937047Y-109522178D02*
X135898951Y-109598369D01*
X135898951Y-109598369D02*
X135898951Y-109750750D01*
X135898951Y-109750750D02*
X135937047Y-109826940D01*
X135937047Y-109826940D02*
X135975142Y-109865036D01*
X135975142Y-109865036D02*
X136051332Y-109903131D01*
X136051332Y-109903131D02*
X136203713Y-109903131D01*
X136203713Y-109903131D02*
X136279904Y-109865036D01*
X136279904Y-109865036D02*
X136317999Y-109826940D01*
X136317999Y-109826940D02*
X136356094Y-109750750D01*
X136356094Y-109750750D02*
X136356094Y-109598369D01*
X136356094Y-109598369D02*
X136317999Y-109522178D01*
X136317999Y-109522178D02*
X136279904Y-109484083D01*
X136279904Y-109484083D02*
X136203713Y-109445988D01*
X136851333Y-109103131D02*
X136927523Y-109103131D01*
X136927523Y-109103131D02*
X137003714Y-109141226D01*
X137003714Y-109141226D02*
X137041809Y-109179321D01*
X137041809Y-109179321D02*
X137079904Y-109255512D01*
X137079904Y-109255512D02*
X137117999Y-109407893D01*
X137117999Y-109407893D02*
X137117999Y-109598369D01*
X137117999Y-109598369D02*
X137079904Y-109750750D01*
X137079904Y-109750750D02*
X137041809Y-109826940D01*
X137041809Y-109826940D02*
X137003714Y-109865036D01*
X137003714Y-109865036D02*
X136927523Y-109903131D01*
X136927523Y-109903131D02*
X136851333Y-109903131D01*
X136851333Y-109903131D02*
X136775142Y-109865036D01*
X136775142Y-109865036D02*
X136737047Y-109826940D01*
X136737047Y-109826940D02*
X136698952Y-109750750D01*
X136698952Y-109750750D02*
X136660856Y-109598369D01*
X136660856Y-109598369D02*
X136660856Y-109407893D01*
X136660856Y-109407893D02*
X136698952Y-109255512D01*
X136698952Y-109255512D02*
X136737047Y-109179321D01*
X136737047Y-109179321D02*
X136775142Y-109141226D01*
X136775142Y-109141226D02*
X136851333Y-109103131D01*
X137460857Y-109903131D02*
X137460857Y-109103131D01*
X137537047Y-109598369D02*
X137765619Y-109903131D01*
X137765619Y-109369797D02*
X137460857Y-109674559D01*
X134778761Y-64692857D02*
X134683523Y-64645238D01*
X134683523Y-64645238D02*
X134588285Y-64550000D01*
X134588285Y-64550000D02*
X134445428Y-64407142D01*
X134445428Y-64407142D02*
X134350190Y-64359523D01*
X134350190Y-64359523D02*
X134254952Y-64359523D01*
X134302571Y-64597619D02*
X134207333Y-64550000D01*
X134207333Y-64550000D02*
X134112095Y-64454761D01*
X134112095Y-64454761D02*
X134064476Y-64264285D01*
X134064476Y-64264285D02*
X134064476Y-63930952D01*
X134064476Y-63930952D02*
X134112095Y-63740476D01*
X134112095Y-63740476D02*
X134207333Y-63645238D01*
X134207333Y-63645238D02*
X134302571Y-63597619D01*
X134302571Y-63597619D02*
X134493047Y-63597619D01*
X134493047Y-63597619D02*
X134588285Y-63645238D01*
X134588285Y-63645238D02*
X134683523Y-63740476D01*
X134683523Y-63740476D02*
X134731142Y-63930952D01*
X134731142Y-63930952D02*
X134731142Y-64264285D01*
X134731142Y-64264285D02*
X134683523Y-64454761D01*
X134683523Y-64454761D02*
X134588285Y-64550000D01*
X134588285Y-64550000D02*
X134493047Y-64597619D01*
X134493047Y-64597619D02*
X134302571Y-64597619D01*
X135683523Y-64597619D02*
X135112095Y-64597619D01*
X135397809Y-64597619D02*
X135397809Y-63597619D01*
X135397809Y-63597619D02*
X135302571Y-63740476D01*
X135302571Y-63740476D02*
X135207333Y-63835714D01*
X135207333Y-63835714D02*
X135112095Y-63883333D01*
X133241531Y-57456636D02*
X132974864Y-57075683D01*
X132784388Y-57456636D02*
X132784388Y-56656636D01*
X132784388Y-56656636D02*
X133089150Y-56656636D01*
X133089150Y-56656636D02*
X133165340Y-56694731D01*
X133165340Y-56694731D02*
X133203435Y-56732826D01*
X133203435Y-56732826D02*
X133241531Y-56809017D01*
X133241531Y-56809017D02*
X133241531Y-56923302D01*
X133241531Y-56923302D02*
X133203435Y-56999493D01*
X133203435Y-56999493D02*
X133165340Y-57037588D01*
X133165340Y-57037588D02*
X133089150Y-57075683D01*
X133089150Y-57075683D02*
X132784388Y-57075683D01*
X133546292Y-56732826D02*
X133584388Y-56694731D01*
X133584388Y-56694731D02*
X133660578Y-56656636D01*
X133660578Y-56656636D02*
X133851054Y-56656636D01*
X133851054Y-56656636D02*
X133927245Y-56694731D01*
X133927245Y-56694731D02*
X133965340Y-56732826D01*
X133965340Y-56732826D02*
X134003435Y-56809017D01*
X134003435Y-56809017D02*
X134003435Y-56885207D01*
X134003435Y-56885207D02*
X133965340Y-56999493D01*
X133965340Y-56999493D02*
X133508197Y-57456636D01*
X133508197Y-57456636D02*
X134003435Y-57456636D01*
X129015340Y-56406636D02*
X128558197Y-56406636D01*
X128786769Y-56406636D02*
X128786769Y-55606636D01*
X128786769Y-55606636D02*
X128710578Y-55720921D01*
X128710578Y-55720921D02*
X128634388Y-55797112D01*
X128634388Y-55797112D02*
X128558197Y-55835207D01*
X129510579Y-55606636D02*
X129586769Y-55606636D01*
X129586769Y-55606636D02*
X129662960Y-55644731D01*
X129662960Y-55644731D02*
X129701055Y-55682826D01*
X129701055Y-55682826D02*
X129739150Y-55759017D01*
X129739150Y-55759017D02*
X129777245Y-55911398D01*
X129777245Y-55911398D02*
X129777245Y-56101874D01*
X129777245Y-56101874D02*
X129739150Y-56254255D01*
X129739150Y-56254255D02*
X129701055Y-56330445D01*
X129701055Y-56330445D02*
X129662960Y-56368541D01*
X129662960Y-56368541D02*
X129586769Y-56406636D01*
X129586769Y-56406636D02*
X129510579Y-56406636D01*
X129510579Y-56406636D02*
X129434388Y-56368541D01*
X129434388Y-56368541D02*
X129396293Y-56330445D01*
X129396293Y-56330445D02*
X129358198Y-56254255D01*
X129358198Y-56254255D02*
X129320102Y-56101874D01*
X129320102Y-56101874D02*
X129320102Y-55911398D01*
X129320102Y-55911398D02*
X129358198Y-55759017D01*
X129358198Y-55759017D02*
X129396293Y-55682826D01*
X129396293Y-55682826D02*
X129434388Y-55644731D01*
X129434388Y-55644731D02*
X129510579Y-55606636D01*
X130120103Y-56406636D02*
X130120103Y-55606636D01*
X130196293Y-56101874D02*
X130424865Y-56406636D01*
X130424865Y-55873302D02*
X130120103Y-56178064D01*
X149535809Y-60004423D02*
X149269142Y-59623470D01*
X149078666Y-60004423D02*
X149078666Y-59204423D01*
X149078666Y-59204423D02*
X149383428Y-59204423D01*
X149383428Y-59204423D02*
X149459618Y-59242518D01*
X149459618Y-59242518D02*
X149497713Y-59280613D01*
X149497713Y-59280613D02*
X149535809Y-59356804D01*
X149535809Y-59356804D02*
X149535809Y-59471089D01*
X149535809Y-59471089D02*
X149497713Y-59547280D01*
X149497713Y-59547280D02*
X149459618Y-59585375D01*
X149459618Y-59585375D02*
X149383428Y-59623470D01*
X149383428Y-59623470D02*
X149078666Y-59623470D01*
X150297713Y-60004423D02*
X149840570Y-60004423D01*
X150069142Y-60004423D02*
X150069142Y-59204423D01*
X150069142Y-59204423D02*
X149992951Y-59318708D01*
X149992951Y-59318708D02*
X149916761Y-59394899D01*
X149916761Y-59394899D02*
X149840570Y-59432994D01*
X150564380Y-59204423D02*
X151059618Y-59204423D01*
X151059618Y-59204423D02*
X150792952Y-59509185D01*
X150792952Y-59509185D02*
X150907237Y-59509185D01*
X150907237Y-59509185D02*
X150983428Y-59547280D01*
X150983428Y-59547280D02*
X151021523Y-59585375D01*
X151021523Y-59585375D02*
X151059618Y-59661566D01*
X151059618Y-59661566D02*
X151059618Y-59852042D01*
X151059618Y-59852042D02*
X151021523Y-59928232D01*
X151021523Y-59928232D02*
X150983428Y-59966328D01*
X150983428Y-59966328D02*
X150907237Y-60004423D01*
X150907237Y-60004423D02*
X150678666Y-60004423D01*
X150678666Y-60004423D02*
X150602475Y-59966328D01*
X150602475Y-59966328D02*
X150564380Y-59928232D01*
X146071523Y-58954423D02*
X145614380Y-58954423D01*
X145842952Y-58954423D02*
X145842952Y-58154423D01*
X145842952Y-58154423D02*
X145766761Y-58268708D01*
X145766761Y-58268708D02*
X145690571Y-58344899D01*
X145690571Y-58344899D02*
X145614380Y-58382994D01*
X146566762Y-58154423D02*
X146642952Y-58154423D01*
X146642952Y-58154423D02*
X146719143Y-58192518D01*
X146719143Y-58192518D02*
X146757238Y-58230613D01*
X146757238Y-58230613D02*
X146795333Y-58306804D01*
X146795333Y-58306804D02*
X146833428Y-58459185D01*
X146833428Y-58459185D02*
X146833428Y-58649661D01*
X146833428Y-58649661D02*
X146795333Y-58802042D01*
X146795333Y-58802042D02*
X146757238Y-58878232D01*
X146757238Y-58878232D02*
X146719143Y-58916328D01*
X146719143Y-58916328D02*
X146642952Y-58954423D01*
X146642952Y-58954423D02*
X146566762Y-58954423D01*
X146566762Y-58954423D02*
X146490571Y-58916328D01*
X146490571Y-58916328D02*
X146452476Y-58878232D01*
X146452476Y-58878232D02*
X146414381Y-58802042D01*
X146414381Y-58802042D02*
X146376285Y-58649661D01*
X146376285Y-58649661D02*
X146376285Y-58459185D01*
X146376285Y-58459185D02*
X146414381Y-58306804D01*
X146414381Y-58306804D02*
X146452476Y-58230613D01*
X146452476Y-58230613D02*
X146490571Y-58192518D01*
X146490571Y-58192518D02*
X146566762Y-58154423D01*
X147176286Y-58954423D02*
X147176286Y-58154423D01*
X147252476Y-58649661D02*
X147481048Y-58954423D01*
X147481048Y-58421089D02*
X147176286Y-58725851D01*
X150399095Y-86727285D02*
X150018142Y-86993952D01*
X150399095Y-87184428D02*
X149599095Y-87184428D01*
X149599095Y-87184428D02*
X149599095Y-86879666D01*
X149599095Y-86879666D02*
X149637190Y-86803476D01*
X149637190Y-86803476D02*
X149675285Y-86765381D01*
X149675285Y-86765381D02*
X149751476Y-86727285D01*
X149751476Y-86727285D02*
X149865761Y-86727285D01*
X149865761Y-86727285D02*
X149941952Y-86765381D01*
X149941952Y-86765381D02*
X149980047Y-86803476D01*
X149980047Y-86803476D02*
X150018142Y-86879666D01*
X150018142Y-86879666D02*
X150018142Y-87184428D01*
X149599095Y-86460619D02*
X149599095Y-85927285D01*
X149599095Y-85927285D02*
X150399095Y-86270143D01*
X148625285Y-91410619D02*
X148587190Y-91372523D01*
X148587190Y-91372523D02*
X148549095Y-91296333D01*
X148549095Y-91296333D02*
X148549095Y-91105857D01*
X148549095Y-91105857D02*
X148587190Y-91029666D01*
X148587190Y-91029666D02*
X148625285Y-90991571D01*
X148625285Y-90991571D02*
X148701476Y-90953476D01*
X148701476Y-90953476D02*
X148777666Y-90953476D01*
X148777666Y-90953476D02*
X148891952Y-90991571D01*
X148891952Y-90991571D02*
X149349095Y-91448714D01*
X149349095Y-91448714D02*
X149349095Y-90953476D01*
X148549095Y-90458237D02*
X148549095Y-90382047D01*
X148549095Y-90382047D02*
X148587190Y-90305856D01*
X148587190Y-90305856D02*
X148625285Y-90267761D01*
X148625285Y-90267761D02*
X148701476Y-90229666D01*
X148701476Y-90229666D02*
X148853857Y-90191571D01*
X148853857Y-90191571D02*
X149044333Y-90191571D01*
X149044333Y-90191571D02*
X149196714Y-90229666D01*
X149196714Y-90229666D02*
X149272904Y-90267761D01*
X149272904Y-90267761D02*
X149311000Y-90305856D01*
X149311000Y-90305856D02*
X149349095Y-90382047D01*
X149349095Y-90382047D02*
X149349095Y-90458237D01*
X149349095Y-90458237D02*
X149311000Y-90534428D01*
X149311000Y-90534428D02*
X149272904Y-90572523D01*
X149272904Y-90572523D02*
X149196714Y-90610618D01*
X149196714Y-90610618D02*
X149044333Y-90648714D01*
X149044333Y-90648714D02*
X148853857Y-90648714D01*
X148853857Y-90648714D02*
X148701476Y-90610618D01*
X148701476Y-90610618D02*
X148625285Y-90572523D01*
X148625285Y-90572523D02*
X148587190Y-90534428D01*
X148587190Y-90534428D02*
X148549095Y-90458237D01*
X148549095Y-89696332D02*
X148549095Y-89620142D01*
X148549095Y-89620142D02*
X148587190Y-89543951D01*
X148587190Y-89543951D02*
X148625285Y-89505856D01*
X148625285Y-89505856D02*
X148701476Y-89467761D01*
X148701476Y-89467761D02*
X148853857Y-89429666D01*
X148853857Y-89429666D02*
X149044333Y-89429666D01*
X149044333Y-89429666D02*
X149196714Y-89467761D01*
X149196714Y-89467761D02*
X149272904Y-89505856D01*
X149272904Y-89505856D02*
X149311000Y-89543951D01*
X149311000Y-89543951D02*
X149349095Y-89620142D01*
X149349095Y-89620142D02*
X149349095Y-89696332D01*
X149349095Y-89696332D02*
X149311000Y-89772523D01*
X149311000Y-89772523D02*
X149272904Y-89810618D01*
X149272904Y-89810618D02*
X149196714Y-89848713D01*
X149196714Y-89848713D02*
X149044333Y-89886809D01*
X149044333Y-89886809D02*
X148853857Y-89886809D01*
X148853857Y-89886809D02*
X148701476Y-89848713D01*
X148701476Y-89848713D02*
X148625285Y-89810618D01*
X148625285Y-89810618D02*
X148587190Y-89772523D01*
X148587190Y-89772523D02*
X148549095Y-89696332D01*
X149349095Y-89086808D02*
X148549095Y-89086808D01*
X149044333Y-89010618D02*
X149349095Y-88782046D01*
X148815761Y-88782046D02*
X149120523Y-89086808D01*
X132815619Y-112028131D02*
X132548952Y-111647178D01*
X132358476Y-112028131D02*
X132358476Y-111228131D01*
X132358476Y-111228131D02*
X132663238Y-111228131D01*
X132663238Y-111228131D02*
X132739428Y-111266226D01*
X132739428Y-111266226D02*
X132777523Y-111304321D01*
X132777523Y-111304321D02*
X132815619Y-111380512D01*
X132815619Y-111380512D02*
X132815619Y-111494797D01*
X132815619Y-111494797D02*
X132777523Y-111570988D01*
X132777523Y-111570988D02*
X132739428Y-111609083D01*
X132739428Y-111609083D02*
X132663238Y-111647178D01*
X132663238Y-111647178D02*
X132358476Y-111647178D01*
X133272761Y-111570988D02*
X133196571Y-111532893D01*
X133196571Y-111532893D02*
X133158476Y-111494797D01*
X133158476Y-111494797D02*
X133120380Y-111418607D01*
X133120380Y-111418607D02*
X133120380Y-111380512D01*
X133120380Y-111380512D02*
X133158476Y-111304321D01*
X133158476Y-111304321D02*
X133196571Y-111266226D01*
X133196571Y-111266226D02*
X133272761Y-111228131D01*
X133272761Y-111228131D02*
X133425142Y-111228131D01*
X133425142Y-111228131D02*
X133501333Y-111266226D01*
X133501333Y-111266226D02*
X133539428Y-111304321D01*
X133539428Y-111304321D02*
X133577523Y-111380512D01*
X133577523Y-111380512D02*
X133577523Y-111418607D01*
X133577523Y-111418607D02*
X133539428Y-111494797D01*
X133539428Y-111494797D02*
X133501333Y-111532893D01*
X133501333Y-111532893D02*
X133425142Y-111570988D01*
X133425142Y-111570988D02*
X133272761Y-111570988D01*
X133272761Y-111570988D02*
X133196571Y-111609083D01*
X133196571Y-111609083D02*
X133158476Y-111647178D01*
X133158476Y-111647178D02*
X133120380Y-111723369D01*
X133120380Y-111723369D02*
X133120380Y-111875750D01*
X133120380Y-111875750D02*
X133158476Y-111951940D01*
X133158476Y-111951940D02*
X133196571Y-111990036D01*
X133196571Y-111990036D02*
X133272761Y-112028131D01*
X133272761Y-112028131D02*
X133425142Y-112028131D01*
X133425142Y-112028131D02*
X133501333Y-111990036D01*
X133501333Y-111990036D02*
X133539428Y-111951940D01*
X133539428Y-111951940D02*
X133577523Y-111875750D01*
X133577523Y-111875750D02*
X133577523Y-111723369D01*
X133577523Y-111723369D02*
X133539428Y-111647178D01*
X133539428Y-111647178D02*
X133501333Y-111609083D01*
X133501333Y-111609083D02*
X133425142Y-111570988D01*
X135517999Y-112544797D02*
X135517999Y-113078131D01*
X135327523Y-112240036D02*
X135137046Y-112811464D01*
X135137046Y-112811464D02*
X135632285Y-112811464D01*
X135860856Y-112278131D02*
X136394190Y-112278131D01*
X136394190Y-112278131D02*
X136051332Y-113078131D01*
X136851333Y-112278131D02*
X136927523Y-112278131D01*
X136927523Y-112278131D02*
X137003714Y-112316226D01*
X137003714Y-112316226D02*
X137041809Y-112354321D01*
X137041809Y-112354321D02*
X137079904Y-112430512D01*
X137079904Y-112430512D02*
X137117999Y-112582893D01*
X137117999Y-112582893D02*
X137117999Y-112773369D01*
X137117999Y-112773369D02*
X137079904Y-112925750D01*
X137079904Y-112925750D02*
X137041809Y-113001940D01*
X137041809Y-113001940D02*
X137003714Y-113040036D01*
X137003714Y-113040036D02*
X136927523Y-113078131D01*
X136927523Y-113078131D02*
X136851333Y-113078131D01*
X136851333Y-113078131D02*
X136775142Y-113040036D01*
X136775142Y-113040036D02*
X136737047Y-113001940D01*
X136737047Y-113001940D02*
X136698952Y-112925750D01*
X136698952Y-112925750D02*
X136660856Y-112773369D01*
X136660856Y-112773369D02*
X136660856Y-112582893D01*
X136660856Y-112582893D02*
X136698952Y-112430512D01*
X136698952Y-112430512D02*
X136737047Y-112354321D01*
X136737047Y-112354321D02*
X136775142Y-112316226D01*
X136775142Y-112316226D02*
X136851333Y-112278131D01*
X137460857Y-113078131D02*
X137460857Y-112278131D01*
X137537047Y-112773369D02*
X137765619Y-113078131D01*
X137765619Y-112544797D02*
X137460857Y-112849559D01*
X148209095Y-70836619D02*
X148209095Y-71646142D01*
X148209095Y-71646142D02*
X148256714Y-71741380D01*
X148256714Y-71741380D02*
X148304333Y-71789000D01*
X148304333Y-71789000D02*
X148399571Y-71836619D01*
X148399571Y-71836619D02*
X148590047Y-71836619D01*
X148590047Y-71836619D02*
X148685285Y-71789000D01*
X148685285Y-71789000D02*
X148732904Y-71741380D01*
X148732904Y-71741380D02*
X148780523Y-71646142D01*
X148780523Y-71646142D02*
X148780523Y-70836619D01*
X149780523Y-71836619D02*
X149209095Y-71836619D01*
X149494809Y-71836619D02*
X149494809Y-70836619D01*
X149494809Y-70836619D02*
X149399571Y-70979476D01*
X149399571Y-70979476D02*
X149304333Y-71074714D01*
X149304333Y-71074714D02*
X149209095Y-71122333D01*
X127809666Y-90036655D02*
X127809666Y-90750940D01*
X127809666Y-90750940D02*
X127762047Y-90893797D01*
X127762047Y-90893797D02*
X127666809Y-90989036D01*
X127666809Y-90989036D02*
X127523952Y-91036655D01*
X127523952Y-91036655D02*
X127428714Y-91036655D01*
X128809666Y-91036655D02*
X128238238Y-91036655D01*
X128523952Y-91036655D02*
X128523952Y-90036655D01*
X128523952Y-90036655D02*
X128428714Y-90179512D01*
X128428714Y-90179512D02*
X128333476Y-90274750D01*
X128333476Y-90274750D02*
X128238238Y-90322369D01*
D11*
X128937000Y-66575000D02*
X135477000Y-66575000D01*
X128937000Y-66905000D02*
X128937000Y-66575000D01*
X128937000Y-68985000D02*
X128937000Y-69315000D01*
X128937000Y-69315000D02*
X135477000Y-69315000D01*
X135477000Y-66575000D02*
X135477000Y-66905000D01*
X135477000Y-69315000D02*
X135477000Y-68985000D01*
X138398000Y-107101036D02*
X131858000Y-107101036D01*
X138398000Y-106771036D02*
X138398000Y-107101036D01*
X138398000Y-104691036D02*
X138398000Y-104361036D01*
X138398000Y-104361036D02*
X131858000Y-104361036D01*
X131858000Y-107101036D02*
X131858000Y-106771036D01*
X131858000Y-104361036D02*
X131858000Y-104691036D01*
X134951000Y-74633000D02*
X134951000Y-69893000D01*
X134951000Y-74633000D02*
X127511000Y-74633000D01*
X134951000Y-69893000D02*
X127511000Y-69893000D01*
X127511000Y-74633000D02*
X127511000Y-69893000D01*
X146624000Y-97729000D02*
X146624000Y-99629000D01*
X146624000Y-99629000D02*
X148474000Y-99629000D01*
X148474000Y-97729000D02*
X146624000Y-97729000D01*
X148474000Y-97779000D02*
X148474000Y-97729000D01*
X148474000Y-99629000D02*
X148474000Y-97779000D01*
X144982000Y-51208000D02*
X151522000Y-51208000D01*
X144982000Y-51538000D02*
X144982000Y-51208000D01*
X144982000Y-53618000D02*
X144982000Y-53948000D01*
X144982000Y-53948000D02*
X151522000Y-53948000D01*
X151522000Y-51208000D02*
X151522000Y-51538000D01*
X151522000Y-53948000D02*
X151522000Y-53618000D01*
X138970000Y-66575000D02*
X145510000Y-66575000D01*
X138970000Y-66905000D02*
X138970000Y-66575000D01*
X138970000Y-68985000D02*
X138970000Y-69315000D01*
X138970000Y-69315000D02*
X145510000Y-69315000D01*
X145510000Y-66575000D02*
X145510000Y-66905000D01*
X145510000Y-69315000D02*
X145510000Y-68985000D01*
X134408000Y-103853036D02*
X134408000Y-103608036D01*
X134408000Y-103853036D02*
X130768000Y-103853036D01*
X134408000Y-101758036D02*
X134408000Y-101513036D01*
X134408000Y-101513036D02*
X130768000Y-101513036D01*
X130768000Y-103853036D02*
X130768000Y-103608036D01*
X130768000Y-101758036D02*
X130768000Y-101513036D01*
X151704000Y-64963000D02*
X151704000Y-66863000D01*
X151704000Y-66863000D02*
X153554000Y-66863000D01*
X153554000Y-64963000D02*
X151704000Y-64963000D01*
X153554000Y-65013000D02*
X153554000Y-64963000D01*
X153554000Y-66863000D02*
X153554000Y-65013000D01*
X151522000Y-57152328D02*
X144982000Y-57152328D01*
X151522000Y-56822328D02*
X151522000Y-57152328D01*
X151522000Y-54742328D02*
X151522000Y-54412328D01*
X151522000Y-54412328D02*
X144982000Y-54412328D01*
X144982000Y-57152328D02*
X144982000Y-56822328D01*
X144982000Y-54412328D02*
X144982000Y-54742328D01*
X128302000Y-83660036D02*
X134842000Y-83660036D01*
X128302000Y-83990036D02*
X128302000Y-83660036D01*
X128302000Y-86070036D02*
X128302000Y-86400036D01*
X128302000Y-86400036D02*
X134842000Y-86400036D01*
X134842000Y-83660036D02*
X134842000Y-83990036D01*
X134842000Y-86400036D02*
X134842000Y-86070036D01*
X136239000Y-81120036D02*
X136239000Y-80875036D01*
X136239000Y-81120036D02*
X132599000Y-81120036D01*
X136239000Y-79025036D02*
X136239000Y-78780036D01*
X136239000Y-78780036D02*
X132599000Y-78780036D01*
X132599000Y-81120036D02*
X132599000Y-80875036D01*
X132599000Y-79025036D02*
X132599000Y-78780036D01*
X141417000Y-108016000D02*
X141417000Y-109916000D01*
X141417000Y-109916000D02*
X143267000Y-109916000D01*
X143267000Y-108016000D02*
X141417000Y-108016000D01*
X143267000Y-108066000D02*
X143267000Y-108016000D01*
X143267000Y-109916000D02*
X143267000Y-108066000D01*
X150395000Y-76793000D02*
X150150000Y-76793000D01*
X150395000Y-76793000D02*
X150395000Y-80433000D01*
X148300000Y-76793000D02*
X148055000Y-76793000D01*
X148055000Y-76793000D02*
X148055000Y-80433000D01*
X150395000Y-80433000D02*
X150150000Y-80433000D01*
X148300000Y-80433000D02*
X148055000Y-80433000D01*
X144982000Y-61016328D02*
X151522000Y-61016328D01*
X144982000Y-61346328D02*
X144982000Y-61016328D01*
X144982000Y-63426328D02*
X144982000Y-63756328D01*
X144982000Y-63756328D02*
X151522000Y-63756328D01*
X151522000Y-61016328D02*
X151522000Y-61346328D01*
X151522000Y-63756328D02*
X151522000Y-63426328D01*
X147326000Y-106857000D02*
X147326000Y-109726000D01*
X147326000Y-107171000D02*
X147326000Y-109411000D01*
X148197000Y-107291000D02*
X148197000Y-106791000D01*
X148197000Y-109291000D02*
X148197000Y-109791000D01*
X148372000Y-105021000D02*
X151067000Y-105021000D01*
X148372000Y-111561000D02*
X151067000Y-111561000D01*
X148947000Y-108291000D02*
X148447000Y-108291000D01*
X151067000Y-105021000D02*
X151067000Y-111561000D01*
X151067000Y-107171000D02*
X151067000Y-109411000D01*
X147947000Y-107291000D02*
X148447000Y-107291000D01*
X148447000Y-107291000D02*
X148447000Y-109291000D01*
X148447000Y-109291000D02*
X147947000Y-109291000D01*
X147947000Y-109291000D02*
X147947000Y-107291000D01*
X148647000Y-108391000D02*
X148447000Y-108291000D01*
X148647000Y-108191000D01*
X148647000Y-108391000D01*
G36*
X148647000Y-108391000D02*
G01*
X148447000Y-108291000D01*
X148647000Y-108191000D01*
X148647000Y-108391000D01*
G37*
X137768000Y-103360036D02*
X138013000Y-103360036D01*
X137768000Y-103360036D02*
X137768000Y-99720036D01*
X139863000Y-103360036D02*
X140108000Y-103360036D01*
X140108000Y-103360036D02*
X140108000Y-99720036D01*
X137768000Y-99720036D02*
X138013000Y-99720036D01*
X139863000Y-99720036D02*
X140108000Y-99720036D01*
X151704000Y-87950000D02*
X151704000Y-89850000D01*
X151704000Y-89850000D02*
X153554000Y-89850000D01*
X153554000Y-87950000D02*
X151704000Y-87950000D01*
X153554000Y-88000000D02*
X153554000Y-87950000D01*
X153554000Y-89850000D02*
X153554000Y-88000000D01*
X127925817Y-58543364D02*
X134465817Y-58543364D01*
X127925817Y-58873364D02*
X127925817Y-58543364D01*
X127925817Y-60953364D02*
X127925817Y-61283364D01*
X127925817Y-61283364D02*
X134465817Y-61283364D01*
X134465817Y-58543364D02*
X134465817Y-58873364D01*
X134465817Y-61283364D02*
X134465817Y-60953364D01*
D12*
X137134600Y-54406800D02*
X136829800Y-54406800D01*
X136829800Y-53771800D01*
X137134600Y-53771800D01*
X137134600Y-54406800D01*
G36*
X137134600Y-54406800D02*
G01*
X136829800Y-54406800D01*
X136829800Y-53771800D01*
X137134600Y-53771800D01*
X137134600Y-54406800D01*
G37*
X137439400Y-54724300D02*
X137134600Y-54724300D01*
X137134600Y-54406800D01*
X137439400Y-54406800D01*
X137439400Y-54724300D01*
G36*
X137439400Y-54724300D02*
G01*
X137134600Y-54724300D01*
X137134600Y-54406800D01*
X137439400Y-54406800D01*
X137439400Y-54724300D01*
G37*
X141973300Y-59499500D02*
X142570200Y-59499500D01*
X142570200Y-60134500D01*
X141973300Y-60134500D01*
X141973300Y-59817000D01*
X141351000Y-59817000D01*
X141351000Y-59182000D01*
X141973300Y-59182000D01*
X141973300Y-59499500D01*
G36*
X141973300Y-59499500D02*
G01*
X142570200Y-59499500D01*
X142570200Y-60134500D01*
X141973300Y-60134500D01*
X141973300Y-59817000D01*
X141351000Y-59817000D01*
X141351000Y-59182000D01*
X141973300Y-59182000D01*
X141973300Y-59499500D01*
G37*
X141973300Y-56324500D02*
X142265400Y-56324500D01*
X142265400Y-56642000D01*
X142570200Y-56642000D01*
X142570200Y-56959500D01*
X141973300Y-56959500D01*
X141973300Y-56642000D01*
X141351000Y-56642000D01*
X141351000Y-56007000D01*
X141973300Y-56007000D01*
X141973300Y-56324500D01*
G36*
X141973300Y-56324500D02*
G01*
X142265400Y-56324500D01*
X142265400Y-56642000D01*
X142570200Y-56642000D01*
X142570200Y-56959500D01*
X141973300Y-56959500D01*
X141973300Y-56642000D01*
X141351000Y-56642000D01*
X141351000Y-56007000D01*
X141973300Y-56007000D01*
X141973300Y-56324500D01*
G37*
X137680700Y-53454300D02*
X137985500Y-53454300D01*
X137985500Y-53771800D01*
X138328400Y-53771800D01*
X138328400Y-54089300D01*
X140741400Y-54089300D01*
X140741400Y-54406800D01*
X141973300Y-54406800D01*
X141973300Y-54724300D01*
X142265400Y-54724300D01*
X142265400Y-55041800D01*
X142570200Y-55041800D01*
X142570200Y-55359300D01*
X141351000Y-55359300D01*
X141351000Y-55676800D01*
X141046200Y-55676800D01*
X141046200Y-56642000D01*
X141351000Y-56642000D01*
X141351000Y-57912000D01*
X141643100Y-57912000D01*
X141643100Y-58229500D01*
X142214600Y-58229500D01*
X142214600Y-58547000D01*
X142570200Y-58547000D01*
X142570200Y-58864500D01*
X141046200Y-58864500D01*
X141046200Y-60769500D01*
X140741400Y-60769500D01*
X140741400Y-61404500D01*
X139852400Y-61404500D01*
X139852400Y-61087000D01*
X139534900Y-61087000D01*
X139534900Y-60769500D01*
X138633200Y-60769500D01*
X138633200Y-61404500D01*
X137731500Y-61404500D01*
X137731500Y-60769500D01*
X138036300Y-60769500D01*
X138036300Y-60134500D01*
X138328400Y-60134500D01*
X139534900Y-60134500D01*
X139534900Y-60452000D01*
X139852400Y-60452000D01*
X139852400Y-60134500D01*
X139534900Y-60134500D01*
X138328400Y-60134500D01*
X138328400Y-59817000D01*
X137439400Y-59817000D01*
X137439400Y-59499500D01*
X139534900Y-59499500D01*
X139534900Y-59817000D01*
X139852400Y-59817000D01*
X139852400Y-59499500D01*
X139534900Y-59499500D01*
X137439400Y-59499500D01*
X137134600Y-59499500D01*
X137134600Y-58864500D01*
X136829800Y-58864500D01*
X136829800Y-55676800D01*
X137134600Y-55676800D01*
X137134600Y-55041800D01*
X137490200Y-55041800D01*
X137490200Y-54724300D01*
X137731500Y-54724300D01*
X137731500Y-54406800D01*
X138036300Y-54406800D01*
X138036300Y-54089300D01*
X137731500Y-54089300D01*
X137731500Y-53771800D01*
X137134600Y-53771800D01*
X137134600Y-53454300D01*
X137439400Y-53454300D01*
X137439400Y-53136800D01*
X137680700Y-53136800D01*
X137680700Y-53454300D01*
G36*
X137680700Y-53454300D02*
G01*
X137985500Y-53454300D01*
X137985500Y-53771800D01*
X138328400Y-53771800D01*
X138328400Y-54089300D01*
X140741400Y-54089300D01*
X140741400Y-54406800D01*
X141973300Y-54406800D01*
X141973300Y-54724300D01*
X142265400Y-54724300D01*
X142265400Y-55041800D01*
X142570200Y-55041800D01*
X142570200Y-55359300D01*
X141351000Y-55359300D01*
X141351000Y-55676800D01*
X141046200Y-55676800D01*
X141046200Y-56642000D01*
X141351000Y-56642000D01*
X141351000Y-57912000D01*
X141643100Y-57912000D01*
X141643100Y-58229500D01*
X142214600Y-58229500D01*
X142214600Y-58547000D01*
X142570200Y-58547000D01*
X142570200Y-58864500D01*
X141046200Y-58864500D01*
X141046200Y-60769500D01*
X140741400Y-60769500D01*
X140741400Y-61404500D01*
X139852400Y-61404500D01*
X139852400Y-61087000D01*
X139534900Y-61087000D01*
X139534900Y-60769500D01*
X138633200Y-60769500D01*
X138633200Y-61404500D01*
X137731500Y-61404500D01*
X137731500Y-60769500D01*
X138036300Y-60769500D01*
X138036300Y-60134500D01*
X138328400Y-60134500D01*
X139534900Y-60134500D01*
X139534900Y-60452000D01*
X139852400Y-60452000D01*
X139852400Y-60134500D01*
X139534900Y-60134500D01*
X138328400Y-60134500D01*
X138328400Y-59817000D01*
X137439400Y-59817000D01*
X137439400Y-59499500D01*
X139534900Y-59499500D01*
X139534900Y-59817000D01*
X139852400Y-59817000D01*
X139852400Y-59499500D01*
X139534900Y-59499500D01*
X137439400Y-59499500D01*
X137134600Y-59499500D01*
X137134600Y-58864500D01*
X136829800Y-58864500D01*
X136829800Y-55676800D01*
X137134600Y-55676800D01*
X137134600Y-55041800D01*
X137490200Y-55041800D01*
X137490200Y-54724300D01*
X137731500Y-54724300D01*
X137731500Y-54406800D01*
X138036300Y-54406800D01*
X138036300Y-54089300D01*
X137731500Y-54089300D01*
X137731500Y-53771800D01*
X137134600Y-53771800D01*
X137134600Y-53454300D01*
X137439400Y-53454300D01*
X137439400Y-53136800D01*
X137680700Y-53136800D01*
X137680700Y-53454300D01*
G37*
D11*
X126431000Y-51120000D02*
X126431000Y-53020000D01*
X126431000Y-53020000D02*
X128281000Y-53020000D01*
X128281000Y-51120000D02*
X126431000Y-51120000D01*
X128281000Y-51170000D02*
X128281000Y-51120000D01*
X128281000Y-53020000D02*
X128281000Y-51170000D01*
X131858000Y-107663036D02*
X138398000Y-107663036D01*
X131858000Y-107993036D02*
X131858000Y-107663036D01*
X131858000Y-110073036D02*
X131858000Y-110403036D01*
X131858000Y-110403036D02*
X138398000Y-110403036D01*
X138398000Y-107663036D02*
X138398000Y-107993036D01*
X138398000Y-110403036D02*
X138398000Y-110073036D01*
X127975817Y-66127364D02*
X131825817Y-66127364D01*
X129915817Y-61827365D02*
G75*
G03*
X127559418Y-63328557I0J-2599999D01*
G01*
X127593186Y-65549409D02*
G75*
G03*
X127975817Y-66127364I2322631J1122045D01*
G01*
X132272217Y-63328557D02*
G75*
G03*
X129915817Y-61827364I-2356400J-1098807D01*
G01*
X131825816Y-66127363D02*
G75*
G03*
X132218199Y-65539628I-1909999J1699999D01*
G01*
X134465817Y-57906541D02*
X127925817Y-57906541D01*
X134465817Y-57576541D02*
X134465817Y-57906541D01*
X134465817Y-55496541D02*
X134465817Y-55166541D01*
X134465817Y-55166541D02*
X127925817Y-55166541D01*
X127925817Y-57906541D02*
X127925817Y-57576541D01*
X127925817Y-55166541D02*
X127925817Y-55496541D01*
X151522000Y-60454328D02*
X144982000Y-60454328D01*
X151522000Y-60124328D02*
X151522000Y-60454328D01*
X151522000Y-58044328D02*
X151522000Y-57714328D01*
X151522000Y-57714328D02*
X144982000Y-57714328D01*
X144982000Y-60454328D02*
X144982000Y-60124328D01*
X144982000Y-57714328D02*
X144982000Y-58044328D01*
X150849000Y-85503000D02*
X150849000Y-92043000D01*
X150519000Y-85503000D02*
X150849000Y-85503000D01*
X148439000Y-85503000D02*
X148109000Y-85503000D01*
X148109000Y-85503000D02*
X148109000Y-92043000D01*
X150849000Y-92043000D02*
X150519000Y-92043000D01*
X148109000Y-92043000D02*
X148439000Y-92043000D01*
X131858000Y-110838036D02*
X138398000Y-110838036D01*
X131858000Y-111168036D02*
X131858000Y-110838036D01*
X131858000Y-113248036D02*
X131858000Y-113578036D01*
X131858000Y-113578036D02*
X138398000Y-113578036D01*
X138398000Y-110838036D02*
X138398000Y-111168036D01*
X138398000Y-113578036D02*
X138398000Y-113248036D01*
X125543000Y-101286000D02*
X126873000Y-101286000D01*
X125543000Y-102616000D02*
X125543000Y-101286000D01*
X125543000Y-103886000D02*
X125543000Y-116646000D01*
X125543000Y-103886000D02*
X128203000Y-103886000D01*
X125543000Y-116646000D02*
X128203000Y-116646000D01*
X128203000Y-103886000D02*
X128203000Y-116646000D01*
X137043000Y-70940036D02*
X137043000Y-88960036D01*
X137043000Y-88960036D02*
X147543000Y-88960036D01*
X140043000Y-71000036D02*
X140043000Y-88900036D01*
X140043000Y-88900036D02*
X144543000Y-88900036D01*
X141293000Y-71000036D02*
X140043000Y-71000036D01*
X144543000Y-71000036D02*
X143293000Y-71000036D01*
X144543000Y-88900036D02*
X144543000Y-71000036D01*
X147543000Y-70940036D02*
X137043000Y-70940036D01*
X147543000Y-88960036D02*
X147543000Y-70940036D01*
X141293000Y-71000036D02*
G75*
G03*
X143293000Y-71000036I1000000J0D01*
G01*
X125543000Y-91574036D02*
X126873000Y-91574036D01*
X125543000Y-92904036D02*
X125543000Y-91574036D01*
X125543000Y-94174036D02*
X125543000Y-99314036D01*
X125543000Y-94174036D02*
X128143000Y-94174036D01*
X125543000Y-99314036D02*
X130743000Y-99314036D01*
X128143000Y-91574036D02*
X130743000Y-91574036D01*
X128143000Y-94174036D02*
X128143000Y-91574036D01*
X130743000Y-91574036D02*
X130743000Y-99314036D01*
%LPC*%
D13*
X128397000Y-67945000D03*
D14*
X136017000Y-67945000D03*
D13*
X138938000Y-105731036D03*
D14*
X131318000Y-105731036D03*
D13*
X133731000Y-72263000D03*
X128731000Y-72263000D03*
D15*
X147574000Y-98679000D03*
D13*
X144442000Y-52578000D03*
D14*
X152062000Y-52578000D03*
D13*
X138430000Y-67945000D03*
D14*
X146050000Y-67945000D03*
D13*
X133838000Y-102683036D03*
X131338000Y-102683036D03*
D15*
X152654000Y-65913000D03*
D13*
X152062000Y-55782328D03*
D14*
X144442000Y-55782328D03*
D13*
X127762000Y-85030036D03*
D14*
X135382000Y-85030036D03*
D13*
X135669000Y-79950036D03*
X133169000Y-79950036D03*
D15*
X142367000Y-108966000D03*
D13*
X149225000Y-77363000D03*
X149225000Y-79863000D03*
X144442000Y-62386328D03*
D14*
X152062000Y-62386328D03*
D16*
X147447000Y-105791000D03*
X149947000Y-108291000D03*
X147447000Y-110791000D03*
D13*
X138938000Y-102790036D03*
X138938000Y-100290036D03*
D15*
X152654000Y-88900000D03*
D13*
X127385817Y-59913364D03*
D14*
X135005817Y-59913364D03*
D15*
X127381000Y-52070000D03*
D13*
X131318000Y-109033036D03*
D14*
X138938000Y-109033036D03*
D17*
X127375817Y-64427364D03*
D18*
X129915817Y-64427364D03*
X132455817Y-64427364D03*
D13*
X135005817Y-56536541D03*
D14*
X127385817Y-56536541D03*
D13*
X152062000Y-59084328D03*
D14*
X144442000Y-59084328D03*
D13*
X149479000Y-84963000D03*
D14*
X149479000Y-92583000D03*
D13*
X131318000Y-112208036D03*
D14*
X138938000Y-112208036D03*
D19*
X126873000Y-102616000D03*
D20*
X126873000Y-105156000D03*
X126873000Y-107696000D03*
X126873000Y-110236000D03*
X126873000Y-112776000D03*
X126873000Y-115316000D03*
D21*
X138483000Y-72330036D03*
D22*
X138483000Y-74870036D03*
X138483000Y-77410036D03*
X138483000Y-79950036D03*
X138483000Y-82490036D03*
X138483000Y-85030036D03*
X138483000Y-87570036D03*
X146103000Y-87570036D03*
X146103000Y-85030036D03*
X146103000Y-82490036D03*
X146103000Y-79950036D03*
X146103000Y-77410036D03*
X146103000Y-74870036D03*
X146103000Y-72330036D03*
D19*
X126873000Y-92904036D03*
D20*
X129413000Y-92904036D03*
X126873000Y-95444036D03*
X129413000Y-95444036D03*
X126873000Y-97984036D03*
X129413000Y-97984036D03*
%LPD*%
M02*
