M48
; DRILL file {KiCad 7.0.2-0} date 2023 May 29, Monday 19:59:27
; FORMAT={-:-/ absolute / metric / decimal}
; #@! TF.CreationDate,2023-05-29T19:59:27+02:00
; #@! TF.GenerationSoftware,Kicad,Pcbnew,7.0.2-0
; #@! TF.FileFunction,Plated,1,2,PTH
FMAT,2
METRIC
; #@! TA.AperFunction,Plated,PTH,ViaDrill
T1C0.400
; #@! TA.AperFunction,Plated,PTH,ComponentDrill
T2C0.700
; #@! TA.AperFunction,Plated,PTH,ComponentDrill
T3C0.800
; #@! TA.AperFunction,Plated,PTH,ComponentDrill
T4C0.900
; #@! TA.AperFunction,Plated,PTH,ComponentDrill
T5C1.000
%
G90
G05
T1
X135.382Y-91.694
X135.398Y-95.504
X136.398Y-91.694
X136.398Y-95.504
X140.081Y-92.329
X142.24Y-94.488
X148.717Y-86.36
X150.177Y-88.201
T2
X127.381Y-52.07
X142.367Y-108.966
X147.574Y-98.679
X152.654Y-65.913
X152.654Y-88.9
T3
X127.376Y-64.427
X127.386Y-56.537
X127.386Y-59.913
X127.762Y-85.03
X128.397Y-67.945
X128.731Y-72.263
X129.916Y-64.427
X131.318Y-105.731
X131.318Y-109.033
X131.318Y-112.208
X131.338Y-102.683
X132.456Y-64.427
X133.169Y-79.95
X133.731Y-72.263
X133.838Y-102.683
X135.006Y-56.537
X135.006Y-59.913
X135.382Y-85.03
X135.669Y-79.95
X136.017Y-67.945
X138.43Y-67.945
X138.483Y-72.33
X138.483Y-74.87
X138.483Y-77.41
X138.483Y-79.95
X138.483Y-82.49
X138.483Y-85.03
X138.483Y-87.57
X138.938Y-100.29
X138.938Y-102.79
X138.938Y-105.731
X138.938Y-109.033
X138.938Y-112.208
X144.442Y-52.578
X144.442Y-55.782
X144.442Y-59.084
X144.442Y-62.386
X146.05Y-67.945
X146.103Y-72.33
X146.103Y-74.87
X146.103Y-77.41
X146.103Y-79.95
X146.103Y-82.49
X146.103Y-85.03
X146.103Y-87.57
X149.225Y-77.363
X149.225Y-79.863
X149.479Y-84.963
X149.479Y-92.583
X152.062Y-52.578
X152.062Y-55.782
X152.062Y-59.084
X152.062Y-62.386
T4
X147.447Y-105.791
X147.447Y-110.791
X149.947Y-108.291
T5
X126.873Y-92.904
X126.873Y-95.444
X126.873Y-97.984
X126.873Y-102.616
X126.873Y-105.156
X126.873Y-107.696
X126.873Y-110.236
X126.873Y-112.776
X126.873Y-115.316
X129.413Y-92.904
X129.413Y-95.444
X129.413Y-97.984
T0
M30
