G04 #@! TF.GenerationSoftware,KiCad,Pcbnew,7.0.2-0*
G04 #@! TF.CreationDate,2023-05-29T19:58:27+02:00*
G04 #@! TF.ProjectId,shmoergh-funk-live-voice,73686d6f-6572-4676-982d-66756e6b2d6c,rev?*
G04 #@! TF.SameCoordinates,Original*
G04 #@! TF.FileFunction,Soldermask,Top*
G04 #@! TF.FilePolarity,Negative*
%FSLAX46Y46*%
G04 Gerber Fmt 4.6, Leading zero omitted, Abs format (unit mm)*
G04 Created by KiCad (PCBNEW 7.0.2-0) date 2023-05-29 19:58:27*
%MOMM*%
%LPD*%
G01*
G04 APERTURE LIST*
%ADD10C,1.600000*%
%ADD11O,1.600000X1.600000*%
%ADD12C,1.400000*%
%ADD13C,1.620000*%
%ADD14R,1.500000X1.500000*%
%ADD15C,1.500000*%
%ADD16R,1.700000X1.700000*%
%ADD17O,1.700000X1.700000*%
%ADD18R,2.400000X1.600000*%
%ADD19O,2.400000X1.600000*%
G04 APERTURE END LIST*
D10*
X128397000Y-67945000D03*
D11*
X136017000Y-67945000D03*
D10*
X138938000Y-105731036D03*
D11*
X131318000Y-105731036D03*
D10*
X133731000Y-72263000D03*
X128731000Y-72263000D03*
D12*
X147574000Y-98679000D03*
D10*
X144442000Y-52578000D03*
D11*
X152062000Y-52578000D03*
D10*
X138430000Y-67945000D03*
D11*
X146050000Y-67945000D03*
D10*
X133838000Y-102683036D03*
X131338000Y-102683036D03*
D12*
X152654000Y-65913000D03*
D10*
X152062000Y-55782328D03*
D11*
X144442000Y-55782328D03*
D10*
X127762000Y-85030036D03*
D11*
X135382000Y-85030036D03*
D10*
X135669000Y-79950036D03*
X133169000Y-79950036D03*
D12*
X142367000Y-108966000D03*
D10*
X149225000Y-77363000D03*
X149225000Y-79863000D03*
X144442000Y-62386328D03*
D11*
X152062000Y-62386328D03*
D13*
X147447000Y-105791000D03*
X149947000Y-108291000D03*
X147447000Y-110791000D03*
D10*
X138938000Y-102790036D03*
X138938000Y-100290036D03*
D12*
X152654000Y-88900000D03*
D10*
X127385817Y-59913364D03*
D11*
X135005817Y-59913364D03*
D12*
X127381000Y-52070000D03*
D10*
X131318000Y-109033036D03*
D11*
X138938000Y-109033036D03*
D14*
X127375817Y-64427364D03*
D15*
X129915817Y-64427364D03*
X132455817Y-64427364D03*
D10*
X135005817Y-56536541D03*
D11*
X127385817Y-56536541D03*
D10*
X152062000Y-59084328D03*
D11*
X144442000Y-59084328D03*
D10*
X149479000Y-84963000D03*
D11*
X149479000Y-92583000D03*
D10*
X131318000Y-112208036D03*
D11*
X138938000Y-112208036D03*
D16*
X126873000Y-102616000D03*
D17*
X126873000Y-105156000D03*
X126873000Y-107696000D03*
X126873000Y-110236000D03*
X126873000Y-112776000D03*
X126873000Y-115316000D03*
D18*
X138483000Y-72330036D03*
D19*
X138483000Y-74870036D03*
X138483000Y-77410036D03*
X138483000Y-79950036D03*
X138483000Y-82490036D03*
X138483000Y-85030036D03*
X138483000Y-87570036D03*
X146103000Y-87570036D03*
X146103000Y-85030036D03*
X146103000Y-82490036D03*
X146103000Y-79950036D03*
X146103000Y-77410036D03*
X146103000Y-74870036D03*
X146103000Y-72330036D03*
D16*
X126873000Y-92904036D03*
D17*
X129413000Y-92904036D03*
X126873000Y-95444036D03*
X129413000Y-95444036D03*
X126873000Y-97984036D03*
X129413000Y-97984036D03*
M02*
