M48
; DRILL file {KiCad (6.0.8-1)-1} date 2023 January 21, Saturday 16:41:55
; FORMAT={-:-/ absolute / metric / decimal}
; #@! TF.CreationDate,2023-01-21T16:41:55+01:00
; #@! TF.GenerationSoftware,Kicad,Pcbnew,(6.0.8-1)-1
; #@! TF.FileFunction,Plated,1,2,PTH
FMAT,2
METRIC
; #@! TA.AperFunction,Plated,PTH,ViaDrill
T1C0.400
; #@! TA.AperFunction,Plated,PTH,ComponentDrill
T2C0.800
; #@! TA.AperFunction,Plated,PTH,ComponentDrill
T3C1.000
; #@! TA.AperFunction,Plated,PTH,ComponentDrill
T4C3.000
%
G90
G05
T1
X111.76Y-103.124
X111.76Y-133.096
X111.76Y-135.382
X112.268Y-106.172
X112.268Y-123.19
X114.046Y-125.222
X114.554Y-135.382
X116.586Y-70.866
X119.888Y-129.286
X121.158Y-79.756
X125.476Y-65.024
X129.286Y-146.304
X129.54Y-96.266
X129.794Y-65.024
X131.572Y-124.968
X133.096Y-92.71
X134.366Y-109.474
X134.62Y-124.968
X134.648Y-105.156
X138.684Y-112.522
X140.462Y-115.824
X140.462Y-146.304
X142.24Y-89.154
X145.125Y-85.598
X147.828Y-119.888
X149.098Y-112.776
X149.098Y-115.824
X149.606Y-79.248
X150.368Y-119.888
T2
X112.776Y-87.884
X112.776Y-91.186
X112.776Y-94.488
X113.03Y-67.056
X113.03Y-70.358
X113.03Y-73.66
X113.11Y-76.962
X114.046Y-59.642
X114.046Y-62.142
X115.062Y-133.136
X115.062Y-138.136
X115.316Y-104.648
X115.316Y-112.268
X115.316Y-122.936
X115.316Y-130.556
X117.094Y-99.822
X118.11Y-76.962
X118.11Y-123.444
X118.11Y-126.746
X118.364Y-105.156
X118.364Y-108.458
X118.364Y-111.76
X118.364Y-130.556
X118.364Y-138.176
X119.594Y-99.822
X119.634Y-52.07
X119.634Y-59.69
X120.396Y-87.884
X120.396Y-91.186
X120.396Y-94.488
X120.65Y-67.056
X120.65Y-70.358
X120.65Y-73.66
X120.65Y-81.574
X120.65Y-84.074
X121.412Y-130.556
X121.412Y-138.176
X122.428Y-140.716
X122.428Y-143.256
X122.428Y-145.796
X123.464Y-102.108
X123.698Y-91.694
X123.698Y-99.314
X123.713Y-73.411
X123.713Y-75.951
X123.713Y-78.491
X123.713Y-81.031
X123.713Y-83.571
X123.713Y-86.111
X123.713Y-88.651
X124.206Y-130.556
X124.206Y-138.176
X125.008Y-68.834
X125.73Y-123.444
X125.73Y-126.746
X125.964Y-102.108
X125.984Y-105.156
X125.984Y-108.458
X125.984Y-111.76
X125.984Y-114.848
X125.984Y-117.348
X126.746Y-140.716
X126.746Y-143.256
X126.746Y-145.796
X127.0Y-130.556
X127.0Y-138.176
X128.564Y-127.762
X129.017Y-103.896
X129.017Y-106.436
X129.017Y-108.976
X129.017Y-111.516
X129.032Y-100.584
X129.032Y-115.316
X129.794Y-130.556
X129.794Y-138.176
X129.804Y-123.19
X130.008Y-68.834
X131.064Y-141.224
X131.064Y-144.526
X131.064Y-147.828
X131.318Y-118.618
X131.333Y-73.411
X131.333Y-75.951
X131.333Y-78.491
X131.333Y-81.031
X131.333Y-83.571
X131.333Y-86.111
X131.333Y-88.651
X132.344Y-123.19
X132.588Y-130.556
X132.588Y-138.176
X133.564Y-127.762
X134.366Y-71.12
X134.366Y-74.422
X134.366Y-77.724
X134.366Y-81.026
X134.366Y-84.074
X134.366Y-87.376
X134.366Y-90.678
X134.366Y-93.98
X134.884Y-123.19
X135.382Y-130.556
X135.382Y-138.176
X136.438Y-127.762
X136.637Y-103.896
X136.637Y-106.436
X136.637Y-108.976
X136.637Y-111.516
X136.652Y-100.584
X136.652Y-115.316
X136.866Y-81.026
X136.946Y-97.282
X138.176Y-130.556
X138.176Y-138.176
X138.684Y-141.224
X138.684Y-144.526
X138.684Y-147.828
X138.938Y-118.618
X138.958Y-121.92
X139.446Y-66.04
X139.7Y-103.632
X139.7Y-106.68
X139.7Y-109.982
X140.97Y-130.556
X140.97Y-138.176
X141.224Y-140.736
X141.224Y-143.236
X141.438Y-127.762
X141.458Y-121.92
X141.478Y-117.856
X141.946Y-97.282
X141.986Y-71.12
X141.986Y-74.422
X141.986Y-77.724
X141.986Y-84.074
X141.986Y-87.376
X141.986Y-90.678
X141.986Y-93.98
X142.2Y-103.632
X144.526Y-127.254
X144.526Y-134.874
X144.986Y-139.7
X145.796Y-98.552
X147.066Y-59.436
X147.066Y-61.936
X147.066Y-66.04
X147.32Y-106.68
X147.32Y-109.982
X147.486Y-139.7
X147.574Y-121.754
X147.574Y-124.254
X148.296Y-98.552
X149.098Y-117.856
T3
X112.556Y-82.296
X117.556Y-79.796
X117.556Y-84.796
X118.156Y-114.848
X118.156Y-119.848
X123.156Y-117.348
X127.508Y-54.61
X127.508Y-57.15
X130.048Y-54.61
X130.048Y-57.15
X132.588Y-54.61
X132.588Y-57.15
X133.35Y-64.389
X135.128Y-54.61
X135.128Y-57.15
X135.89Y-64.389
X137.668Y-54.61
X137.668Y-57.15
X141.478Y-113.792
X144.018Y-113.792
X146.558Y-113.792
X146.685Y-74.168
X146.685Y-76.708
X146.685Y-79.248
X146.685Y-81.788
X146.685Y-84.328
X146.812Y-87.884
X146.812Y-90.424
X146.812Y-92.964
T4
X113.538Y-53.594
X113.538Y-146.558
X149.098Y-53.594
X149.098Y-146.558
T0
M30
