G04 #@! TF.GenerationSoftware,KiCad,Pcbnew,(6.0.8-1)-1*
G04 #@! TF.CreationDate,2023-01-21T16:41:45+01:00*
G04 #@! TF.ProjectId,steiner-parker-vcf,73746569-6e65-4722-9d70-61726b65722d,rev?*
G04 #@! TF.SameCoordinates,Original*
G04 #@! TF.FileFunction,Legend,Bot*
G04 #@! TF.FilePolarity,Positive*
%FSLAX46Y46*%
G04 Gerber Fmt 4.6, Leading zero omitted, Abs format (unit mm)*
G04 Created by KiCad (PCBNEW (6.0.8-1)-1) date 2023-01-21 16:41:45*
%MOMM*%
%LPD*%
G01*
G04 APERTURE LIST*
G04 Aperture macros list*
%AMRoundRect*
0 Rectangle with rounded corners*
0 $1 Rounding radius*
0 $2 $3 $4 $5 $6 $7 $8 $9 X,Y pos of 4 corners*
0 Add a 4 corners polygon primitive as box body*
4,1,4,$2,$3,$4,$5,$6,$7,$8,$9,$2,$3,0*
0 Add four circle primitives for the rounded corners*
1,1,$1+$1,$2,$3*
1,1,$1+$1,$4,$5*
1,1,$1+$1,$6,$7*
1,1,$1+$1,$8,$9*
0 Add four rect primitives between the rounded corners*
20,1,$1+$1,$2,$3,$4,$5,0*
20,1,$1+$1,$4,$5,$6,$7,0*
20,1,$1+$1,$6,$7,$8,$9,0*
20,1,$1+$1,$8,$9,$2,$3,0*%
G04 Aperture macros list end*
%ADD10R,1.600000X1.600000*%
%ADD11O,1.600000X1.600000*%
%ADD12C,1.600000*%
%ADD13C,6.000000*%
%ADD14R,1.700000X1.700000*%
%ADD15O,1.700000X1.700000*%
%ADD16R,2.400000X1.600000*%
%ADD17O,2.400000X1.600000*%
%ADD18R,1.500000X1.500000*%
%ADD19C,1.500000*%
%ADD20RoundRect,0.250000X-0.600000X0.600000X-0.600000X-0.600000X0.600000X-0.600000X0.600000X0.600000X0*%
%ADD21C,1.700000*%
%ADD22R,1.560000X1.560000*%
%ADD23C,1.560000*%
%ADD24C,1.440000*%
%ADD25C,2.000000*%
G04 APERTURE END LIST*
%LPC*%
D10*
X140970000Y-130556000D03*
D11*
X140970000Y-138176000D03*
D10*
X115316000Y-122936000D03*
D11*
X115316000Y-130556000D03*
D12*
X131318000Y-118618000D03*
D11*
X138938000Y-118618000D03*
D12*
X120396000Y-87884000D03*
D11*
X112776000Y-87884000D03*
D10*
X114046000Y-62142380D03*
D12*
X114046000Y-59642380D03*
D10*
X147486380Y-139700000D03*
D12*
X144986380Y-139700000D03*
D10*
X129794000Y-130556000D03*
D11*
X129794000Y-138176000D03*
D13*
X149098000Y-53594000D03*
D12*
X128564000Y-127762000D03*
X133564000Y-127762000D03*
X139700000Y-103632000D03*
X142200000Y-103632000D03*
X118110000Y-76962000D03*
X113110000Y-76962000D03*
D10*
X127000000Y-138176000D03*
D11*
X127000000Y-130556000D03*
D14*
X141478000Y-113792000D03*
D15*
X144018000Y-113792000D03*
X146558000Y-113792000D03*
D12*
X112776000Y-91186000D03*
D11*
X120396000Y-91186000D03*
D12*
X134366000Y-84074000D03*
D11*
X141986000Y-84074000D03*
D10*
X138176000Y-138176000D03*
D11*
X138176000Y-130556000D03*
D16*
X129017000Y-103896000D03*
D17*
X129017000Y-106436000D03*
X129017000Y-108976000D03*
X129017000Y-111516000D03*
X136637000Y-111516000D03*
X136637000Y-108976000D03*
X136637000Y-106436000D03*
X136637000Y-103896000D03*
D12*
X141224000Y-140736000D03*
X141224000Y-143236000D03*
D18*
X126746000Y-140716000D03*
D19*
X126746000Y-143256000D03*
X126746000Y-145796000D03*
D10*
X118364000Y-130556000D03*
D11*
X118364000Y-138176000D03*
D12*
X118364000Y-108458000D03*
D11*
X125984000Y-108458000D03*
D12*
X115316000Y-112268000D03*
D11*
X115316000Y-104648000D03*
D12*
X129032000Y-115316000D03*
D11*
X136652000Y-115316000D03*
D12*
X136652000Y-100584000D03*
D11*
X129032000Y-100584000D03*
D13*
X113538000Y-53594000D03*
D12*
X136946000Y-97282000D03*
X141946000Y-97282000D03*
X134366000Y-81026000D03*
X136866000Y-81026000D03*
D10*
X147574000Y-121753621D03*
D12*
X147574000Y-124253621D03*
X125984000Y-105156000D03*
D11*
X118364000Y-105156000D03*
D12*
X120650000Y-70358000D03*
D11*
X113030000Y-70358000D03*
D12*
X141986000Y-90678000D03*
D11*
X134366000Y-90678000D03*
D20*
X137668000Y-54610000D03*
D21*
X137668000Y-57150000D03*
X135128000Y-54610000D03*
X135128000Y-57150000D03*
X132588000Y-54610000D03*
X132588000Y-57150000D03*
X130048000Y-54610000D03*
X130048000Y-57150000D03*
X127508000Y-54610000D03*
X127508000Y-57150000D03*
D12*
X138958000Y-121920000D03*
X141458000Y-121920000D03*
X130008000Y-68834000D03*
X125008000Y-68834000D03*
D22*
X117556000Y-79796000D03*
D23*
X112556000Y-82296000D03*
X117556000Y-84796000D03*
D12*
X120650000Y-84074000D03*
X120650000Y-81574000D03*
D24*
X134884000Y-123190000D03*
X132344000Y-123190000D03*
X129804000Y-123190000D03*
D10*
X147066000Y-59436000D03*
D12*
X147066000Y-61936000D03*
X134366000Y-74422000D03*
D11*
X141986000Y-74422000D03*
D12*
X125730000Y-126746000D03*
D11*
X118110000Y-126746000D03*
D10*
X132588000Y-138176000D03*
D11*
X132588000Y-130556000D03*
D12*
X113030000Y-67056000D03*
D11*
X120650000Y-67056000D03*
D25*
X133350000Y-64389000D03*
X135890000Y-64389000D03*
D12*
X115062000Y-138136000D03*
X115062000Y-133136000D03*
D10*
X135382000Y-130556000D03*
D11*
X135382000Y-138176000D03*
D12*
X147320000Y-109982000D03*
D11*
X139700000Y-109982000D03*
D12*
X125730000Y-123444000D03*
D11*
X118110000Y-123444000D03*
D12*
X113030000Y-73660000D03*
D11*
X120650000Y-73660000D03*
D13*
X149098000Y-146558000D03*
D12*
X144526000Y-127254000D03*
D11*
X144526000Y-134874000D03*
D22*
X118156000Y-119848000D03*
D23*
X123156000Y-117348000D03*
X118156000Y-114848000D03*
D12*
X138684000Y-144526000D03*
D11*
X131064000Y-144526000D03*
D12*
X147066000Y-66040000D03*
D11*
X139446000Y-66040000D03*
D12*
X134366000Y-87376000D03*
D11*
X141986000Y-87376000D03*
D12*
X138684000Y-147828000D03*
D11*
X131064000Y-147828000D03*
D16*
X131333000Y-88651000D03*
D17*
X131333000Y-86111000D03*
X131333000Y-83571000D03*
X131333000Y-81031000D03*
X131333000Y-78491000D03*
X131333000Y-75951000D03*
X131333000Y-73411000D03*
X123713000Y-73411000D03*
X123713000Y-75951000D03*
X123713000Y-78491000D03*
X123713000Y-81031000D03*
X123713000Y-83571000D03*
X123713000Y-86111000D03*
X123713000Y-88651000D03*
D12*
X131064000Y-141224000D03*
D11*
X138684000Y-141224000D03*
D12*
X141986000Y-77724000D03*
D11*
X134366000Y-77724000D03*
D12*
X125984000Y-117348000D03*
X125984000Y-114848000D03*
D10*
X124206000Y-130556000D03*
D11*
X124206000Y-138176000D03*
D10*
X145796000Y-98552000D03*
D12*
X148296000Y-98552000D03*
X112776000Y-94488000D03*
D11*
X120396000Y-94488000D03*
D12*
X139700000Y-106680000D03*
D11*
X147320000Y-106680000D03*
D10*
X121412000Y-138176000D03*
D11*
X121412000Y-130556000D03*
D25*
X146812000Y-92964000D03*
X146812000Y-90424000D03*
X146812000Y-87884000D03*
D10*
X117094000Y-99822000D03*
D12*
X119594000Y-99822000D03*
X125964000Y-102108000D03*
X123464000Y-102108000D03*
X118364000Y-111760000D03*
D11*
X125984000Y-111760000D03*
D12*
X141986000Y-71120000D03*
D11*
X134366000Y-71120000D03*
D13*
X113538000Y-146558000D03*
D12*
X136438000Y-127762000D03*
X141438000Y-127762000D03*
D18*
X122428000Y-145796000D03*
D19*
X122428000Y-143256000D03*
X122428000Y-140716000D03*
D12*
X123698000Y-91694000D03*
D11*
X123698000Y-99314000D03*
D12*
X141986000Y-93980000D03*
D11*
X134366000Y-93980000D03*
D12*
X141478000Y-117856000D03*
D11*
X149098000Y-117856000D03*
D12*
X119634000Y-59690000D03*
D11*
X119634000Y-52070000D03*
D25*
X146685000Y-84328000D03*
X146685000Y-81788000D03*
X146685000Y-79248000D03*
X146685000Y-76708000D03*
X146685000Y-74168000D03*
M02*
