%TF.GenerationSoftware,KiCad,Pcbnew,7.0.2-0*%
%TF.CreationDate,2023-05-29T19:59:55+02:00*%
%TF.ProjectId,shmoergh-funk-live-voice,73686d6f-6572-4676-982d-66756e6b2d6c,rev?*%
%TF.SameCoordinates,Original*%
%TF.FileFunction,Drillmap*%
%TF.FilePolarity,Positive*%
%FSLAX45Y45*%
G04 Gerber Fmt 4.5, Leading zero omitted, Abs format (unit mm)*
G04 Created by KiCad (PCBNEW 7.0.2-0) date 2023-05-29 19:59:55*
%MOMM*%
%LPD*%
G01*
G04 APERTURE LIST*
%ADD10C,0.100000*%
%ADD11C,0.200000*%
G04 APERTURE END LIST*
D10*
X12500000Y-5000000D02*
X15500000Y-5000000D01*
X15500000Y-11750000D01*
X12500000Y-11750000D01*
X12500000Y-5000000D01*
D11*
X12742619Y-12067524D02*
X12742619Y-11867524D01*
X12742619Y-11867524D02*
X12790238Y-11867524D01*
X12790238Y-11867524D02*
X12818809Y-11877048D01*
X12818809Y-11877048D02*
X12837857Y-11896095D01*
X12837857Y-11896095D02*
X12847381Y-11915143D01*
X12847381Y-11915143D02*
X12856905Y-11953238D01*
X12856905Y-11953238D02*
X12856905Y-11981809D01*
X12856905Y-11981809D02*
X12847381Y-12019905D01*
X12847381Y-12019905D02*
X12837857Y-12038952D01*
X12837857Y-12038952D02*
X12818809Y-12058000D01*
X12818809Y-12058000D02*
X12790238Y-12067524D01*
X12790238Y-12067524D02*
X12742619Y-12067524D01*
X12942619Y-12067524D02*
X12942619Y-11934190D01*
X12942619Y-11972286D02*
X12952143Y-11953238D01*
X12952143Y-11953238D02*
X12961667Y-11943714D01*
X12961667Y-11943714D02*
X12980714Y-11934190D01*
X12980714Y-11934190D02*
X12999762Y-11934190D01*
X13066428Y-12067524D02*
X13066428Y-11934190D01*
X13066428Y-11867524D02*
X13056905Y-11877048D01*
X13056905Y-11877048D02*
X13066428Y-11886571D01*
X13066428Y-11886571D02*
X13075952Y-11877048D01*
X13075952Y-11877048D02*
X13066428Y-11867524D01*
X13066428Y-11867524D02*
X13066428Y-11886571D01*
X13190238Y-12067524D02*
X13171190Y-12058000D01*
X13171190Y-12058000D02*
X13161667Y-12038952D01*
X13161667Y-12038952D02*
X13161667Y-11867524D01*
X13295000Y-12067524D02*
X13275952Y-12058000D01*
X13275952Y-12058000D02*
X13266428Y-12038952D01*
X13266428Y-12038952D02*
X13266428Y-11867524D01*
X13523571Y-12067524D02*
X13523571Y-11867524D01*
X13523571Y-11867524D02*
X13590238Y-12010381D01*
X13590238Y-12010381D02*
X13656905Y-11867524D01*
X13656905Y-11867524D02*
X13656905Y-12067524D01*
X13837857Y-12067524D02*
X13837857Y-11962762D01*
X13837857Y-11962762D02*
X13828333Y-11943714D01*
X13828333Y-11943714D02*
X13809286Y-11934190D01*
X13809286Y-11934190D02*
X13771190Y-11934190D01*
X13771190Y-11934190D02*
X13752143Y-11943714D01*
X13837857Y-12058000D02*
X13818809Y-12067524D01*
X13818809Y-12067524D02*
X13771190Y-12067524D01*
X13771190Y-12067524D02*
X13752143Y-12058000D01*
X13752143Y-12058000D02*
X13742619Y-12038952D01*
X13742619Y-12038952D02*
X13742619Y-12019905D01*
X13742619Y-12019905D02*
X13752143Y-12000857D01*
X13752143Y-12000857D02*
X13771190Y-11991333D01*
X13771190Y-11991333D02*
X13818809Y-11991333D01*
X13818809Y-11991333D02*
X13837857Y-11981809D01*
X13933095Y-11934190D02*
X13933095Y-12134190D01*
X13933095Y-11943714D02*
X13952143Y-11934190D01*
X13952143Y-11934190D02*
X13990238Y-11934190D01*
X13990238Y-11934190D02*
X14009286Y-11943714D01*
X14009286Y-11943714D02*
X14018809Y-11953238D01*
X14018809Y-11953238D02*
X14028333Y-11972286D01*
X14028333Y-11972286D02*
X14028333Y-12029428D01*
X14028333Y-12029428D02*
X14018809Y-12048476D01*
X14018809Y-12048476D02*
X14009286Y-12058000D01*
X14009286Y-12058000D02*
X13990238Y-12067524D01*
X13990238Y-12067524D02*
X13952143Y-12067524D01*
X13952143Y-12067524D02*
X13933095Y-12058000D01*
X14114048Y-12048476D02*
X14123571Y-12058000D01*
X14123571Y-12058000D02*
X14114048Y-12067524D01*
X14114048Y-12067524D02*
X14104524Y-12058000D01*
X14104524Y-12058000D02*
X14114048Y-12048476D01*
X14114048Y-12048476D02*
X14114048Y-12067524D01*
X14114048Y-11943714D02*
X14123571Y-11953238D01*
X14123571Y-11953238D02*
X14114048Y-11962762D01*
X14114048Y-11962762D02*
X14104524Y-11953238D01*
X14104524Y-11953238D02*
X14114048Y-11943714D01*
X14114048Y-11943714D02*
X14114048Y-11962762D01*
M02*
