G04 #@! TF.GenerationSoftware,KiCad,Pcbnew,7.0.2-0*
G04 #@! TF.CreationDate,2023-05-29T19:58:27+02:00*
G04 #@! TF.ProjectId,shmoergh-funk-live-voice,73686d6f-6572-4676-982d-66756e6b2d6c,rev?*
G04 #@! TF.SameCoordinates,Original*
G04 #@! TF.FileFunction,Copper,L2,Bot*
G04 #@! TF.FilePolarity,Positive*
%FSLAX46Y46*%
G04 Gerber Fmt 4.6, Leading zero omitted, Abs format (unit mm)*
G04 Created by KiCad (PCBNEW 7.0.2-0) date 2023-05-29 19:58:27*
%MOMM*%
%LPD*%
G01*
G04 APERTURE LIST*
G04 #@! TA.AperFunction,ComponentPad*
%ADD10C,1.600000*%
G04 #@! TD*
G04 #@! TA.AperFunction,ComponentPad*
%ADD11O,1.600000X1.600000*%
G04 #@! TD*
G04 #@! TA.AperFunction,ComponentPad*
%ADD12C,1.400000*%
G04 #@! TD*
G04 #@! TA.AperFunction,ComponentPad*
%ADD13C,1.620000*%
G04 #@! TD*
G04 #@! TA.AperFunction,ComponentPad*
%ADD14R,1.500000X1.500000*%
G04 #@! TD*
G04 #@! TA.AperFunction,ComponentPad*
%ADD15C,1.500000*%
G04 #@! TD*
G04 #@! TA.AperFunction,ComponentPad*
%ADD16R,1.700000X1.700000*%
G04 #@! TD*
G04 #@! TA.AperFunction,ComponentPad*
%ADD17O,1.700000X1.700000*%
G04 #@! TD*
G04 #@! TA.AperFunction,ComponentPad*
%ADD18R,2.400000X1.600000*%
G04 #@! TD*
G04 #@! TA.AperFunction,ComponentPad*
%ADD19O,2.400000X1.600000*%
G04 #@! TD*
G04 #@! TA.AperFunction,ViaPad*
%ADD20C,0.800000*%
G04 #@! TD*
G04 #@! TA.AperFunction,Conductor*
%ADD21C,0.508000*%
G04 #@! TD*
G04 APERTURE END LIST*
D10*
X128397000Y-67945000D03*
D11*
X136017000Y-67945000D03*
D10*
X138938000Y-105731036D03*
D11*
X131318000Y-105731036D03*
D10*
X133731000Y-72263000D03*
X128731000Y-72263000D03*
D12*
X147574000Y-98679000D03*
D10*
X144442000Y-52578000D03*
D11*
X152062000Y-52578000D03*
D10*
X138430000Y-67945000D03*
D11*
X146050000Y-67945000D03*
D10*
X133838000Y-102683036D03*
X131338000Y-102683036D03*
D12*
X152654000Y-65913000D03*
D10*
X152062000Y-55782328D03*
D11*
X144442000Y-55782328D03*
D10*
X127762000Y-85030036D03*
D11*
X135382000Y-85030036D03*
D10*
X135669000Y-79950036D03*
X133169000Y-79950036D03*
D12*
X142367000Y-108966000D03*
D10*
X149225000Y-77363000D03*
X149225000Y-79863000D03*
X144442000Y-62386328D03*
D11*
X152062000Y-62386328D03*
D13*
X147447000Y-105791000D03*
X149947000Y-108291000D03*
X147447000Y-110791000D03*
D10*
X138938000Y-102790036D03*
X138938000Y-100290036D03*
D12*
X152654000Y-88900000D03*
D10*
X127385817Y-59913364D03*
D11*
X135005817Y-59913364D03*
D12*
X127381000Y-52070000D03*
D10*
X131318000Y-109033036D03*
D11*
X138938000Y-109033036D03*
D14*
X127375817Y-64427364D03*
D15*
X129915817Y-64427364D03*
X132455817Y-64427364D03*
D10*
X135005817Y-56536541D03*
D11*
X127385817Y-56536541D03*
D10*
X152062000Y-59084328D03*
D11*
X144442000Y-59084328D03*
D10*
X149479000Y-84963000D03*
D11*
X149479000Y-92583000D03*
D10*
X131318000Y-112208036D03*
D11*
X138938000Y-112208036D03*
D16*
X126873000Y-102616000D03*
D17*
X126873000Y-105156000D03*
X126873000Y-107696000D03*
X126873000Y-110236000D03*
X126873000Y-112776000D03*
X126873000Y-115316000D03*
D18*
X138483000Y-72330036D03*
D19*
X138483000Y-74870036D03*
X138483000Y-77410036D03*
X138483000Y-79950036D03*
X138483000Y-82490036D03*
X138483000Y-85030036D03*
X138483000Y-87570036D03*
X146103000Y-87570036D03*
X146103000Y-85030036D03*
X146103000Y-82490036D03*
X146103000Y-79950036D03*
X146103000Y-77410036D03*
X146103000Y-74870036D03*
X146103000Y-72330036D03*
D16*
X126873000Y-92904036D03*
D17*
X129413000Y-92904036D03*
X126873000Y-95444036D03*
X129413000Y-95444036D03*
X126873000Y-97984036D03*
X129413000Y-97984036D03*
D20*
X136398000Y-95504000D03*
X136398000Y-91694000D03*
X135382000Y-91694000D03*
X135398497Y-95504000D03*
X140081000Y-92329000D03*
X142240000Y-94488000D03*
X148717000Y-86360000D03*
X150177500Y-88201500D03*
D21*
X136398000Y-95504000D02*
X136398000Y-91694000D01*
X135398497Y-95504000D02*
X135382000Y-95487503D01*
X135382000Y-95487503D02*
X135382000Y-91694000D01*
X142240000Y-94488000D02*
X140081000Y-92329000D01*
X150177500Y-88201500D02*
X150177500Y-87820500D01*
X150177500Y-87820500D02*
X148717000Y-86360000D01*
G04 #@! TA.AperFunction,Conductor*
G36*
X128953507Y-95234192D02*
G01*
X128913000Y-95372147D01*
X128913000Y-95515925D01*
X128953507Y-95653880D01*
X128979314Y-95694036D01*
X127306686Y-95694036D01*
X127332493Y-95653880D01*
X127373000Y-95515925D01*
X127373000Y-95372147D01*
X127332493Y-95234192D01*
X127306686Y-95194036D01*
X128979314Y-95194036D01*
X128953507Y-95234192D01*
G37*
G04 #@! TD.AperFunction*
G04 #@! TA.AperFunction,Conductor*
G36*
X148839835Y-77488148D02*
G01*
X148897359Y-77601045D01*
X148986955Y-77690641D01*
X149099852Y-77748165D01*
X149180599Y-77760953D01*
X148499526Y-78442025D01*
X148499526Y-78442026D01*
X148572515Y-78493133D01*
X148587975Y-78500342D01*
X148640414Y-78546514D01*
X148659566Y-78613708D01*
X148639350Y-78680589D01*
X148587978Y-78725104D01*
X148572268Y-78732429D01*
X148385859Y-78862953D01*
X148224953Y-79023859D01*
X148094432Y-79210264D01*
X147998261Y-79416502D01*
X147972114Y-79514085D01*
X147935749Y-79573745D01*
X147872901Y-79604274D01*
X147803526Y-79595979D01*
X147749648Y-79551494D01*
X147732564Y-79514083D01*
X147729739Y-79503539D01*
X147633567Y-79297300D01*
X147503046Y-79110895D01*
X147342140Y-78949989D01*
X147155733Y-78819467D01*
X147097725Y-78792418D01*
X147045285Y-78746246D01*
X147026133Y-78679053D01*
X147046348Y-78612171D01*
X147097725Y-78567654D01*
X147098317Y-78567378D01*
X147155734Y-78540604D01*
X147342139Y-78410083D01*
X147503047Y-78249175D01*
X147633568Y-78062770D01*
X147729739Y-77856532D01*
X147750785Y-77777983D01*
X147787149Y-77718325D01*
X147849996Y-77687795D01*
X147919372Y-77696089D01*
X147973250Y-77740574D01*
X147990335Y-77777983D01*
X147998734Y-77809327D01*
X148094866Y-78015484D01*
X148145972Y-78088471D01*
X148145974Y-78088472D01*
X148827046Y-77407399D01*
X148839835Y-77488148D01*
G37*
G04 #@! TD.AperFunction*
G04 #@! TA.AperFunction,Conductor*
G36*
X154942539Y-50020185D02*
G01*
X154988294Y-50072989D01*
X154999500Y-50124500D01*
X154999500Y-117375500D01*
X154979815Y-117442539D01*
X154927011Y-117488294D01*
X154875500Y-117499500D01*
X125124500Y-117499500D01*
X125057461Y-117479815D01*
X125011706Y-117427011D01*
X125000500Y-117375500D01*
X125000500Y-115316000D01*
X125517340Y-115316000D01*
X125537936Y-115551407D01*
X125582709Y-115718501D01*
X125599097Y-115779663D01*
X125698965Y-115993830D01*
X125834505Y-116187401D01*
X126001599Y-116354495D01*
X126195170Y-116490035D01*
X126409337Y-116589903D01*
X126637592Y-116651063D01*
X126873000Y-116671659D01*
X127108408Y-116651063D01*
X127336663Y-116589903D01*
X127550830Y-116490035D01*
X127744401Y-116354495D01*
X127911495Y-116187401D01*
X128047035Y-115993830D01*
X128146903Y-115779663D01*
X128208063Y-115551408D01*
X128228659Y-115316000D01*
X128208063Y-115080592D01*
X128146903Y-114852337D01*
X128047035Y-114638171D01*
X127911495Y-114444599D01*
X127744401Y-114277505D01*
X127558839Y-114147573D01*
X127515217Y-114092998D01*
X127508024Y-114023499D01*
X127539546Y-113961145D01*
X127558837Y-113944428D01*
X127744401Y-113814495D01*
X127911495Y-113647401D01*
X128047035Y-113453830D01*
X128146903Y-113239663D01*
X128208063Y-113011408D01*
X128228659Y-112776000D01*
X128208063Y-112540592D01*
X128146903Y-112312337D01*
X128098266Y-112208036D01*
X130012531Y-112208036D01*
X130032364Y-112434725D01*
X130091261Y-112654533D01*
X130187432Y-112860771D01*
X130317953Y-113047176D01*
X130478859Y-113208082D01*
X130665264Y-113338603D01*
X130665265Y-113338603D01*
X130665266Y-113338604D01*
X130871504Y-113434775D01*
X131091308Y-113493671D01*
X131318000Y-113513504D01*
X131544692Y-113493671D01*
X131764496Y-113434775D01*
X131970734Y-113338604D01*
X132157139Y-113208083D01*
X132318047Y-113047175D01*
X132448568Y-112860770D01*
X132544739Y-112654532D01*
X132603635Y-112434728D01*
X132623468Y-112208036D01*
X137632531Y-112208036D01*
X137652364Y-112434725D01*
X137711261Y-112654533D01*
X137807432Y-112860771D01*
X137937953Y-113047176D01*
X138098859Y-113208082D01*
X138285264Y-113338603D01*
X138285265Y-113338603D01*
X138285266Y-113338604D01*
X138491504Y-113434775D01*
X138711308Y-113493671D01*
X138938000Y-113513504D01*
X139164692Y-113493671D01*
X139384496Y-113434775D01*
X139590734Y-113338604D01*
X139777139Y-113208083D01*
X139938047Y-113047175D01*
X140068568Y-112860770D01*
X140164739Y-112654532D01*
X140223635Y-112434728D01*
X140243468Y-112208036D01*
X140223635Y-111981344D01*
X140164739Y-111761540D01*
X140068568Y-111555302D01*
X139993963Y-111448753D01*
X139938046Y-111368895D01*
X139777140Y-111207989D01*
X139590735Y-111077468D01*
X139384497Y-110981297D01*
X139164689Y-110922400D01*
X138938000Y-110902567D01*
X138711310Y-110922400D01*
X138491502Y-110981297D01*
X138285264Y-111077468D01*
X138098859Y-111207989D01*
X137937953Y-111368895D01*
X137807432Y-111555300D01*
X137711261Y-111761538D01*
X137652364Y-111981346D01*
X137632531Y-112208036D01*
X132623468Y-112208036D01*
X132603635Y-111981344D01*
X132544739Y-111761540D01*
X132448568Y-111555302D01*
X132373963Y-111448753D01*
X132318046Y-111368895D01*
X132157140Y-111207989D01*
X131970735Y-111077468D01*
X131764497Y-110981297D01*
X131544689Y-110922400D01*
X131318000Y-110902567D01*
X131091310Y-110922400D01*
X130871502Y-110981297D01*
X130665264Y-111077468D01*
X130478859Y-111207989D01*
X130317953Y-111368895D01*
X130187432Y-111555300D01*
X130091261Y-111761538D01*
X130032364Y-111981346D01*
X130012531Y-112208036D01*
X128098266Y-112208036D01*
X128047035Y-112098171D01*
X127911495Y-111904599D01*
X127744401Y-111737505D01*
X127558839Y-111607573D01*
X127515215Y-111552997D01*
X127508023Y-111483498D01*
X127539545Y-111421144D01*
X127558831Y-111404432D01*
X127744401Y-111274495D01*
X127911495Y-111107401D01*
X128047035Y-110913830D01*
X128104312Y-110791000D01*
X146131493Y-110791000D01*
X146151478Y-111019432D01*
X146210829Y-111240931D01*
X146263056Y-111352933D01*
X146307738Y-111448753D01*
X146439264Y-111636591D01*
X146601409Y-111798736D01*
X146789247Y-111930262D01*
X146997070Y-112027171D01*
X147218565Y-112086521D01*
X147370855Y-112099844D01*
X147446999Y-112106506D01*
X147446999Y-112106505D01*
X147447000Y-112106506D01*
X147675435Y-112086521D01*
X147896930Y-112027171D01*
X148104753Y-111930262D01*
X148292591Y-111798736D01*
X148454736Y-111636591D01*
X148586262Y-111448753D01*
X148683171Y-111240930D01*
X148742521Y-111019435D01*
X148762506Y-110791000D01*
X148742521Y-110562565D01*
X148683171Y-110341070D01*
X148586262Y-110133247D01*
X148454736Y-109945409D01*
X148292591Y-109783264D01*
X148104753Y-109651738D01*
X147995278Y-109600689D01*
X147896931Y-109554829D01*
X147675432Y-109495478D01*
X147447000Y-109475493D01*
X147218567Y-109495478D01*
X146997068Y-109554829D01*
X146789249Y-109651737D01*
X146789247Y-109651738D01*
X146601409Y-109783264D01*
X146601405Y-109783267D01*
X146439267Y-109945405D01*
X146439264Y-109945408D01*
X146439264Y-109945409D01*
X146369357Y-110045247D01*
X146307737Y-110133249D01*
X146210829Y-110341068D01*
X146151478Y-110562567D01*
X146131493Y-110791000D01*
X128104312Y-110791000D01*
X128146903Y-110699663D01*
X128208063Y-110471408D01*
X128228659Y-110236000D01*
X128208063Y-110000592D01*
X128146903Y-109772337D01*
X128047035Y-109558171D01*
X127911495Y-109364599D01*
X127744401Y-109197505D01*
X127558839Y-109067573D01*
X127531232Y-109033035D01*
X130012531Y-109033035D01*
X130032364Y-109259725D01*
X130091261Y-109479533D01*
X130187432Y-109685771D01*
X130317953Y-109872176D01*
X130478859Y-110033082D01*
X130665264Y-110163603D01*
X130665265Y-110163603D01*
X130665266Y-110163604D01*
X130871504Y-110259775D01*
X131091308Y-110318671D01*
X131318000Y-110338504D01*
X131544692Y-110318671D01*
X131764496Y-110259775D01*
X131970734Y-110163604D01*
X132157139Y-110033083D01*
X132318047Y-109872175D01*
X132448568Y-109685770D01*
X132544739Y-109479532D01*
X132603635Y-109259728D01*
X132623468Y-109033036D01*
X132623468Y-109033035D01*
X137632531Y-109033035D01*
X137652364Y-109259725D01*
X137711261Y-109479533D01*
X137807432Y-109685771D01*
X137937953Y-109872176D01*
X138098859Y-110033082D01*
X138285264Y-110163603D01*
X138285265Y-110163603D01*
X138285266Y-110163604D01*
X138491504Y-110259775D01*
X138711308Y-110318671D01*
X138938000Y-110338504D01*
X139164692Y-110318671D01*
X139384496Y-110259775D01*
X139590734Y-110163604D01*
X139777139Y-110033083D01*
X139938047Y-109872175D01*
X140068568Y-109685770D01*
X140164739Y-109479532D01*
X140223635Y-109259728D01*
X140243468Y-109033036D01*
X140237603Y-108965999D01*
X141161357Y-108965999D01*
X141181885Y-109187537D01*
X141242769Y-109401526D01*
X141341941Y-109600688D01*
X141476019Y-109778237D01*
X141640437Y-109928124D01*
X141829595Y-110045245D01*
X141829597Y-110045245D01*
X141829599Y-110045247D01*
X142037060Y-110125618D01*
X142255757Y-110166500D01*
X142255759Y-110166500D01*
X142478241Y-110166500D01*
X142478243Y-110166500D01*
X142696940Y-110125618D01*
X142904401Y-110045247D01*
X143093562Y-109928124D01*
X143257981Y-109778236D01*
X143392058Y-109600689D01*
X143491229Y-109401528D01*
X143501737Y-109364598D01*
X143520477Y-109298732D01*
X143552115Y-109187536D01*
X143572643Y-108966000D01*
X143552115Y-108744464D01*
X143507182Y-108586540D01*
X143491230Y-108530473D01*
X143392058Y-108331311D01*
X143361616Y-108290999D01*
X148631493Y-108290999D01*
X148651478Y-108519432D01*
X148710829Y-108740931D01*
X148741332Y-108806344D01*
X148807738Y-108948753D01*
X148939264Y-109136591D01*
X149101409Y-109298736D01*
X149289247Y-109430262D01*
X149497070Y-109527171D01*
X149718565Y-109586521D01*
X149870855Y-109599844D01*
X149946999Y-109606506D01*
X149946999Y-109606505D01*
X149947000Y-109606506D01*
X150175435Y-109586521D01*
X150396930Y-109527171D01*
X150604753Y-109430262D01*
X150792591Y-109298736D01*
X150954736Y-109136591D01*
X151086262Y-108948753D01*
X151183171Y-108740930D01*
X151242521Y-108519435D01*
X151262506Y-108291000D01*
X151242521Y-108062565D01*
X151183171Y-107841070D01*
X151086262Y-107633247D01*
X150954736Y-107445409D01*
X150792591Y-107283264D01*
X150604753Y-107151738D01*
X150464894Y-107086521D01*
X150396931Y-107054829D01*
X150175432Y-106995478D01*
X149947000Y-106975493D01*
X149718567Y-106995478D01*
X149497068Y-107054829D01*
X149289249Y-107151737D01*
X149289247Y-107151738D01*
X149174140Y-107232337D01*
X149101405Y-107283267D01*
X148939267Y-107445405D01*
X148807737Y-107633249D01*
X148710829Y-107841068D01*
X148651478Y-108062567D01*
X148631493Y-108290999D01*
X143361616Y-108290999D01*
X143257980Y-108153762D01*
X143093562Y-108003875D01*
X142904404Y-107886754D01*
X142843174Y-107863033D01*
X142696940Y-107806382D01*
X142478243Y-107765500D01*
X142255757Y-107765500D01*
X142037515Y-107806297D01*
X142037060Y-107806382D01*
X141829595Y-107886754D01*
X141640437Y-108003875D01*
X141476019Y-108153762D01*
X141341941Y-108331311D01*
X141242769Y-108530473D01*
X141181885Y-108744462D01*
X141161357Y-108965999D01*
X140237603Y-108965999D01*
X140223635Y-108806344D01*
X140164739Y-108586540D01*
X140068568Y-108380302D01*
X140064037Y-108373830D01*
X139938046Y-108193895D01*
X139777140Y-108032989D01*
X139590735Y-107902468D01*
X139384497Y-107806297D01*
X139164689Y-107747400D01*
X138938000Y-107727567D01*
X138711310Y-107747400D01*
X138491502Y-107806297D01*
X138285264Y-107902468D01*
X138098859Y-108032989D01*
X137937953Y-108193895D01*
X137807432Y-108380300D01*
X137711261Y-108586538D01*
X137652364Y-108806346D01*
X137632531Y-109033035D01*
X132623468Y-109033035D01*
X132603635Y-108806344D01*
X132544739Y-108586540D01*
X132448568Y-108380302D01*
X132444037Y-108373830D01*
X132318046Y-108193895D01*
X132157140Y-108032989D01*
X131970735Y-107902468D01*
X131764497Y-107806297D01*
X131544689Y-107747400D01*
X131318000Y-107727567D01*
X131091310Y-107747400D01*
X130871502Y-107806297D01*
X130665264Y-107902468D01*
X130478859Y-108032989D01*
X130317953Y-108193895D01*
X130187432Y-108380300D01*
X130091261Y-108586538D01*
X130032364Y-108806346D01*
X130012531Y-109033035D01*
X127531232Y-109033035D01*
X127515216Y-109012998D01*
X127508022Y-108943500D01*
X127539545Y-108881145D01*
X127558837Y-108864428D01*
X127744401Y-108734495D01*
X127911495Y-108567401D01*
X128047035Y-108373830D01*
X128146903Y-108159663D01*
X128208063Y-107931408D01*
X128228659Y-107696000D01*
X128208063Y-107460592D01*
X128146903Y-107232337D01*
X128047035Y-107018171D01*
X127911495Y-106824599D01*
X127744401Y-106657505D01*
X127558839Y-106527573D01*
X127515215Y-106472997D01*
X127508023Y-106403498D01*
X127539545Y-106341144D01*
X127558831Y-106324432D01*
X127744401Y-106194495D01*
X127911495Y-106027401D01*
X128047035Y-105833830D01*
X128094969Y-105731035D01*
X130012531Y-105731035D01*
X130032364Y-105957725D01*
X130091261Y-106177533D01*
X130187432Y-106383771D01*
X130317953Y-106570176D01*
X130478859Y-106731082D01*
X130665264Y-106861603D01*
X130665265Y-106861603D01*
X130665266Y-106861604D01*
X130871504Y-106957775D01*
X131091308Y-107016671D01*
X131318000Y-107036504D01*
X131544692Y-107016671D01*
X131764496Y-106957775D01*
X131970734Y-106861604D01*
X132157139Y-106731083D01*
X132318047Y-106570175D01*
X132448568Y-106383770D01*
X132544739Y-106177532D01*
X132603635Y-105957728D01*
X132623468Y-105731036D01*
X132623468Y-105731035D01*
X137632531Y-105731035D01*
X137652364Y-105957725D01*
X137711261Y-106177533D01*
X137807432Y-106383771D01*
X137937953Y-106570176D01*
X138098859Y-106731082D01*
X138285264Y-106861603D01*
X138285265Y-106861603D01*
X138285266Y-106861604D01*
X138491504Y-106957775D01*
X138711308Y-107016671D01*
X138938000Y-107036504D01*
X139164692Y-107016671D01*
X139384496Y-106957775D01*
X139590734Y-106861604D01*
X139777139Y-106731083D01*
X139938047Y-106570175D01*
X140068568Y-106383770D01*
X140164739Y-106177532D01*
X140223635Y-105957728D01*
X140238222Y-105791000D01*
X146131493Y-105791000D01*
X146151478Y-106019432D01*
X146198386Y-106194495D01*
X146210829Y-106240930D01*
X146307738Y-106448753D01*
X146439264Y-106636591D01*
X146601409Y-106798736D01*
X146789247Y-106930262D01*
X146997070Y-107027171D01*
X147218565Y-107086521D01*
X147447000Y-107106506D01*
X147675435Y-107086521D01*
X147896930Y-107027171D01*
X148104753Y-106930262D01*
X148292591Y-106798736D01*
X148454736Y-106636591D01*
X148586262Y-106448753D01*
X148683171Y-106240930D01*
X148742521Y-106019435D01*
X148762506Y-105791000D01*
X148742521Y-105562565D01*
X148683171Y-105341070D01*
X148586262Y-105133247D01*
X148454736Y-104945409D01*
X148292591Y-104783264D01*
X148104753Y-104651738D01*
X147994804Y-104600468D01*
X147896931Y-104554829D01*
X147675432Y-104495478D01*
X147447000Y-104475493D01*
X147218567Y-104495478D01*
X146997068Y-104554829D01*
X146789249Y-104651737D01*
X146789247Y-104651738D01*
X146601409Y-104783264D01*
X146601405Y-104783267D01*
X146439267Y-104945405D01*
X146439264Y-104945408D01*
X146439264Y-104945409D01*
X146346213Y-105078300D01*
X146307737Y-105133249D01*
X146210829Y-105341068D01*
X146151478Y-105562567D01*
X146131493Y-105791000D01*
X140238222Y-105791000D01*
X140243468Y-105731036D01*
X140223635Y-105504344D01*
X140164739Y-105284540D01*
X140068568Y-105078302D01*
X139975517Y-104945409D01*
X139938046Y-104891895D01*
X139777140Y-104730989D01*
X139590735Y-104600468D01*
X139384497Y-104504297D01*
X139164689Y-104445400D01*
X138938000Y-104425567D01*
X138711310Y-104445400D01*
X138491502Y-104504297D01*
X138285264Y-104600468D01*
X138098859Y-104730989D01*
X137937953Y-104891895D01*
X137807432Y-105078300D01*
X137711261Y-105284538D01*
X137652364Y-105504346D01*
X137632531Y-105731035D01*
X132623468Y-105731035D01*
X132603635Y-105504344D01*
X132544739Y-105284540D01*
X132448568Y-105078302D01*
X132355517Y-104945409D01*
X132318046Y-104891895D01*
X132157140Y-104730989D01*
X131970735Y-104600468D01*
X131764497Y-104504297D01*
X131544689Y-104445400D01*
X131318000Y-104425567D01*
X131091310Y-104445400D01*
X130871502Y-104504297D01*
X130665264Y-104600468D01*
X130478859Y-104730989D01*
X130317953Y-104891895D01*
X130187432Y-105078300D01*
X130091261Y-105284538D01*
X130032364Y-105504346D01*
X130012531Y-105731035D01*
X128094969Y-105731035D01*
X128146903Y-105619663D01*
X128208063Y-105391408D01*
X128228659Y-105156000D01*
X128208063Y-104920592D01*
X128146903Y-104692337D01*
X128047035Y-104478171D01*
X127911495Y-104284599D01*
X127789569Y-104162673D01*
X127756084Y-104101350D01*
X127761068Y-104031658D01*
X127802940Y-103975725D01*
X127833915Y-103958810D01*
X127965331Y-103909796D01*
X128080546Y-103823546D01*
X128166796Y-103708331D01*
X128217091Y-103573483D01*
X128223500Y-103513873D01*
X128223500Y-102683036D01*
X130032531Y-102683036D01*
X130052364Y-102909725D01*
X130111261Y-103129533D01*
X130207432Y-103335771D01*
X130337953Y-103522176D01*
X130498859Y-103683082D01*
X130685264Y-103813603D01*
X130685265Y-103813603D01*
X130685266Y-103813604D01*
X130891504Y-103909775D01*
X131111308Y-103968671D01*
X131191936Y-103975725D01*
X131337999Y-103988504D01*
X131337999Y-103988503D01*
X131338000Y-103988504D01*
X131564692Y-103968671D01*
X131784496Y-103909775D01*
X131990734Y-103813604D01*
X132177139Y-103683083D01*
X132338047Y-103522175D01*
X132468568Y-103335770D01*
X132475619Y-103320648D01*
X132521789Y-103268212D01*
X132588982Y-103249059D01*
X132655864Y-103269274D01*
X132700380Y-103320648D01*
X132707432Y-103335770D01*
X132707434Y-103335774D01*
X132837953Y-103522176D01*
X132998859Y-103683082D01*
X133185264Y-103813603D01*
X133185265Y-103813603D01*
X133185266Y-103813604D01*
X133391504Y-103909775D01*
X133611308Y-103968671D01*
X133691936Y-103975725D01*
X133837999Y-103988504D01*
X133837999Y-103988503D01*
X133838000Y-103988504D01*
X134064692Y-103968671D01*
X134284496Y-103909775D01*
X134490734Y-103813604D01*
X134677139Y-103683083D01*
X134838047Y-103522175D01*
X134968568Y-103335770D01*
X135064739Y-103129532D01*
X135123635Y-102909728D01*
X135134107Y-102790035D01*
X137632531Y-102790035D01*
X137652364Y-103016725D01*
X137711261Y-103236533D01*
X137807432Y-103442771D01*
X137937953Y-103629176D01*
X138098859Y-103790082D01*
X138285264Y-103920603D01*
X138285265Y-103920603D01*
X138285266Y-103920604D01*
X138491504Y-104016775D01*
X138711308Y-104075671D01*
X138938000Y-104095504D01*
X139164692Y-104075671D01*
X139384496Y-104016775D01*
X139590734Y-103920604D01*
X139777139Y-103790083D01*
X139938047Y-103629175D01*
X140068568Y-103442770D01*
X140164739Y-103236532D01*
X140223635Y-103016728D01*
X140243468Y-102790036D01*
X140223635Y-102563344D01*
X140164739Y-102343540D01*
X140068568Y-102137302D01*
X139993647Y-102030302D01*
X139938046Y-101950895D01*
X139777140Y-101789989D01*
X139590735Y-101659468D01*
X139575023Y-101652142D01*
X139522584Y-101605969D01*
X139503432Y-101538776D01*
X139523648Y-101471895D01*
X139575026Y-101427376D01*
X139590484Y-101420167D01*
X139663472Y-101369061D01*
X138982401Y-100687989D01*
X139063148Y-100675201D01*
X139176045Y-100617677D01*
X139265641Y-100528081D01*
X139323165Y-100415184D01*
X139335953Y-100334436D01*
X140017025Y-101015508D01*
X140068134Y-100942516D01*
X140164266Y-100736362D01*
X140223141Y-100516638D01*
X140242966Y-100290036D01*
X140223141Y-100063433D01*
X140164266Y-99843709D01*
X140068133Y-99637551D01*
X140017025Y-99564562D01*
X139335953Y-100245634D01*
X139323165Y-100164888D01*
X139265641Y-100051991D01*
X139176045Y-99962395D01*
X139063148Y-99904871D01*
X138982400Y-99892082D01*
X139663472Y-99211010D01*
X139663471Y-99211008D01*
X139590484Y-99159902D01*
X139384326Y-99063769D01*
X139164602Y-99004894D01*
X138937999Y-98985069D01*
X138711397Y-99004894D01*
X138491672Y-99063769D01*
X138285516Y-99159901D01*
X138212527Y-99211009D01*
X138212526Y-99211009D01*
X138893600Y-99892082D01*
X138812852Y-99904871D01*
X138699955Y-99962395D01*
X138610359Y-100051991D01*
X138552835Y-100164888D01*
X138540046Y-100245635D01*
X137858973Y-99564562D01*
X137858973Y-99564563D01*
X137807865Y-99637552D01*
X137711733Y-99843708D01*
X137652858Y-100063433D01*
X137633033Y-100290036D01*
X137652858Y-100516638D01*
X137711733Y-100736362D01*
X137807866Y-100942520D01*
X137858972Y-101015507D01*
X137858974Y-101015508D01*
X138540046Y-100334435D01*
X138552835Y-100415184D01*
X138610359Y-100528081D01*
X138699955Y-100617677D01*
X138812852Y-100675201D01*
X138893599Y-100687989D01*
X138212526Y-101369061D01*
X138212526Y-101369062D01*
X138285515Y-101420169D01*
X138300975Y-101427378D01*
X138353414Y-101473550D01*
X138372566Y-101540744D01*
X138352350Y-101607625D01*
X138300978Y-101652140D01*
X138285268Y-101659465D01*
X138098859Y-101789989D01*
X137937953Y-101950895D01*
X137807432Y-102137300D01*
X137711261Y-102343538D01*
X137652364Y-102563346D01*
X137632531Y-102790035D01*
X135134107Y-102790035D01*
X135143468Y-102683036D01*
X135123635Y-102456344D01*
X135064739Y-102236540D01*
X134968568Y-102030302D01*
X134912968Y-101950895D01*
X134838046Y-101843895D01*
X134677140Y-101682989D01*
X134490735Y-101552468D01*
X134284497Y-101456297D01*
X134064689Y-101397400D01*
X133837999Y-101377567D01*
X133611310Y-101397400D01*
X133391502Y-101456297D01*
X133185264Y-101552468D01*
X132998859Y-101682989D01*
X132837953Y-101843895D01*
X132707432Y-102030300D01*
X132700382Y-102045421D01*
X132654209Y-102097860D01*
X132587016Y-102117012D01*
X132520135Y-102096796D01*
X132475618Y-102045421D01*
X132468567Y-102030300D01*
X132338046Y-101843895D01*
X132177140Y-101682989D01*
X131990735Y-101552468D01*
X131784497Y-101456297D01*
X131564689Y-101397400D01*
X131337999Y-101377567D01*
X131111310Y-101397400D01*
X130891502Y-101456297D01*
X130685264Y-101552468D01*
X130498859Y-101682989D01*
X130337953Y-101843895D01*
X130207432Y-102030300D01*
X130111261Y-102236538D01*
X130052364Y-102456346D01*
X130032531Y-102683036D01*
X128223500Y-102683036D01*
X128223499Y-101718128D01*
X128217091Y-101658517D01*
X128166796Y-101523669D01*
X128080546Y-101408454D01*
X127965331Y-101322204D01*
X127830483Y-101271909D01*
X127770873Y-101265500D01*
X127767550Y-101265500D01*
X125978439Y-101265500D01*
X125978420Y-101265500D01*
X125975128Y-101265501D01*
X125971848Y-101265853D01*
X125971840Y-101265854D01*
X125915515Y-101271909D01*
X125780669Y-101322204D01*
X125665454Y-101408454D01*
X125579204Y-101523668D01*
X125528910Y-101658515D01*
X125528909Y-101658517D01*
X125522500Y-101718127D01*
X125522500Y-101721448D01*
X125522500Y-101721449D01*
X125522500Y-103510560D01*
X125522500Y-103510578D01*
X125522501Y-103513872D01*
X125522853Y-103517152D01*
X125522854Y-103517159D01*
X125528909Y-103573483D01*
X125579204Y-103708331D01*
X125665454Y-103823546D01*
X125780669Y-103909796D01*
X125892907Y-103951658D01*
X125912082Y-103958810D01*
X125968016Y-104000681D01*
X125992433Y-104066146D01*
X125977581Y-104134419D01*
X125956431Y-104162673D01*
X125834503Y-104284601D01*
X125698965Y-104478170D01*
X125599097Y-104692336D01*
X125537936Y-104920592D01*
X125517340Y-105155999D01*
X125537936Y-105391407D01*
X125568198Y-105504344D01*
X125599097Y-105619663D01*
X125698965Y-105833830D01*
X125834505Y-106027401D01*
X126001599Y-106194495D01*
X126187160Y-106324426D01*
X126230783Y-106379002D01*
X126237976Y-106448501D01*
X126206454Y-106510855D01*
X126187160Y-106527574D01*
X126031468Y-106636591D01*
X126001595Y-106657508D01*
X125834505Y-106824598D01*
X125698965Y-107018170D01*
X125599097Y-107232336D01*
X125537936Y-107460592D01*
X125517340Y-107696000D01*
X125537936Y-107931407D01*
X125582709Y-108098501D01*
X125599097Y-108159663D01*
X125698965Y-108373830D01*
X125834505Y-108567401D01*
X126001599Y-108734495D01*
X126187160Y-108864426D01*
X126230783Y-108919002D01*
X126237976Y-108988501D01*
X126206454Y-109050855D01*
X126187158Y-109067575D01*
X126015837Y-109187536D01*
X126001595Y-109197508D01*
X125834505Y-109364598D01*
X125698965Y-109558170D01*
X125599097Y-109772336D01*
X125537936Y-110000592D01*
X125517340Y-110235999D01*
X125537936Y-110471407D01*
X125582709Y-110638501D01*
X125599097Y-110699663D01*
X125698965Y-110913830D01*
X125834505Y-111107401D01*
X126001599Y-111274495D01*
X126187160Y-111404426D01*
X126230783Y-111459002D01*
X126237976Y-111528501D01*
X126206454Y-111590855D01*
X126187159Y-111607575D01*
X126001595Y-111737508D01*
X125834505Y-111904598D01*
X125698965Y-112098170D01*
X125599097Y-112312336D01*
X125537936Y-112540592D01*
X125517340Y-112776000D01*
X125537936Y-113011407D01*
X125582709Y-113178502D01*
X125599097Y-113239663D01*
X125698965Y-113453830D01*
X125834505Y-113647401D01*
X126001599Y-113814495D01*
X126187160Y-113944426D01*
X126230783Y-113999002D01*
X126237976Y-114068501D01*
X126206454Y-114130855D01*
X126187159Y-114147575D01*
X126001595Y-114277508D01*
X125834505Y-114444598D01*
X125698965Y-114638170D01*
X125599097Y-114852336D01*
X125537936Y-115080592D01*
X125517340Y-115316000D01*
X125000500Y-115316000D01*
X125000500Y-97984036D01*
X125517340Y-97984036D01*
X125537936Y-98219443D01*
X125544375Y-98243472D01*
X125599097Y-98447699D01*
X125698965Y-98661866D01*
X125834505Y-98855437D01*
X126001599Y-99022531D01*
X126195170Y-99158071D01*
X126409337Y-99257939D01*
X126637592Y-99319099D01*
X126873000Y-99339695D01*
X127108408Y-99319099D01*
X127336663Y-99257939D01*
X127550830Y-99158071D01*
X127744401Y-99022531D01*
X127911495Y-98855437D01*
X128041427Y-98669874D01*
X128096001Y-98626252D01*
X128165499Y-98619058D01*
X128227854Y-98650581D01*
X128244572Y-98669874D01*
X128374505Y-98855437D01*
X128541599Y-99022531D01*
X128735170Y-99158071D01*
X128949337Y-99257939D01*
X129177592Y-99319099D01*
X129413000Y-99339695D01*
X129648408Y-99319099D01*
X129876663Y-99257939D01*
X130090830Y-99158071D01*
X130284401Y-99022531D01*
X130451495Y-98855437D01*
X130575038Y-98678999D01*
X146368357Y-98678999D01*
X146388885Y-98900537D01*
X146449769Y-99114526D01*
X146548941Y-99313688D01*
X146683019Y-99491237D01*
X146847437Y-99641124D01*
X147036595Y-99758245D01*
X147036597Y-99758245D01*
X147036599Y-99758247D01*
X147244060Y-99838618D01*
X147462757Y-99879500D01*
X147462759Y-99879500D01*
X147685241Y-99879500D01*
X147685243Y-99879500D01*
X147903940Y-99838618D01*
X148111401Y-99758247D01*
X148300562Y-99641124D01*
X148464981Y-99491236D01*
X148599058Y-99313689D01*
X148698229Y-99114528D01*
X148759115Y-98900536D01*
X148779643Y-98679000D01*
X148759115Y-98457464D01*
X148736227Y-98377021D01*
X148698230Y-98243473D01*
X148599058Y-98044311D01*
X148464980Y-97866762D01*
X148300562Y-97716875D01*
X148111404Y-97599754D01*
X148050174Y-97576033D01*
X147903940Y-97519382D01*
X147685243Y-97478500D01*
X147462757Y-97478500D01*
X147283534Y-97512003D01*
X147244060Y-97519382D01*
X147036595Y-97599754D01*
X146847437Y-97716875D01*
X146683019Y-97866762D01*
X146548941Y-98044311D01*
X146449769Y-98243473D01*
X146388885Y-98457462D01*
X146368357Y-98678999D01*
X130575038Y-98678999D01*
X130587035Y-98661866D01*
X130686903Y-98447699D01*
X130748063Y-98219444D01*
X130768659Y-97984036D01*
X130748063Y-97748628D01*
X130686903Y-97520373D01*
X130587035Y-97306207D01*
X130451495Y-97112635D01*
X130284401Y-96945541D01*
X130098402Y-96815303D01*
X130054780Y-96760728D01*
X130047587Y-96691229D01*
X130079109Y-96628875D01*
X130098405Y-96612155D01*
X130284078Y-96482145D01*
X130451106Y-96315117D01*
X130586600Y-96121612D01*
X130686430Y-95907528D01*
X130743636Y-95694036D01*
X129846686Y-95694036D01*
X129872493Y-95653880D01*
X129913000Y-95515925D01*
X129913000Y-95372147D01*
X129872493Y-95234192D01*
X129846686Y-95194036D01*
X130743636Y-95194036D01*
X130743635Y-95194035D01*
X130686430Y-94980543D01*
X130586599Y-94766457D01*
X130451109Y-94572957D01*
X130284081Y-94405929D01*
X130098404Y-94275916D01*
X130054780Y-94221339D01*
X130047587Y-94151840D01*
X130079109Y-94089486D01*
X130098399Y-94072770D01*
X130284401Y-93942531D01*
X130451495Y-93775437D01*
X130587035Y-93581866D01*
X130686903Y-93367699D01*
X130748063Y-93139444D01*
X130768659Y-92904036D01*
X130748063Y-92668628D01*
X130686903Y-92440373D01*
X130587035Y-92226207D01*
X130451495Y-92032635D01*
X130284401Y-91865541D01*
X130090830Y-91730001D01*
X130013626Y-91694000D01*
X134476540Y-91694000D01*
X134496326Y-91882257D01*
X134554819Y-92062281D01*
X134554821Y-92062284D01*
X134610887Y-92159393D01*
X134627500Y-92221392D01*
X134627500Y-95005179D01*
X134610887Y-95067179D01*
X134571317Y-95135715D01*
X134512823Y-95315742D01*
X134493037Y-95503999D01*
X134512823Y-95692257D01*
X134571317Y-95872284D01*
X134665963Y-96036216D01*
X134792626Y-96176889D01*
X134945766Y-96288151D01*
X135118694Y-96365144D01*
X135303849Y-96404500D01*
X135303851Y-96404500D01*
X135493145Y-96404500D01*
X135678297Y-96365145D01*
X135678298Y-96365144D01*
X135678300Y-96365144D01*
X135847814Y-96289670D01*
X135917060Y-96280385D01*
X135948683Y-96289671D01*
X136118197Y-96365144D01*
X136303352Y-96404500D01*
X136303354Y-96404500D01*
X136492648Y-96404500D01*
X136616083Y-96378262D01*
X136677803Y-96365144D01*
X136850730Y-96288151D01*
X137003871Y-96176888D01*
X137130533Y-96036216D01*
X137225179Y-95872284D01*
X137283674Y-95692256D01*
X137303460Y-95504000D01*
X137283674Y-95315744D01*
X137253332Y-95222363D01*
X137225179Y-95135715D01*
X137169113Y-95038606D01*
X137152500Y-94976606D01*
X137152500Y-92329000D01*
X139175540Y-92329000D01*
X139195326Y-92517257D01*
X139253820Y-92697284D01*
X139348466Y-92861216D01*
X139475129Y-93001889D01*
X139628269Y-93113151D01*
X139801193Y-93190143D01*
X139801196Y-93190143D01*
X139801197Y-93190144D01*
X139859146Y-93202461D01*
X139920627Y-93235652D01*
X139921046Y-93236070D01*
X141329951Y-94644975D01*
X141360201Y-94694338D01*
X141412820Y-94856284D01*
X141507466Y-95020216D01*
X141634129Y-95160889D01*
X141787269Y-95272151D01*
X141960197Y-95349144D01*
X142145352Y-95388500D01*
X142145354Y-95388500D01*
X142334648Y-95388500D01*
X142458083Y-95362262D01*
X142519803Y-95349144D01*
X142692730Y-95272151D01*
X142845871Y-95160888D01*
X142972533Y-95020216D01*
X143067179Y-94856284D01*
X143125674Y-94676256D01*
X143145460Y-94488000D01*
X143125674Y-94299744D01*
X143067179Y-94119716D01*
X143067179Y-94119715D01*
X142972533Y-93955783D01*
X142845870Y-93815110D01*
X142692732Y-93703849D01*
X142577445Y-93652520D01*
X142519803Y-93626856D01*
X142497092Y-93622028D01*
X142461850Y-93614537D01*
X142400369Y-93581343D01*
X142399952Y-93580928D01*
X141402023Y-92582999D01*
X148173531Y-92582999D01*
X148193364Y-92809689D01*
X148252261Y-93029497D01*
X148348432Y-93235735D01*
X148478953Y-93422140D01*
X148639859Y-93583046D01*
X148826264Y-93713567D01*
X148826265Y-93713567D01*
X148826266Y-93713568D01*
X149032504Y-93809739D01*
X149252308Y-93868635D01*
X149479000Y-93888468D01*
X149705692Y-93868635D01*
X149925496Y-93809739D01*
X150131734Y-93713568D01*
X150318139Y-93583047D01*
X150479047Y-93422139D01*
X150609568Y-93235734D01*
X150705739Y-93029496D01*
X150764635Y-92809692D01*
X150784468Y-92583000D01*
X150764635Y-92356308D01*
X150705739Y-92136504D01*
X150609568Y-91930266D01*
X150575952Y-91882256D01*
X150479046Y-91743859D01*
X150318140Y-91582953D01*
X150131735Y-91452432D01*
X149925497Y-91356261D01*
X149705689Y-91297364D01*
X149479000Y-91277531D01*
X149252310Y-91297364D01*
X149032502Y-91356261D01*
X148826264Y-91452432D01*
X148639859Y-91582953D01*
X148478953Y-91743859D01*
X148348432Y-91930264D01*
X148252261Y-92136502D01*
X148193364Y-92356310D01*
X148173531Y-92582999D01*
X141402023Y-92582999D01*
X140991049Y-92172025D01*
X140960799Y-92122662D01*
X140908179Y-91960715D01*
X140813533Y-91796783D01*
X140686870Y-91656110D01*
X140533730Y-91544848D01*
X140360802Y-91467855D01*
X140175648Y-91428500D01*
X140175646Y-91428500D01*
X139986354Y-91428500D01*
X139986352Y-91428500D01*
X139801197Y-91467855D01*
X139628269Y-91544848D01*
X139475129Y-91656110D01*
X139348466Y-91796783D01*
X139253820Y-91960715D01*
X139195326Y-92140742D01*
X139175540Y-92329000D01*
X137152500Y-92329000D01*
X137152500Y-92221392D01*
X137169112Y-92159393D01*
X137225179Y-92062284D01*
X137283674Y-91882256D01*
X137303460Y-91694000D01*
X137283674Y-91505744D01*
X137225179Y-91325716D01*
X137225179Y-91325715D01*
X137130533Y-91161783D01*
X137003870Y-91021110D01*
X136850730Y-90909848D01*
X136677802Y-90832855D01*
X136492648Y-90793500D01*
X136492646Y-90793500D01*
X136303354Y-90793500D01*
X136303352Y-90793500D01*
X136118201Y-90832854D01*
X135940436Y-90912001D01*
X135871186Y-90921285D01*
X135839564Y-90912001D01*
X135744205Y-90869544D01*
X135661803Y-90832856D01*
X135661802Y-90832855D01*
X135661798Y-90832854D01*
X135476648Y-90793500D01*
X135476646Y-90793500D01*
X135287354Y-90793500D01*
X135287352Y-90793500D01*
X135102197Y-90832855D01*
X134929269Y-90909848D01*
X134776129Y-91021110D01*
X134649466Y-91161783D01*
X134554820Y-91325715D01*
X134496326Y-91505742D01*
X134476540Y-91694000D01*
X130013626Y-91694000D01*
X129876663Y-91630133D01*
X129815501Y-91613745D01*
X129648407Y-91568972D01*
X129413000Y-91548376D01*
X129177592Y-91568972D01*
X128949336Y-91630133D01*
X128735170Y-91730001D01*
X128541601Y-91865539D01*
X128419673Y-91987467D01*
X128358350Y-92020951D01*
X128288658Y-92015967D01*
X128232725Y-91974095D01*
X128215810Y-91943118D01*
X128193110Y-91882257D01*
X128166796Y-91811705D01*
X128080546Y-91696490D01*
X127965331Y-91610240D01*
X127830483Y-91559945D01*
X127770873Y-91553536D01*
X127767550Y-91553536D01*
X125978439Y-91553536D01*
X125978420Y-91553536D01*
X125975128Y-91553537D01*
X125971848Y-91553889D01*
X125971840Y-91553890D01*
X125915515Y-91559945D01*
X125780669Y-91610240D01*
X125665454Y-91696490D01*
X125579204Y-91811704D01*
X125534984Y-91930266D01*
X125528909Y-91946553D01*
X125522500Y-92006163D01*
X125522500Y-92009484D01*
X125522500Y-92009485D01*
X125522500Y-93798596D01*
X125522500Y-93798614D01*
X125522501Y-93801908D01*
X125522853Y-93805188D01*
X125522854Y-93805195D01*
X125528909Y-93861520D01*
X125531563Y-93868635D01*
X125579204Y-93996367D01*
X125665454Y-94111582D01*
X125780669Y-94197832D01*
X125912598Y-94247038D01*
X125968532Y-94288909D01*
X125992949Y-94354373D01*
X125978097Y-94422646D01*
X125956947Y-94450901D01*
X125834888Y-94572960D01*
X125699400Y-94766457D01*
X125599569Y-94980543D01*
X125542364Y-95194035D01*
X125542364Y-95194036D01*
X126439314Y-95194036D01*
X126413507Y-95234192D01*
X126373000Y-95372147D01*
X126373000Y-95515925D01*
X126413507Y-95653880D01*
X126439314Y-95694036D01*
X125542364Y-95694036D01*
X125599569Y-95907528D01*
X125699399Y-96121612D01*
X125834893Y-96315117D01*
X126001918Y-96482142D01*
X126187595Y-96612155D01*
X126231219Y-96666732D01*
X126238412Y-96736231D01*
X126206890Y-96798585D01*
X126187595Y-96815305D01*
X126001595Y-96945544D01*
X125834505Y-97112634D01*
X125698965Y-97306206D01*
X125599097Y-97520372D01*
X125537936Y-97748628D01*
X125517340Y-97984036D01*
X125000500Y-97984036D01*
X125000500Y-85030035D01*
X126456531Y-85030035D01*
X126476364Y-85256725D01*
X126535261Y-85476533D01*
X126631432Y-85682771D01*
X126761953Y-85869176D01*
X126922859Y-86030082D01*
X127109264Y-86160603D01*
X127109265Y-86160603D01*
X127109266Y-86160604D01*
X127315504Y-86256775D01*
X127535308Y-86315671D01*
X127686435Y-86328893D01*
X127761999Y-86335504D01*
X127761999Y-86335503D01*
X127762000Y-86335504D01*
X127988692Y-86315671D01*
X128208496Y-86256775D01*
X128414734Y-86160604D01*
X128601139Y-86030083D01*
X128762047Y-85869175D01*
X128892568Y-85682770D01*
X128988739Y-85476532D01*
X129047635Y-85256728D01*
X129067468Y-85030036D01*
X129047635Y-84803344D01*
X128988739Y-84583540D01*
X128892568Y-84377302D01*
X128845630Y-84310266D01*
X128762046Y-84190895D01*
X128601140Y-84029989D01*
X128414735Y-83899468D01*
X128208497Y-83803297D01*
X127988689Y-83744400D01*
X127761999Y-83724567D01*
X127535310Y-83744400D01*
X127315502Y-83803297D01*
X127109264Y-83899468D01*
X126922859Y-84029989D01*
X126761953Y-84190895D01*
X126631432Y-84377300D01*
X126535261Y-84583538D01*
X126476364Y-84803346D01*
X126456531Y-85030035D01*
X125000500Y-85030035D01*
X125000500Y-79950036D01*
X131864033Y-79950036D01*
X131883858Y-80176638D01*
X131942733Y-80396362D01*
X132038866Y-80602520D01*
X132089972Y-80675507D01*
X132089974Y-80675508D01*
X132771046Y-79994435D01*
X132783835Y-80075184D01*
X132841359Y-80188081D01*
X132930955Y-80277677D01*
X133043852Y-80335201D01*
X133124599Y-80347989D01*
X132443526Y-81029061D01*
X132443526Y-81029062D01*
X132516515Y-81080169D01*
X132722673Y-81176302D01*
X132942397Y-81235177D01*
X133169000Y-81255002D01*
X133395602Y-81235177D01*
X133615326Y-81176302D01*
X133821480Y-81080170D01*
X133894472Y-81029061D01*
X133213401Y-80347989D01*
X133294148Y-80335201D01*
X133407045Y-80277677D01*
X133496641Y-80188081D01*
X133554165Y-80075184D01*
X133566953Y-79994436D01*
X134248025Y-80675508D01*
X134299131Y-80602520D01*
X134306340Y-80587062D01*
X134352511Y-80534622D01*
X134419704Y-80515468D01*
X134486586Y-80535682D01*
X134531106Y-80587059D01*
X134538432Y-80602771D01*
X134668953Y-80789176D01*
X134829859Y-80950082D01*
X135016264Y-81080603D01*
X135016265Y-81080603D01*
X135016266Y-81080604D01*
X135222504Y-81176775D01*
X135442308Y-81235671D01*
X135669000Y-81255504D01*
X135895692Y-81235671D01*
X136115496Y-81176775D01*
X136321734Y-81080604D01*
X136508139Y-80950083D01*
X136669047Y-80789175D01*
X136774425Y-80638677D01*
X136829001Y-80595053D01*
X136898500Y-80587859D01*
X136960854Y-80619381D01*
X136977575Y-80638678D01*
X137082953Y-80789176D01*
X137243859Y-80950082D01*
X137429645Y-81080169D01*
X137430266Y-81080604D01*
X137488275Y-81107654D01*
X137540714Y-81153827D01*
X137559865Y-81221021D01*
X137539649Y-81287902D01*
X137488275Y-81332418D01*
X137430263Y-81359469D01*
X137243859Y-81489989D01*
X137082953Y-81650895D01*
X136952432Y-81837300D01*
X136856261Y-82043538D01*
X136797364Y-82263346D01*
X136777531Y-82490035D01*
X136797364Y-82716725D01*
X136856261Y-82936533D01*
X136952432Y-83142771D01*
X137082953Y-83329176D01*
X137243859Y-83490082D01*
X137430263Y-83620602D01*
X137430266Y-83620604D01*
X137488275Y-83647654D01*
X137540714Y-83693827D01*
X137559865Y-83761021D01*
X137539649Y-83827902D01*
X137488275Y-83872418D01*
X137430263Y-83899469D01*
X137243859Y-84029989D01*
X137082953Y-84190895D01*
X136952432Y-84377300D01*
X136856261Y-84583538D01*
X136852275Y-84598416D01*
X136815909Y-84658076D01*
X136753062Y-84688605D01*
X136683687Y-84680310D01*
X136629809Y-84635824D01*
X136612725Y-84598416D01*
X136608738Y-84583538D01*
X136512567Y-84377300D01*
X136382046Y-84190895D01*
X136221140Y-84029989D01*
X136034735Y-83899468D01*
X135828497Y-83803297D01*
X135608689Y-83744400D01*
X135381999Y-83724567D01*
X135155310Y-83744400D01*
X134935502Y-83803297D01*
X134729264Y-83899468D01*
X134542859Y-84029989D01*
X134381953Y-84190895D01*
X134251432Y-84377300D01*
X134155261Y-84583538D01*
X134096364Y-84803346D01*
X134076531Y-85030035D01*
X134096364Y-85256725D01*
X134155261Y-85476533D01*
X134251432Y-85682771D01*
X134381953Y-85869176D01*
X134542859Y-86030082D01*
X134729264Y-86160603D01*
X134729265Y-86160603D01*
X134729266Y-86160604D01*
X134935504Y-86256775D01*
X135155308Y-86315671D01*
X135382000Y-86335504D01*
X135608692Y-86315671D01*
X135828496Y-86256775D01*
X136034734Y-86160604D01*
X136221139Y-86030083D01*
X136382047Y-85869175D01*
X136512568Y-85682770D01*
X136608739Y-85476532D01*
X136612724Y-85461656D01*
X136649090Y-85401995D01*
X136711937Y-85371466D01*
X136781312Y-85379761D01*
X136835190Y-85424246D01*
X136852275Y-85461656D01*
X136856261Y-85476532D01*
X136952432Y-85682771D01*
X137082953Y-85869176D01*
X137243859Y-86030082D01*
X137430263Y-86160602D01*
X137430266Y-86160604D01*
X137488275Y-86187654D01*
X137540714Y-86233827D01*
X137559865Y-86301021D01*
X137539649Y-86367902D01*
X137488275Y-86412418D01*
X137430263Y-86439469D01*
X137243859Y-86569989D01*
X137082953Y-86730895D01*
X136952432Y-86917300D01*
X136856261Y-87123538D01*
X136797364Y-87343346D01*
X136777531Y-87570036D01*
X136797364Y-87796725D01*
X136856261Y-88016533D01*
X136952432Y-88222771D01*
X137082953Y-88409176D01*
X137243859Y-88570082D01*
X137430264Y-88700603D01*
X137430265Y-88700603D01*
X137430266Y-88700604D01*
X137636504Y-88796775D01*
X137856308Y-88855671D01*
X138026216Y-88870536D01*
X138028925Y-88870536D01*
X138937075Y-88870536D01*
X138939784Y-88870536D01*
X139109692Y-88855671D01*
X139329496Y-88796775D01*
X139535734Y-88700604D01*
X139722139Y-88570083D01*
X139883047Y-88409175D01*
X140013568Y-88222770D01*
X140109739Y-88016532D01*
X140168635Y-87796728D01*
X140188468Y-87570036D01*
X140188468Y-87570035D01*
X144397531Y-87570035D01*
X144417364Y-87796725D01*
X144476261Y-88016533D01*
X144572432Y-88222771D01*
X144702953Y-88409176D01*
X144863859Y-88570082D01*
X145050264Y-88700603D01*
X145050265Y-88700603D01*
X145050266Y-88700604D01*
X145256504Y-88796775D01*
X145476308Y-88855671D01*
X145646216Y-88870536D01*
X145648925Y-88870536D01*
X146557075Y-88870536D01*
X146559784Y-88870536D01*
X146729692Y-88855671D01*
X146949496Y-88796775D01*
X147155734Y-88700604D01*
X147342139Y-88570083D01*
X147503047Y-88409175D01*
X147633568Y-88222770D01*
X147729739Y-88016532D01*
X147788635Y-87796728D01*
X147808468Y-87570036D01*
X147788635Y-87343344D01*
X147729739Y-87123540D01*
X147633568Y-86917302D01*
X147503047Y-86730897D01*
X147503046Y-86730895D01*
X147342140Y-86569989D01*
X147155733Y-86439467D01*
X147097725Y-86412418D01*
X147045285Y-86366246D01*
X147043505Y-86360000D01*
X147811540Y-86360000D01*
X147831326Y-86548257D01*
X147889820Y-86728284D01*
X147984466Y-86892216D01*
X148111129Y-87032889D01*
X148264269Y-87144151D01*
X148437193Y-87221143D01*
X148437196Y-87221143D01*
X148437197Y-87221144D01*
X148495146Y-87233461D01*
X148556627Y-87266652D01*
X148557046Y-87267070D01*
X149251087Y-87961111D01*
X149284572Y-88022434D01*
X149286727Y-88061753D01*
X149272040Y-88201499D01*
X149291826Y-88389757D01*
X149350320Y-88569784D01*
X149444966Y-88733716D01*
X149571629Y-88874389D01*
X149724769Y-88985651D01*
X149897697Y-89062644D01*
X150082852Y-89102000D01*
X150082854Y-89102000D01*
X150272148Y-89102000D01*
X150395583Y-89075762D01*
X150457303Y-89062644D01*
X150630230Y-88985651D01*
X150748119Y-88900000D01*
X151448357Y-88900000D01*
X151468885Y-89121537D01*
X151529769Y-89335526D01*
X151628941Y-89534688D01*
X151763019Y-89712237D01*
X151927437Y-89862124D01*
X152116595Y-89979245D01*
X152116597Y-89979245D01*
X152116599Y-89979247D01*
X152324060Y-90059618D01*
X152542757Y-90100500D01*
X152542759Y-90100500D01*
X152765241Y-90100500D01*
X152765243Y-90100500D01*
X152983940Y-90059618D01*
X153191401Y-89979247D01*
X153380562Y-89862124D01*
X153544981Y-89712236D01*
X153679058Y-89534689D01*
X153778229Y-89335528D01*
X153839115Y-89121536D01*
X153859643Y-88900000D01*
X153839115Y-88678464D01*
X153808193Y-88569784D01*
X153778230Y-88464473D01*
X153679058Y-88265311D01*
X153544980Y-88087762D01*
X153380562Y-87937875D01*
X153191404Y-87820754D01*
X153129378Y-87796725D01*
X152983940Y-87740382D01*
X152765243Y-87699500D01*
X152542757Y-87699500D01*
X152324060Y-87740382D01*
X152116595Y-87820754D01*
X151927437Y-87937875D01*
X151763019Y-88087762D01*
X151628941Y-88265311D01*
X151529769Y-88464473D01*
X151468885Y-88678462D01*
X151448357Y-88900000D01*
X150748119Y-88900000D01*
X150783371Y-88874388D01*
X150910033Y-88733716D01*
X151004679Y-88569784D01*
X151063174Y-88389756D01*
X151082960Y-88201500D01*
X151063174Y-88013244D01*
X151004679Y-87833216D01*
X150937471Y-87716809D01*
X150926066Y-87680630D01*
X150926004Y-87680651D01*
X150921936Y-87668377D01*
X150917080Y-87646472D01*
X150916660Y-87645319D01*
X150916660Y-87645316D01*
X150890847Y-87574396D01*
X150889699Y-87571093D01*
X150865964Y-87499464D01*
X150865962Y-87499461D01*
X150865578Y-87498301D01*
X150857004Y-87480591D01*
X150814876Y-87416538D01*
X150812961Y-87413533D01*
X150773370Y-87349346D01*
X150772729Y-87348306D01*
X150760302Y-87333051D01*
X150704561Y-87280463D01*
X150701973Y-87277949D01*
X149831508Y-86407484D01*
X149798023Y-86346161D01*
X149803007Y-86276469D01*
X149844879Y-86220536D01*
X149887095Y-86200028D01*
X149925496Y-86189739D01*
X150131734Y-86093568D01*
X150318139Y-85963047D01*
X150479047Y-85802139D01*
X150609568Y-85615734D01*
X150705739Y-85409496D01*
X150764635Y-85189692D01*
X150784468Y-84963000D01*
X150764635Y-84736308D01*
X150705739Y-84516504D01*
X150609568Y-84310266D01*
X150525985Y-84190895D01*
X150479046Y-84123859D01*
X150318140Y-83962953D01*
X150131735Y-83832432D01*
X149925497Y-83736261D01*
X149705689Y-83677364D01*
X149479000Y-83657531D01*
X149252310Y-83677364D01*
X149032502Y-83736261D01*
X148826264Y-83832432D01*
X148639859Y-83962953D01*
X148478953Y-84123859D01*
X148348432Y-84310264D01*
X148252261Y-84516502D01*
X148193364Y-84736310D01*
X148173531Y-84962999D01*
X148193364Y-85189689D01*
X148252261Y-85409498D01*
X148270042Y-85447628D01*
X148280534Y-85516706D01*
X148252014Y-85580490D01*
X148230545Y-85600351D01*
X148111129Y-85687110D01*
X147984466Y-85827783D01*
X147889820Y-85991715D01*
X147831326Y-86171742D01*
X147811540Y-86360000D01*
X147043505Y-86360000D01*
X147026133Y-86299053D01*
X147046348Y-86232171D01*
X147097725Y-86187654D01*
X147131844Y-86171744D01*
X147155734Y-86160604D01*
X147342139Y-86030083D01*
X147503047Y-85869175D01*
X147633568Y-85682770D01*
X147729739Y-85476532D01*
X147788635Y-85256728D01*
X147808468Y-85030036D01*
X147788635Y-84803344D01*
X147729739Y-84583540D01*
X147633568Y-84377302D01*
X147586630Y-84310266D01*
X147503046Y-84190895D01*
X147342140Y-84029989D01*
X147155733Y-83899467D01*
X147097725Y-83872418D01*
X147045285Y-83826246D01*
X147026133Y-83759053D01*
X147046348Y-83692171D01*
X147097725Y-83647654D01*
X147155734Y-83620604D01*
X147342139Y-83490083D01*
X147503047Y-83329175D01*
X147633568Y-83142770D01*
X147729739Y-82936532D01*
X147788635Y-82716728D01*
X147808468Y-82490036D01*
X147788635Y-82263344D01*
X147729739Y-82043540D01*
X147633568Y-81837302D01*
X147503047Y-81650897D01*
X147503046Y-81650895D01*
X147342140Y-81489989D01*
X147155733Y-81359467D01*
X147097725Y-81332418D01*
X147045285Y-81286246D01*
X147026133Y-81219053D01*
X147046348Y-81152171D01*
X147097725Y-81107654D01*
X147155734Y-81080604D01*
X147342139Y-80950083D01*
X147503047Y-80789175D01*
X147633568Y-80602770D01*
X147729739Y-80396532D01*
X147755886Y-80298949D01*
X147792249Y-80239291D01*
X147855096Y-80208761D01*
X147924472Y-80217055D01*
X147978350Y-80261540D01*
X147995434Y-80298948D01*
X147998260Y-80309494D01*
X148094432Y-80515735D01*
X148224953Y-80702140D01*
X148385859Y-80863046D01*
X148572264Y-80993567D01*
X148572265Y-80993567D01*
X148572266Y-80993568D01*
X148778504Y-81089739D01*
X148998308Y-81148635D01*
X149225000Y-81168468D01*
X149451692Y-81148635D01*
X149671496Y-81089739D01*
X149877734Y-80993568D01*
X150064139Y-80863047D01*
X150225047Y-80702139D01*
X150355568Y-80515734D01*
X150451739Y-80309496D01*
X150510635Y-80089692D01*
X150530468Y-79863000D01*
X150510635Y-79636308D01*
X150451739Y-79416504D01*
X150355568Y-79210266D01*
X150285989Y-79110895D01*
X150225046Y-79023859D01*
X150064140Y-78862953D01*
X149877735Y-78732432D01*
X149862023Y-78725106D01*
X149809584Y-78678933D01*
X149790432Y-78611740D01*
X149810648Y-78544859D01*
X149862026Y-78500340D01*
X149877484Y-78493131D01*
X149950472Y-78442025D01*
X149269401Y-77760953D01*
X149350148Y-77748165D01*
X149463045Y-77690641D01*
X149552641Y-77601045D01*
X149610165Y-77488148D01*
X149622953Y-77407399D01*
X150304025Y-78088472D01*
X150355134Y-78015480D01*
X150451266Y-77809326D01*
X150510141Y-77589602D01*
X150529966Y-77362999D01*
X150510141Y-77136397D01*
X150451266Y-76916673D01*
X150355133Y-76710515D01*
X150304025Y-76637526D01*
X149622953Y-77318597D01*
X149610165Y-77237852D01*
X149552641Y-77124955D01*
X149463045Y-77035359D01*
X149350148Y-76977835D01*
X149269400Y-76965046D01*
X149950472Y-76283974D01*
X149950471Y-76283972D01*
X149877484Y-76232866D01*
X149671326Y-76136733D01*
X149451602Y-76077858D01*
X149224999Y-76058033D01*
X148998397Y-76077858D01*
X148778672Y-76136733D01*
X148572516Y-76232865D01*
X148499527Y-76283973D01*
X148499526Y-76283973D01*
X149180600Y-76965046D01*
X149099852Y-76977835D01*
X148986955Y-77035359D01*
X148897359Y-77124955D01*
X148839835Y-77237852D01*
X148827046Y-77318599D01*
X148145973Y-76637526D01*
X148145973Y-76637527D01*
X148094865Y-76710516D01*
X147998733Y-76916673D01*
X147977732Y-76995050D01*
X147941366Y-77054711D01*
X147878519Y-77085239D01*
X147809144Y-77076944D01*
X147755266Y-77032458D01*
X147738182Y-76995050D01*
X147729738Y-76963538D01*
X147633567Y-76757300D01*
X147503046Y-76570895D01*
X147342140Y-76409989D01*
X147155733Y-76279467D01*
X147097725Y-76252418D01*
X147045285Y-76206246D01*
X147026133Y-76139053D01*
X147046348Y-76072171D01*
X147097725Y-76027654D01*
X147155734Y-76000604D01*
X147342139Y-75870083D01*
X147503047Y-75709175D01*
X147633568Y-75522770D01*
X147729739Y-75316532D01*
X147788635Y-75096728D01*
X147808468Y-74870036D01*
X147788635Y-74643344D01*
X147729739Y-74423540D01*
X147633568Y-74217302D01*
X147503047Y-74030897D01*
X147503046Y-74030895D01*
X147342140Y-73869989D01*
X147155733Y-73739467D01*
X147097725Y-73712418D01*
X147045285Y-73666246D01*
X147026133Y-73599053D01*
X147046348Y-73532171D01*
X147097725Y-73487654D01*
X147155734Y-73460604D01*
X147342139Y-73330083D01*
X147503047Y-73169175D01*
X147633568Y-72982770D01*
X147729739Y-72776532D01*
X147788635Y-72556728D01*
X147808468Y-72330036D01*
X147788635Y-72103344D01*
X147729739Y-71883540D01*
X147633568Y-71677302D01*
X147586630Y-71610266D01*
X147503046Y-71490895D01*
X147342140Y-71329989D01*
X147155735Y-71199468D01*
X146949497Y-71103297D01*
X146729689Y-71044400D01*
X146562484Y-71029772D01*
X146562479Y-71029771D01*
X146559784Y-71029536D01*
X145646216Y-71029536D01*
X145643521Y-71029771D01*
X145643515Y-71029772D01*
X145476310Y-71044400D01*
X145256502Y-71103297D01*
X145050264Y-71199468D01*
X144863859Y-71329989D01*
X144702953Y-71490895D01*
X144572432Y-71677300D01*
X144476261Y-71883538D01*
X144417364Y-72103346D01*
X144397531Y-72330035D01*
X144417364Y-72556725D01*
X144476261Y-72776533D01*
X144572432Y-72982771D01*
X144702953Y-73169176D01*
X144863859Y-73330082D01*
X145050263Y-73460602D01*
X145050266Y-73460604D01*
X145108275Y-73487654D01*
X145160714Y-73533827D01*
X145179865Y-73601021D01*
X145159649Y-73667902D01*
X145108275Y-73712418D01*
X145050263Y-73739469D01*
X144863859Y-73869989D01*
X144702953Y-74030895D01*
X144572432Y-74217300D01*
X144476261Y-74423538D01*
X144417364Y-74643346D01*
X144397531Y-74870036D01*
X144417364Y-75096725D01*
X144476261Y-75316533D01*
X144572432Y-75522771D01*
X144702953Y-75709176D01*
X144863859Y-75870082D01*
X145050265Y-76000603D01*
X145050266Y-76000604D01*
X145108273Y-76027653D01*
X145160713Y-76073825D01*
X145179865Y-76141018D01*
X145159650Y-76207900D01*
X145108276Y-76252416D01*
X145050266Y-76279467D01*
X144863859Y-76409989D01*
X144702953Y-76570895D01*
X144572432Y-76757300D01*
X144476261Y-76963538D01*
X144417364Y-77183346D01*
X144397531Y-77410036D01*
X144417364Y-77636725D01*
X144476261Y-77856533D01*
X144572432Y-78062771D01*
X144702953Y-78249176D01*
X144863859Y-78410082D01*
X145050263Y-78540602D01*
X145050266Y-78540604D01*
X145107683Y-78567378D01*
X145108275Y-78567654D01*
X145160714Y-78613827D01*
X145179865Y-78681021D01*
X145159649Y-78747902D01*
X145108275Y-78792418D01*
X145050263Y-78819469D01*
X144863859Y-78949989D01*
X144702953Y-79110895D01*
X144572432Y-79297300D01*
X144476261Y-79503538D01*
X144417364Y-79723346D01*
X144397531Y-79950035D01*
X144417364Y-80176725D01*
X144476261Y-80396533D01*
X144572432Y-80602771D01*
X144702953Y-80789176D01*
X144863859Y-80950082D01*
X145049645Y-81080169D01*
X145050266Y-81080604D01*
X145108275Y-81107654D01*
X145160714Y-81153827D01*
X145179865Y-81221021D01*
X145159649Y-81287902D01*
X145108275Y-81332418D01*
X145050263Y-81359469D01*
X144863859Y-81489989D01*
X144702953Y-81650895D01*
X144572432Y-81837300D01*
X144476261Y-82043538D01*
X144417364Y-82263346D01*
X144397531Y-82490036D01*
X144417364Y-82716725D01*
X144476261Y-82936533D01*
X144572432Y-83142771D01*
X144702953Y-83329176D01*
X144863859Y-83490082D01*
X145050263Y-83620602D01*
X145050266Y-83620604D01*
X145108275Y-83647654D01*
X145160714Y-83693827D01*
X145179865Y-83761021D01*
X145159649Y-83827902D01*
X145108275Y-83872418D01*
X145050263Y-83899469D01*
X144863859Y-84029989D01*
X144702953Y-84190895D01*
X144572432Y-84377300D01*
X144476261Y-84583538D01*
X144417364Y-84803346D01*
X144397531Y-85030036D01*
X144417364Y-85256725D01*
X144476261Y-85476533D01*
X144572432Y-85682771D01*
X144702953Y-85869176D01*
X144863859Y-86030082D01*
X145050263Y-86160602D01*
X145050266Y-86160604D01*
X145108275Y-86187654D01*
X145160714Y-86233827D01*
X145179865Y-86301021D01*
X145159649Y-86367902D01*
X145108275Y-86412418D01*
X145050263Y-86439469D01*
X144863859Y-86569989D01*
X144702953Y-86730895D01*
X144572432Y-86917300D01*
X144476261Y-87123538D01*
X144417364Y-87343346D01*
X144397531Y-87570035D01*
X140188468Y-87570035D01*
X140168635Y-87343344D01*
X140109739Y-87123540D01*
X140013568Y-86917302D01*
X139883047Y-86730897D01*
X139883046Y-86730895D01*
X139722140Y-86569989D01*
X139535733Y-86439467D01*
X139477725Y-86412418D01*
X139425285Y-86366246D01*
X139406133Y-86299053D01*
X139426348Y-86232171D01*
X139477725Y-86187654D01*
X139511844Y-86171744D01*
X139535734Y-86160604D01*
X139722139Y-86030083D01*
X139883047Y-85869175D01*
X140013568Y-85682770D01*
X140109739Y-85476532D01*
X140168635Y-85256728D01*
X140188468Y-85030036D01*
X140168635Y-84803344D01*
X140109739Y-84583540D01*
X140013568Y-84377302D01*
X139966630Y-84310266D01*
X139883046Y-84190895D01*
X139722140Y-84029989D01*
X139535733Y-83899467D01*
X139477725Y-83872418D01*
X139425285Y-83826246D01*
X139406133Y-83759053D01*
X139426348Y-83692171D01*
X139477725Y-83647654D01*
X139535734Y-83620604D01*
X139722139Y-83490083D01*
X139883047Y-83329175D01*
X140013568Y-83142770D01*
X140109739Y-82936532D01*
X140168635Y-82716728D01*
X140188468Y-82490036D01*
X140168635Y-82263344D01*
X140109739Y-82043540D01*
X140013568Y-81837302D01*
X139883047Y-81650897D01*
X139883046Y-81650895D01*
X139722140Y-81489989D01*
X139535733Y-81359467D01*
X139477725Y-81332418D01*
X139425285Y-81286246D01*
X139406133Y-81219053D01*
X139426348Y-81152171D01*
X139477725Y-81107654D01*
X139535734Y-81080604D01*
X139722139Y-80950083D01*
X139883047Y-80789175D01*
X140013568Y-80602770D01*
X140109739Y-80396532D01*
X140168635Y-80176728D01*
X140188468Y-79950036D01*
X140168635Y-79723344D01*
X140109739Y-79503540D01*
X140013568Y-79297302D01*
X139988425Y-79261393D01*
X139883046Y-79110895D01*
X139722140Y-78949989D01*
X139535736Y-78819469D01*
X139477725Y-78792418D01*
X139477132Y-78792141D01*
X139424695Y-78745969D01*
X139405543Y-78678775D01*
X139425759Y-78611894D01*
X139477135Y-78567378D01*
X139535479Y-78540171D01*
X139721819Y-78409694D01*
X139882658Y-78248855D01*
X140013134Y-78062516D01*
X140109266Y-77856362D01*
X140161872Y-77660036D01*
X138798686Y-77660036D01*
X138810641Y-77648081D01*
X138868165Y-77535184D01*
X138887986Y-77410036D01*
X138868165Y-77284888D01*
X138810641Y-77171991D01*
X138798686Y-77160036D01*
X140161872Y-77160036D01*
X140161871Y-77160035D01*
X140109266Y-76963709D01*
X140013134Y-76757555D01*
X139882658Y-76571216D01*
X139721819Y-76410377D01*
X139535482Y-76279902D01*
X139477133Y-76252693D01*
X139424694Y-76206520D01*
X139405543Y-76139326D01*
X139425759Y-76072445D01*
X139477134Y-76027929D01*
X139535734Y-76000604D01*
X139722139Y-75870083D01*
X139883047Y-75709175D01*
X140013568Y-75522770D01*
X140109739Y-75316532D01*
X140168635Y-75096728D01*
X140188468Y-74870036D01*
X140168635Y-74643344D01*
X140109739Y-74423540D01*
X140013568Y-74217302D01*
X139883047Y-74030897D01*
X139883046Y-74030895D01*
X139722140Y-73869989D01*
X139697537Y-73852762D01*
X139653912Y-73798186D01*
X139646718Y-73728687D01*
X139678241Y-73666332D01*
X139738470Y-73630918D01*
X139755401Y-73627898D01*
X139790483Y-73624127D01*
X139925331Y-73573832D01*
X140040546Y-73487582D01*
X140126796Y-73372367D01*
X140177091Y-73237519D01*
X140183500Y-73177909D01*
X140183499Y-71482164D01*
X140177091Y-71422553D01*
X140126796Y-71287705D01*
X140040546Y-71172490D01*
X139925331Y-71086240D01*
X139790483Y-71035945D01*
X139730873Y-71029536D01*
X139727550Y-71029536D01*
X137238439Y-71029536D01*
X137238420Y-71029536D01*
X137235128Y-71029537D01*
X137231848Y-71029889D01*
X137231840Y-71029890D01*
X137175515Y-71035945D01*
X137040669Y-71086240D01*
X136925454Y-71172490D01*
X136839204Y-71287704D01*
X136788909Y-71422552D01*
X136788769Y-71423859D01*
X136782500Y-71482163D01*
X136782500Y-71485484D01*
X136782500Y-71485485D01*
X136782500Y-73174596D01*
X136782500Y-73174614D01*
X136782501Y-73177908D01*
X136788909Y-73237519D01*
X136839204Y-73372367D01*
X136925454Y-73487582D01*
X137040669Y-73573832D01*
X137175517Y-73624127D01*
X137210594Y-73627898D01*
X137275143Y-73654634D01*
X137314993Y-73712025D01*
X137317488Y-73781850D01*
X137281837Y-73841940D01*
X137268463Y-73852761D01*
X137243861Y-73869987D01*
X137082953Y-74030895D01*
X136952432Y-74217300D01*
X136856261Y-74423538D01*
X136797364Y-74643346D01*
X136777531Y-74870035D01*
X136797364Y-75096725D01*
X136856261Y-75316533D01*
X136952432Y-75522771D01*
X137082953Y-75709176D01*
X137243859Y-75870082D01*
X137430264Y-76000603D01*
X137430265Y-76000603D01*
X137430266Y-76000604D01*
X137488865Y-76027929D01*
X137541304Y-76074101D01*
X137560456Y-76141295D01*
X137540240Y-76208176D01*
X137488866Y-76252692D01*
X137430522Y-76279899D01*
X137244180Y-76410377D01*
X137083341Y-76571216D01*
X136952865Y-76757555D01*
X136856733Y-76963709D01*
X136804128Y-77160035D01*
X136804128Y-77160036D01*
X138167314Y-77160036D01*
X138155359Y-77171991D01*
X138097835Y-77284888D01*
X138078014Y-77410036D01*
X138097835Y-77535184D01*
X138155359Y-77648081D01*
X138167314Y-77660036D01*
X136804128Y-77660036D01*
X136856733Y-77856362D01*
X136952865Y-78062516D01*
X137083341Y-78248855D01*
X137244180Y-78409694D01*
X137430519Y-78540170D01*
X137488865Y-78567378D01*
X137541304Y-78613550D01*
X137560456Y-78680744D01*
X137540240Y-78747625D01*
X137488866Y-78792141D01*
X137430267Y-78819466D01*
X137243859Y-78949989D01*
X137082953Y-79110895D01*
X136977575Y-79261393D01*
X136922999Y-79305018D01*
X136853500Y-79312212D01*
X136791145Y-79280689D01*
X136774425Y-79261393D01*
X136669046Y-79110895D01*
X136508140Y-78949989D01*
X136321735Y-78819468D01*
X136115497Y-78723297D01*
X135895689Y-78664400D01*
X135669000Y-78644567D01*
X135442310Y-78664400D01*
X135222502Y-78723297D01*
X135016264Y-78819468D01*
X134829859Y-78949989D01*
X134668953Y-79110895D01*
X134538429Y-79297304D01*
X134531104Y-79313014D01*
X134484930Y-79365452D01*
X134417736Y-79384602D01*
X134350856Y-79364384D01*
X134306342Y-79313011D01*
X134299133Y-79297551D01*
X134248025Y-79224562D01*
X133566953Y-79905634D01*
X133554165Y-79824888D01*
X133496641Y-79711991D01*
X133407045Y-79622395D01*
X133294148Y-79564871D01*
X133213400Y-79552082D01*
X133894472Y-78871010D01*
X133894471Y-78871008D01*
X133821484Y-78819902D01*
X133615326Y-78723769D01*
X133395602Y-78664894D01*
X133169000Y-78645069D01*
X132942397Y-78664894D01*
X132722672Y-78723769D01*
X132516516Y-78819901D01*
X132443527Y-78871009D01*
X132443526Y-78871009D01*
X133124600Y-79552082D01*
X133043852Y-79564871D01*
X132930955Y-79622395D01*
X132841359Y-79711991D01*
X132783835Y-79824888D01*
X132771046Y-79905635D01*
X132089973Y-79224562D01*
X132089973Y-79224563D01*
X132038865Y-79297552D01*
X131942733Y-79503708D01*
X131883858Y-79723433D01*
X131864033Y-79950036D01*
X125000500Y-79950036D01*
X125000500Y-72263000D01*
X127425531Y-72263000D01*
X127445364Y-72489689D01*
X127504261Y-72709497D01*
X127600432Y-72915735D01*
X127730953Y-73102140D01*
X127891859Y-73263046D01*
X128078264Y-73393567D01*
X128078265Y-73393567D01*
X128078266Y-73393568D01*
X128284504Y-73489739D01*
X128504308Y-73548635D01*
X128731000Y-73568468D01*
X128957692Y-73548635D01*
X129177496Y-73489739D01*
X129383734Y-73393568D01*
X129570139Y-73263047D01*
X129731047Y-73102139D01*
X129861568Y-72915734D01*
X129957739Y-72709496D01*
X130016635Y-72489692D01*
X130036468Y-72263000D01*
X130036468Y-72262999D01*
X132425531Y-72262999D01*
X132445364Y-72489689D01*
X132504261Y-72709497D01*
X132600432Y-72915735D01*
X132730953Y-73102140D01*
X132891859Y-73263046D01*
X133078264Y-73393567D01*
X133078265Y-73393567D01*
X133078266Y-73393568D01*
X133284504Y-73489739D01*
X133504308Y-73548635D01*
X133731000Y-73568468D01*
X133957692Y-73548635D01*
X134177496Y-73489739D01*
X134383734Y-73393568D01*
X134570139Y-73263047D01*
X134731047Y-73102139D01*
X134861568Y-72915734D01*
X134957739Y-72709496D01*
X135016635Y-72489692D01*
X135036468Y-72263000D01*
X135016635Y-72036308D01*
X134957739Y-71816504D01*
X134861568Y-71610266D01*
X134777985Y-71490895D01*
X134731046Y-71423859D01*
X134570140Y-71262953D01*
X134383735Y-71132432D01*
X134177497Y-71036261D01*
X133957689Y-70977364D01*
X133731000Y-70957531D01*
X133504310Y-70977364D01*
X133284502Y-71036261D01*
X133078264Y-71132432D01*
X132891859Y-71262953D01*
X132730953Y-71423859D01*
X132600432Y-71610264D01*
X132504261Y-71816502D01*
X132445364Y-72036310D01*
X132425531Y-72262999D01*
X130036468Y-72262999D01*
X130016635Y-72036308D01*
X129957739Y-71816504D01*
X129861568Y-71610266D01*
X129777985Y-71490895D01*
X129731046Y-71423859D01*
X129570140Y-71262953D01*
X129383735Y-71132432D01*
X129177497Y-71036261D01*
X128957689Y-70977364D01*
X128731000Y-70957531D01*
X128504310Y-70977364D01*
X128284502Y-71036261D01*
X128078264Y-71132432D01*
X127891859Y-71262953D01*
X127730953Y-71423859D01*
X127600432Y-71610264D01*
X127504261Y-71816502D01*
X127445364Y-72036310D01*
X127425531Y-72263000D01*
X125000500Y-72263000D01*
X125000500Y-67945000D01*
X127091531Y-67945000D01*
X127111364Y-68171689D01*
X127170261Y-68391497D01*
X127266432Y-68597735D01*
X127396953Y-68784140D01*
X127557859Y-68945046D01*
X127744264Y-69075567D01*
X127744265Y-69075567D01*
X127744266Y-69075568D01*
X127950504Y-69171739D01*
X128170308Y-69230635D01*
X128321435Y-69243857D01*
X128396999Y-69250468D01*
X128396999Y-69250467D01*
X128397000Y-69250468D01*
X128623692Y-69230635D01*
X128843496Y-69171739D01*
X129049734Y-69075568D01*
X129236139Y-68945047D01*
X129397047Y-68784139D01*
X129527568Y-68597734D01*
X129623739Y-68391496D01*
X129682635Y-68171692D01*
X129702468Y-67945000D01*
X129702468Y-67944999D01*
X134711531Y-67944999D01*
X134731364Y-68171689D01*
X134790261Y-68391497D01*
X134886432Y-68597735D01*
X135016953Y-68784140D01*
X135177859Y-68945046D01*
X135364264Y-69075567D01*
X135364265Y-69075567D01*
X135364266Y-69075568D01*
X135570504Y-69171739D01*
X135790308Y-69230635D01*
X136017000Y-69250468D01*
X136243692Y-69230635D01*
X136463496Y-69171739D01*
X136669734Y-69075568D01*
X136856139Y-68945047D01*
X137017047Y-68784139D01*
X137121925Y-68634355D01*
X137176501Y-68590731D01*
X137245999Y-68583537D01*
X137308354Y-68615059D01*
X137325075Y-68634356D01*
X137429953Y-68784140D01*
X137590859Y-68945046D01*
X137777264Y-69075567D01*
X137777265Y-69075567D01*
X137777266Y-69075568D01*
X137983504Y-69171739D01*
X138203308Y-69230635D01*
X138430000Y-69250468D01*
X138656692Y-69230635D01*
X138876496Y-69171739D01*
X139082734Y-69075568D01*
X139269139Y-68945047D01*
X139430047Y-68784139D01*
X139560568Y-68597734D01*
X139656739Y-68391496D01*
X139715635Y-68171692D01*
X139735468Y-67945000D01*
X144744531Y-67945000D01*
X144764364Y-68171689D01*
X144823261Y-68391497D01*
X144919432Y-68597735D01*
X145049953Y-68784140D01*
X145210859Y-68945046D01*
X145397264Y-69075567D01*
X145397265Y-69075567D01*
X145397266Y-69075568D01*
X145603504Y-69171739D01*
X145823308Y-69230635D01*
X146050000Y-69250468D01*
X146276692Y-69230635D01*
X146496496Y-69171739D01*
X146702734Y-69075568D01*
X146889139Y-68945047D01*
X147050047Y-68784139D01*
X147180568Y-68597734D01*
X147276739Y-68391496D01*
X147335635Y-68171692D01*
X147355468Y-67945000D01*
X147335635Y-67718308D01*
X147276739Y-67498504D01*
X147180568Y-67292266D01*
X147050047Y-67105861D01*
X147050046Y-67105859D01*
X146889140Y-66944953D01*
X146702735Y-66814432D01*
X146496497Y-66718261D01*
X146276689Y-66659364D01*
X146050000Y-66639531D01*
X145823310Y-66659364D01*
X145603502Y-66718261D01*
X145397264Y-66814432D01*
X145210859Y-66944953D01*
X145049953Y-67105859D01*
X144919432Y-67292264D01*
X144823261Y-67498502D01*
X144764364Y-67718310D01*
X144744531Y-67945000D01*
X139735468Y-67945000D01*
X139715635Y-67718308D01*
X139656739Y-67498504D01*
X139560568Y-67292266D01*
X139430047Y-67105861D01*
X139430046Y-67105859D01*
X139269140Y-66944953D01*
X139082735Y-66814432D01*
X138876497Y-66718261D01*
X138656689Y-66659364D01*
X138430000Y-66639531D01*
X138203310Y-66659364D01*
X137983502Y-66718261D01*
X137777264Y-66814432D01*
X137590859Y-66944953D01*
X137429953Y-67105859D01*
X137325075Y-67255643D01*
X137270499Y-67299268D01*
X137201000Y-67306462D01*
X137138645Y-67274939D01*
X137121925Y-67255643D01*
X137017046Y-67105859D01*
X136856140Y-66944953D01*
X136669735Y-66814432D01*
X136463497Y-66718261D01*
X136243689Y-66659364D01*
X136017000Y-66639531D01*
X135790310Y-66659364D01*
X135570502Y-66718261D01*
X135364264Y-66814432D01*
X135177859Y-66944953D01*
X135016953Y-67105859D01*
X134886432Y-67292264D01*
X134790261Y-67498502D01*
X134731364Y-67718310D01*
X134711531Y-67944999D01*
X129702468Y-67944999D01*
X129682635Y-67718308D01*
X129623739Y-67498504D01*
X129527568Y-67292266D01*
X129397047Y-67105861D01*
X129397046Y-67105859D01*
X129236140Y-66944953D01*
X129049735Y-66814432D01*
X128843497Y-66718261D01*
X128623689Y-66659364D01*
X128397000Y-66639531D01*
X128170310Y-66659364D01*
X127950502Y-66718261D01*
X127744264Y-66814432D01*
X127557859Y-66944953D01*
X127396953Y-67105859D01*
X127266432Y-67292264D01*
X127170261Y-67498502D01*
X127111364Y-67718310D01*
X127091531Y-67945000D01*
X125000500Y-67945000D01*
X125000500Y-65913000D01*
X151448357Y-65913000D01*
X151468885Y-66134537D01*
X151529769Y-66348526D01*
X151628941Y-66547688D01*
X151763019Y-66725237D01*
X151927437Y-66875124D01*
X152116595Y-66992245D01*
X152116597Y-66992245D01*
X152116599Y-66992247D01*
X152324060Y-67072618D01*
X152542757Y-67113500D01*
X152542759Y-67113500D01*
X152765241Y-67113500D01*
X152765243Y-67113500D01*
X152983940Y-67072618D01*
X153191401Y-66992247D01*
X153380562Y-66875124D01*
X153544981Y-66725236D01*
X153679058Y-66547689D01*
X153778229Y-66348528D01*
X153839115Y-66134536D01*
X153859643Y-65913000D01*
X153839115Y-65691464D01*
X153794572Y-65534910D01*
X153778230Y-65477473D01*
X153679058Y-65278311D01*
X153544980Y-65100762D01*
X153380562Y-64950875D01*
X153191404Y-64833754D01*
X153130174Y-64810033D01*
X152983940Y-64753382D01*
X152765243Y-64712500D01*
X152542757Y-64712500D01*
X152324060Y-64753382D01*
X152116595Y-64833754D01*
X151927437Y-64950875D01*
X151763019Y-65100762D01*
X151628941Y-65278311D01*
X151529769Y-65477473D01*
X151468885Y-65691462D01*
X151448357Y-65913000D01*
X125000500Y-65913000D01*
X125000500Y-65221942D01*
X126125317Y-65221942D01*
X126125318Y-65225236D01*
X126131726Y-65284847D01*
X126182021Y-65419695D01*
X126268271Y-65534910D01*
X126383486Y-65621160D01*
X126518334Y-65671455D01*
X126577944Y-65677864D01*
X128173689Y-65677863D01*
X128233300Y-65671455D01*
X128368148Y-65621160D01*
X128483363Y-65534910D01*
X128569613Y-65419695D01*
X128619908Y-65284847D01*
X128626317Y-65225237D01*
X128626316Y-65159223D01*
X128646000Y-65092187D01*
X128698803Y-65046431D01*
X128767961Y-65036487D01*
X128831517Y-65065511D01*
X128851888Y-65088098D01*
X128954219Y-65234241D01*
X129108940Y-65388962D01*
X129288178Y-65514466D01*
X129486487Y-65606939D01*
X129697840Y-65663571D01*
X129843158Y-65676284D01*
X129915816Y-65682641D01*
X129915816Y-65682640D01*
X129915817Y-65682641D01*
X130133794Y-65663571D01*
X130345147Y-65606939D01*
X130543456Y-65514466D01*
X130722694Y-65388962D01*
X130877415Y-65234241D01*
X131002919Y-65055003D01*
X131073434Y-64903781D01*
X131119607Y-64851342D01*
X131186801Y-64832190D01*
X131253682Y-64852406D01*
X131298199Y-64903781D01*
X131368715Y-65055003D01*
X131494219Y-65234241D01*
X131648940Y-65388962D01*
X131828178Y-65514466D01*
X132026487Y-65606939D01*
X132237840Y-65663571D01*
X132455817Y-65682641D01*
X132673794Y-65663571D01*
X132885147Y-65606939D01*
X133083456Y-65514466D01*
X133262694Y-65388962D01*
X133417415Y-65234241D01*
X133542919Y-65055003D01*
X133635392Y-64856694D01*
X133692024Y-64645341D01*
X133711094Y-64427364D01*
X133692024Y-64209387D01*
X133635392Y-63998034D01*
X133542919Y-63799726D01*
X133417415Y-63620487D01*
X133262694Y-63465766D01*
X133083456Y-63340262D01*
X132992022Y-63297625D01*
X132885148Y-63247789D01*
X132673791Y-63191156D01*
X132455817Y-63172086D01*
X132237842Y-63191156D01*
X132026485Y-63247789D01*
X131828178Y-63340262D01*
X131648939Y-63465766D01*
X131494219Y-63620486D01*
X131368715Y-63799725D01*
X131298199Y-63950947D01*
X131252026Y-64003386D01*
X131184833Y-64022538D01*
X131117952Y-64002322D01*
X131073435Y-63950947D01*
X131007827Y-63810252D01*
X131002919Y-63799726D01*
X130877415Y-63620487D01*
X130722694Y-63465766D01*
X130543456Y-63340262D01*
X130452022Y-63297625D01*
X130345148Y-63247789D01*
X130133791Y-63191156D01*
X129915816Y-63172086D01*
X129697842Y-63191156D01*
X129486485Y-63247789D01*
X129288178Y-63340262D01*
X129108939Y-63465766D01*
X128954219Y-63620486D01*
X128851891Y-63766627D01*
X128797314Y-63810252D01*
X128727816Y-63817446D01*
X128665461Y-63785923D01*
X128630047Y-63725693D01*
X128626316Y-63695504D01*
X128626316Y-63632803D01*
X128626316Y-63629492D01*
X128619908Y-63569881D01*
X128569613Y-63435033D01*
X128483363Y-63319818D01*
X128368148Y-63233568D01*
X128233300Y-63183273D01*
X128173690Y-63176864D01*
X128170367Y-63176864D01*
X126581256Y-63176864D01*
X126581237Y-63176864D01*
X126577945Y-63176865D01*
X126574665Y-63177217D01*
X126574657Y-63177218D01*
X126518332Y-63183273D01*
X126383486Y-63233568D01*
X126268271Y-63319818D01*
X126182021Y-63435032D01*
X126131727Y-63569879D01*
X126131726Y-63569881D01*
X126125317Y-63629491D01*
X126125317Y-63632812D01*
X126125317Y-63632813D01*
X126125317Y-65221924D01*
X126125317Y-65221942D01*
X125000500Y-65221942D01*
X125000500Y-62386328D01*
X143136531Y-62386328D01*
X143156364Y-62613017D01*
X143215261Y-62832825D01*
X143311432Y-63039063D01*
X143441953Y-63225468D01*
X143602859Y-63386374D01*
X143789264Y-63516895D01*
X143789265Y-63516895D01*
X143789266Y-63516896D01*
X143995504Y-63613067D01*
X144215308Y-63671963D01*
X144442000Y-63691796D01*
X144668692Y-63671963D01*
X144888496Y-63613067D01*
X145094734Y-63516896D01*
X145281139Y-63386375D01*
X145442047Y-63225467D01*
X145572568Y-63039062D01*
X145668739Y-62832824D01*
X145727635Y-62613020D01*
X145747468Y-62386328D01*
X150756531Y-62386328D01*
X150776364Y-62613017D01*
X150835261Y-62832825D01*
X150931432Y-63039063D01*
X151061953Y-63225468D01*
X151222859Y-63386374D01*
X151409264Y-63516895D01*
X151409265Y-63516895D01*
X151409266Y-63516896D01*
X151615504Y-63613067D01*
X151835308Y-63671963D01*
X152062000Y-63691796D01*
X152288692Y-63671963D01*
X152508496Y-63613067D01*
X152714734Y-63516896D01*
X152901139Y-63386375D01*
X153062047Y-63225467D01*
X153192568Y-63039062D01*
X153288739Y-62832824D01*
X153347635Y-62613020D01*
X153367468Y-62386328D01*
X153347635Y-62159636D01*
X153288739Y-61939832D01*
X153192568Y-61733594D01*
X153062047Y-61547189D01*
X153062046Y-61547187D01*
X152901140Y-61386281D01*
X152714735Y-61255760D01*
X152508497Y-61159589D01*
X152288689Y-61100692D01*
X152062000Y-61080859D01*
X151835310Y-61100692D01*
X151615502Y-61159589D01*
X151409264Y-61255760D01*
X151222859Y-61386281D01*
X151061953Y-61547187D01*
X150931432Y-61733592D01*
X150835261Y-61939830D01*
X150776364Y-62159638D01*
X150756531Y-62386328D01*
X145747468Y-62386328D01*
X145727635Y-62159636D01*
X145668739Y-61939832D01*
X145572568Y-61733594D01*
X145442047Y-61547189D01*
X145442046Y-61547187D01*
X145281140Y-61386281D01*
X145094735Y-61255760D01*
X144888497Y-61159589D01*
X144668689Y-61100692D01*
X144442000Y-61080859D01*
X144215310Y-61100692D01*
X143995502Y-61159589D01*
X143789264Y-61255760D01*
X143602859Y-61386281D01*
X143441953Y-61547187D01*
X143311432Y-61733592D01*
X143215261Y-61939830D01*
X143156364Y-62159638D01*
X143136531Y-62386328D01*
X125000500Y-62386328D01*
X125000500Y-59913363D01*
X126080348Y-59913363D01*
X126100181Y-60140053D01*
X126159078Y-60359861D01*
X126255249Y-60566099D01*
X126385770Y-60752504D01*
X126546676Y-60913410D01*
X126733081Y-61043931D01*
X126733082Y-61043931D01*
X126733083Y-61043932D01*
X126939321Y-61140103D01*
X127159125Y-61198999D01*
X127385817Y-61218832D01*
X127612509Y-61198999D01*
X127832313Y-61140103D01*
X128038551Y-61043932D01*
X128224956Y-60913411D01*
X128385864Y-60752503D01*
X128516385Y-60566098D01*
X128612556Y-60359860D01*
X128671452Y-60140056D01*
X128691285Y-59913364D01*
X128691285Y-59913363D01*
X133700348Y-59913363D01*
X133720181Y-60140053D01*
X133779078Y-60359861D01*
X133875249Y-60566099D01*
X134005770Y-60752504D01*
X134166676Y-60913410D01*
X134353081Y-61043931D01*
X134353082Y-61043931D01*
X134353083Y-61043932D01*
X134559321Y-61140103D01*
X134779125Y-61198999D01*
X135005817Y-61218832D01*
X135232509Y-61198999D01*
X135452313Y-61140103D01*
X135658551Y-61043932D01*
X135844956Y-60913411D01*
X136005864Y-60752503D01*
X136136385Y-60566098D01*
X136232556Y-60359860D01*
X136291452Y-60140056D01*
X136311285Y-59913364D01*
X136291452Y-59686672D01*
X136232556Y-59466868D01*
X136170751Y-59334328D01*
X143163128Y-59334328D01*
X143215733Y-59530654D01*
X143311865Y-59736808D01*
X143442341Y-59923147D01*
X143603180Y-60083986D01*
X143789519Y-60214462D01*
X143995673Y-60310594D01*
X144191999Y-60363199D01*
X144192000Y-60363199D01*
X144192000Y-59400014D01*
X144203955Y-59411969D01*
X144316852Y-59469493D01*
X144410519Y-59484328D01*
X144473481Y-59484328D01*
X144567148Y-59469493D01*
X144680045Y-59411969D01*
X144692000Y-59400014D01*
X144692000Y-60363199D01*
X144888326Y-60310594D01*
X145094480Y-60214462D01*
X145280819Y-60083986D01*
X145441658Y-59923147D01*
X145572134Y-59736808D01*
X145668266Y-59530654D01*
X145720872Y-59334328D01*
X144757686Y-59334328D01*
X144769641Y-59322373D01*
X144827165Y-59209476D01*
X144846986Y-59084328D01*
X144846986Y-59084327D01*
X150756531Y-59084327D01*
X150776364Y-59311017D01*
X150835261Y-59530825D01*
X150931432Y-59737063D01*
X151061953Y-59923468D01*
X151222859Y-60084374D01*
X151409264Y-60214895D01*
X151409265Y-60214895D01*
X151409266Y-60214896D01*
X151615504Y-60311067D01*
X151835308Y-60369963D01*
X152062000Y-60389796D01*
X152288692Y-60369963D01*
X152508496Y-60311067D01*
X152714734Y-60214896D01*
X152901139Y-60084375D01*
X153062047Y-59923467D01*
X153192568Y-59737062D01*
X153288739Y-59530824D01*
X153347635Y-59311020D01*
X153367468Y-59084328D01*
X153347635Y-58857636D01*
X153288739Y-58637832D01*
X153192568Y-58431594D01*
X153062271Y-58245508D01*
X153062046Y-58245187D01*
X152901140Y-58084281D01*
X152714735Y-57953760D01*
X152508497Y-57857589D01*
X152288689Y-57798692D01*
X152062000Y-57778859D01*
X151835310Y-57798692D01*
X151615502Y-57857589D01*
X151409264Y-57953760D01*
X151222859Y-58084281D01*
X151061953Y-58245187D01*
X150931432Y-58431592D01*
X150835261Y-58637830D01*
X150776364Y-58857638D01*
X150756531Y-59084327D01*
X144846986Y-59084327D01*
X144827165Y-58959180D01*
X144769641Y-58846283D01*
X144757686Y-58834328D01*
X145720872Y-58834328D01*
X145720871Y-58834327D01*
X145668266Y-58638001D01*
X145572134Y-58431847D01*
X145441658Y-58245508D01*
X145280819Y-58084669D01*
X145094480Y-57954193D01*
X144888326Y-57858061D01*
X144692000Y-57805454D01*
X144692000Y-58768641D01*
X144680045Y-58756687D01*
X144567148Y-58699163D01*
X144473481Y-58684328D01*
X144410519Y-58684328D01*
X144316852Y-58699163D01*
X144203955Y-58756687D01*
X144192000Y-58768641D01*
X144192000Y-57805455D01*
X144191999Y-57805454D01*
X143995673Y-57858061D01*
X143789519Y-57954193D01*
X143603180Y-58084669D01*
X143442341Y-58245508D01*
X143311865Y-58431847D01*
X143215733Y-58638001D01*
X143163128Y-58834327D01*
X143163128Y-58834328D01*
X144126314Y-58834328D01*
X144114359Y-58846283D01*
X144056835Y-58959180D01*
X144037014Y-59084328D01*
X144056835Y-59209476D01*
X144114359Y-59322373D01*
X144126314Y-59334328D01*
X143163128Y-59334328D01*
X136170751Y-59334328D01*
X136136385Y-59260630D01*
X136012939Y-59084328D01*
X136005863Y-59074223D01*
X135844957Y-58913317D01*
X135658552Y-58782796D01*
X135452314Y-58686625D01*
X135232506Y-58627728D01*
X135005817Y-58607895D01*
X134779127Y-58627728D01*
X134559319Y-58686625D01*
X134353081Y-58782796D01*
X134166676Y-58913317D01*
X134005770Y-59074223D01*
X133875249Y-59260628D01*
X133779078Y-59466866D01*
X133720181Y-59686674D01*
X133700348Y-59913363D01*
X128691285Y-59913363D01*
X128671452Y-59686672D01*
X128612556Y-59466868D01*
X128516385Y-59260630D01*
X128392939Y-59084328D01*
X128385863Y-59074223D01*
X128224957Y-58913317D01*
X128038552Y-58782796D01*
X127832314Y-58686625D01*
X127612506Y-58627728D01*
X127385817Y-58607895D01*
X127159127Y-58627728D01*
X126939319Y-58686625D01*
X126733081Y-58782796D01*
X126546676Y-58913317D01*
X126385770Y-59074223D01*
X126255249Y-59260628D01*
X126159078Y-59466866D01*
X126100181Y-59686674D01*
X126080348Y-59913363D01*
X125000500Y-59913363D01*
X125000500Y-56786541D01*
X126106945Y-56786541D01*
X126159550Y-56982867D01*
X126255682Y-57189021D01*
X126386158Y-57375360D01*
X126546997Y-57536199D01*
X126733336Y-57666675D01*
X126939490Y-57762807D01*
X127135815Y-57815412D01*
X127135816Y-57815412D01*
X127135816Y-56852226D01*
X127147772Y-56864182D01*
X127260669Y-56921706D01*
X127354336Y-56936541D01*
X127417298Y-56936541D01*
X127510965Y-56921706D01*
X127623862Y-56864182D01*
X127635817Y-56852227D01*
X127635817Y-57815412D01*
X127832143Y-57762807D01*
X128038297Y-57666675D01*
X128224636Y-57536199D01*
X128385475Y-57375360D01*
X128515951Y-57189021D01*
X128612083Y-56982867D01*
X128664689Y-56786541D01*
X127701503Y-56786541D01*
X127713458Y-56774586D01*
X127770982Y-56661689D01*
X127790803Y-56536541D01*
X127790803Y-56536540D01*
X133700348Y-56536540D01*
X133720181Y-56763230D01*
X133779078Y-56983038D01*
X133875249Y-57189276D01*
X134005770Y-57375681D01*
X134166676Y-57536587D01*
X134353081Y-57667108D01*
X134353082Y-57667108D01*
X134353083Y-57667109D01*
X134559321Y-57763280D01*
X134779125Y-57822176D01*
X135005817Y-57842009D01*
X135232509Y-57822176D01*
X135452313Y-57763280D01*
X135658551Y-57667109D01*
X135844956Y-57536588D01*
X136005864Y-57375680D01*
X136136385Y-57189275D01*
X136232556Y-56983037D01*
X136291452Y-56763233D01*
X136311285Y-56536541D01*
X136291452Y-56309849D01*
X136232556Y-56090045D01*
X136136385Y-55883807D01*
X136065330Y-55782328D01*
X136065329Y-55782327D01*
X143136531Y-55782327D01*
X143156364Y-56009017D01*
X143215261Y-56228825D01*
X143311432Y-56435063D01*
X143441953Y-56621468D01*
X143602859Y-56782374D01*
X143789264Y-56912895D01*
X143789265Y-56912895D01*
X143789266Y-56912896D01*
X143995504Y-57009067D01*
X144215308Y-57067963D01*
X144442000Y-57087796D01*
X144668692Y-57067963D01*
X144888496Y-57009067D01*
X145094734Y-56912896D01*
X145281139Y-56782375D01*
X145442047Y-56621467D01*
X145572568Y-56435062D01*
X145668739Y-56228824D01*
X145727635Y-56009020D01*
X145747468Y-55782328D01*
X150756531Y-55782328D01*
X150776364Y-56009017D01*
X150835261Y-56228825D01*
X150931432Y-56435063D01*
X151061953Y-56621468D01*
X151222859Y-56782374D01*
X151409264Y-56912895D01*
X151409265Y-56912895D01*
X151409266Y-56912896D01*
X151615504Y-57009067D01*
X151835308Y-57067963D01*
X152062000Y-57087796D01*
X152288692Y-57067963D01*
X152508496Y-57009067D01*
X152714734Y-56912896D01*
X152901139Y-56782375D01*
X153062047Y-56621467D01*
X153192568Y-56435062D01*
X153288739Y-56228824D01*
X153347635Y-56009020D01*
X153367468Y-55782328D01*
X153347635Y-55555636D01*
X153288739Y-55335832D01*
X153192568Y-55129594D01*
X153062047Y-54943189D01*
X153062046Y-54943187D01*
X152901140Y-54782281D01*
X152714735Y-54651760D01*
X152508497Y-54555589D01*
X152288689Y-54496692D01*
X152062000Y-54476859D01*
X151835310Y-54496692D01*
X151615502Y-54555589D01*
X151409264Y-54651760D01*
X151222859Y-54782281D01*
X151061953Y-54943187D01*
X150931432Y-55129592D01*
X150835261Y-55335830D01*
X150776364Y-55555638D01*
X150756531Y-55782328D01*
X145747468Y-55782328D01*
X145727635Y-55555636D01*
X145668739Y-55335832D01*
X145572568Y-55129594D01*
X145442047Y-54943189D01*
X145442046Y-54943187D01*
X145281140Y-54782281D01*
X145094735Y-54651760D01*
X144888497Y-54555589D01*
X144668689Y-54496692D01*
X144442000Y-54476859D01*
X144215310Y-54496692D01*
X143995502Y-54555589D01*
X143789264Y-54651760D01*
X143602859Y-54782281D01*
X143441953Y-54943187D01*
X143311432Y-55129592D01*
X143215261Y-55335830D01*
X143156364Y-55555638D01*
X143136531Y-55782327D01*
X136065329Y-55782327D01*
X136005863Y-55697400D01*
X135844957Y-55536494D01*
X135658552Y-55405973D01*
X135452314Y-55309802D01*
X135232506Y-55250905D01*
X135005817Y-55231072D01*
X134779127Y-55250905D01*
X134559319Y-55309802D01*
X134353081Y-55405973D01*
X134166676Y-55536494D01*
X134005770Y-55697400D01*
X133875249Y-55883805D01*
X133779078Y-56090043D01*
X133720181Y-56309851D01*
X133700348Y-56536540D01*
X127790803Y-56536540D01*
X127770982Y-56411393D01*
X127713458Y-56298496D01*
X127701503Y-56286541D01*
X128664689Y-56286541D01*
X128664688Y-56286540D01*
X128612083Y-56090214D01*
X128515951Y-55884060D01*
X128385475Y-55697721D01*
X128224636Y-55536882D01*
X128038297Y-55406406D01*
X127832143Y-55310274D01*
X127635817Y-55257667D01*
X127635817Y-56220855D01*
X127623862Y-56208900D01*
X127510965Y-56151376D01*
X127417298Y-56136541D01*
X127354336Y-56136541D01*
X127260669Y-56151376D01*
X127147772Y-56208900D01*
X127135816Y-56220856D01*
X127135816Y-55257668D01*
X126939490Y-55310274D01*
X126733336Y-55406406D01*
X126546997Y-55536882D01*
X126386158Y-55697721D01*
X126255682Y-55884060D01*
X126159550Y-56090214D01*
X126106945Y-56286540D01*
X126106945Y-56286541D01*
X127070131Y-56286541D01*
X127058176Y-56298496D01*
X127000652Y-56411393D01*
X126980831Y-56536541D01*
X127000652Y-56661689D01*
X127058176Y-56774586D01*
X127070131Y-56786541D01*
X126106945Y-56786541D01*
X125000500Y-56786541D01*
X125000500Y-52069999D01*
X126175357Y-52069999D01*
X126195885Y-52291537D01*
X126256769Y-52505526D01*
X126355941Y-52704688D01*
X126490019Y-52882237D01*
X126654437Y-53032124D01*
X126843595Y-53149245D01*
X126843597Y-53149245D01*
X126843599Y-53149247D01*
X127051060Y-53229618D01*
X127269757Y-53270500D01*
X127269759Y-53270500D01*
X127492241Y-53270500D01*
X127492243Y-53270500D01*
X127710940Y-53229618D01*
X127918401Y-53149247D01*
X128107562Y-53032124D01*
X128271981Y-52882236D01*
X128406058Y-52704689D01*
X128469143Y-52577999D01*
X143136531Y-52577999D01*
X143156364Y-52804689D01*
X143215261Y-53024497D01*
X143311432Y-53230735D01*
X143441953Y-53417140D01*
X143602859Y-53578046D01*
X143789264Y-53708567D01*
X143789265Y-53708567D01*
X143789266Y-53708568D01*
X143995504Y-53804739D01*
X144215308Y-53863635D01*
X144442000Y-53883468D01*
X144668692Y-53863635D01*
X144888496Y-53804739D01*
X145094734Y-53708568D01*
X145281139Y-53578047D01*
X145442047Y-53417139D01*
X145572568Y-53230734D01*
X145668739Y-53024496D01*
X145721390Y-52828000D01*
X150783128Y-52828000D01*
X150835733Y-53024326D01*
X150931865Y-53230480D01*
X151062341Y-53416819D01*
X151223180Y-53577658D01*
X151409519Y-53708134D01*
X151615673Y-53804266D01*
X151811999Y-53856871D01*
X151812000Y-53856871D01*
X151812000Y-52893686D01*
X151823955Y-52905641D01*
X151936852Y-52963165D01*
X152030519Y-52978000D01*
X152093481Y-52978000D01*
X152187148Y-52963165D01*
X152300045Y-52905641D01*
X152312000Y-52893686D01*
X152312000Y-53856871D01*
X152508326Y-53804266D01*
X152714480Y-53708134D01*
X152900819Y-53577658D01*
X153061658Y-53416819D01*
X153192134Y-53230480D01*
X153288266Y-53024326D01*
X153340872Y-52828000D01*
X152377686Y-52828000D01*
X152389641Y-52816045D01*
X152447165Y-52703148D01*
X152466986Y-52578000D01*
X152447165Y-52452852D01*
X152389641Y-52339955D01*
X152377686Y-52328000D01*
X153340872Y-52328000D01*
X153340871Y-52327999D01*
X153288266Y-52131673D01*
X153192134Y-51925519D01*
X153061658Y-51739180D01*
X152900819Y-51578341D01*
X152714480Y-51447865D01*
X152508326Y-51351733D01*
X152312000Y-51299126D01*
X152312000Y-52262313D01*
X152300045Y-52250359D01*
X152187148Y-52192835D01*
X152093481Y-52178000D01*
X152030519Y-52178000D01*
X151936852Y-52192835D01*
X151823955Y-52250359D01*
X151812000Y-52262313D01*
X151812000Y-51299127D01*
X151811999Y-51299126D01*
X151615673Y-51351733D01*
X151409519Y-51447865D01*
X151223180Y-51578341D01*
X151062341Y-51739180D01*
X150931865Y-51925519D01*
X150835733Y-52131673D01*
X150783128Y-52327999D01*
X150783128Y-52328000D01*
X151746314Y-52328000D01*
X151734359Y-52339955D01*
X151676835Y-52452852D01*
X151657014Y-52578000D01*
X151676835Y-52703148D01*
X151734359Y-52816045D01*
X151746314Y-52828000D01*
X150783128Y-52828000D01*
X145721390Y-52828000D01*
X145727635Y-52804692D01*
X145747468Y-52578000D01*
X145727635Y-52351308D01*
X145668739Y-52131504D01*
X145572568Y-51925266D01*
X145518792Y-51848464D01*
X145442046Y-51738859D01*
X145281140Y-51577953D01*
X145094735Y-51447432D01*
X144888497Y-51351261D01*
X144668689Y-51292364D01*
X144442000Y-51272531D01*
X144215310Y-51292364D01*
X143995502Y-51351261D01*
X143789264Y-51447432D01*
X143602859Y-51577953D01*
X143441953Y-51738859D01*
X143311432Y-51925264D01*
X143215261Y-52131502D01*
X143156364Y-52351310D01*
X143136531Y-52577999D01*
X128469143Y-52577999D01*
X128505229Y-52505528D01*
X128566115Y-52291536D01*
X128586643Y-52070000D01*
X128566115Y-51848464D01*
X128534930Y-51738859D01*
X128505230Y-51634473D01*
X128406058Y-51435311D01*
X128271980Y-51257762D01*
X128107562Y-51107875D01*
X127918404Y-50990754D01*
X127857174Y-50967033D01*
X127710940Y-50910382D01*
X127492243Y-50869500D01*
X127269757Y-50869500D01*
X127051060Y-50910382D01*
X126843595Y-50990754D01*
X126654437Y-51107875D01*
X126490019Y-51257762D01*
X126355941Y-51435311D01*
X126256769Y-51634473D01*
X126195885Y-51848462D01*
X126175357Y-52069999D01*
X125000500Y-52069999D01*
X125000500Y-50124500D01*
X125020185Y-50057461D01*
X125072989Y-50011706D01*
X125124500Y-50000500D01*
X154875500Y-50000500D01*
X154942539Y-50020185D01*
G37*
G04 #@! TD.AperFunction*
M02*
