%TF.GenerationSoftware,KiCad,Pcbnew,7.0.2-0*%
%TF.CreationDate,2023-05-29T19:59:55+02:00*%
%TF.ProjectId,shmoergh-funk-live-voice,73686d6f-6572-4676-982d-66756e6b2d6c,rev?*%
%TF.SameCoordinates,Original*%
%TF.FileFunction,Drillmap*%
%TF.FilePolarity,Positive*%
%FSLAX45Y45*%
G04 Gerber Fmt 4.5, Leading zero omitted, Abs format (unit mm)*
G04 Created by KiCad (PCBNEW 7.0.2-0) date 2023-05-29 19:59:55*
%MOMM*%
%LPD*%
G01*
G04 APERTURE LIST*
%ADD10C,0.100000*%
%ADD11C,0.200000*%
%ADD12C,0.040000*%
%ADD13C,0.070000*%
%ADD14C,0.080000*%
%ADD15C,0.090000*%
G04 APERTURE END LIST*
D10*
X12500000Y-5000000D02*
X15500000Y-5000000D01*
X15500000Y-11750000D01*
X12500000Y-11750000D01*
X12500000Y-5000000D01*
D11*
D12*
X13518200Y-9149400D02*
X13558200Y-9189400D01*
X13558200Y-9149400D02*
X13518200Y-9189400D01*
X13519850Y-9530400D02*
X13559850Y-9570400D01*
X13559850Y-9530400D02*
X13519850Y-9570400D01*
X13619800Y-9149400D02*
X13659800Y-9189400D01*
X13659800Y-9149400D02*
X13619800Y-9189400D01*
X13619800Y-9530400D02*
X13659800Y-9570400D01*
X13659800Y-9530400D02*
X13619800Y-9570400D01*
X13988100Y-9212900D02*
X14028100Y-9252900D01*
X14028100Y-9212900D02*
X13988100Y-9252900D01*
X14204000Y-9428800D02*
X14244000Y-9468800D01*
X14244000Y-9428800D02*
X14204000Y-9468800D01*
X14851700Y-8616000D02*
X14891700Y-8656000D01*
X14891700Y-8616000D02*
X14851700Y-8656000D01*
X14997750Y-8800150D02*
X15037750Y-8840150D01*
X15037750Y-8800150D02*
X14997750Y-8840150D01*
D13*
X12773100Y-5207000D02*
G75*
G03*
X12773100Y-5207000I-35000J0D01*
G01*
X14271700Y-10896600D02*
G75*
G03*
X14271700Y-10896600I-35000J0D01*
G01*
X14792400Y-9867900D02*
G75*
G03*
X14792400Y-9867900I-35000J0D01*
G01*
X15300400Y-6591300D02*
G75*
G03*
X15300400Y-6591300I-35000J0D01*
G01*
X15300400Y-8890000D02*
G75*
G03*
X15300400Y-8890000I-35000J0D01*
G01*
D14*
X12737582Y-6402736D02*
X12737582Y-6482736D01*
X12697582Y-6442736D02*
X12777582Y-6442736D01*
X12738582Y-5613654D02*
X12738582Y-5693654D01*
X12698582Y-5653654D02*
X12778582Y-5653654D01*
X12738582Y-5951336D02*
X12738582Y-6031336D01*
X12698582Y-5991336D02*
X12778582Y-5991336D01*
X12776200Y-8463004D02*
X12776200Y-8543004D01*
X12736200Y-8503004D02*
X12816200Y-8503004D01*
X12839700Y-6754500D02*
X12839700Y-6834500D01*
X12799700Y-6794500D02*
X12879700Y-6794500D01*
X12873100Y-7186300D02*
X12873100Y-7266300D01*
X12833100Y-7226300D02*
X12913100Y-7226300D01*
X12991582Y-6402736D02*
X12991582Y-6482736D01*
X12951582Y-6442736D02*
X13031582Y-6442736D01*
X13131800Y-10533104D02*
X13131800Y-10613104D01*
X13091800Y-10573104D02*
X13171800Y-10573104D01*
X13131800Y-10863304D02*
X13131800Y-10943304D01*
X13091800Y-10903304D02*
X13171800Y-10903304D01*
X13131800Y-11180804D02*
X13131800Y-11260804D01*
X13091800Y-11220804D02*
X13171800Y-11220804D01*
X13133800Y-10228304D02*
X13133800Y-10308304D01*
X13093800Y-10268304D02*
X13173800Y-10268304D01*
X13245582Y-6402736D02*
X13245582Y-6482736D01*
X13205582Y-6442736D02*
X13285582Y-6442736D01*
X13316900Y-7955004D02*
X13316900Y-8035004D01*
X13276900Y-7995004D02*
X13356900Y-7995004D01*
X13373100Y-7186300D02*
X13373100Y-7266300D01*
X13333100Y-7226300D02*
X13413100Y-7226300D01*
X13383800Y-10228304D02*
X13383800Y-10308304D01*
X13343800Y-10268304D02*
X13423800Y-10268304D01*
X13500582Y-5613654D02*
X13500582Y-5693654D01*
X13460582Y-5653654D02*
X13540582Y-5653654D01*
X13500582Y-5951336D02*
X13500582Y-6031336D01*
X13460582Y-5991336D02*
X13540582Y-5991336D01*
X13538200Y-8463004D02*
X13538200Y-8543004D01*
X13498200Y-8503004D02*
X13578200Y-8503004D01*
X13566900Y-7955004D02*
X13566900Y-8035004D01*
X13526900Y-7995004D02*
X13606900Y-7995004D01*
X13601700Y-6754500D02*
X13601700Y-6834500D01*
X13561700Y-6794500D02*
X13641700Y-6794500D01*
X13843000Y-6754500D02*
X13843000Y-6834500D01*
X13803000Y-6794500D02*
X13883000Y-6794500D01*
X13848300Y-7193004D02*
X13848300Y-7273004D01*
X13808300Y-7233004D02*
X13888300Y-7233004D01*
X13848300Y-7447004D02*
X13848300Y-7527004D01*
X13808300Y-7487004D02*
X13888300Y-7487004D01*
X13848300Y-7701004D02*
X13848300Y-7781004D01*
X13808300Y-7741004D02*
X13888300Y-7741004D01*
X13848300Y-7955004D02*
X13848300Y-8035004D01*
X13808300Y-7995004D02*
X13888300Y-7995004D01*
X13848300Y-8209004D02*
X13848300Y-8289004D01*
X13808300Y-8249004D02*
X13888300Y-8249004D01*
X13848300Y-8463004D02*
X13848300Y-8543004D01*
X13808300Y-8503004D02*
X13888300Y-8503004D01*
X13848300Y-8717004D02*
X13848300Y-8797004D01*
X13808300Y-8757004D02*
X13888300Y-8757004D01*
X13893800Y-9989004D02*
X13893800Y-10069004D01*
X13853800Y-10029004D02*
X13933800Y-10029004D01*
X13893800Y-10239004D02*
X13893800Y-10319004D01*
X13853800Y-10279004D02*
X13933800Y-10279004D01*
X13893800Y-10533104D02*
X13893800Y-10613104D01*
X13853800Y-10573104D02*
X13933800Y-10573104D01*
X13893800Y-10863304D02*
X13893800Y-10943304D01*
X13853800Y-10903304D02*
X13933800Y-10903304D01*
X13893800Y-11180804D02*
X13893800Y-11260804D01*
X13853800Y-11220804D02*
X13933800Y-11220804D01*
X14444200Y-5217800D02*
X14444200Y-5297800D01*
X14404200Y-5257800D02*
X14484200Y-5257800D01*
X14444200Y-5538233D02*
X14444200Y-5618233D01*
X14404200Y-5578233D02*
X14484200Y-5578233D01*
X14444200Y-5868433D02*
X14444200Y-5948433D01*
X14404200Y-5908433D02*
X14484200Y-5908433D01*
X14444200Y-6198633D02*
X14444200Y-6278633D01*
X14404200Y-6238633D02*
X14484200Y-6238633D01*
X14605000Y-6754500D02*
X14605000Y-6834500D01*
X14565000Y-6794500D02*
X14645000Y-6794500D01*
X14610300Y-7193004D02*
X14610300Y-7273004D01*
X14570300Y-7233004D02*
X14650300Y-7233004D01*
X14610300Y-7447004D02*
X14610300Y-7527004D01*
X14570300Y-7487004D02*
X14650300Y-7487004D01*
X14610300Y-7701004D02*
X14610300Y-7781004D01*
X14570300Y-7741004D02*
X14650300Y-7741004D01*
X14610300Y-7955004D02*
X14610300Y-8035004D01*
X14570300Y-7995004D02*
X14650300Y-7995004D01*
X14610300Y-8209004D02*
X14610300Y-8289004D01*
X14570300Y-8249004D02*
X14650300Y-8249004D01*
X14610300Y-8463004D02*
X14610300Y-8543004D01*
X14570300Y-8503004D02*
X14650300Y-8503004D01*
X14610300Y-8717004D02*
X14610300Y-8797004D01*
X14570300Y-8757004D02*
X14650300Y-8757004D01*
X14922500Y-7696300D02*
X14922500Y-7776300D01*
X14882500Y-7736300D02*
X14962500Y-7736300D01*
X14922500Y-7946300D02*
X14922500Y-8026300D01*
X14882500Y-7986300D02*
X14962500Y-7986300D01*
X14947900Y-8456300D02*
X14947900Y-8536300D01*
X14907900Y-8496300D02*
X14987900Y-8496300D01*
X14947900Y-9218300D02*
X14947900Y-9298300D01*
X14907900Y-9258300D02*
X14987900Y-9258300D01*
X15206200Y-5217800D02*
X15206200Y-5297800D01*
X15166200Y-5257800D02*
X15246200Y-5257800D01*
X15206200Y-5538233D02*
X15206200Y-5618233D01*
X15166200Y-5578233D02*
X15246200Y-5578233D01*
X15206200Y-5868433D02*
X15206200Y-5948433D01*
X15166200Y-5908433D02*
X15246200Y-5908433D01*
X15206200Y-6198633D02*
X15206200Y-6278633D01*
X15166200Y-6238633D02*
X15246200Y-6238633D01*
D15*
X14776520Y-10610920D02*
X14776520Y-10547280D01*
X14712880Y-10547280D01*
X14712880Y-10610920D01*
X14776520Y-10610920D01*
X14776520Y-11110920D02*
X14776520Y-11047280D01*
X14712880Y-11047280D01*
X14712880Y-11110920D01*
X14776520Y-11110920D01*
X15026520Y-10860920D02*
X15026520Y-10797280D01*
X14962880Y-10797280D01*
X14962880Y-10860920D01*
X15026520Y-10860920D01*
D10*
X12687300Y-9340404D02*
X12737300Y-9290404D01*
X12687300Y-9240404D01*
X12637300Y-9290404D01*
X12687300Y-9340404D01*
X12687300Y-9594404D02*
X12737300Y-9544404D01*
X12687300Y-9494404D01*
X12637300Y-9544404D01*
X12687300Y-9594404D01*
X12687300Y-9848404D02*
X12737300Y-9798404D01*
X12687300Y-9748404D01*
X12637300Y-9798404D01*
X12687300Y-9848404D01*
X12687300Y-10311600D02*
X12737300Y-10261600D01*
X12687300Y-10211600D01*
X12637300Y-10261600D01*
X12687300Y-10311600D01*
X12687300Y-10565600D02*
X12737300Y-10515600D01*
X12687300Y-10465600D01*
X12637300Y-10515600D01*
X12687300Y-10565600D01*
X12687300Y-10819600D02*
X12737300Y-10769600D01*
X12687300Y-10719600D01*
X12637300Y-10769600D01*
X12687300Y-10819600D01*
X12687300Y-11073600D02*
X12737300Y-11023600D01*
X12687300Y-10973600D01*
X12637300Y-11023600D01*
X12687300Y-11073600D01*
X12687300Y-11327600D02*
X12737300Y-11277600D01*
X12687300Y-11227600D01*
X12637300Y-11277600D01*
X12687300Y-11327600D01*
X12687300Y-11581600D02*
X12737300Y-11531600D01*
X12687300Y-11481600D01*
X12637300Y-11531600D01*
X12687300Y-11581600D01*
X12941300Y-9340404D02*
X12991300Y-9290404D01*
X12941300Y-9240404D01*
X12891300Y-9290404D01*
X12941300Y-9340404D01*
X12941300Y-9594404D02*
X12991300Y-9544404D01*
X12941300Y-9494404D01*
X12891300Y-9544404D01*
X12941300Y-9594404D01*
X12941300Y-9848404D02*
X12991300Y-9798404D01*
X12941300Y-9748404D01*
X12891300Y-9798404D01*
X12941300Y-9848404D01*
D11*
X12742619Y-12067524D02*
X12742619Y-11867524D01*
X12742619Y-11867524D02*
X12790238Y-11867524D01*
X12790238Y-11867524D02*
X12818809Y-11877048D01*
X12818809Y-11877048D02*
X12837857Y-11896095D01*
X12837857Y-11896095D02*
X12847381Y-11915143D01*
X12847381Y-11915143D02*
X12856905Y-11953238D01*
X12856905Y-11953238D02*
X12856905Y-11981809D01*
X12856905Y-11981809D02*
X12847381Y-12019905D01*
X12847381Y-12019905D02*
X12837857Y-12038952D01*
X12837857Y-12038952D02*
X12818809Y-12058000D01*
X12818809Y-12058000D02*
X12790238Y-12067524D01*
X12790238Y-12067524D02*
X12742619Y-12067524D01*
X12942619Y-12067524D02*
X12942619Y-11934190D01*
X12942619Y-11972286D02*
X12952143Y-11953238D01*
X12952143Y-11953238D02*
X12961667Y-11943714D01*
X12961667Y-11943714D02*
X12980714Y-11934190D01*
X12980714Y-11934190D02*
X12999762Y-11934190D01*
X13066428Y-12067524D02*
X13066428Y-11934190D01*
X13066428Y-11867524D02*
X13056905Y-11877048D01*
X13056905Y-11877048D02*
X13066428Y-11886571D01*
X13066428Y-11886571D02*
X13075952Y-11877048D01*
X13075952Y-11877048D02*
X13066428Y-11867524D01*
X13066428Y-11867524D02*
X13066428Y-11886571D01*
X13190238Y-12067524D02*
X13171190Y-12058000D01*
X13171190Y-12058000D02*
X13161667Y-12038952D01*
X13161667Y-12038952D02*
X13161667Y-11867524D01*
X13295000Y-12067524D02*
X13275952Y-12058000D01*
X13275952Y-12058000D02*
X13266428Y-12038952D01*
X13266428Y-12038952D02*
X13266428Y-11867524D01*
X13523571Y-12067524D02*
X13523571Y-11867524D01*
X13523571Y-11867524D02*
X13590238Y-12010381D01*
X13590238Y-12010381D02*
X13656905Y-11867524D01*
X13656905Y-11867524D02*
X13656905Y-12067524D01*
X13837857Y-12067524D02*
X13837857Y-11962762D01*
X13837857Y-11962762D02*
X13828333Y-11943714D01*
X13828333Y-11943714D02*
X13809286Y-11934190D01*
X13809286Y-11934190D02*
X13771190Y-11934190D01*
X13771190Y-11934190D02*
X13752143Y-11943714D01*
X13837857Y-12058000D02*
X13818809Y-12067524D01*
X13818809Y-12067524D02*
X13771190Y-12067524D01*
X13771190Y-12067524D02*
X13752143Y-12058000D01*
X13752143Y-12058000D02*
X13742619Y-12038952D01*
X13742619Y-12038952D02*
X13742619Y-12019905D01*
X13742619Y-12019905D02*
X13752143Y-12000857D01*
X13752143Y-12000857D02*
X13771190Y-11991333D01*
X13771190Y-11991333D02*
X13818809Y-11991333D01*
X13818809Y-11991333D02*
X13837857Y-11981809D01*
X13933095Y-11934190D02*
X13933095Y-12134190D01*
X13933095Y-11943714D02*
X13952143Y-11934190D01*
X13952143Y-11934190D02*
X13990238Y-11934190D01*
X13990238Y-11934190D02*
X14009286Y-11943714D01*
X14009286Y-11943714D02*
X14018809Y-11953238D01*
X14018809Y-11953238D02*
X14028333Y-11972286D01*
X14028333Y-11972286D02*
X14028333Y-12029428D01*
X14028333Y-12029428D02*
X14018809Y-12048476D01*
X14018809Y-12048476D02*
X14009286Y-12058000D01*
X14009286Y-12058000D02*
X13990238Y-12067524D01*
X13990238Y-12067524D02*
X13952143Y-12067524D01*
X13952143Y-12067524D02*
X13933095Y-12058000D01*
X14114048Y-12048476D02*
X14123571Y-12058000D01*
X14123571Y-12058000D02*
X14114048Y-12067524D01*
X14114048Y-12067524D02*
X14104524Y-12058000D01*
X14104524Y-12058000D02*
X14114048Y-12048476D01*
X14114048Y-12048476D02*
X14114048Y-12067524D01*
X14114048Y-11943714D02*
X14123571Y-11953238D01*
X14123571Y-11953238D02*
X14114048Y-11962762D01*
X14114048Y-11962762D02*
X14104524Y-11953238D01*
X14104524Y-11953238D02*
X14114048Y-11943714D01*
X14114048Y-11943714D02*
X14114048Y-11962762D01*
D12*
X12455000Y-12375000D02*
X12495000Y-12415000D01*
X12495000Y-12375000D02*
X12455000Y-12415000D01*
D11*
X12780714Y-12287524D02*
X12799762Y-12287524D01*
X12799762Y-12287524D02*
X12818809Y-12297048D01*
X12818809Y-12297048D02*
X12828333Y-12306571D01*
X12828333Y-12306571D02*
X12837857Y-12325619D01*
X12837857Y-12325619D02*
X12847381Y-12363714D01*
X12847381Y-12363714D02*
X12847381Y-12411333D01*
X12847381Y-12411333D02*
X12837857Y-12449428D01*
X12837857Y-12449428D02*
X12828333Y-12468476D01*
X12828333Y-12468476D02*
X12818809Y-12478000D01*
X12818809Y-12478000D02*
X12799762Y-12487524D01*
X12799762Y-12487524D02*
X12780714Y-12487524D01*
X12780714Y-12487524D02*
X12761667Y-12478000D01*
X12761667Y-12478000D02*
X12752143Y-12468476D01*
X12752143Y-12468476D02*
X12742619Y-12449428D01*
X12742619Y-12449428D02*
X12733095Y-12411333D01*
X12733095Y-12411333D02*
X12733095Y-12363714D01*
X12733095Y-12363714D02*
X12742619Y-12325619D01*
X12742619Y-12325619D02*
X12752143Y-12306571D01*
X12752143Y-12306571D02*
X12761667Y-12297048D01*
X12761667Y-12297048D02*
X12780714Y-12287524D01*
X12933095Y-12468476D02*
X12942619Y-12478000D01*
X12942619Y-12478000D02*
X12933095Y-12487524D01*
X12933095Y-12487524D02*
X12923571Y-12478000D01*
X12923571Y-12478000D02*
X12933095Y-12468476D01*
X12933095Y-12468476D02*
X12933095Y-12487524D01*
X13114048Y-12354190D02*
X13114048Y-12487524D01*
X13066428Y-12278000D02*
X13018809Y-12420857D01*
X13018809Y-12420857D02*
X13142619Y-12420857D01*
X13256905Y-12287524D02*
X13275952Y-12287524D01*
X13275952Y-12287524D02*
X13295000Y-12297048D01*
X13295000Y-12297048D02*
X13304524Y-12306571D01*
X13304524Y-12306571D02*
X13314048Y-12325619D01*
X13314048Y-12325619D02*
X13323571Y-12363714D01*
X13323571Y-12363714D02*
X13323571Y-12411333D01*
X13323571Y-12411333D02*
X13314048Y-12449428D01*
X13314048Y-12449428D02*
X13304524Y-12468476D01*
X13304524Y-12468476D02*
X13295000Y-12478000D01*
X13295000Y-12478000D02*
X13275952Y-12487524D01*
X13275952Y-12487524D02*
X13256905Y-12487524D01*
X13256905Y-12487524D02*
X13237857Y-12478000D01*
X13237857Y-12478000D02*
X13228333Y-12468476D01*
X13228333Y-12468476D02*
X13218809Y-12449428D01*
X13218809Y-12449428D02*
X13209286Y-12411333D01*
X13209286Y-12411333D02*
X13209286Y-12363714D01*
X13209286Y-12363714D02*
X13218809Y-12325619D01*
X13218809Y-12325619D02*
X13228333Y-12306571D01*
X13228333Y-12306571D02*
X13237857Y-12297048D01*
X13237857Y-12297048D02*
X13256905Y-12287524D01*
X13447381Y-12287524D02*
X13466429Y-12287524D01*
X13466429Y-12287524D02*
X13485476Y-12297048D01*
X13485476Y-12297048D02*
X13495000Y-12306571D01*
X13495000Y-12306571D02*
X13504524Y-12325619D01*
X13504524Y-12325619D02*
X13514048Y-12363714D01*
X13514048Y-12363714D02*
X13514048Y-12411333D01*
X13514048Y-12411333D02*
X13504524Y-12449428D01*
X13504524Y-12449428D02*
X13495000Y-12468476D01*
X13495000Y-12468476D02*
X13485476Y-12478000D01*
X13485476Y-12478000D02*
X13466429Y-12487524D01*
X13466429Y-12487524D02*
X13447381Y-12487524D01*
X13447381Y-12487524D02*
X13428333Y-12478000D01*
X13428333Y-12478000D02*
X13418809Y-12468476D01*
X13418809Y-12468476D02*
X13409286Y-12449428D01*
X13409286Y-12449428D02*
X13399762Y-12411333D01*
X13399762Y-12411333D02*
X13399762Y-12363714D01*
X13399762Y-12363714D02*
X13409286Y-12325619D01*
X13409286Y-12325619D02*
X13418809Y-12306571D01*
X13418809Y-12306571D02*
X13428333Y-12297048D01*
X13428333Y-12297048D02*
X13447381Y-12287524D01*
X13599762Y-12487524D02*
X13599762Y-12354190D01*
X13599762Y-12373238D02*
X13609286Y-12363714D01*
X13609286Y-12363714D02*
X13628333Y-12354190D01*
X13628333Y-12354190D02*
X13656905Y-12354190D01*
X13656905Y-12354190D02*
X13675952Y-12363714D01*
X13675952Y-12363714D02*
X13685476Y-12382762D01*
X13685476Y-12382762D02*
X13685476Y-12487524D01*
X13685476Y-12382762D02*
X13695000Y-12363714D01*
X13695000Y-12363714D02*
X13714048Y-12354190D01*
X13714048Y-12354190D02*
X13742619Y-12354190D01*
X13742619Y-12354190D02*
X13761667Y-12363714D01*
X13761667Y-12363714D02*
X13771190Y-12382762D01*
X13771190Y-12382762D02*
X13771190Y-12487524D01*
X13866429Y-12487524D02*
X13866429Y-12354190D01*
X13866429Y-12373238D02*
X13875952Y-12363714D01*
X13875952Y-12363714D02*
X13895000Y-12354190D01*
X13895000Y-12354190D02*
X13923571Y-12354190D01*
X13923571Y-12354190D02*
X13942619Y-12363714D01*
X13942619Y-12363714D02*
X13952143Y-12382762D01*
X13952143Y-12382762D02*
X13952143Y-12487524D01*
X13952143Y-12382762D02*
X13961667Y-12363714D01*
X13961667Y-12363714D02*
X13980714Y-12354190D01*
X13980714Y-12354190D02*
X14009286Y-12354190D01*
X14009286Y-12354190D02*
X14028333Y-12363714D01*
X14028333Y-12363714D02*
X14037857Y-12382762D01*
X14037857Y-12382762D02*
X14037857Y-12487524D01*
X14428333Y-12278000D02*
X14256905Y-12535143D01*
X14685476Y-12287524D02*
X14704524Y-12287524D01*
X14704524Y-12287524D02*
X14723572Y-12297048D01*
X14723572Y-12297048D02*
X14733095Y-12306571D01*
X14733095Y-12306571D02*
X14742619Y-12325619D01*
X14742619Y-12325619D02*
X14752143Y-12363714D01*
X14752143Y-12363714D02*
X14752143Y-12411333D01*
X14752143Y-12411333D02*
X14742619Y-12449428D01*
X14742619Y-12449428D02*
X14733095Y-12468476D01*
X14733095Y-12468476D02*
X14723572Y-12478000D01*
X14723572Y-12478000D02*
X14704524Y-12487524D01*
X14704524Y-12487524D02*
X14685476Y-12487524D01*
X14685476Y-12487524D02*
X14666429Y-12478000D01*
X14666429Y-12478000D02*
X14656905Y-12468476D01*
X14656905Y-12468476D02*
X14647381Y-12449428D01*
X14647381Y-12449428D02*
X14637857Y-12411333D01*
X14637857Y-12411333D02*
X14637857Y-12363714D01*
X14637857Y-12363714D02*
X14647381Y-12325619D01*
X14647381Y-12325619D02*
X14656905Y-12306571D01*
X14656905Y-12306571D02*
X14666429Y-12297048D01*
X14666429Y-12297048D02*
X14685476Y-12287524D01*
X14837857Y-12468476D02*
X14847381Y-12478000D01*
X14847381Y-12478000D02*
X14837857Y-12487524D01*
X14837857Y-12487524D02*
X14828333Y-12478000D01*
X14828333Y-12478000D02*
X14837857Y-12468476D01*
X14837857Y-12468476D02*
X14837857Y-12487524D01*
X14971191Y-12287524D02*
X14990238Y-12287524D01*
X14990238Y-12287524D02*
X15009286Y-12297048D01*
X15009286Y-12297048D02*
X15018810Y-12306571D01*
X15018810Y-12306571D02*
X15028333Y-12325619D01*
X15028333Y-12325619D02*
X15037857Y-12363714D01*
X15037857Y-12363714D02*
X15037857Y-12411333D01*
X15037857Y-12411333D02*
X15028333Y-12449428D01*
X15028333Y-12449428D02*
X15018810Y-12468476D01*
X15018810Y-12468476D02*
X15009286Y-12478000D01*
X15009286Y-12478000D02*
X14990238Y-12487524D01*
X14990238Y-12487524D02*
X14971191Y-12487524D01*
X14971191Y-12487524D02*
X14952143Y-12478000D01*
X14952143Y-12478000D02*
X14942619Y-12468476D01*
X14942619Y-12468476D02*
X14933095Y-12449428D01*
X14933095Y-12449428D02*
X14923572Y-12411333D01*
X14923572Y-12411333D02*
X14923572Y-12363714D01*
X14923572Y-12363714D02*
X14933095Y-12325619D01*
X14933095Y-12325619D02*
X14942619Y-12306571D01*
X14942619Y-12306571D02*
X14952143Y-12297048D01*
X14952143Y-12297048D02*
X14971191Y-12287524D01*
X15228333Y-12487524D02*
X15114048Y-12487524D01*
X15171191Y-12487524D02*
X15171191Y-12287524D01*
X15171191Y-12287524D02*
X15152143Y-12316095D01*
X15152143Y-12316095D02*
X15133095Y-12335143D01*
X15133095Y-12335143D02*
X15114048Y-12344667D01*
X15409286Y-12287524D02*
X15314048Y-12287524D01*
X15314048Y-12287524D02*
X15304524Y-12382762D01*
X15304524Y-12382762D02*
X15314048Y-12373238D01*
X15314048Y-12373238D02*
X15333095Y-12363714D01*
X15333095Y-12363714D02*
X15380714Y-12363714D01*
X15380714Y-12363714D02*
X15399762Y-12373238D01*
X15399762Y-12373238D02*
X15409286Y-12382762D01*
X15409286Y-12382762D02*
X15418810Y-12401809D01*
X15418810Y-12401809D02*
X15418810Y-12449428D01*
X15418810Y-12449428D02*
X15409286Y-12468476D01*
X15409286Y-12468476D02*
X15399762Y-12478000D01*
X15399762Y-12478000D02*
X15380714Y-12487524D01*
X15380714Y-12487524D02*
X15333095Y-12487524D01*
X15333095Y-12487524D02*
X15314048Y-12478000D01*
X15314048Y-12478000D02*
X15304524Y-12468476D01*
X15485476Y-12287524D02*
X15618810Y-12287524D01*
X15618810Y-12287524D02*
X15533095Y-12487524D01*
X15685476Y-12287524D02*
X15685476Y-12325619D01*
X15761667Y-12287524D02*
X15761667Y-12325619D01*
X16056905Y-12563714D02*
X16047381Y-12554190D01*
X16047381Y-12554190D02*
X16028334Y-12525619D01*
X16028334Y-12525619D02*
X16018810Y-12506571D01*
X16018810Y-12506571D02*
X16009286Y-12478000D01*
X16009286Y-12478000D02*
X15999762Y-12430381D01*
X15999762Y-12430381D02*
X15999762Y-12392286D01*
X15999762Y-12392286D02*
X16009286Y-12344667D01*
X16009286Y-12344667D02*
X16018810Y-12316095D01*
X16018810Y-12316095D02*
X16028334Y-12297048D01*
X16028334Y-12297048D02*
X16047381Y-12268476D01*
X16047381Y-12268476D02*
X16056905Y-12258952D01*
X16161667Y-12373238D02*
X16142619Y-12363714D01*
X16142619Y-12363714D02*
X16133095Y-12354190D01*
X16133095Y-12354190D02*
X16123572Y-12335143D01*
X16123572Y-12335143D02*
X16123572Y-12325619D01*
X16123572Y-12325619D02*
X16133095Y-12306571D01*
X16133095Y-12306571D02*
X16142619Y-12297048D01*
X16142619Y-12297048D02*
X16161667Y-12287524D01*
X16161667Y-12287524D02*
X16199762Y-12287524D01*
X16199762Y-12287524D02*
X16218810Y-12297048D01*
X16218810Y-12297048D02*
X16228334Y-12306571D01*
X16228334Y-12306571D02*
X16237857Y-12325619D01*
X16237857Y-12325619D02*
X16237857Y-12335143D01*
X16237857Y-12335143D02*
X16228334Y-12354190D01*
X16228334Y-12354190D02*
X16218810Y-12363714D01*
X16218810Y-12363714D02*
X16199762Y-12373238D01*
X16199762Y-12373238D02*
X16161667Y-12373238D01*
X16161667Y-12373238D02*
X16142619Y-12382762D01*
X16142619Y-12382762D02*
X16133095Y-12392286D01*
X16133095Y-12392286D02*
X16123572Y-12411333D01*
X16123572Y-12411333D02*
X16123572Y-12449428D01*
X16123572Y-12449428D02*
X16133095Y-12468476D01*
X16133095Y-12468476D02*
X16142619Y-12478000D01*
X16142619Y-12478000D02*
X16161667Y-12487524D01*
X16161667Y-12487524D02*
X16199762Y-12487524D01*
X16199762Y-12487524D02*
X16218810Y-12478000D01*
X16218810Y-12478000D02*
X16228334Y-12468476D01*
X16228334Y-12468476D02*
X16237857Y-12449428D01*
X16237857Y-12449428D02*
X16237857Y-12411333D01*
X16237857Y-12411333D02*
X16228334Y-12392286D01*
X16228334Y-12392286D02*
X16218810Y-12382762D01*
X16218810Y-12382762D02*
X16199762Y-12373238D01*
X16475953Y-12487524D02*
X16475953Y-12287524D01*
X16561667Y-12487524D02*
X16561667Y-12382762D01*
X16561667Y-12382762D02*
X16552143Y-12363714D01*
X16552143Y-12363714D02*
X16533096Y-12354190D01*
X16533096Y-12354190D02*
X16504524Y-12354190D01*
X16504524Y-12354190D02*
X16485476Y-12363714D01*
X16485476Y-12363714D02*
X16475953Y-12373238D01*
X16685476Y-12487524D02*
X16666429Y-12478000D01*
X16666429Y-12478000D02*
X16656905Y-12468476D01*
X16656905Y-12468476D02*
X16647381Y-12449428D01*
X16647381Y-12449428D02*
X16647381Y-12392286D01*
X16647381Y-12392286D02*
X16656905Y-12373238D01*
X16656905Y-12373238D02*
X16666429Y-12363714D01*
X16666429Y-12363714D02*
X16685476Y-12354190D01*
X16685476Y-12354190D02*
X16714048Y-12354190D01*
X16714048Y-12354190D02*
X16733096Y-12363714D01*
X16733096Y-12363714D02*
X16742619Y-12373238D01*
X16742619Y-12373238D02*
X16752143Y-12392286D01*
X16752143Y-12392286D02*
X16752143Y-12449428D01*
X16752143Y-12449428D02*
X16742619Y-12468476D01*
X16742619Y-12468476D02*
X16733096Y-12478000D01*
X16733096Y-12478000D02*
X16714048Y-12487524D01*
X16714048Y-12487524D02*
X16685476Y-12487524D01*
X16866429Y-12487524D02*
X16847381Y-12478000D01*
X16847381Y-12478000D02*
X16837858Y-12458952D01*
X16837858Y-12458952D02*
X16837858Y-12287524D01*
X17018810Y-12478000D02*
X16999762Y-12487524D01*
X16999762Y-12487524D02*
X16961667Y-12487524D01*
X16961667Y-12487524D02*
X16942619Y-12478000D01*
X16942619Y-12478000D02*
X16933096Y-12458952D01*
X16933096Y-12458952D02*
X16933096Y-12382762D01*
X16933096Y-12382762D02*
X16942619Y-12363714D01*
X16942619Y-12363714D02*
X16961667Y-12354190D01*
X16961667Y-12354190D02*
X16999762Y-12354190D01*
X16999762Y-12354190D02*
X17018810Y-12363714D01*
X17018810Y-12363714D02*
X17028334Y-12382762D01*
X17028334Y-12382762D02*
X17028334Y-12401809D01*
X17028334Y-12401809D02*
X16933096Y-12420857D01*
X17104524Y-12478000D02*
X17123572Y-12487524D01*
X17123572Y-12487524D02*
X17161667Y-12487524D01*
X17161667Y-12487524D02*
X17180715Y-12478000D01*
X17180715Y-12478000D02*
X17190239Y-12458952D01*
X17190239Y-12458952D02*
X17190239Y-12449428D01*
X17190239Y-12449428D02*
X17180715Y-12430381D01*
X17180715Y-12430381D02*
X17161667Y-12420857D01*
X17161667Y-12420857D02*
X17133096Y-12420857D01*
X17133096Y-12420857D02*
X17114048Y-12411333D01*
X17114048Y-12411333D02*
X17104524Y-12392286D01*
X17104524Y-12392286D02*
X17104524Y-12382762D01*
X17104524Y-12382762D02*
X17114048Y-12363714D01*
X17114048Y-12363714D02*
X17133096Y-12354190D01*
X17133096Y-12354190D02*
X17161667Y-12354190D01*
X17161667Y-12354190D02*
X17180715Y-12363714D01*
X17256905Y-12563714D02*
X17266429Y-12554190D01*
X17266429Y-12554190D02*
X17285477Y-12525619D01*
X17285477Y-12525619D02*
X17295000Y-12506571D01*
X17295000Y-12506571D02*
X17304524Y-12478000D01*
X17304524Y-12478000D02*
X17314048Y-12430381D01*
X17314048Y-12430381D02*
X17314048Y-12392286D01*
X17314048Y-12392286D02*
X17304524Y-12344667D01*
X17304524Y-12344667D02*
X17295000Y-12316095D01*
X17295000Y-12316095D02*
X17285477Y-12297048D01*
X17285477Y-12297048D02*
X17266429Y-12268476D01*
X17266429Y-12268476D02*
X17256905Y-12258952D01*
D13*
X12495000Y-12659000D02*
G75*
G03*
X12495000Y-12659000I-35000J0D01*
G01*
D11*
X12780714Y-12551524D02*
X12799762Y-12551524D01*
X12799762Y-12551524D02*
X12818809Y-12561048D01*
X12818809Y-12561048D02*
X12828333Y-12570571D01*
X12828333Y-12570571D02*
X12837857Y-12589619D01*
X12837857Y-12589619D02*
X12847381Y-12627714D01*
X12847381Y-12627714D02*
X12847381Y-12675333D01*
X12847381Y-12675333D02*
X12837857Y-12713428D01*
X12837857Y-12713428D02*
X12828333Y-12732476D01*
X12828333Y-12732476D02*
X12818809Y-12742000D01*
X12818809Y-12742000D02*
X12799762Y-12751524D01*
X12799762Y-12751524D02*
X12780714Y-12751524D01*
X12780714Y-12751524D02*
X12761667Y-12742000D01*
X12761667Y-12742000D02*
X12752143Y-12732476D01*
X12752143Y-12732476D02*
X12742619Y-12713428D01*
X12742619Y-12713428D02*
X12733095Y-12675333D01*
X12733095Y-12675333D02*
X12733095Y-12627714D01*
X12733095Y-12627714D02*
X12742619Y-12589619D01*
X12742619Y-12589619D02*
X12752143Y-12570571D01*
X12752143Y-12570571D02*
X12761667Y-12561048D01*
X12761667Y-12561048D02*
X12780714Y-12551524D01*
X12933095Y-12732476D02*
X12942619Y-12742000D01*
X12942619Y-12742000D02*
X12933095Y-12751524D01*
X12933095Y-12751524D02*
X12923571Y-12742000D01*
X12923571Y-12742000D02*
X12933095Y-12732476D01*
X12933095Y-12732476D02*
X12933095Y-12751524D01*
X13009286Y-12551524D02*
X13142619Y-12551524D01*
X13142619Y-12551524D02*
X13056905Y-12751524D01*
X13256905Y-12551524D02*
X13275952Y-12551524D01*
X13275952Y-12551524D02*
X13295000Y-12561048D01*
X13295000Y-12561048D02*
X13304524Y-12570571D01*
X13304524Y-12570571D02*
X13314048Y-12589619D01*
X13314048Y-12589619D02*
X13323571Y-12627714D01*
X13323571Y-12627714D02*
X13323571Y-12675333D01*
X13323571Y-12675333D02*
X13314048Y-12713428D01*
X13314048Y-12713428D02*
X13304524Y-12732476D01*
X13304524Y-12732476D02*
X13295000Y-12742000D01*
X13295000Y-12742000D02*
X13275952Y-12751524D01*
X13275952Y-12751524D02*
X13256905Y-12751524D01*
X13256905Y-12751524D02*
X13237857Y-12742000D01*
X13237857Y-12742000D02*
X13228333Y-12732476D01*
X13228333Y-12732476D02*
X13218809Y-12713428D01*
X13218809Y-12713428D02*
X13209286Y-12675333D01*
X13209286Y-12675333D02*
X13209286Y-12627714D01*
X13209286Y-12627714D02*
X13218809Y-12589619D01*
X13218809Y-12589619D02*
X13228333Y-12570571D01*
X13228333Y-12570571D02*
X13237857Y-12561048D01*
X13237857Y-12561048D02*
X13256905Y-12551524D01*
X13447381Y-12551524D02*
X13466429Y-12551524D01*
X13466429Y-12551524D02*
X13485476Y-12561048D01*
X13485476Y-12561048D02*
X13495000Y-12570571D01*
X13495000Y-12570571D02*
X13504524Y-12589619D01*
X13504524Y-12589619D02*
X13514048Y-12627714D01*
X13514048Y-12627714D02*
X13514048Y-12675333D01*
X13514048Y-12675333D02*
X13504524Y-12713428D01*
X13504524Y-12713428D02*
X13495000Y-12732476D01*
X13495000Y-12732476D02*
X13485476Y-12742000D01*
X13485476Y-12742000D02*
X13466429Y-12751524D01*
X13466429Y-12751524D02*
X13447381Y-12751524D01*
X13447381Y-12751524D02*
X13428333Y-12742000D01*
X13428333Y-12742000D02*
X13418809Y-12732476D01*
X13418809Y-12732476D02*
X13409286Y-12713428D01*
X13409286Y-12713428D02*
X13399762Y-12675333D01*
X13399762Y-12675333D02*
X13399762Y-12627714D01*
X13399762Y-12627714D02*
X13409286Y-12589619D01*
X13409286Y-12589619D02*
X13418809Y-12570571D01*
X13418809Y-12570571D02*
X13428333Y-12561048D01*
X13428333Y-12561048D02*
X13447381Y-12551524D01*
X13599762Y-12751524D02*
X13599762Y-12618190D01*
X13599762Y-12637238D02*
X13609286Y-12627714D01*
X13609286Y-12627714D02*
X13628333Y-12618190D01*
X13628333Y-12618190D02*
X13656905Y-12618190D01*
X13656905Y-12618190D02*
X13675952Y-12627714D01*
X13675952Y-12627714D02*
X13685476Y-12646762D01*
X13685476Y-12646762D02*
X13685476Y-12751524D01*
X13685476Y-12646762D02*
X13695000Y-12627714D01*
X13695000Y-12627714D02*
X13714048Y-12618190D01*
X13714048Y-12618190D02*
X13742619Y-12618190D01*
X13742619Y-12618190D02*
X13761667Y-12627714D01*
X13761667Y-12627714D02*
X13771190Y-12646762D01*
X13771190Y-12646762D02*
X13771190Y-12751524D01*
X13866429Y-12751524D02*
X13866429Y-12618190D01*
X13866429Y-12637238D02*
X13875952Y-12627714D01*
X13875952Y-12627714D02*
X13895000Y-12618190D01*
X13895000Y-12618190D02*
X13923571Y-12618190D01*
X13923571Y-12618190D02*
X13942619Y-12627714D01*
X13942619Y-12627714D02*
X13952143Y-12646762D01*
X13952143Y-12646762D02*
X13952143Y-12751524D01*
X13952143Y-12646762D02*
X13961667Y-12627714D01*
X13961667Y-12627714D02*
X13980714Y-12618190D01*
X13980714Y-12618190D02*
X14009286Y-12618190D01*
X14009286Y-12618190D02*
X14028333Y-12627714D01*
X14028333Y-12627714D02*
X14037857Y-12646762D01*
X14037857Y-12646762D02*
X14037857Y-12751524D01*
X14428333Y-12542000D02*
X14256905Y-12799143D01*
X14685476Y-12551524D02*
X14704524Y-12551524D01*
X14704524Y-12551524D02*
X14723572Y-12561048D01*
X14723572Y-12561048D02*
X14733095Y-12570571D01*
X14733095Y-12570571D02*
X14742619Y-12589619D01*
X14742619Y-12589619D02*
X14752143Y-12627714D01*
X14752143Y-12627714D02*
X14752143Y-12675333D01*
X14752143Y-12675333D02*
X14742619Y-12713428D01*
X14742619Y-12713428D02*
X14733095Y-12732476D01*
X14733095Y-12732476D02*
X14723572Y-12742000D01*
X14723572Y-12742000D02*
X14704524Y-12751524D01*
X14704524Y-12751524D02*
X14685476Y-12751524D01*
X14685476Y-12751524D02*
X14666429Y-12742000D01*
X14666429Y-12742000D02*
X14656905Y-12732476D01*
X14656905Y-12732476D02*
X14647381Y-12713428D01*
X14647381Y-12713428D02*
X14637857Y-12675333D01*
X14637857Y-12675333D02*
X14637857Y-12627714D01*
X14637857Y-12627714D02*
X14647381Y-12589619D01*
X14647381Y-12589619D02*
X14656905Y-12570571D01*
X14656905Y-12570571D02*
X14666429Y-12561048D01*
X14666429Y-12561048D02*
X14685476Y-12551524D01*
X14837857Y-12732476D02*
X14847381Y-12742000D01*
X14847381Y-12742000D02*
X14837857Y-12751524D01*
X14837857Y-12751524D02*
X14828333Y-12742000D01*
X14828333Y-12742000D02*
X14837857Y-12732476D01*
X14837857Y-12732476D02*
X14837857Y-12751524D01*
X14971191Y-12551524D02*
X14990238Y-12551524D01*
X14990238Y-12551524D02*
X15009286Y-12561048D01*
X15009286Y-12561048D02*
X15018810Y-12570571D01*
X15018810Y-12570571D02*
X15028333Y-12589619D01*
X15028333Y-12589619D02*
X15037857Y-12627714D01*
X15037857Y-12627714D02*
X15037857Y-12675333D01*
X15037857Y-12675333D02*
X15028333Y-12713428D01*
X15028333Y-12713428D02*
X15018810Y-12732476D01*
X15018810Y-12732476D02*
X15009286Y-12742000D01*
X15009286Y-12742000D02*
X14990238Y-12751524D01*
X14990238Y-12751524D02*
X14971191Y-12751524D01*
X14971191Y-12751524D02*
X14952143Y-12742000D01*
X14952143Y-12742000D02*
X14942619Y-12732476D01*
X14942619Y-12732476D02*
X14933095Y-12713428D01*
X14933095Y-12713428D02*
X14923572Y-12675333D01*
X14923572Y-12675333D02*
X14923572Y-12627714D01*
X14923572Y-12627714D02*
X14933095Y-12589619D01*
X14933095Y-12589619D02*
X14942619Y-12570571D01*
X14942619Y-12570571D02*
X14952143Y-12561048D01*
X14952143Y-12561048D02*
X14971191Y-12551524D01*
X15114048Y-12570571D02*
X15123572Y-12561048D01*
X15123572Y-12561048D02*
X15142619Y-12551524D01*
X15142619Y-12551524D02*
X15190238Y-12551524D01*
X15190238Y-12551524D02*
X15209286Y-12561048D01*
X15209286Y-12561048D02*
X15218810Y-12570571D01*
X15218810Y-12570571D02*
X15228333Y-12589619D01*
X15228333Y-12589619D02*
X15228333Y-12608667D01*
X15228333Y-12608667D02*
X15218810Y-12637238D01*
X15218810Y-12637238D02*
X15104524Y-12751524D01*
X15104524Y-12751524D02*
X15228333Y-12751524D01*
X15295000Y-12551524D02*
X15428333Y-12551524D01*
X15428333Y-12551524D02*
X15342619Y-12751524D01*
X15590238Y-12551524D02*
X15552143Y-12551524D01*
X15552143Y-12551524D02*
X15533095Y-12561048D01*
X15533095Y-12561048D02*
X15523572Y-12570571D01*
X15523572Y-12570571D02*
X15504524Y-12599143D01*
X15504524Y-12599143D02*
X15495000Y-12637238D01*
X15495000Y-12637238D02*
X15495000Y-12713428D01*
X15495000Y-12713428D02*
X15504524Y-12732476D01*
X15504524Y-12732476D02*
X15514048Y-12742000D01*
X15514048Y-12742000D02*
X15533095Y-12751524D01*
X15533095Y-12751524D02*
X15571191Y-12751524D01*
X15571191Y-12751524D02*
X15590238Y-12742000D01*
X15590238Y-12742000D02*
X15599762Y-12732476D01*
X15599762Y-12732476D02*
X15609286Y-12713428D01*
X15609286Y-12713428D02*
X15609286Y-12665809D01*
X15609286Y-12665809D02*
X15599762Y-12646762D01*
X15599762Y-12646762D02*
X15590238Y-12637238D01*
X15590238Y-12637238D02*
X15571191Y-12627714D01*
X15571191Y-12627714D02*
X15533095Y-12627714D01*
X15533095Y-12627714D02*
X15514048Y-12637238D01*
X15514048Y-12637238D02*
X15504524Y-12646762D01*
X15504524Y-12646762D02*
X15495000Y-12665809D01*
X15685476Y-12551524D02*
X15685476Y-12589619D01*
X15761667Y-12551524D02*
X15761667Y-12589619D01*
X16056905Y-12827714D02*
X16047381Y-12818190D01*
X16047381Y-12818190D02*
X16028334Y-12789619D01*
X16028334Y-12789619D02*
X16018810Y-12770571D01*
X16018810Y-12770571D02*
X16009286Y-12742000D01*
X16009286Y-12742000D02*
X15999762Y-12694381D01*
X15999762Y-12694381D02*
X15999762Y-12656286D01*
X15999762Y-12656286D02*
X16009286Y-12608667D01*
X16009286Y-12608667D02*
X16018810Y-12580095D01*
X16018810Y-12580095D02*
X16028334Y-12561048D01*
X16028334Y-12561048D02*
X16047381Y-12532476D01*
X16047381Y-12532476D02*
X16056905Y-12522952D01*
X16228334Y-12551524D02*
X16133095Y-12551524D01*
X16133095Y-12551524D02*
X16123572Y-12646762D01*
X16123572Y-12646762D02*
X16133095Y-12637238D01*
X16133095Y-12637238D02*
X16152143Y-12627714D01*
X16152143Y-12627714D02*
X16199762Y-12627714D01*
X16199762Y-12627714D02*
X16218810Y-12637238D01*
X16218810Y-12637238D02*
X16228334Y-12646762D01*
X16228334Y-12646762D02*
X16237857Y-12665809D01*
X16237857Y-12665809D02*
X16237857Y-12713428D01*
X16237857Y-12713428D02*
X16228334Y-12732476D01*
X16228334Y-12732476D02*
X16218810Y-12742000D01*
X16218810Y-12742000D02*
X16199762Y-12751524D01*
X16199762Y-12751524D02*
X16152143Y-12751524D01*
X16152143Y-12751524D02*
X16133095Y-12742000D01*
X16133095Y-12742000D02*
X16123572Y-12732476D01*
X16475953Y-12751524D02*
X16475953Y-12551524D01*
X16561667Y-12751524D02*
X16561667Y-12646762D01*
X16561667Y-12646762D02*
X16552143Y-12627714D01*
X16552143Y-12627714D02*
X16533096Y-12618190D01*
X16533096Y-12618190D02*
X16504524Y-12618190D01*
X16504524Y-12618190D02*
X16485476Y-12627714D01*
X16485476Y-12627714D02*
X16475953Y-12637238D01*
X16685476Y-12751524D02*
X16666429Y-12742000D01*
X16666429Y-12742000D02*
X16656905Y-12732476D01*
X16656905Y-12732476D02*
X16647381Y-12713428D01*
X16647381Y-12713428D02*
X16647381Y-12656286D01*
X16647381Y-12656286D02*
X16656905Y-12637238D01*
X16656905Y-12637238D02*
X16666429Y-12627714D01*
X16666429Y-12627714D02*
X16685476Y-12618190D01*
X16685476Y-12618190D02*
X16714048Y-12618190D01*
X16714048Y-12618190D02*
X16733096Y-12627714D01*
X16733096Y-12627714D02*
X16742619Y-12637238D01*
X16742619Y-12637238D02*
X16752143Y-12656286D01*
X16752143Y-12656286D02*
X16752143Y-12713428D01*
X16752143Y-12713428D02*
X16742619Y-12732476D01*
X16742619Y-12732476D02*
X16733096Y-12742000D01*
X16733096Y-12742000D02*
X16714048Y-12751524D01*
X16714048Y-12751524D02*
X16685476Y-12751524D01*
X16866429Y-12751524D02*
X16847381Y-12742000D01*
X16847381Y-12742000D02*
X16837858Y-12722952D01*
X16837858Y-12722952D02*
X16837858Y-12551524D01*
X17018810Y-12742000D02*
X16999762Y-12751524D01*
X16999762Y-12751524D02*
X16961667Y-12751524D01*
X16961667Y-12751524D02*
X16942619Y-12742000D01*
X16942619Y-12742000D02*
X16933096Y-12722952D01*
X16933096Y-12722952D02*
X16933096Y-12646762D01*
X16933096Y-12646762D02*
X16942619Y-12627714D01*
X16942619Y-12627714D02*
X16961667Y-12618190D01*
X16961667Y-12618190D02*
X16999762Y-12618190D01*
X16999762Y-12618190D02*
X17018810Y-12627714D01*
X17018810Y-12627714D02*
X17028334Y-12646762D01*
X17028334Y-12646762D02*
X17028334Y-12665809D01*
X17028334Y-12665809D02*
X16933096Y-12684857D01*
X17104524Y-12742000D02*
X17123572Y-12751524D01*
X17123572Y-12751524D02*
X17161667Y-12751524D01*
X17161667Y-12751524D02*
X17180715Y-12742000D01*
X17180715Y-12742000D02*
X17190239Y-12722952D01*
X17190239Y-12722952D02*
X17190239Y-12713428D01*
X17190239Y-12713428D02*
X17180715Y-12694381D01*
X17180715Y-12694381D02*
X17161667Y-12684857D01*
X17161667Y-12684857D02*
X17133096Y-12684857D01*
X17133096Y-12684857D02*
X17114048Y-12675333D01*
X17114048Y-12675333D02*
X17104524Y-12656286D01*
X17104524Y-12656286D02*
X17104524Y-12646762D01*
X17104524Y-12646762D02*
X17114048Y-12627714D01*
X17114048Y-12627714D02*
X17133096Y-12618190D01*
X17133096Y-12618190D02*
X17161667Y-12618190D01*
X17161667Y-12618190D02*
X17180715Y-12627714D01*
X17256905Y-12827714D02*
X17266429Y-12818190D01*
X17266429Y-12818190D02*
X17285477Y-12789619D01*
X17285477Y-12789619D02*
X17295000Y-12770571D01*
X17295000Y-12770571D02*
X17304524Y-12742000D01*
X17304524Y-12742000D02*
X17314048Y-12694381D01*
X17314048Y-12694381D02*
X17314048Y-12656286D01*
X17314048Y-12656286D02*
X17304524Y-12608667D01*
X17304524Y-12608667D02*
X17295000Y-12580095D01*
X17295000Y-12580095D02*
X17285477Y-12561048D01*
X17285477Y-12561048D02*
X17266429Y-12532476D01*
X17266429Y-12532476D02*
X17256905Y-12522952D01*
D14*
X12455000Y-12883000D02*
X12455000Y-12963000D01*
X12415000Y-12923000D02*
X12495000Y-12923000D01*
D11*
X12780714Y-12815524D02*
X12799762Y-12815524D01*
X12799762Y-12815524D02*
X12818809Y-12825048D01*
X12818809Y-12825048D02*
X12828333Y-12834571D01*
X12828333Y-12834571D02*
X12837857Y-12853619D01*
X12837857Y-12853619D02*
X12847381Y-12891714D01*
X12847381Y-12891714D02*
X12847381Y-12939333D01*
X12847381Y-12939333D02*
X12837857Y-12977428D01*
X12837857Y-12977428D02*
X12828333Y-12996476D01*
X12828333Y-12996476D02*
X12818809Y-13006000D01*
X12818809Y-13006000D02*
X12799762Y-13015524D01*
X12799762Y-13015524D02*
X12780714Y-13015524D01*
X12780714Y-13015524D02*
X12761667Y-13006000D01*
X12761667Y-13006000D02*
X12752143Y-12996476D01*
X12752143Y-12996476D02*
X12742619Y-12977428D01*
X12742619Y-12977428D02*
X12733095Y-12939333D01*
X12733095Y-12939333D02*
X12733095Y-12891714D01*
X12733095Y-12891714D02*
X12742619Y-12853619D01*
X12742619Y-12853619D02*
X12752143Y-12834571D01*
X12752143Y-12834571D02*
X12761667Y-12825048D01*
X12761667Y-12825048D02*
X12780714Y-12815524D01*
X12933095Y-12996476D02*
X12942619Y-13006000D01*
X12942619Y-13006000D02*
X12933095Y-13015524D01*
X12933095Y-13015524D02*
X12923571Y-13006000D01*
X12923571Y-13006000D02*
X12933095Y-12996476D01*
X12933095Y-12996476D02*
X12933095Y-13015524D01*
X13056905Y-12901238D02*
X13037857Y-12891714D01*
X13037857Y-12891714D02*
X13028333Y-12882190D01*
X13028333Y-12882190D02*
X13018809Y-12863143D01*
X13018809Y-12863143D02*
X13018809Y-12853619D01*
X13018809Y-12853619D02*
X13028333Y-12834571D01*
X13028333Y-12834571D02*
X13037857Y-12825048D01*
X13037857Y-12825048D02*
X13056905Y-12815524D01*
X13056905Y-12815524D02*
X13095000Y-12815524D01*
X13095000Y-12815524D02*
X13114048Y-12825048D01*
X13114048Y-12825048D02*
X13123571Y-12834571D01*
X13123571Y-12834571D02*
X13133095Y-12853619D01*
X13133095Y-12853619D02*
X13133095Y-12863143D01*
X13133095Y-12863143D02*
X13123571Y-12882190D01*
X13123571Y-12882190D02*
X13114048Y-12891714D01*
X13114048Y-12891714D02*
X13095000Y-12901238D01*
X13095000Y-12901238D02*
X13056905Y-12901238D01*
X13056905Y-12901238D02*
X13037857Y-12910762D01*
X13037857Y-12910762D02*
X13028333Y-12920286D01*
X13028333Y-12920286D02*
X13018809Y-12939333D01*
X13018809Y-12939333D02*
X13018809Y-12977428D01*
X13018809Y-12977428D02*
X13028333Y-12996476D01*
X13028333Y-12996476D02*
X13037857Y-13006000D01*
X13037857Y-13006000D02*
X13056905Y-13015524D01*
X13056905Y-13015524D02*
X13095000Y-13015524D01*
X13095000Y-13015524D02*
X13114048Y-13006000D01*
X13114048Y-13006000D02*
X13123571Y-12996476D01*
X13123571Y-12996476D02*
X13133095Y-12977428D01*
X13133095Y-12977428D02*
X13133095Y-12939333D01*
X13133095Y-12939333D02*
X13123571Y-12920286D01*
X13123571Y-12920286D02*
X13114048Y-12910762D01*
X13114048Y-12910762D02*
X13095000Y-12901238D01*
X13256905Y-12815524D02*
X13275952Y-12815524D01*
X13275952Y-12815524D02*
X13295000Y-12825048D01*
X13295000Y-12825048D02*
X13304524Y-12834571D01*
X13304524Y-12834571D02*
X13314048Y-12853619D01*
X13314048Y-12853619D02*
X13323571Y-12891714D01*
X13323571Y-12891714D02*
X13323571Y-12939333D01*
X13323571Y-12939333D02*
X13314048Y-12977428D01*
X13314048Y-12977428D02*
X13304524Y-12996476D01*
X13304524Y-12996476D02*
X13295000Y-13006000D01*
X13295000Y-13006000D02*
X13275952Y-13015524D01*
X13275952Y-13015524D02*
X13256905Y-13015524D01*
X13256905Y-13015524D02*
X13237857Y-13006000D01*
X13237857Y-13006000D02*
X13228333Y-12996476D01*
X13228333Y-12996476D02*
X13218809Y-12977428D01*
X13218809Y-12977428D02*
X13209286Y-12939333D01*
X13209286Y-12939333D02*
X13209286Y-12891714D01*
X13209286Y-12891714D02*
X13218809Y-12853619D01*
X13218809Y-12853619D02*
X13228333Y-12834571D01*
X13228333Y-12834571D02*
X13237857Y-12825048D01*
X13237857Y-12825048D02*
X13256905Y-12815524D01*
X13447381Y-12815524D02*
X13466429Y-12815524D01*
X13466429Y-12815524D02*
X13485476Y-12825048D01*
X13485476Y-12825048D02*
X13495000Y-12834571D01*
X13495000Y-12834571D02*
X13504524Y-12853619D01*
X13504524Y-12853619D02*
X13514048Y-12891714D01*
X13514048Y-12891714D02*
X13514048Y-12939333D01*
X13514048Y-12939333D02*
X13504524Y-12977428D01*
X13504524Y-12977428D02*
X13495000Y-12996476D01*
X13495000Y-12996476D02*
X13485476Y-13006000D01*
X13485476Y-13006000D02*
X13466429Y-13015524D01*
X13466429Y-13015524D02*
X13447381Y-13015524D01*
X13447381Y-13015524D02*
X13428333Y-13006000D01*
X13428333Y-13006000D02*
X13418809Y-12996476D01*
X13418809Y-12996476D02*
X13409286Y-12977428D01*
X13409286Y-12977428D02*
X13399762Y-12939333D01*
X13399762Y-12939333D02*
X13399762Y-12891714D01*
X13399762Y-12891714D02*
X13409286Y-12853619D01*
X13409286Y-12853619D02*
X13418809Y-12834571D01*
X13418809Y-12834571D02*
X13428333Y-12825048D01*
X13428333Y-12825048D02*
X13447381Y-12815524D01*
X13599762Y-13015524D02*
X13599762Y-12882190D01*
X13599762Y-12901238D02*
X13609286Y-12891714D01*
X13609286Y-12891714D02*
X13628333Y-12882190D01*
X13628333Y-12882190D02*
X13656905Y-12882190D01*
X13656905Y-12882190D02*
X13675952Y-12891714D01*
X13675952Y-12891714D02*
X13685476Y-12910762D01*
X13685476Y-12910762D02*
X13685476Y-13015524D01*
X13685476Y-12910762D02*
X13695000Y-12891714D01*
X13695000Y-12891714D02*
X13714048Y-12882190D01*
X13714048Y-12882190D02*
X13742619Y-12882190D01*
X13742619Y-12882190D02*
X13761667Y-12891714D01*
X13761667Y-12891714D02*
X13771190Y-12910762D01*
X13771190Y-12910762D02*
X13771190Y-13015524D01*
X13866429Y-13015524D02*
X13866429Y-12882190D01*
X13866429Y-12901238D02*
X13875952Y-12891714D01*
X13875952Y-12891714D02*
X13895000Y-12882190D01*
X13895000Y-12882190D02*
X13923571Y-12882190D01*
X13923571Y-12882190D02*
X13942619Y-12891714D01*
X13942619Y-12891714D02*
X13952143Y-12910762D01*
X13952143Y-12910762D02*
X13952143Y-13015524D01*
X13952143Y-12910762D02*
X13961667Y-12891714D01*
X13961667Y-12891714D02*
X13980714Y-12882190D01*
X13980714Y-12882190D02*
X14009286Y-12882190D01*
X14009286Y-12882190D02*
X14028333Y-12891714D01*
X14028333Y-12891714D02*
X14037857Y-12910762D01*
X14037857Y-12910762D02*
X14037857Y-13015524D01*
X14428333Y-12806000D02*
X14256905Y-13063143D01*
X14685476Y-12815524D02*
X14704524Y-12815524D01*
X14704524Y-12815524D02*
X14723572Y-12825048D01*
X14723572Y-12825048D02*
X14733095Y-12834571D01*
X14733095Y-12834571D02*
X14742619Y-12853619D01*
X14742619Y-12853619D02*
X14752143Y-12891714D01*
X14752143Y-12891714D02*
X14752143Y-12939333D01*
X14752143Y-12939333D02*
X14742619Y-12977428D01*
X14742619Y-12977428D02*
X14733095Y-12996476D01*
X14733095Y-12996476D02*
X14723572Y-13006000D01*
X14723572Y-13006000D02*
X14704524Y-13015524D01*
X14704524Y-13015524D02*
X14685476Y-13015524D01*
X14685476Y-13015524D02*
X14666429Y-13006000D01*
X14666429Y-13006000D02*
X14656905Y-12996476D01*
X14656905Y-12996476D02*
X14647381Y-12977428D01*
X14647381Y-12977428D02*
X14637857Y-12939333D01*
X14637857Y-12939333D02*
X14637857Y-12891714D01*
X14637857Y-12891714D02*
X14647381Y-12853619D01*
X14647381Y-12853619D02*
X14656905Y-12834571D01*
X14656905Y-12834571D02*
X14666429Y-12825048D01*
X14666429Y-12825048D02*
X14685476Y-12815524D01*
X14837857Y-12996476D02*
X14847381Y-13006000D01*
X14847381Y-13006000D02*
X14837857Y-13015524D01*
X14837857Y-13015524D02*
X14828333Y-13006000D01*
X14828333Y-13006000D02*
X14837857Y-12996476D01*
X14837857Y-12996476D02*
X14837857Y-13015524D01*
X14971191Y-12815524D02*
X14990238Y-12815524D01*
X14990238Y-12815524D02*
X15009286Y-12825048D01*
X15009286Y-12825048D02*
X15018810Y-12834571D01*
X15018810Y-12834571D02*
X15028333Y-12853619D01*
X15028333Y-12853619D02*
X15037857Y-12891714D01*
X15037857Y-12891714D02*
X15037857Y-12939333D01*
X15037857Y-12939333D02*
X15028333Y-12977428D01*
X15028333Y-12977428D02*
X15018810Y-12996476D01*
X15018810Y-12996476D02*
X15009286Y-13006000D01*
X15009286Y-13006000D02*
X14990238Y-13015524D01*
X14990238Y-13015524D02*
X14971191Y-13015524D01*
X14971191Y-13015524D02*
X14952143Y-13006000D01*
X14952143Y-13006000D02*
X14942619Y-12996476D01*
X14942619Y-12996476D02*
X14933095Y-12977428D01*
X14933095Y-12977428D02*
X14923572Y-12939333D01*
X14923572Y-12939333D02*
X14923572Y-12891714D01*
X14923572Y-12891714D02*
X14933095Y-12853619D01*
X14933095Y-12853619D02*
X14942619Y-12834571D01*
X14942619Y-12834571D02*
X14952143Y-12825048D01*
X14952143Y-12825048D02*
X14971191Y-12815524D01*
X15104524Y-12815524D02*
X15228333Y-12815524D01*
X15228333Y-12815524D02*
X15161667Y-12891714D01*
X15161667Y-12891714D02*
X15190238Y-12891714D01*
X15190238Y-12891714D02*
X15209286Y-12901238D01*
X15209286Y-12901238D02*
X15218810Y-12910762D01*
X15218810Y-12910762D02*
X15228333Y-12929809D01*
X15228333Y-12929809D02*
X15228333Y-12977428D01*
X15228333Y-12977428D02*
X15218810Y-12996476D01*
X15218810Y-12996476D02*
X15209286Y-13006000D01*
X15209286Y-13006000D02*
X15190238Y-13015524D01*
X15190238Y-13015524D02*
X15133095Y-13015524D01*
X15133095Y-13015524D02*
X15114048Y-13006000D01*
X15114048Y-13006000D02*
X15104524Y-12996476D01*
X15418810Y-13015524D02*
X15304524Y-13015524D01*
X15361667Y-13015524D02*
X15361667Y-12815524D01*
X15361667Y-12815524D02*
X15342619Y-12844095D01*
X15342619Y-12844095D02*
X15323572Y-12863143D01*
X15323572Y-12863143D02*
X15304524Y-12872667D01*
X15599762Y-12815524D02*
X15504524Y-12815524D01*
X15504524Y-12815524D02*
X15495000Y-12910762D01*
X15495000Y-12910762D02*
X15504524Y-12901238D01*
X15504524Y-12901238D02*
X15523572Y-12891714D01*
X15523572Y-12891714D02*
X15571191Y-12891714D01*
X15571191Y-12891714D02*
X15590238Y-12901238D01*
X15590238Y-12901238D02*
X15599762Y-12910762D01*
X15599762Y-12910762D02*
X15609286Y-12929809D01*
X15609286Y-12929809D02*
X15609286Y-12977428D01*
X15609286Y-12977428D02*
X15599762Y-12996476D01*
X15599762Y-12996476D02*
X15590238Y-13006000D01*
X15590238Y-13006000D02*
X15571191Y-13015524D01*
X15571191Y-13015524D02*
X15523572Y-13015524D01*
X15523572Y-13015524D02*
X15504524Y-13006000D01*
X15504524Y-13006000D02*
X15495000Y-12996476D01*
X15685476Y-12815524D02*
X15685476Y-12853619D01*
X15761667Y-12815524D02*
X15761667Y-12853619D01*
X16056905Y-13091714D02*
X16047381Y-13082190D01*
X16047381Y-13082190D02*
X16028334Y-13053619D01*
X16028334Y-13053619D02*
X16018810Y-13034571D01*
X16018810Y-13034571D02*
X16009286Y-13006000D01*
X16009286Y-13006000D02*
X15999762Y-12958381D01*
X15999762Y-12958381D02*
X15999762Y-12920286D01*
X15999762Y-12920286D02*
X16009286Y-12872667D01*
X16009286Y-12872667D02*
X16018810Y-12844095D01*
X16018810Y-12844095D02*
X16028334Y-12825048D01*
X16028334Y-12825048D02*
X16047381Y-12796476D01*
X16047381Y-12796476D02*
X16056905Y-12786952D01*
X16228334Y-12815524D02*
X16133095Y-12815524D01*
X16133095Y-12815524D02*
X16123572Y-12910762D01*
X16123572Y-12910762D02*
X16133095Y-12901238D01*
X16133095Y-12901238D02*
X16152143Y-12891714D01*
X16152143Y-12891714D02*
X16199762Y-12891714D01*
X16199762Y-12891714D02*
X16218810Y-12901238D01*
X16218810Y-12901238D02*
X16228334Y-12910762D01*
X16228334Y-12910762D02*
X16237857Y-12929809D01*
X16237857Y-12929809D02*
X16237857Y-12977428D01*
X16237857Y-12977428D02*
X16228334Y-12996476D01*
X16228334Y-12996476D02*
X16218810Y-13006000D01*
X16218810Y-13006000D02*
X16199762Y-13015524D01*
X16199762Y-13015524D02*
X16152143Y-13015524D01*
X16152143Y-13015524D02*
X16133095Y-13006000D01*
X16133095Y-13006000D02*
X16123572Y-12996476D01*
X16304524Y-12815524D02*
X16428334Y-12815524D01*
X16428334Y-12815524D02*
X16361667Y-12891714D01*
X16361667Y-12891714D02*
X16390238Y-12891714D01*
X16390238Y-12891714D02*
X16409286Y-12901238D01*
X16409286Y-12901238D02*
X16418810Y-12910762D01*
X16418810Y-12910762D02*
X16428334Y-12929809D01*
X16428334Y-12929809D02*
X16428334Y-12977428D01*
X16428334Y-12977428D02*
X16418810Y-12996476D01*
X16418810Y-12996476D02*
X16409286Y-13006000D01*
X16409286Y-13006000D02*
X16390238Y-13015524D01*
X16390238Y-13015524D02*
X16333095Y-13015524D01*
X16333095Y-13015524D02*
X16314048Y-13006000D01*
X16314048Y-13006000D02*
X16304524Y-12996476D01*
X16666429Y-13015524D02*
X16666429Y-12815524D01*
X16752143Y-13015524D02*
X16752143Y-12910762D01*
X16752143Y-12910762D02*
X16742619Y-12891714D01*
X16742619Y-12891714D02*
X16723572Y-12882190D01*
X16723572Y-12882190D02*
X16695000Y-12882190D01*
X16695000Y-12882190D02*
X16675953Y-12891714D01*
X16675953Y-12891714D02*
X16666429Y-12901238D01*
X16875953Y-13015524D02*
X16856905Y-13006000D01*
X16856905Y-13006000D02*
X16847381Y-12996476D01*
X16847381Y-12996476D02*
X16837858Y-12977428D01*
X16837858Y-12977428D02*
X16837858Y-12920286D01*
X16837858Y-12920286D02*
X16847381Y-12901238D01*
X16847381Y-12901238D02*
X16856905Y-12891714D01*
X16856905Y-12891714D02*
X16875953Y-12882190D01*
X16875953Y-12882190D02*
X16904524Y-12882190D01*
X16904524Y-12882190D02*
X16923572Y-12891714D01*
X16923572Y-12891714D02*
X16933096Y-12901238D01*
X16933096Y-12901238D02*
X16942619Y-12920286D01*
X16942619Y-12920286D02*
X16942619Y-12977428D01*
X16942619Y-12977428D02*
X16933096Y-12996476D01*
X16933096Y-12996476D02*
X16923572Y-13006000D01*
X16923572Y-13006000D02*
X16904524Y-13015524D01*
X16904524Y-13015524D02*
X16875953Y-13015524D01*
X17056905Y-13015524D02*
X17037858Y-13006000D01*
X17037858Y-13006000D02*
X17028334Y-12986952D01*
X17028334Y-12986952D02*
X17028334Y-12815524D01*
X17209286Y-13006000D02*
X17190239Y-13015524D01*
X17190239Y-13015524D02*
X17152143Y-13015524D01*
X17152143Y-13015524D02*
X17133096Y-13006000D01*
X17133096Y-13006000D02*
X17123572Y-12986952D01*
X17123572Y-12986952D02*
X17123572Y-12910762D01*
X17123572Y-12910762D02*
X17133096Y-12891714D01*
X17133096Y-12891714D02*
X17152143Y-12882190D01*
X17152143Y-12882190D02*
X17190239Y-12882190D01*
X17190239Y-12882190D02*
X17209286Y-12891714D01*
X17209286Y-12891714D02*
X17218810Y-12910762D01*
X17218810Y-12910762D02*
X17218810Y-12929809D01*
X17218810Y-12929809D02*
X17123572Y-12948857D01*
X17295000Y-13006000D02*
X17314048Y-13015524D01*
X17314048Y-13015524D02*
X17352143Y-13015524D01*
X17352143Y-13015524D02*
X17371191Y-13006000D01*
X17371191Y-13006000D02*
X17380715Y-12986952D01*
X17380715Y-12986952D02*
X17380715Y-12977428D01*
X17380715Y-12977428D02*
X17371191Y-12958381D01*
X17371191Y-12958381D02*
X17352143Y-12948857D01*
X17352143Y-12948857D02*
X17323572Y-12948857D01*
X17323572Y-12948857D02*
X17304524Y-12939333D01*
X17304524Y-12939333D02*
X17295000Y-12920286D01*
X17295000Y-12920286D02*
X17295000Y-12910762D01*
X17295000Y-12910762D02*
X17304524Y-12891714D01*
X17304524Y-12891714D02*
X17323572Y-12882190D01*
X17323572Y-12882190D02*
X17352143Y-12882190D01*
X17352143Y-12882190D02*
X17371191Y-12891714D01*
X17447381Y-13091714D02*
X17456905Y-13082190D01*
X17456905Y-13082190D02*
X17475953Y-13053619D01*
X17475953Y-13053619D02*
X17485477Y-13034571D01*
X17485477Y-13034571D02*
X17495000Y-13006000D01*
X17495000Y-13006000D02*
X17504524Y-12958381D01*
X17504524Y-12958381D02*
X17504524Y-12920286D01*
X17504524Y-12920286D02*
X17495000Y-12872667D01*
X17495000Y-12872667D02*
X17485477Y-12844095D01*
X17485477Y-12844095D02*
X17475953Y-12825048D01*
X17475953Y-12825048D02*
X17456905Y-12796476D01*
X17456905Y-12796476D02*
X17447381Y-12786952D01*
D15*
X12481820Y-13218820D02*
X12481820Y-13155180D01*
X12418180Y-13155180D01*
X12418180Y-13218820D01*
X12481820Y-13218820D01*
D11*
X12780714Y-13079524D02*
X12799762Y-13079524D01*
X12799762Y-13079524D02*
X12818809Y-13089048D01*
X12818809Y-13089048D02*
X12828333Y-13098571D01*
X12828333Y-13098571D02*
X12837857Y-13117619D01*
X12837857Y-13117619D02*
X12847381Y-13155714D01*
X12847381Y-13155714D02*
X12847381Y-13203333D01*
X12847381Y-13203333D02*
X12837857Y-13241428D01*
X12837857Y-13241428D02*
X12828333Y-13260476D01*
X12828333Y-13260476D02*
X12818809Y-13270000D01*
X12818809Y-13270000D02*
X12799762Y-13279524D01*
X12799762Y-13279524D02*
X12780714Y-13279524D01*
X12780714Y-13279524D02*
X12761667Y-13270000D01*
X12761667Y-13270000D02*
X12752143Y-13260476D01*
X12752143Y-13260476D02*
X12742619Y-13241428D01*
X12742619Y-13241428D02*
X12733095Y-13203333D01*
X12733095Y-13203333D02*
X12733095Y-13155714D01*
X12733095Y-13155714D02*
X12742619Y-13117619D01*
X12742619Y-13117619D02*
X12752143Y-13098571D01*
X12752143Y-13098571D02*
X12761667Y-13089048D01*
X12761667Y-13089048D02*
X12780714Y-13079524D01*
X12933095Y-13260476D02*
X12942619Y-13270000D01*
X12942619Y-13270000D02*
X12933095Y-13279524D01*
X12933095Y-13279524D02*
X12923571Y-13270000D01*
X12923571Y-13270000D02*
X12933095Y-13260476D01*
X12933095Y-13260476D02*
X12933095Y-13279524D01*
X13037857Y-13279524D02*
X13075952Y-13279524D01*
X13075952Y-13279524D02*
X13095000Y-13270000D01*
X13095000Y-13270000D02*
X13104524Y-13260476D01*
X13104524Y-13260476D02*
X13123571Y-13231905D01*
X13123571Y-13231905D02*
X13133095Y-13193809D01*
X13133095Y-13193809D02*
X13133095Y-13117619D01*
X13133095Y-13117619D02*
X13123571Y-13098571D01*
X13123571Y-13098571D02*
X13114048Y-13089048D01*
X13114048Y-13089048D02*
X13095000Y-13079524D01*
X13095000Y-13079524D02*
X13056905Y-13079524D01*
X13056905Y-13079524D02*
X13037857Y-13089048D01*
X13037857Y-13089048D02*
X13028333Y-13098571D01*
X13028333Y-13098571D02*
X13018809Y-13117619D01*
X13018809Y-13117619D02*
X13018809Y-13165238D01*
X13018809Y-13165238D02*
X13028333Y-13184286D01*
X13028333Y-13184286D02*
X13037857Y-13193809D01*
X13037857Y-13193809D02*
X13056905Y-13203333D01*
X13056905Y-13203333D02*
X13095000Y-13203333D01*
X13095000Y-13203333D02*
X13114048Y-13193809D01*
X13114048Y-13193809D02*
X13123571Y-13184286D01*
X13123571Y-13184286D02*
X13133095Y-13165238D01*
X13256905Y-13079524D02*
X13275952Y-13079524D01*
X13275952Y-13079524D02*
X13295000Y-13089048D01*
X13295000Y-13089048D02*
X13304524Y-13098571D01*
X13304524Y-13098571D02*
X13314048Y-13117619D01*
X13314048Y-13117619D02*
X13323571Y-13155714D01*
X13323571Y-13155714D02*
X13323571Y-13203333D01*
X13323571Y-13203333D02*
X13314048Y-13241428D01*
X13314048Y-13241428D02*
X13304524Y-13260476D01*
X13304524Y-13260476D02*
X13295000Y-13270000D01*
X13295000Y-13270000D02*
X13275952Y-13279524D01*
X13275952Y-13279524D02*
X13256905Y-13279524D01*
X13256905Y-13279524D02*
X13237857Y-13270000D01*
X13237857Y-13270000D02*
X13228333Y-13260476D01*
X13228333Y-13260476D02*
X13218809Y-13241428D01*
X13218809Y-13241428D02*
X13209286Y-13203333D01*
X13209286Y-13203333D02*
X13209286Y-13155714D01*
X13209286Y-13155714D02*
X13218809Y-13117619D01*
X13218809Y-13117619D02*
X13228333Y-13098571D01*
X13228333Y-13098571D02*
X13237857Y-13089048D01*
X13237857Y-13089048D02*
X13256905Y-13079524D01*
X13447381Y-13079524D02*
X13466429Y-13079524D01*
X13466429Y-13079524D02*
X13485476Y-13089048D01*
X13485476Y-13089048D02*
X13495000Y-13098571D01*
X13495000Y-13098571D02*
X13504524Y-13117619D01*
X13504524Y-13117619D02*
X13514048Y-13155714D01*
X13514048Y-13155714D02*
X13514048Y-13203333D01*
X13514048Y-13203333D02*
X13504524Y-13241428D01*
X13504524Y-13241428D02*
X13495000Y-13260476D01*
X13495000Y-13260476D02*
X13485476Y-13270000D01*
X13485476Y-13270000D02*
X13466429Y-13279524D01*
X13466429Y-13279524D02*
X13447381Y-13279524D01*
X13447381Y-13279524D02*
X13428333Y-13270000D01*
X13428333Y-13270000D02*
X13418809Y-13260476D01*
X13418809Y-13260476D02*
X13409286Y-13241428D01*
X13409286Y-13241428D02*
X13399762Y-13203333D01*
X13399762Y-13203333D02*
X13399762Y-13155714D01*
X13399762Y-13155714D02*
X13409286Y-13117619D01*
X13409286Y-13117619D02*
X13418809Y-13098571D01*
X13418809Y-13098571D02*
X13428333Y-13089048D01*
X13428333Y-13089048D02*
X13447381Y-13079524D01*
X13599762Y-13279524D02*
X13599762Y-13146190D01*
X13599762Y-13165238D02*
X13609286Y-13155714D01*
X13609286Y-13155714D02*
X13628333Y-13146190D01*
X13628333Y-13146190D02*
X13656905Y-13146190D01*
X13656905Y-13146190D02*
X13675952Y-13155714D01*
X13675952Y-13155714D02*
X13685476Y-13174762D01*
X13685476Y-13174762D02*
X13685476Y-13279524D01*
X13685476Y-13174762D02*
X13695000Y-13155714D01*
X13695000Y-13155714D02*
X13714048Y-13146190D01*
X13714048Y-13146190D02*
X13742619Y-13146190D01*
X13742619Y-13146190D02*
X13761667Y-13155714D01*
X13761667Y-13155714D02*
X13771190Y-13174762D01*
X13771190Y-13174762D02*
X13771190Y-13279524D01*
X13866429Y-13279524D02*
X13866429Y-13146190D01*
X13866429Y-13165238D02*
X13875952Y-13155714D01*
X13875952Y-13155714D02*
X13895000Y-13146190D01*
X13895000Y-13146190D02*
X13923571Y-13146190D01*
X13923571Y-13146190D02*
X13942619Y-13155714D01*
X13942619Y-13155714D02*
X13952143Y-13174762D01*
X13952143Y-13174762D02*
X13952143Y-13279524D01*
X13952143Y-13174762D02*
X13961667Y-13155714D01*
X13961667Y-13155714D02*
X13980714Y-13146190D01*
X13980714Y-13146190D02*
X14009286Y-13146190D01*
X14009286Y-13146190D02*
X14028333Y-13155714D01*
X14028333Y-13155714D02*
X14037857Y-13174762D01*
X14037857Y-13174762D02*
X14037857Y-13279524D01*
X14428333Y-13070000D02*
X14256905Y-13327143D01*
X14685476Y-13079524D02*
X14704524Y-13079524D01*
X14704524Y-13079524D02*
X14723572Y-13089048D01*
X14723572Y-13089048D02*
X14733095Y-13098571D01*
X14733095Y-13098571D02*
X14742619Y-13117619D01*
X14742619Y-13117619D02*
X14752143Y-13155714D01*
X14752143Y-13155714D02*
X14752143Y-13203333D01*
X14752143Y-13203333D02*
X14742619Y-13241428D01*
X14742619Y-13241428D02*
X14733095Y-13260476D01*
X14733095Y-13260476D02*
X14723572Y-13270000D01*
X14723572Y-13270000D02*
X14704524Y-13279524D01*
X14704524Y-13279524D02*
X14685476Y-13279524D01*
X14685476Y-13279524D02*
X14666429Y-13270000D01*
X14666429Y-13270000D02*
X14656905Y-13260476D01*
X14656905Y-13260476D02*
X14647381Y-13241428D01*
X14647381Y-13241428D02*
X14637857Y-13203333D01*
X14637857Y-13203333D02*
X14637857Y-13155714D01*
X14637857Y-13155714D02*
X14647381Y-13117619D01*
X14647381Y-13117619D02*
X14656905Y-13098571D01*
X14656905Y-13098571D02*
X14666429Y-13089048D01*
X14666429Y-13089048D02*
X14685476Y-13079524D01*
X14837857Y-13260476D02*
X14847381Y-13270000D01*
X14847381Y-13270000D02*
X14837857Y-13279524D01*
X14837857Y-13279524D02*
X14828333Y-13270000D01*
X14828333Y-13270000D02*
X14837857Y-13260476D01*
X14837857Y-13260476D02*
X14837857Y-13279524D01*
X14971191Y-13079524D02*
X14990238Y-13079524D01*
X14990238Y-13079524D02*
X15009286Y-13089048D01*
X15009286Y-13089048D02*
X15018810Y-13098571D01*
X15018810Y-13098571D02*
X15028333Y-13117619D01*
X15028333Y-13117619D02*
X15037857Y-13155714D01*
X15037857Y-13155714D02*
X15037857Y-13203333D01*
X15037857Y-13203333D02*
X15028333Y-13241428D01*
X15028333Y-13241428D02*
X15018810Y-13260476D01*
X15018810Y-13260476D02*
X15009286Y-13270000D01*
X15009286Y-13270000D02*
X14990238Y-13279524D01*
X14990238Y-13279524D02*
X14971191Y-13279524D01*
X14971191Y-13279524D02*
X14952143Y-13270000D01*
X14952143Y-13270000D02*
X14942619Y-13260476D01*
X14942619Y-13260476D02*
X14933095Y-13241428D01*
X14933095Y-13241428D02*
X14923572Y-13203333D01*
X14923572Y-13203333D02*
X14923572Y-13155714D01*
X14923572Y-13155714D02*
X14933095Y-13117619D01*
X14933095Y-13117619D02*
X14942619Y-13098571D01*
X14942619Y-13098571D02*
X14952143Y-13089048D01*
X14952143Y-13089048D02*
X14971191Y-13079524D01*
X15104524Y-13079524D02*
X15228333Y-13079524D01*
X15228333Y-13079524D02*
X15161667Y-13155714D01*
X15161667Y-13155714D02*
X15190238Y-13155714D01*
X15190238Y-13155714D02*
X15209286Y-13165238D01*
X15209286Y-13165238D02*
X15218810Y-13174762D01*
X15218810Y-13174762D02*
X15228333Y-13193809D01*
X15228333Y-13193809D02*
X15228333Y-13241428D01*
X15228333Y-13241428D02*
X15218810Y-13260476D01*
X15218810Y-13260476D02*
X15209286Y-13270000D01*
X15209286Y-13270000D02*
X15190238Y-13279524D01*
X15190238Y-13279524D02*
X15133095Y-13279524D01*
X15133095Y-13279524D02*
X15114048Y-13270000D01*
X15114048Y-13270000D02*
X15104524Y-13260476D01*
X15409286Y-13079524D02*
X15314048Y-13079524D01*
X15314048Y-13079524D02*
X15304524Y-13174762D01*
X15304524Y-13174762D02*
X15314048Y-13165238D01*
X15314048Y-13165238D02*
X15333095Y-13155714D01*
X15333095Y-13155714D02*
X15380714Y-13155714D01*
X15380714Y-13155714D02*
X15399762Y-13165238D01*
X15399762Y-13165238D02*
X15409286Y-13174762D01*
X15409286Y-13174762D02*
X15418810Y-13193809D01*
X15418810Y-13193809D02*
X15418810Y-13241428D01*
X15418810Y-13241428D02*
X15409286Y-13260476D01*
X15409286Y-13260476D02*
X15399762Y-13270000D01*
X15399762Y-13270000D02*
X15380714Y-13279524D01*
X15380714Y-13279524D02*
X15333095Y-13279524D01*
X15333095Y-13279524D02*
X15314048Y-13270000D01*
X15314048Y-13270000D02*
X15304524Y-13260476D01*
X15590238Y-13146190D02*
X15590238Y-13279524D01*
X15542619Y-13070000D02*
X15495000Y-13212857D01*
X15495000Y-13212857D02*
X15618810Y-13212857D01*
X15685476Y-13079524D02*
X15685476Y-13117619D01*
X15761667Y-13079524D02*
X15761667Y-13117619D01*
X16056905Y-13355714D02*
X16047381Y-13346190D01*
X16047381Y-13346190D02*
X16028334Y-13317619D01*
X16028334Y-13317619D02*
X16018810Y-13298571D01*
X16018810Y-13298571D02*
X16009286Y-13270000D01*
X16009286Y-13270000D02*
X15999762Y-13222381D01*
X15999762Y-13222381D02*
X15999762Y-13184286D01*
X15999762Y-13184286D02*
X16009286Y-13136667D01*
X16009286Y-13136667D02*
X16018810Y-13108095D01*
X16018810Y-13108095D02*
X16028334Y-13089048D01*
X16028334Y-13089048D02*
X16047381Y-13060476D01*
X16047381Y-13060476D02*
X16056905Y-13050952D01*
X16114048Y-13079524D02*
X16237857Y-13079524D01*
X16237857Y-13079524D02*
X16171191Y-13155714D01*
X16171191Y-13155714D02*
X16199762Y-13155714D01*
X16199762Y-13155714D02*
X16218810Y-13165238D01*
X16218810Y-13165238D02*
X16228334Y-13174762D01*
X16228334Y-13174762D02*
X16237857Y-13193809D01*
X16237857Y-13193809D02*
X16237857Y-13241428D01*
X16237857Y-13241428D02*
X16228334Y-13260476D01*
X16228334Y-13260476D02*
X16218810Y-13270000D01*
X16218810Y-13270000D02*
X16199762Y-13279524D01*
X16199762Y-13279524D02*
X16142619Y-13279524D01*
X16142619Y-13279524D02*
X16123572Y-13270000D01*
X16123572Y-13270000D02*
X16114048Y-13260476D01*
X16475953Y-13279524D02*
X16475953Y-13079524D01*
X16561667Y-13279524D02*
X16561667Y-13174762D01*
X16561667Y-13174762D02*
X16552143Y-13155714D01*
X16552143Y-13155714D02*
X16533096Y-13146190D01*
X16533096Y-13146190D02*
X16504524Y-13146190D01*
X16504524Y-13146190D02*
X16485476Y-13155714D01*
X16485476Y-13155714D02*
X16475953Y-13165238D01*
X16685476Y-13279524D02*
X16666429Y-13270000D01*
X16666429Y-13270000D02*
X16656905Y-13260476D01*
X16656905Y-13260476D02*
X16647381Y-13241428D01*
X16647381Y-13241428D02*
X16647381Y-13184286D01*
X16647381Y-13184286D02*
X16656905Y-13165238D01*
X16656905Y-13165238D02*
X16666429Y-13155714D01*
X16666429Y-13155714D02*
X16685476Y-13146190D01*
X16685476Y-13146190D02*
X16714048Y-13146190D01*
X16714048Y-13146190D02*
X16733096Y-13155714D01*
X16733096Y-13155714D02*
X16742619Y-13165238D01*
X16742619Y-13165238D02*
X16752143Y-13184286D01*
X16752143Y-13184286D02*
X16752143Y-13241428D01*
X16752143Y-13241428D02*
X16742619Y-13260476D01*
X16742619Y-13260476D02*
X16733096Y-13270000D01*
X16733096Y-13270000D02*
X16714048Y-13279524D01*
X16714048Y-13279524D02*
X16685476Y-13279524D01*
X16866429Y-13279524D02*
X16847381Y-13270000D01*
X16847381Y-13270000D02*
X16837858Y-13250952D01*
X16837858Y-13250952D02*
X16837858Y-13079524D01*
X17018810Y-13270000D02*
X16999762Y-13279524D01*
X16999762Y-13279524D02*
X16961667Y-13279524D01*
X16961667Y-13279524D02*
X16942619Y-13270000D01*
X16942619Y-13270000D02*
X16933096Y-13250952D01*
X16933096Y-13250952D02*
X16933096Y-13174762D01*
X16933096Y-13174762D02*
X16942619Y-13155714D01*
X16942619Y-13155714D02*
X16961667Y-13146190D01*
X16961667Y-13146190D02*
X16999762Y-13146190D01*
X16999762Y-13146190D02*
X17018810Y-13155714D01*
X17018810Y-13155714D02*
X17028334Y-13174762D01*
X17028334Y-13174762D02*
X17028334Y-13193809D01*
X17028334Y-13193809D02*
X16933096Y-13212857D01*
X17104524Y-13270000D02*
X17123572Y-13279524D01*
X17123572Y-13279524D02*
X17161667Y-13279524D01*
X17161667Y-13279524D02*
X17180715Y-13270000D01*
X17180715Y-13270000D02*
X17190239Y-13250952D01*
X17190239Y-13250952D02*
X17190239Y-13241428D01*
X17190239Y-13241428D02*
X17180715Y-13222381D01*
X17180715Y-13222381D02*
X17161667Y-13212857D01*
X17161667Y-13212857D02*
X17133096Y-13212857D01*
X17133096Y-13212857D02*
X17114048Y-13203333D01*
X17114048Y-13203333D02*
X17104524Y-13184286D01*
X17104524Y-13184286D02*
X17104524Y-13174762D01*
X17104524Y-13174762D02*
X17114048Y-13155714D01*
X17114048Y-13155714D02*
X17133096Y-13146190D01*
X17133096Y-13146190D02*
X17161667Y-13146190D01*
X17161667Y-13146190D02*
X17180715Y-13155714D01*
X17256905Y-13355714D02*
X17266429Y-13346190D01*
X17266429Y-13346190D02*
X17285477Y-13317619D01*
X17285477Y-13317619D02*
X17295000Y-13298571D01*
X17295000Y-13298571D02*
X17304524Y-13270000D01*
X17304524Y-13270000D02*
X17314048Y-13222381D01*
X17314048Y-13222381D02*
X17314048Y-13184286D01*
X17314048Y-13184286D02*
X17304524Y-13136667D01*
X17304524Y-13136667D02*
X17295000Y-13108095D01*
X17295000Y-13108095D02*
X17285477Y-13089048D01*
X17285477Y-13089048D02*
X17266429Y-13060476D01*
X17266429Y-13060476D02*
X17256905Y-13050952D01*
D10*
X12445000Y-13501000D02*
X12495000Y-13451000D01*
X12445000Y-13401000D01*
X12395000Y-13451000D01*
X12445000Y-13501000D01*
D11*
X12847381Y-13543524D02*
X12733095Y-13543524D01*
X12790238Y-13543524D02*
X12790238Y-13343524D01*
X12790238Y-13343524D02*
X12771190Y-13372095D01*
X12771190Y-13372095D02*
X12752143Y-13391143D01*
X12752143Y-13391143D02*
X12733095Y-13400667D01*
X12933095Y-13524476D02*
X12942619Y-13534000D01*
X12942619Y-13534000D02*
X12933095Y-13543524D01*
X12933095Y-13543524D02*
X12923571Y-13534000D01*
X12923571Y-13534000D02*
X12933095Y-13524476D01*
X12933095Y-13524476D02*
X12933095Y-13543524D01*
X13066428Y-13343524D02*
X13085476Y-13343524D01*
X13085476Y-13343524D02*
X13104524Y-13353048D01*
X13104524Y-13353048D02*
X13114048Y-13362571D01*
X13114048Y-13362571D02*
X13123571Y-13381619D01*
X13123571Y-13381619D02*
X13133095Y-13419714D01*
X13133095Y-13419714D02*
X13133095Y-13467333D01*
X13133095Y-13467333D02*
X13123571Y-13505428D01*
X13123571Y-13505428D02*
X13114048Y-13524476D01*
X13114048Y-13524476D02*
X13104524Y-13534000D01*
X13104524Y-13534000D02*
X13085476Y-13543524D01*
X13085476Y-13543524D02*
X13066428Y-13543524D01*
X13066428Y-13543524D02*
X13047381Y-13534000D01*
X13047381Y-13534000D02*
X13037857Y-13524476D01*
X13037857Y-13524476D02*
X13028333Y-13505428D01*
X13028333Y-13505428D02*
X13018809Y-13467333D01*
X13018809Y-13467333D02*
X13018809Y-13419714D01*
X13018809Y-13419714D02*
X13028333Y-13381619D01*
X13028333Y-13381619D02*
X13037857Y-13362571D01*
X13037857Y-13362571D02*
X13047381Y-13353048D01*
X13047381Y-13353048D02*
X13066428Y-13343524D01*
X13256905Y-13343524D02*
X13275952Y-13343524D01*
X13275952Y-13343524D02*
X13295000Y-13353048D01*
X13295000Y-13353048D02*
X13304524Y-13362571D01*
X13304524Y-13362571D02*
X13314048Y-13381619D01*
X13314048Y-13381619D02*
X13323571Y-13419714D01*
X13323571Y-13419714D02*
X13323571Y-13467333D01*
X13323571Y-13467333D02*
X13314048Y-13505428D01*
X13314048Y-13505428D02*
X13304524Y-13524476D01*
X13304524Y-13524476D02*
X13295000Y-13534000D01*
X13295000Y-13534000D02*
X13275952Y-13543524D01*
X13275952Y-13543524D02*
X13256905Y-13543524D01*
X13256905Y-13543524D02*
X13237857Y-13534000D01*
X13237857Y-13534000D02*
X13228333Y-13524476D01*
X13228333Y-13524476D02*
X13218809Y-13505428D01*
X13218809Y-13505428D02*
X13209286Y-13467333D01*
X13209286Y-13467333D02*
X13209286Y-13419714D01*
X13209286Y-13419714D02*
X13218809Y-13381619D01*
X13218809Y-13381619D02*
X13228333Y-13362571D01*
X13228333Y-13362571D02*
X13237857Y-13353048D01*
X13237857Y-13353048D02*
X13256905Y-13343524D01*
X13447381Y-13343524D02*
X13466429Y-13343524D01*
X13466429Y-13343524D02*
X13485476Y-13353048D01*
X13485476Y-13353048D02*
X13495000Y-13362571D01*
X13495000Y-13362571D02*
X13504524Y-13381619D01*
X13504524Y-13381619D02*
X13514048Y-13419714D01*
X13514048Y-13419714D02*
X13514048Y-13467333D01*
X13514048Y-13467333D02*
X13504524Y-13505428D01*
X13504524Y-13505428D02*
X13495000Y-13524476D01*
X13495000Y-13524476D02*
X13485476Y-13534000D01*
X13485476Y-13534000D02*
X13466429Y-13543524D01*
X13466429Y-13543524D02*
X13447381Y-13543524D01*
X13447381Y-13543524D02*
X13428333Y-13534000D01*
X13428333Y-13534000D02*
X13418809Y-13524476D01*
X13418809Y-13524476D02*
X13409286Y-13505428D01*
X13409286Y-13505428D02*
X13399762Y-13467333D01*
X13399762Y-13467333D02*
X13399762Y-13419714D01*
X13399762Y-13419714D02*
X13409286Y-13381619D01*
X13409286Y-13381619D02*
X13418809Y-13362571D01*
X13418809Y-13362571D02*
X13428333Y-13353048D01*
X13428333Y-13353048D02*
X13447381Y-13343524D01*
X13599762Y-13543524D02*
X13599762Y-13410190D01*
X13599762Y-13429238D02*
X13609286Y-13419714D01*
X13609286Y-13419714D02*
X13628333Y-13410190D01*
X13628333Y-13410190D02*
X13656905Y-13410190D01*
X13656905Y-13410190D02*
X13675952Y-13419714D01*
X13675952Y-13419714D02*
X13685476Y-13438762D01*
X13685476Y-13438762D02*
X13685476Y-13543524D01*
X13685476Y-13438762D02*
X13695000Y-13419714D01*
X13695000Y-13419714D02*
X13714048Y-13410190D01*
X13714048Y-13410190D02*
X13742619Y-13410190D01*
X13742619Y-13410190D02*
X13761667Y-13419714D01*
X13761667Y-13419714D02*
X13771190Y-13438762D01*
X13771190Y-13438762D02*
X13771190Y-13543524D01*
X13866429Y-13543524D02*
X13866429Y-13410190D01*
X13866429Y-13429238D02*
X13875952Y-13419714D01*
X13875952Y-13419714D02*
X13895000Y-13410190D01*
X13895000Y-13410190D02*
X13923571Y-13410190D01*
X13923571Y-13410190D02*
X13942619Y-13419714D01*
X13942619Y-13419714D02*
X13952143Y-13438762D01*
X13952143Y-13438762D02*
X13952143Y-13543524D01*
X13952143Y-13438762D02*
X13961667Y-13419714D01*
X13961667Y-13419714D02*
X13980714Y-13410190D01*
X13980714Y-13410190D02*
X14009286Y-13410190D01*
X14009286Y-13410190D02*
X14028333Y-13419714D01*
X14028333Y-13419714D02*
X14037857Y-13438762D01*
X14037857Y-13438762D02*
X14037857Y-13543524D01*
X14428333Y-13334000D02*
X14256905Y-13591143D01*
X14685476Y-13343524D02*
X14704524Y-13343524D01*
X14704524Y-13343524D02*
X14723572Y-13353048D01*
X14723572Y-13353048D02*
X14733095Y-13362571D01*
X14733095Y-13362571D02*
X14742619Y-13381619D01*
X14742619Y-13381619D02*
X14752143Y-13419714D01*
X14752143Y-13419714D02*
X14752143Y-13467333D01*
X14752143Y-13467333D02*
X14742619Y-13505428D01*
X14742619Y-13505428D02*
X14733095Y-13524476D01*
X14733095Y-13524476D02*
X14723572Y-13534000D01*
X14723572Y-13534000D02*
X14704524Y-13543524D01*
X14704524Y-13543524D02*
X14685476Y-13543524D01*
X14685476Y-13543524D02*
X14666429Y-13534000D01*
X14666429Y-13534000D02*
X14656905Y-13524476D01*
X14656905Y-13524476D02*
X14647381Y-13505428D01*
X14647381Y-13505428D02*
X14637857Y-13467333D01*
X14637857Y-13467333D02*
X14637857Y-13419714D01*
X14637857Y-13419714D02*
X14647381Y-13381619D01*
X14647381Y-13381619D02*
X14656905Y-13362571D01*
X14656905Y-13362571D02*
X14666429Y-13353048D01*
X14666429Y-13353048D02*
X14685476Y-13343524D01*
X14837857Y-13524476D02*
X14847381Y-13534000D01*
X14847381Y-13534000D02*
X14837857Y-13543524D01*
X14837857Y-13543524D02*
X14828333Y-13534000D01*
X14828333Y-13534000D02*
X14837857Y-13524476D01*
X14837857Y-13524476D02*
X14837857Y-13543524D01*
X14971191Y-13343524D02*
X14990238Y-13343524D01*
X14990238Y-13343524D02*
X15009286Y-13353048D01*
X15009286Y-13353048D02*
X15018810Y-13362571D01*
X15018810Y-13362571D02*
X15028333Y-13381619D01*
X15028333Y-13381619D02*
X15037857Y-13419714D01*
X15037857Y-13419714D02*
X15037857Y-13467333D01*
X15037857Y-13467333D02*
X15028333Y-13505428D01*
X15028333Y-13505428D02*
X15018810Y-13524476D01*
X15018810Y-13524476D02*
X15009286Y-13534000D01*
X15009286Y-13534000D02*
X14990238Y-13543524D01*
X14990238Y-13543524D02*
X14971191Y-13543524D01*
X14971191Y-13543524D02*
X14952143Y-13534000D01*
X14952143Y-13534000D02*
X14942619Y-13524476D01*
X14942619Y-13524476D02*
X14933095Y-13505428D01*
X14933095Y-13505428D02*
X14923572Y-13467333D01*
X14923572Y-13467333D02*
X14923572Y-13419714D01*
X14923572Y-13419714D02*
X14933095Y-13381619D01*
X14933095Y-13381619D02*
X14942619Y-13362571D01*
X14942619Y-13362571D02*
X14952143Y-13353048D01*
X14952143Y-13353048D02*
X14971191Y-13343524D01*
X15104524Y-13343524D02*
X15228333Y-13343524D01*
X15228333Y-13343524D02*
X15161667Y-13419714D01*
X15161667Y-13419714D02*
X15190238Y-13419714D01*
X15190238Y-13419714D02*
X15209286Y-13429238D01*
X15209286Y-13429238D02*
X15218810Y-13438762D01*
X15218810Y-13438762D02*
X15228333Y-13457809D01*
X15228333Y-13457809D02*
X15228333Y-13505428D01*
X15228333Y-13505428D02*
X15218810Y-13524476D01*
X15218810Y-13524476D02*
X15209286Y-13534000D01*
X15209286Y-13534000D02*
X15190238Y-13543524D01*
X15190238Y-13543524D02*
X15133095Y-13543524D01*
X15133095Y-13543524D02*
X15114048Y-13534000D01*
X15114048Y-13534000D02*
X15104524Y-13524476D01*
X15323572Y-13543524D02*
X15361667Y-13543524D01*
X15361667Y-13543524D02*
X15380714Y-13534000D01*
X15380714Y-13534000D02*
X15390238Y-13524476D01*
X15390238Y-13524476D02*
X15409286Y-13495905D01*
X15409286Y-13495905D02*
X15418810Y-13457809D01*
X15418810Y-13457809D02*
X15418810Y-13381619D01*
X15418810Y-13381619D02*
X15409286Y-13362571D01*
X15409286Y-13362571D02*
X15399762Y-13353048D01*
X15399762Y-13353048D02*
X15380714Y-13343524D01*
X15380714Y-13343524D02*
X15342619Y-13343524D01*
X15342619Y-13343524D02*
X15323572Y-13353048D01*
X15323572Y-13353048D02*
X15314048Y-13362571D01*
X15314048Y-13362571D02*
X15304524Y-13381619D01*
X15304524Y-13381619D02*
X15304524Y-13429238D01*
X15304524Y-13429238D02*
X15314048Y-13448286D01*
X15314048Y-13448286D02*
X15323572Y-13457809D01*
X15323572Y-13457809D02*
X15342619Y-13467333D01*
X15342619Y-13467333D02*
X15380714Y-13467333D01*
X15380714Y-13467333D02*
X15399762Y-13457809D01*
X15399762Y-13457809D02*
X15409286Y-13448286D01*
X15409286Y-13448286D02*
X15418810Y-13429238D01*
X15590238Y-13410190D02*
X15590238Y-13543524D01*
X15542619Y-13334000D02*
X15495000Y-13476857D01*
X15495000Y-13476857D02*
X15618810Y-13476857D01*
X15685476Y-13343524D02*
X15685476Y-13381619D01*
X15761667Y-13343524D02*
X15761667Y-13381619D01*
X16056905Y-13619714D02*
X16047381Y-13610190D01*
X16047381Y-13610190D02*
X16028334Y-13581619D01*
X16028334Y-13581619D02*
X16018810Y-13562571D01*
X16018810Y-13562571D02*
X16009286Y-13534000D01*
X16009286Y-13534000D02*
X15999762Y-13486381D01*
X15999762Y-13486381D02*
X15999762Y-13448286D01*
X15999762Y-13448286D02*
X16009286Y-13400667D01*
X16009286Y-13400667D02*
X16018810Y-13372095D01*
X16018810Y-13372095D02*
X16028334Y-13353048D01*
X16028334Y-13353048D02*
X16047381Y-13324476D01*
X16047381Y-13324476D02*
X16056905Y-13314952D01*
X16237857Y-13543524D02*
X16123572Y-13543524D01*
X16180714Y-13543524D02*
X16180714Y-13343524D01*
X16180714Y-13343524D02*
X16161667Y-13372095D01*
X16161667Y-13372095D02*
X16142619Y-13391143D01*
X16142619Y-13391143D02*
X16123572Y-13400667D01*
X16314048Y-13362571D02*
X16323572Y-13353048D01*
X16323572Y-13353048D02*
X16342619Y-13343524D01*
X16342619Y-13343524D02*
X16390238Y-13343524D01*
X16390238Y-13343524D02*
X16409286Y-13353048D01*
X16409286Y-13353048D02*
X16418810Y-13362571D01*
X16418810Y-13362571D02*
X16428334Y-13381619D01*
X16428334Y-13381619D02*
X16428334Y-13400667D01*
X16428334Y-13400667D02*
X16418810Y-13429238D01*
X16418810Y-13429238D02*
X16304524Y-13543524D01*
X16304524Y-13543524D02*
X16428334Y-13543524D01*
X16666429Y-13543524D02*
X16666429Y-13343524D01*
X16752143Y-13543524D02*
X16752143Y-13438762D01*
X16752143Y-13438762D02*
X16742619Y-13419714D01*
X16742619Y-13419714D02*
X16723572Y-13410190D01*
X16723572Y-13410190D02*
X16695000Y-13410190D01*
X16695000Y-13410190D02*
X16675953Y-13419714D01*
X16675953Y-13419714D02*
X16666429Y-13429238D01*
X16875953Y-13543524D02*
X16856905Y-13534000D01*
X16856905Y-13534000D02*
X16847381Y-13524476D01*
X16847381Y-13524476D02*
X16837858Y-13505428D01*
X16837858Y-13505428D02*
X16837858Y-13448286D01*
X16837858Y-13448286D02*
X16847381Y-13429238D01*
X16847381Y-13429238D02*
X16856905Y-13419714D01*
X16856905Y-13419714D02*
X16875953Y-13410190D01*
X16875953Y-13410190D02*
X16904524Y-13410190D01*
X16904524Y-13410190D02*
X16923572Y-13419714D01*
X16923572Y-13419714D02*
X16933096Y-13429238D01*
X16933096Y-13429238D02*
X16942619Y-13448286D01*
X16942619Y-13448286D02*
X16942619Y-13505428D01*
X16942619Y-13505428D02*
X16933096Y-13524476D01*
X16933096Y-13524476D02*
X16923572Y-13534000D01*
X16923572Y-13534000D02*
X16904524Y-13543524D01*
X16904524Y-13543524D02*
X16875953Y-13543524D01*
X17056905Y-13543524D02*
X17037858Y-13534000D01*
X17037858Y-13534000D02*
X17028334Y-13514952D01*
X17028334Y-13514952D02*
X17028334Y-13343524D01*
X17209286Y-13534000D02*
X17190239Y-13543524D01*
X17190239Y-13543524D02*
X17152143Y-13543524D01*
X17152143Y-13543524D02*
X17133096Y-13534000D01*
X17133096Y-13534000D02*
X17123572Y-13514952D01*
X17123572Y-13514952D02*
X17123572Y-13438762D01*
X17123572Y-13438762D02*
X17133096Y-13419714D01*
X17133096Y-13419714D02*
X17152143Y-13410190D01*
X17152143Y-13410190D02*
X17190239Y-13410190D01*
X17190239Y-13410190D02*
X17209286Y-13419714D01*
X17209286Y-13419714D02*
X17218810Y-13438762D01*
X17218810Y-13438762D02*
X17218810Y-13457809D01*
X17218810Y-13457809D02*
X17123572Y-13476857D01*
X17295000Y-13534000D02*
X17314048Y-13543524D01*
X17314048Y-13543524D02*
X17352143Y-13543524D01*
X17352143Y-13543524D02*
X17371191Y-13534000D01*
X17371191Y-13534000D02*
X17380715Y-13514952D01*
X17380715Y-13514952D02*
X17380715Y-13505428D01*
X17380715Y-13505428D02*
X17371191Y-13486381D01*
X17371191Y-13486381D02*
X17352143Y-13476857D01*
X17352143Y-13476857D02*
X17323572Y-13476857D01*
X17323572Y-13476857D02*
X17304524Y-13467333D01*
X17304524Y-13467333D02*
X17295000Y-13448286D01*
X17295000Y-13448286D02*
X17295000Y-13438762D01*
X17295000Y-13438762D02*
X17304524Y-13419714D01*
X17304524Y-13419714D02*
X17323572Y-13410190D01*
X17323572Y-13410190D02*
X17352143Y-13410190D01*
X17352143Y-13410190D02*
X17371191Y-13419714D01*
X17447381Y-13619714D02*
X17456905Y-13610190D01*
X17456905Y-13610190D02*
X17475953Y-13581619D01*
X17475953Y-13581619D02*
X17485477Y-13562571D01*
X17485477Y-13562571D02*
X17495000Y-13534000D01*
X17495000Y-13534000D02*
X17504524Y-13486381D01*
X17504524Y-13486381D02*
X17504524Y-13448286D01*
X17504524Y-13448286D02*
X17495000Y-13400667D01*
X17495000Y-13400667D02*
X17485477Y-13372095D01*
X17485477Y-13372095D02*
X17475953Y-13353048D01*
X17475953Y-13353048D02*
X17456905Y-13324476D01*
X17456905Y-13324476D02*
X17447381Y-13314952D01*
M02*
